<svg xmlns="http://www.w3.org/2000/svg" xmlns:xlink="http://www.w3.org/1999/xlink" width="103" height="103" viewBox="0 0 103 103">
  <defs>
    <filter id="Trazado_982547" x="0" y="0" width="103" height="103" filterUnits="userSpaceOnUse">
      <feOffset dy="3" input="SourceAlpha"/>
      <feGaussianBlur stdDeviation="3" result="blur"/>
      <feFlood flood-opacity="0.161"/>
      <feComposite operator="in" in2="blur"/>
      <feComposite in="SourceGraphic"/>
    </filter>
  </defs>
  <g id="Grupo_1231089" data-name="Grupo 1231089" transform="translate(-171 -4198.965)">
    <g id="Grupo_1230188" data-name="Grupo 1230188" transform="translate(0 444)">
      <g id="Grupo_1227863" data-name="Grupo 1227863" transform="translate(-26.01 -717.035)">
        <g id="Grupo_1203964" data-name="Grupo 1203964" transform="translate(206.01 4478)">
          <g id="Grupo_1203625" data-name="Grupo 1203625" transform="translate(0)">
            <g id="Grupo_1178314" data-name="Grupo 1178314" transform="translate(0 0)">
              <g id="Grupo_1173988" data-name="Grupo 1173988">
                <g id="Grupo_1172010" data-name="Grupo 1172010">
                  <g id="Grupo_1171046" data-name="Grupo 1171046">
                    <g id="Grupo_1148525" data-name="Grupo 1148525">
                      <g transform="matrix(1, 0, 0, 1, -9, -6)" filter="url(#Trazado_982547)">
                        <g id="Trazado_982547-2" data-name="Trazado 982547" transform="translate(9 6)" fill="#f6f6fd">
                          <path d="M 42.5 83.5 C 36.96437835693359 83.5 31.59512901306152 82.41617584228516 26.54141235351562 80.27863311767578 C 21.65934181213379 78.21369171142578 17.27447128295898 75.25723266601562 13.50862312316895 71.49137878417969 C 9.742764472961426 67.72553253173828 6.786305904388428 63.34066009521484 4.721364498138428 58.45858764648438 C 2.583823442459106 53.40486907958984 1.5 48.03562164306641 1.5 42.5 C 1.5 36.96437835693359 2.583823442459106 31.59512901306152 4.721364498138428 26.54141235351562 C 6.786305904388428 21.65934181213379 9.742764472961426 17.27448272705078 13.50862312316895 13.50862312316895 C 17.27447128295898 9.742776870727539 21.65934181213379 6.786305904388428 26.54141235351562 4.721364498138428 C 31.59512901306152 2.583823442459106 36.96437835693359 1.5 42.5 1.5 C 48.03562164306641 1.5 53.40486907958984 2.583823442459106 58.45858764648438 4.721364498138428 C 63.34066009521484 6.786305904388428 67.72553253173828 9.742776870727539 71.49137878417969 13.50862312316895 C 75.25723266601562 17.27448272705078 78.21369171142578 21.65934181213379 80.27863311767578 26.54141235351562 C 82.41617584228516 31.59512901306152 83.5 36.96437835693359 83.5 42.5 C 83.5 48.03562164306641 82.41617584228516 53.40486907958984 80.27863311767578 58.45858764648438 C 78.21369171142578 63.34066009521484 75.25723266601562 67.72553253173828 71.49137878417969 71.49137878417969 C 67.72553253173828 75.25723266601562 63.34066009521484 78.21369171142578 58.45858764648438 80.27863311767578 C 53.40486907958984 82.41617584228516 48.03562164306641 83.5 42.5 83.5 Z" stroke="none"/>
                          <path d="M 42.5 3 C 37.16621398925781 3 31.99356079101562 4.043960571289062 27.125732421875 6.102882385253906 C 22.42246627807617 8.092185974121094 18.19785308837891 10.94070434570312 14.56928253173828 14.56928253173828 C 10.94070434570312 18.19785308837891 8.092185974121094 22.42246627807617 6.102882385253906 27.125732421875 C 4.043960571289062 31.99356079101562 3 37.16621398925781 3 42.5 C 3 47.83378601074219 4.043960571289062 53.00643920898438 6.102882385253906 57.87425231933594 C 8.092185974121094 62.57753372192383 10.94070434570312 66.80213165283203 14.56928253173828 70.43071746826172 C 18.19786834716797 74.05929565429688 22.42246627807617 76.90781402587891 27.125732421875 78.89711761474609 C 31.99356079101562 80.95603942871094 37.16621398925781 82 42.5 82 C 47.83378601074219 82 53.00642395019531 80.95603942871094 57.87425231933594 78.89711761474609 C 62.57753372192383 76.90781402587891 66.80213165283203 74.05929565429688 70.43071746826172 70.43071746826172 C 74.05929565429688 66.80213165283203 76.90781402587891 62.57753372192383 78.89711761474609 57.87425231933594 C 80.95603942871094 53.00642395019531 82 47.83378601074219 82 42.5 C 82 37.16621398925781 80.95603942871094 31.99356079101562 78.89711761474609 27.125732421875 C 76.90781402587891 22.42246627807617 74.05929565429688 18.19786834716797 70.43071746826172 14.56928253173828 C 66.80213165283203 10.94070434570312 62.57753372192383 8.092185974121094 57.87425231933594 6.102882385253906 C 53.00643920898438 4.043960571289062 47.83378601074219 3 42.5 3 M 42.5 0 C 65.97209167480469 0 85 19.02789306640625 85 42.5 C 85 65.97209167480469 65.97209167480469 85 42.5 85 C 19.02789306640625 85 0 65.97209167480469 0 42.5 C 0 19.02789306640625 19.02789306640625 0 42.5 0 Z" stroke="none" fill="#b1aef1"/>
                        </g>
                      </g>
                    </g>
                  </g>
                </g>
              </g>
            </g>
          </g>
        </g>
      </g>
    </g>
    <g id="Page-1" transform="translate(192.5 4212.965)">
      <g id="_026---Idea" data-name="026---Idea">
        <path id="Shape" d="M25.45,50.56,25,56H3.43a2,2,0,0,1-1.97-2.38L5.84,31.14a1,1,0,0,1,.98-.81H9.6L6.27,50.35a1.008,1.008,0,0,0,1.29,1.12,34.21,34.21,0,0,1,17.89-.91Z" fill="sienna"/>
        <path id="Shape-2" data-name="Shape" d="M56.57,56H35l-.45-5.44a34.21,34.21,0,0,1,17.89.91,1.008,1.008,0,0,0,1.29-1.12L50.4,30.33h2.78a1,1,0,0,1,.98.81l4.38,22.48A2,2,0,0,1,56.57,56Z" fill="sienna"/>
        <path id="Shape-3" data-name="Shape" d="M58.54,53.62,54.16,31.14a1,1,0,0,0-.98-.81H50.4l.007.04a1,1,0,0,1,.753.77l4.38,22.48A2,2,0,0,1,53.57,56h3a2,2,0,0,0,1.97-2.38Z" fill="#783e22"/>
        <path id="Shape-4" data-name="Shape" d="M52.44,51.47a34.21,34.21,0,0,0-17.89-.91A23.151,23.151,0,0,0,30,52a23.151,23.151,0,0,0-4.55-1.44,34.21,34.21,0,0,0-17.89.91,1.008,1.008,0,0,1-1.29-1.12L9.6,30.33l.28-1.69a1.008,1.008,0,0,1,.84-.83c.68-.1,1.38-.2,2.08-.28a7.133,7.133,0,0,0,6.34,3.87,7.21,7.21,0,0,0,2.47-.44,5.267,5.267,0,0,0,8.97,1.72,8.674,8.674,0,0,0,3.14.59h.06c.21,1.8,1.15,2.86,4.29,3.91a5.47,5.47,0,0,1,2.48,1.64,2.118,2.118,0,0,0,2.45.63,2.088,2.088,0,0,0,1.26-1.91,2.035,2.035,0,0,0-.1-.64,8.828,8.828,0,0,0-1.32-2.66,7.438,7.438,0,0,0,3.79-5.2,5.184,5.184,0,0,0,.93-1.46c.58.07,1.15.14,1.72.23a1.008,1.008,0,0,1,.84.83l.28,1.69,3.33,20.02a1.008,1.008,0,0,1-1.29,1.12Z" fill="#f5f5f5"/>
        <path id="Shape-5" data-name="Shape" d="M53.73,50.35,50.4,30.33l-.28-1.69a1.008,1.008,0,0,0-.84-.83c-.57-.09-1.14-.16-1.72-.23a5.2,5.2,0,0,1-.5.891.988.988,0,0,1,.057.169l.28,1.69,3.33,20.02a.968.968,0,0,1-.1.6c.6.157,1.2.326,1.807.521a1.008,1.008,0,0,0,1.3-1.121Z" fill="#cfd8dc"/>
        <path id="Shape-6" data-name="Shape" d="M35,56c0,1.1-2.24,2-5,2s-5-.9-5-2l.45-5.44A23.151,23.151,0,0,1,30,52a23.151,23.151,0,0,1,4.55-1.44Z" fill="#783e22"/>
        <path id="Shape-7" data-name="Shape" d="M48,25.49a5.052,5.052,0,0,1-.44,2.09,5.184,5.184,0,0,1-.93,1.46,7.438,7.438,0,0,1-3.79,5.2,8.828,8.828,0,0,1,1.32,2.66,2.035,2.035,0,0,1,.1.64A2.088,2.088,0,0,1,43,39.45a2.118,2.118,0,0,1-2.45-.63,5.47,5.47,0,0,0-2.48-1.64c-3.14-1.05-4.08-2.11-4.29-3.91h-.06a8.674,8.674,0,0,1-3.14-.59,5.267,5.267,0,0,1-8.97-1.72,7.144,7.144,0,0,1-8.19-10.98,2.921,2.921,0,0,1-.18-1.02,3.115,3.115,0,0,1,2.5-3.06c-.01-.12-.02-.24-.02-.37a4.042,4.042,0,0,1,4.04-4.04,3.946,3.946,0,0,1,1.75.4A5.906,5.906,0,0,1,26.59,9a5.8,5.8,0,0,1,3.88,1.47,3.1,3.1,0,0,1,5.5.45,8.108,8.108,0,0,1,.86-.05,7.458,7.458,0,0,1,7.42,6.84h.03a3.1,3.1,0,0,1,3.1,3.11,3.209,3.209,0,0,1-.4,1.54A5.3,5.3,0,0,1,48,25.49Z" fill="#e91e63"/>
        <path id="Shape-8" data-name="Shape" d="M46.98,22.36a3.209,3.209,0,0,0,.4-1.54,3.1,3.1,0,0,0-3.1-3.11h-.03a7.458,7.458,0,0,0-7.42-6.84,8.108,8.108,0,0,0-.86.05A3.089,3.089,0,0,0,31.6,9.393a3.076,3.076,0,0,1,1.37,1.527,8.108,8.108,0,0,1,.86-.05,7.458,7.458,0,0,1,7.42,6.84h.03a3.1,3.1,0,0,1,3.1,3.11,3.209,3.209,0,0,1-.4,1.54A5.3,5.3,0,0,1,45,25.49a5.052,5.052,0,0,1-.44,2.09,5.184,5.184,0,0,1-.93,1.46,7.438,7.438,0,0,1-3.79,5.2,8.828,8.828,0,0,1,1.32,2.66,2.035,2.035,0,0,1,.1.64,2.069,2.069,0,0,1-.582,1.41,2.065,2.065,0,0,0,3.582-1.41,2.035,2.035,0,0,0-.1-.64,8.828,8.828,0,0,0-1.32-2.66,7.438,7.438,0,0,0,3.79-5.2,5.184,5.184,0,0,0,.93-1.46A5.052,5.052,0,0,0,48,25.49a5.3,5.3,0,0,0-1.02-3.13Z" fill="#ad1457"/>
        <path id="Shape-9" data-name="Shape" d="M40.562,25.483a1,1,0,1,0-1.787.9,1.489,1.489,0,0,1-.482,1.885,1.509,1.509,0,0,1-2.172-.554,1,1,0,1,0-1.789.9,3.484,3.484,0,1,0,6.23-3.122Z" fill="#ad1457"/>
        <path id="Shape-10" data-name="Shape" d="M34.5,24.994a5.971,5.971,0,0,0,2.479-3.806,1,1,0,1,0-1.964-.376,3.986,3.986,0,0,1-1.656,2.539,4.082,4.082,0,0,1-5.264-.6,1,1,0,0,0-1.48,1.349,6.03,6.03,0,0,0,3.2,1.848A2.979,2.979,0,0,1,27.386,27.2a1,1,0,0,0,0,2,4.959,4.959,0,0,0,4.659-3.207,6.025,6.025,0,0,0,2.455-1Z" fill="#ad1457"/>
        <path id="Shape-11" data-name="Shape" d="M21.124,27.225A1.5,1.5,0,0,1,19.207,25.8v-.025a.989.989,0,0,0-1-.987,1.01,1.01,0,0,0-1,1.012,3.49,3.49,0,0,0,3.482,3.489,3.548,3.548,0,0,0,1-.147,1,1,0,0,0-.57-1.917Z" fill="#ad1457"/>
        <path id="Shape-12" data-name="Shape" d="M27.8,17a1,1,0,0,0-1-1,4.605,4.605,0,0,0-4.6,4.6,1,1,0,0,0,2,0A2.6,2.6,0,0,1,26.8,18a1,1,0,0,0,1-1Z" fill="#ad1457"/>
        <g id="Grupo_1231088" data-name="Grupo 1231088">
          <path id="Shape-13" data-name="Shape" d="M30,3a1,1,0,0,1-1-1V1a1,1,0,0,1,2,0V2A1,1,0,0,1,30,3Z" fill="#ffdc00"/>
          <path id="Shape-14" data-name="Shape" d="M46.117,9.883a1,1,0,0,1-.707-1.707l1-1A1,1,0,1,1,47.824,8.59l-1,1a1,1,0,0,1-.707.293Z" fill="#ffdc00"/>
          <path id="Shape-15" data-name="Shape" d="M13.883,9.883a1,1,0,0,1-.707-.293l-1-1A1,1,0,1,1,13.59,7.176l1,1a1,1,0,0,1-.707,1.707Z" fill="#ffdc00"/>
          <path id="Shape-16" data-name="Shape" d="M21.581,5.675a1,1,0,0,1-.924-.617L19.509,2.286a1,1,0,1,1,1.847-.766L22.5,4.292A1,1,0,0,1,21.964,5.6a1.014,1.014,0,0,1-.383.075Z" fill="#ffdc00"/>
          <path id="Shape-17" data-name="Shape" d="M38.419,5.675a1.014,1.014,0,0,1-.383-.076,1,1,0,0,1-.541-1.307L38.644,1.52a1,1,0,1,1,1.847.766L39.343,5.058a1,1,0,0,1-.924.617Z" fill="#ffdc00"/>
          <path id="Shape-18" data-name="Shape" d="M50.325,17.582a1,1,0,0,1-.383-1.925l2.772-1.148a1,1,0,1,1,.765,1.848l-2.771,1.148a1,1,0,0,1-.383.077Z" fill="#ffdc00"/>
          <path id="Shape-19" data-name="Shape" d="M9.675,17.582a1,1,0,0,1-.383-.077L6.521,16.357a1,1,0,0,1,.765-1.848l2.772,1.148a1,1,0,0,1-.383,1.925Z" fill="#ffdc00"/>
        </g>
        <path id="Shape-20" data-name="Shape" d="M55.143,30.953A2,2,0,0,0,53.18,29.33H51.249l-.142-.851a2.01,2.01,0,0,0-1.671-1.657c-.19-.03-.382-.05-.571-.076a6.1,6.1,0,0,0-.76-4.459,4.092,4.092,0,0,0-2.965-5.474,8.509,8.509,0,0,0-8.313-6.946c-.1,0-.189.013-.284.016a4.068,4.068,0,0,0-6.223-.774A6.864,6.864,0,0,0,26.586,8a6.943,6.943,0,0,0-5.458,2.688,4.981,4.981,0,0,0-6.366,4.476,4.116,4.116,0,0,0-2.521,3.792,4.067,4.067,0,0,0,.1.853,8.048,8.048,0,0,0-.959,6.9c-.268.037-.542.07-.8.108A2.012,2.012,0,0,0,8.9,28.473l-.142.854H6.82a2,2,0,0,0-1.962,1.619L.479,53.428A3,3,0,0,0,3.43,57H24.284c.828,1.366,3.344,2,5.716,2,2.347,0,4.839-.619,5.691-2H56.57a3,3,0,0,0,2.951-3.571ZM15.265,20.766a2.112,2.112,0,0,1,1.08-3.922,2.074,2.074,0,0,1,1.679.848A1,1,0,0,0,19.63,16.5a4.04,4.04,0,0,0-2.836-1.6,3.04,3.04,0,0,1,2.965-2.407,3.117,3.117,0,0,1,.364.04,6.569,6.569,0,0,0-.21.626,1,1,0,0,0,1.936.5,4.863,4.863,0,0,1,.519-1.252A4.938,4.938,0,0,1,26.586,10a4.857,4.857,0,0,1,2.649.8A4.065,4.065,0,0,0,29,12.111a1,1,0,0,0,2,0,2.1,2.1,0,1,1,4.207,0,1,1,0,0,0,2,0c0-.077-.019-.15-.023-.227a6.491,6.491,0,0,1,5.922,5.006,4.043,4.043,0,0,0-1.293.645,1,1,0,0,0,1.2,1.6A2.108,2.108,0,0,1,46.1,21.862a2.133,2.133,0,0,1-.947.876,1,1,0,0,0,.426,1.9.987.987,0,0,0,.424-.095,4.107,4.107,0,0,0,.747-.467,4.271,4.271,0,0,1-.846,4.265l-.024.025a4.319,4.319,0,0,1-5.1.936A4.052,4.052,0,0,1,39.6,28.41a1,1,0,1,0-1.475,1.351,6.062,6.062,0,0,0,1.749,1.326,6.16,6.16,0,0,0,4.619.427,6.374,6.374,0,0,1-4.118,2.525,1,1,0,0,0,.157,1.987,1.064,1.064,0,0,0,.159-.012,8.218,8.218,0,0,0,1.774-.518,8.942,8.942,0,0,1,.746,1.717,1.031,1.031,0,0,1,.052.323,1.079,1.079,0,0,1-.656.992,1.132,1.132,0,0,1-1.291-.347,6.383,6.383,0,0,0-2.927-1.945c-2.161-.724-2.995-1.371-3.349-2.075a9.6,9.6,0,0,0,1.533-.32,1,1,0,0,0-.588-1.912,7.578,7.578,0,0,1-1.726.317,7.422,7.422,0,0,1-3.314-.5,1,1,0,0,0-1.121.279,4.282,4.282,0,0,1-6.906-5.007A1,1,0,0,0,21.2,25.987a6.194,6.194,0,0,0-.8,4.268,6.111,6.111,0,0,1-6.914-8.369,4.031,4.031,0,0,0,.744.593,1,1,0,0,0,1.032-1.713Zm-4.4,8.033c.461-.068.937-.128,1.41-.19a8.074,8.074,0,0,0,8.77,3.558,6.264,6.264,0,0,0,9.812,1.663,9.6,9.6,0,0,0,2.087.378c.483,1.832,1.879,2.942,4.812,3.925a4.432,4.432,0,0,1,2.036,1.341,3.185,3.185,0,0,0,2.416,1.135,3.037,3.037,0,0,0,1.187-.242,3.079,3.079,0,0,0,1.869-2.831,2.967,2.967,0,0,0-.152-.946,10.931,10.931,0,0,0-.884-2.035,8.43,8.43,0,0,0,3.323-5.082,6.264,6.264,0,0,0,.576-.806c.335.043.67.081,1.007.137l3.61,21.714a34.326,34.326,0,0,0-21.744,0V38a1,1,0,0,0-2,0V50.522a34.332,34.332,0,0,0-21.744-.008ZM2.651,54.632a.992.992,0,0,1-.21-.82L6.82,31.33h1.6L5.282,50.189a2.007,2.007,0,0,0,2.581,2.234A33.455,33.455,0,0,1,24.38,51.375L24.082,55H3.43a1.007,1.007,0,0,1-.779-.368ZM30,57c-2.409,0-3.791-.712-3.994-1.029l.344-4.15A21.37,21.37,0,0,1,29.568,52.9,1.009,1.009,0,0,0,30,53a.994.994,0,0,0,.433-.1,21.3,21.3,0,0,1,3.217-1.086l.344,4.156C33.791,56.288,32.409,57,30,57Zm27.349-2.368A1.007,1.007,0,0,1,56.57,55H35.921l-.3-3.632a33.465,33.465,0,0,1,16.524,1.057,2.006,2.006,0,0,0,2.572-2.239L51.582,31.331h1.6l4.38,22.48A.992.992,0,0,1,57.349,54.632Z"/>
      </g>
    </g>
  </g>
</svg>
