<svg xmlns="http://www.w3.org/2000/svg" xmlns:xlink="http://www.w3.org/1999/xlink" width="295" height="355" viewBox="0 0 295 355">
  <defs>
    <clipPath id="clip-path">
      <rect id="Rectángulo_423003" data-name="Rectángulo 423003" width="295" height="355" transform="translate(1124.555 4367)" fill="#fff" stroke="#707070" stroke-width="1"/>
    </clipPath>
    <clipPath id="clip-path-2">
      <rect id="Rectángulo_423005" data-name="Rectángulo 423005" width="377" height="377" transform="translate(0 -0.343)"/>
    </clipPath>
  </defs>
  <g id="Enmascarar_grupo_1211513" data-name="Enmascarar grupo 1211513" transform="translate(-1124.555 -4367)" clip-path="url(#clip-path)">
    <g id="Grupo_1231150" data-name="Grupo 1231150" transform="translate(1090.555 4345.667)">
      <g id="Grupo_1231149" data-name="Grupo 1231149" transform="translate(0 -0.324)" clip-path="url(#clip-path-2)">
        <path id="Trazado_1182560" data-name="Trazado 1182560" d="M239.032,350.328s70.693-14.132,56.711-85.112,1.488-81.4,28.816-109.861,21.159-75.11-25.934-84.827C259.786,62.514,214.182,58.634,174.4,140.4s-57.8,43.195-60.913,7.388c-6.255-71.89-73.661-24.674-67.357,58.352C54.064,310.718,84.125,381.379,239.032,350.328Z" transform="translate(-11.306 3.379)" fill="#ffdfca"/>
        <g id="Grupo_1231093" data-name="Grupo 1231093" transform="translate(51.452 69.924)">
          <g id="Grupo_1231092" data-name="Grupo 1231092">
            <g id="Grupo_1231091" data-name="Grupo 1231091">
              <g id="Grupo_1231090" data-name="Grupo 1231090">
                <path id="Trazado_1182561" data-name="Trazado 1182561" d="M124.054,112.552a49.58,49.58,0,0,0-2.1-4.6c-15.844-30.38-61.709-12.129-52.347,20.831a49.523,49.523,0,0,0,1.635,4.783s15.2,39.719,42.129,29S124.054,112.552,124.054,112.552Z" transform="translate(-68.36 -92.467)" fill="#f2b999"/>
                <path id="Trazado_1182562" data-name="Trazado 1182562" d="M112.629,178.267l46.532,103.791,2.211-1.493L115.983,178.719Z" transform="translate(-79.309 -113.689)" fill="#f2b999"/>
                <path id="Trazado_1182563" data-name="Trazado 1182563" d="M123.138,114.4a46.23,46.23,0,0,0-1.96-4.3c-14.8-28.375-57.634-11.328-48.891,19.455a46.255,46.255,0,0,0,1.527,4.468s14.2,37.1,39.346,27.087S123.138,114.4,123.138,114.4Z" transform="translate(-69.043 -93.251)" fill="#ffdfca"/>
                <path id="Trazado_1182564" data-name="Trazado 1182564" d="M118.2,161.967c4.535-2.116,6.114-8.325,6.114-8.325L107.894,161.3S113.666,164.084,118.2,161.967Z" transform="translate(-78.138 -107.598)" fill="#722e21"/>
              </g>
              <path id="Trazado_1182565" data-name="Trazado 1182565" d="M107.6,132.757s3.521,5.27-.887,9.526c-3.928,3.793,1.91,5.464,6.848,3.255" transform="translate(-77.528 -102.432)" fill="none" stroke="#722e21" stroke-linecap="round" stroke-miterlimit="10" stroke-width="2"/>
            </g>
          </g>
          <path id="Trazado_1182566" data-name="Trazado 1182566" d="M85.654,132.531s.392-2.567,2.737-1.9,2.2,5.271-2.051,5.271-5.87-5.944-1.445-8.218,9.5.97,8.79,6.988-9.41,7.64-13.068,3.481c-3.017-3.431-3.953-9.735,1.593-13.038" transform="translate(-70.793 -100.541)" fill="none" stroke="#722e21" stroke-linecap="round" stroke-miterlimit="10" stroke-width="2"/>
          <path id="Trazado_1182567" data-name="Trazado 1182567" d="M119,120.091s.391-2.567,2.737-1.9,2.2,5.271-2.051,5.271-5.87-5.944-1.445-8.218,9.5.97,8.79,6.988-9.411,7.64-13.068,3.481c-3.017-3.431-3.953-9.735,1.593-13.038" transform="translate(-79.042 -97.465)" fill="none" stroke="#722e21" stroke-linecap="round" stroke-miterlimit="10" stroke-width="2"/>
        </g>
        <g id="Grupo_1231097" data-name="Grupo 1231097" transform="translate(35.448 230.149)">
          <g id="Grupo_1231096" data-name="Grupo 1231096">
            <g id="Grupo_1231095" data-name="Grupo 1231095">
              <path id="Trazado_1182568" data-name="Trazado 1182568" d="M93.422,316.188a44.292,44.292,0,0,0-3.063-3.315c-21.91-21.345-55.716,6.924-38.584,32.266a44.3,44.3,0,0,0,2.721,3.6s23.967,29.445,43.816,12.846S93.422,316.188,93.422,316.188Z" transform="translate(-47.096 -305.345)" fill="#c42f0c"/>
              <path id="Trazado_1182569" data-name="Trazado 1182569" d="M99.923,377.993l68.409,75.042,1.459-1.882-66.9-73.712Z" transform="translate(-60.163 -323.177)" fill="#e86b00"/>
              <path id="Trazado_1182570" data-name="Trazado 1182570" d="M93.02,318.209a41.415,41.415,0,0,0-2.86-3.1C69.7,295.178,38.123,321.58,54.124,345.249a41.327,41.327,0,0,0,2.541,3.363s22.384,27.5,40.922,12S93.02,318.209,93.02,318.209Z" transform="translate(-47.754 -306.022)" fill="#e64a18"/>
              <g id="Grupo_1231094" data-name="Grupo 1231094" transform="translate(35.426 39.06)">
                <path id="Trazado_1182571" data-name="Trazado 1182571" d="M106.894,358.152a34.123,34.123,0,0,0-4.585.849,14.207,14.207,0,0,0-2.022.737,7.374,7.374,0,0,0-3.07,2.571,14.311,14.311,0,0,0-1.082,1.86,34.718,34.718,0,0,0-1.65,4.362,10.136,10.136,0,0,1-.026-4.946,9.762,9.762,0,0,1,.946-2.417,7.345,7.345,0,0,1,4.082-3.41,9.762,9.762,0,0,1,2.545-.5A10.183,10.183,0,0,1,106.894,358.152Z" transform="translate(-94.165 -357.242)" fill="#722e21"/>
              </g>
            </g>
            <path id="Trazado_1182572" data-name="Trazado 1182572" d="M83.576,340.781s4.456,3.487,1.9,8.325c-2.274,4.312,3.143,4.1,6.714.85" transform="translate(-56.119 -314.11)" fill="none" stroke="#722e21" stroke-linecap="round" stroke-miterlimit="10" stroke-width="2"/>
          </g>
          <path id="Trazado_1182573" data-name="Trazado 1182573" d="M57.9,348.232l14.72-5.153a7,7,0,0,1-3.7,7.508C64.147,353.01,57.9,348.232,57.9,348.232Z" transform="translate(-49.769 -314.678)" fill="#722e21"/>
          <path id="Trazado_1182574" data-name="Trazado 1182574" d="M86.436,332.195,92.9,318.471s3.99,6.7,1.316,11.3C91.369,334.674,86.436,332.195,86.436,332.195Z" transform="translate(-56.827 -308.592)" fill="#722e21"/>
        </g>
        <g id="Grupo_1231100" data-name="Grupo 1231100" transform="translate(227.173 254.064)">
          <g id="Grupo_1231099" data-name="Grupo 1231099">
            <g id="Grupo_1231098" data-name="Grupo 1231098">
              <path id="Trazado_1182575" data-name="Trazado 1182575" d="M422.3,342.555a40.652,40.652,0,0,0,2.424-3.373c15.207-23.692-16.518-48.961-36.208-28.841a40.684,40.684,0,0,0-2.745,3.117s-22.13,27.041-3.5,41.877S422.3,342.555,422.3,342.555Z" transform="translate(-326.389 -303.025)" fill="#9dbc50"/>
              <path id="Trazado_1182576" data-name="Trazado 1182576" d="M351.561,370.487l-55.049,75.522,1.967.968,54.129-73.913Z" transform="translate(-296.512 -328.768)" fill="#9dbc50"/>
              <path id="Trazado_1182577" data-name="Trazado 1182577" d="M421.958,343.022a37.861,37.861,0,0,0,2.264-3.15c14.2-22.127-15.427-45.728-33.818-26.936a38.144,38.144,0,0,0-2.564,2.911s-20.669,25.255-3.272,39.112S421.958,343.022,421.958,343.022Z" transform="translate(-327.455 -304.199)" fill="#bcd574"/>
              <circle id="Elipse_12907" data-name="Elipse 12907" cx="3.825" cy="3.825" r="3.825" transform="translate(64.544 14.105)" fill="#722e21"/>
              <circle id="Elipse_12908" data-name="Elipse 12908" cx="3.825" cy="3.825" r="3.825" transform="translate(81.835 28.028)" fill="#722e21"/>
              <path id="Trazado_1182578" data-name="Trazado 1182578" d="M399.207,364.6c-3.216-2.561-8.362-1.451-8.362-1.451l11.646,9.276S402.423,367.165,399.207,364.6Z" transform="translate(-332.509 -325.878)" fill="#722e21"/>
            </g>
            <path id="Trazado_1182579" data-name="Trazado 1182579" d="M416.781,344.154s-2.323,4.66-7.156,3.252c-4.307-1.255-3.118,3.59.471,6.211" transform="translate(-338.623 -318.719)" fill="none" stroke="#722e21" stroke-linecap="round" stroke-miterlimit="10" stroke-width="2"/>
          </g>
        </g>
        <g id="Grupo_1231148" data-name="Grupo 1231148" transform="translate(88.924 2.521)">
          <g id="Grupo_1231147" data-name="Grupo 1231147">
            <g id="Grupo_1231142" data-name="Grupo 1231142" transform="translate(0 20.262)">
              <path id="Trazado_1182580" data-name="Trazado 1182580" d="M203.874,68.864s-3.691-14.4-1.528-21.631,7.912-3.767,7.912-3.767-2.434-12.96,12.485-11.151,30.893,3.165,36.318-1.809,13.309,18.722,4.156,38.359S207.006,96.372,203.874,68.864Z" transform="translate(-138.805 -29.835)" fill="#8c4433"/>
              <path id="Trazado_1182581" data-name="Trazado 1182581" d="M267.257,48.125c-2.657,8.65-10.078,7.39-18.893-1.042s-20.418-6.136-25.618-1.814a19.03,19.03,0,0,1-10.7,4.445c-.3,4.747-3.315,10.473-6.436,10.85s-3.931-3.911-3.931-3.914a78.167,78.167,0,0,0,2.2,15.071c3.133,27.508,50.19,19.637,59.343,0A47.651,47.651,0,0,0,267.257,48.125Z" transform="translate(-138.808 -32.694)" fill="#722e21"/>
              <g id="Grupo_1231141" data-name="Grupo 1231141" transform="translate(0 8.129)">
                <path id="Trazado_1182582" data-name="Trazado 1182582" d="M218.828,393.695H145.17l11.992,135.178h49.417l8.854-91.755h6.791l8.854,91.755h49.417l11.992-135.178Z" transform="translate(-124.831 -127.962)" fill="#ffb43a"/>
                <path id="Trazado_1182583" data-name="Trazado 1182583" d="M218.828,393.695H145.17l11.992,135.178h49.417l8.854-91.755h6.791l8.854,91.755h49.417l11.992-135.178Z" transform="translate(-124.831 -127.962)" fill="#ffb43a"/>
                <path id="Trazado_1182584" data-name="Trazado 1182584" d="M292.544,397.257l-8.633-3.562H155.67l-8.988,12.838,143.5,17.3Z" transform="translate(-125.205 -127.962)" fill="#e86b00"/>
                <path id="Trazado_1182585" data-name="Trazado 1182585" d="M244.009,407.338V432.2h-6.932" transform="translate(-147.563 -131.336)" fill="none" stroke="#e86b00" stroke-linecap="round" stroke-miterlimit="10" stroke-width="2"/>
                <g id="Grupo_1231136" data-name="Grupo 1231136">
                  <g id="Grupo_1231121" data-name="Grupo 1231121">
                    <g id="Grupo_1231120" data-name="Grupo 1231120">
                      <g id="Grupo_1231119" data-name="Grupo 1231119">
                        <g id="Grupo_1231118" data-name="Grupo 1231118">
                          <g id="Grupo_1231117" data-name="Grupo 1231117">
                            <g id="Grupo_1231109" data-name="Grupo 1231109">
                              <path id="Trazado_1182586" data-name="Trazado 1182586" d="M277.308,199.64a81.893,81.893,0,0,0-6.427-13.355,62.581,62.581,0,0,0-53.714-29.952h0a62.581,62.581,0,0,0-53.714,29.952,81.861,81.861,0,0,0-6.427,13.355c-14.98,39.677-18.567,148.184-18.567,148.184H295.876S292.289,239.317,277.308,199.64Z" transform="translate(-123.171 -69.253)" fill="#5f9db5"/>
                              <path id="Trazado_1182587" data-name="Trazado 1182587" d="M217.358,209.495a12.674,12.674,0,0,0,3.108-.982c4.215-2.239,2.733-15.97.362-20.975-1.2-2.527-2.993-3.046-4.48-2.942l-1.141-28.147c-.844.042-1.685.1-2.523.172l1.067,24.958c-.238-2.04-1.007-4.065-3.179-3.69-4.2.726-4.388,7.963-4.388,7.963A26.061,26.061,0,0,0,190.2,193.6c-9.595,9.868-27.6,29.022-41.4,47.423-2.316,15.247-4.09,31.828-5.429,47.283,9.316-.5,18.025-12.466,30.541-30.353a384.994,384.994,0,0,0,26.958-44.015,5.9,5.9,0,0,1,4.94-3.183c2.836-.151,6.244-.408,9.155-.837l1.24,28.99,2.326-.509Zm-3.624-24.1s.089-.713.108-1.7l.068,1.6C213.8,185.358,213.734,185.4,213.734,185.4Z" transform="translate(-124.385 -69.281)" fill="#367793"/>
                              <path id="Trazado_1182588" data-name="Trazado 1182588" d="M189.6,161.8s-37.181,9.846-53.413,51.212-18.04,54.025-18.04,54.025l25.769,3.617C162.9,190.417,189.6,161.8,189.6,161.8Z" transform="translate(-118.147 -70.605)" fill="#a1cddb"/>
                              <path id="Trazado_1182589" data-name="Trazado 1182589" d="M272.986,161.8s37.181,9.846,53.413,51.212,18.04,54.025,18.04,54.025l-25.769,3.617C299.682,190.417,272.986,161.8,272.986,161.8Z" transform="translate(-156.445 -70.605)" fill="#a1cddb"/>
                              <path id="Trazado_1182590" data-name="Trazado 1182590" d="M335.474,286.035l19.1-2.681c.141-2.15.272-4.258.388-6.3-1.936-7.3-6.437-21.953-16.647-47.972-.309-.789-.629-1.562-.954-2.328C329.677,255.5,309.73,337.093,330.012,340.7c3.957.7,7.186.675,9.86-.262C339.01,325.645,337.613,305.923,335.474,286.035Z" transform="translate(-168.365 -86.67)" fill="#367793"/>
                              <g id="Grupo_1231105" data-name="Grupo 1231105" transform="translate(158.461 140.083)">
                                <g id="Grupo_1231104" data-name="Grupo 1231104" transform="translate(0)">
                                  <g id="Grupo_1231101" data-name="Grupo 1231101" transform="translate(2.865 60.092)">
                                    <path id="Trazado_1182591" data-name="Trazado 1182591" d="M332.5,306.593h0Z" transform="translate(-332.489 -306.593)" fill="#5f9db5"/>
                                  </g>
                                  <g id="Grupo_1231102" data-name="Grupo 1231102">
                                    <path id="Trazado_1182592" data-name="Trazado 1182592" d="M328.682,271.828q1.92,7.133,3.764,14.894l-.888.125,5.771-.81h0l12.551-1.761,1.178-.166,1.5-.211.4-.056,1.059-.148,1.337-.187.932-.131.148-.021c.142-2.15.272-4.258.388-6.3-.037-.14-.077-.288-.116-.433-.048-.181-.1-.365-.15-.554-.04-.147-.079-.292-.121-.444-.083-.3-.17-.614-.26-.936l-.127-.449q-.122-.428-.251-.879l-.126-.433c-.1-.348-.208-.71-.317-1.079l-.134-.451c-.128-.428-.26-.866-.4-1.321l-.1-.334q-.186-.61-.386-1.252c-.041-.13-.08-.258-.121-.39q-.238-.762-.5-1.57l-.137-.43q-.243-.76-.5-1.556c-.027-.084-.053-.165-.081-.249-.194-.6-.4-1.216-.607-1.847-.05-.151-.1-.3-.151-.453-.215-.648-.437-1.309-.668-1.992-.026-.078-.055-.16-.081-.239-.216-.637-.44-1.293-.669-1.961-.05-.146-.1-.29-.151-.438q-.376-1.092-.777-2.238c-.049-.139-.1-.282-.148-.422q-.378-1.078-.778-2.2l-.109-.307c-.288-.809-.587-1.642-.893-2.489q-.1-.288-.21-.58c-.315-.869-.636-1.751-.969-2.66l-.057-.155c-.321-.875-.653-1.773-.993-2.685-.072-.193-.143-.386-.216-.582q-.531-1.423-1.089-2.905l-.191-.506q-.516-1.366-1.058-2.783l-.187-.49q-.593-1.548-1.218-3.161l-.281-.726c-.431-1.11-.869-2.235-1.322-3.389-.309-.789-.629-1.562-.954-2.328C336.474,237.02,332.164,254.034,328.682,271.828Z" transform="translate(-328.682 -226.753)" fill="#5f9db5"/>
                                  </g>
                                  <g id="Grupo_1231103" data-name="Grupo 1231103" transform="translate(2.742 60.094)">
                                    <path id="Trazado_1182593" data-name="Trazado 1182593" d="M332.448,306.595Z" transform="translate(-332.325 -306.595)" fill="#5f9db5"/>
                                  </g>
                                </g>
                              </g>
                              <path id="Trazado_1182594" data-name="Trazado 1182594" d="M218.83,159.869a18.527,18.527,0,0,0,18.14,21.98h0a18.527,18.527,0,0,0,18.14-21.98" transform="translate(-142.973 -70.127)" fill="none" stroke="#367793" stroke-linecap="round" stroke-miterlimit="10" stroke-width="2"/>
                              <path id="Trazado_1182595" data-name="Trazado 1182595" d="M249.7,130.154H227.977a120.646,120.646,0,0,1-1.681,22.438,12.813,12.813,0,0,0,12.545,15.2h0a12.813,12.813,0,0,0,12.545-15.2A120.649,120.649,0,0,1,249.7,130.154Z" transform="translate(-144.843 -62.777)" fill="#ffb88c"/>
                              <path id="Trazado_1182596" data-name="Trazado 1182596" d="M228.485,137.448a24.151,24.151,0,0,0,21.9,0c-.1-2.41-.116-4.368-.11-5.649,0-1.03.023-1.645.023-1.645H228.572s.021.607.023,1.623C228.6,133.058,228.585,135.024,228.485,137.448Z" transform="translate(-145.438 -62.777)" fill="#f47160"/>
                              <g id="Grupo_1231108" data-name="Grupo 1231108" transform="translate(58.457)">
                                <g id="Grupo_1231106" data-name="Grupo 1231106" transform="translate(60.912 30.558)">
                                  <path id="Trazado_1182597" data-name="Trazado 1182597" d="M277.89,83.876a4.671,4.671,0,0,1,5.365-2.53c3.583.662,4.42,6.141,3,9.65s-5.871,6.883-9.514,4.319Z" transform="translate(-276.744 -81.236)" fill="#ffb88c"/>
                                  <path id="Trazado_1182598" data-name="Trazado 1182598" d="M280.724,87.241a2.078,2.078,0,0,1,2.783-1.265c2.657.81,2.581,8.249-3.492,7.389" transform="translate(-277.553 -82.374)" fill="none" stroke="#f47160" stroke-linecap="round" stroke-miterlimit="10" stroke-width="2"/>
                                </g>
                                <g id="Grupo_1231107" data-name="Grupo 1231107" transform="translate(0 30.558)">
                                  <path id="Trazado_1182599" data-name="Trazado 1182599" d="M204.836,83.876a4.67,4.67,0,0,0-5.364-2.53c-3.583.662-4.42,6.141-3,9.65s5.871,6.883,9.514,4.319Z" transform="translate(-195.815 -81.236)" fill="#ffb88c"/>
                                  <path id="Trazado_1182600" data-name="Trazado 1182600" d="M203.647,87.241a2.078,2.078,0,0,0-2.783-1.265c-2.657.81-2.581,8.249,3.492,7.389" transform="translate(-196.651 -82.374)" fill="none" stroke="#f47160" stroke-linecap="round" stroke-miterlimit="10" stroke-width="2"/>
                                </g>
                                <path id="Trazado_1182601" data-name="Trazado 1182601" d="M261.291,73.908a47.552,47.552,0,0,0-.239-4.831c-3.338-32.616-50.573-32.616-53.911,0a47.345,47.345,0,0,0-.239,4.831s-.54,40.69,27.194,40.69S261.291,73.908,261.291,73.908Z" transform="translate(-198.557 -41.62)" fill="#ffb88c"/>
                                <path id="Trazado_1182602" data-name="Trazado 1182602" d="M206.2,72.795s22.151-3.1,22.151-25.426c0,0,8.836,25.426,32.239,25.426,0,0,3.163-15.883,3.261-16.561a14.93,14.93,0,0,0-2.621-7.668c-2.028-2.5-3.158-6.347-8.131-6.347s-14.231-1.582-17.966-1.582-15.158.226-15.662,1.13-8.619,8.138-8.619,8.138l-6.578,9.267S203.158,69.464,206.2,72.795Z" transform="translate(-197.858 -40.636)" fill="#8c4433"/>
                                <path id="Trazado_1182603" data-name="Trazado 1182603" d="M267.257,48.125c-2.657,8.65-10.078,7.39-18.893-1.042s-20.418-6.136-25.618-1.814a19.03,19.03,0,0,1-10.7,4.445c-.3,4.747-3.315,10.473-6.436,10.85s-3.931-3.911-3.931-3.914a78.167,78.167,0,0,0,2.2,15.071c3.133,27.508,50.19,19.637,59.343,0A47.651,47.651,0,0,0,267.257,48.125Z" transform="translate(-197.265 -40.823)" fill="#722e21"/>
                              </g>
                            </g>
                            <path id="Trazado_1182604" data-name="Trazado 1182604" d="M242.118,85.314s1.181,5.534-3.88,7.608c-4.511,1.849-.219,5.162,4.606,4.96" transform="translate(-147.379 -51.687)" fill="none" stroke="#f47160" stroke-linecap="round" stroke-miterlimit="10" stroke-width="2"/>
                            <path id="Trazado_1182605" data-name="Trazado 1182605" d="M229.539,77.539a7.211,7.211,0,0,0-8.277-.2" transform="translate(-143.651 -49.415)" fill="none" stroke="#722e21" stroke-linecap="round" stroke-miterlimit="10" stroke-width="2"/>
                            <g id="Grupo_1231116" data-name="Grupo 1231116" transform="translate(79.155 26.715)">
                              <path id="Trazado_1182606" data-name="Trazado 1182606" d="M253.808,77.539a7.211,7.211,0,0,1,8.277-.2" transform="translate(-230.856 -76.13)" fill="none" stroke="#722e21" stroke-linecap="round" stroke-miterlimit="10" stroke-width="2"/>
                              <g id="Grupo_1231112" data-name="Grupo 1231112" transform="translate(0 3.844)">
                                <g id="Grupo_1231111" data-name="Grupo 1231111">
                                  <g id="Grupo_1231110" data-name="Grupo 1231110">
                                    <path id="Trazado_1182607" data-name="Trazado 1182607" d="M226.177,81.237c-1.581,0-2.863,1.817-2.863,4.058s1.282,4.058,2.864,4.058,2.863-1.817,2.863-4.058S227.758,81.237,226.177,81.237Z" transform="translate(-223.314 -81.237)" fill="#722e21"/>
                                  </g>
                                </g>
                              </g>
                              <g id="Grupo_1231115" data-name="Grupo 1231115" transform="translate(23.957 3.844)">
                                <g id="Grupo_1231114" data-name="Grupo 1231114">
                                  <g id="Grupo_1231113" data-name="Grupo 1231113">
                                    <path id="Trazado_1182608" data-name="Trazado 1182608" d="M258.008,81.237c1.581,0,2.863,1.817,2.863,4.058s-1.282,4.058-2.864,4.058-2.863-1.817-2.863-4.058S256.427,81.237,258.008,81.237Z" transform="translate(-255.144 -81.237)" fill="#722e21"/>
                                  </g>
                                </g>
                              </g>
                            </g>
                          </g>
                        </g>
                      </g>
                    </g>
                  </g>
                  <g id="Grupo_1231126" data-name="Grupo 1231126" transform="translate(68.625 6.259)">
                    <g id="Grupo_1231125" data-name="Grupo 1231125">
                      <path id="Trazado_1182609" data-name="Trazado 1182609" d="M260.067,76.283a44.179,44.179,0,0,0-.223-4.508c-3.115-30.43-47.183-30.43-50.3,0a44.183,44.183,0,0,0-.223,4.508s-.5,37.963,25.371,37.963S260.067,76.283,260.067,76.283Z" transform="translate(-209.323 -48.952)" fill="#e86b00"/>
                      <path id="Trazado_1182610" data-name="Trazado 1182610" d="M232.572,124.486l4.338,101.451,2.326-.509L235.2,125.969Z" transform="translate(-215.073 -67.635)" fill="#e86b00"/>
                      <path id="Trazado_1182611" data-name="Trazado 1182611" d="M258.942,77.343a41.513,41.513,0,0,0-.208-4.21c-2.908-28.42-44.067-28.42-46.976,0a41.306,41.306,0,0,0-.208,4.21s-.47,35.456,23.7,35.456S258.942,77.343,258.942,77.343Z" transform="translate(-209.874 -49.661)" fill="#ffb43a"/>
                      <g id="Grupo_1231122" data-name="Grupo 1231122" transform="translate(8.922 21.216)">
                        <path id="Trazado_1182612" data-name="Trazado 1182612" d="M221.242,84.746a7.8,7.8,0,0,1,.07-2.4,7.62,7.62,0,0,1,.8-2.349,5.852,5.852,0,0,1,1.772-2.024,4.922,4.922,0,0,1,5.481,0A5.851,5.851,0,0,1,231.142,80a7.6,7.6,0,0,1,.8,2.35,7.786,7.786,0,0,1,.068,2.4,18.863,18.863,0,0,0-2.343-3.756,5.516,5.516,0,0,0-1.431-1.2,3.492,3.492,0,0,0-3.226,0,5.494,5.494,0,0,0-1.432,1.2A18.65,18.65,0,0,0,221.242,84.746Z" transform="translate(-221.177 -77.14)" fill="#722e21"/>
                      </g>
                      <g id="Grupo_1231123" data-name="Grupo 1231123" transform="translate(30.921 21.216)">
                        <path id="Trazado_1182613" data-name="Trazado 1182613" d="M261.243,84.747a18.678,18.678,0,0,0-2.34-3.757,5.493,5.493,0,0,0-1.432-1.2,3.493,3.493,0,0,0-3.226,0,5.488,5.488,0,0,0-1.431,1.2,18.84,18.84,0,0,0-2.343,3.756,7.786,7.786,0,0,1,.068-2.4,7.623,7.623,0,0,1,.8-2.35,5.851,5.851,0,0,1,1.773-2.025,4.922,4.922,0,0,1,5.481,0A5.852,5.852,0,0,1,260.37,80a7.619,7.619,0,0,1,.8,2.349A7.823,7.823,0,0,1,261.243,84.747Z" transform="translate(-250.406 -77.141)" fill="#722e21"/>
                      </g>
                      <g id="Grupo_1231124" data-name="Grupo 1231124" transform="translate(11.346 37.17)">
                        <path id="Trazado_1182614" data-name="Trazado 1182614" d="M224.5,98.338a14.985,14.985,0,0,0,4.7,9.225,13.7,13.7,0,0,0,18.448,0,15,15,0,0,0,4.7-9.223,13.131,13.131,0,0,1-3.455,10.469,14.176,14.176,0,0,1-4.731,3.382,14.286,14.286,0,0,1-11.475,0,14.15,14.15,0,0,1-4.73-3.382A13.146,13.146,0,0,1,224.5,98.338Z" transform="translate(-224.398 -98.338)" fill="#722e21"/>
                      </g>
                    </g>
                    <path id="Trazado_1182615" data-name="Trazado 1182615" d="M242.118,85.314s1.181,5.534-3.88,7.608c-4.511,1.849-.219,5.162,4.606,4.96" transform="translate(-216.004 -57.946)" fill="none" stroke="#722e21" stroke-linecap="round" stroke-miterlimit="10" stroke-width="2"/>
                  </g>
                  <g id="Grupo_1231128" data-name="Grupo 1231128" transform="translate(4.423 103.497)">
                    <path id="Trazado_1182616" data-name="Trazado 1182616" d="M214.687,187.837c-2.371-5.005-7.095-2.141-7.095-2.141s1.036-8.233-3.161-7.508-4.388,7.963-4.388,7.963h0a26.063,26.063,0,0,0-15.984,7.749c-19.392,19.944-73.155,77.823-57.075,90.743,13.906,11.173,23.868-2.212,40.785-26.391a384.992,384.992,0,0,0,26.958-44.015,5.9,5.9,0,0,1,4.94-3.183c5.118-.273,12.106-.887,14.657-2.242C218.54,206.573,217.058,192.843,214.687,187.837Z" transform="translate(-124.024 -178.144)" fill="#ffb88c"/>
                    <path id="Trazado_1182617" data-name="Trazado 1182617" d="M215.153,225.244q1.123-2.1,2.115-4.025a5.847,5.847,0,0,1,1.774-2.05v0l-3.889-12.8v18.877Z" transform="translate(-146.564 -185.125)" fill="#f47160"/>
                    <g id="Grupo_1231127" data-name="Grupo 1231127" transform="translate(86.038 10.551)">
                      <line id="Línea_708" data-name="Línea 708" x1="4.989" y2="0.704" fill="none" stroke="#f47160" stroke-linecap="round" stroke-miterlimit="10" stroke-width="2"/>
                      <line id="Línea_709" data-name="Línea 709" x1="4.989" y2="0.704" transform="translate(1.231 5.059)" fill="none" stroke="#f47160" stroke-linecap="round" stroke-miterlimit="10" stroke-width="2"/>
                      <line id="Línea_710" data-name="Línea 710" x1="4.972" y2="0.702" transform="translate(1.942 10.692)" fill="none" stroke="#f47160" stroke-linecap="round" stroke-miterlimit="10" stroke-width="2"/>
                      <line id="Línea_711" data-name="Línea 711" x1="4.542" y2="0.641" transform="translate(1.942 16.112)" fill="none" stroke="#f47160" stroke-linecap="round" stroke-miterlimit="10" stroke-width="2"/>
                    </g>
                  </g>
                  <g id="Grupo_1231135" data-name="Grupo 1231135" transform="translate(154.762 7.929)">
                    <g id="Grupo_1231129" data-name="Grupo 1231129" transform="translate(3.695 117.208)">
                      <path id="Trazado_1182618" data-name="Trazado 1182618" d="M347.6,206.9S312.87,326.384,337.509,330.764c17.564,3.122,20.9-7.992,24.081-50.432,3.586-47.838.938-72.292.938-72.292Z" transform="translate(-328.676 -206.896)" fill="#ffb88c"/>
                    </g>
                    <path id="Trazado_1182619" data-name="Trazado 1182619" d="M361.243,173.968s-1.98-6.077-4.693-7.32c-1.182-.542-9.876.226-9.537,3.447s9.424,5.086,9.424,5.086Z" transform="translate(-329.514 -79.693)" fill="#f47160"/>
                    <g id="Grupo_1231134" data-name="Grupo 1231134">
                      <g id="Grupo_1231133" data-name="Grupo 1231133">
                        <path id="Trazado_1182620" data-name="Trazado 1182620" d="M374.511,78.5a44.188,44.188,0,0,0-.223-4.508c-3.115-30.43-47.183-30.43-50.3,0a44.179,44.179,0,0,0-.223,4.508s-.5,37.963,25.371,37.963S374.511,78.5,374.511,78.5Z" transform="translate(-323.767 -51.17)" fill="#5f9db5"/>
                        <path id="Trazado_1182621" data-name="Trazado 1182621" d="M347.015,126.7l4.339,101.451,2.326-.508-4.032-99.46Z" transform="translate(-329.517 -69.853)" fill="#e64a18"/>
                        <path id="Trazado_1182622" data-name="Trazado 1182622" d="M373.386,79.561a41.513,41.513,0,0,0-.208-4.21c-2.908-28.42-44.067-28.42-46.976,0a41.3,41.3,0,0,0-.208,4.21s-.47,35.456,23.7,35.456S373.386,79.561,373.386,79.561Z" transform="translate(-324.318 -51.879)" fill="#a1cddb"/>
                        <g id="Grupo_1231130" data-name="Grupo 1231130" transform="translate(28.787 22.343)">
                          <path id="Trazado_1182623" data-name="Trazado 1182623" d="M374.985,80.857a7.935,7.935,0,0,1-1.432,5.04,6.344,6.344,0,0,1-2.182,1.882,6.347,6.347,0,0,1-5.728,0A6.329,6.329,0,0,1,363.46,85.9a7.905,7.905,0,0,1-1.429-5.042A14.439,14.439,0,0,0,364.8,84.73a5.947,5.947,0,0,0,1.748,1.108c.16.05.313.111.467.169l.49.1a6.684,6.684,0,0,0,1.006.1,5.647,5.647,0,0,0,1.964-.365,5.952,5.952,0,0,0,1.749-1.108A14.337,14.337,0,0,0,374.985,80.857Z" transform="translate(-362.014 -80.856)" fill="#722e21"/>
                        </g>
                        <g id="Grupo_1231131" data-name="Grupo 1231131" transform="translate(8.97 22.343)">
                          <path id="Trazado_1182624" data-name="Trazado 1182624" d="M348.656,80.857a7.935,7.935,0,0,1-1.432,5.04,6.344,6.344,0,0,1-2.182,1.882,6.347,6.347,0,0,1-5.729,0,6.329,6.329,0,0,1-2.183-1.883,7.906,7.906,0,0,1-1.429-5.042,14.439,14.439,0,0,0,2.768,3.874,5.947,5.947,0,0,0,1.748,1.108c.16.05.313.111.467.169l.49.1a6.684,6.684,0,0,0,1.006.1,5.647,5.647,0,0,0,1.964-.365,5.953,5.953,0,0,0,1.749-1.108A14.338,14.338,0,0,0,348.656,80.857Z" transform="translate(-335.685 -80.856)" fill="#722e21"/>
                        </g>
                        <g id="Grupo_1231132" data-name="Grupo 1231132" transform="translate(12.843 45.293)">
                          <path id="Trazado_1182625" data-name="Trazado 1182625" d="M365.888,116.9a43.381,43.381,0,0,0-6.234-2.35,21.326,21.326,0,0,0-12.587,0,43.83,43.83,0,0,0-6.235,2.347,16.661,16.661,0,0,1,5.628-4,17.134,17.134,0,0,1,19.429,4Z" transform="translate(-340.831 -111.348)" fill="#722e21"/>
                        </g>
                      </g>
                      <path id="Trazado_1182626" data-name="Trazado 1182626" d="M356.561,87.532s1.181,5.534-3.88,7.608c-4.511,1.849-.219,5.162,4.606,4.96" transform="translate(-330.447 -60.164)" fill="none" stroke="#722e21" stroke-linecap="round" stroke-miterlimit="10" stroke-width="2"/>
                    </g>
                    <path id="Trazado_1182627" data-name="Trazado 1182627" d="M354.23,177.5h-7.293a2.643,2.643,0,0,1-2.643-2.643v-.932a2.643,2.643,0,0,1,2.643-2.643h7.293a2.643,2.643,0,0,1,2.643,2.643v.932A2.643,2.643,0,0,1,354.23,177.5Z" transform="translate(-328.844 -80.878)" fill="#ffb88c"/>
                    <path id="Trazado_1182628" data-name="Trazado 1182628" d="M354.23,185.755h-7.293a2.643,2.643,0,0,1-2.643-2.643v-.932a2.643,2.643,0,0,1,2.643-2.643h7.293a2.643,2.643,0,0,1,2.643,2.643v.932A2.643,2.643,0,0,1,354.23,185.755Z" transform="translate(-328.844 -82.921)" fill="#ffb88c"/>
                    <path id="Trazado_1182629" data-name="Trazado 1182629" d="M354.23,194.014h-7.293a2.643,2.643,0,0,1-2.643-2.643v-.932a2.643,2.643,0,0,1,2.643-2.643h7.293a2.643,2.643,0,0,1,2.643,2.643v.932A2.643,2.643,0,0,1,354.23,194.014Z" transform="translate(-328.844 -84.964)" fill="#ffb88c"/>
                    <path id="Trazado_1182630" data-name="Trazado 1182630" d="M354.23,202.273h-7.293a2.643,2.643,0,0,1-2.643-2.643V198.7a2.643,2.643,0,0,1,2.643-2.643h7.293a2.643,2.643,0,0,1,2.643,2.643v.932A2.643,2.643,0,0,1,354.23,202.273Z" transform="translate(-328.844 -87.007)" fill="#ffb88c"/>
                    <path id="Trazado_1182631" data-name="Trazado 1182631" d="M357.686,172.8l6.3,3.9a7.609,7.609,0,0,1,3.6,6.322l.318,16.577-14.927-1.144s-2.573-16.183-2.573-17.84,1.693-6.48,1.693-6.48Z" transform="translate(-330.355 -81.256)" fill="#ffb88c"/>
                    <path id="Trazado_1182632" data-name="Trazado 1182632" d="M353.764,178.517H347.4a3.108,3.108,0,0,1-3.108-3.108" transform="translate(-328.844 -81.9)" fill="none" stroke="#f47160" stroke-linecap="round" stroke-miterlimit="10" stroke-width="2"/>
                    <path id="Trazado_1182633" data-name="Trazado 1182633" d="M353.764,186.776H347.4a3.108,3.108,0,0,1-3.108-3.108" transform="translate(-328.844 -83.942)" fill="none" stroke="#f47160" stroke-linecap="round" stroke-miterlimit="10" stroke-width="2"/>
                    <path id="Trazado_1182634" data-name="Trazado 1182634" d="M353.764,195.035H347.4a3.108,3.108,0,0,1-3.108-3.108" transform="translate(-328.844 -85.985)" fill="none" stroke="#f47160" stroke-linecap="round" stroke-miterlimit="10" stroke-width="2"/>
                    <path id="Trazado_1182635" data-name="Trazado 1182635" d="M353.764,203.294H347.4a3.108,3.108,0,0,1-3.108-3.108" transform="translate(-328.844 -88.028)" fill="none" stroke="#f47160" stroke-linecap="round" stroke-miterlimit="10" stroke-width="2"/>
                  </g>
                </g>
                <g id="Grupo_1231138" data-name="Grupo 1231138" transform="translate(28.708 281.976)">
                  <line id="Línea_712" data-name="Línea 712" x2="8.571" y2="95.126" transform="translate(5.218 16.896)" fill="none" stroke="#e86b00" stroke-linecap="round" stroke-miterlimit="10" stroke-width="2"/>
                  <g id="Grupo_1231137" data-name="Grupo 1231137">
                    <path id="Trazado_1182636" data-name="Trazado 1182636" d="M156.289,432.132s21.01,2.9,21.01-16.857" transform="translate(-156.289 -415.275)" fill="none" stroke="#e86b00" stroke-linecap="round" stroke-miterlimit="10" stroke-width="2"/>
                  </g>
                </g>
                <g id="Grupo_1231140" data-name="Grupo 1231140" transform="translate(138.276 281.976)">
                  <line id="Línea_713" data-name="Línea 713" x1="8.57" y2="95.126" transform="translate(7.222 16.896)" fill="none" stroke="#e86b00" stroke-linecap="round" stroke-miterlimit="10" stroke-width="2"/>
                  <g id="Grupo_1231139" data-name="Grupo 1231139" transform="translate(0)">
                    <path id="Trazado_1182637" data-name="Trazado 1182637" d="M322.874,432.132s-21.01,2.9-21.01-16.857" transform="translate(-301.864 -415.275)" fill="none" stroke="#e86b00" stroke-linecap="round" stroke-miterlimit="10" stroke-width="2"/>
                  </g>
                </g>
                <line id="Línea_714" data-name="Línea 714" x2="143.831" transform="translate(22.082 269.425)" fill="none" stroke="#a1cddb" stroke-linecap="round" stroke-miterlimit="10" stroke-width="2"/>
              </g>
            </g>
            <g id="Grupo_1231143" data-name="Grupo 1231143" transform="translate(15.414 63.403)">
              <text id="_" data-name="?" transform="translate(25.49 54.77) rotate(-29.988)" fill="#722e21" font-size="47" font-family="SegoeUI, Segoe UI"><tspan x="0" y="0">?</tspan></text>
            </g>
            <g id="Grupo_1231144" data-name="Grupo 1231144" transform="translate(130.477)">
              <text id="_2" data-name="!" transform="matrix(0.97, 0.243, -0.243, 0.97, 3.319, 55.301)" fill="#722e21" font-size="53" font-family="SegoeUI, Segoe UI"><tspan x="0" y="0">!</tspan></text>
            </g>
            <g id="Grupo_1231145" data-name="Grupo 1231145" transform="translate(29.236 34.444)">
              <circle id="Elipse_12909" data-name="Elipse 12909" cx="5.708" cy="5.708" r="5.708" transform="translate(11.772 21.867)" fill="#8c4433"/>
              <circle id="Elipse_12910" data-name="Elipse 12910" cx="4.036" cy="4.036" r="4.036" transform="translate(0 10.51)" fill="#8c4433"/>
              <circle id="Elipse_12911" data-name="Elipse 12911" cx="2.364" cy="2.364" r="2.364" transform="translate(18.46)" fill="#8c4433"/>
            </g>
            <g id="Grupo_1231146" data-name="Grupo 1231146" transform="translate(121.193 95.77)">
              <circle id="Elipse_12912" data-name="Elipse 12912" cx="5.708" cy="5.708" r="5.708" transform="translate(0 6.988)" fill="#8c4433"/>
              <circle id="Elipse_12913" data-name="Elipse 12913" cx="4.036" cy="4.036" r="4.036" transform="translate(18.271)" fill="#8c4433"/>
              <circle id="Elipse_12914" data-name="Elipse 12914" cx="2.364" cy="2.364" r="2.364" transform="translate(26.222 21.441)" fill="#8c4433"/>
            </g>
          </g>
        </g>
      </g>
    </g>
  </g>
</svg>
