<svg xmlns="http://www.w3.org/2000/svg" xmlns:xlink="http://www.w3.org/1999/xlink" width="190" height="198.5" viewBox="0 0 190 198.5">
  <defs>
    <clipPath id="clip-path">
      <rect id="Rectángulo_422835" data-name="Rectángulo 422835" width="190" height="197" transform="translate(180 278)" fill="#fff" stroke="#707070" stroke-width="1"/>
    </clipPath>
    <clipPath id="clip-path-2">
      <rect id="Rectángulo_422839" data-name="Rectángulo 422839" width="264" height="264" transform="translate(0 0)"/>
    </clipPath>
  </defs>
  <g id="Grupo_1228201" data-name="Grupo 1228201" transform="translate(-180 -278)">
    <rect id="Rectángulo_422840" data-name="Rectángulo 422840" width="190" height="185" rx="10" transform="translate(180 290)" fill="#b1aef1"/>
    <g id="Enmascarar_grupo_1211494" data-name="Enmascarar grupo 1211494" clip-path="url(#clip-path)">
      <g id="Grupo_1228200" data-name="Grupo 1228200" transform="translate(3385.898 1168.356)">
        <g id="OBJECTS" transform="translate(-3255.898 -927.356)">
          <g id="Grupo_1228199" data-name="Grupo 1228199" transform="translate(0 0)">
            <g id="Grupo_1228198" data-name="Grupo 1228198" clip-path="url(#clip-path-2)">
              <g id="Grupo_1228197" data-name="Grupo 1228197" transform="translate(16.601 38.966)">
                <g id="Grupo_1227968" data-name="Grupo 1227968" transform="translate(189.322 151.59)">
                  <g id="Grupo_1227966" data-name="Grupo 1227966" transform="translate(0 0)">
                    <g id="Grupo_1227964" data-name="Grupo 1227964" transform="translate(0.636 0.313)">
                      <path id="Trazado_1178834" data-name="Trazado 1178834" d="M449.61,259.645c1.922,2.468-.539,7.6-5.5,11.46s-10.536,4.99-12.458,2.522.539-7.6,5.5-11.46S447.688,257.177,449.61,259.645Z" transform="translate(-431.001 -258.338)" fill="#c8dff0"/>
                    </g>
                    <g id="Grupo_1227965" data-name="Grupo 1227965">
                      <path id="Trazado_1178835" data-name="Trazado 1178835" d="M448.1,258.6c1.569,2.014-1.179,6.777-6.137,10.638s-10.249,5.358-11.818,3.344,1.179-6.777,6.137-10.638S446.532,256.581,448.1,258.6Z" transform="translate(-429.704 -257.7)" fill="#fff"/>
                    </g>
                  </g>
                  <g id="Grupo_1227967" data-name="Grupo 1227967" transform="translate(6.35 4.011)">
                    <path id="Trazado_1178836" data-name="Trazado 1178836" d="M449.388,273.715a.229.229,0,0,1-.167-.077l-6.5-7.376a.229.229,0,1,1,.343-.3l6.5,7.375a.229.229,0,0,1-.176.381Z" transform="translate(-442.658 -265.881)" fill="#c8dff0"/>
                  </g>
                </g>
                <g id="Grupo_1227989" data-name="Grupo 1227989" transform="translate(0 76.063)">
                  <g id="Grupo_1227972" data-name="Grupo 1227972">
                    <g id="Grupo_1227971" data-name="Grupo 1227971">
                      <path id="Trazado_1178837" data-name="Trazado 1178837" d="M110.3,237.618,42.384,271.083a1.479,1.479,0,0,1-1.981-.673l-8.586-17.427A1.48,1.48,0,0,1,32.49,251l67.921-33.466a1.479,1.479,0,0,1,1.981.673l8.586,17.426A1.48,1.48,0,0,1,110.3,237.618Z" transform="translate(-31.664 -217.383)" fill="#f2e0c7"/>
                    </g>
                  </g>
                  <g id="Grupo_1227974" data-name="Grupo 1227974" transform="translate(23.663 13.35)">
                    <g id="Grupo_1227973" data-name="Grupo 1227973">
                      <path id="Trazado_1178838" data-name="Trazado 1178838" d="M84.448,270.287l-.062-.125-7.843-15.918.126-.062,23.3-11.479.062.125,7.843,15.918-.126.062Zm-7.529-15.916,7.656,15.54L107.5,258.618l-7.656-15.54Z" transform="translate(-76.543 -242.703)" fill="#cfb593"/>
                    </g>
                  </g>
                  <g id="Grupo_1227981" data-name="Grupo 1227981" transform="translate(7.809 29.18)">
                    <g id="Grupo_1227980" data-name="Grupo 1227980">
                      <g id="Grupo_1227975" data-name="Grupo 1227975" transform="translate(0 4.73)">
                        <path id="Trazado_1178839" data-name="Trazado 1178839" d="M48.872,282.4a1.263,1.263,0,1,1-1.691-.575A1.263,1.263,0,0,1,48.872,282.4Z" transform="translate(-46.476 -281.696)" fill="#cfb593"/>
                      </g>
                      <g id="Grupo_1227976" data-name="Grupo 1227976" transform="translate(7.495 7.216)">
                        <path id="Trazado_1178840" data-name="Trazado 1178840" d="M63.086,287.116a1.263,1.263,0,1,1-1.691-.575A1.263,1.263,0,0,1,63.086,287.116Z" transform="translate(-60.69 -286.411)" fill="#cfb593"/>
                      </g>
                      <g id="Grupo_1227977" data-name="Grupo 1227977" transform="translate(8.171)">
                        <path id="Trazado_1178841" data-name="Trazado 1178841" d="M64.369,273.431a1.263,1.263,0,1,1-1.691-.575A1.263,1.263,0,0,1,64.369,273.431Z" transform="translate(-61.973 -272.726)" fill="#cfb593"/>
                      </g>
                      <g id="Grupo_1227978" data-name="Grupo 1227978" transform="translate(13.533 11.048)">
                        <path id="Trazado_1178842" data-name="Trazado 1178842" d="M74.539,294.385a1.263,1.263,0,1,1-1.691-.575A1.263,1.263,0,0,1,74.539,294.385Z" transform="translate(-72.143 -293.68)" fill="#cfb593"/>
                      </g>
                      <g id="Grupo_1227979" data-name="Grupo 1227979" transform="translate(5.028 14.473)">
                        <path id="Trazado_1178843" data-name="Trazado 1178843" d="M58.408,300.881a1.263,1.263,0,1,1-1.691-.575A1.263,1.263,0,0,1,58.408,300.881Z" transform="translate(-56.012 -300.175)" fill="#cfb593"/>
                      </g>
                    </g>
                  </g>
                  <g id="Grupo_1227988" data-name="Grupo 1227988" transform="translate(52.782 6.88)">
                    <g id="Grupo_1227987" data-name="Grupo 1227987">
                      <g id="Grupo_1227982" data-name="Grupo 1227982" transform="translate(9.365)">
                        <path id="Trazado_1178844" data-name="Trazado 1178844" d="M149.661,232.254a1.263,1.263,0,1,0,.575-1.691A1.263,1.263,0,0,0,149.661,232.254Z" transform="translate(-149.531 -230.432)" fill="#cfb593"/>
                      </g>
                      <g id="Grupo_1227983" data-name="Grupo 1227983" transform="translate(0 4.878)">
                        <path id="Trazado_1178845" data-name="Trazado 1178845" d="M131.9,241.5a1.263,1.263,0,1,0,.575-1.691A1.263,1.263,0,0,0,131.9,241.5Z" transform="translate(-131.77 -239.683)" fill="#cfb593"/>
                      </g>
                      <g id="Grupo_1227984" data-name="Grupo 1227984" transform="translate(6.77 7.458)">
                        <path id="Trazado_1178846" data-name="Trazado 1178846" d="M144.74,246.4a1.263,1.263,0,1,0,.575-1.691A1.263,1.263,0,0,0,144.74,246.4Z" transform="translate(-144.61 -244.576)" fill="#cfb593"/>
                      </g>
                      <g id="Grupo_1227985" data-name="Grupo 1227985" transform="translate(14.027 9.924)">
                        <path id="Trazado_1178847" data-name="Trazado 1178847" d="M158.5,251.075a1.263,1.263,0,1,0,.575-1.691A1.263,1.263,0,0,0,158.5,251.075Z" transform="translate(-158.374 -249.253)" fill="#cfb593"/>
                      </g>
                      <g id="Grupo_1227986" data-name="Grupo 1227986" transform="translate(6.334 14.639)">
                        <path id="Trazado_1178848" data-name="Trazado 1178848" d="M143.912,260.018a1.263,1.263,0,1,0,.575-1.691A1.263,1.263,0,0,0,143.912,260.018Z" transform="translate(-143.782 -258.196)" fill="#cfb593"/>
                      </g>
                    </g>
                  </g>
                </g>
                <g id="Grupo_1228008" data-name="Grupo 1228008" transform="translate(138.399 11.531)">
                  <g id="Grupo_1227991" data-name="Grupo 1227991">
                    <g id="Grupo_1227990" data-name="Grupo 1227990">
                      <path id="Trazado_1178849" data-name="Trazado 1178849" d="M380.158,168.08l-66.976-35.318a1.479,1.479,0,0,1-.618-2l9.062-17.184a1.48,1.48,0,0,1,2-.619L390.6,148.279a1.479,1.479,0,0,1,.618,2l-9.062,17.184A1.48,1.48,0,0,1,380.158,168.08Z" transform="translate(-312.392 -112.789)" fill="#f2e0c7"/>
                    </g>
                  </g>
                  <g id="Grupo_1227993" data-name="Grupo 1227993" transform="translate(23.366 13.529)">
                    <g id="Grupo_1227992" data-name="Grupo 1227992">
                      <path id="Trazado_1178850" data-name="Trazado 1178850" d="M379.806,166.45l-23.1-12.181.066-.124,8.277-15.7,23.1,12.181-.066.124Zm-22.719-12.3,22.6,11.919,8.08-15.323-22.6-11.919Z" transform="translate(-356.707 -138.448)" fill="#cfb593"/>
                    </g>
                  </g>
                  <g id="Grupo_1228000" data-name="Grupo 1228000" transform="translate(8.621 6.496)">
                    <g id="Grupo_1227999" data-name="Grupo 1227999">
                      <g id="Grupo_1227994" data-name="Grupo 1227994" transform="translate(4.933)">
                        <path id="Trazado_1178851" data-name="Trazado 1178851" d="M340.479,126.962a1.263,1.263,0,1,1-.528-1.707A1.263,1.263,0,0,1,340.479,126.962Z" transform="translate(-338.099 -125.109)" fill="#cfb593"/>
                      </g>
                      <g id="Grupo_1227995" data-name="Grupo 1227995" transform="translate(7.322 7.526)">
                        <path id="Trazado_1178852" data-name="Trazado 1178852" d="M345.01,141.235a1.263,1.263,0,1,1-.528-1.707A1.263,1.263,0,0,1,345.01,141.235Z" transform="translate(-342.629 -139.382)" fill="#cfb593"/>
                      </g>
                      <g id="Grupo_1227996" data-name="Grupo 1227996" transform="translate(13.56 3.835)">
                        <path id="Trazado_1178853" data-name="Trazado 1178853" d="M356.841,134.236a1.263,1.263,0,1,1-.528-1.707A1.263,1.263,0,0,1,356.841,134.236Z" transform="translate(-354.461 -132.383)" fill="#cfb593"/>
                      </g>
                      <g id="Grupo_1227997" data-name="Grupo 1227997" transform="translate(7.767 14.664)">
                        <path id="Trazado_1178854" data-name="Trazado 1178854" d="M345.853,154.773a1.263,1.263,0,1,1-.528-1.707A1.263,1.263,0,0,1,345.853,154.773Z" transform="translate(-343.472 -152.92)" fill="#cfb593"/>
                      </g>
                      <g id="Grupo_1227998" data-name="Grupo 1227998" transform="translate(0 9.791)">
                        <path id="Trazado_1178855" data-name="Trazado 1178855" d="M331.123,145.532a1.263,1.263,0,1,1-.528-1.707A1.264,1.264,0,0,1,331.123,145.532Z" transform="translate(-328.742 -143.679)" fill="#cfb593"/>
                      </g>
                    </g>
                  </g>
                  <g id="Grupo_1228007" data-name="Grupo 1228007" transform="translate(53.715 29.885)">
                    <g id="Grupo_1228006" data-name="Grupo 1228006">
                      <g id="Grupo_1228001" data-name="Grupo 1228001" transform="translate(13.629 4.715)">
                        <path id="Trazado_1178856" data-name="Trazado 1178856" d="M440.26,179.086a1.263,1.263,0,1,0,1.707-.528A1.263,1.263,0,0,0,440.26,179.086Z" transform="translate(-440.114 -178.412)" fill="#cfb593"/>
                      </g>
                      <g id="Grupo_1228002" data-name="Grupo 1228002" transform="translate(4.181)">
                        <path id="Trazado_1178857" data-name="Trazado 1178857" d="M422.341,170.143a1.263,1.263,0,1,0,1.707-.528A1.263,1.263,0,0,0,422.341,170.143Z" transform="translate(-422.195 -169.469)" fill="#cfb593"/>
                      </g>
                      <g id="Grupo_1228003" data-name="Grupo 1228003" transform="translate(6.069 6.994)">
                        <path id="Trazado_1178858" data-name="Trazado 1178858" d="M425.923,183.408a1.263,1.263,0,1,0,1.707-.528A1.263,1.263,0,0,0,425.923,183.408Z" transform="translate(-425.777 -182.734)" fill="#cfb593"/>
                      </g>
                      <g id="Grupo_1228004" data-name="Grupo 1228004" transform="translate(8.335 14.316)">
                        <path id="Trazado_1178859" data-name="Trazado 1178859" d="M430.22,197.3a1.263,1.263,0,1,0,1.707-.528A1.263,1.263,0,0,0,430.22,197.3Z" transform="translate(-430.074 -196.621)" fill="#cfb593"/>
                      </g>
                      <g id="Grupo_1228005" data-name="Grupo 1228005" transform="translate(0 10.859)">
                        <path id="Trazado_1178860" data-name="Trazado 1178860" d="M414.412,190.738a1.263,1.263,0,1,0,1.707-.528A1.263,1.263,0,0,0,414.412,190.738Z" transform="translate(-414.266 -190.064)" fill="#cfb593"/>
                      </g>
                    </g>
                  </g>
                </g>
                <g id="Grupo_1228130" data-name="Grupo 1228130" transform="translate(38.443 0)">
                  <path id="Trazado_1178888" data-name="Trazado 1178888" d="M155.977,227.211A14.8,14.8,0,0,0,145.8,244.117a13.512,13.512,0,0,0,.827,2.825,12.585,12.585,0,0,0,.64,1.323,7.148,7.148,0,0,0,.913,1.178c.134.152.369-.043.275-.212-.2-.362-.355-.746-.547-1.113s-.383-.727-.549-1.1a13.389,13.389,0,0,1-.792-2.395,14.475,14.475,0,0,1-.249-4.983,14.312,14.312,0,0,1,4.632-8.891,14.97,14.97,0,0,1,5.148-3.086C156.381,227.563,156.264,227.118,155.977,227.211Z" transform="translate(-123.952 -145.961)" fill="#390000"/>
                  <path id="Trazado_1178889" data-name="Trazado 1178889" d="M255.41,164.3a18.808,18.808,0,0,0-4.455-7.464,12.016,12.016,0,0,0,2.558-6.164c.217-1.851.1-4.069-1.1-5.586a7.18,7.18,0,0,0-4.662-2.275c-1.133-.176-2.279-.224-3.417-.359a11.01,11.01,0,0,1-1.382-.265c-1.016-.986-5.179-3.053-1-9.786,4.813-7.755,6.2-18.7-6.523-23.372,0,0,4.5-.936,7.506,1.206,0,0-2.814-6.377-11.315-7.539-5.846-.8-6.792-23.4-23.071-23.4A13.4,13.4,0,0,0,197.548,85c-.365-1.514,1-4.96,1-4.96-5.11.594-5.8,6.979-5.8,6.979-3.618-7-10.441-5.777-17.393.707-6.858,6.4-8.244,16.666-10.326,20-3.933,6.3-14.26,14.776-15.272,22.657a11.144,11.144,0,0,0,1.389,6.629,24.4,24.4,0,0,0-3.6,3.143c-2.57,2.736-5.739,7.382-3.211,11.118a12.579,12.579,0,0,0,4.1,3.258c1.712,1.066,3.2,2.317,3.648,4.382,0,.013,0,.027.006.041-.242.255-.482.511-.708.781a20.82,20.82,0,0,0-2.718,4.32,36.7,36.7,0,0,0-3.12,9.6,24.494,24.494,0,0,0,.178,10.01,18.624,18.624,0,0,0,.759,2.392c.27.684.553,1.473,1.371,1.619a3.449,3.449,0,0,0,1.107-.066q.645-.1,1.29-.194c.807-.123,1.613-.252,2.418-.391,1.373-.238,2.742-.513,4.1-.848.773.243,1.552.462,2.319.678a69.975,69.975,0,0,0,7.437,1.647c10.083,1.684,20.377,1.385,30.5.278,10.563-1.155,21.007-3.147,31.528-4.6l1.323-.185q2.753.621,5.506,1.241a44.6,44.6,0,0,0,6.414,1.09c3.639.273,7.59-.4,10.363-2.947a12.176,12.176,0,0,0,2.967-4.637,20.562,20.562,0,0,0,1.207-4.793A21.874,21.874,0,0,0,255.41,164.3Zm-4.248-19.443c1.52,1.185,1.8,3.232,1.732,5.045a11.312,11.312,0,0,1-1.4,4.951,12.006,12.006,0,0,1-1.007,1.537c-.051-.045-.1-.095-.147-.139-.3-.264-.619-.517-.937-.765a17.614,17.614,0,0,0,1.481-5.945,5.978,5.978,0,0,0-.707-3.664,4.812,4.812,0,0,0-2.2-1.715,34.153,34.153,0,0,0-3.379-1.04c.562.079,1.126.14,1.69.2A9.456,9.456,0,0,1,251.162,144.861Z" transform="translate(-122.933 -76.044)" fill="#390000"/>
                  <g id="Grupo_1228070" data-name="Grupo 1228070" transform="translate(111.492 32.43)">
                    <path id="Trazado_1178890" data-name="Trazado 1178890" d="M319.282,159.424l-.21-.42c.1-.05,9.981-5.082,9.837-13.248-.143-8.125-12.755-10.641-12.882-10.665l.089-.461c.131.025,13.113,2.612,13.263,11.117C329.529,154.211,319.385,159.372,319.282,159.424Z" transform="translate(-316.027 -134.63)" fill="#390000"/>
                  </g>
                  <g id="Grupo_1228071" data-name="Grupo 1228071" transform="translate(74.282)">
                    <path id="Trazado_1178891" data-name="Trazado 1178891" d="M280.687,102.078l-1.3-.272.079-.376c-1.581-1.956-2.818-5.313-4.234-9.156-2.221-6.025-4.738-12.854-9.42-16.624-2.9-2.335-7.359-2.716-11.362-.971-4.18,1.823-6.976,5.468-8.585,8.205l-.4-.238a19.771,19.771,0,0,1,8.8-8.4c4.16-1.815,8.81-1.408,11.845,1.035,4.782,3.851,7.323,10.745,9.565,16.827,1.508,4.091,2.81,7.623,4.507,9.423Z" transform="translate(-245.455 -73.124)" fill="#390000"/>
                  </g>
                  <g id="Grupo_1228072" data-name="Grupo 1228072" transform="translate(23.988 9.425)">
                    <path id="Trazado_1178892" data-name="Trazado 1178892" d="M169.672,159.243A35.086,35.086,0,0,1,157.2,152.7c-3.047-2.5-6.754-6.566-7.109-11.736a13.491,13.491,0,0,1,3.326-9.484,31.664,31.664,0,0,1,4.783-4.293,26.4,26.4,0,0,0,5.36-5.061c2.24-3.1,2.889-7.076,3.517-10.918.658-4.026,1.339-8.189,3.842-11.408C174.4,95.329,180.97,91.153,183.1,91l.034.468c-1.839.133-8.338,4.117-11.838,8.618-2.43,3.126-3.1,7.228-3.749,11.2-.637,3.895-1.3,7.923-3.6,11.117a26.755,26.755,0,0,1-5.451,5.156,31.329,31.329,0,0,0-4.713,4.227,13.018,13.018,0,0,0-3.216,9.149c.343,5,3.963,8.963,6.938,11.405a34.6,34.6,0,0,0,12.3,6.457Z" transform="translate(-150.07 -90.999)" fill="#390000"/>
                  </g>
                  <g id="Grupo_1228086" data-name="Grupo 1228086" transform="translate(98.408 49.542)">
                    <g id="Grupo_1228073" data-name="Grupo 1228073" transform="translate(44.59 37.386)">
                      <path id="Trazado_1178893" data-name="Trazado 1178893" d="M404.228,238.221c-2.179-.534-4.478-.013-6.656.282q-3.392.46-6.785.914l-6.785.914a12.152,12.152,0,0,0-3.134.683c-.9.376-4.954,2.209-5.087,3.753.029.334.143-.087.186.245a15.743,15.743,0,0,1,.615,3.007,7.141,7.141,0,0,0,2.238,1.033,17.6,17.6,0,0,0,7.059.137c4.894-.611,9.878-1.809,13.9-4.8a17.7,17.7,0,0,0,2.745-2.5,16.711,16.711,0,0,0,1.177-1.5,3.769,3.769,0,0,0,.847-1.747A.44.44,0,0,0,404.228,238.221Z" transform="translate(-375.78 -237.99)" fill="#c8dff0"/>
                    </g>
                    <g id="Grupo_1228074" data-name="Grupo 1228074" transform="translate(37.671 55.992)">
                      <path id="Trazado_1178894" data-name="Trazado 1178894" d="M399.58,303.4c-2.341,2.347-6.21,1.877-9.427,1.079a100.224,100.224,0,0,1-17.273-6c-3.527-1.6-7.181-3.617-8.918-7.079-1.28-2.551-1.324-5.525-1.3-8.379.031-3.582.62-7.932,3.917-9.332,1.962-.833,4.206-.257,6.256.327l8.174,2.331c3.845,1.1,7.743,2.216,11.157,4.3,3.759,2.29,6.89,5.873,7.873,10.164C400.931,294.709,399.922,299,399.58,303.4Z" transform="translate(-362.658 -273.278)" fill="#d47455"/>
                    </g>
                    <g id="Grupo_1228076" data-name="Grupo 1228076" transform="translate(0 37.557)">
                      <g id="Grupo_1228075" data-name="Grupo 1228075">
                        <path id="Trazado_1178895" data-name="Trazado 1178895" d="M345.729,259.464c-3.852,11.212-1.626,26.176,1.036,39.052-7.577,1.2-16.513-5.021-24.011-6.638-3.566-.769-14.07-6.775-16.95-6.665-2.72-14.4-5.577-14.1-6.87-27.283-.453-4.621-10.983-17.793-6.7-19.585,1.753-.733,33.4,11.537,41.219,14.866A71.982,71.982,0,0,1,345.729,259.464Z" transform="translate(-291.212 -238.314)" fill="#fff"/>
                      </g>
                    </g>
                    <g id="Grupo_1228077" data-name="Grupo 1228077" transform="translate(51.943 32.167)">
                      <path id="Trazado_1178896" data-name="Trazado 1178896" d="M389.725,235.075c4.1,8.555,3.616,18.47,4.033,27.946.221,5.019.784,10.23,3.429,14.5s7.933,7.289,12.738,5.823c4.479-1.367,7.189-6.2,7.5-10.87s-1.292-9.241-2.961-13.618c-3.4-8.925-7.18-17.7-10.467-26.394a21.484,21.484,0,0,0-3.737-3.156,7.221,7.221,0,0,0-4.663-1.164,5.433,5.433,0,0,0-3.664,2.239C391.087,231.587,390.773,233.151,389.725,235.075Z" transform="translate(-389.725 -228.092)" fill="#fd8572"/>
                    </g>
                    <g id="Grupo_1228078" data-name="Grupo 1228078" transform="translate(36.191 25.877)">
                      <path id="Trazado_1178897" data-name="Trazado 1178897" d="M383.937,229.743a12.8,12.8,0,0,1-7.74.065c-3.393-1.172-5.848-4.073-7.465-6.558-3.05-2.685-4.386-2.952-7.043-4.109a4.331,4.331,0,0,1-1.324-.775,1.473,1.473,0,0,1-.475-1.391c.217-.795,2.962-.739,3.783-.8,3.376-.258,7.168,4.068,9.037,3.574,3.628-1.462,5.349-2.079,8.747-.142S387.044,225.693,383.937,229.743Z" transform="translate(-359.851 -216.162)" fill="#fd8572"/>
                    </g>
                    <g id="Grupo_1228079" data-name="Grupo 1228079" transform="translate(47.072 17.281)">
                      <path id="Trazado_1178898" data-name="Trazado 1178898" d="M381.358,213.492c1.678-1.807,1.635-2.936,1.467-10.833,2.535-2.872,6.918-2.917,10.744-2.741,2.375.109,5.065.375,6.514,2.26-.4,2.15.634,3.591.791,5.088.342,3.256,1.154,5.694,1.5,8.95.108,1.028-1.555,4.239-1.851,5.229-.547,1.831-.564.856-2.341,1.558a13.686,13.686,0,0,1-10.677-.051C384.186,221.407,378.256,216.833,381.358,213.492Z" transform="translate(-380.487 -199.859)" fill="#fd8572"/>
                    </g>
                    <g id="Grupo_1228080" data-name="Grupo 1228080" transform="translate(49.031 1.875)">
                      <path id="Trazado_1178899" data-name="Trazado 1178899" d="M389.75,191.223c-2.115-8.555-.98-11.724-1.469-17.585a3.988,3.988,0,0,0-1.14-3c-1.035.067-1.516,1.295-1.731,2.31a48.413,48.413,0,0,0-.7,17.541,5.825,5.825,0,0,0,.668,2.173,2.2,2.2,0,0,0,1.866,1.129C388,193.76,388.719,193.023,389.75,191.223Z" transform="translate(-384.202 -170.641)" fill="#fd8572"/>
                    </g>
                    <g id="Grupo_1228081" data-name="Grupo 1228081" transform="translate(53.816)">
                      <path id="Trazado_1178900" data-name="Trazado 1178900" d="M393.321,186.068c-.021-6.771.3-13.875,5.79-18.54,6.661-2.548,9.415,6.515,7.786,11.54-.319,7.06-1.172,6.82.117,13.162C404.794,197.953,392.461,191.166,393.321,186.068Z" transform="translate(-393.278 -167.085)" fill="#fd8572"/>
                    </g>
                    <g id="Grupo_1228082" data-name="Grupo 1228082" transform="translate(62.006 4.046)">
                      <path id="Trazado_1178901" data-name="Trazado 1178901" d="M409.054,192.208a.2.2,0,0,1-.035,0,.243.243,0,0,1-.205-.275c.3-2.062.462-3.98.621-5.834a61.887,61.887,0,0,1,1.385-9.744c.513-1.493,1.162-1.675,1.617-1.568,1.272.3,2.362,3.332,2.179,4.771a.248.248,0,0,1-.272.21.243.243,0,0,1-.21-.271c.162-1.277-.892-4.025-1.808-4.238-.5-.114-.866.721-1.042,1.231a61.554,61.554,0,0,0-1.367,9.651c-.159,1.861-.324,3.786-.623,5.862A.243.243,0,0,1,409.054,192.208Z" transform="translate(-408.811 -174.759)" fill="#c4504b"/>
                    </g>
                    <g id="Grupo_1228083" data-name="Grupo 1228083" transform="translate(56.09 26.936)">
                      <path id="Trazado_1178902" data-name="Trazado 1178902" d="M397.951,229.389a.243.243,0,0,1-.23-.167c-1.164-3.56,5.886-10.678,6.187-10.979a.242.242,0,0,1,.343.342c-.072.071-7.142,7.206-6.069,10.485a.242.242,0,0,1-.155.306A.222.222,0,0,1,397.951,229.389Z" transform="translate(-397.591 -218.172)" fill="#c4504b"/>
                    </g>
                    <g id="Grupo_1228085" data-name="Grupo 1228085" transform="translate(35.709 37.816)">
                      <g id="Grupo_1228084" data-name="Grupo 1228084">
                        <path id="Trazado_1178903" data-name="Trazado 1178903" d="M367.78,245.134c6.708,3.354,25.462-1.067,28.969-6.327,3.2,9.682,9.606,34.839,10.139,37.888s-2.287,16.848-8.538,20.965-24.7,1.22-25.615.839-13.8-32.781-13.8-32.781l.762-11.054,11.282,4.269Z" transform="translate(-358.937 -238.807)" fill="#fff"/>
                      </g>
                    </g>
                  </g>
                  <g id="Grupo_1228087" data-name="Grupo 1228087" transform="translate(79.991 26.129)">
                    <path id="Trazado_1178904" data-name="Trazado 1178904" d="M256.283,125.783a5.59,5.59,0,0,1,6.336-2.963,8.19,8.19,0,0,1,5.423,4.926C264.444,126.845,260.7,126.515,256.283,125.783Z" transform="translate(-256.283 -122.679)" fill="#173a59"/>
                  </g>
                  <g id="Grupo_1228088" data-name="Grupo 1228088" transform="translate(60.779 26.129)">
                    <path id="Trazado_1178905" data-name="Trazado 1178905" d="M231.6,125.783a5.59,5.59,0,0,0-6.336-2.963,8.19,8.19,0,0,0-5.423,4.926C223.444,126.845,227.184,126.515,231.6,125.783Z" transform="translate(-219.846 -122.679)" fill="#173a59"/>
                  </g>
                  <g id="Grupo_1228090" data-name="Grupo 1228090" transform="translate(15.277 83.131)">
                    <g id="Grupo_1228089" data-name="Grupo 1228089">
                      <path id="Trazado_1178906" data-name="Trazado 1178906" d="M255.7,378.439l-62.489,7.673-59.667-6.462,14.818-107.48c0-26.322,21.338-41.382,47.66-41.382h0c26.322,0,47.66,15.06,47.66,41.382Z" transform="translate(-133.549 -230.788)" fill="#fff"/>
                    </g>
                  </g>
                  <g id="Grupo_1228092" data-name="Grupo 1228092" transform="translate(61.145 81.895)">
                    <g id="Grupo_1228091" data-name="Grupo 1228091">
                      <path id="Trazado_1178907" data-name="Trazado 1178907" d="M220.54,231.865l19.089,56.7s14.418-57.723,13.957-57.663C242.387,227.466,230.355,227.5,220.54,231.865Z" transform="translate(-220.54 -228.445)" fill="#fda601"/>
                    </g>
                  </g>
                  <g id="Grupo_1228093" data-name="Grupo 1228093" transform="translate(68.42 62.534)">
                    <path id="Trazado_1178908" data-name="Trazado 1178908" d="M234.337,195.4a101.567,101.567,0,0,1,.133,22.926,14.56,14.56,0,0,0,9.2,2.991,11.988,11.988,0,0,0,8.932-4.133,107.262,107.262,0,0,1-2.815-24.506A15.555,15.555,0,0,0,234.337,195.4Z" transform="translate(-234.337 -191.725)" fill="#fd8572"/>
                  </g>
                  <g id="Grupo_1228094" data-name="Grupo 1228094" transform="translate(68.777 70.904)">
                    <path id="Trazado_1178909" data-name="Trazado 1178909" d="M235.015,207.6a12.7,12.7,0,0,0,7.923,4.3,7.964,7.964,0,0,0,7.647-4.229A52.94,52.94,0,0,1,235.015,207.6Z" transform="translate(-235.015 -207.599)" fill="#c4504b"/>
                  </g>
                  <g id="Grupo_1228095" data-name="Grupo 1228095" transform="translate(44.681 13.996)">
                    <path id="Trazado_1178910" data-name="Trazado 1178910" d="M249.03,127.5a6,6,0,0,0-4.527-3.318,4.617,4.617,0,0,0-1.172.026c-2-11.416-8.567-23.624-21.581-24.429-8.2-1.1-16.944,6.19-20.172,12.344a39.321,39.321,0,0,0-4.408,12.177,4.785,4.785,0,0,0-2.516-.426,6,6,0,0,0-4.527,3.318,8.681,8.681,0,0,0-.585,5.708,8.263,8.263,0,0,0,2.537,4.565,5.448,5.448,0,0,0,4.95,1.224,4.529,4.529,0,0,0,.817-.337c6.282,21.785,35.973,30.668,45.192.8a5.643,5.643,0,0,0,4.042-1.379,8.262,8.262,0,0,0,2.537-4.565A8.683,8.683,0,0,0,249.03,127.5Z" transform="translate(-189.314 -99.669)" fill="#fd8572"/>
                  </g>
                  <g id="Grupo_1228096" data-name="Grupo 1228096" transform="translate(53.768 40.328)">
                    <ellipse id="Elipse_12785" data-name="Elipse 12785" cx="7.76" cy="7.343" rx="7.76" ry="7.343" fill="#fd6f65"/>
                  </g>
                  <g id="Grupo_1228097" data-name="Grupo 1228097" transform="translate(83.286 40.328)">
                    <ellipse id="Elipse_12786" data-name="Elipse 12786" cx="7.76" cy="7.343" rx="7.76" ry="7.343" fill="#fd6f65"/>
                  </g>
                  <g id="Grupo_1228098" data-name="Grupo 1228098" transform="translate(80.325 35.179)">
                    <path id="Trazado_1178911" data-name="Trazado 1178911" d="M268.124,146.016l-.46-.73a15.327,15.327,0,0,0-2.632-3.442,4.907,4.907,0,0,0-4.308-1.338,5.5,5.5,0,0,0-3.278,2.993.28.28,0,1,1-.5-.253,6.038,6.038,0,0,1,3.644-3.284,5.457,5.457,0,0,1,4.813,1.463,15.954,15.954,0,0,1,2.734,3.563l.157.248,2.185-1.425a.28.28,0,0,1,.306.469Z" transform="translate(-256.916 -139.844)" fill="#390000"/>
                  </g>
                  <g id="Grupo_1228099" data-name="Grupo 1228099" transform="translate(83.287 38.977)">
                    <path id="Trazado_1178912" data-name="Trazado 1178912" d="M262.589,149.281c-.646,3.47,4.559,3.371,4.084-.335C266.433,147.093,263.038,145.676,262.589,149.281Z" transform="translate(-262.533 -147.047)" fill="#390000"/>
                  </g>
                  <g id="Grupo_1228100" data-name="Grupo 1228100" transform="translate(58.255 35.179)">
                    <path id="Trazado_1178913" data-name="Trazado 1178913" d="M217.847,146.015l-2.661-1.734a.28.28,0,0,1,.306-.469l2.185,1.425.155-.247a15.95,15.95,0,0,1,2.735-3.564,5.455,5.455,0,0,1,4.813-1.463,6.042,6.042,0,0,1,3.645,3.284.28.28,0,0,1-.5.253,5.5,5.5,0,0,0-3.277-2.993,4.9,4.9,0,0,0-4.308,1.338,15.31,15.31,0,0,0-2.633,3.444Z" transform="translate(-215.059 -139.844)" fill="#390000"/>
                  </g>
                  <g id="Grupo_1228101" data-name="Grupo 1228101" transform="translate(65.118 38.977)">
                    <path id="Trazado_1178914" data-name="Trazado 1178914" d="M232.191,149.281c.646,3.47-4.559,3.371-4.084-.335C228.347,147.093,231.742,145.676,232.191,149.281Z" transform="translate(-228.076 -147.047)" fill="#390000"/>
                  </g>
                  <g id="Grupo_1228102" data-name="Grupo 1228102" transform="translate(72.406 40.306)">
                    <path id="Trazado_1178915" data-name="Trazado 1178915" d="M251.751,158.589a48.453,48.453,0,0,0-4.188-7.815c-.4-.6-.954-1.27-1.674-1.2-.7.067-1.122.789-1.411,1.431a48.844,48.844,0,0,0-2.371,6.423,3.044,3.044,0,0,0-.164,1.526c.226.963,1.273,1.478,2.232,1.719A7.569,7.569,0,0,0,251.751,158.589Z" transform="translate(-241.898 -149.568)" fill="#c4504b"/>
                  </g>
                  <g id="Grupo_1228103" data-name="Grupo 1228103" transform="translate(70.164 50.663)">
                    <path id="Trazado_1178916" data-name="Trazado 1178916" d="M244.025,173.844a10.74,10.74,0,0,1-6.263-2.017.28.28,0,0,1,.328-.453,10.08,10.08,0,0,0,13.92-2.052.28.28,0,0,1,.445.34,10.73,10.73,0,0,1-6.906,4.071A10.337,10.337,0,0,1,244.025,173.844Z" transform="translate(-237.646 -169.212)" fill="#390000"/>
                  </g>
                  <g id="Grupo_1228104" data-name="Grupo 1228104" transform="translate(80.808 106.688)">
                    <path id="Trazado_1178917" data-name="Trazado 1178917" d="M257.833,308.489l25.522-22.61-17.27-10.413Z" transform="translate(-257.833 -275.466)" fill="#c8dff0"/>
                  </g>
                  <g id="Grupo_1228105" data-name="Grupo 1228105" transform="translate(89.06 84.36)">
                    <path id="Trazado_1178918" data-name="Trazado 1178918" d="M283.708,259.828l14.615-7.594L278.47,233.119l-4.986,22.328Z" transform="translate(-273.484 -233.119)" fill="#c8dff0"/>
                  </g>
                  <g id="Grupo_1228106" data-name="Grupo 1228106" transform="translate(52.299 107.28)">
                    <path id="Trazado_1178919" data-name="Trazado 1178919" d="M231.06,309.675l-27.3-20.912L219.84,276.59Z" transform="translate(-203.763 -276.59)" fill="#c8dff0"/>
                  </g>
                  <g id="Grupo_1228107" data-name="Grupo 1228107" transform="translate(43.337 85.601)">
                    <path id="Trazado_1178920" data-name="Trazado 1178920" d="M202.1,262.585l-15.334-6.013,17.73-21.1,7.309,21.68Z" transform="translate(-186.766 -235.473)" fill="#c8dff0"/>
                  </g>
                  <g id="Grupo_1228108" data-name="Grupo 1228108" transform="translate(73.878 12.828)">
                    <path id="Trazado_1178921" data-name="Trazado 1178921" d="M244.689,97.453s4.067,21.743,23.23,26.233c0,0,9.163-3.989,1.611-14.7S244.689,97.453,244.689,97.453Z" transform="translate(-244.689 -97.453)" fill="#390000"/>
                  </g>
                  <g id="Grupo_1228109" data-name="Grupo 1228109" transform="translate(50.847 12.996)">
                    <path id="Trazado_1178922" data-name="Trazado 1178922" d="M225.865,97.772s-16.873,25.286-23.085,25.18,5.917-19.835,5.917-19.835S214.076,97.88,225.865,97.772Z" transform="translate(-201.01 -97.772)" fill="#390000"/>
                  </g>
                  <g id="Grupo_1228110" data-name="Grupo 1228110" transform="translate(62.995 29.479)">
                    <path id="Trazado_1178923" data-name="Trazado 1178923" d="M224.328,131.6a.28.28,0,0,1-.226-.444,5.229,5.229,0,0,1,7.559-.876.28.28,0,1,1-.327.454c-4.045-2.909-6.669.6-6.779.75A.28.28,0,0,1,224.328,131.6Z" transform="translate(-224.049 -129.034)" fill="#390000"/>
                  </g>
                  <g id="Grupo_1228111" data-name="Grupo 1228111" transform="translate(73.445 55.907)">
                    <path id="Trazado_1178924" data-name="Trazado 1178924" d="M247.271,180.99a5.41,5.41,0,0,1-3.309-1.153.28.28,0,0,1,.371-.419c.112.1,2.788,2.385,6.25-.206a.28.28,0,1,1,.335.448A6.015,6.015,0,0,1,247.271,180.99Z" transform="translate(-243.869 -179.156)" fill="#c4504b"/>
                  </g>
                  <g id="Grupo_1228113" data-name="Grupo 1228113" transform="translate(63.865 81.595)">
                    <g id="Grupo_1228112" data-name="Grupo 1228112">
                      <path id="Trazado_1178925" data-name="Trazado 1178925" d="M247.2,227.875,239.589,238.4l-9.335-10.225s-9.382,8.317-1.216,12.924,17.144.523,17.144.523S254.282,231.621,247.2,227.875Z" transform="translate(-225.699 -227.875)" fill="#fda601"/>
                    </g>
                  </g>
                  <g id="Grupo_1228114" data-name="Grupo 1228114" transform="translate(94.19 129.162)">
                    <path id="Trazado_1178926" data-name="Trazado 1178926" d="M298.848,318.09c-5.2,1.841-10.43,2.343-15.635,4.184.34,1.248.679,5.116,1.018,6.364l14.945-3.572A63.826,63.826,0,0,1,298.848,318.09Z" transform="translate(-283.213 -318.09)" fill="#c8dff0"/>
                  </g>
                  <g id="Grupo_1228115" data-name="Grupo 1228115" transform="translate(101.316 125.316)">
                    <path id="Trazado_1178927" data-name="Trazado 1178927" d="M296.727,321.089V311.1a.3.3,0,0,1,.3-.3h1.908a.3.3,0,0,1,.3.3v9.993a.3.3,0,0,1-.3.3h-1.908A.3.3,0,0,1,296.727,321.089Z" transform="translate(-296.727 -310.795)" fill="#173a59"/>
                  </g>
                  <g id="Grupo_1228120" data-name="Grupo 1228120" transform="translate(5.094 91.664)">
                    <g id="Grupo_1228117" data-name="Grupo 1228117" transform="translate(0 2.028)">
                      <g id="Grupo_1228116" data-name="Grupo 1228116">
                        <path id="Trazado_1178928" data-name="Trazado 1178928" d="M177.732,315.344l-15.176-62.688a2.4,2.4,0,0,0-3.078-1.718l-43.585,14.2a2.4,2.4,0,0,0-1.546,3.008l18.309,57.906a2.4,2.4,0,0,0,2.834,1.615l40.452-9.413A2.4,2.4,0,0,0,177.732,315.344Z" transform="translate(-114.235 -250.818)" fill="#173a59"/>
                      </g>
                    </g>
                    <g id="Grupo_1228118" data-name="Grupo 1228118" transform="translate(10.8 1.553)">
                      <path id="Trazado_1178929" data-name="Trazado 1178929" d="M154.722,258.746l-2.921-8.827-17.084,4.487,3.111,8.84Z" transform="translate(-134.717 -249.919)" fill="#c8dff0"/>
                    </g>
                    <g id="Grupo_1228119" data-name="Grupo 1228119" transform="translate(14.431)">
                      <path id="Trazado_1178930" data-name="Trazado 1178930" d="M150.756,250.655c-.459-1.627-1.537-3.265-3.191-3.613a4.244,4.244,0,0,0-2.227.211,5.712,5.712,0,0,0-3.16,2.536,4.349,4.349,0,0,0-.171,3.98Z" transform="translate(-141.604 -246.973)" fill="#c8dff0"/>
                    </g>
                  </g>
                  <g id="Grupo_1228125" data-name="Grupo 1228125" transform="translate(6.795 106.414)">
                    <g id="Grupo_1228121" data-name="Grupo 1228121" transform="translate(0 13.454)">
                      <path id="Trazado_1178931" data-name="Trazado 1178931" d="M123.288,315.106c6.17-3.728,29.976-11.444,36.538-14.643,3.759.017,2.884,2.17,3.595,5.861s3.293,4.871-.086,6.539c-4.683,2.188-14,7.542-18.4,10.089-18.057,16.555-25.538,12.491-27.2,10.194S122.494,318.922,123.288,315.106Z" transform="translate(-117.462 -300.463)" fill="#fd8572"/>
                    </g>
                    <g id="Grupo_1228122" data-name="Grupo 1228122" transform="translate(39.421)">
                      <path id="Trazado_1178932" data-name="Trazado 1178932" d="M194.674,295.323c-1.8-1.123-2.965-7.082-2.218-9.063s2.02-5.638,3.69-6.94a47.062,47.062,0,0,1,4.895-3.345,5.3,5.3,0,0,1,3.139-1.011,3.545,3.545,0,0,1,2.622,1.923,6.654,6.654,0,0,1,.666,3.347c-2.8,3.245-5.653,6.534-9.242,8.878C196.819,290.029,196.118,296.226,194.674,295.323Z" transform="translate(-192.227 -274.947)" fill="#fd8572"/>
                    </g>
                    <g id="Grupo_1228123" data-name="Grupo 1228123" transform="translate(50.204 2.598)">
                      <path id="Trazado_1178933" data-name="Trazado 1178933" d="M213.485,283.675c1.848-.266,3.425-1.415,5.027-2.373s3.492-1.771,5.293-1.281a2.9,2.9,0,0,1,2.21,2.315,3.794,3.794,0,0,1-1.284,2.8,13.018,13.018,0,0,1-5.224,3.382,7.611,7.611,0,0,1-3.4.463,4.188,4.188,0,0,1-2.931-1.649A2.948,2.948,0,0,1,213.485,283.675Z" transform="translate(-212.678 -279.874)" fill="#fd8572"/>
                    </g>
                    <g id="Grupo_1228124" data-name="Grupo 1228124" transform="translate(41.531 7.787)">
                      <path id="Trazado_1178934" data-name="Trazado 1178934" d="M214.671,290.138a26.993,26.993,0,0,1,2.644,7.661,10.124,10.124,0,0,1-1.77,7.712c-2.676,3.338-7.494,3.817-11.77,3.962a7.058,7.058,0,0,1-3.941-.638c-1.421-.863-2.042-2.57-2.563-4.149-.73-2.212-1.464-4.605-.759-6.826.84-2.647,3.462-4.259,5.94-5.512a23.853,23.853,0,0,1,6.425-2.406A12.907,12.907,0,0,1,214.671,290.138Z" transform="translate(-196.228 -289.716)" fill="#fd8572"/>
                    </g>
                  </g>
                  <g id="Grupo_1228127" data-name="Grupo 1228127" transform="translate(0 115.641)">
                    <g id="Grupo_1228126" data-name="Grupo 1228126">
                      <path id="Trazado_1178935" data-name="Trazado 1178935" d="M145.675,292.447c5.489,5.031,10.749,21.269,9.834,35.677,0,0-33.162,11.207-38.88,16.009s-13.951,1.144-11.664-12.121,6.632-23.785,9.834-26.758S145.675,292.447,145.675,292.447Z" transform="translate(-104.574 -292.447)" fill="#fff"/>
                    </g>
                  </g>
                  <g id="Grupo_1228128" data-name="Grupo 1228128" transform="translate(144.25 98.083)">
                    <path id="Trazado_1178936" data-name="Trazado 1178936" d="M382.514,282.435c-.2-1.9-.436-3.8-.69-5.7q-.752-5.619-1.723-11.2c-.18-1.038-.376-2.074-.576-3.108q-.15-.775-.314-1.548a5.04,5.04,0,0,0-.475-1.585c-.124-.2-.512-.2-.555.073a4.218,4.218,0,0,0,.087,1.327c.071.475.157.947.238,1.42.162.945.33,1.889.495,2.834.322,1.84.648,3.679.949,5.524q.913,5.6,1.689,11.218c.3,2.155.666,4.3.945,6.463.032.244.413.256.393,0C382.823,286.242,382.711,284.337,382.514,282.435Z" transform="translate(-378.156 -259.147)" fill="#c8dff0"/>
                  </g>
                  <g id="Grupo_1228129" data-name="Grupo 1228129" transform="translate(122.729 123.338)">
                    <path id="Trazado_1178937" data-name="Trazado 1178937" d="M341.624,322.93c-.115-1.286-.265-2.568-.422-3.849q-.471-3.829-1.146-7.626-.194-1.1-.4-2.191a7.808,7.808,0,0,0-.548-2.079c-.135-.266-.506-.116-.523.142a7.438,7.438,0,0,0,.245,1.868q.18.916.351,1.834.355,1.906.669,3.82c.328,2,.628,4,.92,6l-.006-.017c-.3-.828-.612-1.65-.932-2.469q-.468-1.2-.968-2.381c-.158-.376-.315-.753-.484-1.125a7.085,7.085,0,0,0-.6-1.21.241.241,0,0,0-.438.185,7.234,7.234,0,0,0,.439,1.2c.158.4.324.792.487,1.188q.49,1.189.973,2.38c.314.773.622,1.548.933,2.322.294.73.624,1.443.925,2.17.187,1.232.389,2.462.527,3.7.017.155.259.16.247,0C341.775,325.5,341.74,324.213,341.624,322.93Z" transform="translate(-337.339 -307.045)" fill="#c8dff0"/>
                  </g>
                  <path id="Trazado_1178938" data-name="Trazado 1178938" d="M136.789,467.336l-3.24,23.5,59.667,6.462,62.489-7.673-2.673-23.637C223.494,472.647,162.677,471.794,136.789,467.336Z" transform="translate(-118.272 -258.845)" fill="#173a59"/>
                  <path id="Trazado_1178939" data-name="Trazado 1178939" d="M253.841,438.915c-.192,3.231-4.453,23.693-4.453,23.693H257.6Z" transform="translate(-173.033 -246.046)" fill="#173a59"/>
                </g>
                <g id="Grupo_1228136" data-name="Grupo 1228136" transform="translate(205.184 20.843) rotate(164)">
                  <g id="Grupo_1228131" data-name="Grupo 1228131">
                    <path id="Trazado_1178940" data-name="Trazado 1178940" d="M388.469,111.851a7.689,7.689,0,0,1-4.44,9.874l-16.82,6.385a7.672,7.672,0,0,1-9.507-3.634,6.325,6.325,0,0,1-.366-.805,7.661,7.661,0,0,1,4.443-9.866L378.6,107.42a7.673,7.673,0,0,1,9.692,4.006C388.352,111.566,388.414,111.707,388.469,111.851Z" transform="translate(-356.842 -106.923)" fill="#fff"/>
                  </g>
                  <g id="Grupo_1228132" data-name="Grupo 1228132" transform="translate(0 3.066)">
                    <path id="Trazado_1178941" data-name="Trazado 1178941" d="M371.828,112.738l5.43,14.305-10.049,3.815a7.651,7.651,0,0,1-5.43-14.305Z" transform="translate(-356.842 -112.738)" fill="#fd4e6c"/>
                  </g>
                  <g id="Grupo_1228135" data-name="Grupo 1228135" transform="translate(5.301 3.086)">
                    <g id="Grupo_1228133" data-name="Grupo 1228133" transform="translate(0 3.058)">
                      <path id="Trazado_1178942" data-name="Trazado 1178942" d="M370.725,120.41l-2.546.966a.951.951,0,0,1-1.223-.55h0a.951.951,0,0,1,.55-1.223l2.546-.966a.951.951,0,0,1,1.223.55h0A.951.951,0,0,1,370.725,120.41Z" transform="translate(-366.895 -118.575)" fill="#fff"/>
                    </g>
                    <g id="Grupo_1228134" data-name="Grupo 1228134" transform="translate(5.059)">
                      <path id="Trazado_1178943" data-name="Trazado 1178943" d="M383.318,114.61l-5.543,2.1a.951.951,0,0,1-1.223-.55h0a.951.951,0,0,1,.55-1.223l5.543-2.1a.951.951,0,0,1,1.223.55h0A.951.951,0,0,1,383.318,114.61Z" transform="translate(-376.49 -112.775)" fill="#fff"/>
                    </g>
                  </g>
                </g>
                <g id="Grupo_1228142" data-name="Grupo 1228142" transform="translate(165.814 168.5)">
                  <g id="Grupo_1228137" data-name="Grupo 1228137" transform="translate(0.004 0)">
                    <path id="Trazado_1178944" data-name="Trazado 1178944" d="M65.5,313.614a7.148,7.148,0,0,1-9.488,3.356l-15.094-7.206a7.133,7.133,0,0,1-3.662-8.725,5.844,5.844,0,0,1,.306-.764,7.122,7.122,0,0,1,9.485-3.349l15.094,7.206a7.133,7.133,0,0,1,3.53,9.088C65.612,313.352,65.557,313.485,65.5,313.614Z" transform="translate(-36.871 -296.233)" fill="#fff"/>
                  </g>
                  <g id="Grupo_1228138" data-name="Grupo 1228138" transform="translate(0 0)">
                    <path id="Trazado_1178945" data-name="Trazado 1178945" d="M56.057,301.232l-6.129,12.838-9.018-4.305a7.113,7.113,0,0,1,6.129-12.838Z" transform="translate(-36.863 -296.234)" fill="#fd4e6c"/>
                  </g>
                  <g id="Grupo_1228141" data-name="Grupo 1228141" transform="translate(9.346 1.45)">
                    <g id="Grupo_1228139" data-name="Grupo 1228139">
                      <path id="Trazado_1178946" data-name="Trazado 1178946" d="M58.714,301.957l-2.284-1.091a.884.884,0,0,1-.416-1.175h0a.884.884,0,0,1,1.175-.416l2.285,1.091a.884.884,0,0,1,.416,1.175h0A.885.885,0,0,1,58.714,301.957Z" transform="translate(-55.929 -299.191)" fill="#fff"/>
                    </g>
                    <g id="Grupo_1228140" data-name="Grupo 1228140" transform="translate(4.54 2.168)">
                      <path id="Trazado_1178947" data-name="Trazado 1178947" d="M70.666,307.664l-4.974-2.375a.884.884,0,0,1-.416-1.175h0a.884.884,0,0,1,1.175-.416l4.974,2.375a.884.884,0,0,1,.416,1.175h0A.884.884,0,0,1,70.666,307.664Z" transform="translate(-65.191 -303.613)" fill="#fff"/>
                    </g>
                  </g>
                </g>
                <g id="Grupo_1228147" data-name="Grupo 1228147" transform="translate(36.248 175.889)">
                  <g id="Grupo_1228145" data-name="Grupo 1228145">
                    <g id="Grupo_1228143" data-name="Grupo 1228143" transform="translate(0 0.464)">
                      <path id="Trazado_1178948" data-name="Trazado 1178948" d="M87.229,187.785c-1.451,2.357-6.466,1.9-11.2-1.01s-7.4-7.188-5.946-9.545,6.466-1.9,11.2,1.01S88.68,185.428,87.229,187.785Z" transform="translate(-69.687 -175.72)" fill="#c8dff0"/>
                    </g>
                    <g id="Grupo_1228144" data-name="Grupo 1228144" transform="translate(0.468)">
                      <path id="Trazado_1178949" data-name="Trazado 1178949" d="M88.178,186.253c-1.184,1.923-5.982,1.12-10.717-1.795s-7.613-6.837-6.429-8.76,5.982-1.12,10.717,1.795S89.362,184.329,88.178,186.253Z" transform="translate(-70.766 -174.651)" fill="#fff"/>
                    </g>
                  </g>
                  <g id="Grupo_1228146" data-name="Grupo 1228146" transform="translate(7.148 2.81)">
                    <path id="Trazado_1178950" data-name="Trazado 1178950" d="M86.37,189.037a.2.2,0,0,1-.1-.026.2.2,0,0,1-.077-.275l4.222-7.5a.2.2,0,0,1,.353.2l-4.222,7.5A.2.2,0,0,1,86.37,189.037Z" transform="translate(-86.168 -181.129)" fill="#c8dff0"/>
                  </g>
                </g>
                <g id="Grupo_1228148" data-name="Grupo 1228148" transform="translate(46.559 39.262)">
                  <path id="Trazado_1178951" data-name="Trazado 1178951" d="M117.272,136.093h-5.386v-5.386h-4.9v5.386H101.6v4.9h5.386v5.386h4.9V140.99h5.386Z" transform="translate(-101.603 -130.707)" fill="#fff"/>
                </g>
                <g id="Grupo_1228149" data-name="Grupo 1228149" transform="translate(205.184 27.97)">
                  <path id="Trazado_1178952" data-name="Trazado 1178952" d="M441.064,114.739h-3.426v-3.426h-3.115v3.426H431.1v3.115h3.426v3.426h3.115v-3.426h3.426Z" transform="translate(-431.096 -111.313)" fill="#fff"/>
                </g>
                <g id="Grupo_1228152" data-name="Grupo 1228152" transform="translate(127.912 45.548)">
                  <g id="Grupo_1228150" data-name="Grupo 1228150" transform="translate(0.501)">
                    <path id="Trazado_1178953" data-name="Trazado 1178953" d="M275.433,160.088a.223.223,0,0,1-.012-.446l2.584-.133a.226.226,0,0,1,.234.211.223.223,0,0,1-.211.235l-2.584.133Z" transform="translate(-275.209 -159.509)" fill="#390000"/>
                  </g>
                  <g id="Grupo_1228151" data-name="Grupo 1228151" transform="translate(0 1.466)">
                    <path id="Trazado_1178954" data-name="Trazado 1178954" d="M276.784,163.921a.22.22,0,0,1-.1-.025l-2.3-1.184a.223.223,0,1,1,.2-.4l2.3,1.184a.223.223,0,0,1-.1.422Z" transform="translate(-274.26 -162.29)" fill="#390000"/>
                  </g>
                </g>
                <g id="Grupo_1228155" data-name="Grupo 1228155" transform="translate(97.652 45.341)">
                  <g id="Grupo_1228153" data-name="Grupo 1228153">
                    <path id="Trazado_1178955" data-name="Trazado 1178955" d="M219.675,159.7a.223.223,0,0,0,.012-.446l-2.584-.133a.226.226,0,0,0-.234.211.223.223,0,0,0,.211.235l2.584.133Z" transform="translate(-216.868 -159.118)" fill="#390000"/>
                  </g>
                  <g id="Grupo_1228154" data-name="Grupo 1228154" transform="translate(0.783 1.466)">
                    <path id="Trazado_1178956" data-name="Trazado 1178956" d="M218.577,163.53a.219.219,0,0,0,.1-.025l2.3-1.184a.223.223,0,1,0-.2-.4l-2.3,1.184a.223.223,0,0,0,.1.422Z" transform="translate(-218.354 -161.899)" fill="#390000"/>
                  </g>
                </g>
                <g id="Grupo_1228177" data-name="Grupo 1228177" transform="translate(173.184 157.221)">
                  <path id="Trazado_1178966" data-name="Trazado 1178966" d="M367.265,373.762h-2.455v-2.456h-2.233v2.456h-2.455v2.232h2.455v2.456h2.233v-2.456h2.455Z" transform="translate(-360.121 -371.306)" fill="#fff"/>
                </g>
                <g id="Grupo_1228196" data-name="Grupo 1228196" transform="translate(3.306 14.281)">
                  <g id="Grupo_1228179" data-name="Grupo 1228179" transform="translate(62.717 9.327)">
                    <g id="Grupo_1228178" data-name="Grupo 1228178">
                      <path id="Trazado_1178967" data-name="Trazado 1178967" d="M151.794,112.312a4.093,4.093,0,1,1,4.093-4.093A4.1,4.1,0,0,1,151.794,112.312Zm0-7.324a3.231,3.231,0,1,0,3.231,3.232A3.235,3.235,0,0,0,151.794,104.989Z" transform="translate(-147.701 -104.127)" fill="#fff"/>
                    </g>
                  </g>
                  <g id="Grupo_1228181" data-name="Grupo 1228181" transform="translate(142.855)">
                    <g id="Grupo_1228180" data-name="Grupo 1228180" transform="translate(0)">
                      <path id="Trazado_1178968" data-name="Trazado 1178968" d="M317.554,78.553a4.093,4.093,0,1,1,4.093-4.093A4.1,4.1,0,0,1,317.554,78.553Zm0-7.324a3.231,3.231,0,1,0,3.231,3.231A3.235,3.235,0,0,0,317.554,71.23Z" transform="translate(-313.461 -70.368)" fill="#fff"/>
                    </g>
                  </g>
                  <g id="Grupo_1228183" data-name="Grupo 1228183" transform="translate(35.818 55.275)">
                    <g id="Grupo_1228182" data-name="Grupo 1228182">
                      <path id="Trazado_1178969" data-name="Trazado 1178969" d="M93.5,231.742a4.093,4.093,0,1,1,4.093-4.093A4.1,4.1,0,0,1,93.5,231.742Zm0-7.324a3.231,3.231,0,1,0,3.231,3.231A3.235,3.235,0,0,0,93.5,224.418Z" transform="translate(-89.411 -223.556)" fill="#fff"/>
                    </g>
                  </g>
                  <g id="Grupo_1228185" data-name="Grupo 1228185" transform="translate(214.575 71.88)">
                    <g id="Grupo_1228184" data-name="Grupo 1228184">
                      <path id="Trazado_1178970" data-name="Trazado 1178970" d="M448.881,238.531a1.995,1.995,0,1,1-1.995-1.995A1.995,1.995,0,0,1,448.881,238.531Z" transform="translate(-444.892 -236.536)" fill="#fff"/>
                    </g>
                  </g>
                  <g id="Grupo_1228187" data-name="Grupo 1228187" transform="translate(8.735 169.523)">
                    <g id="Grupo_1228186" data-name="Grupo 1228186" transform="translate(0 0)">
                      <path id="Trazado_1178971" data-name="Trazado 1178971" d="M58.49,423.718a1.995,1.995,0,1,1-1.995-1.995A1.995,1.995,0,0,1,58.49,423.718Z" transform="translate(-54.501 -421.723)" fill="#fff"/>
                    </g>
                  </g>
                  <g id="Grupo_1228189" data-name="Grupo 1228189" transform="translate(221.634 167.528)">
                    <g id="Grupo_1228188" data-name="Grupo 1228188" transform="translate(0 0)">
                      <path id="Trazado_1178972" data-name="Trazado 1178972" d="M462.269,419.935a1.995,1.995,0,1,1-1.995-1.995A1.995,1.995,0,0,1,462.269,419.935Z" transform="translate(-458.28 -417.94)" fill="#fff"/>
                    </g>
                  </g>
                  <g id="Grupo_1228191" data-name="Grupo 1228191" transform="translate(219.64 27.59)">
                    <g id="Grupo_1228190" data-name="Grupo 1228190">
                      <path id="Trazado_1178973" data-name="Trazado 1178973" d="M458.487,154.531a1.995,1.995,0,1,1-1.995-1.995A1.995,1.995,0,0,1,458.487,154.531Z" transform="translate(-454.498 -152.536)" fill="#fff"/>
                    </g>
                  </g>
                  <g id="Grupo_1228193" data-name="Grupo 1228193" transform="translate(17.439 23.601)">
                    <g id="Grupo_1228192" data-name="Grupo 1228192">
                      <circle id="Elipse_12787" data-name="Elipse 12787" cx="1.995" cy="1.995" r="1.995" fill="#fff"/>
                    </g>
                  </g>
                  <g id="Grupo_1228195" data-name="Grupo 1228195" transform="translate(0 69.886)">
                    <g id="Grupo_1228194" data-name="Grupo 1228194">
                      <path id="Trazado_1178974" data-name="Trazado 1178974" d="M41.924,234.749a1.995,1.995,0,1,1-1.995-1.995A1.995,1.995,0,0,1,41.924,234.749Z" transform="translate(-37.935 -232.754)" fill="#fff"/>
                    </g>
                  </g>
                </g>
              </g>
            </g>
          </g>
        </g>
      </g>
    </g>
    <path id="Trazado_1178975" data-name="Trazado 1178975" d="M-3055.275,475H-2888.2" transform="translate(3247.654)" fill="none" stroke="#605f84" stroke-linecap="round" stroke-width="3"/>
  </g>
</svg>
