<svg xmlns="http://www.w3.org/2000/svg" xmlns:xlink="http://www.w3.org/1999/xlink" width="108" height="108" viewBox="0 0 108 108">
  <defs>
    <filter id="Trazado_982547" x="0" y="0" width="108" height="108" filterUnits="userSpaceOnUse">
      <feOffset dy="3" input="SourceAlpha"/>
      <feGaussianBlur stdDeviation="3" result="blur"/>
      <feFlood flood-opacity="0.161"/>
      <feComposite operator="in" in2="blur"/>
      <feComposite in="SourceGraphic"/>
    </filter>
  </defs>
  <g id="Grupo_1228205" data-name="Grupo 1228205" transform="translate(-197 -537)">
    <g id="Grupo_1227848" data-name="Grupo 1227848" transform="translate(-0.01 -3935)">
      <g id="Grupo_1203964" data-name="Grupo 1203964" transform="translate(7 2516.532)">
        <g id="Grupo_1203625" data-name="Grupo 1203625" transform="translate(-14.49 905.468)">
          <g id="Grupo_1178314" data-name="Grupo 1178314" transform="translate(213.5 1056)">
            <g id="Grupo_1173988" data-name="Grupo 1173988">
              <g id="Grupo_1172010" data-name="Grupo 1172010">
                <g id="Grupo_1171046" data-name="Grupo 1171046">
                  <g id="Grupo_1148525" data-name="Grupo 1148525">
                    <g transform="matrix(1, 0, 0, 1, -9, -6)" filter="url(#Trazado_982547)">
                      <g id="Trazado_982547-2" data-name="Trazado 982547" transform="translate(9 6)" fill="#f4fbfc">
                        <path d="M 45 88.5 C 39.12687683105469 88.5 33.43022537231445 87.35007476806641 28.06830024719238 85.08217620849609 C 22.88852500915527 82.89131164550781 18.23629951477051 79.75458526611328 14.2408504486084 75.75914764404297 C 10.24541282653809 71.76370239257812 7.108687400817871 67.11147308349609 4.917825222015381 61.93170166015625 C 2.649924993515015 56.56977462768555 1.5 50.87312316894531 1.5 45 C 1.5 39.12687683105469 2.649924993515015 33.43022537231445 4.917825222015381 28.06830024719238 C 7.108687400817871 22.88852500915527 10.24541282653809 18.23629951477051 14.2408504486084 14.2408504486084 C 18.23629951477051 10.24541282653809 22.88852500915527 7.108687400817871 28.06830024719238 4.917825222015381 C 33.43022537231445 2.649924993515015 39.12687683105469 1.5 45 1.5 C 50.87312316894531 1.5 56.56977462768555 2.649924993515015 61.93170166015625 4.917825222015381 C 67.11147308349609 7.108687400817871 71.76370239257812 10.24541282653809 75.75914764404297 14.2408504486084 C 79.75458526611328 18.23629951477051 82.89131164550781 22.88852500915527 85.08217620849609 28.06830024719238 C 87.35007476806641 33.43022537231445 88.5 39.12687683105469 88.5 45 C 88.5 50.87312316894531 87.35007476806641 56.56977462768555 85.08217620849609 61.93170166015625 C 82.89131164550781 67.11147308349609 79.75458526611328 71.76370239257812 75.75914764404297 75.75914764404297 C 71.76370239257812 79.75458526611328 67.11147308349609 82.89131164550781 61.93170166015625 85.08217620849609 C 56.56977462768555 87.35007476806641 50.87312316894531 88.5 45 88.5 Z" stroke="none"/>
                        <path d="M 45 3 C 39.32871246337891 3 33.82865524291992 4.110054016113281 28.65262985229492 6.299339294433594 C 23.65165710449219 8.414573669433594 19.15968322753906 11.44334411621094 15.301513671875 15.301513671875 C 11.44334411621094 19.15968322753906 8.414573669433594 23.65165710449219 6.299339294433594 28.65262985229492 C 4.110054016113281 33.82865524291992 3 39.32871246337891 3 45 C 3 50.67128753662109 4.110054016113281 56.17134475708008 6.299339294433594 61.34737396240234 C 8.414573669433594 66.34834289550781 11.44334411621094 70.84031677246094 15.301513671875 74.698486328125 C 19.15968322753906 78.55665588378906 23.65165710449219 81.58542633056641 28.65262985229492 83.70066070556641 C 33.82865524291992 85.88994598388672 39.32871246337891 87 45 87 C 50.67128753662109 87 56.17134475708008 85.88994598388672 61.34737396240234 83.70066070556641 C 66.34834289550781 81.58542633056641 70.84031677246094 78.55665588378906 74.698486328125 74.698486328125 C 78.55665588378906 70.84031677246094 81.58542633056641 66.34834289550781 83.70066070556641 61.34737396240234 C 85.88994598388672 56.17134475708008 87 50.67128753662109 87 45 C 87 39.32871246337891 85.88994598388672 33.82865524291992 83.70066070556641 28.65262985229492 C 81.58542633056641 23.65165710449219 78.55665588378906 19.15968322753906 74.698486328125 15.301513671875 C 70.84031677246094 11.44334411621094 66.34834289550781 8.414573669433594 61.34737396240234 6.299339294433594 C 56.17134475708008 4.110054016113281 50.67128753662109 3 45 3 M 45 0 C 69.85281372070312 0 90 20.14718627929688 90 45 C 90 69.85281372070312 69.85281372070312 90 45 90 C 20.14718627929688 90 0 69.85281372070312 0 45 C 0 20.14718627929688 20.14718627929688 0 45 0 Z" stroke="none" fill="#52797f"/>
                      </g>
                    </g>
                  </g>
                </g>
              </g>
            </g>
          </g>
        </g>
      </g>
    </g>
    <g id="triangulo" transform="translate(212.663 558.849)">
      <g id="Grupo_1228203" data-name="Grupo 1228203" transform="translate(9.347 -1.322)">
        <path id="Trazado_1178976" data-name="Trazado 1178976" d="M268.614,97.2l-5.282-3.049L274.078,75.54a3.049,3.049,0,1,1,5.282,3.049Z" transform="translate(-234.686 -65.298)" fill="#ffcbbe"/>
        <path id="Trazado_1178977" data-name="Trazado 1178977" d="M163.8,265.684a3.049,3.049,0,0,1-2.164-3.73l5.516-20.772,5.894,1.565-5.516,20.772A3.049,3.049,0,0,1,163.8,265.684Z" transform="translate(-144.667 -213.122)" fill="#ffbbae"/>
        <path id="Trazado_1178978" data-name="Trazado 1178978" d="M317.819,280.886l-3.161,2.074-1.675-.788-1.959-.922-.772-.363-1.537-3.638-1.942-4.594a1.317,1.317,0,0,0-2.079-.484,14.733,14.733,0,0,1-3.135,2.133q-.066.035-.132.066s-6.586-.974-6.453-5.95l3.7-3.6,1.712-1.664,5.73-5.568a4.289,4.289,0,0,1,3.507,3.4C310,262.6,309.653,261.56,317.819,280.886Z" transform="translate(-262.665 -227.631)" fill="#c2eafb"/>
        <path id="Trazado_1178979" data-name="Trazado 1178979" d="M250.666,357.064q-.066.035-.132.066a11.516,11.516,0,0,1-1.483.6,1.306,1.306,0,0,0-.736.612l-2.932,5.3-4.869,2.945-3.094-2.946,4.647-8.4a5.963,5.963,0,0,1-.329-1.784l2.343-2.277a20.7,20.7,0,0,0,6.585,5.884Z" transform="translate(-211.772 -310.392)" fill="#91d4f2"/>
        <path id="Trazado_1178980" data-name="Trazado 1178980" d="M268.652,208.784l-7.987,7.987-.388.388c-.086.086-.175.169-.265.246,0,0-10.125-3.526-7.353-16.49l.735-.863.714-.84,2.5-2.942,11.227,6.416A3.871,3.871,0,0,1,268.652,208.784Z" transform="translate(-224.823 -173.407)" fill="#97aabb"/>
        <path id="Trazado_1178981" data-name="Trazado 1178981" d="M218.337,252.91a4.868,4.868,0,0,1-6.62-.246L205.05,243.4l2.879-3.387,2.969-3.493.086-.1C211.281,240.937,212.733,247.857,218.337,252.91Z" transform="translate(-183.148 -208.911)" fill="#7a8fa5"/>
        <path id="Trazado_1178982" data-name="Trazado 1178982" d="M432.9,463.877a3.486,3.486,0,0,1-4.567-1.854l-1.312-3.106h7.568l.165.392A3.486,3.486,0,0,1,432.9,463.877Z" transform="translate(-379.436 -405.664)" fill="#ffddcf"/>
        <path id="Trazado_1178983" data-name="Trazado 1178983" d="M241.521,458.909l-1.942,3.514a3.487,3.487,0,1,1-6.021-3.515h7.963Z" transform="translate(-207.909 -405.655)" fill="#ffcbbe"/>
        <path id="Trazado_1178984" data-name="Trazado 1178984" d="M255.534,236.078a4.325,4.325,0,0,1-2.783,1.266s-3.674-1.049-1.682-7.7l.086-.1.735-.863a4.448,4.448,0,0,1,.668-.036,4.357,4.357,0,0,1,2.977,7.436Z" transform="translate(-223.318 -202.033)" fill="#ffcbbe"/>
        <path id="Trazado_1178985" data-name="Trazado 1178985" d="M234.582,244.222a4.357,4.357,0,0,1-4.652-4.208l2.969-3.493.086-.1A28.413,28.413,0,0,0,234.582,244.222Z" transform="translate(-205.149 -208.911)" fill="#ffbbae"/>
        <ellipse id="Elipse_12788" data-name="Elipse 12788" cx="6.97" cy="5.411" rx="6.97" ry="5.411" transform="translate(6.94 2.161) rotate(-8.916)" fill="#d97c41"/>
        <circle id="Elipse_12789" data-name="Elipse 12789" cx="4.245" cy="4.245" r="4.245" transform="translate(24.168 9.682) rotate(-6.663)" fill="#ffcbbe"/>
        <circle id="Elipse_12790" data-name="Elipse 12790" cx="4.245" cy="4.245" r="4.245" transform="translate(1.004 31.044) rotate(-45)" fill="#ffddcf"/>
        <path id="Trazado_1178986" data-name="Trazado 1178986" d="M91.624,91.07a15.228,15.228,0,0,1-3.224,2h0S58.672,97.735,77.02,66.639A14.436,14.436,0,0,1,94.141,70.6,13.914,13.914,0,0,1,96.7,75.538,14.819,14.819,0,0,1,91.624,91.07Z" transform="translate(-64.644 -57.646)" fill="#ffddcf"/>
        <path id="Trazado_1178987" data-name="Trazado 1178987" d="M65.013,102.827a14.7,14.7,0,0,1-13.031-.323,13.909,13.909,0,0,1-4.284-3.55,14.588,14.588,0,0,1,2.517-20.47A15.182,15.182,0,0,1,53.634,76.4C50.383,82.762,41.844,103.033,65.013,102.827Z" transform="translate(-41.257 -67.405)" fill="#ffcbbe"/>
        <path id="Trazado_1178988" data-name="Trazado 1178988" d="M79.055,40.563a18.906,18.906,0,0,1-9.076,1.362,2.368,2.368,0,0,0-2.366,1.623,28.165,28.165,0,0,1-2.656,5.7c-12.31-.189-4.451-12.414-4.451-12.414a5.5,5.5,0,0,1,3.513-.368l.025.006a4.9,4.9,0,0,0,4.275-1.031,4.322,4.322,0,0,1,3.721-.882,12.252,12.252,0,0,1,6.744,3.923C79.345,39.173,79.864,40.185,79.055,40.563Z" transform="translate(-53.143 -30.306)" fill="#e4996d"/>
        <path id="Trazado_1178989" data-name="Trazado 1178989" d="M27.577,67.482a43.691,43.691,0,0,1-6.749,8.66c-.877.836-1.775.044-2.481-.83-4.687-5.812-2.7-14.606,3.56-19.5a5.928,5.928,0,0,1,1.218-.742C22.762,58.757,23.073,64.421,27.577,67.482Z" transform="translate(-15.763 -48.543)" fill="#d97c41"/>
        <g id="Grupo_1228202" data-name="Grupo 1228202" transform="translate(8.692 12.981)">
          <ellipse id="Elipse_12791" data-name="Elipse 12791" cx="3.346" cy="2.665" rx="3.346" ry="2.665" transform="translate(0 17.554) rotate(-45)" fill="#ffa1ac"/>
          <ellipse id="Elipse_12792" data-name="Elipse 12792" cx="3.346" cy="2.665" rx="3.346" ry="2.665" transform="translate(12.825 4.732) rotate(-45)" fill="#ffa1ac"/>
        </g>
      </g>
      <g id="Grupo_1228204" data-name="Grupo 1228204" transform="translate(8.507 -1.169)">
        <path id="Trazado_1178990" data-name="Trazado 1178990" d="M65.39,53.1,61.933,44.92a.866.866,0,0,0-1.6.674l2.784,6.587H57.447L54.2,44.494a2.181,2.181,0,0,0-3.446-.8,12.842,12.842,0,0,1-4.436,2.62,2.161,2.161,0,0,0-1.226,1.016l-2.679,4.847h-5.97L40.024,45.7a5.71,5.71,0,0,0,5.351-1.528l8.36-8.36a4.689,4.689,0,0,0,1.384-3.262c.37.786.341,1.5.968,2.987l2.778,6.573a.866.866,0,0,0,1.6-.674l-2.777-6.573a11.686,11.686,0,0,1-.592-1.879,5.129,5.129,0,0,0-3.3-3.8c-.625-.645-.621-.57-5.986-3.635l6.9-11.958C57.305,9.11,50.527,5.2,47.943,9.679l-5.392,9.338a14.814,14.814,0,0,0-.593-2.291A5.1,5.1,0,0,0,36.37,8.509a11.258,11.258,0,0,0-4.8-4.126C30.634,1.356,26.995-.5,23.037.118c-3.446.539-6.122,2.769-6.705,5.513-1.841.84-4.723,3.588-6.348,7.054a.866.866,0,0,0,1.569.735,15.641,15.641,0,0,1,4.487-5.6,4.772,4.772,0,0,1,4.013-.94,5.746,5.746,0,0,0,5.018-1.2,3.447,3.447,0,0,1,2.965-.706,11.052,11.052,0,0,1,6.654,4.142,16.851,16.851,0,0,1-8.46,1.507,3.22,3.22,0,0,0-3.238,2.213c-2.155,6.5-6.791,11.376-9.725,13.957a11.138,11.138,0,0,1-2.8-10.045.866.866,0,0,0-1.7-.323,12.84,12.84,0,0,0,3.339,11.654,5.1,5.1,0,0,0,6.846,7.2,15.241,15.241,0,0,0,9.442,2.13l-2.921,11c-1.329,5,6.229,7.009,7.558,2.008l2.352-8.856c1.882,2.615,1.817,2.536,1.894,2.612a5.757,5.757,0,0,0,1.127.878L34.137,52.77c-2.782,5.032,4.822,9.235,7.606,4.2l4.865-8.8a.44.44,0,0,1,.243-.206A14.582,14.582,0,0,0,51.9,45a.448.448,0,0,1,.705.17l4.782,11.317C59.625,61.78,67.63,58.4,65.39,53.1ZM23.969,4.342a4.021,4.021,0,0,1-3.527.852,6.143,6.143,0,0,0-2.09-.122c1.757-3.548,7.892-4.538,10.684-1.63q-.3-.082-.6-.155a5.19,5.19,0,0,0-4.466,1.055Zm25.475,6.2a2.177,2.177,0,0,1,3.771,2.178L46.307,24.687l-3.551-2.029q.019-.288.026-.577ZM41.149,28.592A3.484,3.484,0,0,1,36.878,33.9,16.1,16.1,0,0,0,41.149,28.592Zm.024-13.717a14.856,14.856,0,0,0-3.92-4.837A3.374,3.374,0,0,1,41.173,14.875ZM13.414,29.264a14.839,14.839,0,0,0,3.887,4.85A3.367,3.367,0,0,1,13.414,29.264Zm13.45,6.49a13.229,13.229,0,0,1-12.2-7.89c3.085-2.762,7.75-7.791,9.967-14.484a1.5,1.5,0,0,1,1.487-1.029A18.652,18.652,0,0,0,35.3,10.745a13.083,13.083,0,0,1,5.243,7.241c2.54,8.9-4.532,17.768-13.675,17.768Zm4.493,14.219a2.178,2.178,0,0,1-4.209-1.118L30.266,37.11a15.813,15.813,0,0,0,1.592-.444l2.215,3.078ZM33.517,36a16.116,16.116,0,0,0,1.844-1.01c5.335,3.933,11.512-3.761,6.522-8.123a15.545,15.545,0,0,0,.637-2.351l9.359,5.348a3,3,0,0,1,.631,4.722l-8.36,8.36a3.992,3.992,0,0,1-5.6.047Zm6.71,20.132a2.612,2.612,0,0,1-4.715-2.222h5.943Zm18.755-.325-.8-1.9h5.665A2.612,2.612,0,0,1,58.981,55.81Z" transform="translate(-8.507 0)"/>
        <path id="Trazado_1178991" data-name="Trazado 1178991" d="M97.5,210.709a.89.89,0,0,1-.631-.262,2.531,2.531,0,1,1,3.58-3.58.893.893,0,0,1-1.263,1.262.746.746,0,0,0-1.055,1.055.893.893,0,0,1-.631,1.524Z" transform="translate(-85.988 -182.275)"/>
        <path id="Trazado_1178992" data-name="Trazado 1178992" d="M186.994,121.2a.89.89,0,0,1-.631-.262,2.531,2.531,0,1,1,3.58-3.58.893.893,0,0,1-1.263,1.262.746.746,0,0,0-1.055,1.055.893.893,0,0,1-.631,1.524Z" transform="translate(-165.127 -103.125)"/>
        <path id="Trazado_1178993" data-name="Trazado 1178993" d="M156.942,180.851a.893.893,0,1,1,.122-1.781,1.411,1.411,0,0,0,1.506-1.506.893.893,0,0,1,.83-.952C161.329,176.481,160.328,181.082,156.942,180.851Z" transform="translate(-139.031 -156.174)"/>
      </g>
    </g>
  </g>
</svg>
