<svg xmlns="http://www.w3.org/2000/svg" xmlns:xlink="http://www.w3.org/1999/xlink" width="113" height="113" viewBox="0 0 113 113">
  <defs>
    <filter id="Trazado_982547" x="0" y="0" width="113" height="113" filterUnits="userSpaceOnUse">
      <feOffset dy="3" input="SourceAlpha"/>
      <feGaussianBlur stdDeviation="3" result="blur"/>
      <feFlood flood-opacity="0.161"/>
      <feComposite operator="in" in2="blur"/>
      <feComposite in="SourceGraphic"/>
    </filter>
  </defs>
  <g id="Grupo_1230368" data-name="Grupo 1230368" transform="translate(-324.25 -714.227)">
    <g id="Grupo_1230116" data-name="Grupo 1230116" transform="translate(0 -13968.816)">
      <g id="Grupo_1224255" data-name="Grupo 1224255" transform="translate(0.25 13230)">
        <g id="Grupo_1223775" data-name="Grupo 1223775" transform="translate(0 -4451.031)">
          <g id="Grupo_1206275" data-name="Grupo 1206275" transform="translate(0 -3448.335)">
            <g id="Grupo_1203802" data-name="Grupo 1203802" transform="translate(0.5 6552.41)">
              <g id="Grupo_1202424" data-name="Grupo 1202424" transform="translate(0 1464)">
                <g id="Grupo_1178325" data-name="Grupo 1178325" transform="translate(0 424)">
                  <g id="Grupo_1177679" data-name="Grupo 1177679" transform="translate(332.5 918)">
                    <g id="Grupo_1172010" data-name="Grupo 1172010">
                      <g id="Grupo_1171046" data-name="Grupo 1171046">
                        <g id="Grupo_1148525" data-name="Grupo 1148525">
                          <g transform="matrix(1, 0, 0, 1, -9, -6)" filter="url(#Trazado_982547)">
                            <g id="Trazado_982547-2" data-name="Trazado 982547" transform="translate(9 6)" fill="#ffe6ef">
                              <path d="M 47.5 93.5 C 41.28937149047852 93.5 35.26533508300781 92.28397369384766 29.59518623352051 89.88570404052734 C 24.11771965026855 87.56893157958984 19.19813346862793 84.25196075439453 14.97309303283691 80.02691650390625 C 10.74804019927979 75.80186462402344 7.431066513061523 70.88229370117188 5.114293098449707 65.40481567382812 C 2.716026782989502 59.73468017578125 1.5 53.71062850952148 1.5 47.5 C 1.5 41.28937149047852 2.716026782989502 35.26533508300781 5.114293098449707 29.59518623352051 C 7.431066513061523 24.11771965026855 10.74804019927979 19.19813346862793 14.97309303283691 14.97309303283691 C 19.19813346862793 10.74804019927979 24.11771965026855 7.431066513061523 29.59518623352051 5.114293098449707 C 35.26533508300781 2.716026782989502 41.28937149047852 1.5 47.5 1.5 C 53.71062850952148 1.5 59.73468017578125 2.716026782989502 65.40481567382812 5.114293098449707 C 70.88229370117188 7.431066513061523 75.80186462402344 10.74804019927979 80.02691650390625 14.97309303283691 C 84.25196075439453 19.19813346862793 87.56893157958984 24.11771965026855 89.88570404052734 29.59518623352051 C 92.28397369384766 35.26533508300781 93.5 41.28937149047852 93.5 47.5 C 93.5 53.71062850952148 92.28397369384766 59.73468017578125 89.88570404052734 65.40481567382812 C 87.56893157958984 70.88229370117188 84.25196075439453 75.80186462402344 80.02691650390625 80.02691650390625 C 75.80186462402344 84.25196075439453 70.88229370117188 87.56893157958984 65.40481567382812 89.88570404052734 C 59.73468017578125 92.28397369384766 53.71062850952148 93.5 47.5 93.5 Z" stroke="none"/>
                              <path d="M 47.5 3 C 41.49121475219727 3 35.66376876831055 4.176155090332031 30.17950439453125 6.495796203613281 C 24.88084411621094 8.736953735351562 20.12152099609375 11.94598388671875 16.03375244140625 16.03375244140625 C 11.94598388671875 20.12152099609375 8.736953735351562 24.88084411621094 6.495796203613281 30.17950439453125 C 4.176155090332031 35.66376876831055 3 41.49121475219727 3 47.5 C 3 53.50878524780273 4.176155090332031 59.33623123168945 6.495796203613281 64.82049560546875 C 8.736953735351562 70.11915588378906 11.94598388671875 74.87847900390625 16.03375244140625 78.96624755859375 C 20.12152099609375 83.05401611328125 24.88084411621094 86.26304626464844 30.17950439453125 88.50419616699219 C 35.66376876831055 90.82384490966797 41.49121475219727 92 47.5 92 C 53.50878524780273 92 59.33623123168945 90.82384490966797 64.82049560546875 88.50419616699219 C 70.11915588378906 86.26304626464844 74.87847900390625 83.05401611328125 78.96624755859375 78.96624755859375 C 83.05401611328125 74.87847900390625 86.26304626464844 70.11915588378906 88.50419616699219 64.82049560546875 C 90.82384490966797 59.33623123168945 92 53.50878524780273 92 47.5 C 92 41.49121475219727 90.82384490966797 35.66376876831055 88.50419616699219 30.17950439453125 C 86.26304626464844 24.88084411621094 83.05401611328125 20.12152099609375 78.96624755859375 16.03375244140625 C 74.87847900390625 11.94598388671875 70.11915588378906 8.736953735351562 64.82049560546875 6.495796203613281 C 59.33623123168945 4.176155090332031 53.50878524780273 3 47.5 3 M 47.5 0 C 73.7335205078125 0 95 21.2664794921875 95 47.5 C 95 73.7335205078125 73.7335205078125 95 47.5 95 C 21.2664794921875 95 0 73.7335205078125 0 47.5 C 0 21.2664794921875 21.2664794921875 0 47.5 0 Z" stroke="none" fill="#8b5e6f"/>
                            </g>
                          </g>
                        </g>
                      </g>
                    </g>
                  </g>
                </g>
              </g>
            </g>
          </g>
        </g>
      </g>
    </g>
    <g id="lluvia-de-ideas_1_" data-name="lluvia-de-ideas (1)" transform="translate(348.513 733.633)">
      <path id="Trazado_1181631" data-name="Trazado 1181631" d="M215.121,137.024v2.861a1.028,1.028,0,0,0,1.028,1.028h2.314a1.028,1.028,0,0,0,1.028-1.028v-2.861A1.028,1.028,0,0,0,218.463,136h-2.314A1.028,1.028,0,0,0,215.121,137.024Zm0,0" transform="translate(-184.526 -116.654)" fill="#86919e"/>
      <path id="Trazado_1181632" data-name="Trazado 1181632" d="M28.535,102.176,17.315,83.569a2.677,2.677,0,0,0-3.679-.908L8.76,85.61a2.686,2.686,0,0,0-.909,3.685l11.529,19.119Zm0,0" transform="translate(-6.403 -70.572)" fill="#84eaf5"/>
      <path id="Trazado_1181633" data-name="Trazado 1181633" d="M188.469,15.823a8.351,8.351,0,1,0-11.691,7.654v1.984a1.83,1.83,0,0,0,1.83,1.83h3.021a1.83,1.83,0,0,0,1.83-1.83V23.477a8.352,8.352,0,0,0,5.011-7.654Zm0,0" transform="translate(-147.338 -6.409)" fill="#feda5f"/>
      <path id="Trazado_1181634" data-name="Trazado 1181634" d="M341.123,101.654l5.207-8.633-.072-10.747-9.541,4.957-5.14,8.522Zm0,0" transform="translate(-284.419 -70.572)" fill="#fce49d"/>
      <path id="Trazado_1181635" data-name="Trazado 1181635" d="M312.567,121.353v0l-4-4.226-9.808,16.291,3.615,4.891,5.741,1.347,10.065-16.739Zm0,0" transform="translate(-256.264 -100.47)" fill="#f4c84e"/>
      <path id="Trazado_1181636" data-name="Trazado 1181636" d="M340.6,165.133l10.065-16.739-5.607-1.566-8.426,13.91Zm0,0" transform="translate(-288.752 -125.945)" fill="#feda5f"/>
      <path id="Trazado_1181637" data-name="Trazado 1181637" d="M414.247,82.273l-3.407,1.771,3.433,2.113Zm0,0" transform="translate(-352.409 -70.572)" fill="#86919e"/>
      <path id="Trazado_1181638" data-name="Trazado 1181638" d="M72.592,224.306H86.446a8.186,8.186,0,0,0,.567-16.352A8.186,8.186,0,0,0,75.051,199a8.188,8.188,0,0,0-15.127,0,8.185,8.185,0,0,0-11.957,8.972,8.187,8.187,0,0,0,.849,16.33Zm0,0" transform="translate(-34.851 -166.368)" fill="#f0a8d0"/>
      <path id="Trazado_1181639" data-name="Trazado 1181639" d="M299.781,232.206a8.186,8.186,0,0,0-11.105-9.363,8.184,8.184,0,0,1,4.868,9.363,8.186,8.186,0,0,1-.567,16.352h6.237a8.186,8.186,0,0,0,.567-16.352Zm0,0" transform="translate(-247.619 -190.62)" fill="#ea89bf"/>
      <path id="Trazado_1181640" data-name="Trazado 1181640" d="M178.771,293.324l7.743.1-4.277,11.053,7.075.186-15.076,18.716,5.245-13.834-6.536-.082Zm0,0" transform="translate(-148.348 -251.606)" fill="#feda5f"/>
      <path id="Trazado_1181641" data-name="Trazado 1181641" d="M296.827,110.5l2.268,1.418a1.064,1.064,0,0,0,1.127-1.8l-2.268-1.417A1.064,1.064,0,0,0,296.827,110.5Zm0,0" transform="translate(-254.192 -93.093)"/>
      <path id="Trazado_1181642" data-name="Trazado 1181642" d="M299.435,4.44A1.06,1.06,0,0,0,300,4.278l2.268-1.418a1.064,1.064,0,0,0-1.127-1.8l-2.268,1.418a1.072,1.072,0,0,0,.564,1.965Zm0,0" transform="translate(-255.952 -0.761)"/>
      <path id="Trazado_1181643" data-name="Trazado 1181643" d="M310.219,60.813a1.063,1.063,0,0,0,1.063,1.063h2.835a1.064,1.064,0,0,0,0-2.126h-2.835A1.062,1.062,0,0,0,310.219,60.813Zm0,0" transform="translate(-266.098 -51.252)"/>
      <path id="Trazado_1181644" data-name="Trazado 1181644" d="M136.645,108.7l-2.268,1.417a1.064,1.064,0,0,0,1.127,1.8l2.268-1.418A1.064,1.064,0,0,0,136.645,108.7Zm0,0" transform="translate(-114.847 -93.095)"/>
      <path id="Trazado_1181645" data-name="Trazado 1181645" d="M132.374,2.859l2.268,1.417a1.064,1.064,0,0,0,1.127-1.8L133.5,1.056a1.064,1.064,0,0,0-1.127,1.8Zm0,0" transform="translate(-113.128 -0.76)"/>
      <path id="Trazado_1181646" data-name="Trazado 1181646" d="M117.135,61.876h2.835a1.064,1.064,0,0,0,0-2.126h-2.835A1.064,1.064,0,0,0,117.135,61.876Zm0,0" transform="translate(-99.594 -51.252)"/>
      <path id="Trazado_1181647" data-name="Trazado 1181647" d="M169.3,17.735v1.318a2.888,2.888,0,0,0,1.156,2.308v2.9a1.063,1.063,0,0,0,1.063,1.063h4.37a1.063,1.063,0,0,0,1.063-1.063v-2.9a2.886,2.886,0,0,0,1.156-2.308V17.735a9.423,9.423,0,0,0,4.955-9.353,1.064,1.064,0,0,0-2.113.232,7.3,7.3,0,0,1-4.33,7.48,1.064,1.064,0,0,0-.637.974v1.984a.768.768,0,0,1-.767.767h-3.021a.768.768,0,0,1-.767-.767V17.068a1.062,1.062,0,0,0-.637-.974,7.288,7.288,0,1,1,7-12.719,1.064,1.064,0,0,0,1.192-1.761,9.414,9.414,0,1,0-9.677,16.12Zm3.282,5.46V21.946h2.243V23.2Zm0,0" transform="translate(-140.922 0)"/>
      <path id="Trazado_1181648" data-name="Trazado 1181648" d="M57.609,95.792l.005-.007,5.207-8.634a1.081,1.081,0,0,0,.153-.556L62.9,75.849a1.073,1.073,0,0,0-1.553-.937L51.807,79.87c-.617.321-.932,1.243-1.262,1.789L42.6,94.836a9.258,9.258,0,0,0-1.906.542,9.253,9.253,0,0,0-16.113,0,9.289,9.289,0,0,0-1.747-.515L11.822,76.6a3.741,3.741,0,0,0-5.14-1.269L1.807,78.282a3.754,3.754,0,0,0-1.27,5.143L11.981,102.4a9.26,9.26,0,0,0-.083,2.485,9.252,9.252,0,0,0,2.068,18.269h3.222a1.064,1.064,0,0,0,0-2.126H13.965a7.124,7.124,0,0,1-.739-14.21,1.073,1.073,0,0,0,.928-1.292,7.12,7.12,0,0,1,6.945-8.7,7.305,7.305,0,0,1,5.844,3.031,1.063,1.063,0,0,0,1.685-1.3A11.32,11.32,0,0,0,26.444,96.4a7.125,7.125,0,0,1,12.774.794,1.073,1.073,0,0,0,1.5.521A7.124,7.124,0,0,1,51.3,103.948a7.01,7.01,0,0,1-.05.827,7.628,7.628,0,0,0-4.234,1.772,1.064,1.064,0,0,0,1.5,1.5,6.009,6.009,0,0,1,3.674-1.206c3.633,0,6.527,3.611,6.527,7.062A7.132,7.132,0,0,1,51.6,121.03H39.25l2.541-3.155a1.079,1.079,0,0,0-.8-1.729L35.425,116l3.733-9.647a1.073,1.073,0,0,0-.978-1.447l-7.743-.1a1.057,1.057,0,0,0-1.013.7l-5.816,16.111a1.08,1.08,0,0,0,.952,1.533h5.033l-4.7,12.391a1.07,1.07,0,0,0,1.822,1.044l10.836-13.453a1.068,1.068,0,0,0,.189.018H51.6a9.249,9.249,0,0,0,1.787-18.325c.055-.571-.208-1.686.069-2.145ZM12.862,99.747l-10.5-17.42A1.624,1.624,0,0,1,2.908,80.1l4.875-2.948A1.613,1.613,0,0,1,10,77.7l1.1,1.83-2,1.208a1.063,1.063,0,0,0,1.1,1.819L12.2,81.352l2.156,3.575-3.2,1.932a1.063,1.063,0,0,0,1.1,1.819l3.192-1.931,2.156,3.575-2,1.207a1.063,1.063,0,1,0,1.1,1.819l1.994-1.206,1.564,2.594a9.263,9.263,0,0,0-7.412,5.01Zm19.265,22.721a1.063,1.063,0,0,0-.981-1.44l-5.042-.063,5.061-14.019,5.456.068L32.9,116.639a1.063,1.063,0,0,0,.964,1.447l4.926.129-9.537,11.84Zm13.007-27.72,2.928-4.855.006-.009,4.417-7.326,2.486,2.622L48.523,95.787a9.19,9.19,0,0,0-3.389-1.039ZM56.869,84.091,54.04,81.106l4.315-2.242,2.451,1.477.032,4.858Zm3.92-6.243-.222-.133.221-.114ZM50.273,97l6.52-10.724,3.485.973-7.719,12.8A9.3,9.3,0,0,0,50.273,97Zm0,0" transform="translate(0 -64.154)"/>
    </g>
  </g>
</svg>
