<svg xmlns="http://www.w3.org/2000/svg" xmlns:xlink="http://www.w3.org/1999/xlink" width="108" height="108" viewBox="0 0 108 108">
  <defs>
    <filter id="Trazado_982547" x="0" y="0" width="108" height="108" filterUnits="userSpaceOnUse">
      <feOffset dy="3" input="SourceAlpha"/>
      <feGaussianBlur stdDeviation="3" result="blur"/>
      <feFlood flood-opacity="0.161"/>
      <feComposite operator="in" in2="blur"/>
      <feComposite in="SourceGraphic"/>
    </filter>
  </defs>
  <g id="Grupo_1228211" data-name="Grupo 1228211" transform="translate(-827.01 -537)">
    <g id="Grupo_1227852" data-name="Grupo 1227852" transform="translate(630 -3935)">
      <g id="Grupo_1203964" data-name="Grupo 1203964" transform="translate(7 2516.532)">
        <g id="Grupo_1203625" data-name="Grupo 1203625" transform="translate(-14.49 905.468)">
          <g id="Grupo_1178314" data-name="Grupo 1178314" transform="translate(213.5 1056)">
            <g id="Grupo_1173988" data-name="Grupo 1173988">
              <g id="Grupo_1172010" data-name="Grupo 1172010">
                <g id="Grupo_1171046" data-name="Grupo 1171046">
                  <g id="Grupo_1148525" data-name="Grupo 1148525">
                    <g transform="matrix(1, 0, 0, 1, -9, -6)" filter="url(#Trazado_982547)">
                      <g id="Trazado_982547-2" data-name="Trazado 982547" transform="translate(9 6)" fill="#f4fbfc">
                        <path d="M 45 88.5 C 39.12687683105469 88.5 33.43022537231445 87.35007476806641 28.06830024719238 85.08217620849609 C 22.88852500915527 82.89131164550781 18.23629951477051 79.75458526611328 14.2408504486084 75.75914764404297 C 10.24541282653809 71.76370239257812 7.108687400817871 67.11147308349609 4.917825222015381 61.93170166015625 C 2.649924993515015 56.56977462768555 1.5 50.87312316894531 1.5 45 C 1.5 39.12687683105469 2.649924993515015 33.43022537231445 4.917825222015381 28.06830024719238 C 7.108687400817871 22.88852500915527 10.24541282653809 18.23629951477051 14.2408504486084 14.2408504486084 C 18.23629951477051 10.24541282653809 22.88852500915527 7.108687400817871 28.06830024719238 4.917825222015381 C 33.43022537231445 2.649924993515015 39.12687683105469 1.5 45 1.5 C 50.87312316894531 1.5 56.56977462768555 2.649924993515015 61.93170166015625 4.917825222015381 C 67.11147308349609 7.108687400817871 71.76370239257812 10.24541282653809 75.75914764404297 14.2408504486084 C 79.75458526611328 18.23629951477051 82.89131164550781 22.88852500915527 85.08217620849609 28.06830024719238 C 87.35007476806641 33.43022537231445 88.5 39.12687683105469 88.5 45 C 88.5 50.87312316894531 87.35007476806641 56.56977462768555 85.08217620849609 61.93170166015625 C 82.89131164550781 67.11147308349609 79.75458526611328 71.76370239257812 75.75914764404297 75.75914764404297 C 71.76370239257812 79.75458526611328 67.11147308349609 82.89131164550781 61.93170166015625 85.08217620849609 C 56.56977462768555 87.35007476806641 50.87312316894531 88.5 45 88.5 Z" stroke="none"/>
                        <path d="M 45 3 C 39.32871246337891 3 33.82865524291992 4.110054016113281 28.65262985229492 6.299339294433594 C 23.65165710449219 8.414573669433594 19.15968322753906 11.44334411621094 15.301513671875 15.301513671875 C 11.44334411621094 19.15968322753906 8.414573669433594 23.65165710449219 6.299339294433594 28.65262985229492 C 4.110054016113281 33.82865524291992 3 39.32871246337891 3 45 C 3 50.67128753662109 4.110054016113281 56.17134475708008 6.299339294433594 61.34737396240234 C 8.414573669433594 66.34834289550781 11.44334411621094 70.84031677246094 15.301513671875 74.698486328125 C 19.15968322753906 78.55665588378906 23.65165710449219 81.58542633056641 28.65262985229492 83.70066070556641 C 33.82865524291992 85.88994598388672 39.32871246337891 87 45 87 C 50.67128753662109 87 56.17134475708008 85.88994598388672 61.34737396240234 83.70066070556641 C 66.34834289550781 81.58542633056641 70.84031677246094 78.55665588378906 74.698486328125 74.698486328125 C 78.55665588378906 70.84031677246094 81.58542633056641 66.34834289550781 83.70066070556641 61.34737396240234 C 85.88994598388672 56.17134475708008 87 50.67128753662109 87 45 C 87 39.32871246337891 85.88994598388672 33.82865524291992 83.70066070556641 28.65262985229492 C 81.58542633056641 23.65165710449219 78.55665588378906 19.15968322753906 74.698486328125 15.301513671875 C 70.84031677246094 11.44334411621094 66.34834289550781 8.414573669433594 61.34737396240234 6.299339294433594 C 56.17134475708008 4.110054016113281 50.67128753662109 3 45 3 M 45 0 C 69.85281372070312 0 90 20.14718627929688 90 45 C 90 69.85281372070312 69.85281372070312 90 45 90 C 20.14718627929688 90 0 69.85281372070312 0 45 C 0 20.14718627929688 20.14718627929688 0 45 0 Z" stroke="none" fill="#52797f"/>
                      </g>
                    </g>
                  </g>
                </g>
              </g>
            </g>
          </g>
        </g>
      </g>
    </g>
    <g id="linguistico" transform="translate(816.671 556.852)">
      <path id="Trazado_1178994" data-name="Trazado 1178994" d="M209.356,373.013l-.03.219a.866.866,0,0,0,.859.982h4.589a.867.867,0,0,0,.851-1.033l-.181-.926a8.718,8.718,0,0,1,2.714-8.217l2.8-2.438-14.908-5.434,2.2,6.2A22.768,22.768,0,0,1,209.356,373.013Z" transform="translate(-147.791 -312.831)" fill="#df73c1"/>
      <path id="Trazado_1178995" data-name="Trazado 1178995" d="M206.052,356.166l2.2,6.2a22.585,22.585,0,0,1,1.168,5.126,6.274,6.274,0,0,0,.979-.636,5.906,5.906,0,0,1,.58-.405,2.028,2.028,0,0,1,2.771.689,5.246,5.246,0,0,0,1.689,1.672,8.471,8.471,0,0,1,2.714-4.775l2.8-2.438Z" transform="translate(-147.791 -312.831)" fill="#dd4fb1"/>
      <path id="Trazado_1178996" data-name="Trazado 1178996" d="M292,360.559a4.731,4.731,0,0,0-4.184,2.3,5.217,5.217,0,1,0,1.316,8.154,3.233,3.233,0,0,1,2.517-.99q.112.005.226.005a4.734,4.734,0,0,0,.125-9.466Z" transform="translate(-212.842 -316.688)" fill="#df73c1"/>
      <path id="Trazado_1178997" data-name="Trazado 1178997" d="M98.4,167.426a4.633,4.633,0,0,0,.4-2.472,5.463,5.463,0,0,0-5.27-4.577,6.364,6.364,0,0,0-1.7.122,1.093,1.093,0,0,1-1.242-.59,5.7,5.7,0,0,0-5.344-3.336,6.276,6.276,0,0,0-1.847.275,1.649,1.649,0,0,1-2-.845,5.95,5.95,0,0,0-10.678,0,1.649,1.649,0,0,1-2,.845,6.276,6.276,0,0,0-1.847-.275,5.7,5.7,0,0,0-5.344,3.336,1.093,1.093,0,0,1-1.242.59,6.364,6.364,0,0,0-1.7-.122,5.463,5.463,0,0,0-5.27,4.577,4.632,4.632,0,0,0,.4,2.472,1.946,1.946,0,0,1-.409,2.229,7.07,7.07,0,0,0-2.157,5.584c.266,3.555,3.812,6.752,7.777,7.011a9.493,9.493,0,0,0,2.05-.087,3.629,3.629,0,0,1,3.764,1.812,6.36,6.36,0,0,0,5.7,3.256,6.718,6.718,0,0,0,3.894-1.214,6.511,6.511,0,0,1,4.782-1.065,7.035,7.035,0,0,0,1.109.087,6.628,6.628,0,0,0,4.5-1.7,6.232,6.232,0,0,1,5.648-1.324,9.375,9.375,0,0,0,2.5.253c4.371-.141,7.926-3.307,8.108-7.224a7.083,7.083,0,0,0-2.169-5.387A1.946,1.946,0,0,1,98.4,167.426Z" transform="translate(-11.717 -134.103)" fill="#e7a2cb"/>
      <g id="Grupo_1228206" data-name="Grupo 1228206" transform="translate(60.286 18.577)">
        <path id="Trazado_1178998" data-name="Trazado 1178998" d="M249.5,169.655a1.946,1.946,0,0,1-.409-2.229,4.632,4.632,0,0,0,.4-2.472,5.463,5.463,0,0,0-5.27-4.577,6.364,6.364,0,0,0-1.7.122,1.093,1.093,0,0,1-1.242-.59,5.7,5.7,0,0,0-5.344-3.336,6.276,6.276,0,0,0-1.847.275,1.649,1.649,0,0,1-2-.845,5.706,5.706,0,0,0-5.339-3.323A6.018,6.018,0,0,0,222.7,154.2c.066,0,.132,0,.2,0a5.707,5.707,0,0,1,5.339,3.323,1.649,1.649,0,0,0,2,.845,6.278,6.278,0,0,1,1.847-.275,5.7,5.7,0,0,1,5.344,3.336,1.093,1.093,0,0,0,1.242.59,6.364,6.364,0,0,1,1.7-.122,5.463,5.463,0,0,1,5.27,4.577,4.632,4.632,0,0,1-.4,2.472,1.946,1.946,0,0,0,.409,2.229,7.082,7.082,0,0,1,2.169,5.387,7.332,7.332,0,0,1-3.23,5.617c3.889-.559,6.915-3.527,7.083-7.132a7.082,7.082,0,0,0-2.169-5.388Z" transform="translate(-222.696 -152.68)" fill="#e490d0"/>
      </g>
      <g id="Grupo_1228209" data-name="Grupo 1228209" transform="translate(38.7 0.913)">
        <path id="Trazado_1178999" data-name="Trazado 1178999" d="M65.592,7.5H46.321a1.034,1.034,0,0,0-1.034,1.034V21.073a1.034,1.034,0,0,0,1.034,1.034h10.8a1.034,1.034,0,0,1,.958.646L58.7,24.3a1.034,1.034,0,0,0,1.916,0l.627-1.549a1.034,1.034,0,0,1,.958-.646h3.387a1.034,1.034,0,0,0,1.034-1.034V8.534A1.034,1.034,0,0,0,65.592,7.5Z" transform="translate(-45.287 -7.5)" fill="#bed8fb"/>
        <g id="Grupo_1228207" data-name="Grupo 1228207" transform="translate(17.572)">
          <path id="Trazado_1179000" data-name="Trazado 1179000" d="M192.441,7.5h-2.733a1.034,1.034,0,0,1,1.034,1.034V21.073a1.034,1.034,0,0,1-1.034,1.034h2.733a1.034,1.034,0,0,0,1.034-1.034V8.534A1.034,1.034,0,0,0,192.441,7.5Z" transform="translate(-189.708 -7.5)" fill="#9dc6fb"/>
        </g>
        <path id="Trazado_1179001" data-name="Trazado 1179001" d="M292.37,7.5h19.271a1.034,1.034,0,0,1,1.034,1.034V21.073a1.034,1.034,0,0,1-1.034,1.034h-10.8a1.034,1.034,0,0,0-.958.646l-.628,1.549a1.034,1.034,0,0,1-1.916,0l-.627-1.549a1.034,1.034,0,0,0-.958-.646H292.37a1.034,1.034,0,0,1-1.034-1.034V8.534A1.034,1.034,0,0,1,292.37,7.5Z" transform="translate(-261.399 -7.5)" fill="#df73c1"/>
        <g id="Grupo_1228208" data-name="Grupo 1228208" transform="translate(47.319)">
          <path id="Trazado_1179002" data-name="Trazado 1179002" d="M437.112,7.5h-2.923a1.034,1.034,0,0,1,1.034,1.034V21.073a1.034,1.034,0,0,1-1.034,1.034h2.923a1.034,1.034,0,0,0,1.034-1.034V8.534A1.034,1.034,0,0,0,437.112,7.5Z" transform="translate(-434.189 -7.5)" fill="#dd4fb1"/>
        </g>
      </g>
      <g id="Grupo_1228210" data-name="Grupo 1228210" transform="translate(37.788)">
        <path id="Trazado_1179003" data-name="Trazado 1179003" d="M92.86,162.418a1.036,1.036,0,0,1-.223-1.2,5.578,5.578,0,0,0,.484-2.955A6.409,6.409,0,0,0,87,152.877a7.3,7.3,0,0,0-1.945.14.245.245,0,0,1-.211-.045,6.65,6.65,0,0,0-6.188-3.9,7.189,7.189,0,0,0-2.115.315.748.748,0,0,1-.893-.323,6.86,6.86,0,0,0-12.363,0,.747.747,0,0,1-.893.323,7.19,7.19,0,0,0-2.115-.315,6.648,6.648,0,0,0-6.186,3.9.236.236,0,0,1-.213.048,7.264,7.264,0,0,0-1.74-.149.913.913,0,1,0,.062,1.824,5.432,5.432,0,0,1,1.3.111,2.015,2.015,0,0,0,2.274-1.135,4.811,4.811,0,0,1,4.5-2.772,5.36,5.36,0,0,1,1.579.235,2.552,2.552,0,0,0,3.114-1.367,5.042,5.042,0,0,1,8.993,0,2.552,2.552,0,0,0,3.115,1.367,5.361,5.361,0,0,1,1.579-.235,4.812,4.812,0,0,1,4.5,2.771,1.99,1.99,0,0,0,2.274,1.135,5.444,5.444,0,0,1,1.458-.1,4.572,4.572,0,0,1,4.419,3.766,3.7,3.7,0,0,1-.326,1.988l-.013.027a4.528,4.528,0,0,0-5.32,1.439,4.383,4.383,0,0,1-3.554,1.234l-.037,0a9.986,9.986,0,0,1-2.836-.581.913.913,0,0,0-.677,1.695,11.528,11.528,0,0,0,2.722.655.2.2,0,0,1-.05.132.913.913,0,0,0,.584,1.728,1.864,1.864,0,0,0,1.062-.921,2.132,2.132,0,0,0,.231-.9,5.724,5.724,0,0,0,3.91-1.819A2.876,2.876,0,0,1,89.634,162a3.053,3.053,0,0,1,1.2.483,2.911,2.911,0,0,0,.745,1.232,6.167,6.167,0,0,1,1.9,4.7c-.16,3.438-3.334,6.229-7.226,6.354a8.488,8.488,0,0,1-2.256-.228,7.6,7.6,0,0,0-1.02-.173l-.016-.01a4.759,4.759,0,0,1-1.964-4.56.913.913,0,1,0-1.82-.135,8.437,8.437,0,0,0-.006,1.194,3.432,3.432,0,0,0-1.509.286A.912.912,0,1,0,78.4,172.8c.148-.064.885-.346,1.239.185a6.439,6.439,0,0,0,.869,1.531,6.648,6.648,0,0,0-3,1.557,5.69,5.69,0,0,1-3.882,1.463,6.137,6.137,0,0,1-.965-.076,7.449,7.449,0,0,0-5.454,1.222,5.772,5.772,0,0,1-3.366,1.045,5.472,5.472,0,0,1-4.886-2.765,4.178,4.178,0,0,0-1.034-1.278,7.4,7.4,0,0,0,2.363-2.1c.676-.25,1.6.511,1.62.531a.913.913,0,0,0,1.2-1.373,4.366,4.366,0,0,0-1.97-.981,5.9,5.9,0,0,0,.174-1.025.913.913,0,1,0-1.819-.149,5,5,0,0,1-3.756,4.093,4.665,4.665,0,0,0-1.489-.014,8.585,8.585,0,0,1-1.853.078c-3.522-.23-6.694-3.055-6.926-6.168a6.143,6.143,0,0,1,1.889-4.868,2.951,2.951,0,0,0,.562-.771c.9-.059,3.467,0,4.2,2.5a.913.913,0,0,0,1.751-.515,5.312,5.312,0,0,0-.854-1.728c.323-.379.569-.431.662-.408a.913.913,0,0,0,.843-1.618,2.324,2.324,0,0,0-2.859.807,6.59,6.59,0,0,0-3.5-.88,2.929,2.929,0,0,0-.213-.647,3.7,3.7,0,0,1-.326-1.989,4.027,4.027,0,0,1,1.683-2.788.913.913,0,0,0-1.085-1.468,5.831,5.831,0,0,0-2.412,4.056,5.578,5.578,0,0,0,.484,2.955,1.036,1.036,0,0,1-.223,1.2,7.94,7.94,0,0,0-2.424,6.3,8.108,8.108,0,0,0,2.8,5.351,9.708,9.708,0,0,0,5.827,2.5,10.436,10.436,0,0,0,2.247-.1,2.712,2.712,0,0,1,2.816,1.331,7.312,7.312,0,0,0,6.505,3.748,7.9,7.9,0,0,0,1.887-.226c.073.483.131.971.173,1.461a.913.913,0,0,0,.908.835q.039,0,.078,0a.913.913,0,0,0,.832-.986c-.056-.662-.14-1.323-.25-1.972a7.355,7.355,0,0,0,.794-.491,5.522,5.522,0,0,1,3.29-.98,6.074,6.074,0,0,0,.864,2.329,9.913,9.913,0,0,0-.536,5.592l.17.871H67.575c0-.026.109-.713.176-1.665a.913.913,0,1,0-1.821-.129c-.062.874-.154,1.461-.171,1.6a1.779,1.779,0,0,0,1.763,2.017h4.589a1.779,1.779,0,0,0,1.746-2.12l-.181-.926a8.1,8.1,0,0,1,.141-3.687,6.128,6.128,0,0,0,8.268-.617,2.32,2.32,0,0,1,1.808-.7,5.652,5.652,0,0,0,5.909-5.915A8.549,8.549,0,0,0,95.3,168.5a7.971,7.971,0,0,0-2.438-6.078Zm-8.879,17.517q-.144-.007-.287,0a2.513,2.513,0,0,1-1.21-1.047.913.913,0,1,0-1.561.945,4.483,4.483,0,0,0,.579.762,3.99,3.99,0,0,0-.746.622,4.306,4.306,0,0,1-7.3-1.849,7.528,7.528,0,0,0,5.3-1.944,5.316,5.316,0,0,1,4.816-1.107,10.293,10.293,0,0,0,2.742.278,10.124,10.124,0,0,0,1.667-.192,3.826,3.826,0,0,1-3.994,3.538Z" transform="translate(-42.917 -127.515)"/>
        <path id="Trazado_1179004" data-name="Trazado 1179004" d="M50.53,16.432a.121.121,0,0,1,.112.076l.627,1.549a1.946,1.946,0,0,0,3.608,0l.627-1.549a.121.121,0,0,1,.112-.076H59a1.949,1.949,0,0,0,1.946-1.946V1.946A1.948,1.948,0,0,0,59.005,0H39.734a1.949,1.949,0,0,0-1.946,1.946V14.485a1.949,1.949,0,0,0,1.946,1.946ZM39.613,14.485V1.946a.121.121,0,0,1,.121-.121H59.005a.121.121,0,0,1,.121.121V14.485a.121.121,0,0,1-.121.121H55.618a1.939,1.939,0,0,0-1.8,1.216l-.627,1.549a.121.121,0,0,1-.225,0l-.627-1.549a1.939,1.939,0,0,0-1.8-1.215h-10.8a.122.122,0,0,1-.121-.121Z" transform="translate(-37.788 0)"/>
        <path id="Trazado_1179005" data-name="Trazado 1179005" d="M110.122,27.47h4.943a.913.913,0,0,0,0-1.825h-1.559v-.615a.913.913,0,1,0-1.825,0v.615h-1.559a.913.913,0,0,0,0,1.825Z" transform="translate(-100.519 -21.184)"/>
        <path id="Trazado_1179006" data-name="Trazado 1179006" d="M102.029,63.978c.029,0,.059,0,.089,0a8.036,8.036,0,0,0,3.924-1.4l.849.752a.913.913,0,1,0,1.21-1.366l-.7-.622a6.68,6.68,0,0,0,1.45-2.758.913.913,0,0,0-1.781-.4,5.151,5.151,0,0,1-1.032,1.949l-1.893-1.677a.913.913,0,0,0-1.21,1.366l1.7,1.505a6.433,6.433,0,0,1-2.689.831.913.913,0,0,0,.087,1.821Z" transform="translate(-93.412 -50.48)"/>
        <path id="Trazado_1179007" data-name="Trazado 1179007" d="M353.673,32.19a1.066,1.066,0,0,0-.989-.663h0a1.066,1.066,0,0,0-.989.665l-.008.021-2.6,6.837a.913.913,0,1,0,1.706.65l.425-1.115h2.924l.42,1.113a.912.912,0,1,0,1.707-.645l-2.58-6.837Zm-1.766,4.569.774-2.031.767,2.031Z" transform="translate(-311.153 -27.691)"/>
        <path id="Trazado_1179008" data-name="Trazado 1179008" d="M306.088,5.855A.912.912,0,0,0,307,4.942v-3A1.948,1.948,0,0,0,305.054,0H285.783a1.949,1.949,0,0,0-1.946,1.946V14.485a1.948,1.948,0,0,0,1.946,1.946h3.387a.121.121,0,0,1,.112.076l.627,1.549a1.946,1.946,0,0,0,3.608,0l.627-1.549a.121.121,0,0,1,.112-.076h10.8A1.949,1.949,0,0,0,307,14.485V8.471a.913.913,0,0,0-1.825,0v6.015a.121.121,0,0,1-.121.121h-10.8a1.939,1.939,0,0,0-1.8,1.216l-.627,1.549a.121.121,0,0,1-.225,0l-.627-1.549a1.939,1.939,0,0,0-1.8-1.215h-3.387a.121.121,0,0,1-.121-.121V1.946a.121.121,0,0,1,.121-.121h19.271a.121.121,0,0,1,.121.121v3a.912.912,0,0,0,.912.913Z" transform="translate(-253.9)"/>
      </g>
    </g>
  </g>
</svg>
