<svg xmlns="http://www.w3.org/2000/svg" xmlns:xlink="http://www.w3.org/1999/xlink" width="108" height="108" viewBox="0 0 108 108">
  <defs>
    <filter id="Trazado_982547" x="0" y="0" width="108" height="108" filterUnits="userSpaceOnUse">
      <feOffset dy="3" input="SourceAlpha"/>
      <feGaussianBlur stdDeviation="3" result="blur"/>
      <feFlood flood-opacity="0.161"/>
      <feComposite operator="in" in2="blur"/>
      <feComposite in="SourceGraphic"/>
    </filter>
  </defs>
  <g id="Grupo_1228216" data-name="Grupo 1228216" transform="translate(-197.01 -689)">
    <g id="Grupo_1227853" data-name="Grupo 1227853" transform="translate(0 -3783)">
      <g id="Grupo_1203964" data-name="Grupo 1203964" transform="translate(7 2516.532)">
        <g id="Grupo_1203625" data-name="Grupo 1203625" transform="translate(-14.49 905.468)">
          <g id="Grupo_1178314" data-name="Grupo 1178314" transform="translate(213.5 1056)">
            <g id="Grupo_1173988" data-name="Grupo 1173988">
              <g id="Grupo_1172010" data-name="Grupo 1172010">
                <g id="Grupo_1171046" data-name="Grupo 1171046">
                  <g id="Grupo_1148525" data-name="Grupo 1148525">
                    <g transform="matrix(1, 0, 0, 1, -9, -6)" filter="url(#Trazado_982547)">
                      <g id="Trazado_982547-2" data-name="Trazado 982547" transform="translate(9 6)" fill="#f4fbfc">
                        <path d="M 45 88.5 C 39.12687683105469 88.5 33.43022537231445 87.35007476806641 28.06830024719238 85.08217620849609 C 22.88852500915527 82.89131164550781 18.23629951477051 79.75458526611328 14.2408504486084 75.75914764404297 C 10.24541282653809 71.76370239257812 7.108687400817871 67.11147308349609 4.917825222015381 61.93170166015625 C 2.649924993515015 56.56977462768555 1.5 50.87312316894531 1.5 45 C 1.5 39.12687683105469 2.649924993515015 33.43022537231445 4.917825222015381 28.06830024719238 C 7.108687400817871 22.88852500915527 10.24541282653809 18.23629951477051 14.2408504486084 14.2408504486084 C 18.23629951477051 10.24541282653809 22.88852500915527 7.108687400817871 28.06830024719238 4.917825222015381 C 33.43022537231445 2.649924993515015 39.12687683105469 1.5 45 1.5 C 50.87312316894531 1.5 56.56977462768555 2.649924993515015 61.93170166015625 4.917825222015381 C 67.11147308349609 7.108687400817871 71.76370239257812 10.24541282653809 75.75914764404297 14.2408504486084 C 79.75458526611328 18.23629951477051 82.89131164550781 22.88852500915527 85.08217620849609 28.06830024719238 C 87.35007476806641 33.43022537231445 88.5 39.12687683105469 88.5 45 C 88.5 50.87312316894531 87.35007476806641 56.56977462768555 85.08217620849609 61.93170166015625 C 82.89131164550781 67.11147308349609 79.75458526611328 71.76370239257812 75.75914764404297 75.75914764404297 C 71.76370239257812 79.75458526611328 67.11147308349609 82.89131164550781 61.93170166015625 85.08217620849609 C 56.56977462768555 87.35007476806641 50.87312316894531 88.5 45 88.5 Z" stroke="none"/>
                        <path d="M 45 3 C 39.32871246337891 3 33.82865524291992 4.110054016113281 28.65262985229492 6.299339294433594 C 23.65165710449219 8.414573669433594 19.15968322753906 11.44334411621094 15.301513671875 15.301513671875 C 11.44334411621094 19.15968322753906 8.414573669433594 23.65165710449219 6.299339294433594 28.65262985229492 C 4.110054016113281 33.82865524291992 3 39.32871246337891 3 45 C 3 50.67128753662109 4.110054016113281 56.17134475708008 6.299339294433594 61.34737396240234 C 8.414573669433594 66.34834289550781 11.44334411621094 70.84031677246094 15.301513671875 74.698486328125 C 19.15968322753906 78.55665588378906 23.65165710449219 81.58542633056641 28.65262985229492 83.70066070556641 C 33.82865524291992 85.88994598388672 39.32871246337891 87 45 87 C 50.67128753662109 87 56.17134475708008 85.88994598388672 61.34737396240234 83.70066070556641 C 66.34834289550781 81.58542633056641 70.84031677246094 78.55665588378906 74.698486328125 74.698486328125 C 78.55665588378906 70.84031677246094 81.58542633056641 66.34834289550781 83.70066070556641 61.34737396240234 C 85.88994598388672 56.17134475708008 87 50.67128753662109 87 45 C 87 39.32871246337891 85.88994598388672 33.82865524291992 83.70066070556641 28.65262985229492 C 81.58542633056641 23.65165710449219 78.55665588378906 19.15968322753906 74.698486328125 15.301513671875 C 70.84031677246094 11.44334411621094 66.34834289550781 8.414573669433594 61.34737396240234 6.299339294433594 C 56.17134475708008 4.110054016113281 50.67128753662109 3 45 3 M 45 0 C 69.85281372070312 0 90 20.14718627929688 90 45 C 90 69.85281372070312 69.85281372070312 90 45 90 C 20.14718627929688 90 0 69.85281372070312 0 45 C 0 20.14718627929688 20.14718627929688 0 45 0 Z" stroke="none" fill="#52797f"/>
                      </g>
                    </g>
                  </g>
                </g>
              </g>
            </g>
          </g>
        </g>
      </g>
    </g>
    <g id="aprendizaje-visual" transform="translate(141.025 703.863)">
      <g id="Grupo_1228213" data-name="Grupo 1228213" transform="translate(90.308 11.575)">
        <path id="Trazado_1179009" data-name="Trazado 1179009" d="M198.6,88.968s-5.009,7.067-11.189,7.067-11.189-7.067-11.189-7.067,5.009-7.067,11.189-7.067S198.6,88.968,198.6,88.968Z" transform="translate(-167.779 -81.901)" fill="#fff"/>
        <circle id="Elipse_12793" data-name="Elipse 12793" cx="2.827" cy="2.827" r="2.827" transform="translate(16.808 4.24)" fill="#8ca3b7"/>
        <path id="Trazado_1179010" data-name="Trazado 1179010" d="M179.758,88.968s4.082-5.758,9.422-6.878a8.6,8.6,0,0,0-1.767-.188c-6.179,0-11.189,7.067-11.189,7.067s5.009,7.067,11.189,7.067a8.586,8.586,0,0,0,1.767-.188C183.841,94.725,179.758,88.968,179.758,88.968Z" transform="translate(-167.779 -81.901)" fill="#dededf"/>
        <path id="Trazado_1179011" data-name="Trazado 1179011" d="M237.936,114.728a2.824,2.824,0,0,1,1.554-2.521,2.827,2.827,0,1,0,0,5.043,2.824,2.824,0,0,1-1.554-2.521Z" transform="translate(-218.584 -107.661)" fill="#57758d"/>
        <path id="Trazado_1179012" data-name="Trazado 1179012" d="M176.243,275.37c2.48,3.1,4.492,8.7,4.492,8.7v8.83a14.762,14.762,0,1,1-29.524,0V280.413C156.7,281.488,170.256,283.19,176.243,275.37Z" transform="translate(-146.3 -248.027)" fill="#ffdaaa"/>
        <path id="Trazado_1179013" data-name="Trazado 1179013" d="M154.743,323.541V311.617c-1.368-.172-2.574-.379-3.533-.567v12.491A14.761,14.761,0,0,0,165.972,338.3a14.936,14.936,0,0,0,1.767-.106A14.763,14.763,0,0,1,154.743,323.541Z" transform="translate(-146.3 -278.664)" fill="#ffb680"/>
        <g id="Grupo_1228212" data-name="Grupo 1228212" transform="translate(0 36.046)">
          <path id="Trazado_1179014" data-name="Trazado 1179014" d="M121.421,346.952a5.19,5.19,0,0,1-4.2-3.887l-.671-2.74a2.726,2.726,0,0,1,2.649-3.375h2.182v8.83q0,.591.045,1.172Z" transform="translate(-116.466 -336.95)" fill="#ffdaaa"/>
          <path id="Trazado_1179015" data-name="Trazado 1179015" d="M359.818,336.95v8.83q0,.6-.048,1.191a5.184,5.184,0,0,0,4.345-3.906l.671-2.74a2.726,2.726,0,0,0-2.647-3.375Z" transform="translate(-325.384 -336.95)" fill="#ffdaaa"/>
        </g>
        <path id="Trazado_1179016" data-name="Trazado 1179016" d="M169.5,224.454l-3.508,5.961s-2.011-5.6-4.491-8.7c-7.6,9.93-27.41,4.507-27.41,4.507s-2.2-13.339,22.732-13.339l4.465,3.113,6.091-.681Z" transform="translate(-131.554 -194.369)" fill="#8ca3b7"/>
        <path id="Trazado_1179017" data-name="Trazado 1179017" d="M156.96,212.979l-.141-.1c-24.936,0-22.732,13.339-22.732,13.339s1.354.37,3.486.74C137.508,224.231,138.513,214.084,156.96,212.979Z" transform="translate(-131.554 -194.369)" fill="#57758d"/>
      </g>
      <g id="Grupo_1228214" data-name="Grupo 1228214" transform="translate(86.003 0)">
        <path id="Trazado_1179018" data-name="Trazado 1179018" d="M127.063,151.328H126.6l2.782-4.728-.934-4.023-2.065.479.742,3.2-2.193,3.727a31.977,31.977,0,0,0-3.85-6.958l-.846-1.058-.824,1.076c-6.288,8.212-22,5.134-25.561,4.307a8.625,8.625,0,0,1,2.181-5.588,12.327,12.327,0,0,1,3.448-2.722,18.706,18.706,0,0,0,20.941-.048l4.892-.547.59,2.543,2.065-.479-1.016-4.38-3.606.4a18.845,18.845,0,0,0,4.485-7.592l-2.029-.615a16.563,16.563,0,0,1-5.8,8.324l-4.092-2.853h-.333c-6.646,0-11.966.926-15.912,2.759A16.618,16.618,0,0,1,93.523,126.2l3.641,3.506,1.47-1.527-6.4-6.167L86,128.189l1.493,1.5,3.837-3.807a18.713,18.713,0,0,0,6.317,11.752,14.029,14.029,0,0,0-3.275,2.793,10.41,10.41,0,0,0-2.579,7.933l.111.67.655.179c.068.019.645.174,1.6.379v1.734H93.036a3.786,3.786,0,0,0-3.678,4.688l.671,2.74a6.234,6.234,0,0,0,4.259,4.5,15.823,15.823,0,0,0,31.378.04,6.233,6.233,0,0,0,4.4-4.536l.671-2.74a3.786,3.786,0,0,0-3.678-4.688Zm-11.821-15.414,2.861,1.995a16.5,16.5,0,0,1-16.314.066A38.81,38.81,0,0,1,115.241,135.914Zm-21.083,25a4.119,4.119,0,0,1-2.07-2.663l-.671-2.74a1.667,1.667,0,0,1,1.619-2.063h1.123v7.466Zm29.524.3a13.7,13.7,0,1,1-27.4,0V150a50.342,50.342,0,0,0,7.4.72,30.494,30.494,0,0,0,9.394-1.129,16,16,0,0,0,7.114-4.2,40.46,40.46,0,0,1,3.5,7.181v8.641Zm5-5.707-.671,2.74a4.118,4.118,0,0,1-2.207,2.731v-7.534h1.26a1.667,1.667,0,0,1,1.619,2.063Z" transform="translate(-86.003 -104.767)"/>
        <path id="Trazado_1179019" data-name="Trazado 1179019" d="M175.645,374.609h7.363v2.12h-7.363Z" transform="translate(-162.976 -321.665)"/>
        <path id="Trazado_1179020" data-name="Trazado 1179020" d="M234.3,422.9h6.032v2.12H234.3Z" transform="translate(-213.344 -363.133)"/>
        <path id="Trazado_1179021" data-name="Trazado 1179021" d="M283.548,374.609h7.363v2.12h-7.363Z" transform="translate(-255.629 -321.665)"/>
        <path id="Trazado_1179022" data-name="Trazado 1179022" d="M167.032,82.528l.435.613c.217.307,5.4,7.514,12.053,7.514s11.836-7.207,12.053-7.514l.435-.613-.435-.613c-.217-.307-5.4-7.514-12.053-7.514s-11.836,7.207-12.053,7.514Zm12.488-6.007c4.53,0,8.512,4.367,9.848,6.008-1.333,1.642-5.305,6.006-9.848,6.006s-8.513-4.367-9.848-6.008C171,80.885,174.977,76.521,179.52,76.521Z" transform="translate(-155.58 -63.886)"/>
        <path id="Trazado_1179023" data-name="Trazado 1179023" d="M231.779,112.174a3.887,3.887,0,1,0-3.887-3.887A3.891,3.891,0,0,0,231.779,112.174Zm0-5.653a1.767,1.767,0,1,1-1.767,1.767A1.769,1.769,0,0,1,231.779,106.521Z" transform="translate(-207.839 -89.646)"/>
        <path id="Trazado_1179024" data-name="Trazado 1179024" d="M197.858,2.12a16.65,16.65,0,0,1,16.354,13.729l-3.432-3.406-1.493,1.5,6.227,6.178,6.4-6.167-1.47-1.527-4.019,3.87a18.733,18.733,0,0,0-28-13.759L189.5,4.374a16.6,16.6,0,0,1,8.36-2.254Z" transform="translate(-173.954 0)"/>
        <path id="Trazado_1179025" data-name="Trazado 1179025" d="M136.263,28.531l-1.28-1.69a18.622,18.622,0,0,0-6.618,9.473l2.028.617A16.742,16.742,0,0,1,136.263,28.531Z" transform="translate(-122.378 -23.048)"/>
      </g>
      <g id="Grupo_1228215" data-name="Grupo 1228215" transform="translate(97.975 39.06)">
        <path id="Trazado_1179026" data-name="Trazado 1179026" d="M170.71,276.374h2.12v2.12h-2.12Z" transform="translate(-170.71 -276.374)" fill="#fff"/>
        <path id="Trazado_1179027" data-name="Trazado 1179027" d="M201.71,276.374h2.12v2.12h-2.12Z" transform="translate(-197.329 -276.374)" fill="#fff"/>
      </g>
    </g>
  </g>
</svg>
