<svg xmlns="http://www.w3.org/2000/svg" xmlns:xlink="http://www.w3.org/1999/xlink" width="113" height="113" viewBox="0 0 113 113">
  <defs>
    <filter id="Trazado_982547" x="0" y="0" width="113" height="113" filterUnits="userSpaceOnUse">
      <feOffset dy="3" input="SourceAlpha"/>
      <feGaussianBlur stdDeviation="3" result="blur"/>
      <feFlood flood-opacity="0.161"/>
      <feComposite operator="in" in2="blur"/>
      <feComposite in="SourceGraphic"/>
    </filter>
  </defs>
  <g id="Grupo_1230377" data-name="Grupo 1230377" transform="translate(-1163.25 -713.816)">
    <g id="Grupo_1230117" data-name="Grupo 1230117" transform="translate(0 -13968.816)">
      <g id="Grupo_1224275" data-name="Grupo 1224275" transform="translate(0.25 13230)">
        <g id="Grupo_1224268" data-name="Grupo 1224268">
          <g id="Grupo_1223779" data-name="Grupo 1223779" transform="translate(0 -4451.031)">
            <g id="Grupo_1206283" data-name="Grupo 1206283" transform="translate(0 -3448.335)">
              <g id="Grupo_1203804" data-name="Grupo 1203804" transform="translate(-1 6552)">
                <g id="Grupo_1202426" data-name="Grupo 1202426" transform="translate(0.5 1464)">
                  <g id="Grupo_1178323" data-name="Grupo 1178323" transform="translate(0 424)">
                    <g id="Grupo_1177681" data-name="Grupo 1177681" transform="translate(1172.5 918)">
                      <g id="Grupo_1172010" data-name="Grupo 1172010">
                        <g id="Grupo_1171046" data-name="Grupo 1171046">
                          <g id="Grupo_1148525" data-name="Grupo 1148525">
                            <g transform="matrix(1, 0, 0, 1, -9, -6)" filter="url(#Trazado_982547)">
                              <g id="Trazado_982547-2" data-name="Trazado 982547" transform="translate(9 6)" fill="#ffe6ef">
                                <path d="M 47.5 93.5 C 41.28937149047852 93.5 35.26533508300781 92.28397369384766 29.59518623352051 89.88570404052734 C 24.11771965026855 87.56893157958984 19.19813346862793 84.25196075439453 14.97309303283691 80.02691650390625 C 10.74804019927979 75.80186462402344 7.431066513061523 70.88229370117188 5.114293098449707 65.40481567382812 C 2.716026782989502 59.73468017578125 1.5 53.71062850952148 1.5 47.5 C 1.5 41.28937149047852 2.716026782989502 35.26533508300781 5.114293098449707 29.59518623352051 C 7.431066513061523 24.11771965026855 10.74804019927979 19.19813346862793 14.97309303283691 14.97309303283691 C 19.19813346862793 10.74804019927979 24.11771965026855 7.431066513061523 29.59518623352051 5.114293098449707 C 35.26533508300781 2.716026782989502 41.28937149047852 1.5 47.5 1.5 C 53.71062850952148 1.5 59.73468017578125 2.716026782989502 65.40481567382812 5.114293098449707 C 70.88229370117188 7.431066513061523 75.80186462402344 10.74804019927979 80.02691650390625 14.97309303283691 C 84.25196075439453 19.19813346862793 87.56893157958984 24.11771965026855 89.88570404052734 29.59518623352051 C 92.28397369384766 35.26533508300781 93.5 41.28937149047852 93.5 47.5 C 93.5 53.71062850952148 92.28397369384766 59.73468017578125 89.88570404052734 65.40481567382812 C 87.56893157958984 70.88229370117188 84.25196075439453 75.80186462402344 80.02691650390625 80.02691650390625 C 75.80186462402344 84.25196075439453 70.88229370117188 87.56893157958984 65.40481567382812 89.88570404052734 C 59.73468017578125 92.28397369384766 53.71062850952148 93.5 47.5 93.5 Z" stroke="none"/>
                                <path d="M 47.5 3 C 41.49121475219727 3 35.66376876831055 4.176155090332031 30.17950439453125 6.495796203613281 C 24.88084411621094 8.736953735351562 20.12152099609375 11.94598388671875 16.03375244140625 16.03375244140625 C 11.94598388671875 20.12152099609375 8.736953735351562 24.88084411621094 6.495796203613281 30.17950439453125 C 4.176155090332031 35.66376876831055 3 41.49121475219727 3 47.5 C 3 53.50878524780273 4.176155090332031 59.33623123168945 6.495796203613281 64.82049560546875 C 8.736953735351562 70.11915588378906 11.94598388671875 74.87847900390625 16.03375244140625 78.96624755859375 C 20.12152099609375 83.05401611328125 24.88084411621094 86.26304626464844 30.17950439453125 88.50419616699219 C 35.66376876831055 90.82384490966797 41.49121475219727 92 47.5 92 C 53.50878524780273 92 59.33623123168945 90.82384490966797 64.82049560546875 88.50419616699219 C 70.11915588378906 86.26304626464844 74.87847900390625 83.05401611328125 78.96624755859375 78.96624755859375 C 83.05401611328125 74.87847900390625 86.26304626464844 70.11915588378906 88.50419616699219 64.82049560546875 C 90.82384490966797 59.33623123168945 92 53.50878524780273 92 47.5 C 92 41.49121475219727 90.82384490966797 35.66376876831055 88.50419616699219 30.17950439453125 C 86.26304626464844 24.88084411621094 83.05401611328125 20.12152099609375 78.96624755859375 16.03375244140625 C 74.87847900390625 11.94598388671875 70.11915588378906 8.736953735351562 64.82049560546875 6.495796203613281 C 59.33623123168945 4.176155090332031 53.50878524780273 3 47.5 3 M 47.5 0 C 73.7335205078125 0 95 21.2664794921875 95 47.5 C 95 73.7335205078125 73.7335205078125 95 47.5 95 C 21.2664794921875 95 0 73.7335205078125 0 47.5 C 0 21.2664794921875 21.2664794921875 0 47.5 0 Z" stroke="none" fill="#8b5e6f"/>
                              </g>
                            </g>
                          </g>
                        </g>
                      </g>
                    </g>
                  </g>
                </g>
              </g>
            </g>
          </g>
        </g>
      </g>
    </g>
    <g id="sensorial" transform="translate(1183.652 727.199)">
      <circle id="Elipse_12885" data-name="Elipse 12885" cx="3.472" cy="3.472" r="3.472" transform="translate(31.856 10.366)" fill="#02c7dd"/>
      <path id="Trazado_1181670" data-name="Trazado 1181670" d="M81.047,58.148q0-.176-.007-.351a.708.708,0,0,1,.486-.7l18.619-6.05a.7.7,0,0,0,.453-.888L99.68,47.33a.7.7,0,0,0-.888-.453l-18.619,6.05a.709.709,0,0,1-.806-.283A9.871,9.871,0,0,0,73.9,48.673a.708.708,0,0,1-.519-.679V28.416a.705.705,0,0,0-.705-.705h-2.97a.705.705,0,0,0-.705.705V47.993a.708.708,0,0,1-.519.679,9.87,9.87,0,0,0-5.466,3.971.709.709,0,0,1-.806.283l-18.619-6.05a.705.705,0,0,0-.888.453l-.918,2.825a.705.705,0,0,0,.453.888l18.619,6.05a.708.708,0,0,1,.486.7q-.007.174-.007.351a9.808,9.808,0,0,0,2.1,6.071.708.708,0,0,1,.02.855L51.945,80.913a.705.705,0,0,0,.156.985l2.4,1.746a.705.705,0,0,0,.985-.156L66.994,67.652a.709.709,0,0,1,.82-.245,19.915,19.915,0,0,0,6.756,0,.709.709,0,0,1,.82.245L86.9,83.488a.705.705,0,0,0,.985.156l2.4-1.746a.705.705,0,0,0,.156-.985L78.931,65.074a.708.708,0,0,1,.02-.855,9.8,9.8,0,0,0,2.1-6.071Z" transform="translate(-35.865 -19.784)" fill="#80d261"/>
      <path id="Trazado_1181671" data-name="Trazado 1181671" d="M160.263,20.28a5.11,5.11,0,0,0,1.242,2.19c1.977,2.452,6.167,5.911,11.488,5.911,5.538,0,9.851-3.748,11.719-6.206a4.43,4.43,0,0,0,1.011-1.9,4.43,4.43,0,0,0-1.011-1.9c-1.868-2.458-6.181-6.206-11.719-6.206-5.321,0-9.511,3.459-11.488,5.911a5.111,5.111,0,0,0-1.242,2.19Z" transform="translate(-137.665 -6.442)" fill="#dcf5f8"/>
      <path id="Trazado_1181672" data-name="Trazado 1181672" d="M224.85,19.292a16.2,16.2,0,0,0-9.808-6.057,17.174,17.174,0,0,1,5.578,4.647,4.43,4.43,0,0,1,1.011,1.9,4.429,4.429,0,0,1-1.011,1.9c-1.868,2.458-6.181,6.206-11.719,6.206a12.4,12.4,0,0,1-1.911-.149,13.339,13.339,0,0,0,6.142,1.559c5.538,0,9.851-3.748,11.719-6.206a4.43,4.43,0,0,0,1.011-1.9A4.432,4.432,0,0,0,224.85,19.292Z" transform="translate(-177.803 -7.35)" fill="#a6e7f0"/>
      <circle id="Elipse_12886" data-name="Elipse 12886" cx="3.472" cy="3.472" r="3.472" transform="translate(31.856 10.366)" fill="#017297"/>
      <path id="Trazado_1181673" data-name="Trazado 1181673" d="M387.75,147.857a5.955,5.955,0,0,0-2.453-3.143,5.283,5.283,0,0,1-2.444-3.785l-.659-5.275a3.933,3.933,0,0,0-7.8,0l-.659,5.275a5.284,5.284,0,0,1-2.444,3.785,5.955,5.955,0,0,0-2.453,3.143,2.179,2.179,0,0,0,2.067,2.868h2.109a3.625,3.625,0,0,1,2.9,1.45,2.98,2.98,0,0,0,4.769,0,3.625,3.625,0,0,1,2.9-1.45h2.109A2.179,2.179,0,0,0,387.75,147.857Z" transform="translate(-316.728 -109.547)" fill="#ffe5c2"/>
      <path id="Trazado_1181674" data-name="Trazado 1181674" d="M311.872,372.93a6.686,6.686,0,0,1-6.556-5.375l-2.179-10.894a3.814,3.814,0,0,1,5.855-3.921,5.191,5.191,0,0,0,5.759,0,3.814,3.814,0,0,1,5.855,3.921l-2.179,10.894A6.686,6.686,0,0,1,311.872,372.93Z" transform="translate(-260.33 -298.433)" fill="#f79595"/>
      <path id="Trazado_1181675" data-name="Trazado 1181675" d="M338.539,353.237A3.809,3.809,0,0,0,336,352.123a3.81,3.81,0,0,1,.057,1.738l-2.179,10.894a6.688,6.688,0,0,1-8.725,5.014,6.687,6.687,0,0,0,12.25-2.194l2.179-10.894A3.814,3.814,0,0,0,338.539,353.237Z" transform="translate(-279.305 -298.453)" fill="#f37c7c"/>
      <path id="Trazado_1181676" data-name="Trazado 1181676" d="M7.5,137.207a5.739,5.739,0,0,0,11.468.352c0-.06.006-.121.008-.181a10.03,10.03,0,0,1,2.578-6.327A8.035,8.035,0,1,0,7.5,125.729Z" transform="translate(-6.442 -97.08)" fill="#ffdfcf"/>
      <path id="Trazado_1181677" data-name="Trazado 1181677" d="M86.276,343.892H80.041a2.484,2.484,0,0,0-2.484,2.484v4.48a2.484,2.484,0,0,0-3.5.01l-1,1a1.242,1.242,0,0,0,0,1.756l6.4,6.4h0l.033.033a2.2,2.2,0,0,1,.647,1.557v2.878a.745.745,0,0,0,.745.745H87.1a.745.745,0,0,0,.745-.745v-2.863a2.247,2.247,0,0,1,.67-1.594,6.409,6.409,0,0,0,1.9-4.565v-7.433A4.139,4.139,0,0,0,86.276,343.892Z" transform="translate(-62.439 -291.383)" fill="#eb9c8d"/>
      <path id="Trazado_1181678" data-name="Trazado 1181678" d="M189.212,168.773a.7.7,0,0,0-.39-.631l-1.65-.825a.716.716,0,0,1-.355-.413,10.109,10.109,0,0,0-.5-1.215.716.716,0,0,1-.041-.543l.583-1.75a.705.705,0,0,0-.17-.722l-2-2a.705.705,0,0,0-.722-.17l-1.75.583a.715.715,0,0,1-.543-.041,10.158,10.158,0,0,0-1.215-.5.716.716,0,0,1-.413-.355l-.825-1.65a.7.7,0,0,0-.631-.39H175.75a.7.7,0,0,0-.631.39l-.825,1.65a.715.715,0,0,1-.413.355,10.093,10.093,0,0,0-1.215.5.716.716,0,0,1-.543.041l-1.75-.583a.705.705,0,0,0-.722.17l-2,2a.705.705,0,0,0-.17.722l.583,1.75a.715.715,0,0,1-.041.543,10.131,10.131,0,0,0-.5,1.215.716.716,0,0,1-.355.413l-1.65.825a.7.7,0,0,0-.39.631v2.835a.7.7,0,0,0,.39.631l1.65.825a.716.716,0,0,1,.355.413,10.112,10.112,0,0,0,.5,1.215.716.716,0,0,1,.041.543l-.583,1.75a.705.705,0,0,0,.17.722l2,2a.705.705,0,0,0,.722.17l1.75-.583a.715.715,0,0,1,.543.041,10.134,10.134,0,0,0,1.215.5.716.716,0,0,1,.413.355l.825,1.65a.7.7,0,0,0,.631.39h2.835a.705.705,0,0,0,.631-.39l.825-1.65a.716.716,0,0,1,.413-.355,10.115,10.115,0,0,0,1.215-.5.716.716,0,0,1,.543-.041l1.75.583a.705.705,0,0,0,.721-.17l2-2a.705.705,0,0,0,.17-.722l-.583-1.75a.715.715,0,0,1,.041-.543,10.131,10.131,0,0,0,.5-1.215.715.715,0,0,1,.355-.413l1.65-.825a.7.7,0,0,0,.39-.631Zm-12.045,5.8a4.38,4.38,0,1,1,4.38-4.38A4.38,4.38,0,0,1,177.168,174.57Z" transform="translate(-141.84 -131.827)" fill="#d4f2f6"/>
      <path id="Trazado_1181679" data-name="Trazado 1181679" d="M227.481,42.038a4.529,4.529,0,1,0-4.529,4.529A4.534,4.534,0,0,0,227.481,42.038Zm-6.944,0a2.414,2.414,0,1,1,2.414,2.414A2.417,2.417,0,0,1,220.537,42.038Z" transform="translate(-187.624 -28.201)"/>
      <path id="Trazado_1181680" data-name="Trazado 1181680" d="M72.026,37.975h0a7.042,7.042,0,0,0-2.889-3.7,4.224,4.224,0,0,1-1.963-3.024l-.659-5.275a4.99,4.99,0,0,0-9.9,0l-.268,2.145-3.01.978a1.057,1.057,0,0,0,.654,2.011l2.067-.671-.1.812a4.077,4.077,0,0,1-.712,1.834l-7.524,2.445a1.8,1.8,0,0,0-.26-.159l-1.521-.76c-.093-.264-.2-.525-.31-.782l3.648-1.185a1.057,1.057,0,0,0-.654-2.011l-2.51.815a1.752,1.752,0,0,0-.515-1.345l-2-2a1.752,1.752,0,0,0-1.8-.426l-1.613.538a11.253,11.253,0,0,0-1.091-.452l-.507-1.013v-4.15a17.563,17.563,0,0,0,9.313-6.22,4.866,4.866,0,0,0,1.227-2.535A4.867,4.867,0,0,0,47.889,11.3c-2.322-3.055-7-6.623-12.561-6.623a13.834,13.834,0,0,0-4.377.723,1.057,1.057,0,1,0,.668,2.006,11.723,11.723,0,0,1,3.708-.615c4.782,0,8.848,3.118,10.877,5.788a5.8,5.8,0,0,1,.776,1.255,5.794,5.794,0,0,1-.776,1.255c-2.029,2.67-6.1,5.788-10.877,5.788-4.582,0-8.514-2.85-10.665-5.517a6.516,6.516,0,0,1-.989-1.526,6.508,6.508,0,0,1,.989-1.526,15.939,15.939,0,0,1,2.814-2.693,1.058,1.058,0,0,0-1.27-1.691,18.085,18.085,0,0,0-3.19,3.056,5.792,5.792,0,0,0-1.476,2.854,5.79,5.79,0,0,0,1.476,2.854,17.5,17.5,0,0,0,9.064,5.9v4.147l-.507,1.014a11.2,11.2,0,0,0-1.091.452l-1.613-.538a1.752,1.752,0,0,0-1.8.426l-2,2a1.753,1.753,0,0,0-.514,1.345l-6.39-2.076a9.256,9.256,0,0,0,.017-1.166,9.144,9.144,0,0,0-8.706-8.639A9.092,9.092,0,0,0,0,28.649V40.127A6.821,6.821,0,0,0,2.161,45.1a6.728,6.728,0,0,0,4.628,1.826q.244,0,.491-.017a6.8,6.8,0,0,0,6.3-6.365A8.907,8.907,0,0,1,15.392,35.3l6.833,2.22v2.26a1.752,1.752,0,0,0,.974,1.576l1.521.76a11.236,11.236,0,0,0,.452,1.091l-.538,1.614a1.753,1.753,0,0,0,.426,1.8l.145.145-3.4,4.681H17.6a3.545,3.545,0,0,0-3.541,3.541v2.774a3.544,3.544,0,0,0-3.193.967l-1,1a2.3,2.3,0,0,0,0,3.252c6.914,6.913,6.4,6.4,6.431,6.429h0a1.147,1.147,0,0,1,.336.808V73.1a1.8,1.8,0,0,0,1.8,1.8H24.66a1.8,1.8,0,0,0,1.8-1.8V70.241a1.182,1.182,0,0,1,.357-.843,7.435,7.435,0,0,0,2.215-5.316v-2.04a1.058,1.058,0,1,0-2.115,0v2.04A5.335,5.335,0,0,1,25.331,67.9a3.283,3.283,0,0,0-.983,2.345v2.551h-5.6V70.227a3.276,3.276,0,0,0-.959-2.307l-6.428-6.426a.185.185,0,0,1,0-.261l1-1a1.429,1.429,0,0,1,2.011-.006l0,0,2.89,2.889a2.887,2.887,0,0,0,2.669.77,1.525,1.525,0,0,1,.324-.035,1.506,1.506,0,0,1,1.448,1.069,1.058,1.058,0,0,0,2.022-.621,3.633,3.633,0,0,0-4.243-2.48.779.779,0,0,1-.724-.2l-2.589-2.589V54.993A1.428,1.428,0,0,1,17.6,53.567h.466v4.08a1.058,1.058,0,0,0,2.115,0v-4.08H21.9v4.08a1.058,1.058,0,0,0,2.115,0V53.572a3.086,3.086,0,0,1,2.9,3.077v.458a1.058,1.058,0,1,0,2.115,0v-.458a5.167,5.167,0,0,0-.879-2.889L31.6,49.021l.735,1.471a1.753,1.753,0,0,0,1.577.974h2.835a1.753,1.753,0,0,0,1.577-.974l.735-1.471,3.819,5.257a4.861,4.861,0,0,0-1.106,4.158L43.949,69.33a7.744,7.744,0,0,0,15.186,0l2.179-10.894a4.871,4.871,0,0,0-7.479-5.008,4.125,4.125,0,0,1-3.1.616L45.45,46.771l.145-.145a1.754,1.754,0,0,0,.426-1.8l-.538-1.613a11.217,11.217,0,0,0,.452-1.091l1.521-.76a1.753,1.753,0,0,0,.975-1.577v-2.26l3.42-1.111a7.008,7.008,0,0,0-.75,1.566,3.236,3.236,0,0,0,3.07,4.26h2.108a2.58,2.58,0,0,1,2.054,1.027,4.038,4.038,0,0,0,6.461,0,2.579,2.579,0,0,1,2.054-1.027h2.109a3.237,3.237,0,0,0,3.07-4.26ZM36.46,22.947v2.314H34.2V22.947A13.089,13.089,0,0,0,36.46,22.947ZM25.031,33.827c-.113.257-.217.518-.31.782l-1.521.761a1.774,1.774,0,0,0-.26.159l-6.17-2a9.015,9.015,0,0,0,.973-2.065ZM11.469,40.416a4.682,4.682,0,0,1-9.354-.289V28.649A6.977,6.977,0,0,1,9.09,21.672a6.979,6.979,0,0,1,5.132,11.71,11.108,11.108,0,0,0-2.752,7.034Zm15.6,8.214a1.753,1.753,0,0,0,1.8.426l.119-.039-2.361,3.249a5.164,5.164,0,0,0-2.23-.784l2.323-3.2Zm27.943,6.557a2.756,2.756,0,0,1,4.232,2.834L57.061,68.915a5.628,5.628,0,0,1-11.038,0L43.844,58.021a2.756,2.756,0,0,1,4.232-2.834,6.255,6.255,0,0,0,2.409.962v11.04a1.058,1.058,0,0,0,2.115,0V56.149a6.251,6.251,0,0,0,2.409-.962ZM47.1,52.643a4.909,4.909,0,0,0-2.522.382l-2.913-4.009.119.04a1.753,1.753,0,0,0,1.8-.426l.346-.346Zm-.788-13.081-1.455.727a1.764,1.764,0,0,0-.883,1.018,9.113,9.113,0,0,1-.451,1.088,1.764,1.764,0,0,0-.1,1.345l.515,1.544-.619.619-.026.026L42.248,46.98l-1.543-.515a1.762,1.762,0,0,0-1.345.1,9.119,9.119,0,0,1-1.088.451,1.763,1.763,0,0,0-1.018.883l-.727,1.455h-2.4L33.4,47.9a1.763,1.763,0,0,0-1.018-.883,9.154,9.154,0,0,1-1.088-.451,1.762,1.762,0,0,0-1.345-.1l-1.543.515-1.052-1.051-.026-.026-.619-.619.515-1.544a1.765,1.765,0,0,0-.1-1.345,9.082,9.082,0,0,1-.451-1.088A1.763,1.763,0,0,0,25.8,40.29l-1.455-.727v-2.4l1.455-.727a1.764,1.764,0,0,0,.883-1.018,9.122,9.122,0,0,1,.451-1.088,1.764,1.764,0,0,0,.1-1.345l-.515-1.544,1.7-1.7,1.543.515a1.764,1.764,0,0,0,1.345-.1,9.082,9.082,0,0,1,1.088-.451,1.763,1.763,0,0,0,1.017-.883l.674-1.349.018-.036.035-.07h2.4l.035.07.018.036.674,1.349a1.764,1.764,0,0,0,1.018.883,9.11,9.11,0,0,1,1.088.451,1.763,1.763,0,0,0,1.345.1l1.543-.515,1.7,1.7-.514,1.543a1.762,1.762,0,0,0,.1,1.345,9.084,9.084,0,0,1,.451,1.088,1.764,1.764,0,0,0,.883,1.017l1.455.727Zm23.55.092a1.109,1.109,0,0,1-.909.466H66.847A4.7,4.7,0,0,0,63.1,41.993a1.923,1.923,0,0,1-3.077,0,4.7,4.7,0,0,0-3.746-1.873H54.171a1.121,1.121,0,0,1-1.064-1.476,4.92,4.92,0,0,1,2.018-2.586,6.334,6.334,0,0,0,2.926-4.546l.659-5.275a2.875,2.875,0,0,1,5.706,0l.659,5.275A6.333,6.333,0,0,0,68,36.058a4.919,4.919,0,0,1,2.018,2.586,1.109,1.109,0,0,1-.154,1.01Z"/>
      <path id="Trazado_1181681" data-name="Trazado 1181681" d="M37.292,143.02a4.469,4.469,0,0,0-4.463,4.464v3.224a2.878,2.878,0,0,0,.849,2.049l.026.026a.782.782,0,0,1,0,1.107l-.026.026a2.877,2.877,0,0,0-.849,2.049v3A2.167,2.167,0,0,0,35,161.128a1.058,1.058,0,0,0,0-2.115.049.049,0,0,1-.038-.015.047.047,0,0,1-.015-.036v-3a.772.772,0,0,1,.223-.547l.032-.031a2.9,2.9,0,0,0-.006-4.105l-.02-.02a.776.776,0,0,1-.229-.553v-3.224a2.348,2.348,0,1,1,4.109,1.552,1.058,1.058,0,1,0,1.583,1.4,4.462,4.462,0,0,0-3.345-7.419Z" transform="translate(-28.2 -118.834)"/>
      <path id="Trazado_1181682" data-name="Trazado 1181682" d="M217.42,205.005a5.437,5.437,0,1,0,5.437,5.437A5.443,5.443,0,0,0,217.42,205.005Zm0,8.76a3.322,3.322,0,1,1,3.322-3.322A3.326,3.326,0,0,1,217.42,213.765Z" transform="translate(-182.093 -172.079)"/>
    </g>
  </g>
</svg>
