<svg xmlns="http://www.w3.org/2000/svg" xmlns:xlink="http://www.w3.org/1999/xlink" width="108" height="108" viewBox="0 0 108 108">
  <defs>
    <filter id="Trazado_982547" x="0" y="0" width="108" height="108" filterUnits="userSpaceOnUse">
      <feOffset dy="3" input="SourceAlpha"/>
      <feGaussianBlur stdDeviation="3" result="blur"/>
      <feFlood flood-opacity="0.161"/>
      <feComposite operator="in" in2="blur"/>
      <feComposite in="SourceGraphic"/>
    </filter>
  </defs>
  <g id="Grupo_1228241" data-name="Grupo 1228241" transform="translate(-827.01 -689)">
    <g id="Grupo_1227854" data-name="Grupo 1227854" transform="translate(630 -3783)">
      <g id="Grupo_1203964" data-name="Grupo 1203964" transform="translate(7 2516.532)">
        <g id="Grupo_1203625" data-name="Grupo 1203625" transform="translate(-14.49 905.468)">
          <g id="Grupo_1178314" data-name="Grupo 1178314" transform="translate(213.5 1056)">
            <g id="Grupo_1173988" data-name="Grupo 1173988">
              <g id="Grupo_1172010" data-name="Grupo 1172010">
                <g id="Grupo_1171046" data-name="Grupo 1171046">
                  <g id="Grupo_1148525" data-name="Grupo 1148525">
                    <g transform="matrix(1, 0, 0, 1, -9, -6)" filter="url(#Trazado_982547)">
                      <g id="Trazado_982547-2" data-name="Trazado 982547" transform="translate(9 6)" fill="#f4fbfc">
                        <path d="M 45 88.5 C 39.12687683105469 88.5 33.43022537231445 87.35007476806641 28.06830024719238 85.08217620849609 C 22.88852500915527 82.89131164550781 18.23629951477051 79.75458526611328 14.2408504486084 75.75914764404297 C 10.24541282653809 71.76370239257812 7.108687400817871 67.11147308349609 4.917825222015381 61.93170166015625 C 2.649924993515015 56.56977462768555 1.5 50.87312316894531 1.5 45 C 1.5 39.12687683105469 2.649924993515015 33.43022537231445 4.917825222015381 28.06830024719238 C 7.108687400817871 22.88852500915527 10.24541282653809 18.23629951477051 14.2408504486084 14.2408504486084 C 18.23629951477051 10.24541282653809 22.88852500915527 7.108687400817871 28.06830024719238 4.917825222015381 C 33.43022537231445 2.649924993515015 39.12687683105469 1.5 45 1.5 C 50.87312316894531 1.5 56.56977462768555 2.649924993515015 61.93170166015625 4.917825222015381 C 67.11147308349609 7.108687400817871 71.76370239257812 10.24541282653809 75.75914764404297 14.2408504486084 C 79.75458526611328 18.23629951477051 82.89131164550781 22.88852500915527 85.08217620849609 28.06830024719238 C 87.35007476806641 33.43022537231445 88.5 39.12687683105469 88.5 45 C 88.5 50.87312316894531 87.35007476806641 56.56977462768555 85.08217620849609 61.93170166015625 C 82.89131164550781 67.11147308349609 79.75458526611328 71.76370239257812 75.75914764404297 75.75914764404297 C 71.76370239257812 79.75458526611328 67.11147308349609 82.89131164550781 61.93170166015625 85.08217620849609 C 56.56977462768555 87.35007476806641 50.87312316894531 88.5 45 88.5 Z" stroke="none"/>
                        <path d="M 45 3 C 39.32871246337891 3 33.82865524291992 4.110054016113281 28.65262985229492 6.299339294433594 C 23.65165710449219 8.414573669433594 19.15968322753906 11.44334411621094 15.301513671875 15.301513671875 C 11.44334411621094 19.15968322753906 8.414573669433594 23.65165710449219 6.299339294433594 28.65262985229492 C 4.110054016113281 33.82865524291992 3 39.32871246337891 3 45 C 3 50.67128753662109 4.110054016113281 56.17134475708008 6.299339294433594 61.34737396240234 C 8.414573669433594 66.34834289550781 11.44334411621094 70.84031677246094 15.301513671875 74.698486328125 C 19.15968322753906 78.55665588378906 23.65165710449219 81.58542633056641 28.65262985229492 83.70066070556641 C 33.82865524291992 85.88994598388672 39.32871246337891 87 45 87 C 50.67128753662109 87 56.17134475708008 85.88994598388672 61.34737396240234 83.70066070556641 C 66.34834289550781 81.58542633056641 70.84031677246094 78.55665588378906 74.698486328125 74.698486328125 C 78.55665588378906 70.84031677246094 81.58542633056641 66.34834289550781 83.70066070556641 61.34737396240234 C 85.88994598388672 56.17134475708008 87 50.67128753662109 87 45 C 87 39.32871246337891 85.88994598388672 33.82865524291992 83.70066070556641 28.65262985229492 C 81.58542633056641 23.65165710449219 78.55665588378906 19.15968322753906 74.698486328125 15.301513671875 C 70.84031677246094 11.44334411621094 66.34834289550781 8.414573669433594 61.34737396240234 6.299339294433594 C 56.17134475708008 4.110054016113281 50.67128753662109 3 45 3 M 45 0 C 69.85281372070312 0 90 20.14718627929688 90 45 C 90 69.85281372070312 69.85281372070312 90 45 90 C 20.14718627929688 90 0 69.85281372070312 0 45 C 0 20.14718627929688 20.14718627929688 0 45 0 Z" stroke="none" fill="#52797f"/>
                      </g>
                    </g>
                  </g>
                </g>
              </g>
            </g>
          </g>
        </g>
      </g>
    </g>
    <g id="escritura" transform="translate(850.763 704.755)">
      <g id="Grupo_1228239" data-name="Grupo 1228239" transform="translate(0.889 0.887)">
        <g id="Grupo_1228217" data-name="Grupo 1228217" transform="translate(0 19.002)">
          <path id="Trazado_1179028" data-name="Trazado 1179028" d="M9.866,168.345H47.224a2.363,2.363,0,0,1,2.363,2.363V205.7a2.363,2.363,0,0,1-2.363,2.363H9.866A2.363,2.363,0,0,1,7.5,205.7V170.708a2.363,2.363,0,0,1,2.363-2.363Z" transform="translate(-7.503 -168.345)" fill="#e8edf2"/>
        </g>
        <g id="Grupo_1228218" data-name="Grupo 1228218" transform="translate(8.605 19.002)">
          <path id="Trazado_1179029" data-name="Trazado 1179029" d="M113.821,170.708a2.363,2.363,0,0,0-2.363-2.363H83.084L81.413,171.3a5.456,5.456,0,0,0,3.036,7.864l-2.426,3.6-.177.263.009.006a5.357,5.357,0,0,0-.67,1.842l-.787,4.794a4.137,4.137,0,0,0,4.082,4.808h0a4.131,4.131,0,0,0,2.149-.606l4.15-2.527a5.274,5.274,0,0,0,1.457-1.311l.008.006,1.471-2.181a5.122,5.122,0,0,0,3.413,1.3h.978a5.114,5.114,0,0,0,2.19-.49,5.114,5.114,0,0,0,2.19.49h.978a5.152,5.152,0,0,0,4.754-3.18q.474.039.954.039h4.648V170.708Z" transform="translate(-80.342 -168.345)" fill="#c5d3dd"/>
        </g>
        <g id="Grupo_1228219" data-name="Grupo 1228219" transform="translate(0 19.002)">
          <path id="Trazado_1179030" data-name="Trazado 1179030" d="M10.508,205.7V170.708a2.363,2.363,0,0,1,2.363-2.363H9.866A2.363,2.363,0,0,0,7.5,170.708V205.7a2.363,2.363,0,0,0,2.363,2.363h3.005A2.363,2.363,0,0,1,10.508,205.7Z" transform="translate(-7.503 -168.345)" fill="#c5d3dd"/>
        </g>
        <g id="Grupo_1228220" data-name="Grupo 1228220" transform="translate(11.919 12.255)">
          <path id="Trazado_1179031" data-name="Trazado 1179031" d="M142.135,116.265a5.532,5.532,0,0,1-2.932-.841l-6.693-4.183H118.622a6.159,6.159,0,0,0-5.36,3.126l-4.544,8.029a2.5,2.5,0,0,0,2.171,3.724h1.718v.822a2.954,2.954,0,0,0,2.954,2.954h4.112l1.956,2.673h7.358l1.4-.63.105.046a8.469,8.469,0,0,0,3.412.718h7.3a8.468,8.468,0,0,0,2.43-.356l3.149-.943V116.265Z" transform="translate(-108.39 -111.241)" fill="#ffb8a9"/>
        </g>
        <g id="Grupo_1228221" data-name="Grupo 1228221" transform="translate(23.2 30.91)">
          <path id="Trazado_1179032" data-name="Trazado 1179032" d="M209.412,269.141h-5.529V272.9a2.19,2.19,0,0,0,2.19,2.19h.978a2.19,2.19,0,0,0,2.19-2.19,2.19,2.19,0,0,0,2.19,2.19h.978a2.19,2.19,0,0,0,2.19-2.19v-1.714l-4.14-1.822A2.607,2.607,0,0,0,209.412,269.141Z" transform="translate(-203.883 -269.141)" fill="#ff947e"/>
        </g>
        <g id="Grupo_1228222" data-name="Grupo 1228222" transform="translate(11.919 12.255)">
          <path id="Trazado_1179033" data-name="Trazado 1179033" d="M111.005,122.395l4.544-8.029a6.159,6.159,0,0,1,5.36-3.126h-2.29a6.159,6.159,0,0,0-5.36,3.126l-4.544,8.029a2.5,2.5,0,0,0,2.171,3.724h2.29A2.5,2.5,0,0,1,111.005,122.395Z" transform="translate(-108.389 -111.24)" fill="#ff947e"/>
        </g>
        <g id="Grupo_1228223" data-name="Grupo 1228223" transform="translate(11.559 32.882)">
          <path id="Trazado_1179034" data-name="Trazado 1179034" d="M107.99,285.836l-1.474,2.186a2.363,2.363,0,0,0-.373.938l-.787,4.794a1.181,1.181,0,0,0,1.78,1.2l4.15-2.527a2.364,2.364,0,0,0,.73-.7l1.474-2.186Z" transform="translate(-105.34 -285.836)" fill="#4a80aa"/>
        </g>
        <g id="Grupo_1228226" data-name="Grupo 1228226" transform="translate(14.208)">
          <g id="Grupo_1228225" data-name="Grupo 1228225">
            <g id="Grupo_1228224" data-name="Grupo 1228224">
              <path id="Trazado_1179035" data-name="Trazado 1179035" d="M133.269,44.1l-5.5-3.709L149.59,8.027a1.181,1.181,0,0,1,1.64-.319l3.542,2.388a1.181,1.181,0,0,1,.319,1.64Z" transform="translate(-127.768 -7.506)" fill="#dd636e"/>
            </g>
          </g>
        </g>
        <g id="Grupo_1228227" data-name="Grupo 1228227" transform="translate(11.558 32.882)">
          <path id="Trazado_1179036" data-name="Trazado 1179036" d="M108.117,290.292a2.364,2.364,0,0,1,.373-.938l1.474-2.186-1.975-1.332-1.474,2.186a2.364,2.364,0,0,0-.373.938l-.787,4.794a1.181,1.181,0,0,0,1.78,1.2l.24-.146Z" transform="translate(-105.339 -285.836)" fill="#407093"/>
        </g>
        <g id="Grupo_1228230" data-name="Grupo 1228230" transform="translate(14.208 0)">
          <g id="Grupo_1228229" data-name="Grupo 1228229">
            <g id="Grupo_1228228" data-name="Grupo 1228228">
              <path id="Trazado_1179037" data-name="Trazado 1179037" d="M153.206,9.04l-1.975-1.332a1.181,1.181,0,0,0-1.64.319L127.769,40.388l1.975,1.332L151.566,9.358a1.181,1.181,0,0,1,1.64-.319Z" transform="translate(-127.769 -7.506)" fill="#c63d4f"/>
            </g>
          </g>
        </g>
        <g id="Grupo_1228231" data-name="Grupo 1228231" transform="translate(16.135 21.647)">
          <path id="Trazado_1179038" data-name="Trazado 1179038" d="M161.345,192.832a2.6,2.6,0,0,1-1.746.674H146.658a2.58,2.58,0,0,0-2.58,2.58v.964A2.954,2.954,0,0,0,147.032,200h9.641l6.978-9.262Z" transform="translate(-144.078 -190.741)" fill="#ffb8a9"/>
        </g>
        <g id="Grupo_1228232" data-name="Grupo 1228232" transform="translate(16.135 24.412)">
          <path id="Trazado_1179039" data-name="Trazado 1179039" d="M146.054,217.685v-.964a2.58,2.58,0,0,1,2.58-2.58h-1.976a2.58,2.58,0,0,0-2.58,2.58v.964a2.954,2.954,0,0,0,2.954,2.954h1.976A2.954,2.954,0,0,1,146.054,217.685Z" transform="translate(-144.078 -214.141)" fill="#ff947e"/>
        </g>
        <g id="Grupo_1228235" data-name="Grupo 1228235" transform="translate(49.359 13.694)">
          <g id="Grupo_1228234" data-name="Grupo 1228234">
            <g id="Grupo_1228233" data-name="Grupo 1228233">
              <path id="Trazado_1179040" data-name="Trazado 1179040" d="M425.3,124.6v21.472a1.181,1.181,0,0,0,1.181,1.181h6.994a1.181,1.181,0,0,0,1.181-1.181V124.6a1.181,1.181,0,0,0-1.181-1.181h-6.994A1.181,1.181,0,0,0,425.3,124.6Z" transform="translate(-425.303 -123.421)" fill="#90d8f9"/>
            </g>
          </g>
        </g>
        <g id="Grupo_1228238" data-name="Grupo 1228238" transform="translate(49.359 13.694)">
          <g id="Grupo_1228237" data-name="Grupo 1228237">
            <g id="Grupo_1228236" data-name="Grupo 1228236">
              <path id="Trazado_1179041" data-name="Trazado 1179041" d="M427.642,146.074V124.6a1.181,1.181,0,0,1,1.181-1.181h-2.339A1.181,1.181,0,0,0,425.3,124.6v21.472a1.181,1.181,0,0,0,1.181,1.181h2.339A1.181,1.181,0,0,1,427.642,146.074Z" transform="translate(-425.303 -123.421)" fill="#75cef9"/>
            </g>
          </g>
        </g>
      </g>
      <g id="Grupo_1228240" data-name="Grupo 1228240" transform="translate(0.003 0)">
        <path id="Trazado_1179042" data-name="Trazado 1179042" d="M.889,171.792a.886.886,0,0,0,.886-.886v-6.812a1.478,1.478,0,0,1,1.477-1.477H10.48a.886.886,0,1,0,0-1.772H3.252A3.253,3.253,0,0,0,0,164.094v6.812a.886.886,0,0,0,.886.886Z" transform="translate(-0.003 -141.843)"/>
        <path id="Trazado_1179043" data-name="Trazado 1179043" d="M42.973,279.4a.886.886,0,0,0-.886.886v18.588a1.478,1.478,0,0,1-1.477,1.477H3.252a1.478,1.478,0,0,1-1.477-1.477V274.891a.886.886,0,0,0-1.772,0v23.983a3.253,3.253,0,0,0,3.249,3.249H40.61a3.253,3.253,0,0,0,3.249-3.249V280.285A.886.886,0,0,0,42.973,279.4Z" transform="translate(-0.003 -241.634)"/>
        <path id="Trazado_1179044" data-name="Trazado 1179044" d="M145.885,21.468a.886.886,0,0,0,.886-.886V15.763A2.07,2.07,0,0,0,144.7,13.7h-6.994a2.07,2.07,0,0,0-2.067,2.067V17.28h-2.809a4.639,4.639,0,0,1-2.462-.706l-5.859-3.662,3.038-4.506h0l1.884-2.793a2.067,2.067,0,0,0-.558-2.87L125.335.354a2.067,2.067,0,0,0-2.87.558l-7.649,11.344h-5.5a7.057,7.057,0,0,0-6.132,3.575l-4.544,8.029a3.381,3.381,0,0,0,2.943,5.046h.832a3.814,3.814,0,0,0,.266,1.339l-3.515,5.213a3.271,3.271,0,0,0-.512,1.29l-.787,4.794a2.064,2.064,0,0,0,3.115,2.1l4.15-2.527a3.227,3.227,0,0,0,1-.958l3.344-4.96v.354a3.08,3.08,0,0,0,3.076,3.076h.978a3.067,3.067,0,0,0,2.19-.919,3.067,3.067,0,0,0,2.19.919h.978a3.08,3.08,0,0,0,3.076-3.076V35.11a9.3,9.3,0,0,0,2.631.38h7.3a9.348,9.348,0,0,0,2.684-.393l1.053-.315v2.454A2.07,2.07,0,0,0,137.71,39.3H144.7a2.07,2.07,0,0,0,2.067-2.067V25.25a.886.886,0,1,0-1.772,0V37.235a.3.3,0,0,1-.3.3H137.71a.3.3,0,0,1-.3-.3V15.763a.3.3,0,0,1,.3-.3H144.7a.3.3,0,0,1,.3.3v4.819a.886.886,0,0,0,.886.886Zm-37.13,2.945,12.8-18.981,4.032,2.719L114.62,24.413ZM123.934,1.9a.3.3,0,0,1,.41-.08l3.542,2.388a.3.3,0,0,1,.08.41l-1.388,2.059-4.032-2.719ZM100.2,26.336a1.593,1.593,0,0,1-.01-1.6L104.73,16.7a5.282,5.282,0,0,1,4.589-2.676h4.3l-7,10.385h-.733a3.472,3.472,0,0,0-3.385,2.722h-.913A1.594,1.594,0,0,1,100.2,26.336Zm6.443,9.912-4.032-2.719,1.18-1.75a3.821,3.821,0,0,0,2.47.9h2.786Zm-1.969,2.92a1.465,1.465,0,0,1-.456.436l-4.15,2.527a.3.3,0,0,1-.445-.3l.787-4.794a1.489,1.489,0,0,1,.233-.587L101.616,35l4.032,2.719Zm8.868-2.31h-.978a1.306,1.306,0,0,1-1.3-1.3V32.683h3.587v2.871A1.306,1.306,0,0,1,113.538,36.858Zm5.359,0h-.978a1.306,1.306,0,0,1-1.3-1.3V32.839l3.587,1.579v1.136a1.306,1.306,0,0,1-1.3,1.3ZM134.08,33.4a7.579,7.579,0,0,1-2.176.319h-7.3a7.539,7.539,0,0,1-3.055-.643L117.3,31.207a3.471,3.471,0,0,0-1.406-.3h-9.641a2.07,2.07,0,0,1-2.067-2.067v-.964a1.7,1.7,0,0,1,1.694-1.694h12.941a3.479,3.479,0,0,0,2.341-.9l2.305-2.091a.886.886,0,0,0-1.191-1.313l-2.305,2.091a1.71,1.71,0,0,1-1.151.444h-2.068l6.764-10.03,5.911,3.694a6.411,6.411,0,0,0,3.4.975h2.809V32.931Z" transform="translate(-86.283 0)"/>
        <path id="Trazado_1179045" data-name="Trazado 1179045" d="M42.469,358.778h2.254a.886.886,0,1,0,0-1.772H42.469a.886.886,0,1,0,0,1.772Z" transform="translate(-36.671 -314.829)"/>
        <path id="Trazado_1179046" data-name="Trazado 1179046" d="M74.454,396.946H42.469a.886.886,0,1,0,0,1.772H74.454a.886.886,0,1,0,0-1.772Z" transform="translate(-36.671 -350.051)"/>
        <path id="Trazado_1179047" data-name="Trazado 1179047" d="M74.454,436.887H42.469a.886.886,0,0,0,0,1.772H74.454a.886.886,0,0,0,0-1.772Z" transform="translate(-36.671 -385.273)"/>
      </g>
    </g>
  </g>
</svg>
