<svg xmlns="http://www.w3.org/2000/svg" xmlns:xlink="http://www.w3.org/1999/xlink" width="103" height="103" viewBox="0 0 103 103">
  <defs>
    <filter id="Trazado_982547" x="0" y="0" width="103" height="103" filterUnits="userSpaceOnUse">
      <feOffset dy="3" input="SourceAlpha"/>
      <feGaussianBlur stdDeviation="3" result="blur"/>
      <feFlood flood-opacity="0.161"/>
      <feComposite operator="in" in2="blur"/>
      <feComposite in="SourceGraphic"/>
    </filter>
  </defs>
  <g id="Grupo_1228244" data-name="Grupo 1228244" transform="translate(-171 -1373)">
    <g id="Grupo_1227855" data-name="Grupo 1227855" transform="translate(-26.01 -3099)">
      <g id="Grupo_1203964" data-name="Grupo 1203964" transform="translate(206.01 4478)">
        <g id="Grupo_1203625" data-name="Grupo 1203625" transform="translate(0)">
          <g id="Grupo_1178314" data-name="Grupo 1178314" transform="translate(0 0)">
            <g id="Grupo_1173988" data-name="Grupo 1173988">
              <g id="Grupo_1172010" data-name="Grupo 1172010">
                <g id="Grupo_1171046" data-name="Grupo 1171046">
                  <g id="Grupo_1148525" data-name="Grupo 1148525">
                    <g transform="matrix(1, 0, 0, 1, -9, -6)" filter="url(#Trazado_982547)">
                      <g id="Trazado_982547-2" data-name="Trazado 982547" transform="translate(9 6)" fill="#f6f6fd">
                        <path d="M 42.5 83.5 C 36.96437835693359 83.5 31.59512901306152 82.41617584228516 26.54141235351562 80.27863311767578 C 21.65934181213379 78.21369171142578 17.27447128295898 75.25723266601562 13.50862312316895 71.49137878417969 C 9.742764472961426 67.72553253173828 6.786305904388428 63.34066009521484 4.721364498138428 58.45858764648438 C 2.583823442459106 53.40486907958984 1.5 48.03562164306641 1.5 42.5 C 1.5 36.96437835693359 2.583823442459106 31.59512901306152 4.721364498138428 26.54141235351562 C 6.786305904388428 21.65934181213379 9.742764472961426 17.27448272705078 13.50862312316895 13.50862312316895 C 17.27447128295898 9.742776870727539 21.65934181213379 6.786305904388428 26.54141235351562 4.721364498138428 C 31.59512901306152 2.583823442459106 36.96437835693359 1.5 42.5 1.5 C 48.03562164306641 1.5 53.40486907958984 2.583823442459106 58.45858764648438 4.721364498138428 C 63.34066009521484 6.786305904388428 67.72553253173828 9.742776870727539 71.49137878417969 13.50862312316895 C 75.25723266601562 17.27448272705078 78.21369171142578 21.65934181213379 80.27863311767578 26.54141235351562 C 82.41617584228516 31.59512901306152 83.5 36.96437835693359 83.5 42.5 C 83.5 48.03562164306641 82.41617584228516 53.40486907958984 80.27863311767578 58.45858764648438 C 78.21369171142578 63.34066009521484 75.25723266601562 67.72553253173828 71.49137878417969 71.49137878417969 C 67.72553253173828 75.25723266601562 63.34066009521484 78.21369171142578 58.45858764648438 80.27863311767578 C 53.40486907958984 82.41617584228516 48.03562164306641 83.5 42.5 83.5 Z" stroke="none"/>
                        <path d="M 42.5 3 C 37.16621398925781 3 31.99356079101562 4.043960571289062 27.125732421875 6.102882385253906 C 22.42246627807617 8.092185974121094 18.19785308837891 10.94070434570312 14.56928253173828 14.56928253173828 C 10.94070434570312 18.19785308837891 8.092185974121094 22.42246627807617 6.102882385253906 27.125732421875 C 4.043960571289062 31.99356079101562 3 37.16621398925781 3 42.5 C 3 47.83378601074219 4.043960571289062 53.00643920898438 6.102882385253906 57.87425231933594 C 8.092185974121094 62.57753372192383 10.94070434570312 66.80213165283203 14.56928253173828 70.43071746826172 C 18.19786834716797 74.05929565429688 22.42246627807617 76.90781402587891 27.125732421875 78.89711761474609 C 31.99356079101562 80.95603942871094 37.16621398925781 82 42.5 82 C 47.83378601074219 82 53.00642395019531 80.95603942871094 57.87425231933594 78.89711761474609 C 62.57753372192383 76.90781402587891 66.80213165283203 74.05929565429688 70.43071746826172 70.43071746826172 C 74.05929565429688 66.80213165283203 76.90781402587891 62.57753372192383 78.89711761474609 57.87425231933594 C 80.95603942871094 53.00642395019531 82 47.83378601074219 82 42.5 C 82 37.16621398925781 80.95603942871094 31.99356079101562 78.89711761474609 27.125732421875 C 76.90781402587891 22.42246627807617 74.05929565429688 18.19786834716797 70.43071746826172 14.56928253173828 C 66.80213165283203 10.94070434570312 62.57753372192383 8.092185974121094 57.87425231933594 6.102882385253906 C 53.00643920898438 4.043960571289062 47.83378601074219 3 42.5 3 M 42.5 0 C 65.97209167480469 0 85 19.02789306640625 85 42.5 C 85 65.97209167480469 65.97209167480469 85 42.5 85 C 19.02789306640625 85 0 65.97209167480469 0 42.5 C 0 19.02789306640625 19.02789306640625 0 42.5 0 Z" stroke="none" fill="#b1aef1"/>
                      </g>
                    </g>
                  </g>
                </g>
              </g>
            </g>
          </g>
        </g>
      </g>
    </g>
    <g id="salud" transform="translate(196.386 1394.886)">
      <g id="Flat_8_" transform="translate(0.767 0.767)">
        <path id="Trazado_1179048" data-name="Trazado 1179048" d="M7.5,473.5H58.2v3.066H7.5Z" transform="translate(-7.5 -425.871)" fill="#ebfdc0"/>
        <path id="Trazado_1179049" data-name="Trazado 1179049" d="M68.538,407.764H20.5v-5.11l18.261-2.331a5.11,5.11,0,0,1,5.758,5.069v0a5.11,5.11,0,0,1,5.758-5.069l18.261,2.331Z" transform="translate(-19.171 -360.135)" fill="#fff"/>
        <path id="Trazado_1179050" data-name="Trazado 1179050" d="M44.519,444.194a5.172,5.172,0,0,0-.048-.694H20.5v3.066H68.538V443.5H44.567A5.169,5.169,0,0,0,44.519,444.194Z" transform="translate(-19.171 -398.937)" fill="#e4e8ed"/>
        <path id="Trazado_1179051" data-name="Trazado 1179051" d="M111.853,109.968,98.068,96.128A8.808,8.808,0,0,1,110.548,83.7l1.305,1.31,1.305-1.31a8.808,8.808,0,0,1,12.48,12.432Z" transform="translate(-86.506 -73.581)" fill="#f88fa4"/>
        <path id="Trazado_1179052" data-name="Trazado 1179052" d="M125.645,154.748l-13.786,13.839L98.074,154.748a8.765,8.765,0,0,1-2.394-4.48,8.8,8.8,0,0,0,2.394,7.955l13.786,13.839,13.786-13.839a8.8,8.8,0,0,0,2.394-7.955A8.766,8.766,0,0,1,125.645,154.748Z" transform="translate(-86.512 -135.676)" fill="#f05475"/>
        <g id="Grupo_1228242" data-name="Grupo 1228242" transform="translate(3.271)">
          <path id="Trazado_1179053" data-name="Trazado 1179053" d="M49.721,281.566H46.655V278.5H42.566v3.066H39.5v4.088h3.066v3.066h4.088v-3.066h3.066Z" transform="translate(-39.5 -250.801)" fill="#ebfdc0"/>
          <path id="Trazado_1179054" data-name="Trazado 1179054" d="M413.721,10.566h-3.066V7.5h-4.088v3.066H403.5v4.088h3.066v3.066h4.088V14.655h3.066Z" transform="translate(-366.296 -7.5)" fill="#ebfdc0"/>
        </g>
      </g>
      <g id="Grupo_1228243" data-name="Grupo 1228243" transform="translate(13.032 10.834)">
        <path id="Trazado_1179055" data-name="Trazado 1179055" d="M157.5,106h1.533v1.533H157.5Z" transform="translate(-154.434 -106)" fill="#fff"/>
        <path id="Trazado_1179056" data-name="Trazado 1179056" d="M127.5,130h1.533v1.533H127.5Z" transform="translate(-127.5 -127.547)" fill="#fff"/>
      </g>
      <g id="Outline_8_" transform="translate(0)">
        <path id="Trazado_1179057" data-name="Trazado 1179057" d="M1.533,401.8H33.371v-1.533h-6.49v-1.606a4.344,4.344,0,0,1,4.334-4.345,4.431,4.431,0,0,1,.56.036l2.393.305.194-1.521-2.393-.305a5.983,5.983,0,0,0-.754-.048,5.87,5.87,0,0,0-5.1,2.975,5.87,5.87,0,0,0-5.1-2.975,5.965,5.965,0,0,0-.754.048L1.329,395.248v5.019H0v4.6H5.979v-1.533H1.533Zm1.329-5.2,17.592-2.246a4.445,4.445,0,0,1,.56-.036,4.344,4.344,0,0,1,4.334,4.345v1.606H2.862Z" transform="translate(0 -352.637)"/>
        <path id="Trazado_1179058" data-name="Trazado 1179058" d="M116.887,400.057,101.87,398.14l-.194,1.521,13.678,1.746v3.669H100.892v1.533h15.791v1.533H73.5v1.533h44.716v-4.6h-1.329Z" transform="translate(-65.988 -357.447)"/>
        <path id="Trazado_1179059" data-name="Trazado 1179059" d="M40.688,282.754v-3.066h3.066v-5.621H40.688V271H35.066v3.066H32v5.621h3.066v3.066Zm-7.155-4.6V275.6H36.6v-3.066h2.555V275.6h3.066v2.555H39.155v3.066H36.6v-3.066Z" transform="translate(-28.729 -243.302)"/>
        <path id="Trazado_1179060" data-name="Trazado 1179060" d="M404.688,3.066V0h-5.621V3.066H396V8.688h3.066v3.066h5.621V8.688h3.066V3.066Zm1.533,4.088h-3.066v3.066H400.6V7.155h-3.066V4.6H400.6V1.533h2.555V4.6h3.066Z" transform="translate(-355.525)"/>
        <path id="Trazado_1179061" data-name="Trazado 1179061" d="M20.5,219h1.533v1.533H20.5Z" transform="translate(-18.405 -196.616)"/>
        <path id="Trazado_1179062" data-name="Trazado 1179062" d="M475.5,219h1.533v1.533H475.5Z" transform="translate(-426.9 -196.616)"/>
        <path id="Trazado_1179063" data-name="Trazado 1179063" d="M90.167,86.278A8.042,8.042,0,0,1,103.284,77.5l1.848,1.856,1.848-1.856a7.987,7.987,0,0,1,5.7-2.366c.266,0,.536.013.8.04l.152-1.526c-.316-.031-.636-.047-.953-.047a9.51,9.51,0,0,0-6.783,2.817l-.762.765-.762-.765A9.576,9.576,0,0,0,88.752,86.868Z" transform="translate(-79.018 -66.08)"/>
        <path id="Trazado_1179064" data-name="Trazado 1179064" d="M356.47,86.294a8.013,8.013,0,0,1-.62,3.1l1.415.59a9.578,9.578,0,0,0-6.247-12.91l-.413,1.476a8.043,8.043,0,0,1,5.865,7.741Z" transform="translate(-314.77 -69.198)"/>
        <path id="Trazado_1179065" data-name="Trazado 1179065" d="M163.3,248.289l-1.086-1.082-10.758,10.8-10.758-10.8-1.086,1.082,11.844,11.89Z" transform="translate(-125.346 -221.94)"/>
        <path id="Trazado_1179066" data-name="Trazado 1179066" d="M65.385,150.636l4.143,10.139,3.39-11.568,2.651,8.228,3.214-4.243H92.405v-1.533H78.022l-1.9,2.5-3.277-10.169-3.56,12.145-3.625-8.872-2.714,4.393H50.5v1.533H63.806Z" transform="translate(-45.339 -129.276)"/>
      </g>
    </g>
  </g>
</svg>
