<svg xmlns="http://www.w3.org/2000/svg" xmlns:xlink="http://www.w3.org/1999/xlink" width="108" height="108" viewBox="0 0 108 108">
  <defs>
    <filter id="Fondo" x="0" y="0" width="108" height="108" filterUnits="userSpaceOnUse">
      <feOffset dy="3" input="SourceAlpha"/>
      <feGaussianBlur stdDeviation="3" result="blur"/>
      <feFlood flood-opacity="0.161"/>
      <feComposite operator="in" in2="blur"/>
      <feComposite in="SourceGraphic"/>
    </filter>
  </defs>
  <g id="Grupo_1230380" data-name="Grupo 1230380" transform="translate(-198.079 -2771.317)">
    <g id="Grupo_1230136" data-name="Grupo 1230136" transform="translate(-0.396 -7418.683)">
      <g id="Grupo_1220769" data-name="Grupo 1220769" transform="translate(207.475 10196)">
        <g id="Grupo_1220768" data-name="Grupo 1220768" transform="translate(0 0)">
          <g id="Grupo_1220472" data-name="Grupo 1220472">
            <g id="Grupo_1210004" data-name="Grupo 1210004">
              <g id="Grupo_1143757" data-name="Grupo 1143757" transform="translate(0)">
                <g transform="matrix(1, 0, 0, 1, -9, -6)" filter="url(#Fondo)">
                  <g id="Fondo-2" data-name="Fondo" transform="translate(9 6)" fill="#fff9f4">
                    <path d="M 44.99994659423828 88.4998779296875 C 39.12683486938477 88.4998779296875 33.43019485473633 87.34995269775391 28.06827163696289 85.08205413818359 C 22.88850975036621 82.89120483398438 18.23629570007324 79.75447845458984 14.24084663391113 75.75904083251953 C 10.24540901184082 71.76358795166016 7.108684062957764 67.11137390136719 4.917834281921387 61.93161392211914 C 2.649934053421021 56.5696907043457 1.500009059906006 50.87305068969727 1.500009059906006 44.99993896484375 C 1.500009059906006 39.12682723999023 2.649934053421021 33.4301872253418 4.917834281921387 28.06826400756836 C 7.108684062957764 22.88850212097168 10.24540901184082 18.23628807067871 14.24084663391113 14.2408390045166 C 18.23629570007324 10.24540138244629 22.88850975036621 7.108676433563232 28.06827163696289 4.917826652526855 C 33.43019485473633 2.649926424026489 39.12683486938477 1.500001430511475 44.99994659423828 1.500001430511475 C 50.8730583190918 1.500001430511475 56.56969833374023 2.649926424026489 61.93162155151367 4.917826652526855 C 67.11138153076172 7.108676433563232 71.76359558105469 10.24540138244629 75.75904846191406 14.2408390045166 C 79.75448608398438 18.23628807067871 82.89121246337891 22.88850212097168 85.08206176757812 28.06826400756836 C 87.34996032714844 33.4301872253418 88.49988555908203 39.12682723999023 88.49988555908203 44.99993896484375 C 88.49988555908203 50.87305068969727 87.34996032714844 56.5696907043457 85.08206176757812 61.93161392211914 C 82.89121246337891 67.11137390136719 79.75448608398438 71.76358795166016 75.75904846191406 75.75904083251953 C 71.76359558105469 79.75447845458984 67.11138153076172 82.89120483398438 61.93162155151367 85.08205413818359 C 56.56969833374023 87.34995269775391 50.8730583190918 88.4998779296875 44.99994659423828 88.4998779296875 Z" stroke="none"/>
                    <path d="M 44.99994659423828 2.999992370605469 C 39.32867431640625 2.999992370605469 33.82863235473633 4.110054016113281 28.65260314941406 6.299324035644531 C 23.65163421630859 8.41455078125 19.15967559814453 11.44332122802734 15.30150604248047 15.30149841308594 C 11.44332885742188 19.15966796875 8.414558410644531 23.65162658691406 6.299331665039062 28.65258026123047 C 4.110061645507812 33.82860946655273 3 39.32866668701172 3 44.99993896484375 C 3 50.67121124267578 4.110061645507812 56.1712532043457 6.299331665039062 61.34728240966797 C 8.414558410644531 66.34825134277344 11.44332885742188 70.8402099609375 15.30150604248047 74.69837951660156 C 19.15967559814453 78.55654907226562 23.65163421630859 81.5853271484375 28.65260314941406 83.70055389404297 C 33.82863235473633 85.88982391357422 39.32867431640625 86.9998779296875 44.99994659423828 86.9998779296875 C 50.67121887207031 86.9998779296875 56.17126083374023 85.88982391357422 61.3472900390625 83.70055389404297 C 66.34825897216797 81.5853271484375 70.84021759033203 78.55654907226562 74.69838714599609 74.69837951660156 C 78.55656433105469 70.8402099609375 81.58533477783203 66.34825134277344 83.7005615234375 61.34728240966797 C 85.88983154296875 56.1712532043457 86.99989318847656 50.67121124267578 86.99989318847656 44.99993896484375 C 86.99989318847656 39.32866668701172 85.88983154296875 33.82860946655273 83.7005615234375 28.65258026123047 C 81.58533477783203 23.65162658691406 78.55656433105469 19.15966796875 74.69838714599609 15.30149841308594 C 70.84021759033203 11.44332122802734 66.34825897216797 8.41455078125 61.3472900390625 6.299324035644531 C 56.17126083374023 4.110054016113281 50.67121887207031 2.999992370605469 44.99994659423828 2.999992370605469 M 44.99994659423828 -7.62939453125e-06 C 69.85272216796875 -7.62939453125e-06 89.99989318847656 20.14715576171875 89.99989318847656 44.99993896484375 C 89.99989318847656 69.85270690917969 69.85272216796875 89.99988555908203 44.99994659423828 89.99988555908203 C 20.14717864990234 89.99988555908203 0 69.85270690917969 0 44.99993896484375 C 0 20.14715576171875 20.14717864990234 -7.62939453125e-06 44.99994659423828 -7.62939453125e-06 Z" stroke="none" fill="#8b7157"/>
                  </g>
                </g>
              </g>
            </g>
          </g>
        </g>
      </g>
    </g>
    <g id="libro_2_" data-name="libro (2)" transform="translate(222.349 2771.173)">
      <g id="Grupo_1230378" data-name="Grupo 1230378" transform="translate(1.194 23.82)">
        <path id="Trazado_1181683" data-name="Trazado 1181683" d="M41.616,85.958H11.433c-1.423.519-1.413,2.591-1.413,4.12v36.93a3.6,3.6,0,0,0,3.891,3.616l23.027-.013a2.4,2.4,0,0,0,4.788,0Z" transform="translate(-10.02 -79.605)" fill="#d1aee4"/>
        <path id="Trazado_1181684" data-name="Trazado 1181684" d="M53.336,55.275a1.8,1.8,0,0,0-1.655,1.8v39.3a1.8,1.8,0,0,0,1.95,1.8l22.515-.1.4-42.792H53.336Z" transform="translate(-46.716 -52.578)" fill="#fffbdf"/>
        <path id="Trazado_1181685" data-name="Trazado 1181685" d="M284.092,55.386c2.9-5.388-1.7-7.644-1.7-7.644a5.309,5.309,0,0,0-3.214-5.628c0-8.111-7.247-5.871-7.247-5.871-2.069-4.233-7.166-3.3-7.166-3.3-.3-.3-1.338-.3-1.338-.3A6.608,6.608,0,0,0,256.98,39.4V76.174c0,3.732,1.038,8.645,6.449,8.645,3.822-.208,5.06-3.021,5.669-4.085,8.62,3.04,8.574-5.8,8.574-5.8,8.7-1.5,4.84-9.894,4.84-9.894C289.423,61.872,284.092,55.386,284.092,55.386Z" transform="translate(-227.551 -32.644)" fill="#ff9eb1"/>
      </g>
      <g id="Grupo_1230379" data-name="Grupo 1230379" transform="translate(0 22.626)">
        <circle id="Elipse_12887" data-name="Elipse 12887" cx="1.199" cy="1.199" r="1.199" transform="translate(29.424 24.68)"/>
        <path id="Trazado_1181686" data-name="Trazado 1181686" d="M61.013,50.936a6.8,6.8,0,0,0-1.7-4.5,5.989,5.989,0,0,0-1.976-8.186c.008-.13.014-.261.014-.392a5.964,5.964,0,0,0-3.219-5.311c.008-.131.013-.263.013-.4a6.4,6.4,0,0,0-7.975-6.2,6.668,6.668,0,0,0-7.348-2.959,3.873,3.873,0,0,0-1.787-.365,7.466,7.466,0,0,0-5.712,2.7H7.787q-.048,0-.1,0a3,3,0,0,0-2.746,2.979v1.461h-1.6A3.347,3.347,0,0,0,0,33.11V71.561a4.9,4.9,0,0,0,5.131,4.77H27.326a3.6,3.6,0,0,0,6.339.037,7.318,7.318,0,0,0,3.368.821,7.556,7.556,0,0,0,6.539-3.878,6.827,6.827,0,0,0,8.97-6.081,7.093,7.093,0,0,0,5.172-10.451,6.83,6.83,0,0,0,3.3-5.842ZM31.655,75.027a1.21,1.21,0,0,1-2.3,0,1.694,1.694,0,0,0-1.245-1.085H5.085a2.551,2.551,0,0,1-2.7-2.382V33.11a.956.956,0,0,1,.955-.955h1.6v35.46A3.185,3.185,0,0,0,8.123,70.6H29.537A8.006,8.006,0,0,0,31.7,74.911,1.224,1.224,0,0,0,31.655,75.027ZM54.185,55.376a1.194,1.194,0,0,0,0,2.388,6.827,6.827,0,0,0,1.266-.12,4.7,4.7,0,0,1-3.188,7.213A6.842,6.842,0,0,0,45.727,60a1.473,1.473,0,0,0-.164.008,1.194,1.194,0,0,0,.182,2.38,4.445,4.445,0,0,1,4.385,3.873,4.377,4.377,0,0,1,.037.567,4.442,4.442,0,0,1-5.731,4.249,8.2,8.2,0,0,0,.2-1.8,1.194,1.194,0,0,0-2.388,0,5.225,5.225,0,1,1-10.433,0V53.908a1.194,1.194,0,1,0-2.388,0v14.3H8.081c-.349,0-.748-.163-.748-.595V28.305a.6.6,0,0,1,.516-.595H29.932a8.15,8.15,0,0,0-.5,2.826V43.149a1.194,1.194,0,1,0,2.388,0V30.536a5.517,5.517,0,0,1,3.518-5.221,1.194,1.194,0,0,0,1.993,1.235,4.29,4.29,0,1,1,5.135,6.714,1.194,1.194,0,1,0,1.1,2.118,6.69,6.69,0,0,0,3.477-7.18,4.011,4.011,0,0,1,4.712,3.948,4.009,4.009,0,0,1-2.428,3.687,1.194,1.194,0,1,0,.943,2.194A6.421,6.421,0,0,0,53.5,34.955a3.587,3.587,0,0,1,1.465,2.9,3.658,3.658,0,0,1-.089.8,1.208,1.208,0,0,0,.7,1.363,3.6,3.6,0,0,1,1.843,4.9,6.785,6.785,0,0,0-3.233-.816,1.194,1.194,0,0,0,0,2.388,4.44,4.44,0,1,1,0,8.88Z" transform="translate(0 -22.626)"/>
        <path id="Trazado_1181687" data-name="Trazado 1181687" d="M297.57,113.306a1.194,1.194,0,0,0,1.26-2.029,3.083,3.083,0,0,1-.991-4.24,1.194,1.194,0,1,0-2.029-1.26A5.473,5.473,0,0,0,297.57,113.306Z" transform="translate(-259.836 -95.371)"/>
        <path id="Trazado_1181688" data-name="Trazado 1181688" d="M295.27,322.523a2.227,2.227,0,0,1-3.091-.589,1.194,1.194,0,0,0-1.975,1.343,4.616,4.616,0,0,0,6.408,1.221,1.194,1.194,0,1,0-1.342-1.975Z" transform="translate(-255.44 -285.806)"/>
        <path id="Trazado_1181689" data-name="Trazado 1181689" d="M309.433,226.8c.783,1.457,2.8.164,2.1-1.13a2.227,2.227,0,0,1,.907-3.013,1.194,1.194,0,0,0-1.13-2.1A4.618,4.618,0,0,0,309.433,226.8Z" transform="translate(-272.077 -196.838)"/>
        <path id="Trazado_1181690" data-name="Trazado 1181690" d="M389.425,245.68a2.225,2.225,0,0,1-1.483-2.775,1.194,1.194,0,1,0-2.285-.694,4.613,4.613,0,0,0,3.074,5.754A1.2,1.2,0,0,0,389.425,245.68Z" transform="translate(-339.523 -215.298)"/>
        <path id="Trazado_1181691" data-name="Trazado 1181691" d="M376.064,159.294a1.194,1.194,0,0,0,.346-2.337,2.228,2.228,0,0,1-1.483-2.775,1.194,1.194,0,0,0-2.285-.694,4.618,4.618,0,0,0,3.074,5.754A1.191,1.191,0,0,0,376.064,159.294Z" transform="translate(-328.061 -137.148)"/>
        <path id="Trazado_1181692" data-name="Trazado 1181692" d="M101.9,123.336H88.175a1.194,1.194,0,0,0,0,2.388H101.9a1.194,1.194,0,1,0,0-2.388Z" transform="translate(-76.616 -111.335)"/>
        <path id="Trazado_1181693" data-name="Trazado 1181693" d="M101.9,169.187H88.175a1.194,1.194,0,0,0,0,2.388H101.9a1.194,1.194,0,1,0,0-2.388Z" transform="translate(-76.616 -151.722)"/>
        <path id="Trazado_1181694" data-name="Trazado 1181694" d="M101.9,215.038H88.175a1.194,1.194,0,0,0,0,2.388H101.9a1.194,1.194,0,1,0,0-2.388Z" transform="translate(-76.616 -192.109)"/>
        <path id="Trazado_1181695" data-name="Trazado 1181695" d="M101.9,260.889H88.175a1.194,1.194,0,0,0,0,2.388H101.9a1.194,1.194,0,1,0,0-2.388Z" transform="translate(-76.616 -232.496)"/>
        <path id="Trazado_1181696" data-name="Trazado 1181696" d="M101.9,306.741H88.175a1.194,1.194,0,0,0,0,2.388H101.9a1.194,1.194,0,1,0,0-2.388Z" transform="translate(-76.616 -272.884)"/>
      </g>
    </g>
  </g>
</svg>
