<svg xmlns="http://www.w3.org/2000/svg" xmlns:xlink="http://www.w3.org/1999/xlink" width="103" height="103" viewBox="0 0 103 103">
  <defs>
    <filter id="Trazado_982547" x="0" y="0" width="103" height="103" filterUnits="userSpaceOnUse">
      <feOffset dy="3" input="SourceAlpha"/>
      <feGaussianBlur stdDeviation="3" result="blur"/>
      <feFlood flood-opacity="0.161"/>
      <feComposite operator="in" in2="blur"/>
      <feComposite in="SourceGraphic"/>
    </filter>
  </defs>
  <g id="Grupo_1228246" data-name="Grupo 1228246" transform="translate(-215 -323)">
    <g id="Grupo_1227857" data-name="Grupo 1227857" transform="translate(224 329)">
      <g id="Grupo_1203964" data-name="Grupo 1203964" transform="translate(0)">
        <g id="Grupo_1203625" data-name="Grupo 1203625" transform="translate(0 0)">
          <g id="Grupo_1178314" data-name="Grupo 1178314">
            <g id="Grupo_1173988" data-name="Grupo 1173988">
              <g id="Grupo_1172010" data-name="Grupo 1172010">
                <g id="Grupo_1171046" data-name="Grupo 1171046">
                  <g id="Grupo_1148525" data-name="Grupo 1148525">
                    <g transform="matrix(1, 0, 0, 1, -9, -6)" filter="url(#Trazado_982547)">
                      <g id="Trazado_982547-2" data-name="Trazado 982547" transform="translate(9 6)" fill="#f6f6fd">
                        <path d="M 42.5 83.5 C 36.96437835693359 83.5 31.59512901306152 82.41617584228516 26.54141235351562 80.27863311767578 C 21.65934181213379 78.21369171142578 17.27447128295898 75.25723266601562 13.50862312316895 71.49137878417969 C 9.742764472961426 67.72553253173828 6.786305904388428 63.34066009521484 4.721364498138428 58.45858764648438 C 2.583823442459106 53.40486907958984 1.5 48.03562164306641 1.5 42.5 C 1.5 36.96437835693359 2.583823442459106 31.59512901306152 4.721364498138428 26.54141235351562 C 6.786305904388428 21.65934181213379 9.742764472961426 17.27448272705078 13.50862312316895 13.50862312316895 C 17.27447128295898 9.742776870727539 21.65934181213379 6.786305904388428 26.54141235351562 4.721364498138428 C 31.59512901306152 2.583823442459106 36.96437835693359 1.5 42.5 1.5 C 48.03562164306641 1.5 53.40486907958984 2.583823442459106 58.45858764648438 4.721364498138428 C 63.34066009521484 6.786305904388428 67.72553253173828 9.742776870727539 71.49137878417969 13.50862312316895 C 75.25723266601562 17.27448272705078 78.21369171142578 21.65934181213379 80.27863311767578 26.54141235351562 C 82.41617584228516 31.59512901306152 83.5 36.96437835693359 83.5 42.5 C 83.5 48.03562164306641 82.41617584228516 53.40486907958984 80.27863311767578 58.45858764648438 C 78.21369171142578 63.34066009521484 75.25723266601562 67.72553253173828 71.49137878417969 71.49137878417969 C 67.72553253173828 75.25723266601562 63.34066009521484 78.21369171142578 58.45858764648438 80.27863311767578 C 53.40486907958984 82.41617584228516 48.03562164306641 83.5 42.5 83.5 Z" stroke="none"/>
                        <path d="M 42.5 3 C 37.16621398925781 3 31.99356079101562 4.043960571289062 27.125732421875 6.102882385253906 C 22.42246627807617 8.092185974121094 18.19785308837891 10.94070434570312 14.56928253173828 14.56928253173828 C 10.94070434570312 18.19785308837891 8.092185974121094 22.42246627807617 6.102882385253906 27.125732421875 C 4.043960571289062 31.99356079101562 3 37.16621398925781 3 42.5 C 3 47.83378601074219 4.043960571289062 53.00643920898438 6.102882385253906 57.87425231933594 C 8.092185974121094 62.57753372192383 10.94070434570312 66.80213165283203 14.56928253173828 70.43071746826172 C 18.19786834716797 74.05929565429688 22.42246627807617 76.90781402587891 27.125732421875 78.89711761474609 C 31.99356079101562 80.95603942871094 37.16621398925781 82 42.5 82 C 47.83378601074219 82 53.00642395019531 80.95603942871094 57.87425231933594 78.89711761474609 C 62.57753372192383 76.90781402587891 66.80213165283203 74.05929565429688 70.43071746826172 70.43071746826172 C 74.05929565429688 66.80213165283203 76.90781402587891 62.57753372192383 78.89711761474609 57.87425231933594 C 80.95603942871094 53.00642395019531 82 47.83378601074219 82 42.5 C 82 37.16621398925781 80.95603942871094 31.99356079101562 78.89711761474609 27.125732421875 C 76.90781402587891 22.42246627807617 74.05929565429688 18.19786834716797 70.43071746826172 14.56928253173828 C 66.80213165283203 10.94070434570312 62.57753372192383 8.092185974121094 57.87425231933594 6.102882385253906 C 53.00643920898438 4.043960571289062 47.83378601074219 3 42.5 3 M 42.5 0 C 65.97209167480469 0 85 19.02789306640625 85 42.5 C 85 65.97209167480469 65.97209167480469 85 42.5 85 C 19.02789306640625 85 0 65.97209167480469 0 42.5 C 0 19.02789306640625 19.02789306640625 0 42.5 0 Z" stroke="none" fill="#52797f"/>
                      </g>
                    </g>
                  </g>
                </g>
              </g>
            </g>
          </g>
        </g>
      </g>
    </g>
    <g id="cerebro" transform="translate(235.687 342.369)">
      <path id="Trazado_1179067" data-name="Trazado 1179067" d="M62.867,89.375a6.129,6.129,0,0,1,.487,2.386A6.2,6.2,0,0,1,51.51,94.329c-2.577,1.231-3.426,3.9-3.426,6.872v4.4H43.312V97.965a5.727,5.727,0,0,0-5.726-5.726H26.133a5.726,5.726,0,0,1-5.726-5.573,5.385,5.385,0,0,1,.84-3.016H15.635a7.635,7.635,0,0,1,0-15.27,8.1,8.1,0,0,1,1.088.076v-.076a7.064,7.064,0,0,1-.134-1.432,7.158,7.158,0,0,1,7.158-7.158,6.834,6.834,0,0,1,3.054.7,7.635,7.635,0,0,1,14.229.754A8.112,8.112,0,1,1,53.266,71.805a.18.18,0,0,1,0,.067,6.6,6.6,0,0,1,4.361-1.584,6.68,6.68,0,0,1,6.681,6.681,6.577,6.577,0,0,1-1.737,4.486,5.726,5.726,0,0,1,1.737,4.1,5.66,5.66,0,0,1-1.441,3.818Zm0,0" transform="translate(-7.046 -49.292)" fill="#ff9ab3"/>
      <path id="Trazado_1179068" data-name="Trazado 1179068" d="M56.776,74.545a7.635,7.635,0,0,0-6.194-12.092,7.437,7.437,0,0,0-1.661.191,9.177,9.177,0,0,0,.706-3.531,9.048,9.048,0,0,0-15.366-6.5,8.59,8.59,0,0,0-14.936-.219,7.765,7.765,0,0,0-2.625-.439,8.122,8.122,0,0,0-8.112,8.112v.477a8.589,8.589,0,1,0,0,17.179h4.133a6.2,6.2,0,0,0-.315,2.09,6.681,6.681,0,0,0,6.681,6.5H30.54a4.772,4.772,0,0,1,4.772,4.772v7.635a.954.954,0,0,0,.954.954h4.772a.954.954,0,0,0,.954-.954v-4.4c0-2.625.716-4.486,2.119-5.536a7.158,7.158,0,0,0,13.151-3.9,7.007,7.007,0,0,0-.363-2.233,6.681,6.681,0,0,0,1.317-3.97,6.749,6.749,0,0,0-1.441-4.133ZM50.1,90.13a5.22,5.22,0,0,1-4.772-3.083,5.123,5.123,0,0,1-.477-2.166H42.947a7.069,7.069,0,0,0,.334,2.147c-1.594,1.05-3.2,3.1-3.2,7.292v3.445H37.221V91.084A6.68,6.68,0,0,0,30.54,84.4H19.088a4.772,4.772,0,0,1-4.772-4.648,4.5,4.5,0,0,1,.7-2.491,5.114,5.114,0,0,1,2.023-1.851,5.835,5.835,0,0,0,.563-.229,4.909,4.909,0,0,1,1.727-.324h8.351A5.727,5.727,0,0,0,33.4,69.133H31.495a3.818,3.818,0,0,1-3.818,3.818H19.326a7.076,7.076,0,0,0-3.044.706,4.661,4.661,0,0,1-1.508.248,4.773,4.773,0,0,1-3.55-1.594L9.792,73.59a6.682,6.682,0,0,0,3.989,2.138l-.057.086H8.589a6.681,6.681,0,1,1,3.7-12.226,7.063,7.063,0,0,0,.764,6.06l1.6-1.031a5.269,5.269,0,0,1,0-5.65l-1.069-.687.057-.076a8.271,8.271,0,0,0-3.1-1.422,5.924,5.924,0,0,1-.048-.716,6.213,6.213,0,0,1,6.2-6.2,5.873,5.873,0,0,1,2.672.62h.067a6.024,6.024,0,0,1,2.634,2.462l1.661-.954A8.04,8.04,0,0,0,21,53.233a6.681,6.681,0,0,1,11.882,1.031A8.721,8.721,0,0,0,31.6,57.509l1.909.344a7.158,7.158,0,1,1,12.044,6.385l.143.143-.658.658a5.041,5.041,0,0,1,.43.468l.057.086a5.555,5.555,0,0,1,1.241,3.541,5.727,5.727,0,0,1-5.726,5.726v1.909A7.635,7.635,0,0,0,47.585,65.22a5.652,5.652,0,0,1,3-.859,5.727,5.727,0,0,1,5.726,5.726,5.611,5.611,0,0,1-.954,3.121A6.6,6.6,0,0,0,51.536,72v1.909a4.7,4.7,0,0,1,3.321,1.355,4.772,4.772,0,0,1-3.321,8.189v1.909a6.68,6.68,0,0,0,3.751-1.165,5.579,5.579,0,0,1,.067.687A5.259,5.259,0,0,1,50.1,90.13Zm0,0" transform="translate(0 -42.411)" fill="#eb7f9a"/>
      <path id="Trazado_1179069" data-name="Trazado 1179069" d="M171.453,304H160v1.909h11.453a9.543,9.543,0,0,1,8.408,5.03l1.679-.9A11.452,11.452,0,0,0,171.453,304Zm0,0" transform="translate(-140.913 -267.734)" fill="#eb7f9a"/>
      <path id="Trazado_1179070" data-name="Trazado 1179070" d="M396.772,288A4.772,4.772,0,0,0,392,292.772h1.909a2.863,2.863,0,0,1,2.863-2.863Zm0,0" transform="translate(-345.236 -253.642)" fill="#eb7f9a"/>
      <path id="Trazado_1179071" data-name="Trazado 1179071" d="M172.984,58.388a10.5,10.5,0,0,1-6.156,9.544h-8.684a10.5,10.5,0,1,1,14.84-9.544Zm0,0" transform="translate(-133.854 -42.163)" fill="#fce013"/>
      <path id="Trazado_1179072" data-name="Trazado 1179072" d="M193.544,125.361h-1.909v-7.635h-1.909v7.635h-1.909v-7.635h-.954a2.863,2.863,0,1,1,2.863-2.863v.954h1.909v-.954a2.863,2.863,0,1,1,2.863,2.863h-.954Zm0-9.544h.954a.954.954,0,1,0-.954-.954Zm-6.681-1.909a.954.954,0,0,0,0,1.909h.954v-.954A.954.954,0,0,0,186.863,113.909Zm0,0" transform="translate(-162.049 -98.639)" fill="#f95925"/>
      <path id="Trazado_1179073" data-name="Trazado 1179073" d="M212.286,216a5.139,5.139,0,0,1-.525.229v4.543h-7.635v-4.543A5.134,5.134,0,0,1,203.6,216Zm0,0" transform="translate(-179.312 -190.232)" fill="#3dcde7"/>
      <g id="Grupo_1228245" data-name="Grupo 1228245" transform="translate(10.498)">
        <path id="Trazado_1179074" data-name="Trazado 1179074" d="M216,256h5.726v.954a2.863,2.863,0,0,1-5.726,0Zm0,0" transform="translate(-200.73 -225.46)" fill="#f95925"/>
        <path id="Trazado_1179075" data-name="Trazado 1179075" d="M332.98,186.743l.954-1.653,2.48,1.431-.954,1.653Zm0,0" transform="translate(-303.755 -163.009)" fill="#f95925"/>
        <path id="Trazado_1179076" data-name="Trazado 1179076" d="M118.273,186.513l2.48-1.431.954,1.653-2.48,1.431Zm0,0" transform="translate(-114.662 -163.002)" fill="#f95925"/>
        <path id="Trazado_1179077" data-name="Trazado 1179077" d="M332.984,62.509l2.48-1.431.954,1.653-2.48,1.431Zm0,0" transform="translate(-303.758 -53.792)" fill="#f95925"/>
        <path id="Trazado_1179078" data-name="Trazado 1179078" d="M232,0h1.909V2.863H232Zm0,0" transform="translate(-214.821)" fill="#f95925"/>
        <path id="Trazado_1179079" data-name="Trazado 1179079" d="M118.254,62.653,119.208,61l2.48,1.431-.954,1.653Zm0,0" transform="translate(-114.645 -53.723)" fill="#f95925"/>
        <path id="Trazado_1179080" data-name="Trazado 1179080" d="M289.063,4.52,291.448.387l1.653.954-2.385,4.133Zm0,0" transform="translate(-265.077 -0.341)" fill="#f95925"/>
        <path id="Trazado_1179081" data-name="Trazado 1179081" d="M157.109,233.129,159.494,229l1.653.954-2.385,4.133Zm0,0" transform="translate(-148.864 -201.678)" fill="#f95925"/>
        <path id="Trazado_1179082" data-name="Trazado 1179082" d="M157.1,1.345l1.653-.954,2.386,4.133-1.653.954Zm0,0" transform="translate(-148.855 -0.344)" fill="#f95925"/>
        <path id="Trazado_1179083" data-name="Trazado 1179083" d="M289.094,229.993l1.653-.954,2.386,4.133-1.653.954Zm0,0" transform="translate(-265.104 -201.715)" fill="#f95925"/>
        <path id="Trazado_1179084" data-name="Trazado 1179084" d="M88,128h4.772v1.909H88Zm0,0" transform="translate(-88 -112.73)" fill="#f95925"/>
        <path id="Trazado_1179085" data-name="Trazado 1179085" d="M352,128h4.772v1.909H352Zm0,0" transform="translate(-320.506 -112.73)" fill="#f95925"/>
      </g>
      <path id="Trazado_1179086" data-name="Trazado 1179086" d="M50.582,86.552a7.437,7.437,0,0,0-1.661.191,9.178,9.178,0,0,0,.706-3.531,9.029,9.029,0,0,0-4.266-7.692L44.35,77.142a7.148,7.148,0,0,1,1.842,10.5,7.924,7.924,0,0,0-1.221-.954l-.954,1.641a5.726,5.726,0,0,1-2.978,10.632v1.909A7.635,7.635,0,0,0,47.595,89.32a5.537,5.537,0,0,1,2.987-.859,5.727,5.727,0,0,1,5.726,5.726,5.611,5.611,0,0,1-.954,3.121A6.6,6.6,0,0,0,51.536,96.1V98a4.7,4.7,0,0,1,3.321,1.355,4.772,4.772,0,0,1-3.321,8.189v1.909a6.68,6.68,0,0,0,3.751-1.165,5.58,5.58,0,0,1,.067.687,5.249,5.249,0,0,1-10.5,0H42.947a6.954,6.954,0,0,0,.334,2.147c-1.6,1.059-3.2,3.149-3.2,7.292v3.445H37.221v-6.681A6.68,6.68,0,0,0,30.54,108.5H19.087a4.772,4.772,0,0,1-4.772-4.638,4.867,4.867,0,0,1,3.207-4.572l-.067-.172.2-.1-.716-1.241-.1-.257-.1-.172a4.772,4.772,0,0,1-5.946-.954L9.372,97.671a6.739,6.739,0,0,0,4.39,2.2H8.589a6.681,6.681,0,1,1,0-13.361,6.593,6.593,0,0,1,3.932,1.288l1.126-1.546a8.442,8.442,0,0,0-3.1-1.4,6.1,6.1,0,0,1-.048-.678v-.477H15.27V81.78H10.985A6.1,6.1,0,0,1,12.98,79.2l-1.145-1.527a8.045,8.045,0,0,0-3.245,6.49v.477a8.589,8.589,0,0,0,0,17.179h4.123a6.384,6.384,0,0,0-.305,2.09,6.681,6.681,0,0,0,6.681,6.5H30.54a4.772,4.772,0,0,1,4.772,4.772v7.635a.954.954,0,0,0,.954.954h4.772a.954.954,0,0,0,.954-.954v-4.4c0-2.634.716-4.486,2.119-5.536a7.158,7.158,0,0,0,13.151-3.9,7.007,7.007,0,0,0-.363-2.233,6.681,6.681,0,0,0,1.317-3.97,6.749,6.749,0,0,0-1.441-4.133,7.635,7.635,0,0,0-6.194-12.092Zm0,0" transform="translate(0 -66.51)"/>
      <path id="Trazado_1179087" data-name="Trazado 1179087" d="M179.86,310.947l1.679-.954A11.452,11.452,0,0,0,171.452,304H160v1.909h11.453A9.545,9.545,0,0,1,179.86,310.947Zm0,0" transform="translate(-140.912 -267.733)"/>
      <path id="Trazado_1179088" data-name="Trazado 1179088" d="M396.772,289.909V288A4.772,4.772,0,0,0,392,292.772h1.909A2.863,2.863,0,0,1,396.772,289.909Zm0,0" transform="translate(-345.236 -253.642)"/>
      <path id="Trazado_1179089" data-name="Trazado 1179089" d="M150.672,61.793v3.913a.954.954,0,0,0,.954.954,3.818,3.818,0,1,0,7.635,0,.954.954,0,0,0,.954-.954V61.793a11.453,11.453,0,1,0-9.544,0Zm3.818.1h3.818v2.863h-5.726V61.889Zm-1.909-9.544h-.954a.954.954,0,1,1,.954-.954ZM156.4,59.98H154.49V54.254H156.4Zm-.954,8.589a1.909,1.909,0,0,1-1.909-1.909h3.818A1.909,1.909,0,0,1,155.444,68.569Zm0-26.723a9.544,9.544,0,0,1,3.818,18.276V59.98h-.954V54.254h.954a2.863,2.863,0,1,0-2.863-2.863v.954H154.49v-.954a2.863,2.863,0,1,0-2.863,2.863h.954V59.98h-.954v.143a9.544,9.544,0,0,1,3.818-18.276Zm2.863,10.5v-.954a.954.954,0,1,1,.954.954Zm0,0" transform="translate(-126.813 -35.166)"/>
      <path id="Trazado_1179090" data-name="Trazado 1179090" d="M118.215,186.475l2.48-1.432.954,1.653-2.48,1.432Zm0,0" transform="translate(-104.112 -162.968)"/>
      <path id="Trazado_1179091" data-name="Trazado 1179091" d="M332.984,62.509l2.48-1.431.954,1.653-2.48,1.431Zm0,0" transform="translate(-293.26 -53.792)"/>
      <path id="Trazado_1179092" data-name="Trazado 1179092" d="M232,0h1.909V2.863H232Zm0,0" transform="translate(-204.323)"/>
      <path id="Trazado_1179093" data-name="Trazado 1179093" d="M333.016,186.727l.954-1.653,2.48,1.432-.954,1.653Zm0,0" transform="translate(-293.288 -162.996)"/>
      <path id="Trazado_1179094" data-name="Trazado 1179094" d="M118.254,62.653,119.208,61l2.48,1.431-.954,1.653Zm0,0" transform="translate(-104.147 -53.723)"/>
      <path id="Trazado_1179095" data-name="Trazado 1179095" d="M289.1,4.472,291.491.34l1.653.954-2.386,4.133Zm0,0" transform="translate(-254.616 -0.299)"/>
      <path id="Trazado_1179096" data-name="Trazado 1179096" d="M157.109,233.129,159.494,229l1.653.954-2.385,4.133Zm0,0" transform="translate(-138.366 -201.678)"/>
      <path id="Trazado_1179097" data-name="Trazado 1179097" d="M157.1,1.345l1.653-.954,2.386,4.133-1.653.954Zm0,0" transform="translate(-138.357 -0.344)"/>
      <path id="Trazado_1179098" data-name="Trazado 1179098" d="M289.094,229.993l1.653-.954,2.386,4.133-1.653.954Zm0,0" transform="translate(-254.606 -201.715)"/>
      <path id="Trazado_1179099" data-name="Trazado 1179099" d="M352,128h4.772v1.909H352Zm0,0" transform="translate(-310.007 -112.73)"/>
    </g>
  </g>
</svg>
