<svg xmlns="http://www.w3.org/2000/svg" xmlns:xlink="http://www.w3.org/1999/xlink" width="400" height="358" viewBox="0 0 400 358">
  <defs>
    <clipPath id="clip-path">
      <rect id="Rectángulo_422842" data-name="Rectángulo 422842" width="400" height="358" transform="translate(1019.168 3316.191)" fill="#fff" stroke="#707070" stroke-width="1"/>
    </clipPath>
    <clipPath id="clip-path-2">
      <rect id="Rectángulo_422844" data-name="Rectángulo 422844" width="491" height="490" transform="translate(-0.232 0.306)"/>
    </clipPath>
  </defs>
  <g id="Enmascarar_grupo_1211495" data-name="Enmascarar grupo 1211495" transform="translate(-1019.168 -3316.191)" clip-path="url(#clip-path)">
    <g id="Grupo_1228280" data-name="Grupo 1228280" transform="translate(973.401 3281.885)">
      <g id="Grupo_1228260" data-name="Grupo 1228260" transform="translate(0 0)">
        <g id="Grupo_1228259" data-name="Grupo 1228259" transform="translate(0 0)" clip-path="url(#clip-path-2)">
          <path id="Trazado_1179173" data-name="Trazado 1179173" d="M102.178.062A86.735,86.735,0,0,1,213.1,66.622c4.643,24.307-1.2,49.915,4.926,73.89,6.242,24.417,25.045,44.847,48.163,54.883s50.026,10.047,73.874,1.9c20.332-6.949,38.271-19.369,57.477-29,35.024-17.571,76.184-25.755,113.873-15.027" transform="translate(-2.154 -0.195)" fill="none" stroke="#97aac4" stroke-linecap="round" stroke-linejoin="round" stroke-miterlimit="10" stroke-width="2" stroke-dasharray="0 10"/>
          <path id="Trazado_1179174" data-name="Trazado 1179174" d="M-11.776,240.97c29.195-16.909,64.876-22.943,97.624-14.831s61.978,30.729,76.5,61.181c16.642,34.9,13.77,76.968,32.019,111.058,20.906,39.054,70.239,60.4,113.019,48.9,10.3-2.767,20.085-7.18,30.335-10.114,25.036-7.165,53.06-4.909,75.605,8.122s38.833,37.2,40.344,63.2" transform="translate(-0.016 -4.441)" fill="none" stroke="#97aac4" stroke-linecap="round" stroke-linejoin="round" stroke-miterlimit="10" stroke-width="2" stroke-dasharray="0 10"/>
        </g>
      </g>
      <g id="Grupo_1228267" data-name="Grupo 1228267" transform="translate(108.996 50.37)">
        <g id="Grupo_1228263" data-name="Grupo 1228263" transform="translate(124.898 0)">
          <g id="Grupo_1228261" data-name="Grupo 1228261" transform="translate(47.081 18.795)">
            <path id="Trazado_1179175" data-name="Trazado 1179175" d="M346.646,100.787c-24.729-2.927-27.1-5.3-30.029-30.029-2.927,24.729-5.3,27.1-30.029,30.029,24.729,2.927,27.1,5.3,30.029,30.029C319.543,106.086,321.916,103.714,346.646,100.787Z" transform="translate(-286.588 -70.758)" fill="#fff"/>
          </g>
          <g id="Grupo_1228262" data-name="Grupo 1228262">
            <path id="Trazado_1179176" data-name="Trazado 1179176" d="M275.814,70.207c-15.32-1.813-16.79-3.283-18.6-18.6-1.813,15.32-3.283,16.79-18.6,18.6,15.32,1.813,16.79,3.283,18.6,18.6C259.024,73.49,260.494,72.02,275.814,70.207Z" transform="translate(-238.607 -51.604)" fill="#fff"/>
          </g>
        </g>
        <g id="Grupo_1228266" data-name="Grupo 1228266" transform="translate(0 257.409)">
          <g id="Grupo_1228264" data-name="Grupo 1228264">
            <path id="Trazado_1179177" data-name="Trazado 1179177" d="M171.379,343.963c-24.729-2.927-27.1-5.3-30.029-30.029-2.927,24.729-5.3,27.1-30.029,30.029,24.729,2.927,27.1,5.3,30.029,30.029C144.277,349.263,146.65,346.89,171.379,343.963Z" transform="translate(-111.321 -313.934)" fill="#fff"/>
          </g>
          <g id="Grupo_1228265" data-name="Grupo 1228265" transform="translate(54.855 49.821)">
            <path id="Trazado_1179178" data-name="Trazado 1179178" d="M204.432,383.311c-15.32-1.813-16.79-3.283-18.6-18.6-1.813,15.32-3.283,16.79-18.6,18.6,15.32,1.813,16.79,3.283,18.6,18.6C187.643,386.595,189.112,385.125,204.432,383.311Z" transform="translate(-167.225 -364.708)" fill="#fff"/>
          </g>
        </g>
      </g>
      <g id="Grupo_1228268" data-name="Grupo 1228268" transform="translate(67.429 97.15)">
        <path id="Trazado_1179179" data-name="Trazado 1179179" d="M401.295,134.814l0-5.474a5.559,5.559,0,0,0-5.553-5.564h0a5.559,5.559,0,0,0-5.565,5.554l0,5.472a1.866,1.866,0,0,1-1.868,1.864l-5.474,0a5.56,5.56,0,0,0-5.565,5.554h0a5.559,5.559,0,0,0,5.554,5.565l5.472,0a1.866,1.866,0,0,1,1.864,1.868l0,5.474a5.559,5.559,0,0,0,5.553,5.564h0a5.559,5.559,0,0,0,5.565-5.554l0-5.472a1.866,1.866,0,0,1,1.868-1.864l5.473,0a5.56,5.56,0,0,0,5.565-5.554h0a5.56,5.56,0,0,0-5.554-5.566l-5.471,0A1.866,1.866,0,0,1,401.295,134.814Z" transform="translate(-77.629 -123.776)" fill="#ff6161"/>
        <path id="Trazado_1179180" data-name="Trazado 1179180" d="M92.985,288.926l0-5.474a5.559,5.559,0,0,0-5.553-5.564h0a5.559,5.559,0,0,0-5.565,5.554l0,5.472A1.866,1.866,0,0,1,80,290.779l-5.474,0a5.56,5.56,0,0,0-5.565,5.553h0a5.56,5.56,0,0,0,5.554,5.566l5.472,0a1.866,1.866,0,0,1,1.864,1.868l0,5.474A5.559,5.559,0,0,0,87.4,314.8h0a5.559,5.559,0,0,0,5.565-5.554l0-5.472a1.866,1.866,0,0,1,1.868-1.864l5.473,0a5.56,5.56,0,0,0,5.565-5.553h0a5.559,5.559,0,0,0-5.554-5.565l-5.471,0A1.868,1.868,0,0,1,92.985,288.926Z" transform="translate(-68.96 -102.629)" fill="#ff6161"/>
      </g>
      <g id="Grupo_1228269" data-name="Grupo 1228269" transform="translate(85.887 112.127)">
        <path id="Trazado_1179181" data-name="Trazado 1179181" d="M432.593,355.352l-1.861-1.864a2.675,2.675,0,0,0-3.783,0h0a2.675,2.675,0,0,0,0,3.784l1.86,1.864a.9.9,0,0,1,0,1.27l-1.864,1.86a2.675,2.675,0,0,0,0,3.783h0a2.675,2.675,0,0,0,3.784,0l1.863-1.86a.9.9,0,0,1,1.27,0l1.861,1.864a2.676,2.676,0,0,0,3.783,0h0a2.675,2.675,0,0,0,0-3.784l-1.86-1.864a.9.9,0,0,1,0-1.27l1.864-1.86a2.675,2.675,0,0,0,0-3.783h0a2.675,2.675,0,0,0-3.784,0l-1.863,1.86A.9.9,0,0,1,432.593,355.352Z" transform="translate(-107.581 -97.855)" fill="#5f89d3"/>
        <path id="Trazado_1179182" data-name="Trazado 1179182" d="M259.025,117.19l-1.861-1.864a2.676,2.676,0,0,0-3.783,0h0a2.675,2.675,0,0,0,0,3.784l1.86,1.863a.9.9,0,0,1,0,1.27l-1.864,1.86a2.675,2.675,0,0,0,0,3.783h0a2.675,2.675,0,0,0,3.784,0l1.863-1.86a.9.9,0,0,1,1.27,0l1.861,1.864a2.675,2.675,0,0,0,3.783,0h0a2.675,2.675,0,0,0,0-3.784l-1.86-1.863a.9.9,0,0,1,0-1.27l1.864-1.86a2.675,2.675,0,0,0,0-3.783h0a2.675,2.675,0,0,0-3.784,0l-1.863,1.86A.9.9,0,0,1,259.025,117.19Z" transform="translate(-90.863 -114.541)" fill="#5f89d3"/>
        <path id="Trazado_1179183" data-name="Trazado 1179183" d="M94.209,379.113l-1.861-1.864a2.676,2.676,0,0,0-3.783,0h0a2.675,2.675,0,0,0,0,3.784l1.86,1.864a.9.9,0,0,1,0,1.27l-1.864,1.861a2.676,2.676,0,0,0,0,3.783h0a2.675,2.675,0,0,0,3.784,0l1.863-1.86a.9.9,0,0,1,1.27,0l1.861,1.864a2.675,2.675,0,0,0,3.783,0h0a2.675,2.675,0,0,0,0-3.784l-1.86-1.864a.9.9,0,0,1,0-1.27l1.864-1.86a2.675,2.675,0,0,0,0-3.783h0a2.675,2.675,0,0,0-3.784,0l-1.863,1.86A.9.9,0,0,1,94.209,379.113Z" transform="translate(-87.771 -119.455)" fill="#5f89d3"/>
        <path id="Trazado_1179215" data-name="Trazado 1179215" d="M432.593,355.352l-1.861-1.864a2.675,2.675,0,0,0-3.783,0h0a2.675,2.675,0,0,0,0,3.784l1.86,1.864a.9.9,0,0,1,0,1.27l-1.864,1.86a2.675,2.675,0,0,0,0,3.783h0a2.675,2.675,0,0,0,3.784,0l1.863-1.86a.9.9,0,0,1,1.27,0l1.861,1.864a2.676,2.676,0,0,0,3.783,0h0a2.675,2.675,0,0,0,0-3.784l-1.86-1.864a.9.9,0,0,1,0-1.27l1.864-1.86a2.675,2.675,0,0,0,0-3.783h0a2.675,2.675,0,0,0-3.784,0l-1.863,1.86A.9.9,0,0,1,432.593,355.352Z" transform="translate(-440.291 -408.855)" fill="#5f89d3"/>
      </g>
      <g id="Grupo_1228279" data-name="Grupo 1228279" transform="translate(45.939 62.949)">
        <g id="Grupo_1228274" data-name="Grupo 1228274" transform="translate(182.633 92.036)">
          <g id="Grupo_1228270" data-name="Grupo 1228270">
            <path id="Trazado_1179184" data-name="Trazado 1179184" d="M424.2,294.8c-3.957,4.986-14.062,2.793-16.146,8.8-1,2.874.668,5.921,1.283,8.916s-1.11,7.138-4.1,6.522c2.365,2.472,1.283,6.6-.561,9.49s-4.41,5.587-4.718,9c-.361,4.023,2.553,7.659,2.793,11.7.348,5.614-4.718,10.345-10.145,11.856s-11.187.655-16.8.281c-1.484-.094-3.008-.161-4.517-.12,0,0-.067,0-.187.013-.361,0-.708.013-1.056.04a3.628,3.628,0,0,1-.388.013,19.367,19.367,0,0,0-10.105,3.208c-6.4,4.584-7.806,13.379-8.675,21.212q-9.283.08-18.5.174c-30.836.321-61.325.829-91.786,1.59a400.971,400.971,0,0,0,11.789-56.138c.882-6.242,1.617-12.6.668-18.846-.976-6.469-3.729-12.511-6.4-18.472-6.616-14.783-13.006-29.793-16.414-45.619s-3.662-32.68,1.831-47.918c5.935-16.427,18.405-30.154,33.522-38.909s32.747-12.725,50.23-12.805c19.6-.107,39.484,4.732,55.817,15.558,26.2,17.363,41.154,50.284,37,81.427-.415,3.128-1,6.308-.361,9.4a24.12,24.12,0,0,0,3.074,6.857q5.513,9.463,11,18.913C424.845,285.229,427.292,290.909,424.2,294.8Z" transform="translate(-227.789 -148.771)" fill="#f1a57b"/>
            <path id="Trazado_1179185" data-name="Trazado 1179185" d="M412.554,326.912c-4.735,1.285-11.1.55-15.545,0" transform="translate(-235.29 -156.667)" fill="none" stroke="#d88155" stroke-linecap="round" stroke-linejoin="round" stroke-miterlimit="10" stroke-width="2"/>
            <path id="Trazado_1179186" data-name="Trazado 1179186" d="M380.935,264.571a19.1,19.1,0,0,0,25.242-4.425" transform="translate(-234.578 -153.708)" fill="none" stroke="#d88155" stroke-linecap="round" stroke-linejoin="round" stroke-miterlimit="10" stroke-width="2"/>
            <path id="Trazado_1179187" data-name="Trazado 1179187" d="M373,369.658a19.366,19.366,0,0,0-10.105,3.208c-6.4,4.584-7.806,13.379-8.675,21.212q-9.283.08-18.5.174c-26.586-18.686-32.213-55.31-32.427-56.833C315.194,369.778,363.5,369.952,373,369.658Z" transform="translate(-231.136 -157.133)" fill="#d88155"/>
          </g>
          <g id="Grupo_1228273" data-name="Grupo 1228273" transform="translate(8.602 11.141)">
            <path id="Trazado_1179188" data-name="Trazado 1179188" d="M270.356,184.162a17.25,17.25,0,0,1,8.38-11.04,26.238,26.238,0,0,1,14.342-3.141,8.313,8.313,0,0,0,2.512-.134,8.828,8.828,0,0,0,3.141-2.032,21.27,21.27,0,0,1,25.075-.775,27.175,27.175,0,0,1,20.8-6.469,36.075,36.075,0,0,1,20.824,10.038,25.853,25.853,0,0,1,7.351,11.028c1.283,4.264.855,9.209-1.858,12.765,2.38,5.106,1.737,11.843-1.523,17a23.253,23.253,0,0,1-11.267,8.969,35.289,35.289,0,0,1-14.382,2.152l-.254-.134a21.432,21.432,0,0,1-7.19,7.953c-5.573,3.662-12.6,4.772-19.234,3.9a24.241,24.241,0,0,1,1.217,13.968,18.449,18.449,0,0,1-2.5,6.71c-3.3,5.013-9.583,6.951-15.371,8.527h-.08a7.494,7.494,0,0,1-.294,1.951c-.695,2.34-2.326,4.264-3.382,6.469-1.925,4.05-1.778,8.728-1.885,13.205-.174,6.616-1.136,13.527-5.039,18.859s-11.548,8.407-17.4,5.347c-4.358-2.286-6.6-7.125-8.782-11.548-9.5-19.207-23.552-36.985-26.292-58.237a58.032,58.032,0,0,1,.989-20.317A55.034,55.034,0,0,1,254.1,191.328a27.785,27.785,0,0,1,10.278-6.456A16.1,16.1,0,0,1,270.356,184.162Z" transform="translate(-236.79 -160.429)" fill="#ed7d6e"/>
            <g id="Grupo_1228271" data-name="Grupo 1228271" transform="translate(14.546 3.381)">
              <path id="Trazado_1179189" data-name="Trazado 1179189" d="M301.036,273.042a14.553,14.553,0,0,0,1.556-3.285,7.493,7.493,0,0,0,.294-1.951c.094-4.584-3.916-9.142-8.608-9.129" transform="translate(-253.885 -168.164)" fill="none" stroke="#b7342e" stroke-linecap="round" stroke-linejoin="round" stroke-miterlimit="10" stroke-width="1"/>
              <path id="Trazado_1179190" data-name="Trazado 1179190" d="M285.39,203.064c-1.176-6-2.78-12.658-7.94-15.946a12.586,12.586,0,0,0-5.814-1.858,16.143,16.143,0,0,0-5.975.708" transform="translate(-252.616 -164.908)" fill="none" stroke="#b7342e" stroke-linecap="round" stroke-linejoin="round" stroke-miterlimit="10" stroke-width="1"/>
              <path id="Trazado_1179191" data-name="Trazado 1179191" d="M275.494,257.861c1.39-6.4,3.435-12.752,7.044-18.218a30.681,30.681,0,0,1,4.544-5.466,24.815,24.815,0,0,1,10.693-6.215,19.93,19.93,0,0,1,9.637-.12,16.611,16.611,0,0,1,8.447,4.825,16.217,16.217,0,0,1,2.927,4.544,19.575,19.575,0,0,1,1.1,3.329" transform="translate(-253.052 -166.774)" fill="none" stroke="#b7342e" stroke-linecap="round" stroke-linejoin="round" stroke-miterlimit="10" stroke-width="1"/>
              <path id="Trazado_1179192" data-name="Trazado 1179192" d="M331.96,163.966a24.037,24.037,0,0,0-4.532,3.231q-.4.361-.8.762c-5.012,5.013-7.525,12.124-8.074,19.18-.308,3.9.107,8.233,2.834,11.041" transform="translate(-254.957 -163.966)" fill="none" stroke="#b7342e" stroke-linecap="round" stroke-linejoin="round" stroke-miterlimit="10" stroke-width="1"/>
              <path id="Trazado_1179193" data-name="Trazado 1179193" d="M308.879,227.039c0-.013.013-.027.013-.04a25.885,25.885,0,0,1,13.393-16.133,26,26,0,0,1,21-.641" transform="translate(-254.532 -165.932)" fill="none" stroke="#b7342e" stroke-linecap="round" stroke-linejoin="round" stroke-miterlimit="10" stroke-width="1"/>
              <path id="Trazado_1179194" data-name="Trazado 1179194" d="M333.512,207.276a19.91,19.91,0,0,1,24.126-22.469" transform="translate(-255.614 -164.868)" fill="none" stroke="#b7342e" stroke-linecap="round" stroke-linejoin="round" stroke-miterlimit="10" stroke-width="1"/>
              <path id="Trazado_1179195" data-name="Trazado 1179195" d="M301.194,186.549c-3.676,4.905-3.649,11.99-.8,17.416s8.1,9.316,13.808,11.535" transform="translate(-254.064 -164.967)" fill="none" stroke="#b7342e" stroke-linecap="round" stroke-linejoin="round" stroke-miterlimit="10" stroke-width="1"/>
              <path id="Trazado_1179196" data-name="Trazado 1179196" d="M252.011,243.55c1.176-7.659,6.71-14.69,14.128-16.921,7.338-2.206,16.093.869,19.9,7.485" transform="translate(-252.011 -166.712)" fill="none" stroke="#b7342e" stroke-linecap="round" stroke-linejoin="round" stroke-miterlimit="10" stroke-width="1"/>
              <path id="Trazado_1179197" data-name="Trazado 1179197" d="M268.369,194.214a28.182,28.182,0,0,0,3.155,16.307,19.118,19.118,0,0,0,13.165,9.6c7.471,1.176,15.063-3.222,19.274-9.5" transform="translate(-252.73 -165.307)" fill="none" stroke="#b7342e" stroke-linecap="round" stroke-linejoin="round" stroke-miterlimit="10" stroke-width="1"/>
              <path id="Trazado_1179198" data-name="Trazado 1179198" d="M283.963,268.481a24.069,24.069,0,0,1-29.378,15.933" transform="translate(-252.125 -168.599)" fill="none" stroke="#b7342e" stroke-linecap="round" stroke-linejoin="round" stroke-miterlimit="10" stroke-width="1"/>
            </g>
            <g id="Grupo_1228272" data-name="Grupo 1228272" transform="translate(5.576 5.673)">
              <path id="Trazado_1179199" data-name="Trazado 1179199" d="M255.779,276.758a17.287,17.287,0,0,0,23.029-9.3" transform="translate(-243.208 -170.846)" fill="none" stroke="#ffced3" stroke-linecap="round" stroke-linejoin="round" stroke-miterlimit="10" stroke-width="1"/>
              <path id="Trazado_1179200" data-name="Trazado 1179200" d="M274.388,203.782a15.612,15.612,0,0,0,17.723,11.859c2.459-.4,4.972-1.536,6.213-3.7" transform="translate(-244.033 -168.024)" fill="none" stroke="#ffced3" stroke-linecap="round" stroke-linejoin="round" stroke-miterlimit="10" stroke-width="1"/>
              <path id="Trazado_1179201" data-name="Trazado 1179201" d="M337.209,166.365a36.887,36.887,0,0,0-8.638,11.2,24.3,24.3,0,0,0-2.358,13.825" transform="translate(-246.321 -166.365)" fill="none" stroke="#ffced3" stroke-linecap="round" stroke-linejoin="round" stroke-miterlimit="10" stroke-width="1"/>
              <path id="Trazado_1179202" data-name="Trazado 1179202" d="M359.526,187.8a20.953,20.953,0,0,0-20.805,14.878" transform="translate(-246.885 -167.315)" fill="none" stroke="#ffced3" stroke-linecap="round" stroke-linejoin="round" stroke-miterlimit="10" stroke-width="1"/>
              <path id="Trazado_1179203" data-name="Trazado 1179203" d="M298.43,233.07A25.378,25.378,0,0,0,284.384,256.5" transform="translate(-244.475 -169.322)" fill="none" stroke="#ffced3" stroke-linecap="round" stroke-linejoin="round" stroke-miterlimit="10" stroke-width="1"/>
              <path id="Trazado_1179204" data-name="Trazado 1179204" d="M266.513,292.4a75.441,75.441,0,0,0,5.2,10.148c2.835,4.229,7.281,8.427,12.777,7.628" transform="translate(-243.684 -171.951)" fill="none" stroke="#ffced3" stroke-linecap="round" stroke-linejoin="round" stroke-miterlimit="10" stroke-width="1"/>
              <path id="Trazado_1179205" data-name="Trazado 1179205" d="M260.108,194.106c-6.4,5.054-10.873,12.264-13.619,19.868-2.913,8.062-3.282,16.414-3.864,24.873" transform="translate(-242.625 -167.595)" fill="none" stroke="#ffced3" stroke-linecap="round" stroke-linejoin="round" stroke-miterlimit="10" stroke-width="1"/>
            </g>
          </g>
        </g>
        <g id="Grupo_1228278" data-name="Grupo 1228278" transform="translate(0 0)">
          <path id="Trazado_1179206" data-name="Trazado 1179206" d="M170.787,212.223c1.717,4.294-.532,9.013-1.735,13.478a29.837,29.837,0,0,0,.618,17.417c1.931,5.566,5.527,10.6,6.35,16.43a17.493,17.493,0,0,1-4.962,14.782,17.385,17.385,0,0,0-.315-15.243c-1.508-2.878-3.839-5.338-4.738-8.423.24,3.565-1.432,6.994-3.5,9.909s-4.574,5.519-6.392,8.6c-3.04,5.149-3.942,11.25-4.629,17.189-.551,4.781-.97,9.8.993,14.185a29.757,29.757,0,0,1-.617-30.084c-1.065,1.6-3.026,2.293-4.67,3.292-3.654,2.22-5.879,6.112-8.536,9.461s-6.45,6.469-10.739,6.071c4.751-2.2,6.882-7.631,10.106-11.755,2.75-3.519,6.428-6.179,10.081-8.75s7.378-5.142,10.28-8.537,4.936-7.78,4.545-12.23c-.3-3.47-2.034-6.7-2.338-10.166-.3-3.439.815-6.824,1.266-10.247a23.359,23.359,0,0,0-.94-10.577c-.136,3.043-2.727,5.293-4.6,7.7a18.924,18.924,0,0,0-3.951,10.841c-.132,3.523.728,7.008.877,10.532a13.592,13.592,0,0,1-3.523,10.407,15.984,15.984,0,0,0,.951-7.441c-.261-2.346-1.039-4.6-1.489-6.919a25.165,25.165,0,0,1,4.664-19.833c-2.573,2.81-5.217,5.739-6.389,9.364-1.116,3.45-.782,7.177-1.167,10.782s-1.813,7.5-5.232,9.355c2.346-2.787,2.8-6.681,2.825-10.324s-.253-7.4.976-10.825c1.794-5,6.68-9.007,6.67-14.328-2.77,3.055-6.566,4.951-9.784,7.532-7.726,6.2-11.665,15.926-14.329,25.465a57.794,57.794,0,0,1-2.8,8.623,17.863,17.863,0,0,1-5.351,6.963c5.123-8.165,3.429-18.982,7.37-27.781,1.763-3.937,4.591-7.311,6.5-11.183s2.779-8.7.178-11.956a34.229,34.229,0,0,1-5.647,7.09,36.115,36.115,0,0,1-4.948,4.459c-4.263,3.015-9.505,4.233-14.265,6.384-10.986,4.963-19.522,15.747-20.618,28.226-1.214-4.844-.112-10.064,2.217-14.48s5.806-8.126,9.049-11.372c-2.425,1.287-5.378.974-8.036.292s-5.279-1.7-8.022-1.734c-2.875-.034-5.637,1.02-8.318,2.058a44.451,44.451,0,0,0-8.149,3.808,17.576,17.576,0,0,0-6.2,6.64,22.291,22.291,0,0,1,17.15-14.081c-3.136-1.538-6.914-1.069-10.188.148s-6.249,3.116-9.464,4.481a15.634,15.634,0,0,1-10.806,1c3.886-.258,7.327-2.462,10.742-4.337,5.983-3.285,12.754-5.773,19.524-4.918,5.552.7,10.8,3.613,16.387,3.32,3.415-.181,6.64-1.55,9.771-2.921a37.252,37.252,0,0,0,9.136-5.1c6.6-5.5,8.7-14.616,13.228-21.925a12.286,12.286,0,0,1,4.535-4.728c-5.269,1.171-9.815,4.363-14.4,7.2s-9.662,5.455-15.054,5.25a23.046,23.046,0,0,1-6.181-1.249c4.783-.169,9.884-.882,13.463-4.058a23.705,23.705,0,0,0,3.083-3.577l5.435-7.226c3.291-4.374,6.775-8.912,11.717-11.268a7.952,7.952,0,0,1,5.733-.789,17.456,17.456,0,0,0-20.553,0c-3.6,2.746-6.048,6.884-9.93,9.22-3.132,1.884-6.868,2.4-10.389,3.371s-7.174,2.7-8.935,6c2.088-4.465,6.7-7.14,11.21-9.132a25.688,25.688,0,0,0,4.321-2.194,12.523,12.523,0,0,0,3.3-3.461c-4.824,1.423-10.246,1.265-14.435,4.048a26.817,26.817,0,0,0-3.245,2.726c-3.829,3.525-8.053,6.8-12.995,8.436A18.271,18.271,0,0,1,57.1,198.033a26.651,26.651,0,0,0,18.448-4.421c4.917-3.386,8.648-8.411,13.931-11.194a21.869,21.869,0,0,1,14.608-1.847c-3.1-.963-5.112-3.862-7.541-6.02a20.493,20.493,0,0,0-15.257-4.812,27.214,27.214,0,0,0-15.03,6.668,29.821,29.821,0,0,1,11.654-9.64c4.687-2,10.255-2.282,14.82-.013a40.364,40.364,0,0,1,5.282,3.5,28.461,28.461,0,0,0,7.677,4.1,14.519,14.519,0,0,0,8.6.285,37.089,37.089,0,0,0,3.91-1.629,20.334,20.334,0,0,1,10.3-1.853c3.5.4,6.946,2.168,8.566,4.956a16.63,16.63,0,0,0-8.979-15.721c-3.156-1.563-6.841-2.114-9.613-4.287-5.559-4.36-5.233-13.287-10.237-18.274-2.837-2.826-6.906-3.91-10.612-5.426s-7.532-3.994-8.224-8.318a12.645,12.645,0,0,0,10.333,6.371,18.436,18.436,0,0,1,4.774.308,22.281,22.281,0,0,0-14.554-14.522,14.1,14.1,0,0,1,13.564,6.162c1.99,3.086,2.718,6.916,5.014,9.984a9.893,9.893,0,0,1-.066-6.109c.535-2,1.426-3.886,2.144-5.829a35.167,35.167,0,0,0,2.153-10.765c.125-3.053-.346-6.5-2.5-8.115,3.317,1.613,5.1,5.425,5.342,9.107s-.793,7.31-1.767,10.867-1.911,7.232-1.473,10.895a28.088,28.088,0,0,0,2.884,8.485,25.036,25.036,0,0,0,3.03,5.227c2.793,3.436,7.114,5.24,11.381,6.419,2.427.669,4.944,1.2,7.09,2.516,4.182,2.564,6.166,7.657,6.267,12.487,1.9-4.625,3.775-9.421,3.728-14.421-.1-11.462-10.11-20.964-10.573-32.417-.355-8.8,4.992-16.806,6.378-25.5,1.14-7.155-.482-14.568-3.711-21.338a18.233,18.233,0,0,1,6.689,11.641,29.57,29.57,0,0,1-1.277,13.573c-.988,3.162-2.359,6.332-2.071,9.579.849-3.353,3.156-6.137,5.614-8.572s5.153-4.678,7.121-7.521,3.139-6.5,2.1-9.8c-.834-2.635-2.942-4.681-4.006-7.232a9.835,9.835,0,0,1,.053-7.69,7.18,7.18,0,0,0,1.9,6.02,41.829,41.829,0,0,0,3.352,2.644,10.87,10.87,0,0,1,3.624,9.914,25.426,25.426,0,0,0,1.963-8.839,70.525,70.525,0,0,1,.184-7.192c.337-2.376,1.381-4.807,3.33-6-2.6,5.882-.7,12.759-1.936,19.068a19.448,19.448,0,0,1-3.476,7.859c-2.027,2.725-4.724,4.861-7.289,7.087a43.647,43.647,0,0,0-7.925,8.533,19.909,19.909,0,0,0-3.626,10.677,37.549,37.549,0,0,0,6.711,18.213c1.656,2.445,3.563,4.786,4.555,7.569a33.764,33.764,0,0,1,1.27,7.819,51.017,51.017,0,0,0,3.332,13.517c-1.072-3.478-.083-7.232,1.1-10.676s2.572-6.96,2.223-11c1.363,3.412.745,7.245.264,10.888s-.74,7.607,1.194,10.73c.8,1.293,2,2.62,1.762,3.921a33.812,33.812,0,0,1,1.65-9.765c1.8-4.731,5.619-8.4,8.037-12.845,3.312-6.091,3.827-13.39,2.55-20.629,2.786,3.567,3.2,8.507,2.363,12.954s-2.77,8.6-4.295,12.86c-2.644,7.385-4.066,15.533-1.6,22.888-.578-2.245.857-4.478,2.322-6.275a58.147,58.147,0,0,1,7.019-7.227c2.8-2.424,5.829-4.577,8.559-7.079a23.967,23.967,0,0,0,6.51-8.875,24.844,24.844,0,0,0,1.371-7.051c.265-3.678.026-7.7-2.347-10.521-1.458-1.734-3.581-2.821-4.99-4.6-1.745-2.2-2.194-5.182-3.8-7.485-2.475-3.55-7.284-4.8-11.584-4.323-2.349.258-4.969.878-6.964-.483,1.724.254,3.158-1.193,4.574-2.209a10.789,10.789,0,0,1,8.858-1.653,11.546,11.546,0,0,1,7.031,5.512,16.543,16.543,0,0,1,2.663-10.774c2.233-3.353,5.6-5.752,8.405-8.645s5.167-6.75,4.487-10.879c1.137,3.31.125,7.021-1.651,10.036s-4.259,5.539-6.391,8.315-3.968,5.984-4.1,9.481a16.274,16.274,0,0,0,.729,4.963,19.2,19.2,0,0,0,1.643,4.19c1.685,3.014,4.5,5.276,6.184,8.289a13.072,13.072,0,0,1-.458,13.391,16.654,16.654,0,0,0,3.327-7.71,49.275,49.275,0,0,1,2-8.24,13.366,13.366,0,0,1,6.332-7.11c-2.95,3.484-3.862,8.233-4.3,12.778s-.514,9.22-2.185,13.469c-3.307,8.415-11.959,13.28-17.834,20.154a33.719,33.719,0,0,0-8.139,23.189c1.948-6.583,7.953-11.076,13.922-14.469s12.47-6.341,16.825-11.646c5.8-7.06,6.688-16.914,11.042-24.944a30.743,30.743,0,0,1,15.495-13.844c-4.868,3.585-9.589,7.9-11.523,13.63-2.158,6.4-.694,14.1-4.455,19.891a34.992,34.992,0,0,1,16.2-10.9c4.611-1.464,9.482-1.954,14.116-3.343s9.24-3.914,11.3-8.119c-1.151,3.93-4.429,6.931-8.06,8.827s-7.656,2.865-11.565,4.085-7.84,2.768-10.991,6.384c2.458-1.7,5.759-1.231,8.7-.688l4.018.741a11.5,11.5,0,0,0,2.918.284,12.645,12.645,0,0,0,4.8-1.841,17.5,17.5,0,0,1-11.541,5.37c-3.785.223-7.6-.8-11.352-.229-4.074.618-7.638,3.052-10.744,5.757s-5.936,5.762-9.367,8.041c-3.952,2.624-8.579,4.132-12.434,6.9-4.759,3.418-8,8.5-11.345,13.939,4.245-5.856,12.019-7.984,19.244-8.292,3.213-.136,6.581-.027,9.446-1.487,4.244-2.16,6.193-7.1,9.587-10.437a13.122,13.122,0,0,1,10.6-3.934c-4.714,1.392-8.031,5.59-10.467,9.86-1.686,2.954-3.347,6.287-6.786,8.157,1.9-.931,4.146-.192,6.247.09,5.122.693,10.539-1.715,13.065-5.69-3.3,6.184-10.741,9.131-17.746,9.4-4.052.155-8.461-.321-12.5,2,4.485-.494,8.734,2.125,12.046,5.19s6.152,6.712,9.982,9.1a20.376,20.376,0,0,0,20.681,0,19.721,19.721,0,0,1-12.109,3.631c-4.29-.046-8.506-1.153-13.058-2.275a20.378,20.378,0,0,1,8.43,6.186,7.868,7.868,0,0,1,2.1,6.066,10.7,10.7,0,0,0-5.321-5.876c-1.305-.633-2.734-.992-4.009-1.684-4.275-2.318-5.825-7.641-9.161-11.179-3.864-4.1-9.982-5.485-15.564-4.733s-10.733,3.378-15.962,6.522c2.168-.278,4.277.9,5.874,2.391s2.852,3.318,4.454,4.8a14.822,14.822,0,0,0,7.193,3.661c2.655.52,5.4.3,8.087.645a19.546,19.546,0,0,1,10.011,4.379c3.573,2.994,5.939,7.15,8.954,10.7s7.205,6.7,11.789,6.678a15.03,15.03,0,0,1-5.984-.326,16.66,16.66,0,0,1-4.241-1.515c-2.966-1.609-5.09-4.376-7.447-6.793s-5.318-4.647-9.234-4.28c2.557.674,4.563,2.673,6.068,4.848s2.641,4.6,4.224,6.714a11.073,11.073,0,0,0,6.409,4.514c-3.506-.83-7.059-2.008-9.732-4.42a49.031,49.031,0,0,1-4.466-5.319,27.111,27.111,0,0,0-13.692-8.772c-3.945-1.062-8.13-1.226-11.932-2.721-3.722-1.463-6.837-4.108-11.022-5.763,9.847,9.409,19.848,19.014,26.426,30.938,20.165,36.556,3.553,84.906,22.779,121.964,12.122,23.361,37.039,38.11,62,43.684-17.84.387-35.987-3.342-51.392-12.349s-27.859-23.534-32.748-40.695c-5.56-19.512-1.2-40.326-2.071-60.6C205.29,263.994,192.3,235.116,170.787,212.223Z" transform="translate(-47.059 -64.423)" fill="#ff9280"/>
          <path id="Trazado_1179207" data-name="Trazado 1179207" d="M293.739,412.152c-1.473-.874-1.68-2.927-1.409-4.617a14.087,14.087,0,0,1,2.028-5.324c.823-1.291,1.854-2.442,2.682-3.732,3.615-5.633,2.815-13.2.026-19.04a6.262,6.262,0,0,1,3.207,3.613,20.961,20.961,0,0,1,1.178,13.464c-.907,3.647-2.817,7.205-2.2,11.862,1.088-1.848,3.5-2.478,5.644-2.324s4.2.911,6.331,1.115a11.026,11.026,0,0,0,8.721-2.942,9.3,9.3,0,0,0,2.4-8.94c2.481,2.315,2.459,6.308,1.373,9.521a10.27,10.27,0,0,1-1.843,3.462,9.064,9.064,0,0,1-5.277,2.8,20.518,20.518,0,0,1-6.068,0c-2.188-.261-4.654-.576-6.281.862,2.911,4.136,6.993,7.642,11.887,8.916,5.714,1.49,11.8-.175,17.642.682a19.906,19.906,0,0,1,14.26,9.606c-1.987-3.28-6.023-4.772-9.849-5.043s-7.653.438-11.487.425a30.634,30.634,0,0,1-14.561-3.759c-4.212-2.311-8.131-5.7-12.821-5.759a5.821,5.821,0,0,1,3.472,2.715c.818,1.266,1.356,2.692,2.089,4.011,2.268,4.08,6.3,6.941,10.625,8.706,2.045.835,4.181,1.458,6.145,2.471a10.367,10.367,0,0,1,4.859,4.754,9.541,9.541,0,0,0-5.481-3.456c-2.124-.59-4.34-.8-6.467-1.388a17.476,17.476,0,0,1-6.853-3.624c-2.382-2.079-4.088-4.8-5.972-7.343s-4.082-5.007-7-6.219a11.365,11.365,0,0,1,2.826,7.211,30.82,30.82,0,0,1-.833,7.841,22.208,22.208,0,0,0-.537,3.746,10.72,10.72,0,0,0,2.78,7.419c2.3,2.516,4.829,4.927,7.276,3.613-5.863,3.148-11.8-6.727-13.706-13.1a10.025,10.025,0,0,1-.5-2.944,23.641,23.641,0,0,1,.894-4.513,11.837,11.837,0,0,0-2.236-9.959c-1.072-1.274-2.514-2.358-2.68-4.065l4.151.122C292.92,413.017,293.854,412.927,293.739,412.152Z" transform="translate(-51.58 -70.333)" fill="#d86155"/>
          <path id="Trazado_1179208" data-name="Trazado 1179208" d="M206.008,281.421a4.071,4.071,0,0,0,4.9,2.55,27.284,27.284,0,0,0,2.484-1.217,16.612,16.612,0,0,1,4.7-.775,5.563,5.563,0,0,0,4.157-2.032,5.281,5.281,0,0,0,.321-4.259,32.242,32.242,0,0,1-1.215-4.226c-.306-2.337.53-4.922-.665-6.954-.987-1.677-3.01-2.36-4.682-3.355a12.025,12.025,0,0,1-5.028-5.965c-.416-1.085-.674-2.232-1.2-3.27a18.089,18.089,0,0,1-.968-1.879c-.855-2.342.566-4.859.717-7.348a14.487,14.487,0,0,0-.71-4.57,7.134,7.134,0,0,0-1.96-3.866,4.367,4.367,0,0,0-3.968-.644,7.584,7.584,0,0,0-3.4,2.346,9.393,9.393,0,0,0-1.554,2.35,15.251,15.251,0,0,0-.966,3.78q-.639,3.837-1.275,7.672a6.213,6.213,0,0,0-.118,1.883,6.4,6.4,0,0,0,.679,1.843,176.541,176.541,0,0,1,7.063,17.721,33.4,33.4,0,0,1,1.239,3.983C205.034,277.293,205.375,279.431,206.008,281.421Z" transform="translate(-49.845 -67.593)" fill="#6c92e5"/>
          <path id="Trazado_1179209" data-name="Trazado 1179209" d="M223.919,301.981c-2.346-2.954-6.694-3.436-10.405-2.76-3.233.589-6.716,2.281-7.578,5.454-.616,2.265.282,4.636,1.183,6.8a8.71,8.71,0,0,0,1.944,3.229c.655.6,1.483.984,2.12,1.6a7.287,7.287,0,0,1,1.742,3.992,37.915,37.915,0,0,1,.593,4.656c.238,3.635-.245,7.727-3.03,10.08a4.346,4.346,0,0,0-.932.906c-.605.959-.071,2.239.66,3.108a9,9,0,0,1,2.036,2.694c.524,1.583-.414,3.26-1.448,4.566s-2.261,2.629-2.425,4.286c-.252,2.532,2.137,4.613,4.576,5.338a11.139,11.139,0,0,0,10.79-2.705,21.86,21.86,0,0,0,3.575-5.3,5.127,5.127,0,0,0,.806-2.318,3.937,3.937,0,0,0-1.575-2.863c-.855-.733-1.857-1.281-2.688-2.041a7.113,7.113,0,0,1-1.9-7.318c.56-1.679,1.734-3.075,2.526-4.657a14.434,14.434,0,0,0,1.331-4.669,41.343,41.343,0,0,0-.226-9.249C225.164,310.473,226.547,305.289,223.919,301.981Z" transform="translate(-50.036 -68.823)" fill="#8db6ff"/>
          <path id="Trazado_1179210" data-name="Trazado 1179210" d="M238.578,374.22c-1.941-2.061-2.941-5.445-5.719-5.993a6.091,6.091,0,0,0-2.648.215,22.935,22.935,0,0,0-9.9,5.361,4.767,4.767,0,0,0-1.468,2.017,5.063,5.063,0,0,0,.364,3.087c.975,2.763,2.467,5.686,5.2,6.73a23.058,23.058,0,0,0,4.391.744,4.616,4.616,0,0,1,3.625,2.279c.291.659.352,1.459.878,1.952a3.089,3.089,0,0,0,1.844.566,9.19,9.19,0,0,1,4.571,1.615,5.258,5.258,0,0,1,2.215,4.173c-.015.677-.191,1.349-.141,2.025a5.4,5.4,0,0,0,1.541,2.982,22.981,22.981,0,0,0,4.883,4.244,6.847,6.847,0,0,0,4.176,1.392c2.574-.227,4.225-2.755,5.481-5.013q.967-1.743,1.936-3.484a2.329,2.329,0,0,0-.239-3.332c-2.292-2.771-4.883-5.725-8.423-6.359-1.286-.231-2.606-.13-3.9-.274a10.552,10.552,0,0,1-7.5-4.55,5.763,5.763,0,0,1-1.016-2.459c-.18-1.46.458-2.884.73-4.33S239.462,374.566,238.578,374.22Z" transform="translate(-50.279 -70.121)" fill="#6c92e5"/>
          <g id="Grupo_1228275" data-name="Grupo 1228275" transform="translate(139.283 160.805)">
            <line id="Línea_627" data-name="Línea 627" x1="12.801" y2="1.537" transform="translate(19.871 61.552)" fill="none" stroke="#d86155" stroke-linecap="round" stroke-linejoin="round" stroke-miterlimit="10" stroke-width="1"/>
            <line id="Línea_628" data-name="Línea 628" x1="15.559" y2="7.094" transform="translate(24.897 129.135)" fill="none" stroke="#d86155" stroke-linecap="round" stroke-linejoin="round" stroke-miterlimit="10" stroke-width="1"/>
            <line id="Línea_629" data-name="Línea 629" x1="3.283" y2="6.618" transform="translate(75.021 171.437)" fill="none" stroke="#d86155" stroke-linecap="round" stroke-linejoin="round" stroke-miterlimit="10" stroke-width="1"/>
            <line id="Línea_630" data-name="Línea 630" x1="9.631" y2="6.832" fill="none" stroke="#d86155" stroke-linecap="round" stroke-linejoin="round" stroke-miterlimit="10" stroke-width="1"/>
          </g>
          <g id="Grupo_1228277" data-name="Grupo 1228277" transform="translate(79.945 101.013)">
            <path id="Trazado_1179211" data-name="Trazado 1179211" d="M177.827,184.4a6.479,6.479,0,0,0-2.221-3.708c-1.411-.924-3.276-.663-4.885-1.174-2.954-.936-4.42-4.153-6.608-6.347a3.2,3.2,0,0,0-2.146-1.136c-.89,0-1.655.641-2.53.8-1.444.267-2.8-.8-3.706-1.952s-1.667-2.508-2.945-3.234a1.6,1.6,0,0,0-1.16-.247c-.537.138-.852.681-1.1,1.177a47.626,47.626,0,0,0-3.247,8.523,2.649,2.649,0,0,1-.473,1.077c-1.117,1.279-3.332-.482-4.878.223-1.21.551-1.289,2.251-.944,3.535s.927,2.661.4,3.884c-.579,1.35-2.212,1.834-3.644,2.159l-4.874,1.107a7.53,7.53,0,0,0-3.289,1.323,2.584,2.584,0,0,0-.762,3.19c.615.969,1.921,1.162,3.06,1.307,2.963.379,6.479,1.687,6.9,4.644.262,1.856-.857,3.583-1.73,5.24s-1.5,3.8-.391,5.306c1.489,2.018,5.141,1.562,6.3,3.786.634,1.214.322,2.961,1.437,3.756a2.4,2.4,0,0,0,2.727-.3,27.548,27.548,0,0,0,2.068-2.077,6.377,6.377,0,0,1,5.694-1.489,2.938,2.938,0,0,1,1.834,1.109,7.731,7.731,0,0,1,.625,2.088c.212.7.815,1.416,1.533,1.28a5.036,5.036,0,0,1,8.947-1.611c2.241-1.338,2.344-5.342,4.918-5.775,1.816-.305,3.737,1.568,5.341.663,1.438-.811,1.088-2.954,1.7-4.488.832-2.095,3.344-2.823,5.29-3.961a7.524,7.524,0,0,0,3.36-3.734,4.768,4.768,0,0,0-.773-4.807c-1.187-1.29-3.049-1.634-4.731-2.127C178.749,191.187,178.954,188.017,177.827,184.4Z" transform="translate(-128.532 -167.368)" fill="#ed7d6e"/>
            <path id="Trazado_1179212" data-name="Trazado 1179212" d="M140.933,207.593a6.08,6.08,0,0,1,.272-.58l.312-.581c.982-1.809,2.327-4.288,1.891-7.373a8.688,8.688,0,0,0-3.686-5.9,11.517,11.517,0,0,0-.986-.636l.2-.045c1.434-.326,5.237-1.189,6.769-4.761a7.63,7.63,0,0,0,.416-4.47,5.741,5.741,0,0,0,4.26-1.991,6.826,6.826,0,0,0,1.413-2.816q.543-1.978,1.27-3.9a10.639,10.639,0,0,0,1.555,1.384,7.494,7.494,0,0,0,5.829,1.443,7.791,7.791,0,0,0,1.218-.336c.338.394.687.842,1.048,1.307a19.47,19.47,0,0,0,3.9,4.072,10.452,10.452,0,0,0,2.955,1.5,14.843,14.843,0,0,0,2.785.539c.283.034.674.082.929.131a8.82,8.82,0,0,1,.469,1.272c.2.636.345,1.255.49,1.848.586,2.407,1.315,5.4,4.267,7.534a10.99,10.99,0,0,0,3.362,1.6c.275.08.552.157.832.236a11.385,11.385,0,0,1,1.776.583.753.753,0,0,1-.043.265,3.23,3.23,0,0,1-1.421,1.422c-.383.224-.793.426-1.2.631-1.881.94-4.724,2.362-5.989,5.542a9.358,9.358,0,0,0-.391,1.243,7.281,7.281,0,0,0-8.6,3.907,9.476,9.476,0,0,0-4.578-.32,9.256,9.256,0,0,0-2.685.934,7,7,0,0,0-.561-.451,8.061,8.061,0,0,0-2.882-1.281,10.883,10.883,0,0,0-9.177,2.051,7.39,7.39,0,0,0-2.051-2.226,12.442,12.442,0,0,0-3.52-1.64C141.237,207.7,141.085,207.646,140.933,207.593Z" transform="translate(-128.724 -167.502)" fill="#d86155"/>
            <g id="Grupo_1228276" data-name="Grupo 1228276" transform="translate(22.546 16.853)">
              <path id="Trazado_1179213" data-name="Trazado 1179213" d="M159.1,184.557c-3.664.133-6.7,3.406-7.4,7.006s.568,7.344,2.558,10.422a11.334,11.334,0,0,0,4.367,4.234c4.006,1.931,9.079-.241,11.627-3.888a12.074,12.074,0,0,0,.487-13.132C168.214,185.3,162.959,184.416,159.1,184.557Z" transform="translate(-151.51 -184.543)" fill="#b7342e"/>
              <path id="Trazado_1179214" data-name="Trazado 1179214" d="M164.11,188.934a2.582,2.582,0,0,0,.26,1.453c.843,1.729,1.909,3.681,3.725,4.534,2.472,1.161,3.277-1.365,2.617-3.317a6.277,6.277,0,0,0-3.484-3.619,3.047,3.047,0,0,0-2.088-.263A1.417,1.417,0,0,0,164.11,188.934Z" transform="translate(-151.746 -184.601)" fill="#dd4b4b"/>
            </g>
          </g>
        </g>
      </g>
    </g>
  </g>
</svg>
