<svg xmlns="http://www.w3.org/2000/svg" xmlns:xlink="http://www.w3.org/1999/xlink" width="103" height="103" viewBox="0 0 103 103">
  <defs>
    <filter id="Trazado_982547" x="0" y="0" width="103" height="103" filterUnits="userSpaceOnUse">
      <feOffset dy="3" input="SourceAlpha"/>
      <feGaussianBlur stdDeviation="3" result="blur"/>
      <feFlood flood-opacity="0.161"/>
      <feComposite operator="in" in2="blur"/>
      <feComposite in="SourceGraphic"/>
    </filter>
  </defs>
  <g id="Grupo_1228284" data-name="Grupo 1228284" transform="translate(-171 -3754.965)">
    <g id="Grupo_1227863" data-name="Grupo 1227863" transform="translate(-26.01 -717.035)">
      <g id="Grupo_1203964" data-name="Grupo 1203964" transform="translate(206.01 4478)">
        <g id="Grupo_1203625" data-name="Grupo 1203625" transform="translate(0)">
          <g id="Grupo_1178314" data-name="Grupo 1178314" transform="translate(0 0)">
            <g id="Grupo_1173988" data-name="Grupo 1173988">
              <g id="Grupo_1172010" data-name="Grupo 1172010">
                <g id="Grupo_1171046" data-name="Grupo 1171046">
                  <g id="Grupo_1148525" data-name="Grupo 1148525">
                    <g transform="matrix(1, 0, 0, 1, -9, -6)" filter="url(#Trazado_982547)">
                      <g id="Trazado_982547-2" data-name="Trazado 982547" transform="translate(9 6)" fill="#f6f6fd">
                        <path d="M 42.5 83.5 C 36.96437835693359 83.5 31.59512901306152 82.41617584228516 26.54141235351562 80.27863311767578 C 21.65934181213379 78.21369171142578 17.27447128295898 75.25723266601562 13.50862312316895 71.49137878417969 C 9.742764472961426 67.72553253173828 6.786305904388428 63.34066009521484 4.721364498138428 58.45858764648438 C 2.583823442459106 53.40486907958984 1.5 48.03562164306641 1.5 42.5 C 1.5 36.96437835693359 2.583823442459106 31.59512901306152 4.721364498138428 26.54141235351562 C 6.786305904388428 21.65934181213379 9.742764472961426 17.27448272705078 13.50862312316895 13.50862312316895 C 17.27447128295898 9.742776870727539 21.65934181213379 6.786305904388428 26.54141235351562 4.721364498138428 C 31.59512901306152 2.583823442459106 36.96437835693359 1.5 42.5 1.5 C 48.03562164306641 1.5 53.40486907958984 2.583823442459106 58.45858764648438 4.721364498138428 C 63.34066009521484 6.786305904388428 67.72553253173828 9.742776870727539 71.49137878417969 13.50862312316895 C 75.25723266601562 17.27448272705078 78.21369171142578 21.65934181213379 80.27863311767578 26.54141235351562 C 82.41617584228516 31.59512901306152 83.5 36.96437835693359 83.5 42.5 C 83.5 48.03562164306641 82.41617584228516 53.40486907958984 80.27863311767578 58.45858764648438 C 78.21369171142578 63.34066009521484 75.25723266601562 67.72553253173828 71.49137878417969 71.49137878417969 C 67.72553253173828 75.25723266601562 63.34066009521484 78.21369171142578 58.45858764648438 80.27863311767578 C 53.40486907958984 82.41617584228516 48.03562164306641 83.5 42.5 83.5 Z" stroke="none"/>
                        <path d="M 42.5 3 C 37.16621398925781 3 31.99356079101562 4.043960571289062 27.125732421875 6.102882385253906 C 22.42246627807617 8.092185974121094 18.19785308837891 10.94070434570312 14.56928253173828 14.56928253173828 C 10.94070434570312 18.19785308837891 8.092185974121094 22.42246627807617 6.102882385253906 27.125732421875 C 4.043960571289062 31.99356079101562 3 37.16621398925781 3 42.5 C 3 47.83378601074219 4.043960571289062 53.00643920898438 6.102882385253906 57.87425231933594 C 8.092185974121094 62.57753372192383 10.94070434570312 66.80213165283203 14.56928253173828 70.43071746826172 C 18.19786834716797 74.05929565429688 22.42246627807617 76.90781402587891 27.125732421875 78.89711761474609 C 31.99356079101562 80.95603942871094 37.16621398925781 82 42.5 82 C 47.83378601074219 82 53.00642395019531 80.95603942871094 57.87425231933594 78.89711761474609 C 62.57753372192383 76.90781402587891 66.80213165283203 74.05929565429688 70.43071746826172 70.43071746826172 C 74.05929565429688 66.80213165283203 76.90781402587891 62.57753372192383 78.89711761474609 57.87425231933594 C 80.95603942871094 53.00642395019531 82 47.83378601074219 82 42.5 C 82 37.16621398925781 80.95603942871094 31.99356079101562 78.89711761474609 27.125732421875 C 76.90781402587891 22.42246627807617 74.05929565429688 18.19786834716797 70.43071746826172 14.56928253173828 C 66.80213165283203 10.94070434570312 62.57753372192383 8.092185974121094 57.87425231933594 6.102882385253906 C 53.00643920898438 4.043960571289062 47.83378601074219 3 42.5 3 M 42.5 0 C 65.97209167480469 0 85 19.02789306640625 85 42.5 C 85 65.97209167480469 65.97209167480469 85 42.5 85 C 19.02789306640625 85 0 65.97209167480469 0 42.5 C 0 19.02789306640625 19.02789306640625 0 42.5 0 Z" stroke="none" fill="#b1aef1"/>
                      </g>
                    </g>
                  </g>
                </g>
              </g>
            </g>
          </g>
        </g>
      </g>
    </g>
    <g id="sistema-nervioso" transform="translate(195.692 3773)">
      <g id="Grupo_1228283" data-name="Grupo 1228283" transform="translate(1.833 1.833)">
        <g id="Grupo_1228281" data-name="Grupo 1228281">
          <path id="Trazado_1179216" data-name="Trazado 1179216" d="M41.453,38.506l-6.327-1.582a4.166,4.166,0,0,1-3.155-4.038V30.364a4.158,4.158,0,0,1,1.215-2.939l3.338-3.338A12.954,12.954,0,0,0,27.342,2H22.813A10.822,10.822,0,0,0,11.99,12.823a12.4,12.4,0,0,1-.641,3.946,12.457,12.457,0,0,1-1.857,3.546l2.5,1.665v6.335a3.649,3.649,0,0,0,3.655,3.655,3.712,3.712,0,0,0,1-.142l5.336-1.523v2.581a4.166,4.166,0,0,1-3.155,4.038L12.5,38.506A13.857,13.857,0,0,0,2,51.951H51.951A13.857,13.857,0,0,0,41.453,38.506Z" transform="translate(-2 -2)" fill="#f0d0b4"/>
        </g>
        <g id="Grupo_1228282" data-name="Grupo 1228282" transform="translate(13.32 3.33)">
          <path id="Trazado_1179217" data-name="Trazado 1179217" d="M25.8,15.99H21.33a3.33,3.33,0,0,1,0-6.66,3.314,3.314,0,0,1,5.886-2.106A4.992,4.992,0,0,1,35.483,11c0,.042-.008.083-.008.117A3.532,3.532,0,0,1,36.315,11a3.329,3.329,0,0,1,3.33,3.33,4.252,4.252,0,0,1-.9,2.622,4.3,4.3,0,0,1-2.331,1.515,9.066,9.066,0,0,0-3.047,1.4,9.189,9.189,0,0,0-2.348,2.4l-1.365,2.056V21.751a4.312,4.312,0,0,0-.558-2.115,4.224,4.224,0,0,0-1.523-1.565A4.274,4.274,0,0,1,25.8,15.99Z" transform="translate(-18 -6)" fill="#dfb28b"/>
        </g>
      </g>
      <path id="Trazado_1179218" data-name="Trazado 1179218" d="M41.486,37.528l-6.328-1.581a3.327,3.327,0,0,1-2.523-3.232V30.2a3.312,3.312,0,0,1,.975-2.355l3.332-3.332a13.628,13.628,0,0,0,4.019-9.7A13.816,13.816,0,0,0,27.171,1H22.645A11.668,11.668,0,0,0,10.99,12.655a11.733,11.733,0,0,1-2.331,6.993l-.528.7,2.859,1.906v5.893a4.485,4.485,0,0,0,5.716,4.312l4.274-1.221v1.474a3.327,3.327,0,0,1-2.522,3.232L12.13,37.528A14.674,14.674,0,0,0,1,51.783v.833H52.616v-.833A14.674,14.674,0,0,0,41.486,37.528ZM12.534,39.142l6.328-1.581a4.988,4.988,0,0,0,3.784-4.846V29.034l-6.4,1.828a2.819,2.819,0,0,1-3.592-2.711V21.367l-2.16-1.44a13.424,13.424,0,0,0,2.16-7.272,10,10,0,0,1,9.99-9.99h4.526A12.149,12.149,0,0,1,39.3,14.811a11.974,11.974,0,0,1-3.53,8.522l-3.333,3.332A4.969,4.969,0,0,0,30.97,30.2v2.518a4.988,4.988,0,0,0,3.784,4.846l6.328,1.581a13,13,0,0,1,8.57,6.969,4.88,4.88,0,0,1-1.519,1.668,6.438,6.438,0,0,0-1.716-1.683l-.923,1.385a4.76,4.76,0,0,1,2.1,3.47H43.555l.73-6.569L42.631,44.2l-.751,6.753H27.64V49.286h3.33V47.621H27.64V39.3H29.1c.068,0,.134.008.2.01v1.984a6.429,6.429,0,0,0,2.868,5.36l.923-1.385a4.764,4.764,0,0,1-1.185-1.135,4.638,4.638,0,0,1,2.389-.671V41.793a6.3,6.3,0,0,0-3.129.846,4.774,4.774,0,0,1-.2-1.35V39.532a7.638,7.638,0,0,1,3.574,2.017l1.177-1.177A9.3,9.3,0,0,0,29.1,37.631H27.64V29.9l.162-.054a5.291,5.291,0,0,0,3.079-2.671l-1.489-.745a3.622,3.622,0,0,1-1.752,1.674v-4.38l1.23-1.844a8.3,8.3,0,0,1,4.9-3.453,5.087,5.087,0,0,0,3.861-4.944,4.134,4.134,0,0,0-4.222-4.162,5.823,5.823,0,0,0-8.961-4.039,4.12,4.12,0,0,0-2.635-.957,4.17,4.17,0,0,0-4.093,3.4,4.163,4.163,0,0,0,.763,8.255h3.953A5.115,5.115,0,0,0,24.3,17.947a3.472,3.472,0,0,1,1.59,2.224l-6.92.75-.943-1.886A3.305,3.305,0,0,0,16.1,17.366l-1.516-.505-.527,1.578,1.517.506a1.644,1.644,0,0,1,.962.834l1.035,2.07-.549,1.371a4.829,4.829,0,0,1-2.965,2.8l.526,1.58a6.5,6.5,0,0,0,3.985-3.759l.5-1.253,2.167-.236a7.858,7.858,0,0,0-.256,1.961h1.665a6.174,6.174,0,0,1,.392-2.155l2.938-.319V33.216l-.065.1a6.877,6.877,0,0,1-3.528,2.695l.527,1.578a8.549,8.549,0,0,0,3.067-1.814v5.188H20.345l-3.154-1.578-.745,1.489,2.438,1.219-.9,1.2a2.508,2.508,0,0,1-2,1H14.32v1.665h1.665a4.181,4.181,0,0,0,3.33-1.665l1.249-1.665h5.411v3.33h-1.32L22.4,43.7l-1.177,1.177L22.3,45.956H19.315v1.665h2.437A7.376,7.376,0,0,1,20.567,50.9l-.032.049h-8.8l-.75-6.752-1.654.184.241,2.17a6.06,6.06,0,0,0-1.954,1.8,4.294,4.294,0,0,0-1.229-.649l-.128-.043L5.73,49.243l.13.042a2.629,2.629,0,0,1,1.664,1.665H2.692a13.009,13.009,0,0,1,9.842-11.808Zm13.442,8.478v3.33H22.461a9.024,9.024,0,0,0,.974-3.33Zm0-38.3a4.183,4.183,0,0,0-4.163,4.233,5.038,5.038,0,0,0,.063.762H18.483a2.5,2.5,0,0,1,0-5h.833V8.493a2.484,2.484,0,0,1,4.414-1.578l.543.659.645-.559A4.157,4.157,0,0,1,31.8,10.168l-.038,1.194,1.076-.279a2.443,2.443,0,0,1,.629-.093,2.5,2.5,0,0,1,2.5,2.5,3.427,3.427,0,0,1-2.6,3.33,9.955,9.955,0,0,0-5.735,3.945,5.141,5.141,0,0,0-2.476-4.243,3.5,3.5,0,0,1-1.677-3.032A2.5,2.5,0,0,1,26.6,11.069l.414-1.613a4.2,4.2,0,0,0-1.039-.131ZM8.77,49.688a4.383,4.383,0,0,1,1.011-1.255l.28,2.518H9.235A4.279,4.279,0,0,0,8.77,49.688Zm40.485,1.263a6.444,6.444,0,0,0-.361-1.694,6.519,6.519,0,0,0,1.485-1.3,13.018,13.018,0,0,1,.546,2.99Z"/>
    </g>
  </g>
</svg>
