<svg xmlns="http://www.w3.org/2000/svg" xmlns:xlink="http://www.w3.org/1999/xlink" width="295" height="381" viewBox="0 0 295 381">
  <defs>
    <clipPath id="clip-path">
      <rect id="Rectángulo_422847" data-name="Rectángulo 422847" width="295" height="381" transform="translate(179.554 5135)" fill="#fff" stroke="#707070" stroke-width="1"/>
    </clipPath>
    <clipPath id="clip-path-2">
      <rect id="Rectángulo_422845" data-name="Rectángulo 422845" width="447.939" height="447.027" transform="translate(0 0)"/>
    </clipPath>
  </defs>
  <g id="Enmascarar_grupo_1211496" data-name="Enmascarar grupo 1211496" transform="translate(-179.554 -5135)" clip-path="url(#clip-path)">
    <g id="Grupo_1228305" data-name="Grupo 1228305" transform="translate(1568.685 51.946) rotate(20)">
      <g id="Grupo_1228286" data-name="Grupo 1228286" transform="translate(445 5145)">
        <g id="Grupo_1228285" data-name="Grupo 1228285" transform="translate(0 0)" clip-path="url(#clip-path-2)">
          <path id="Trazado_1179219" data-name="Trazado 1179219" d="M102.178-.272A79.129,79.129,0,0,1,203.368,60.45c4.236,22.175-1.1,45.537,4.494,67.41,5.694,22.276,22.849,40.914,43.939,50.069s45.638,9.166,67.395,1.73c18.549-6.34,34.915-17.67,52.436-26.46,31.953-16.03,69.5-23.5,103.886-13.709" transform="translate(-10.714 -0.129)" fill="none" stroke="#97aac4" stroke-linecap="round" stroke-linejoin="round" stroke-miterlimit="10" stroke-width="2" stroke-dasharray="0 10"/>
          <path id="Trazado_1179220" data-name="Trazado 1179220" d="M-11.776,239.356c26.634-15.426,59.186-20.931,89.062-13.531s56.543,28.034,69.789,55.816c15.182,31.841,12.562,70.218,29.211,101.318,19.073,35.629,64.079,55.1,103.107,44.612,9.393-2.524,18.324-6.55,27.675-9.227,22.841-6.537,48.406-4.479,68.975,7.409s35.427,33.94,36.805,57.657" transform="translate(1.23 -23.85)" fill="none" stroke="#97aac4" stroke-linecap="round" stroke-linejoin="round" stroke-miterlimit="10" stroke-width="2" stroke-dasharray="0 10"/>
        </g>
      </g>
      <g id="Grupo_1228293" data-name="Grupo 1228293" transform="translate(544.649 5190.674)">
        <g id="Grupo_1228289" data-name="Grupo 1228289" transform="translate(104.029 20.927) rotate(-22)">
          <g id="Grupo_1228287" data-name="Grupo 1228287" transform="translate(19.872 77.378)">
            <path id="Trazado_1179221" data-name="Trazado 1179221" d="M341.379,98.153c-22.56-2.67-24.725-4.835-27.4-27.4-2.67,22.56-4.835,24.725-27.4,27.4,22.56,2.67,24.725,4.834,27.4,27.4C316.653,102.987,318.817,100.824,341.379,98.153Z" transform="translate(-286.588 -70.758)" fill="#fff"/>
          </g>
          <g id="Grupo_1228288" data-name="Grupo 1228288">
            <path id="Trazado_1179222" data-name="Trazado 1179222" d="M272.551,68.576c-13.977-1.654-15.318-3-16.972-16.972-1.654,13.977-3,15.317-16.972,16.972,13.977,1.654,15.318,3,16.972,16.972C257.233,71.57,258.574,70.229,272.551,68.576Z" transform="translate(-238.607 -51.604)" fill="#fff"/>
          </g>
        </g>
        <g id="Grupo_1228292" data-name="Grupo 1228292" transform="translate(-11.437 252.52) rotate(-21)">
          <g id="Grupo_1228290" data-name="Grupo 1228290">
            <path id="Trazado_1179223" data-name="Trazado 1179223" d="M166.112,341.329c-22.56-2.67-24.725-4.834-27.4-27.4-2.67,22.56-4.835,24.725-27.4,27.4,22.56,2.67,24.725,4.835,27.4,27.4C141.387,346.164,143.551,344,166.112,341.329Z" transform="translate(-111.321 -313.934)" fill="#fff"/>
          </g>
          <g id="Grupo_1228291" data-name="Grupo 1228291" transform="translate(50.044 45.452)">
            <path id="Trazado_1179224" data-name="Trazado 1179224" d="M201.169,381.68c-13.977-1.654-15.317-3-16.972-16.972-1.654,13.977-3,15.317-16.972,16.972,13.977,1.654,15.318,3,16.972,16.972C185.852,384.675,187.192,383.334,201.169,381.68Z" transform="translate(-167.225 -364.708)" fill="#fff"/>
          </g>
        </g>
      </g>
      <g id="Grupo_1228294" data-name="Grupo 1228294" transform="translate(506.728 5233.351)">
        <path id="Trazado_1179225" data-name="Trazado 1179225" d="M399.188,133.846l0-4.994a5.071,5.071,0,0,0-5.066-5.076h0a5.072,5.072,0,0,0-5.077,5.067l0,4.992a1.7,1.7,0,0,1-1.7,1.7l-4.994,0a5.072,5.072,0,0,0-5.077,5.067h0a5.071,5.071,0,0,0,5.067,5.077l4.992,0a1.7,1.7,0,0,1,1.7,1.7l0,4.994a5.071,5.071,0,0,0,5.066,5.076h0a5.072,5.072,0,0,0,5.077-5.067l0-4.992a1.7,1.7,0,0,1,1.7-1.7l4.993,0a5.072,5.072,0,0,0,5.077-5.067h0a5.072,5.072,0,0,0-5.067-5.077l-4.992,0A1.7,1.7,0,0,1,399.188,133.846Z" transform="translate(-103.907 -123.776)" fill="#ff6161"/>
        <path id="Trazado_1179226" data-name="Trazado 1179226" d="M90.878,287.958l0-4.994a5.071,5.071,0,0,0-5.066-5.076h0a5.072,5.072,0,0,0-5.077,5.067l0,4.992a1.7,1.7,0,0,1-1.7,1.7l-4.994,0a5.072,5.072,0,0,0-5.077,5.066h0a5.072,5.072,0,0,0,5.067,5.077l4.992,0a1.7,1.7,0,0,1,1.7,1.7l0,4.994a5.071,5.071,0,0,0,5.066,5.076h0a5.072,5.072,0,0,0,5.077-5.067l0-4.992a1.7,1.7,0,0,1,1.7-1.7l4.993,0a5.072,5.072,0,0,0,5.077-5.066h0a5.072,5.072,0,0,0-5.067-5.077l-4.992,0A1.7,1.7,0,0,1,90.878,287.958Z" transform="translate(-68.96 -117.999)" fill="#ff6161"/>
      </g>
      <g id="Grupo_1228295" data-name="Grupo 1228295" transform="translate(510.67 5195.786)">
        <path id="Trazado_1179227" data-name="Trazado 1179227" d="M432.028,355.12l-1.7-1.7a2.44,2.44,0,0,0-3.451,0h0a2.44,2.44,0,0,0,0,3.452l1.7,1.7a.819.819,0,0,1,0,1.158l-1.7,1.7a2.44,2.44,0,0,0,0,3.451h0a2.44,2.44,0,0,0,3.452,0l1.7-1.7a.819.819,0,0,1,1.158,0l1.7,1.7a2.441,2.441,0,0,0,3.451,0h0a2.44,2.44,0,0,0,0-3.452l-1.7-1.7a.819.819,0,0,1,0-1.158l1.7-1.7a2.44,2.44,0,0,0,0-3.451h0a2.44,2.44,0,0,0-3.452,0l-1.7,1.7A.819.819,0,0,1,432.028,355.12Z" transform="translate(-122.623 -68.978)" fill="#5f89d3"/>
        <path id="Trazado_1179228" data-name="Trazado 1179228" d="M258.46,116.958l-1.7-1.7a2.441,2.441,0,0,0-3.451,0h0a2.441,2.441,0,0,0,0,3.452l1.7,1.7a.819.819,0,0,1,0,1.158l-1.7,1.7a2.44,2.44,0,0,0,0,3.451h0a2.44,2.44,0,0,0,3.452,0l1.7-1.7a.819.819,0,0,1,1.158,0l1.7,1.7a2.44,2.44,0,0,0,3.451,0h0a2.441,2.441,0,0,0,0-3.452l-1.7-1.7a.819.819,0,0,1,0-1.158l1.7-1.7a2.44,2.44,0,0,0,0-3.451h0a2.44,2.44,0,0,0-3.452,0l-1.7,1.7A.818.818,0,0,1,258.46,116.958Z" transform="translate(-92.15 -63.313)" fill="#5f89d3"/>
        <path id="Trazado_1179229" data-name="Trazado 1179229" d="M93.644,378.881l-1.7-1.7a2.441,2.441,0,0,0-3.451,0h0a2.441,2.441,0,0,0,0,3.452l1.7,1.7a.819.819,0,0,1,0,1.158l-1.7,1.7a2.441,2.441,0,0,0,0,3.451h0a2.44,2.44,0,0,0,3.452,0l1.7-1.7a.819.819,0,0,1,1.158,0l1.7,1.7a2.44,2.44,0,0,0,3.451,0h0a2.44,2.44,0,0,0,0-3.452l-1.7-1.7a.819.819,0,0,1,0-1.158l1.7-1.7a2.44,2.44,0,0,0,0-3.451h0a2.44,2.44,0,0,0-3.452,0l-1.7,1.7A.82.82,0,0,1,93.644,378.881Z" transform="translate(-74.874 -90.767)" fill="#5f89d3"/>
        <path id="Trazado_1179230" data-name="Trazado 1179230" d="M432.028,355.12l-1.7-1.7a2.44,2.44,0,0,0-3.451,0h0a2.44,2.44,0,0,0,0,3.452l1.7,1.7a.819.819,0,0,1,0,1.158l-1.7,1.7a2.44,2.44,0,0,0,0,3.451h0a2.44,2.44,0,0,0,3.452,0l1.7-1.7a.819.819,0,0,1,1.158,0l1.7,1.7a2.441,2.441,0,0,0,3.451,0h0a2.44,2.44,0,0,0,0-3.452l-1.7-1.7a.819.819,0,0,1,0-1.158l1.7-1.7a2.44,2.44,0,0,0,0-3.451h0a2.44,2.44,0,0,0-3.452,0l-1.7,1.7A.819.819,0,0,1,432.028,355.12Z" transform="translate(-426.155 -352.703)" fill="#5f89d3"/>
      </g>
      <g id="Grupo_1228304" data-name="Grupo 1228304" transform="translate(515.262 5195.786)">
        <path id="Trazado_1179253" data-name="Trazado 1179253" d="M159.936,199.261c1.567,3.917-.485,8.222-1.583,12.3a27.22,27.22,0,0,0,.564,15.89c1.762,5.077,5.043,9.668,5.793,14.989a15.959,15.959,0,0,1-4.527,13.486,15.86,15.86,0,0,0-.287-13.906c-1.376-2.626-3.5-4.87-4.323-7.684.219,3.252-1.306,6.381-3.194,9.04s-4.172,5.035-5.831,7.844c-2.773,4.7-3.6,10.263-4.223,15.682-.5,4.361-.885,8.944.906,12.941a27.147,27.147,0,0,1-.563-27.445c-.971,1.462-2.761,2.092-4.26,3-3.334,2.025-5.363,5.576-7.787,8.631s-5.884,5.9-9.8,5.539c4.334-2.005,6.279-6.962,9.219-10.724,2.509-3.21,5.864-5.637,9.2-7.982s6.731-4.691,9.379-7.788,4.5-7.1,4.146-11.158c-.277-3.165-1.856-6.108-2.133-9.274-.275-3.138.744-6.225,1.155-9.348a21.311,21.311,0,0,0-.858-9.649c-.124,2.776-2.488,4.829-4.2,7.023a17.264,17.264,0,0,0-3.6,9.89c-.121,3.214.664,6.393.8,9.608a12.4,12.4,0,0,1-3.214,9.494,14.582,14.582,0,0,0,.867-6.788c-.238-2.14-.948-4.2-1.358-6.312a22.958,22.958,0,0,1,4.255-18.093c-2.347,2.564-4.76,5.236-5.829,8.543-1.018,3.147-.713,6.547-1.064,9.836s-1.654,6.844-4.773,8.535c2.14-2.542,2.553-6.1,2.577-9.418s-.231-6.748.891-9.876c1.636-4.565,6.094-8.217,6.085-13.071-2.527,2.787-5.991,4.517-8.926,6.871-7.049,5.653-10.642,14.53-13.072,23.232a52.726,52.726,0,0,1-2.558,7.867,16.3,16.3,0,0,1-4.881,6.352c4.674-7.449,3.129-17.317,6.724-25.344,1.609-3.591,4.189-6.67,5.928-10.2s2.535-7.941.162-10.908a31.227,31.227,0,0,1-5.152,6.469,32.947,32.947,0,0,1-4.514,4.068c-3.89,2.751-8.672,3.862-13.014,5.824-10.022,4.528-17.81,14.366-18.81,25.751a18.908,18.908,0,0,1,2.022-13.21,44.681,44.681,0,0,1,8.255-10.374c-2.212,1.174-4.907.889-7.332.267s-4.816-1.552-7.318-1.582a20.712,20.712,0,0,0-7.588,1.877,40.551,40.551,0,0,0-7.434,3.474A16.035,16.035,0,0,0,59.2,229.5a20.336,20.336,0,0,1,15.646-12.846c-2.861-1.4-6.307-.975-9.295.135s-5.7,2.843-8.634,4.088a14.263,14.263,0,0,1-9.859.916c3.545-.235,6.684-2.246,9.8-3.957,5.458-3,11.636-5.266,17.811-4.487,5.065.64,9.852,3.3,14.95,3.028,3.115-.165,6.058-1.414,8.914-2.665a33.985,33.985,0,0,0,8.335-4.65c6.025-5.022,7.938-13.334,12.068-20a11.208,11.208,0,0,1,4.138-4.313c-4.807,1.068-8.955,3.98-13.141,6.57s-8.815,4.976-13.734,4.789a21.026,21.026,0,0,1-5.639-1.14c4.363-.154,9.017-.8,12.282-3.7A21.627,21.627,0,0,0,105.655,188l4.958-6.592c3-3.991,6.181-8.13,10.689-10.279a7.254,7.254,0,0,1,5.231-.72,15.925,15.925,0,0,0-18.751,0c-3.286,2.506-5.518,6.281-9.059,8.411-2.857,1.719-6.265,2.185-9.478,3.075s-6.545,2.461-8.152,5.474c1.9-4.073,6.113-6.514,10.227-8.331a23.435,23.435,0,0,0,3.942-2,11.425,11.425,0,0,0,3.01-3.157c-4.4,1.3-9.348,1.154-13.169,3.693a24.464,24.464,0,0,0-2.96,2.487c-3.493,3.215-7.347,6.206-11.855,7.7a16.669,16.669,0,0,1-14.069-1.439,24.314,24.314,0,0,0,16.83-4.034c4.486-3.089,7.889-7.674,12.709-10.212a19.951,19.951,0,0,1,13.327-1.685c-2.831-.878-4.664-3.523-6.879-5.492a18.7,18.7,0,0,0-13.919-4.39,24.827,24.827,0,0,0-13.712,6.083,27.205,27.205,0,0,1,10.632-8.794,16.356,16.356,0,0,1,13.52-.012,36.823,36.823,0,0,1,4.819,3.2,25.965,25.965,0,0,0,7,3.739,13.246,13.246,0,0,0,7.844.26,33.835,33.835,0,0,0,3.567-1.486,18.551,18.551,0,0,1,9.393-1.69c3.2.364,6.337,1.977,7.815,4.522a15.171,15.171,0,0,0-8.192-14.343c-2.879-1.426-6.241-1.928-8.77-3.911-5.071-3.977-4.774-12.122-9.339-16.671-2.588-2.578-6.3-3.567-9.681-4.95s-6.871-3.643-7.5-7.588a11.536,11.536,0,0,0,9.427,5.812,16.819,16.819,0,0,1,4.355.281A20.327,20.327,0,0,0,86.189,111.7a12.86,12.86,0,0,1,12.374,5.622c1.815,2.815,2.48,6.309,4.574,9.108a9.026,9.026,0,0,1-.06-5.573c.488-1.825,1.3-3.545,1.956-5.317A32.083,32.083,0,0,0,107,105.72c.114-2.785-.316-5.931-2.282-7.4,3.026,1.472,4.654,4.949,4.873,8.308s-.723,6.669-1.612,9.914-1.744,6.6-1.344,9.939a25.625,25.625,0,0,0,2.631,7.741,22.84,22.84,0,0,0,2.764,4.769c2.548,3.135,6.49,4.78,10.383,5.856a24.629,24.629,0,0,1,6.469,2.3c3.815,2.339,5.625,6.985,5.718,11.392,1.735-4.219,3.444-8.595,3.4-13.157-.1-10.457-9.223-19.126-9.646-29.574-.324-8.029,4.554-15.332,5.819-23.268,1.04-6.528-.44-13.291-3.386-19.467a16.634,16.634,0,0,1,6.1,10.62,26.976,26.976,0,0,1-1.165,12.383c-.9,2.884-2.152,5.777-1.89,8.739.774-3.059,2.879-5.6,5.121-7.82s4.7-4.267,6.5-6.862,2.864-5.928,1.912-8.937c-.761-2.4-2.684-4.271-3.655-6.6a8.973,8.973,0,0,1,.048-7.016,6.551,6.551,0,0,0,1.73,5.492,38.16,38.16,0,0,0,3.058,2.413,9.917,9.917,0,0,1,3.306,9.045,23.2,23.2,0,0,0,1.791-8.064,64.343,64.343,0,0,1,.168-6.562c.307-2.167,1.26-4.386,3.038-5.478-2.368,5.366-.641,11.64-1.766,17.4a17.742,17.742,0,0,1-3.171,7.17,43.05,43.05,0,0,1-6.649,6.466,39.818,39.818,0,0,0-7.23,7.785,18.163,18.163,0,0,0-3.308,9.741,34.256,34.256,0,0,0,6.122,16.616c1.511,2.231,3.25,4.367,4.155,6.905a30.8,30.8,0,0,1,1.158,7.134,46.543,46.543,0,0,0,3.04,12.331c-.978-3.173-.076-6.6,1-9.74s2.346-6.35,2.028-10.034c1.243,3.113.679,6.61.241,9.933s-.675,6.939,1.089,9.789c.73,1.18,1.829,2.39,1.608,3.577a30.847,30.847,0,0,1,1.506-8.909c1.644-4.316,5.126-7.66,7.332-11.719,3.021-5.556,3.491-12.216,2.327-18.819,2.541,3.254,2.917,7.761,2.156,11.818s-2.527,7.845-3.918,11.732c-2.413,6.737-3.71,14.171-1.458,20.881-.527-2.048.782-4.086,2.118-5.725a53.047,53.047,0,0,1,6.4-6.593c2.555-2.211,5.317-4.176,7.809-6.458a21.865,21.865,0,0,0,5.939-8.1,22.665,22.665,0,0,0,1.251-6.433c.242-3.355.024-7.024-2.141-9.6-1.33-1.582-3.267-2.574-4.552-4.192-1.592-2-2-4.727-3.464-6.828-2.258-3.239-6.645-4.375-10.568-3.944-2.143.235-4.533.8-6.353-.44,1.573.232,2.881-1.089,4.172-2.015a9.843,9.843,0,0,1,8.081-1.508,10.534,10.534,0,0,1,6.414,5.028,15.092,15.092,0,0,1,2.43-9.829c2.037-3.059,5.111-5.248,7.668-7.887s4.714-6.158,4.094-9.925c1.038,3.019.114,6.405-1.507,9.156s-3.885,5.053-5.83,7.586-3.62,5.459-3.736,8.649a14.847,14.847,0,0,0,.665,4.528,17.513,17.513,0,0,0,1.5,3.822c1.537,2.75,4.1,4.813,5.641,7.563a11.926,11.926,0,0,1-.418,12.217,15.193,15.193,0,0,0,3.036-7.033A44.952,44.952,0,0,1,193.578,119a12.194,12.194,0,0,1,5.777-6.487c-2.691,3.179-3.523,7.511-3.919,11.657s-.469,8.411-1.994,12.288c-3.017,7.677-10.911,12.115-16.27,18.386A30.761,30.761,0,0,0,169.747,176c1.777-6.006,7.255-10.1,12.7-13.2s11.376-5.785,15.35-10.625c5.287-6.441,6.1-15.43,10.074-22.756a28.047,28.047,0,0,1,14.136-12.63c-4.441,3.271-8.748,7.209-10.512,12.435-1.969,5.836-.633,12.865-4.064,18.146a31.923,31.923,0,0,1,14.779-9.945c4.206-1.336,8.65-1.782,12.878-3.05s8.43-3.571,10.31-7.407c-1.05,3.585-4.041,6.324-7.353,8.053s-6.984,2.614-10.551,3.727-7.153,2.525-10.027,5.824c2.242-1.555,5.254-1.123,7.937-.628l3.666.676a10.492,10.492,0,0,0,2.662.259,11.536,11.536,0,0,0,4.383-1.679,15.97,15.97,0,0,1-10.529,4.9c-3.453.2-6.937-.729-10.356-.209-3.717.564-6.968,2.784-9.8,5.252s-5.415,5.257-8.545,7.336c-3.606,2.394-7.827,3.77-11.344,6.294-4.342,3.118-7.3,7.756-10.35,12.716,3.873-5.342,10.965-7.284,17.556-7.565,2.931-.124,6-.025,8.618-1.356,3.872-1.97,5.65-6.474,8.746-9.522a11.971,11.971,0,0,1,9.672-3.589c-4.3,1.27-7.327,5.1-9.549,9-1.538,2.694-3.053,5.735-6.191,7.442,1.737-.85,3.782-.175,5.7.082a12.519,12.519,0,0,0,11.919-5.191c-3.011,5.641-9.8,8.331-16.189,8.574-3.7.141-7.719-.293-11.4,1.824,4.092-.45,7.968,1.939,10.989,4.735s5.613,6.123,9.107,8.3a18.589,18.589,0,0,0,18.867,0,17.991,17.991,0,0,1-11.047,3.312c-3.914-.042-7.76-1.052-11.913-2.075a18.591,18.591,0,0,1,7.691,5.643,7.178,7.178,0,0,1,1.912,5.534,9.761,9.761,0,0,0-4.855-5.36c-1.191-.577-2.494-.905-3.658-1.536-3.9-2.114-5.314-6.971-8.357-10.2-3.525-3.739-9.107-5-14.2-4.317s-9.792,3.082-14.562,5.95a6.913,6.913,0,0,1,5.359,2.182c1.456,1.361,2.6,3.027,4.063,4.383a13.522,13.522,0,0,0,6.563,3.34c2.422.474,4.929.275,7.378.588a17.831,17.831,0,0,1,9.133,4c3.259,2.731,5.419,6.523,8.169,9.766s6.573,6.108,10.755,6.093a13.712,13.712,0,0,1-5.459-.3,15.2,15.2,0,0,1-3.869-1.382c-2.706-1.468-4.643-3.993-6.794-6.2s-4.852-4.24-8.425-3.9a10.339,10.339,0,0,1,5.536,4.423c1.373,1.985,2.409,4.193,3.854,6.125a10.1,10.1,0,0,0,5.847,4.118c-3.2-.757-6.44-1.832-8.878-4.033a44.731,44.731,0,0,1-4.074-4.853,24.733,24.733,0,0,0-12.491-8c-3.6-.969-7.417-1.118-10.885-2.482-3.4-1.335-6.238-3.748-10.056-5.257,8.983,8.584,18.107,17.347,24.108,28.225,18.4,33.35,3.241,77.459,20.782,111.268,11.059,21.313,33.79,34.768,56.565,39.853-16.275.353-32.831-3.049-46.885-11.266s-25.416-21.47-29.876-37.126c-5.072-17.8-1.095-36.789-1.89-55.282C191.413,246.492,179.561,220.147,159.936,199.261Z" transform="translate(-47.059 -64.423)" fill="#ff9280"/>
        <path id="Trazado_1179254" data-name="Trazado 1179254" d="M293.237,409.283c-1.344-.8-1.533-2.67-1.285-4.212a12.852,12.852,0,0,1,1.85-4.857c.751-1.178,1.691-2.228,2.447-3.4,3.3-5.139,2.568-12.043.023-17.37a5.713,5.713,0,0,1,2.925,3.3,19.123,19.123,0,0,1,1.075,12.283c-.827,3.327-2.57,6.573-2.011,10.822.993-1.686,3.2-2.26,5.149-2.12s3.829.831,5.776,1.017a10.058,10.058,0,0,0,7.956-2.684,8.487,8.487,0,0,0,2.193-8.156c2.263,2.112,2.243,5.755,1.252,8.686a9.369,9.369,0,0,1-1.681,3.158,8.269,8.269,0,0,1-4.814,2.554,18.719,18.719,0,0,1-5.536,0c-2-.238-4.246-.526-5.73.786,2.656,3.773,6.38,6.972,10.844,8.134,5.213,1.359,10.767-.159,16.094.622a18.161,18.161,0,0,1,13.01,8.764c-1.813-2.993-5.495-4.353-8.985-4.6s-6.982.4-10.48.388a27.947,27.947,0,0,1-13.284-3.429c-3.843-2.108-7.418-5.2-11.7-5.254a5.311,5.311,0,0,1,3.167,2.477c.747,1.155,1.237,2.456,1.906,3.66,2.069,3.722,5.751,6.333,9.693,7.942,1.866.762,3.814,1.33,5.606,2.254a9.458,9.458,0,0,1,4.433,4.337,8.7,8.7,0,0,0-5-3.153c-1.938-.538-3.959-.733-5.9-1.267a15.943,15.943,0,0,1-6.252-3.306c-2.173-1.9-3.729-4.38-5.448-6.7s-3.724-4.568-6.389-5.674a10.368,10.368,0,0,1,2.578,6.579,28.117,28.117,0,0,1-.76,7.153,20.26,20.26,0,0,0-.49,3.418,9.78,9.78,0,0,0,2.536,6.769c2.1,2.3,4.405,4.495,6.638,3.3-5.349,2.872-10.761-6.137-12.5-11.952a9.146,9.146,0,0,1-.456-2.686,21.567,21.567,0,0,1,.816-4.117,10.8,10.8,0,0,0-2.04-9.085c-.978-1.162-2.293-2.151-2.445-3.709l3.787.111C292.49,410.072,293.343,409.99,293.237,409.283Z" transform="translate(-72.315 -97.442)" fill="#d86155"/>
        <path id="Trazado_1179255" data-name="Trazado 1179255" d="M205.091,277.21a3.714,3.714,0,0,0,4.474,2.327,24.893,24.893,0,0,0,2.267-1.11,15.155,15.155,0,0,1,4.285-.707,5.075,5.075,0,0,0,3.792-1.854,4.818,4.818,0,0,0,.293-3.885,29.415,29.415,0,0,1-1.108-3.856c-.279-2.132.483-4.49-.607-6.344-.9-1.53-2.746-2.153-4.272-3.061a10.97,10.97,0,0,1-4.587-5.442c-.38-.99-.615-2.037-1.09-2.984a16.5,16.5,0,0,1-.884-1.714c-.78-2.137.517-4.433.654-6.7a13.217,13.217,0,0,0-.648-4.169,6.508,6.508,0,0,0-1.788-3.527,3.984,3.984,0,0,0-3.62-.587,6.919,6.919,0,0,0-3.1,2.14,8.569,8.569,0,0,0-1.418,2.144,13.914,13.914,0,0,0-.881,3.448q-.583,3.5-1.163,7a5.669,5.669,0,0,0-.107,1.718,5.839,5.839,0,0,0,.619,1.681,161.061,161.061,0,0,1,6.444,16.167,30.47,30.47,0,0,1,1.131,3.634C204.2,273.444,204.514,275.395,205.091,277.21Z" transform="translate(-62.623 -82.135)" fill="#6c92e5"/>
        <path id="Trazado_1179256" data-name="Trazado 1179256" d="M222.324,301.715c-2.14-2.695-6.107-3.135-9.493-2.518-2.95.537-6.127,2.081-6.914,4.975-.562,2.066.257,4.23,1.08,6.207a7.946,7.946,0,0,0,1.773,2.946c.6.543,1.353.9,1.935,1.461a6.648,6.648,0,0,1,1.589,3.642,34.589,34.589,0,0,1,.541,4.248c.218,3.316-.224,7.05-2.764,9.2a3.965,3.965,0,0,0-.85.826c-.552.875-.064,2.043.6,2.835a8.214,8.214,0,0,1,1.857,2.457c.478,1.444-.378,2.974-1.321,4.165s-2.062,2.4-2.212,3.91c-.23,2.31,1.95,4.208,4.174,4.87a10.162,10.162,0,0,0,9.843-2.468,19.942,19.942,0,0,0,3.261-4.831,4.678,4.678,0,0,0,.735-2.114,3.592,3.592,0,0,0-1.437-2.612c-.78-.669-1.695-1.168-2.452-1.862a6.489,6.489,0,0,1-1.731-6.676,34.2,34.2,0,0,1,2.3-4.249,13.168,13.168,0,0,0,1.214-4.259,37.716,37.716,0,0,0-.206-8.438C223.46,309.462,224.722,304.733,222.324,301.715Z" transform="translate(-63.69 -89.005)" fill="#8db6ff"/>
        <path id="Trazado_1179257" data-name="Trazado 1179257" d="M236.837,373.688c-1.771-1.88-2.683-4.967-5.217-5.468a5.557,5.557,0,0,0-2.416.2,20.924,20.924,0,0,0-9.03,4.89,4.349,4.349,0,0,0-1.339,1.84,4.619,4.619,0,0,0,.332,2.816c.89,2.521,2.251,5.188,4.747,6.14a21.036,21.036,0,0,0,4.006.679,4.211,4.211,0,0,1,3.307,2.08c.266.6.321,1.331.8,1.781a2.818,2.818,0,0,0,1.682.517,8.384,8.384,0,0,1,4.17,1.473,4.8,4.8,0,0,1,2.02,3.807c-.013.618-.175,1.231-.129,1.848a4.93,4.93,0,0,0,1.405,2.72,20.966,20.966,0,0,0,4.454,3.872,6.246,6.246,0,0,0,3.81,1.27c2.348-.207,3.855-2.514,5-4.574q.882-1.59,1.766-3.179a2.125,2.125,0,0,0-.218-3.04c-2.091-2.528-4.454-5.223-7.684-5.8-1.174-.21-2.378-.119-3.561-.25a9.627,9.627,0,0,1-6.841-4.151,5.258,5.258,0,0,1-.927-2.243c-.164-1.332.418-2.631.666-3.95S237.644,374,236.837,373.688Z" transform="translate(-65.052 -96.259)" fill="#6c92e5"/>
        <g id="Grupo_1228301" data-name="Grupo 1228301" transform="translate(127.068 146.702)">
          <line id="Línea_631" data-name="Línea 631" x1="11.679" y2="1.402" transform="translate(18.128 56.154)" fill="none" stroke="#d86155" stroke-linecap="round" stroke-linejoin="round" stroke-miterlimit="10" stroke-width="1"/>
          <line id="Línea_632" data-name="Línea 632" x1="14.194" y2="6.472" transform="translate(22.714 117.81)" fill="none" stroke="#d86155" stroke-linecap="round" stroke-linejoin="round" stroke-miterlimit="10" stroke-width="1"/>
          <line id="Línea_633" data-name="Línea 633" x1="2.995" y2="6.038" transform="translate(68.441 156.402)" fill="none" stroke="#d86155" stroke-linecap="round" stroke-linejoin="round" stroke-miterlimit="10" stroke-width="1"/>
          <line id="Línea_634" data-name="Línea 634" x1="8.786" y2="6.233" fill="none" stroke="#d86155" stroke-linecap="round" stroke-linejoin="round" stroke-miterlimit="10" stroke-width="1"/>
        </g>
        <g id="Grupo_1228303" data-name="Grupo 1228303" transform="translate(72.934 92.155)">
          <path id="Trazado_1179258" data-name="Trazado 1179258" d="M173.5,182.9a5.911,5.911,0,0,0-2.026-3.383c-1.287-.843-2.989-.605-4.456-1.071-2.694-.854-4.033-3.788-6.028-5.79a2.916,2.916,0,0,0-1.958-1.037c-.812,0-1.51.585-2.308.732-1.318.243-2.55-.729-3.381-1.781a10.507,10.507,0,0,0-2.686-2.951,1.463,1.463,0,0,0-1.058-.226c-.49.126-.777.621-1,1.074a43.449,43.449,0,0,0-2.962,7.776,2.417,2.417,0,0,1-.431.983c-1.019,1.166-3.04-.44-4.45.2-1.1.5-1.176,2.054-.861,3.225s.846,2.428.368,3.543c-.528,1.232-2.018,1.673-3.325,1.969l-4.446,1.01a6.87,6.87,0,0,0-3,1.207,2.358,2.358,0,0,0-.7,2.91c.561.884,1.753,1.06,2.792,1.192,2.7.346,5.911,1.539,6.291,4.237.239,1.693-.782,3.268-1.578,4.78s-1.371,3.465-.356,4.84c1.358,1.841,4.69,1.425,5.749,3.454.578,1.107.294,2.7,1.311,3.427a2.192,2.192,0,0,0,2.488-.269,25.13,25.13,0,0,0,1.887-1.9,5.817,5.817,0,0,1,5.195-1.358,2.68,2.68,0,0,1,1.673,1.012,7.053,7.053,0,0,1,.57,1.9c.193.638.744,1.292,1.4,1.167a4.595,4.595,0,0,1,8.162-1.47c2.045-1.221,2.139-4.873,4.487-5.268,1.657-.278,3.409,1.431,4.872.605,1.311-.74.993-2.695,1.549-4.095.759-1.911,3.051-2.575,4.826-3.614a6.864,6.864,0,0,0,3.065-3.406,4.35,4.35,0,0,0-.705-4.386c-1.083-1.177-2.781-1.49-4.316-1.941C174.345,189.1,174.532,186.206,173.5,182.9Z" transform="translate(-128.532 -167.368)" fill="#ed7d6e"/>
          <path id="Trazado_1179259" data-name="Trazado 1179259" d="M140.74,204.7a5.545,5.545,0,0,1,.248-.529l.285-.53c.9-1.651,2.122-3.912,1.725-6.726a7.926,7.926,0,0,0-3.362-5.379,10.508,10.508,0,0,0-.9-.58l.18-.041c1.308-.3,4.778-1.085,6.175-4.343a6.961,6.961,0,0,0,.38-4.078,5.237,5.237,0,0,0,3.886-1.816,6.228,6.228,0,0,0,1.289-2.569q.5-1.8,1.158-3.554a9.7,9.7,0,0,0,1.419,1.262,6.836,6.836,0,0,0,5.317,1.317,7.108,7.108,0,0,0,1.111-.306c.308.36.627.768.956,1.192a17.762,17.762,0,0,0,3.555,3.715,9.535,9.535,0,0,0,2.7,1.37,13.542,13.542,0,0,0,2.541.491c.258.031.615.075.848.119a8.049,8.049,0,0,1,.428,1.16c.18.58.315,1.145.447,1.686.534,2.2,1.2,4.93,3.893,6.873a10.026,10.026,0,0,0,3.067,1.462c.251.073.5.143.759.215a10.386,10.386,0,0,1,1.62.532.687.687,0,0,1-.039.242,2.947,2.947,0,0,1-1.3,1.3c-.349.2-.723.389-1.1.576-1.716.858-4.309,2.155-5.463,5.056a8.535,8.535,0,0,0-.356,1.134,6.642,6.642,0,0,0-7.846,3.565,8.645,8.645,0,0,0-4.177-.292,8.444,8.444,0,0,0-2.449.852,6.386,6.386,0,0,0-.512-.412,7.354,7.354,0,0,0-2.629-1.168,9.929,9.929,0,0,0-8.372,1.871,6.743,6.743,0,0,0-1.871-2.031,11.351,11.351,0,0,0-3.211-1.5C141.018,204.789,140.879,204.744,140.74,204.7Z" transform="translate(-129.602 -168.12)" fill="#d86155"/>
          <g id="Grupo_1228302" data-name="Grupo 1228302" transform="translate(20.569 15.375)">
            <path id="Trazado_1179260" data-name="Trazado 1179260" d="M158.432,184.556c-3.343.122-6.115,3.107-6.747,6.392s.518,6.7,2.334,9.508A10.339,10.339,0,0,0,158,204.318c3.655,1.762,8.283-.22,10.607-3.547a11.015,11.015,0,0,0,.444-11.98C166.749,185.231,161.955,184.428,158.432,184.556Z" transform="translate(-151.51 -184.543)" fill="#b7342e"/>
            <path id="Trazado_1179261" data-name="Trazado 1179261" d="M164.108,188.82a2.355,2.355,0,0,0,.237,1.326c.769,1.577,1.741,3.358,3.4,4.137,2.255,1.059,2.99-1.245,2.387-3.026a5.726,5.726,0,0,0-3.179-3.3,2.78,2.78,0,0,0-1.9-.24A1.293,1.293,0,0,0,164.108,188.82Z" transform="translate(-152.828 -184.867)" fill="#dd4b4b"/>
          </g>
        </g>
      </g>
    </g>
  </g>
</svg>
