<svg xmlns="http://www.w3.org/2000/svg" xmlns:xlink="http://www.w3.org/1999/xlink" width="113" height="113" viewBox="0 0 113 113">
  <defs>
    <filter id="Trazado_982547" x="0" y="0" width="113" height="113" filterUnits="userSpaceOnUse">
      <feOffset dy="3" input="SourceAlpha"/>
      <feGaussianBlur stdDeviation="3" result="blur"/>
      <feFlood flood-opacity="0.161"/>
      <feComposite operator="in" in2="blur"/>
      <feComposite in="SourceGraphic"/>
    </filter>
  </defs>
  <g id="Grupo_1228309" data-name="Grupo 1228309" transform="translate(-376 -6529.357)">
    <g id="Grupo_1227875" data-name="Grupo 1227875" transform="translate(385 6535.357)">
      <g id="Grupo_1208028" data-name="Grupo 1208028" transform="translate(0 0)">
        <g id="Grupo_1177675" data-name="Grupo 1177675" transform="translate(0 0)">
          <g id="Grupo_1176928" data-name="Grupo 1176928" transform="translate(0 0)">
            <g id="Grupo_1172322" data-name="Grupo 1172322">
              <g id="Grupo_1164700" data-name="Grupo 1164700">
                <g id="Grupo_1160931" data-name="Grupo 1160931">
                  <g id="Grupo_1160749" data-name="Grupo 1160749">
                    <g id="Grupo_1158891" data-name="Grupo 1158891">
                      <g id="Grupo_1157406" data-name="Grupo 1157406">
                        <g id="Grupo_1155793" data-name="Grupo 1155793">
                          <g id="Grupo_1154704" data-name="Grupo 1154704">
                            <g id="Grupo_1150790" data-name="Grupo 1150790">
                              <g id="Grupo_1154214" data-name="Grupo 1154214" transform="translate(0)">
                                <g id="Grupo_1152583" data-name="Grupo 1152583">
                                  <g id="Grupo_1146973" data-name="Grupo 1146973">
                                    <g id="Grupo_1146954" data-name="Grupo 1146954">
                                      <g transform="matrix(1, 0, 0, 1, -9, -6)" filter="url(#Trazado_982547)">
                                        <g id="Trazado_982547-2" data-name="Trazado 982547" transform="translate(9 6)" fill="#efeefc">
                                          <path d="M 47.50000762939453 93.49986267089844 C 41.28937911987305 93.49986267089844 35.26534271240234 92.28383636474609 29.59519386291504 89.88558197021484 C 24.11772727966309 87.56880950927734 19.19814109802246 84.25183868408203 14.97310066223145 80.02679443359375 C 10.74804782867432 75.8017578125 7.431074142456055 70.88218688964844 5.114300727844238 65.40471649169922 C 2.716034412384033 59.73458480834961 1.500007629394531 53.71054458618164 1.500007629394531 47.49993133544922 C 1.500007629394531 41.2893180847168 2.716034412384033 35.26527786254883 5.114300727844238 29.59514427185059 C 7.431074142456055 24.11767768859863 10.74804782867432 19.19810485839844 14.97310066223145 14.97306442260742 C 19.19814109802246 10.74802494049072 24.11772727966309 7.431051254272461 29.59519386291504 5.114277839660645 C 35.26534271240234 2.71602463722229 41.28937911987305 1.499997973442078 47.50000762939453 1.499997973442078 C 53.71063613891602 1.499997973442078 59.73467254638672 2.71602463722229 65.40482330322266 5.114277839660645 C 70.88228607177734 7.431051254272461 75.80187225341797 10.74802494049072 80.02691650390625 14.97306442260742 C 84.25196838378906 19.19810485839844 87.56893920898438 24.11767768859863 89.88571166992188 29.59514427185059 C 92.28398132324219 35.26527786254883 93.50000762939453 41.2893180847168 93.50000762939453 47.49993133544922 C 93.50000762939453 53.71054458618164 92.28398132324219 59.73458480834961 89.88571166992188 65.40471649169922 C 87.56893920898438 70.88218688964844 84.25196838378906 75.8017578125 80.02691650390625 80.02679443359375 C 75.80187225341797 84.25183868408203 70.88228607177734 87.56880950927734 65.40482330322266 89.88558197021484 C 59.73467254638672 92.28383636474609 53.71063613891602 93.49986267089844 47.50000762939453 93.49986267089844 Z" stroke="none"/>
                                          <path d="M 47.50000762939453 2.999992370605469 C 41.4912223815918 2.999992370605469 35.66377639770508 4.1761474609375 30.17951202392578 6.495796203613281 C 24.88085174560547 8.736930847167969 20.12152862548828 11.94596099853516 16.03376007080078 16.03372955322266 C 11.94597625732422 20.12148284912109 8.736961364746094 24.88080596923828 6.495803833007812 30.17946624755859 C 4.176162719726562 35.66371536254883 3.000007629394531 41.49116134643555 3.000007629394531 47.49993133544922 C 3.000007629394531 53.50870132446289 4.176162719726562 59.33614730834961 6.495803833007812 64.82038879394531 C 8.736961364746094 70.11905670166016 11.94597625732422 74.87836456298828 16.03376007080078 78.96613311767578 C 20.12152862548828 83.05390167236328 24.88085174560547 86.26291656494141 30.17951202392578 88.50406646728516 C 35.66377639770508 90.82369995117188 41.4912223815918 91.99985504150391 47.50000762939453 91.99985504150391 C 53.50879287719727 91.99985504150391 59.33623886108398 90.82369995117188 64.82049560546875 88.50406646728516 C 70.11916351318359 86.26291656494141 74.87848663330078 83.05390167236328 78.96625518798828 78.96613311767578 C 83.05403900146484 74.87836456298828 86.26305389404297 70.11905670166016 88.50421142578125 64.82038879394531 C 90.8238525390625 59.33614730834961 92.00000762939453 53.50870132446289 92.00000762939453 47.49993133544922 C 92.00000762939453 41.49116134643555 90.8238525390625 35.66371536254883 88.50421142578125 30.17946624755859 C 86.26305389404297 24.88080596923828 83.05403900146484 20.12148284912109 78.96625518798828 16.03372955322266 C 74.87848663330078 11.94596099853516 70.11916351318359 8.736930847167969 64.82049560546875 6.495796203613281 C 59.33623886108398 4.1761474609375 53.50879287719727 2.999992370605469 47.50000762939453 2.999992370605469 M 47.50000762939453 -7.62939453125e-06 C 73.73352813720703 -7.62939453125e-06 95.00000762939453 21.26644134521484 95.00000762939453 47.49993133544922 C 95.00000762939453 73.73342132568359 73.73352813720703 94.99985504150391 47.50000762939453 94.99985504150391 C 21.26648712158203 94.99985504150391 7.62939453125e-06 73.73342132568359 7.62939453125e-06 47.49993133544922 C 7.62939453125e-06 21.26644134521484 21.26648712158203 -7.62939453125e-06 47.50000762939453 -7.62939453125e-06 Z" stroke="none" fill="#605f84"/>
                                        </g>
                                      </g>
                                    </g>
                                  </g>
                                </g>
                              </g>
                            </g>
                          </g>
                        </g>
                      </g>
                    </g>
                  </g>
                </g>
              </g>
            </g>
          </g>
        </g>
      </g>
    </g>
    <g id="celula-vegetal" transform="translate(351.656 6550.543)">
      <g id="Grupo_1228307" data-name="Grupo 1228307" transform="translate(57.06 0.947)">
        <path id="Trazado_1179262" data-name="Trazado 1179262" d="M104.085,7.5H101.05L96.172,8.659,90.932,7.5H84.861L79.613,8.659,74.742,7.5H71.707c0,15.683-8.095,15.683-8.095,31.367s8.095,15.683,8.095,31.367h3.035l4.542-1.206,5.576,1.206h6.071l4.911-1.206,5.207,1.206h3.035c0-15.683,8.095-15.683,8.095-31.367S104.085,23.183,104.085,7.5Z" transform="translate(-63.612 -7.5)" fill="#b8eb7c"/>
        <g id="Grupo_1228306" data-name="Grupo 1228306" transform="translate(11.13)">
          <path id="Trazado_1179263" data-name="Trazado 1179263" d="M280.049,7.5a25.594,25.594,0,0,0,3.085,13.073,2.209,2.209,0,0,0,3.949,0A25.6,25.6,0,0,0,290.167,7.5Z" transform="translate(-263.86 -7.5)" fill="#dbf180"/>
          <path id="Trazado_1179264" data-name="Trazado 1179264" d="M151.791,7.5a25.594,25.594,0,0,0,3.085,13.073,2.209,2.209,0,0,0,3.949,0A25.6,25.6,0,0,0,161.909,7.5Z" transform="translate(-151.791 -7.5)" fill="#dbf180"/>
          <path id="Trazado_1179265" data-name="Trazado 1179265" d="M161.91,405.569a25.593,25.593,0,0,0-3.085-13.073,2.209,2.209,0,0,0-3.949,0,25.6,25.6,0,0,0-3.085,13.073Z" transform="translate(-151.792 -342.836)" fill="#dbf180"/>
          <path id="Trazado_1179266" data-name="Trazado 1179266" d="M290.168,405.569a25.594,25.594,0,0,0-3.085-13.073,2.209,2.209,0,0,0-3.949,0,25.6,25.6,0,0,0-3.085,13.073Z" transform="translate(-263.861 -342.836)" fill="#dbf180"/>
          <path id="Trazado_1179267" data-name="Trazado 1179267" d="M349.245,142.743a2.21,2.21,0,0,0-1.978,1.216,25.6,25.6,0,0,0-3.088,13.079,25.6,25.6,0,0,0,3.088,13.079,2.2,2.2,0,0,0,3.941,0,25.6,25.6,0,0,0,3.089-13.079,25.6,25.6,0,0,0-3.088-13.079A2.211,2.211,0,0,0,349.245,142.743Z" transform="translate(-319.894 -125.672)" fill="#dbf180"/>
          <path id="Trazado_1179268" data-name="Trazado 1179268" d="M220.987,142.743a2.21,2.21,0,0,0-1.978,1.216,25.6,25.6,0,0,0-3.088,13.079,25.6,25.6,0,0,0,3.088,13.079,2.2,2.2,0,0,0,3.941,0,25.6,25.6,0,0,0,3.088-13.079,25.6,25.6,0,0,0-3.088-13.079A2.21,2.21,0,0,0,220.987,142.743Z" transform="translate(-207.825 -125.672)" fill="#dbf180"/>
        </g>
        <circle id="Elipse_12799" data-name="Elipse 12799" cx="2.024" cy="2.024" r="2.024" transform="translate(23.272 35.414)" fill="#ffd05b"/>
        <path id="Trazado_1179269" data-name="Trazado 1179269" d="M92.729,142.743a2.21,2.21,0,0,0-1.978,1.216,25.6,25.6,0,0,0-3.088,13.079,25.6,25.6,0,0,0,3.088,13.079,2.2,2.2,0,0,0,3.941,0,25.6,25.6,0,0,0,3.088-13.079,25.6,25.6,0,0,0-3.088-13.079A2.21,2.21,0,0,0,92.729,142.743Z" transform="translate(-84.626 -125.672)" fill="#dbf180"/>
        <circle id="Elipse_12800" data-name="Elipse 12800" cx="2.024" cy="2.024" r="2.024" transform="translate(36.426 27.319)" fill="#ffd05b"/>
        <circle id="Elipse_12801" data-name="Elipse 12801" cx="2.024" cy="2.024" r="2.024" transform="translate(7.083 21.248)" fill="#ffd05b"/>
        <circle id="Elipse_12802" data-name="Elipse 12802" cx="2.024" cy="2.024" r="2.024" transform="translate(14.166 7.083)" fill="#ffd05b"/>
        <circle id="Elipse_12803" data-name="Elipse 12803" cx="2.024" cy="2.024" r="2.024" transform="translate(29.343 4.047)" fill="#ffd05b"/>
        <circle id="Elipse_12804" data-name="Elipse 12804" cx="2.024" cy="2.024" r="2.024" transform="translate(31.367 56.662)" fill="#ffd05b"/>
        <circle id="Elipse_12805" data-name="Elipse 12805" cx="2.024" cy="2.024" r="2.024" transform="translate(13.154 52.615)" fill="#ffd05b"/>
      </g>
      <g id="Grupo_1228308" data-name="Grupo 1228308" transform="translate(56.113)">
        <path id="Trazado_1179270" data-name="Trazado 1179270" d="M102.421,16.2C100.394,12.268,98.479,8.558,98.48.947a.947.947,0,1,0-1.893,0c0,7.612-1.915,11.322-3.942,15.249A35.053,35.053,0,0,0,89.438,24,35.049,35.049,0,0,0,86.232,16.2C84.2,12.268,82.29,8.558,82.29.947a.947.947,0,0,0-1.893,0c0,7.612-1.915,11.322-3.942,15.249A35.053,35.053,0,0,0,73.249,24,35.045,35.045,0,0,0,70.043,16.2l-.081-.157a.947.947,0,1,0-1.683.868l.081.158C70.387,20.99,72.3,24.7,72.3,32.306v.015c0,7.607-1.915,11.315-3.942,15.242a35.043,35.043,0,0,0-3.206,7.8,35.046,35.046,0,0,0-3.206-7.8c-2.027-3.927-3.942-7.637-3.942-15.249s1.915-11.322,3.942-15.249a35.058,35.058,0,0,0,3.205-7.8,26.856,26.856,0,0,0,1.369,4,.947.947,0,0,0,1.741-.743A27.769,27.769,0,0,1,66.1.947a.947.947,0,0,0-1.893,0c0,7.612-1.915,11.322-3.942,15.249a30.575,30.575,0,0,0-4.153,16.118,30.576,30.576,0,0,0,4.153,16.117c2.027,3.928,3.942,7.637,3.942,15.249a.947.947,0,1,0,1.893,0c0-7.612,1.915-11.322,3.942-15.249a35.052,35.052,0,0,0,3.206-7.809,35.052,35.052,0,0,0,3.206,7.809C78.482,52.359,80.4,56.068,80.4,63.68a.947.947,0,1,0,1.893,0c0-7.612,1.915-11.322,3.942-15.249a35.053,35.053,0,0,0,3.206-7.809,35.043,35.043,0,0,0,3.206,7.809q.2.386.4.772a.947.947,0,0,0,1.685-.862q-.2-.39-.4-.778c-2.026-3.926-3.94-7.634-3.942-15.238,0,0,0-.008,0-.011s0-.008,0-.011c0-7.6,1.916-11.312,3.942-15.238a35.042,35.042,0,0,0,3.206-7.8,35.046,35.046,0,0,0,3.206,7.8c2.027,3.928,3.942,7.637,3.942,15.249s-1.915,11.322-3.942,15.249a35.048,35.048,0,0,0-3.205,7.8,27.192,27.192,0,0,0-1.085-3.317.947.947,0,0,0-1.759.7,28.325,28.325,0,0,1,1.9,10.934.947.947,0,1,0,1.893,0c0-7.612,1.915-11.322,3.942-15.249a30.575,30.575,0,0,0,4.153-16.118A30.577,30.577,0,0,0,102.421,16.2ZM84.55,47.562a35.042,35.042,0,0,0-3.206,7.8,35.046,35.046,0,0,0-3.206-7.8C76.111,43.636,74.2,39.927,74.2,32.321v-.015c0-7.607,1.915-11.315,3.942-15.242a35.043,35.043,0,0,0,3.206-7.8,35.046,35.046,0,0,0,3.206,7.8c2.026,3.926,3.94,7.634,3.942,15.238,0,0,0,.008,0,.011s0,.008,0,.011C88.49,39.929,86.576,43.637,84.55,47.562Z" transform="translate(-56.113)"/>
        <path id="Trazado_1179271" data-name="Trazado 1179271" d="M112.226,171.309a2.97,2.97,0,1,0,2.97-2.97A2.974,2.974,0,0,0,112.226,171.309Zm4.047,0a1.077,1.077,0,1,1-1.077-1.077A1.078,1.078,0,0,1,116.273,171.309Z" transform="translate(-105.143 -147.091)"/>
        <path id="Trazado_1179272" data-name="Trazado 1179272" d="M243.455,280.564a2.97,2.97,0,1,0,2.97,2.97A2.974,2.974,0,0,0,243.455,280.564Zm0,4.047a1.077,1.077,0,1,1,1.077-1.077A1.078,1.078,0,0,1,243.455,284.611Z" transform="translate(-217.213 -245.15)"/>
        <path id="Trazado_1179273" data-name="Trazado 1179273" d="M350.636,219.406a2.97,2.97,0,1,0-2.97,2.97A2.974,2.974,0,0,0,350.636,219.406Zm-4.047,0a1.077,1.077,0,1,1,1.077,1.077A1.078,1.078,0,0,1,346.588,219.406Z" transform="translate(-308.269 -189.117)"/>
        <path id="Trazado_1179274" data-name="Trazado 1179274" d="M291.552,38.006a2.97,2.97,0,1,0-2.97-2.97A2.974,2.974,0,0,0,291.552,38.006Zm0-4.047a1.077,1.077,0,1,1-1.077,1.077A1.078,1.078,0,0,1,291.552,33.958Z" transform="translate(-259.239 -28.018)"/>
        <path id="Trazado_1179275" data-name="Trazado 1179275" d="M307.584,448.9a2.97,2.97,0,1,0,2.97,2.97A2.974,2.974,0,0,0,307.584,448.9Zm0,4.047a1.077,1.077,0,1,1,1.077-1.077A1.078,1.078,0,0,1,307.584,452.951Z" transform="translate(-273.247 -392.242)"/>
        <path id="Trazado_1179276" data-name="Trazado 1179276" d="M163.293,416.839a2.97,2.97,0,1,0,2.97,2.97A2.974,2.974,0,0,0,163.293,416.839Zm0,4.047a1.077,1.077,0,1,1,1.077-1.077A1.078,1.078,0,0,1,163.293,420.886Z" transform="translate(-147.169 -364.224)"/>
        <path id="Trazado_1179277" data-name="Trazado 1179277" d="M171.31,62.054a2.97,2.97,0,1,0-2.97-2.97A2.974,2.974,0,0,0,171.31,62.054Zm0-4.047a1.077,1.077,0,1,1-1.077,1.077A1.078,1.078,0,0,1,171.31,58.006Z" transform="translate(-154.174 -49.03)"/>
      </g>
    </g>
  </g>
</svg>
