<svg xmlns="http://www.w3.org/2000/svg" xmlns:xlink="http://www.w3.org/1999/xlink" width="113" height="113" viewBox="0 0 113 113">
  <defs>
    <filter id="Trazado_982547" x="0" y="0" width="113" height="113" filterUnits="userSpaceOnUse">
      <feOffset dy="3" input="SourceAlpha"/>
      <feGaussianBlur stdDeviation="3" result="blur"/>
      <feFlood flood-opacity="0.161"/>
      <feComposite operator="in" in2="blur"/>
      <feComposite in="SourceGraphic"/>
    </filter>
  </defs>
  <g id="Grupo_1228313" data-name="Grupo 1228313" transform="translate(-692.446 -6529.356)">
    <g id="Grupo_1227876" data-name="Grupo 1227876" transform="translate(701.446 6535.356)">
      <g id="Grupo_1208038" data-name="Grupo 1208038" transform="translate(0 0)">
        <g id="Grupo_1202104" data-name="Grupo 1202104">
          <g id="Grupo_1201923" data-name="Grupo 1201923" transform="translate(0 0)">
            <g id="Grupo_1176928" data-name="Grupo 1176928" transform="translate(0 0)">
              <g id="Grupo_1172322" data-name="Grupo 1172322">
                <g id="Grupo_1164700" data-name="Grupo 1164700">
                  <g id="Grupo_1160931" data-name="Grupo 1160931">
                    <g id="Grupo_1160749" data-name="Grupo 1160749">
                      <g id="Grupo_1158891" data-name="Grupo 1158891">
                        <g id="Grupo_1157406" data-name="Grupo 1157406">
                          <g id="Grupo_1155793" data-name="Grupo 1155793">
                            <g id="Grupo_1154704" data-name="Grupo 1154704">
                              <g id="Grupo_1150790" data-name="Grupo 1150790">
                                <g id="Grupo_1154214" data-name="Grupo 1154214" transform="translate(0)">
                                  <g id="Grupo_1152583" data-name="Grupo 1152583">
                                    <g id="Grupo_1146973" data-name="Grupo 1146973">
                                      <g id="Grupo_1146954" data-name="Grupo 1146954">
                                        <g transform="matrix(1, 0, 0, 1, -9, -6)" filter="url(#Trazado_982547)">
                                          <g id="Trazado_982547-2" data-name="Trazado 982547" transform="translate(9 6)" fill="#efeefc">
                                            <path d="M 47.50000762939453 93.49986267089844 C 41.28937911987305 93.49986267089844 35.26534271240234 92.28383636474609 29.59519386291504 89.88558197021484 C 24.11772727966309 87.56880950927734 19.19814109802246 84.25183868408203 14.97310066223145 80.02679443359375 C 10.74804782867432 75.8017578125 7.431074142456055 70.88218688964844 5.114300727844238 65.40471649169922 C 2.716034412384033 59.73458480834961 1.500007629394531 53.71054458618164 1.500007629394531 47.49993133544922 C 1.500007629394531 41.2893180847168 2.716034412384033 35.26527786254883 5.114300727844238 29.59514427185059 C 7.431074142456055 24.11767768859863 10.74804782867432 19.19810485839844 14.97310066223145 14.97306442260742 C 19.19814109802246 10.74802494049072 24.11772727966309 7.431051254272461 29.59519386291504 5.114277839660645 C 35.26534271240234 2.71602463722229 41.28937911987305 1.499997973442078 47.50000762939453 1.499997973442078 C 53.71063613891602 1.499997973442078 59.73467254638672 2.71602463722229 65.40482330322266 5.114277839660645 C 70.88228607177734 7.431051254272461 75.80187225341797 10.74802494049072 80.02691650390625 14.97306442260742 C 84.25196838378906 19.19810485839844 87.56893920898438 24.11767768859863 89.88571166992188 29.59514427185059 C 92.28398132324219 35.26527786254883 93.50000762939453 41.2893180847168 93.50000762939453 47.49993133544922 C 93.50000762939453 53.71054458618164 92.28398132324219 59.73458480834961 89.88571166992188 65.40471649169922 C 87.56893920898438 70.88218688964844 84.25196838378906 75.8017578125 80.02691650390625 80.02679443359375 C 75.80187225341797 84.25183868408203 70.88228607177734 87.56880950927734 65.40482330322266 89.88558197021484 C 59.73467254638672 92.28383636474609 53.71063613891602 93.49986267089844 47.50000762939453 93.49986267089844 Z" stroke="none"/>
                                            <path d="M 47.50000762939453 2.999992370605469 C 41.4912223815918 2.999992370605469 35.66377639770508 4.1761474609375 30.17951202392578 6.495796203613281 C 24.88085174560547 8.736930847167969 20.12152862548828 11.94596099853516 16.03376007080078 16.03372955322266 C 11.94597625732422 20.12148284912109 8.736961364746094 24.88080596923828 6.495803833007812 30.17946624755859 C 4.176162719726562 35.66371536254883 3.000007629394531 41.49116134643555 3.000007629394531 47.49993133544922 C 3.000007629394531 53.50870132446289 4.176162719726562 59.33614730834961 6.495803833007812 64.82038879394531 C 8.736961364746094 70.11905670166016 11.94597625732422 74.87836456298828 16.03376007080078 78.96613311767578 C 20.12152862548828 83.05390167236328 24.88085174560547 86.26291656494141 30.17951202392578 88.50406646728516 C 35.66377639770508 90.82369995117188 41.4912223815918 91.99985504150391 47.50000762939453 91.99985504150391 C 53.50879287719727 91.99985504150391 59.33623886108398 90.82369995117188 64.82049560546875 88.50406646728516 C 70.11916351318359 86.26291656494141 74.87848663330078 83.05390167236328 78.96625518798828 78.96613311767578 C 83.05403900146484 74.87836456298828 86.26305389404297 70.11905670166016 88.50421142578125 64.82038879394531 C 90.8238525390625 59.33614730834961 92.00000762939453 53.50870132446289 92.00000762939453 47.49993133544922 C 92.00000762939453 41.49116134643555 90.8238525390625 35.66371536254883 88.50421142578125 30.17946624755859 C 86.26305389404297 24.88080596923828 83.05403900146484 20.12148284912109 78.96625518798828 16.03372955322266 C 74.87848663330078 11.94596099853516 70.11916351318359 8.736930847167969 64.82049560546875 6.495796203613281 C 59.33623886108398 4.1761474609375 53.50879287719727 2.999992370605469 47.50000762939453 2.999992370605469 M 47.50000762939453 -7.62939453125e-06 C 73.73352813720703 -7.62939453125e-06 95.00000762939453 21.26644134521484 95.00000762939453 47.49993133544922 C 95.00000762939453 73.73342132568359 73.73352813720703 94.99985504150391 47.50000762939453 94.99985504150391 C 21.26648712158203 94.99985504150391 7.62939453125e-06 73.73342132568359 7.62939453125e-06 47.49993133544922 C 7.62939453125e-06 21.26644134521484 21.26648712158203 -7.62939453125e-06 47.50000762939453 -7.62939453125e-06 Z" stroke="none" fill="#605f84"/>
                                          </g>
                                        </g>
                                      </g>
                                    </g>
                                  </g>
                                </g>
                              </g>
                            </g>
                          </g>
                        </g>
                      </g>
                    </g>
                  </g>
                </g>
              </g>
            </g>
          </g>
        </g>
      </g>
    </g>
    <g id="astrocito" transform="translate(717.492 6552.403)">
      <g id="Grupo_1228311" data-name="Grupo 1228311" transform="translate(7.283 12.787)">
        <path id="Trazado_1179278" data-name="Trazado 1179278" d="M79.992,113.3a20.086,20.086,0,0,1-12.573-4.422l-1-.8,3.5,14.084a5.8,5.8,0,0,1-4.54,7.1l-4.156.8L72.266,133.6a11.932,11.932,0,0,1,5.039,3.181,4.518,4.518,0,0,1,.439,5.649l-2.329,3.4,8-3.568A4.52,4.52,0,0,0,85.075,141l2.343-2.875a6.886,6.886,0,0,1,9.062-1.442l5.339,3.433L97.892,129.72A27.5,27.5,0,0,1,96.117,120a11.537,11.537,0,0,1,7.9-10.948l1.872-.622-4.379-.763a11.536,11.536,0,0,0-6.807.887l-6.308,2.905A20.086,20.086,0,0,1,79.992,113.3Z" transform="translate(-61.225 -107.495)" fill="#fe99a0"/>
        <path id="Trazado_1179279" data-name="Trazado 1179279" d="M201.585,137.076l5.339,3.433L203,130.117a27.5,27.5,0,0,1-1.775-9.72,11.537,11.537,0,0,1,7.9-10.948l1.872-.622-4.379-.763q-.434-.076-.871-.118a23.286,23.286,0,0,0-3.155,2.72,14.061,14.061,0,0,0-3.908,9.732,29.933,29.933,0,0,0,1.939,10.618,1.83,1.83,0,0,1-1.888,2.467q-.434-.04-.873-.04a9.389,9.389,0,0,0-7.307,3.472l-2.343,2.875a1.99,1.99,0,0,1-.728.557l-1.335.6-2.686.588a4.516,4.516,0,0,1-.612,1.3l-2.329,3.4,8-3.568a4.518,4.518,0,0,0,1.662-1.272l2.343-2.875a6.886,6.886,0,0,1,9.062-1.442Z" transform="translate(-166.33 -107.892)" fill="#fd8087"/>
        <g id="Grupo_1228310" data-name="Grupo 1228310" transform="translate(15.451 11.877)">
          <ellipse id="Elipse_12806" data-name="Elipse 12806" cx="7.719" cy="5.79" rx="7.719" ry="5.79" fill="#ffe177"/>
          <path id="Trazado_1179280" data-name="Trazado 1179280" d="M206.754,216.675a4.508,4.508,0,0,1,.456,1.964c0,3.2-3.456,5.79-7.719,5.79a9.5,9.5,0,0,1-4.546-1.112c1.073,2.231,3.919,3.826,7.263,3.826,4.263,0,7.719-2.592,7.719-5.79A5.5,5.5,0,0,0,206.754,216.675Z" transform="translate(-194.489 -215.564)" fill="#ffd15b"/>
        </g>
      </g>
      <g id="Grupo_1228312" data-name="Grupo 1228312" transform="translate(0 0)">
        <path id="Trazado_1179281" data-name="Trazado 1179281" d="M186.8,203.555a.892.892,0,1,0-1.222-1.3,5.862,5.862,0,0,0-1.962,4.257c0,3.684,3.863,6.682,8.611,6.682s8.612-3,8.612-6.682-3.863-6.682-8.612-6.682a10.919,10.919,0,0,0-2.557.3.892.892,0,1,0,.418,1.735,9.134,9.134,0,0,1,2.139-.249c3.764,0,6.827,2.2,6.827,4.9s-3.063,4.9-6.827,4.9-6.827-2.2-6.827-4.9a4.048,4.048,0,0,1,1.4-2.957Z" transform="translate(-161.769 -176.058)"/>
        <path id="Trazado_1179282" data-name="Trazado 1179282" d="M65.545,46.578a.892.892,0,0,0-1.261.029l-4.607,4.822a5.249,5.249,0,0,0-2.183-.921,3.465,3.465,0,0,1-2.644-2.181L49.7,34.7a26.5,26.5,0,0,1-1.717-9.4,10.647,10.647,0,0,1,7.289-10.1l1.658-.551,7.846,1.368a.892.892,0,0,0,.306-1.758l-5.723-1L59.772,13a5.411,5.411,0,0,0,2.592-4.6V6.939L65.6,3.232a.892.892,0,0,0-1.344-1.174L62.364,4.226V.892a.892.892,0,1,0-1.784,0v1.13L58,.168a.892.892,0,1,0-1.041,1.449l3.622,2.6V8.4a3.616,3.616,0,0,1-1.732,3.075l-2.162,1.31-4.049-.705a12.372,12.372,0,0,0-7.335.955l-1.626.75a.892.892,0,1,0,.747,1.621l1.626-.75a10.594,10.594,0,0,1,6.282-.817l1.055.184A12.424,12.424,0,0,0,46.2,25.293a28.28,28.28,0,0,0,1.832,10.034L51,43.193,47.934,41.22A7.779,7.779,0,0,0,37.7,42.849l-2.343,2.876a3.632,3.632,0,0,1-1.333,1.02l-5.115,2.283.545-.8a5.316,5.316,0,0,0,.705-1.458,5.4,5.4,0,0,0-1.229-5.308A12.737,12.737,0,0,0,25,38.629a.892.892,0,0,0-.752,1.619,10.959,10.959,0,0,1,3.38,2.441,3.623,3.623,0,0,1,.823,3.559,3.548,3.548,0,0,1-.471.974l-2.185,3.194-3.3,1.474a5.462,5.462,0,0,1-5.557-.657,7.292,7.292,0,0,0-4.381-1.5H9.262a.892.892,0,1,0,0,1.784h2l-.195.561a1.565,1.565,0,0,1-1.477,1.051H9.262a.892.892,0,1,0,0,1.784h.329a3.351,3.351,0,0,0,3.163-2.25l.385-1.109a5.5,5.5,0,0,1,2.708,1.094,7.247,7.247,0,0,0,2.294,1.182L6.106,59.2a.892.892,0,1,0,.727,1.63l11.746-5.24-2.816,3.9a.892.892,0,1,0,1.447,1.044l1.414-1.96a3.152,3.152,0,0,0,.945,1.072L21.1,60.741a.892.892,0,0,0,1.038-1.451L20.607,58.2a1.381,1.381,0,0,1-.318-1.929l.286-.4a7.927,7.927,0,0,1,3.2-2.6l10.976-4.9a5.424,5.424,0,0,0,1.99-1.523l2.342-2.875a5.994,5.994,0,0,1,7.889-1.255L52.061,46l.119.314v0a4.317,4.317,0,0,1-.127,3.337l-.293.626a2.016,2.016,0,0,1-1.82,1.158,3.769,3.769,0,0,0-2.682,1.111L45.79,54.011a.892.892,0,0,0,1.262,1.262l1.468-1.468a2,2,0,0,1,1.421-.588,3.808,3.808,0,0,0,3.436-2.186l.324-.7.344.909a2.929,2.929,0,0,1-.267,2.594l-.937,1.474a6.015,6.015,0,0,0-.941,3.233v1.47a.892.892,0,0,0,1.784,0v-1.47a4.235,4.235,0,0,1,.662-2.275l.937-1.474c.022-.035.042-.071.063-.106l2.132,5.641a.892.892,0,1,0,1.669-.631L56.24,52.007a5.185,5.185,0,0,0,.951.26,3.469,3.469,0,0,1,2.274,1.467l4.59,6.781a.892.892,0,1,0,1.478-1l-4.59-6.781-.02-.027,4.65-4.867a.892.892,0,0,0-.029-1.261Z" transform="translate(-4.913 0)"/>
        <path id="Trazado_1179283" data-name="Trazado 1179283" d="M1.146,38.1l6.126-1.817L15.5,38.928a.892.892,0,1,0,.545-1.7L10.882,35.57l.726-.139a6.7,6.7,0,0,0,5.237-8.191L13.967,15.655a21.06,21.06,0,0,0,12.084,3.831,21.125,21.125,0,0,0,8.776-1.925l.9-.415a.892.892,0,0,0-.747-1.621l-.9.415A19.329,19.329,0,0,1,26.051,17.7a19.259,19.259,0,0,1-12.016-4.227l-.9-.725L11.9,11.069a1.235,1.235,0,0,1,.3-1.748l.577-.4a3.019,3.019,0,0,0,1.308-2.488V4.142l2.7-2.607A.892.892,0,0,0,15.54.251l-1.46,1.41V.893a.892.892,0,1,0-1.784,0V6.437a1.235,1.235,0,0,1-.535,1.017l-.577.4a3.006,3.006,0,0,0-.916.995L4.047.366A.892.892,0,1,0,2.608,1.421l1.75,2.386a11.51,11.51,0,0,0-1.45-.464L1.107,2.9A.892.892,0,1,0,.678,4.629l1.8.446a9.785,9.785,0,0,1,4.25,2.284h-3.4a.892.892,0,1,0,0,1.784H8.273l3.384,4.613,3.456,13.914a4.912,4.912,0,0,1-3.842,6.008l-3.1.594v-7.72a6.8,6.8,0,0,0-.9-3.378L5.122,19.42a.892.892,0,0,0-1.548.888l2.153,3.754a5.016,5.016,0,0,1,.663,2.491v.08a5.843,5.843,0,0,0-.873-.688l-.7-.449a7.017,7.017,0,0,1-1.6-1.415L1.578,22.106A.892.892,0,0,0,.206,23.247l1.642,1.975A8.8,8.8,0,0,0,3.855,27l.7.448a3.991,3.991,0,0,1,1.839,3.37v3.313L1.165,32.451a.892.892,0,1,0-.546,1.7l3.64,1.169L.638,36.392A.892.892,0,1,0,1.146,38.1Z" transform="translate(0 -0.001)"/>
      </g>
    </g>
  </g>
</svg>
