<svg xmlns="http://www.w3.org/2000/svg" xmlns:xlink="http://www.w3.org/1999/xlink" width="113" height="113" viewBox="0 0 113 113">
  <defs>
    <filter id="Trazado_982547" x="0" y="0" width="113" height="113" filterUnits="userSpaceOnUse">
      <feOffset dy="3" input="SourceAlpha"/>
      <feGaussianBlur stdDeviation="3" result="blur"/>
      <feFlood flood-opacity="0.161"/>
      <feComposite operator="in" in2="blur"/>
      <feComposite in="SourceGraphic"/>
    </filter>
  </defs>
  <g id="Grupo_1228318" data-name="Grupo 1228318" transform="translate(2058 -6507.651)">
    <g id="Grupo_1227877" data-name="Grupo 1227877" transform="translate(-2851 5018.651)">
      <g id="Grupo_1208028" data-name="Grupo 1208028" transform="translate(-0.49 -4138.425)">
        <g id="Grupo_1177675" data-name="Grupo 1177675" transform="translate(-4493 3707.152)">
          <g id="Grupo_1176928" data-name="Grupo 1176928" transform="translate(5295.49 1926.273)">
            <g id="Grupo_1172322" data-name="Grupo 1172322" transform="translate(0 0)">
              <g id="Grupo_1164700" data-name="Grupo 1164700">
                <g id="Grupo_1160931" data-name="Grupo 1160931">
                  <g id="Grupo_1160749" data-name="Grupo 1160749">
                    <g id="Grupo_1158891" data-name="Grupo 1158891">
                      <g id="Grupo_1157406" data-name="Grupo 1157406">
                        <g id="Grupo_1155793" data-name="Grupo 1155793">
                          <g id="Grupo_1154704" data-name="Grupo 1154704">
                            <g id="Grupo_1150790" data-name="Grupo 1150790">
                              <g id="Grupo_1154214" data-name="Grupo 1154214">
                                <g id="Grupo_1152583" data-name="Grupo 1152583">
                                  <g id="Grupo_1146973" data-name="Grupo 1146973">
                                    <g id="Grupo_1146954" data-name="Grupo 1146954">
                                      <g transform="matrix(1, 0, 0, 1, -9, -6)" filter="url(#Trazado_982547)">
                                        <g id="Trazado_982547-2" data-name="Trazado 982547" transform="translate(9 6)" fill="#efeefc">
                                          <path d="M 47.5000114440918 93.49987030029297 C 41.28938293457031 93.49987030029297 35.26534652709961 92.28384399414062 29.5951976776123 89.88558959960938 C 24.11773109436035 87.56881713867188 19.19814491271973 84.25183868408203 14.97310447692871 80.02680206298828 C 10.74805164337158 75.80176544189453 7.43107795715332 70.88218688964844 5.114304542541504 65.40472412109375 C 2.716038227081299 59.73458862304688 1.500011444091797 53.71054840087891 1.500011444091797 47.49993515014648 C 1.500011444091797 41.28932189941406 2.716038227081299 35.26528167724609 5.114304542541504 29.59514808654785 C 7.43107795715332 24.1176815032959 10.74805164337158 19.1981086730957 14.97310447692871 14.97306823730469 C 19.19814491271973 10.74802875518799 24.11773109436035 7.431055068969727 29.5951976776123 5.11428165435791 C 35.26534652709961 2.716028451919556 41.28938293457031 1.500001788139343 47.5000114440918 1.500001788139343 C 53.71063995361328 1.500001788139343 59.73467636108398 2.716028451919556 65.40482330322266 5.11428165435791 C 70.88229370117188 7.431055068969727 75.8018798828125 10.74802875518799 80.02691650390625 14.97306823730469 C 84.25196838378906 19.1981086730957 87.56894683837891 24.1176815032959 89.88571929931641 29.59514808654785 C 92.28398132324219 35.26528167724609 93.50001525878906 41.28932189941406 93.50001525878906 47.49993515014648 C 93.50001525878906 53.71054840087891 92.28398132324219 59.73458862304688 89.88571929931641 65.40472412109375 C 87.56894683837891 70.88218688964844 84.25196838378906 75.80176544189453 80.02691650390625 80.02680206298828 C 75.8018798828125 84.25183868408203 70.88229370117188 87.56881713867188 65.40482330322266 89.88558959960938 C 59.73467636108398 92.28384399414062 53.71063995361328 93.49987030029297 47.5000114440918 93.49987030029297 Z" stroke="none"/>
                                          <path d="M 47.5000114440918 3 C 41.49122619628906 3 35.66378021240234 4.1761474609375 30.17951965332031 6.495796203613281 C 24.880859375 8.7369384765625 20.12153625488281 11.94596862792969 16.03376770019531 16.03373718261719 C 11.94598388671875 20.12149047851562 8.736968994140625 24.88081359863281 6.495811462402344 30.17947387695312 C 4.176162719726562 35.66371917724609 3.000007629394531 41.49116516113281 3.000007629394531 47.49993515014648 C 3.000007629394531 53.50870513916016 4.176162719726562 59.33615112304688 6.495811462402344 64.82039642333984 C 8.736968994140625 70.11905670166016 11.94598388671875 74.87837982177734 16.03376770019531 78.96613311767578 C 20.12153625488281 83.05390167236328 24.880859375 86.26293182373047 30.17951965332031 88.50407409667969 C 35.66378021240234 90.82372283935547 41.49122619628906 91.99987030029297 47.5000114440918 91.99987030029297 C 53.50879669189453 91.99987030029297 59.33624267578125 90.82372283935547 64.82050323486328 88.50407409667969 C 70.11916351318359 86.26293182373047 74.87848663330078 83.05390167236328 78.96625518798828 78.96613311767578 C 83.05403900146484 74.87837982177734 86.2630615234375 70.11905670166016 88.50421142578125 64.82039642333984 C 90.82386016845703 59.33615112304688 92.00001525878906 53.50870513916016 92.00001525878906 47.49993515014648 C 92.00001525878906 41.49116516113281 90.82386016845703 35.66371917724609 88.50421142578125 30.17947387695312 C 86.2630615234375 24.88081359863281 83.05403900146484 20.12149047851562 78.96625518798828 16.03373718261719 C 74.87848663330078 11.94596862792969 70.11916351318359 8.7369384765625 64.82050323486328 6.495796203613281 C 59.33624267578125 4.1761474609375 53.50879669189453 3 47.5000114440918 3 M 47.5000114440918 0 C 73.73353576660156 0 95.00001525878906 21.26644134521484 95.00001525878906 47.49993515014648 C 95.00001525878906 73.73342895507812 73.73353576660156 94.99987030029297 47.5000114440918 94.99987030029297 C 21.26648712158203 94.99987030029297 7.62939453125e-06 73.73342895507812 7.62939453125e-06 47.49993515014648 C 7.62939453125e-06 21.26644134521484 21.26648712158203 0 47.5000114440918 0 Z" stroke="none" fill="#605f84"/>
                                        </g>
                                      </g>
                                    </g>
                                  </g>
                                </g>
                              </g>
                            </g>
                          </g>
                        </g>
                      </g>
                    </g>
                  </g>
                </g>
              </g>
            </g>
          </g>
        </g>
      </g>
    </g>
    <g id="celulas-ependimarias" transform="translate(-2034.513 6470.275)">
      <g id="Grupo_1228316" data-name="Grupo 1228316" transform="translate(0.967 76.19)">
        <g id="Grupo_1228314" data-name="Grupo 1228314" transform="translate(0 0)">
          <path id="Trazado_1179284" data-name="Trazado 1179284" d="M17.713,123.8H10.105A2.605,2.605,0,0,1,7.5,121.2V105.566a2.605,2.605,0,0,1,2.605-2.605h7.608a2.605,2.605,0,0,1,2.605,2.605V121.2A2.605,2.605,0,0,1,17.713,123.8Z" transform="translate(-7.5 -102.961)" fill="#fe99a0"/>
          <path id="Trazado_1179285" data-name="Trazado 1179285" d="M117.114,123.8h-7.608A2.605,2.605,0,0,1,106.9,121.2V105.566a2.605,2.605,0,0,1,2.605-2.605h7.608a2.605,2.605,0,0,1,2.605,2.605V121.2A2.605,2.605,0,0,1,117.114,123.8Z" transform="translate(-94.082 -102.961)" fill="#fe99a0"/>
          <path id="Trazado_1179286" data-name="Trazado 1179286" d="M199.252,123.8h-7.608a2.605,2.605,0,0,1-2.605-2.605l-2.556-7.816,2.556-7.816a2.605,2.605,0,0,1,2.605-2.605h7.608a2.605,2.605,0,0,1,2.605,2.605V121.2A2.605,2.605,0,0,1,199.252,123.8Z" transform="translate(-163.402 -102.961)" fill="#fe99a0"/>
          <path id="Trazado_1179287" data-name="Trazado 1179287" d="M315.914,123.8h-7.608A2.605,2.605,0,0,1,305.7,121.2V105.566a2.605,2.605,0,0,1,2.605-2.605h7.608a2.605,2.605,0,0,1,2.605,2.605V121.2A2.605,2.605,0,0,1,315.914,123.8Z" transform="translate(-267.245 -102.961)" fill="#fe99a0"/>
          <path id="Trazado_1179288" data-name="Trazado 1179288" d="M415.314,123.8h-7.608A2.605,2.605,0,0,1,405.1,121.2V105.566a2.605,2.605,0,0,1,2.605-2.605h7.608a2.605,2.605,0,0,1,2.605,2.605V121.2A2.605,2.605,0,0,1,415.314,123.8Z" transform="translate(-353.827 -102.961)" fill="#fe99a0"/>
        </g>
        <circle id="Elipse_12807" data-name="Elipse 12807" cx="2.084" cy="2.084" r="2.084" transform="translate(4.325 5.732)" fill="#fe646f"/>
        <circle id="Elipse_12808" data-name="Elipse 12808" cx="2.084" cy="2.084" r="2.084" transform="translate(17.143 7.035)" fill="#fd4755"/>
        <circle id="Elipse_12809" data-name="Elipse 12809" cx="2.084" cy="2.084" r="2.084" transform="translate(29.962 9.64)" fill="#fe646f"/>
        <circle id="Elipse_12810" data-name="Elipse 12810" cx="2.084" cy="2.084" r="2.084" transform="translate(42.78 7.035)" fill="#fd4755"/>
        <circle id="Elipse_12811" data-name="Elipse 12811" cx="2.084" cy="2.084" r="2.084" transform="translate(55.599 10.943)" fill="#fe646f"/>
        <g id="Grupo_1228315" data-name="Grupo 1228315" transform="translate(6.826 0)">
          <path id="Trazado_1179289" data-name="Trazado 1179289" d="M63.82,102.96H60.433a2.605,2.605,0,0,1,2.605,2.605V121.2a2.605,2.605,0,0,1-2.605,2.605H63.82a2.605,2.605,0,0,0,2.605-2.605V105.565A2.605,2.605,0,0,0,63.82,102.96Z" transform="translate(-60.433 -102.96)" fill="#fd8087"/>
          <path id="Trazado_1179290" data-name="Trazado 1179290" d="M163.22,102.96h-3.387a2.605,2.605,0,0,1,2.605,2.605V121.2a2.605,2.605,0,0,1-2.605,2.605h3.387a2.605,2.605,0,0,0,2.605-2.605V105.565A2.605,2.605,0,0,0,163.22,102.96Z" transform="translate(-147.014 -102.96)" fill="#fd8087"/>
          <path id="Trazado_1179291" data-name="Trazado 1179291" d="M262.62,102.96h-3.387a2.605,2.605,0,0,1,2.605,2.605V121.2a2.605,2.605,0,0,1-2.605,2.605h3.387a2.605,2.605,0,0,0,2.605-2.605V105.565A2.605,2.605,0,0,0,262.62,102.96Z" transform="translate(-233.596 -102.96)" fill="#fd8087"/>
          <path id="Trazado_1179292" data-name="Trazado 1179292" d="M362.02,102.96h-3.387a2.605,2.605,0,0,1,2.605,2.605V121.2a2.605,2.605,0,0,1-2.605,2.605h3.387a2.605,2.605,0,0,0,2.605-2.605V105.565A2.605,2.605,0,0,0,362.02,102.96Z" transform="translate(-320.177 -102.96)" fill="#fd8087"/>
          <path id="Trazado_1179293" data-name="Trazado 1179293" d="M461.42,102.96h-3.387a2.605,2.605,0,0,1,2.605,2.605V121.2a2.605,2.605,0,0,1-2.605,2.605h3.387a2.605,2.605,0,0,0,2.605-2.605V105.565A2.605,2.605,0,0,0,461.42,102.96Z" transform="translate(-406.759 -102.96)" fill="#fd8087"/>
        </g>
      </g>
      <g id="Grupo_1228317" data-name="Grupo 1228317" transform="translate(0 72.227)">
        <path id="Trazado_1179294" data-name="Trazado 1179294" d="M39.64,142.959a3.052,3.052,0,1,0-3.052,3.052A3.055,3.055,0,0,0,39.64,142.959Zm-4.169,0a1.117,1.117,0,1,1,1.117,1.117A1.118,1.118,0,0,1,35.472,142.959Z" transform="translate(-29.212 -131.179)"/>
        <path id="Trazado_1179295" data-name="Trazado 1179295" d="M135.989,150.009a3.052,3.052,0,1,0,3.052,3.052A3.055,3.055,0,0,0,135.989,150.009Zm0,4.169a1.117,1.117,0,1,1,1.117-1.117A1.118,1.118,0,0,1,135.989,154.178Z" transform="translate(-115.794 -139.978)"/>
        <path id="Trazado_1179296" data-name="Trazado 1179296" d="M235.389,170.212a3.052,3.052,0,1,0,3.052,3.052A3.055,3.055,0,0,0,235.389,170.212Zm0,4.169a1.117,1.117,0,1,1,1.117-1.117A1.118,1.118,0,0,1,235.389,174.381Z" transform="translate(-202.375 -157.576)"/>
        <path id="Trazado_1179297" data-name="Trazado 1179297" d="M334.789,150.009a3.052,3.052,0,1,0,3.052,3.052A3.055,3.055,0,0,0,334.789,150.009Zm0,4.169a1.117,1.117,0,1,1,1.117-1.117A1.118,1.118,0,0,1,334.789,154.178Z" transform="translate(-288.957 -139.978)"/>
        <path id="Trazado_1179298" data-name="Trazado 1179298" d="M431.137,183.366a3.052,3.052,0,1,0,3.052-3.052A3.055,3.055,0,0,0,431.137,183.366Zm4.169,0a1.117,1.117,0,1,1-1.117-1.117A1.119,1.119,0,0,1,435.306,183.366Z" transform="translate(-375.538 -166.375)"/>
        <path id="Trazado_1179299" data-name="Trazado 1179299" d="M65.06,81.763a.967.967,0,0,0,.967-.967v-2a3.576,3.576,0,0,0-3.572-3.572H61.7V73.194a.967.967,0,1,0-1.934,0v2.029H57.533V73.194a.967.967,0,1,0-1.934,0v2.029h-.753a3.562,3.562,0,0,0-2.605,1.132,3.563,3.563,0,0,0-2.605-1.132h-.752V73.194a.967.967,0,1,0-1.934,0v2.029H44.715V73.194a.967.967,0,1,0-1.934,0v2.029h-.752a3.562,3.562,0,0,0-2.605,1.132,3.562,3.562,0,0,0-2.605-1.132h-.753V73.194a.967.967,0,1,0-1.934,0v2.029H31.9V73.194a.967.967,0,1,0-1.934,0v2.029h-.753A3.562,3.562,0,0,0,26.6,76.355,3.563,3.563,0,0,0,24,75.223h-.752V73.194a.967.967,0,1,0-1.934,0v2.029H19.078V73.194a.967.967,0,1,0-1.934,0v2.029h-.752a3.562,3.562,0,0,0-2.605,1.132,3.562,3.562,0,0,0-2.605-1.132h-.753V73.194a.967.967,0,1,0-1.934,0v2.029H6.259V73.194a.967.967,0,1,0-1.934,0v2.029H3.572A3.576,3.576,0,0,0,0,78.8v9.071a.967.967,0,1,0,1.934,0V78.8a1.64,1.64,0,0,1,1.638-1.638h7.609A1.64,1.64,0,0,1,12.818,78.8h0V94.428a1.64,1.64,0,0,1-1.638,1.639H3.572a1.64,1.64,0,0,1-1.638-1.639V92.38A.967.967,0,1,0,0,92.38v2.048A3.577,3.577,0,0,0,3.572,98H6.409v4.6L4.06,104.745a6.818,6.818,0,0,0-2.215,5.022v1.993a.967.967,0,1,0,1.934,0v-1.993a4.879,4.879,0,0,1,1.585-3.594l1.044-.954v1.923a6.758,6.758,0,0,0,1.992,4.81,4.836,4.836,0,0,1,1.426,3.442v3.263a.967.967,0,0,0,1.934,0v-3.263a6.758,6.758,0,0,0-1.992-4.81,4.836,4.836,0,0,1-1.426-3.442V98h2.837a3.562,3.562,0,0,0,2.605-1.132A3.563,3.563,0,0,0,16.391,98h2.837v7.964a3.2,3.2,0,0,1-.944,2.28,5.126,5.126,0,0,0-1.511,3.648v6.765a.967.967,0,0,0,1.934,0v-6.765a3.2,3.2,0,0,1,.944-2.28,5.126,5.126,0,0,0,1.511-3.648V105.1l.975.975a3.2,3.2,0,0,1,.944,2.28v2.965a.967.967,0,1,0,1.934,0v-2.965a5.126,5.126,0,0,0-1.511-3.648l-2.342-2.342V98H24A3.563,3.563,0,0,0,26.6,96.869,3.562,3.562,0,0,0,29.209,98h2.837v.936l-1.37.688a5.051,5.051,0,0,0-2.8,4.537V105.5a.967.967,0,1,0,1.934,0v-1.338a3.126,3.126,0,0,1,1.732-2.809l.5-.252v3.234a5.044,5.044,0,0,0,1.487,3.59,3.122,3.122,0,0,1,.921,2.222v8.51a.967.967,0,0,0,1.934,0v-8.51a5.044,5.044,0,0,0-1.487-3.59,3.123,3.123,0,0,1-.921-2.222V98h2.837a3.561,3.561,0,0,0,2.605-1.132A3.563,3.563,0,0,0,42.028,98h2.836v5.712l-1.4,1.124A7.355,7.355,0,0,0,40.7,110.6v3.505a.967.967,0,1,0,1.934,0V110.6a5.43,5.43,0,0,1,2.043-4.256l.192-.154v4.961a7.342,7.342,0,0,0,2.165,5.226l2.946,2.946a.967.967,0,1,0,1.368-1.368L48.4,115.012a5.42,5.42,0,0,1-1.6-3.858V98h2.837a3.563,3.563,0,0,0,2.605-1.132A3.562,3.562,0,0,0,54.846,98H58.1v4.364l-3.26,3.26a5.808,5.808,0,0,0-1.712,4.134v4.826a.967.967,0,0,0,1.934,0v-4.826a3.886,3.886,0,0,1,1.146-2.766L58.1,105.1v4.639a5.808,5.808,0,0,0,1.712,4.134l.033.033a3.886,3.886,0,0,1,1.146,2.766v1.986a.967.967,0,1,0,1.934,0v-1.986a5.807,5.807,0,0,0-1.712-4.134l-.033-.033a3.886,3.886,0,0,1-1.146-2.766v-6.593l2.912,2.912a3.886,3.886,0,0,1,1.146,2.766v3.3a.967.967,0,0,0,1.934,0v-3.3a5.808,5.808,0,0,0-1.712-4.134l-3.134-3.134a3.886,3.886,0,0,1-1.146-2.766V98h2.421a3.577,3.577,0,0,0,3.572-3.573V85.309a.967.967,0,0,0-1.934,0v9.119a1.64,1.64,0,0,1-1.638,1.639H54.846a1.64,1.64,0,0,1-1.638-1.639V78.8h0a1.64,1.64,0,0,1,1.638-1.638h7.609A1.64,1.64,0,0,1,64.093,78.8v2a.967.967,0,0,0,.967.967Zm-28.242,14.3H29.209a1.64,1.64,0,0,1-1.638-1.639V86.263a.967.967,0,1,0-1.934,0v8.164h0A1.64,1.64,0,0,1,24,96.066H16.391a1.64,1.64,0,0,1-1.638-1.638h0V78.8a1.64,1.64,0,0,1,1.638-1.638H24A1.64,1.64,0,0,1,25.637,78.8V81.75a.967.967,0,0,0,1.934,0V78.8a1.64,1.64,0,0,1,1.638-1.638h7.609A1.64,1.64,0,0,1,38.456,78.8h0V94.428A1.64,1.64,0,0,1,36.818,96.067Zm14.456-1.639a1.64,1.64,0,0,1-1.638,1.638H42.028a1.64,1.64,0,0,1-1.638-1.638h0V78.8a1.64,1.64,0,0,1,1.638-1.638h7.608A1.64,1.64,0,0,1,51.274,78.8V94.428Z" transform="translate(0 -72.227)"/>
      </g>
    </g>
  </g>
</svg>
