<svg xmlns="http://www.w3.org/2000/svg" xmlns:xlink="http://www.w3.org/1999/xlink" width="113" height="113" viewBox="0 0 113 113">
  <defs>
    <filter id="Trazado_982547" x="0" y="0" width="113" height="113" filterUnits="userSpaceOnUse">
      <feOffset dy="3" input="SourceAlpha"/>
      <feGaussianBlur stdDeviation="3" result="blur"/>
      <feFlood flood-opacity="0.161"/>
      <feComposite operator="in" in2="blur"/>
      <feComposite in="SourceGraphic"/>
    </filter>
  </defs>
  <g id="Grupo_1228319" data-name="Grupo 1228319" transform="translate(1741.554 -6507.651)">
    <g id="Grupo_1227878" data-name="Grupo 1227878" transform="translate(-2853.554 5018.651)">
      <g id="Grupo_1208038" data-name="Grupo 1208038" transform="translate(0 -4138.425)">
        <g id="Grupo_1202104" data-name="Grupo 1202104" transform="translate(0 -1149.226)">
          <g id="Grupo_1201923" data-name="Grupo 1201923" transform="translate(-4174.49 4856.378)">
            <g id="Grupo_1176928" data-name="Grupo 1176928" transform="translate(5295.49 1926.273)">
              <g id="Grupo_1172322" data-name="Grupo 1172322" transform="translate(0 0)">
                <g id="Grupo_1164700" data-name="Grupo 1164700">
                  <g id="Grupo_1160931" data-name="Grupo 1160931">
                    <g id="Grupo_1160749" data-name="Grupo 1160749">
                      <g id="Grupo_1158891" data-name="Grupo 1158891">
                        <g id="Grupo_1157406" data-name="Grupo 1157406">
                          <g id="Grupo_1155793" data-name="Grupo 1155793">
                            <g id="Grupo_1154704" data-name="Grupo 1154704">
                              <g id="Grupo_1150790" data-name="Grupo 1150790">
                                <g id="Grupo_1154214" data-name="Grupo 1154214">
                                  <g id="Grupo_1152583" data-name="Grupo 1152583">
                                    <g id="Grupo_1146973" data-name="Grupo 1146973">
                                      <g id="Grupo_1146954" data-name="Grupo 1146954">
                                        <g transform="matrix(1, 0, 0, 1, -9, -6)" filter="url(#Trazado_982547)">
                                          <g id="Trazado_982547-2" data-name="Trazado 982547" transform="translate(9 6)" fill="#efeefc">
                                            <path d="M 47.5000114440918 93.49987030029297 C 41.28938293457031 93.49987030029297 35.26534652709961 92.28384399414062 29.5951976776123 89.88558959960938 C 24.11773109436035 87.56881713867188 19.19814491271973 84.25183868408203 14.97310447692871 80.02680206298828 C 10.74805164337158 75.80176544189453 7.43107795715332 70.88218688964844 5.114304542541504 65.40472412109375 C 2.716038227081299 59.73458862304688 1.500011444091797 53.71054840087891 1.500011444091797 47.49993515014648 C 1.500011444091797 41.28932189941406 2.716038227081299 35.26528167724609 5.114304542541504 29.59514808654785 C 7.43107795715332 24.1176815032959 10.74805164337158 19.1981086730957 14.97310447692871 14.97306823730469 C 19.19814491271973 10.74802875518799 24.11773109436035 7.431055068969727 29.5951976776123 5.11428165435791 C 35.26534652709961 2.716028451919556 41.28938293457031 1.500001788139343 47.5000114440918 1.500001788139343 C 53.71063995361328 1.500001788139343 59.73467636108398 2.716028451919556 65.40482330322266 5.11428165435791 C 70.88229370117188 7.431055068969727 75.8018798828125 10.74802875518799 80.02691650390625 14.97306823730469 C 84.25196838378906 19.1981086730957 87.56894683837891 24.1176815032959 89.88571929931641 29.59514808654785 C 92.28398132324219 35.26528167724609 93.50001525878906 41.28932189941406 93.50001525878906 47.49993515014648 C 93.50001525878906 53.71054840087891 92.28398132324219 59.73458862304688 89.88571929931641 65.40472412109375 C 87.56894683837891 70.88218688964844 84.25196838378906 75.80176544189453 80.02691650390625 80.02680206298828 C 75.8018798828125 84.25183868408203 70.88229370117188 87.56881713867188 65.40482330322266 89.88558959960938 C 59.73467636108398 92.28384399414062 53.71063995361328 93.49987030029297 47.5000114440918 93.49987030029297 Z" stroke="none"/>
                                            <path d="M 47.5000114440918 3 C 41.49122619628906 3 35.66378021240234 4.1761474609375 30.17951965332031 6.495796203613281 C 24.880859375 8.7369384765625 20.12153625488281 11.94596862792969 16.03376770019531 16.03373718261719 C 11.94598388671875 20.12149047851562 8.736968994140625 24.88081359863281 6.495811462402344 30.17947387695312 C 4.176162719726562 35.66371917724609 3.000007629394531 41.49116516113281 3.000007629394531 47.49993515014648 C 3.000007629394531 53.50870513916016 4.176162719726562 59.33615112304688 6.495811462402344 64.82039642333984 C 8.736968994140625 70.11905670166016 11.94598388671875 74.87837982177734 16.03376770019531 78.96613311767578 C 20.12153625488281 83.05390167236328 24.880859375 86.26293182373047 30.17951965332031 88.50407409667969 C 35.66378021240234 90.82372283935547 41.49122619628906 91.99987030029297 47.5000114440918 91.99987030029297 C 53.50879669189453 91.99987030029297 59.33624267578125 90.82372283935547 64.82050323486328 88.50407409667969 C 70.11916351318359 86.26293182373047 74.87848663330078 83.05390167236328 78.96625518798828 78.96613311767578 C 83.05403900146484 74.87837982177734 86.2630615234375 70.11905670166016 88.50421142578125 64.82039642333984 C 90.82386016845703 59.33615112304688 92.00001525878906 53.50870513916016 92.00001525878906 47.49993515014648 C 92.00001525878906 41.49116516113281 90.82386016845703 35.66371917724609 88.50421142578125 30.17947387695312 C 86.2630615234375 24.88081359863281 83.05403900146484 20.12149047851562 78.96625518798828 16.03373718261719 C 74.87848663330078 11.94596862792969 70.11916351318359 8.7369384765625 64.82050323486328 6.495796203613281 C 59.33624267578125 4.1761474609375 53.50879669189453 3 47.5000114440918 3 M 47.5000114440918 0 C 73.73353576660156 0 95.00001525878906 21.26644134521484 95.00001525878906 47.49993515014648 C 95.00001525878906 73.73342895507812 73.73353576660156 94.99987030029297 47.5000114440918 94.99987030029297 C 21.26648712158203 94.99987030029297 7.62939453125e-06 73.73342895507812 7.62939453125e-06 47.49993515014648 C 7.62939453125e-06 21.26644134521484 21.26648712158203 0 47.5000114440918 0 Z" stroke="none" fill="#605f84"/>
                                          </g>
                                        </g>
                                      </g>
                                    </g>
                                  </g>
                                </g>
                              </g>
                            </g>
                          </g>
                        </g>
                      </g>
                    </g>
                  </g>
                </g>
              </g>
            </g>
          </g>
        </g>
      </g>
    </g>
    <g id="celulas-de-sangre" transform="translate(-1734.504 6515.159)">
      <path id="Trazado_1179300" data-name="Trazado 1179300" d="M37.9,52.869v1.2a4.921,4.921,0,1,1-9.843.028V49.357a6.083,6.083,0,0,0,4.056-5.728v-1.06a2.079,2.079,0,1,0-4.158,0v1a1.959,1.959,0,0,1-1.74,1.973,1.918,1.918,0,0,1-2.092-1.908v-1.06a2.079,2.079,0,0,0-4.158,0v1.06A6.083,6.083,0,0,0,23.9,49.312V54.1a9.094,9.094,0,0,0,6.48,8.7v2.49A12.993,12.993,0,0,0,43.376,78.28H57.494v-5.2H43.376a7.8,7.8,0,0,1-7.8-7.8V62.8a9.094,9.094,0,0,0,6.48-8.7V52.869a2.079,2.079,0,0,0-4.158,0Z" transform="translate(-1.797 -18.385)" fill="#fb7b76"/>
      <path id="Trazado_1179301" data-name="Trazado 1179301" d="M164.133,51.064h-5.41a11.683,11.683,0,0,1,11.669-11.669h8.487a1.405,1.405,0,0,1,1.405,1.405v2.6a1.405,1.405,0,0,1-1.405,1.405h-8.487A6.267,6.267,0,0,0,164.133,51.064Z" transform="translate(-101.558 -17.597)" fill="#fb7b76"/>
      <path id="Trazado_1179302" data-name="Trazado 1179302" d="M128.321,78.159V17.419H108.9l.01,60.74Z" transform="translate(-65.739 -1.797)" fill="#f25159"/>
      <rect id="Rectángulo_422848" data-name="Rectángulo 422848" width="11.765" height="39.403" rx="5.883" transform="translate(46.991 26.29)" fill="#b41e1f"/>
      <path id="Trazado_1179303" data-name="Trazado 1179303" d="M127.748,90.963a3.553,3.553,0,0,0-5.229-3.135V94.1a3.553,3.553,0,0,0,5.229-3.135Z" transform="translate(-75.528 -52.117)" fill="#f25159"/>
      <path id="Trazado_1179304" data-name="Trazado 1179304" d="M124.192,76.407a6.635,6.635,0,0,0-1.674.214v3.3a3.555,3.555,0,1,1,0,6.271v3.3a6.647,6.647,0,1,0,1.674-13.08Z" transform="translate(-75.528 -44.208)" fill="#fb7b76"/>
      <circle id="Elipse_12812" data-name="Elipse 12812" cx="5.101" cy="5.101" r="5.101" transform="translate(52.605 46.883)" fill="#f25159"/>
      <path id="Trazado_1179305" data-name="Trazado 1179305" d="M143.642,136.452a6.647,6.647,0,1,1,6.647-6.647A6.647,6.647,0,0,1,143.642,136.452Zm0-10.2A3.555,3.555,0,1,0,147.2,129.8,3.555,3.555,0,0,0,143.642,126.249Z" transform="translate(-85.936 -77.821)" fill="#fb7b76"/>
      <circle id="Elipse_12813" data-name="Elipse 12813" cx="5.101" cy="5.101" r="5.101" transform="translate(66.979 53.838)" fill="#f25159"/>
      <path id="Trazado_1179306" data-name="Trazado 1179306" d="M194.791,161.2a6.647,6.647,0,1,1,6.647-6.647A6.647,6.647,0,0,1,194.791,161.2Zm0-10.2a3.555,3.555,0,1,0,3.555,3.555A3.555,3.555,0,0,0,194.791,151Z" transform="translate(-122.711 -95.615)" fill="#fb7b76"/>
      <circle id="Elipse_12814" data-name="Elipse 12814" cx="5.101" cy="5.101" r="5.101" transform="translate(59.251 36.798)" fill="#f25159"/>
      <path id="Trazado_1179307" data-name="Trazado 1179307" d="M167.293,100.566a6.647,6.647,0,1,1,6.647-6.647A6.647,6.647,0,0,1,167.293,100.566Zm0-10.2a3.555,3.555,0,1,0,3.556,3.556A3.555,3.555,0,0,0,167.293,90.363Z" transform="translate(-102.941 -52.02)" fill="#fb7b76"/>
      <path id="Trazado_1179308" data-name="Trazado 1179308" d="M77.321,21.1H68.834a12.292,12.292,0,0,0-5.549,1.319V15.622a.7.7,0,0,0-.7-.7H43.164a.7.7,0,0,0-.7.7L42.468,54h-.89A7.1,7.1,0,0,1,34.486,46.9V44.92a9.851,9.851,0,0,0,6.48-9.206V34.483a2.781,2.781,0,0,0-5.563,0v1.2a4.219,4.219,0,1,1-8.438.028V31.449a6.791,6.791,0,0,0,4.056-6.2v-1.06a2.781,2.781,0,1,0-5.563,0v.995a1.257,1.257,0,0,1-1.1,1.273,1.215,1.215,0,0,1-1.327-1.208v-1.06a2.781,2.781,0,1,0-5.563,0v1.06A6.817,6.817,0,0,0,21.4,31.393v4.321a9.851,9.851,0,0,0,6.48,9.206V46.9a13.711,13.711,0,0,0,13.7,13.7h.891l0,15.764a.7.7,0,0,0,.7.7H62.582a.7.7,0,0,0,.7-.7v-19.6a7.327,7.327,0,0,0,1.238-7.515,7.348,7.348,0,1,0-1.238-14.616V33.31a5.56,5.56,0,0,1,5.549-5.4h8.487A2.11,2.11,0,0,0,79.429,25.8V23.2A2.11,2.11,0,0,0,77.321,21.1Zm.7,4.707a.7.7,0,0,1-.7.7H68.834a6.955,6.955,0,0,0-5.549,2.763V24.012A10.9,10.9,0,0,1,68.834,22.5h8.487a.7.7,0,0,1,.7.7ZM70.3,41.9a5.944,5.944,0,1,1-5.944-5.944A5.944,5.944,0,0,1,70.3,41.9Zm-22.6,17.912V46.129a7.349,7.349,0,1,0,.04-14.571,5.178,5.178,0,0,1,10.32.615v5.944a7.33,7.33,0,0,0-.519,6.522,7.348,7.348,0,1,0,.171,14.695c.117,0,.232,0,.348-.009v.487a5.18,5.18,0,1,1-10.36,0Zm0-23.644a2.853,2.853,0,1,1,0,5.358Zm.971,6.937a4.258,4.258,0,1,0-.971-8.4V32.988a5.944,5.944,0,1,1,0,11.715V42.988a4.244,4.244,0,0,0,.971.116Zm9.041,14.824a5.944,5.944,0,1,1,.6-11.858A7.364,7.364,0,0,0,62.9,49.1a5.938,5.938,0,0,1-5.2,8.824Zm1.753-21.506V32.173a6.585,6.585,0,0,0-13.17,0V59.811a6.585,6.585,0,0,0,13.17,0V59.12a7.315,7.315,0,0,0,2.421-1.092V75.659h-18l-.01-59.335H61.88V34.979a7.355,7.355,0,0,0-2.421,1.443ZM28.787,43.739a8.432,8.432,0,0,1-5.979-8.025V30.927a.7.7,0,0,0-.454-.657,5.4,5.4,0,0,1-3.479-5.025v-1.06a1.376,1.376,0,1,1,2.752,0v1.06a2.62,2.62,0,0,0,2.857,2.608,2.671,2.671,0,0,0,2.38-2.673v-1a1.376,1.376,0,1,1,2.753,0v1.06a5.383,5.383,0,0,1-3.588,5.065.7.7,0,0,0-.468.662v4.742a5.624,5.624,0,1,0,11.248-.028v-1.2a1.381,1.381,0,0,1,1.361-1.376,1.348,1.348,0,0,1,.983.4,1.366,1.366,0,0,1,.408.978v1.231a8.432,8.432,0,0,1-5.979,8.025.7.7,0,0,0-.5.673V46.9a8.508,8.508,0,0,0,8.5,8.5h.89v3.792h-.891A12.3,12.3,0,0,1,29.288,46.9v-2.49a.7.7,0,0,0-.5-.673Z" transform="translate(0 0)"/>
      <path id="Trazado_1179309" data-name="Trazado 1179309" d="M149.754,131.658a4.258,4.258,0,1,0,4.258,4.258A4.258,4.258,0,0,0,149.754,131.658Zm-2.853,4.258a2.853,2.853,0,1,1,2.853,2.853A2.853,2.853,0,0,1,146.9,135.916Z" transform="translate(-92.048 -83.932)"/>
      <path id="Trazado_1179310" data-name="Trazado 1179310" d="M192.994,145.408a7.349,7.349,0,1,0,7.349,7.349A7.349,7.349,0,0,0,192.994,145.408Zm0,13.293a5.944,5.944,0,1,1,5.944-5.944A5.944,5.944,0,0,1,192.994,158.7Z" transform="translate(-120.914 -93.818)"/>
      <path id="Trazado_1179311" data-name="Trazado 1179311" d="M205.16,160.666a4.258,4.258,0,1,0-4.258,4.258A4.258,4.258,0,0,0,205.16,160.666Zm-4.258,2.853a2.853,2.853,0,1,1,2.853-2.853,2.853,2.853,0,0,1-2.853,2.853Z" transform="translate(-128.823 -101.727)"/>
      <path id="Trazado_1179312" data-name="Trazado 1179312" d="M169.146,100.03a4.258,4.258,0,1,0,4.258-4.258A4.258,4.258,0,0,0,169.146,100.03Zm7.111,0a2.853,2.853,0,1,1-2.853-2.853A2.853,2.853,0,0,1,176.257,100.03Z" transform="translate(-109.052 -58.131)"/>
    </g>
  </g>
</svg>
