<svg xmlns="http://www.w3.org/2000/svg" xmlns:xlink="http://www.w3.org/1999/xlink" width="113" height="113" viewBox="0 0 113 113">
  <defs>
    <filter id="Trazado_982547" x="0" y="0" width="113" height="113" filterUnits="userSpaceOnUse">
      <feOffset dy="3" input="SourceAlpha"/>
      <feGaussianBlur stdDeviation="3" result="blur"/>
      <feFlood flood-opacity="0.161"/>
      <feComposite operator="in" in2="blur"/>
      <feComposite in="SourceGraphic"/>
    </filter>
  </defs>
  <g id="Grupo_1228322" data-name="Grupo 1228322" transform="translate(2058 -6876.651)">
    <g id="Grupo_1227879" data-name="Grupo 1227879" transform="translate(-2851 5387.651)">
      <g id="Grupo_1208028" data-name="Grupo 1208028" transform="translate(-0.49 -4138.425)">
        <g id="Grupo_1177675" data-name="Grupo 1177675" transform="translate(-4493 3707.152)">
          <g id="Grupo_1176928" data-name="Grupo 1176928" transform="translate(5295.49 1926.273)">
            <g id="Grupo_1172322" data-name="Grupo 1172322" transform="translate(0 0)">
              <g id="Grupo_1164700" data-name="Grupo 1164700">
                <g id="Grupo_1160931" data-name="Grupo 1160931">
                  <g id="Grupo_1160749" data-name="Grupo 1160749">
                    <g id="Grupo_1158891" data-name="Grupo 1158891">
                      <g id="Grupo_1157406" data-name="Grupo 1157406">
                        <g id="Grupo_1155793" data-name="Grupo 1155793">
                          <g id="Grupo_1154704" data-name="Grupo 1154704">
                            <g id="Grupo_1150790" data-name="Grupo 1150790">
                              <g id="Grupo_1154214" data-name="Grupo 1154214">
                                <g id="Grupo_1152583" data-name="Grupo 1152583">
                                  <g id="Grupo_1146973" data-name="Grupo 1146973">
                                    <g id="Grupo_1146954" data-name="Grupo 1146954">
                                      <g transform="matrix(1, 0, 0, 1, -9, -6)" filter="url(#Trazado_982547)">
                                        <g id="Trazado_982547-2" data-name="Trazado 982547" transform="translate(9 6)" fill="#efeefc">
                                          <path d="M 47.5000114440918 93.49987030029297 C 41.28938293457031 93.49987030029297 35.26534652709961 92.28384399414062 29.5951976776123 89.88558959960938 C 24.11773109436035 87.56881713867188 19.19814491271973 84.25183868408203 14.97310447692871 80.02680206298828 C 10.74805164337158 75.80176544189453 7.43107795715332 70.88218688964844 5.114304542541504 65.40472412109375 C 2.716038227081299 59.73458862304688 1.500011444091797 53.71054840087891 1.500011444091797 47.49993515014648 C 1.500011444091797 41.28932189941406 2.716038227081299 35.26528167724609 5.114304542541504 29.59514808654785 C 7.43107795715332 24.1176815032959 10.74805164337158 19.1981086730957 14.97310447692871 14.97306823730469 C 19.19814491271973 10.74802875518799 24.11773109436035 7.431055068969727 29.5951976776123 5.11428165435791 C 35.26534652709961 2.716028451919556 41.28938293457031 1.500001788139343 47.5000114440918 1.500001788139343 C 53.71063995361328 1.500001788139343 59.73467636108398 2.716028451919556 65.40482330322266 5.11428165435791 C 70.88229370117188 7.431055068969727 75.8018798828125 10.74802875518799 80.02691650390625 14.97306823730469 C 84.25196838378906 19.1981086730957 87.56894683837891 24.1176815032959 89.88571929931641 29.59514808654785 C 92.28398132324219 35.26528167724609 93.50001525878906 41.28932189941406 93.50001525878906 47.49993515014648 C 93.50001525878906 53.71054840087891 92.28398132324219 59.73458862304688 89.88571929931641 65.40472412109375 C 87.56894683837891 70.88218688964844 84.25196838378906 75.80176544189453 80.02691650390625 80.02680206298828 C 75.8018798828125 84.25183868408203 70.88229370117188 87.56881713867188 65.40482330322266 89.88558959960938 C 59.73467636108398 92.28384399414062 53.71063995361328 93.49987030029297 47.5000114440918 93.49987030029297 Z" stroke="none"/>
                                          <path d="M 47.5000114440918 3 C 41.49122619628906 3 35.66378021240234 4.1761474609375 30.17951965332031 6.495796203613281 C 24.880859375 8.7369384765625 20.12153625488281 11.94596862792969 16.03376770019531 16.03373718261719 C 11.94598388671875 20.12149047851562 8.736968994140625 24.88081359863281 6.495811462402344 30.17947387695312 C 4.176162719726562 35.66371917724609 3.000007629394531 41.49116516113281 3.000007629394531 47.49993515014648 C 3.000007629394531 53.50870513916016 4.176162719726562 59.33615112304688 6.495811462402344 64.82039642333984 C 8.736968994140625 70.11905670166016 11.94598388671875 74.87837982177734 16.03376770019531 78.96613311767578 C 20.12153625488281 83.05390167236328 24.880859375 86.26293182373047 30.17951965332031 88.50407409667969 C 35.66378021240234 90.82372283935547 41.49122619628906 91.99987030029297 47.5000114440918 91.99987030029297 C 53.50879669189453 91.99987030029297 59.33624267578125 90.82372283935547 64.82050323486328 88.50407409667969 C 70.11916351318359 86.26293182373047 74.87848663330078 83.05390167236328 78.96625518798828 78.96613311767578 C 83.05403900146484 74.87837982177734 86.2630615234375 70.11905670166016 88.50421142578125 64.82039642333984 C 90.82386016845703 59.33615112304688 92.00001525878906 53.50870513916016 92.00001525878906 47.49993515014648 C 92.00001525878906 41.49116516113281 90.82386016845703 35.66371917724609 88.50421142578125 30.17947387695312 C 86.2630615234375 24.88081359863281 83.05403900146484 20.12149047851562 78.96625518798828 16.03373718261719 C 74.87848663330078 11.94596862792969 70.11916351318359 8.7369384765625 64.82050323486328 6.495796203613281 C 59.33624267578125 4.1761474609375 53.50879669189453 3 47.5000114440918 3 M 47.5000114440918 0 C 73.73353576660156 0 95.00001525878906 21.26644134521484 95.00001525878906 47.49993515014648 C 95.00001525878906 73.73342895507812 73.73353576660156 94.99987030029297 47.5000114440918 94.99987030029297 C 21.26648712158203 94.99987030029297 7.62939453125e-06 73.73342895507812 7.62939453125e-06 47.49993515014648 C 7.62939453125e-06 21.26644134521484 21.26648712158203 0 47.5000114440918 0 Z" stroke="none" fill="#605f84"/>
                                        </g>
                                      </g>
                                    </g>
                                  </g>
                                </g>
                              </g>
                            </g>
                          </g>
                        </g>
                      </g>
                    </g>
                  </g>
                </g>
              </g>
            </g>
          </g>
        </g>
      </g>
    </g>
    <g id="cancer" transform="translate(-2033.001 6897.999)">
      <path id="Trazado_1179313" data-name="Trazado 1179313" d="M95.6,69.03l-5.072-1.8a19.81,19.81,0,0,0-3.119-7.7l2.272-4.781a1.976,1.976,0,0,0-2.633-2.633l-4.728,2.247a19.8,19.8,0,0,0-7.82-3.271l-1.74-4.895a1.977,1.977,0,0,0-3.725,0l-1.74,4.895a19.8,19.8,0,0,0-7.82,3.271l-4.728-2.247a1.976,1.976,0,0,0-2.633,2.633l2.272,4.781a19.81,19.81,0,0,0-3.119,7.7l-5.072,1.8a1.977,1.977,0,0,0,0,3.725l5.152,1.832a19.835,19.835,0,0,0,3.152,7.436l-2.385,5.02a1.976,1.976,0,0,0,2.633,2.633l5.076-2.412a19.834,19.834,0,0,0,7.317,3l1.895,5.327a1.977,1.977,0,0,0,3.725,0l1.895-5.327a19.834,19.834,0,0,0,7.317-3l5.076,2.412a1.976,1.976,0,0,0,2.633-2.633l-2.385-5.02a19.835,19.835,0,0,0,3.152-7.436L95.6,72.755A1.977,1.977,0,0,0,95.6,69.03Z" transform="translate(-38.892 -38.892)" fill="#ff6d7a"/>
      <g id="Grupo_1228320" data-name="Grupo 1228320" transform="translate(5.985 5.984)">
        <path id="Trazado_1179314" data-name="Trazado 1179314" d="M102.4,280l-1.823,3.836-3.263,1.551a1.976,1.976,0,0,1-2.633-2.633l2.385-5.02A19.827,19.827,0,0,1,94,270.692c.068.029,1.73.618,5.249,1.869A19.836,19.836,0,0,0,102.4,280Z" transform="translate(-87.452 -240.584)" fill="#ff8c95"/>
        <path id="Trazado_1179315" data-name="Trazado 1179315" d="M59.715,107.509a19.81,19.81,0,0,0-3.119,7.7l-5.072,1.8a1.984,1.984,0,0,0-.952,3.017l-4.381-1.559a1.977,1.977,0,0,1,0-3.725l5.072-1.8a19.81,19.81,0,0,1,3.119-7.7l-2.272-4.781a1.976,1.976,0,0,1,2.633-2.633L59.1,99.9a1.982,1.982,0,0,0-1.66,2.828Z" transform="translate(-44.877 -90.595)" fill="#ff8c95"/>
        <path id="Trazado_1179316" data-name="Trazado 1179316" d="M170.029,49.586l-1.339,3.767a19.8,19.8,0,0,0-7.82,3.271c-5-2.357-4.781-2.311-5.148-2.395a19.79,19.79,0,0,1,7.635-3.143l1.74-4.895a1.977,1.977,0,0,1,3.725,0Z" transform="translate(-140.943 -44.877)" fill="#ff8c95"/>
      </g>
      <circle id="Elipse_12815" data-name="Elipse 12815" cx="3.6" cy="3.6" r="3.6" transform="translate(27.334 37.118)" fill="#e84857"/>
      <path id="Trazado_1179317" data-name="Trazado 1179317" d="M313.2,226.182a2.753,2.753,0,1,1-2.752,2.753A2.754,2.754,0,0,1,313.2,226.182Z" transform="translate(-269.058 -196.024)" fill="#e84857"/>
      <circle id="Elipse_12816" data-name="Elipse 12816" cx="4.8" cy="4.8" r="4.8" transform="translate(21.345 20.317)" fill="#e84857"/>
      <g id="Grupo_1228321" data-name="Grupo 1228321" transform="translate(0.001 0.001)">
        <path id="Trazado_1179318" data-name="Trazado 1179318" d="M51.409,69.84a3,3,0,0,0,.34-3.164L49.623,62.2a21.022,21.022,0,0,0,1.16-2.025,1.067,1.067,0,1,0-1.907-.956,18.942,18.942,0,0,1-1.354,2.283,1.066,1.066,0,0,0-.086,1.065l2.386,5.02A.91.91,0,0,1,48.61,68.8l-5.076-2.413a1.067,1.067,0,0,0-1.051.077,18.663,18.663,0,0,1-6.924,2.843,1.067,1.067,0,0,0-.805.69l-1.895,5.327a.91.91,0,0,1-1.715,0L29.249,70a1.067,1.067,0,0,0-.805-.69,18.673,18.673,0,0,1-6.924-2.842,1.067,1.067,0,0,0-1.051-.077L15.393,68.8a.91.91,0,0,1-1.212-1.212l2.386-5.02a1.067,1.067,0,0,0-.086-1.065A18.665,18.665,0,0,1,13.5,54.47a1.067,1.067,0,0,0-.689-.8L7.656,51.84a.91.91,0,0,1,0-1.715l5.071-1.8a1.067,1.067,0,0,0,.693-.821,18.647,18.647,0,0,1,2.952-7.289,1.067,1.067,0,0,0,.08-1.056L14.18,34.374a.91.91,0,0,1,1.212-1.212l4.728,2.247a1.067,1.067,0,1,0,.916-1.927l-4.728-2.247a3.031,3.031,0,0,0-1.882-.246c-3.128-3.927-8.669-3.217-7.394-7.73a1.067,1.067,0,0,0-2.053-.58C3.2,29,9.9,29.063,12.593,32.126a3,3,0,0,0-.34,3.164l2.015,4.24a20.734,20.734,0,0,0-2.832,6.987l-4.5,1.6a3,3,0,0,0-1.958,2.237,7.707,7.707,0,0,1-3.628-.195,1.067,1.067,0,1,0-.575,2.054,9.876,9.876,0,0,0,4.515.25A3.02,3.02,0,0,0,6.941,53.85l4.591,1.633A20.752,20.752,0,0,0,14.379,62.2l-2.126,4.472a3,3,0,0,0,.34,3.164C9.9,72.9,3.2,72.969,4.979,79.285a1.067,1.067,0,1,0,2.053-.58C5.76,74.2,11.3,74.9,14.427,70.976a3.033,3.033,0,0,0,1.882-.246l4.538-2.157a20.762,20.762,0,0,0,6.594,2.708l1.693,4.761A3,3,0,0,0,31.371,78a7.7,7.7,0,0,1-.195,3.627,1.067,1.067,0,1,0,2.054.575,9.865,9.865,0,0,0,.249-4.515,3.02,3.02,0,0,0,1.389-1.646l1.693-4.761a20.755,20.755,0,0,0,6.594-2.708l4.538,2.157a3.031,3.031,0,0,0,1.882.245c3.128,3.927,8.669,3.217,7.394,7.73a1.067,1.067,0,1,0,2.053.58c1.783-6.316-4.919-6.382-7.614-9.446Z" transform="translate(-0.001 -18.983)"/>
        <path id="Trazado_1179319" data-name="Trazado 1179319" d="M225.717,30.771a9.868,9.868,0,0,0-4.515-.249,3.021,3.021,0,0,0-1.645-1.389l-4.5-1.6a20.733,20.733,0,0,0-2.832-6.987l2.015-4.24a3,3,0,0,0-.34-3.164c2.7-3.063,9.4-3.129,7.614-9.446a1.067,1.067,0,1,0-2.053.58c1.272,4.506-4.272,3.809-7.394,7.73a3.032,3.032,0,0,0-1.882.246l-4.176,1.985a20.729,20.729,0,0,0-7.112-2.974l-1.537-4.323a3,3,0,0,0-2.237-1.958,7.7,7.7,0,0,1,.195-3.627A1.067,1.067,0,1,0,193.267.78a9.865,9.865,0,0,0-.249,4.515,3.02,3.02,0,0,0-1.389,1.646l-1.537,4.323c-.622.133-1.241.295-1.846.483a1.067,1.067,0,0,0,.634,2.037,18.759,18.759,0,0,1,2.205-.543,1.067,1.067,0,0,0,.813-.692l1.741-4.894a.91.91,0,0,1,1.715,0l1.741,4.894a1.066,1.066,0,0,0,.813.692,18.646,18.646,0,0,1,7.4,3.1,1.067,1.067,0,0,0,1.07.09L211.1,14.18a.91.91,0,0,1,1.212,1.212l-2.273,4.782a1.067,1.067,0,0,0,.08,1.056,18.649,18.649,0,0,1,2.952,7.289,1.066,1.066,0,0,0,.693.821l5.071,1.8a.91.91,0,0,1,0,1.715l-5.152,1.832a1.067,1.067,0,0,0,.715,2.01l5.152-1.832a3,3,0,0,0,1.958-2.237,9.271,9.271,0,0,1,3.916.235,1.067,1.067,0,0,0,.287-2.094Z" transform="translate(-162.496 -0.001)"/>
        <path id="Trazado_1179320" data-name="Trazado 1179320" d="M157.953,156.1a5.869,5.869,0,0,0,5.763-6.97,1.067,1.067,0,0,0-2.1.4,3.734,3.734,0,1,1-3.254-3.007,1.067,1.067,0,0,0,.233-2.121,5.867,5.867,0,1,0-.646,11.7Z" transform="translate(-131.808 -125.115)"/>
        <path id="Trazado_1179321" data-name="Trazado 1179321" d="M306.267,220.317A1.688,1.688,0,0,1,307.953,222a1.067,1.067,0,0,0,2.133,0,3.819,3.819,0,1,0-3.819,3.819,1.067,1.067,0,0,0,0-2.133,1.686,1.686,0,0,1,0-3.372Z" transform="translate(-262.122 -189.093)"/>
        <path id="Trazado_1179322" data-name="Trazado 1179322" d="M201.669,272.516a1.067,1.067,0,0,0,0-2.133,4.667,4.667,0,1,0,4.667,4.667,1.067,1.067,0,0,0-2.133,0,2.533,2.533,0,1,1-2.533-2.533Z" transform="translate(-170.735 -234.332)"/>
        <path id="Trazado_1179323" data-name="Trazado 1179323" d="M278.163,150.995l-1.51.393a1.067,1.067,0,0,0,.537,2.065l1.51-.393a1.067,1.067,0,1,0-.537-2.065Z" transform="translate(-239.074 -130.832)"/>
        <path id="Trazado_1179324" data-name="Trazado 1179324" d="M155.694,261.78l-.839,1.315a1.067,1.067,0,0,0,1.8,1.147l.839-1.315a1.067,1.067,0,1,0-1.8-1.147Z" transform="translate(-134.062 -226.449)"/>
        <path id="Trazado_1179325" data-name="Trazado 1179325" d="M297.13,296.458a1.067,1.067,0,0,0-.391,1.457l.78,1.351a1.067,1.067,0,0,0,1.848-1.067l-.78-1.351A1.067,1.067,0,0,0,297.13,296.458Z" transform="translate(-257.051 -256.807)"/>
      </g>
    </g>
  </g>
</svg>
