<svg xmlns="http://www.w3.org/2000/svg" xmlns:xlink="http://www.w3.org/1999/xlink" width="648.652" height="523.806" viewBox="0 0 648.652 523.806">
  <defs>
    <filter id="Elipse_12783" x="200.881" y="205.115" width="78" height="78" filterUnits="userSpaceOnUse">
      <feOffset dy="3" input="SourceAlpha"/>
      <feGaussianBlur stdDeviation="3" result="blur"/>
      <feFlood flood-opacity="0.161"/>
      <feComposite operator="in" in2="blur"/>
      <feComposite in="SourceGraphic"/>
    </filter>
    <filter id="Elipse_12783-2" x="380.881" y="205.115" width="78" height="78" filterUnits="userSpaceOnUse">
      <feOffset dy="3" input="SourceAlpha"/>
      <feGaussianBlur stdDeviation="3" result="blur-2"/>
      <feFlood flood-opacity="0.161"/>
      <feComposite operator="in" in2="blur-2"/>
      <feComposite in="SourceGraphic"/>
    </filter>
  </defs>
  <g id="Grupo_1231167" data-name="Grupo 1231167" transform="translate(-475.674 -1140.885)">
    <g id="Grupo_1227955" data-name="Grupo 1227955" transform="translate(-170.465 -7.56)">
      <g id="Grupo_1227954" data-name="Grupo 1227954" transform="translate(646.139 1117.903)">
        <circle id="Elipse_12771" data-name="Elipse 12771" cx="31.14" cy="31.14" r="31.14" transform="translate(468.711 30.542)" fill="#e75444"/>
        <circle id="Elipse_12772" data-name="Elipse 12772" cx="31.14" cy="31.14" r="31.14" transform="translate(539.293 107.193)" fill="#ec884d"/>
        <circle id="Elipse_12773" data-name="Elipse 12773" cx="31.14" cy="31.14" r="31.14" transform="translate(564.786 254.831) rotate(-76.714)" fill="#f4c157"/>
        <circle id="Elipse_12774" data-name="Elipse 12774" cx="31.14" cy="31.14" r="31.14" transform="translate(547.588 321.148) rotate(-22.5)" fill="#afce69"/>
        <circle id="Elipse_12775" data-name="Elipse 12775" cx="31.14" cy="31.14" r="31.14" transform="translate(503.254 451.433) rotate(-76.714)" fill="#83c49e"/>
        <circle id="Elipse_12776" data-name="Elipse 12776" cx="31.14" cy="31.14" r="31.14" transform="translate(426.693 522.175) rotate(-76.714)" fill="#8e8fbc"/>
        <circle id="Elipse_12777" data-name="Elipse 12777" cx="31.14" cy="31.14" r="31.14" transform="translate(116.347 30.542)" fill="#9fd6f0"/>
        <circle id="Elipse_12778" data-name="Elipse 12778" cx="31.14" cy="31.14" r="31.14" transform="translate(45.765 107.193)" fill="#58c3ec"/>
        <circle id="Elipse_12779" data-name="Elipse 12779" cx="31.14" cy="31.14" r="31.14" transform="translate(1.396 237.008) rotate(-52.018)" fill="#639bc8"/>
        <circle id="Elipse_12780" data-name="Elipse 12780" cx="31.14" cy="31.14" r="31.14" transform="translate(15.041 338) rotate(-45)" fill="#5789b0"/>
        <circle id="Elipse_12781" data-name="Elipse 12781" cx="31.14" cy="31.14" r="31.14" transform="translate(65.949 445.089) rotate(-67.5)" fill="#4d7a9d"/>
        <circle id="Elipse_12782" data-name="Elipse 12782" cx="31.14" cy="31.14" r="31.14" transform="translate(142.506 515.832) rotate(-67.5)" fill="#416a89"/>
        <g id="Grupo_1227928" data-name="Grupo 1227928" transform="translate(578.699 209.47)">
          <path id="Trazado_1178702" data-name="Trazado 1178702" d="M725.688,390.134a16.447,16.447,0,0,1-7.533,3.53c-5.092.886-8.19-1.294-12.578-3.254-.417-.186-1.083.251-.722.722a14.208,14.208,0,0,0,12.388,5.173c3.474-.287,8.82-1.185,9.812-5.12C727.237,390.461,726.384,389.621,725.688,390.134Z" transform="translate(-693.294 -358.776)" fill="#fff"/>
          <path id="Trazado_1178703" data-name="Trazado 1178703" d="M710.221,373.23c-3.322-.166-6.949,2.548-7.033,6.05a.715.715,0,0,0,1.322.358c1.359-1.944,2.485-3.894,5.175-3.915,2.514-.02,2.652,2.31,3.986,3.676a.933.933,0,0,0,1.445-.187C717,376.526,712.585,373.348,710.221,373.23Z" transform="translate(-693.109 -356.788)" fill="#fff"/>
          <path id="Trazado_1178704" data-name="Trazado 1178704" d="M727.009,372.276c-2.772,0-7.172,3.145-6.349,6.262a.793.793,0,0,0,1.437.188c1.112-1.889,2.6-3.6,4.912-3.877,2.193-.262,3.1,1.618,4.259,3.03a.9.9,0,0,0,1.49-.393C733.637,374.27,729.675,372.275,727.009,372.276Z" transform="translate(-695.17 -356.676)" fill="#fff"/>
          <path id="Trazado_1178705" data-name="Trazado 1178705" d="M738.276,369.085c-3.562-11.078-17.825-17.99-28.493-12.695-1.007.5-.3,2.091.754,1.787,11.046-3.186,22.1,1.23,25.732,12.677,3.491,10.989-3.01,22.12-13.342,26.129-10.416,4.043-21.213-.812-26.567-10.214a21.738,21.738,0,0,1-1.934-16.18c1.63-6.35,8.059-10.529,13.178-13.93a.662.662,0,0,0-.668-1.142c-5.414,2.933-11.821,7.171-13.924,13.3a23.751,23.751,0,0,0,1.119,17.934c5.29,11.747,18.712,16.3,30.379,11.843C736.453,394.034,742.127,381.061,738.276,369.085Z" transform="translate(-691.752 -354.576)" fill="#fff"/>
        </g>
        <g id="Grupo_1227929" data-name="Grupo 1227929" transform="translate(566.118 318.667)">
          <path id="Trazado_1178706" data-name="Trazado 1178706" d="M712.922,494.941c-1.066-5.521-7.466-11.927-13.063-7.4a.758.758,0,0,0-.182,1.025.345.345,0,0,0-.111-.014c-5.121.331-9,6.042-8.082,10.982,1.076,5.791,6.476,10.162,12.527,8.76A11.646,11.646,0,0,0,712.922,494.941Zm-9.541,11.075c-10.6,2.824-13.894-13.7-3.706-16.643a.42.42,0,0,0,.289-.474.994.994,0,0,0,.807.213C712.487,486.614,713.665,503.275,703.382,506.016Z" transform="translate(-679.124 -479.368)" fill="#fff"/>
          <path id="Trazado_1178707" data-name="Trazado 1178707" d="M721.764,485.544c-.566-2.057-2.988-2.2-4.735-2.52a24.663,24.663,0,0,0-4.248-.3c-.675-.006-3.2.7-3.821.069a12.493,12.493,0,0,0-6.265-3.1,13.13,13.13,0,0,0-8.94,1.274,2.5,2.5,0,0,0-1.017-1.568c-1.744-1.289-3.278-.94-5.329-.674-1.645.212-3.19.368-4.49,1.481a2.4,2.4,0,0,0-.367,3.072.6.6,0,0,0,.085.086c-2.115.62-3.866,1.829-4.472,4.026-.934,3.389-.695,7.437-.55,10.907.114,2.739.248,6.372,1.466,8.895,2.537,5.26,9.983,4.173,14.866,4.274,7.438.153,15.638.016,22.863-1.952,5.756-1.568,5.205-7.843,5.286-12.6C722.156,493.4,722.7,488.948,721.764,485.544Zm-1.875,4.794a.809.809,0,0,0-.772-.479c-.12,0-.239.012-.358.018a14.121,14.121,0,0,0,1.04-1.209c.026-.029.048-.061.072-.09C719.9,489.164,719.9,489.774,719.89,490.339Zm-.879-4.573c.44.113.667.847.782,1.794-.171.2-.346.39-.507.593a7.165,7.165,0,0,0-1.257,1.759c-1.629.089-3.245.227-4.888.192-1.39-.03-1.368-.925-1.4-2.094a16.886,16.886,0,0,0-.24-3.027A21.641,21.641,0,0,1,719.011,485.765ZM683.574,483c.092-2.15,2.2-2.227,3.836-2.395,1.8-.185,4.161-.832,4.643,1.515A9.711,9.711,0,0,0,691,483.144a.6.6,0,0,0-.27-.11,22.4,22.4,0,0,0-7.178.1A.708.708,0,0,0,683.574,483ZM715.3,507.7c-4.508,1.225-9.637,1.283-14.288,1.516a129.841,129.841,0,0,1-15.538-.21c-3.531-.247-4.923-2.078-5.623-5.319A46.966,46.966,0,0,1,679,494.06c-.018-3.045-.394-7.606,3.192-8.974a19.922,19.922,0,0,1,8.2-.941c0,.617.773,1.222,1.34.795,3.195-2.407,6.294-3.755,10.388-3.147a10.674,10.674,0,0,1,5.292,2.548c1.4,1.193,1.437,1.024,3.019.778a25.1,25.1,0,0,0-.313,4.059,2.31,2.31,0,0,0,1.02,2.261,7,7,0,0,0,3.2.537,23.617,23.617,0,0,0,5.017-.36.754.754,0,0,0,.511-.351c-.017.547-.034.991-.026,1.215C720,497.555,721.52,506.011,715.3,507.7Z" transform="translate(-677.478 -478.474)" fill="#fff"/>
          <path id="Trazado_1178708" data-name="Trazado 1178708" d="M719.87,486.241a20.857,20.857,0,0,0-1.451,1.555,9.178,9.178,0,0,0-1.272,1.531c-.163.3.186.726.5.5a9.181,9.181,0,0,0,1.363-1.44,21.962,21.962,0,0,0,1.421-1.712C720.675,486.331,720.155,485.977,719.87,486.241Z" transform="translate(-682.18 -479.385)" fill="#fff"/>
          <path id="Trazado_1178709" data-name="Trazado 1178709" d="M721.986,488.062c-.844.888-1.8,1.672-2.579,2.623a.07.07,0,0,0,.085.109,9.829,9.829,0,0,0,2.74-2.486C722.374,488.138,722.143,487.9,721.986,488.062Z" transform="translate(-682.451 -479.605)" fill="#fff"/>
          <path id="Trazado_1178710" data-name="Trazado 1178710" d="M720.927,504.557a2.522,2.522,0,0,0-1.2-1.137,2.492,2.492,0,0,0-3.078.558c-.386.476.119,1.318.705.914a1.684,1.684,0,0,1,2.267.247,3.977,3.977,0,0,1-1.27,1.748,1.249,1.249,0,0,1-1.836-.635.425.425,0,0,0-.771.1c-.2,1.088.837,1.823,1.808,1.968,1.36.2,2.374-.928,3-1.987C720.909,505.722,721.216,505.237,720.927,504.557Z" transform="translate(-682.015 -481.399)" fill="#fff"/>
        </g>
        <g id="Grupo_1227930" data-name="Grupo 1227930" transform="translate(445.059 478.158)">
          <path id="Trazado_1178711" data-name="Trazado 1178711" d="M575.108,659.44A100.782,100.782,0,0,0,549.6,664.1a.836.836,0,0,0-.609.8c.263,6.777-.179,13.44-.466,20.2a.5.5,0,0,0,.094.309c-2.515-.464-5.406,1.255-6.8,3.25-1.1,1.574-2.83,5.44-.683,6.97,5,3.561,14.7-3.018,12.937-8.994a.639.639,0,0,0-.419-.4.41.41,0,0,0,.159-.259,47.613,47.613,0,0,0,.465-13.386c-.116-1.258-2.085-1.278-1.981,0,.36,4.428.39,8.822.552,13.255a.338.338,0,0,1,.11.649c-.735,1.642-.91,3.326-1.879,4.91a8.427,8.427,0,0,1-6.409,3.627c-3.684.381-3.572-2.707-2.116-5.13,1.148-1.912,4.4-3.919,6.667-2.966.3.127.505-.223.469-.469l-.069-.469a.536.536,0,0,0-.264-.353.486.486,0,0,0,.33-.38,77.534,77.534,0,0,0,1-9.569c.089-1.468-.769-9.948.629-10.447a77.654,77.654,0,0,1,22.852-4.084,28.593,28.593,0,0,0-.264,5.173.638.638,0,0,0,1.247.168,35.81,35.81,0,0,0,.783-6.219A.837.837,0,0,0,575.108,659.44Z" transform="translate(-540.119 -659.439)" fill="#fff"/>
          <path id="Trazado_1178712" data-name="Trazado 1178712" d="M578.255,684.313a.409.409,0,0,0,.159-.259,47.616,47.616,0,0,0,.465-13.386c-.116-1.258-2.085-1.278-1.981,0,.36,4.428.39,8.822.552,13.255a.491.491,0,0,0,.3.431.486.486,0,0,0-.194.218c-.735,1.642-.91,3.326-1.879,4.91a8.425,8.425,0,0,1-6.409,3.627c-3.684.381-3.572-2.707-2.117-5.13,1.148-1.912,4.4-3.919,6.667-2.966.3.127.505-.223.469-.469l-.069-.469a.624.624,0,0,0-.442-.442c-2.633-.866-5.864.964-7.361,3.109-1.1,1.574-2.83,5.44-.683,6.97,5,3.561,14.7-3.018,12.937-8.994A.637.637,0,0,0,578.255,684.313Z" transform="translate(-543.037 -660.659)" fill="#fff"/>
          <path id="Trazado_1178713" data-name="Trazado 1178713" d="M573.594,673.18c-.022-.808.589-3.357-.572-3.8-2.034-.776-4.489.127-6.5.616-3.27.794-6.8,1.373-9.882,2.735-.311.138-.152.649.171.631,4.126-.223,8.334-1.668,12.356-2.59,3.992-.916,2.993,3.371,3.2,6.054a25.772,25.772,0,0,0,1.016,6.184.494.494,0,0,0,.965-.13C574.46,679.658,573.683,676.418,573.594,673.18Z" transform="translate(-542.059 -660.583)" fill="#fff"/>
        </g>
        <g id="Grupo_1227931" data-name="Grupo 1227931" transform="translate(548.683 112.307)">
          <path id="Trazado_1178714" data-name="Trazado 1178714" d="M666.391,280.737a8.962,8.962,0,0,0-1.725,1.488,21.135,21.135,0,0,0-1.457,1.743c-.261.365.256.881.62.62.618-.441,1.172-.959,1.742-1.457a8.684,8.684,0,0,0,1.488-1.725A.492.492,0,0,0,666.391,280.737Z" transform="translate(-658.341 -248.642)" fill="#fff"/>
          <path id="Trazado_1178715" data-name="Trazado 1178715" d="M662.626,272.444a15.872,15.872,0,0,0-4.6,2.024c-.667.4-.231,1.551.542,1.285a16.033,16.033,0,0,0,4.52-2.218A.6.6,0,0,0,662.626,272.444Z" transform="translate(-657.695 -247.664)" fill="#fff"/>
          <path id="Trazado_1178716" data-name="Trazado 1178716" d="M664.294,261.3a5.5,5.5,0,0,0-2.054-1.07,11.084,11.084,0,0,0-2.676-.715c-.716-.043-.79.859-.328,1.21a10.084,10.084,0,0,0,2.238,1.061,5.813,5.813,0,0,0,2.366.606A.645.645,0,0,0,664.294,261.3Z" transform="translate(-657.843 -246.132)" fill="#fff"/>
          <path id="Trazado_1178717" data-name="Trazado 1178717" d="M669.829,254.04a10.338,10.338,0,0,0-3.77-2.447c-.517-.216-.868.541-.519.893a10.34,10.34,0,0,0,3.718,2.536C669.85,255.231,670.191,254.448,669.829,254.04Z" transform="translate(-658.609 -245.188)" fill="#fff"/>
          <path id="Trazado_1178718" data-name="Trazado 1178718" d="M681.18,248.866c-.472-1.38-1.051-2.655-1.406-4.081-.184-.74-1.168-.5-1.241.168a5.314,5.314,0,0,0,1.591,4.527C680.568,249.86,681.4,249.513,681.18,248.866Z" transform="translate(-660.163 -244.331)" fill="#fff"/>
          <path id="Trazado_1178719" data-name="Trazado 1178719" d="M693.319,246.182a14.519,14.519,0,0,0-2.477,4.721.457.457,0,0,0,.759.442,14.735,14.735,0,0,0,2.678-4.758C694.5,245.975,693.65,245.751,693.319,246.182Z" transform="translate(-661.626 -244.524)" fill="#fff"/>
          <path id="Trazado_1178720" data-name="Trazado 1178720" d="M704.408,254.873a5.763,5.763,0,0,0-2.063.669,8.51,8.51,0,0,0-2.15,1.33.574.574,0,0,0,.4.972,8.308,8.308,0,0,0,2.127-.635A6.014,6.014,0,0,0,704.873,256,.663.663,0,0,0,704.408,254.873Z" transform="translate(-662.719 -245.581)" fill="#fff"/>
          <path id="Trazado_1178721" data-name="Trazado 1178721" d="M706.333,267.758a6.39,6.39,0,0,0-4.148-.162c-.527.187-.674,1.114,0,1.219a37.751,37.751,0,0,0,3.97.255C706.948,269.106,707.008,268,706.333,267.758Z" transform="translate(-662.92 -247.058)" fill="#fff"/>
          <path id="Trazado_1178722" data-name="Trazado 1178722" d="M704.538,281.6a11.889,11.889,0,0,0-3.965-2.517.472.472,0,0,0-.476.814c1.3.8,2.428,1.861,3.751,2.6A.572.572,0,0,0,704.538,281.6Z" transform="translate(-662.699 -248.448)" fill="#fff"/>
          <path id="Trazado_1178723" data-name="Trazado 1178723" d="M688.417,283.17c.69-4.171,3.766-7.009,5.528-10.729a11.972,11.972,0,0,0,.8-7.537c-1.14-6.061-7.346-9.238-12.982-9.37a12.837,12.837,0,0,0-12.085,8.449c-1.091,2.968-.475,6.691.17,9.7.829,3.869,5.219,5.3,5.6,9.494a.072.072,0,0,0,.14.019c1.39-3.323-1.577-5.729-3.316-8.237-1.8-2.6-1.521-7.589-.866-10.5.846-3.758,4.769-6.02,8.16-6.943,7.478-2.037,14.871,4.249,13.641,11.895-.8,4.995-6.711,8.345-6.064,13.587,0,.011.009.021.011.033a5.84,5.84,0,0,0-1.905-.162c.58-3.06,1.026-6.164,1.44-9.248.1-.73-1.013-.795-1.223-.166-.1.3-.193.606-.286.912a.566.566,0,0,0-.313-.063c-.986.088-1.725.4-2.484-.491a.786.786,0,0,0-.94-.122,1.423,1.423,0,0,0-.759.863q-.415-.781-.832-1.561a.733.733,0,0,0-1.258,0,6.426,6.426,0,0,0-1.027,2.774.351.351,0,0,0,.523.3,3.066,3.066,0,0,0,1.038-1.042c.32.757.729,1.493,1.415,1.682a1.079,1.079,0,0,0,.987-.324,5.949,5.949,0,0,0,.412-.9,2.963,2.963,0,0,0,2.812.4,29.53,29.53,0,0,0-.895,7.042,26.089,26.089,0,0,0-4.47.437.71.71,0,0,0,.179-.618,33.7,33.7,0,0,0-3.111-9.2c-.429-.778-1.452-.205-1.333.562a33.9,33.9,0,0,0,3.16,9.177.62.62,0,0,0,.217.25c-.546.127-1.087.271-1.614.443-.479.158-.427.993.125.926,2.1-.254,4.172-.557,6.3-.606.171,0,.522-.023.937-.029a.636.636,0,0,0,.524,0c.961.019,2.024.149,2.135.666a11.778,11.778,0,0,1,.014,5.012c-.722,3.142-4.129,3.472-6.789,3.006-2.375-.415-2.9-4.491-2.872-6.367a.708.708,0,0,0-1.31-.355c-1.389,1.995.292,6.7,2.409,7.814a6.139,6.139,0,0,0,.712.31.412.412,0,0,0-.1.279,3.193,3.193,0,0,0,2.987,3.032c1.56.2,3.552-1.306,3.24-2.945a.51.51,0,0,0-.848-.224c-.635.772-.929,1.571-1.982,1.869-1.212.344-2.158-.79-2.529-1.777a7.688,7.688,0,0,0,7.152-1.821c1.934-2.083,2.4-6.691.989-9.14A.5.5,0,0,0,688.417,283.17Z" transform="translate(-659.046 -245.66)" fill="#fff"/>
        </g>
        <g id="Grupo_1227932" data-name="Grupo 1227932" transform="translate(476.819 41.319)">
          <path id="Trazado_1178724" data-name="Trazado 1178724" d="M612.548,187.977c3.852-4.3,6.773-9.887,6.828-15.74a8.478,8.478,0,0,0-7.483-8.394c-5.31-.526-10,2.556-12.4,7.22a.924.924,0,0,0-.1.4c-3.393-5.057-9.1-7.634-15.147-6.076-6.918,1.782-8.688,8.894-7.929,15.117,1.8,14.7,14.971,27.43,29.884,27.732a.756.756,0,0,0,.258-1.458C601.7,199.107,607.5,193.614,612.548,187.977Zm-32.464-1.329c-2.2-5.47-3.374-12.816,1.229-17.335,5.512-5.41,13.473-1.288,17.34,3.709.469.605,1.367-.025,1.251-.671a.808.808,0,0,0,1.05-.159c2.116-2.275,3.987-4.363,6.993-5.51a6.5,6.5,0,0,1,8.857,5.556c.747,6.5-4.834,12.718-8.858,17.07-3.249,3.513-8.664,12.32-4.44,16.795C592.939,203.4,584.33,197.213,580.084,186.648Z" transform="translate(-576.156 -163.785)" fill="#fff"/>
        </g>
        <g id="Grupo_1227933" data-name="Grupo 1227933" transform="translate(518.93 405.726)">
          <path id="Trazado_1178725" data-name="Trazado 1178725" d="M665.932,592.381c-2.2-2.232-6.329-1.119-7.924-4.108-.19-.356-.817-.1-.661.278,1,2.455,3.544,2.866,5.849,3.633,8.2,2.727,2.095,13.483-1.245,17.393-6.4,7.5-18.148,17.415-28.294,11.194-9.429-5.782-9.3-19.451-4.387-27.985,2.64-4.586,6.867-8.13,11.34-10.828,3.057-1.844,6.443-3.047,10.037-2.38,3.5.649,5.1,4.33,4.5,7.49a.687.687,0,0,0,1.251.527c2.553-4.1-1.36-8.6-5.233-9.884-6.118-2.033-13.229,3.184-17.551,6.895-9.69,8.318-13.3,23.225-5.217,33.871a15.209,15.209,0,0,0,13.663,6.133c6.6-.6,12.461-5.678,17.087-10,4.517-4.215,8.924-9.385,9.295-15.809A8.471,8.471,0,0,0,665.932,592.381Z" transform="translate(-623.936 -577.255)" fill="#fff"/>
          <path id="Trazado_1178726" data-name="Trazado 1178726" d="M646.6,615.809c-1.247-2.716-4.278-2.373-6.2-.6a.549.549,0,0,0,.531.912c1.321-.369,3.132-1.238,4.058.222.852,1.344.047,3.118-.866,4.164a3.413,3.413,0,0,1-4.753.391c-1.494-1.212-.846-3.376.566-4.281.438-.281.163-1.056-.367-.871a3.7,3.7,0,0,0-1.786,5.347c1.271,2.4,4.557,2.484,6.61,1.24A5.446,5.446,0,0,0,646.6,615.809Z" transform="translate(-625.52 -581.594)" fill="#fff"/>
          <path id="Trazado_1178727" data-name="Trazado 1178727" d="M659.752,609.853c-1.247-2.716-4.278-2.373-6.2-.6a.549.549,0,0,0,.531.912c1.321-.369,3.132-1.238,4.058.222.852,1.344.047,3.118-.866,4.164a3.413,3.413,0,0,1-4.753.391c-1.494-1.212-.846-3.376.566-4.282.438-.281.163-1.056-.367-.871a3.7,3.7,0,0,0-1.786,5.346c1.271,2.4,4.556,2.484,6.61,1.24A5.444,5.444,0,0,0,659.752,609.853Z" transform="translate(-627.081 -580.888)" fill="#fff"/>
          <path id="Trazado_1178728" data-name="Trazado 1178728" d="M667.631,600.3c-1.247-2.716-4.278-2.373-6.2-.6a.549.549,0,0,0,.531.912c1.321-.369,3.132-1.238,4.058.222.852,1.344.047,3.118-.866,4.164a3.413,3.413,0,0,1-4.753.391c-1.494-1.212-.847-3.376.566-4.281.438-.281.163-1.056-.367-.871a3.7,3.7,0,0,0-1.786,5.346c1.271,2.4,4.556,2.484,6.61,1.24A5.444,5.444,0,0,0,667.631,600.3Z" transform="translate(-628.016 -579.755)" fill="#fff"/>
          <path id="Trazado_1178729" data-name="Trazado 1178729" d="M653.734,584.422c-1.247-2.716-4.278-2.373-6.2-.6a.549.549,0,0,0,.531.912c1.321-.369,3.132-1.238,4.058.222.852,1.344.047,3.118-.866,4.164a3.413,3.413,0,0,1-4.753.391c-1.494-1.212-.846-3.376.566-4.281.438-.281.163-1.056-.367-.871a3.7,3.7,0,0,0-1.786,5.347c1.271,2.4,4.557,2.484,6.609,1.24A5.447,5.447,0,0,0,653.734,584.422Z" transform="translate(-626.367 -577.87)" fill="#fff"/>
          <path id="Trazado_1178730" data-name="Trazado 1178730" d="M643.311,591.619c-1.247-2.716-4.278-2.373-6.2-.6a.549.549,0,0,0,.531.912c1.321-.369,3.132-1.238,4.058.222.852,1.344.047,3.118-.866,4.164a3.413,3.413,0,0,1-4.753.391c-1.494-1.212-.847-3.376.566-4.281.438-.281.163-1.056-.368-.871a3.7,3.7,0,0,0-1.786,5.347c1.271,2.4,4.557,2.484,6.61,1.24A5.447,5.447,0,0,0,643.311,591.619Z" transform="translate(-625.13 -578.724)" fill="#fff"/>
          <path id="Trazado_1178731" data-name="Trazado 1178731" d="M639.283,605.43c-1.247-2.716-4.278-2.373-6.2-.6a.549.549,0,0,0,.531.912c1.321-.369,3.132-1.238,4.058.222.852,1.344.047,3.118-.866,4.164a3.413,3.413,0,0,1-4.753.391c-1.494-1.212-.847-3.375.566-4.281.438-.281.163-1.056-.368-.871a3.7,3.7,0,0,0-1.786,5.347c1.271,2.4,4.557,2.484,6.61,1.24A5.445,5.445,0,0,0,639.283,605.43Z" transform="translate(-624.652 -580.363)" fill="#fff"/>
        </g>
        <g id="Grupo_1227934" data-name="Grupo 1227934" transform="translate(36.271 312.323)">
          <path id="Trazado_1178732" data-name="Trazado 1178732" d="M108.577,476.6c-4.047-8.449-12.465-6.154-14.9,2.1-.285.966,1,1.366,1.524.642q.825-1.1,1.594-2.238c2.26-3.256,6.692-3.893,8.923-.3,2.132,3.429,2.367,8.073,2.462,11.97a74.791,74.791,0,0,1-2.135,19.018,26.443,26.443,0,0,1-3.6,8.113c-2.869,4.449-6.279-1.161-7.158-2.78a18.4,18.4,0,0,1-1.5-4.776c-1.833-8.217-.949-17.206.806-25.334a.517.517,0,0,0-1-.274c-2.884,9.978-4.561,23.022.387,32.639,1.261,2.451,4.6,5.42,7.634,4.586,3.484-.958,5.416-7.064,6.427-10.008,1.748-5.087,2.09-10.76,2.533-16.078C111.046,488.255,111.073,481.81,108.577,476.6Z" transform="translate(-78.019 -471.277)" fill="#fff"/>
          <path id="Trazado_1178733" data-name="Trazado 1178733" d="M118.861,489.463c3.539-8.674-3.816-13.367-11.567-9.628-.907.438-.344,1.655.548,1.56q1.368-.128,2.73-.323c3.93-.514,7.379,2.341,6.22,6.4-1.108,3.882-4.389,7.178-7.212,9.866a74.828,74.828,0,0,1-15.521,11.2,26.459,26.459,0,0,1-8.425,2.788c-5.223.864-3.358-5.43-2.751-7.17a18.355,18.355,0,0,1,2.528-4.322c4.854-6.879,12.107-12.263,19.307-16.424a.517.517,0,0,0-.466-.923c-9.328,4.568-20.117,12.089-23.914,22.215-.969,2.581-.922,7.051,1.732,8.736,3.051,1.937,8.871-.735,11.73-1.964,4.942-2.123,9.374-5.681,13.611-8.926C111.886,499.123,116.677,494.814,118.861,489.463Z" transform="translate(-76.705 -472.138)" fill="#fff"/>
          <path id="Trazado_1178734" data-name="Trazado 1178734" d="M113.875,511.474c9.352-.57,10.392-9.233,3.663-14.6-.788-.628-1.64.407-1.169,1.17q.709,1.178,1.474,2.32c2.166,3.319,1.089,7.665-3.074,8.382-3.979.685-8.371-.844-12.017-2.224a74.819,74.819,0,0,1-16.818-9.134,26.462,26.462,0,0,1-6.164-6.384c-3.042-4.332,3.438-5.38,5.269-5.586a18.361,18.361,0,0,1,4.99.4c8.3,1.393,16.3,5.6,23.169,10.281a.517.517,0,0,0,.629-.82c-8.159-6.426-19.614-12.889-30.385-11.923-2.746.246-6.754,2.225-7.122,5.348-.423,3.589,4.507,7.676,6.853,9.72,4.056,3.533,9.183,5.985,13.943,8.4C102.146,509.376,108.107,511.826,113.875,511.474Z" transform="translate(-76.294 -472.7)" fill="#fff"/>
          <path id="Trazado_1178735" data-name="Trazado 1178735" d="M104.317,496.557A3.129,3.129,0,0,0,103,494.845a2.212,2.212,0,0,0-.945-.4,2.837,2.837,0,0,0-2.64.7,2.69,2.69,0,0,0-.7,2.532,1.969,1.969,0,0,0,.663,1.845,3.028,3.028,0,0,0,2.71.732,2.914,2.914,0,0,0,2.231-2.174A2.881,2.881,0,0,0,104.317,496.557Z" transform="translate(-78.946 -474.019)" fill="#fff"/>
        </g>
        <g id="Grupo_1227936" data-name="Grupo 1227936" transform="translate(83.734 402.816)">
          <path id="Trazado_1178736" data-name="Trazado 1178736" d="M135.855,606.865c-1.748.216-5.934.131-5.7,2.843.381,4.369.59,9.046,1.907,13.251a.591.591,0,0,0,1.156-.157,69.031,69.031,0,0,0-.462-7.626c-.087-1.092-.154-2.186-.221-3.28-.13-2.113.888-2.335,2.67-2.627,1.363-.224,3.414-1.013,3.052,1.621-.165,1.2-.275,2.4-.376,3.606a63.284,63.284,0,0,0-.108,7.735c.057,1.474,2.351,1.48,2.293,0a90.086,90.086,0,0,1,.67-12.8C141.019,606.7,137.611,606.649,135.855,606.865Z" transform="translate(-130.147 -577.849)" fill="#fff"/>
          <path id="Trazado_1178737" data-name="Trazado 1178737" d="M153.522,596.341c-1.748.338-5.934.205-5.7,4.438.381,6.822.59,14.125,1.907,20.69.2,1,1.136.8,1.156-.244.078-3.975-.258-7.948-.462-11.909-.087-1.7-.154-3.412-.221-5.12-.13-3.3.888-3.645,2.67-4.1,1.363-.35,3.414-1.582,3.052,2.531-.165,1.871-.275,3.749-.376,5.63-.216,4.017-.207,8.055-.108,12.079.057,2.3,2.351,2.31,2.293,0-.167-6.761.229-13.28.67-19.991C158.686,596.079,155.278,596,153.522,596.341Z" transform="translate(-132.243 -576.594)" fill="#fff"/>
          <path id="Trazado_1178738" data-name="Trazado 1178738" d="M169.855,585.006c-1.748.468-5.934.286-5.7,6.158.381,9.464.59,19.6,1.907,28.7.2,1.38,1.135,1.113,1.156-.339.078-5.515-.258-11.026-.462-16.52-.087-2.365-.154-4.734-.221-7.1-.13-4.579.888-5.057,2.67-5.69,1.363-.486,3.414-2.195,3.052,3.511-.165,2.6-.275,5.2-.376,7.81-.216,5.573-.207,11.175-.108,16.757.057,3.193,2.351,3.2,2.293,0-.167-9.38.229-18.423.67-27.734C175.019,584.64,171.611,584.536,169.855,585.006Z" transform="translate(-134.182 -575.244)" fill="#fff"/>
          <path id="Trazado_1178739" data-name="Trazado 1178739" d="M164.8,580.981c-1.916-2.092-3.767-2.094-5.55-.051q-2.762,3.168-5.512,6.344c-2.2,2.536-2.419,3.406-5.554,2.037-2.761-1.207-3.762-1.072-6.018,1.035a48.175,48.175,0,0,0-8.639,10.578c-.3.516.438,1.121.843.65,1.957-2.268,3.864-4.553,5.947-6.711,1.044-1.081,2.164-2.083,3.282-3.084,2.055-1.838,5.178.276,7.07,1.119a1.175,1.175,0,0,0,1.4-.181c2.53-2.88,7.737-11.546,11.937-10.373A.822.822,0,0,0,164.8,580.981Z" transform="translate(-130.54 -574.599)" fill="#fff"/>
          <path id="Trazado_1178740" data-name="Trazado 1178740" d="M146.285,583.67l-.424-.457a1.305,1.305,0,0,0-1.84,0l-.424.457a1.9,1.9,0,1,0,2.688,0Z" transform="translate(-131.681 -575.006)" fill="#fff"/>
          <g id="Grupo_1227935" data-name="Grupo 1227935" transform="translate(29.103)">
            <path id="Trazado_1178741" data-name="Trazado 1178741" d="M164.5,574.3l-.019.01.009,0Z" transform="translate(-163.325 -573.993)" fill="#fff"/>
            <path id="Trazado_1178742" data-name="Trazado 1178742" d="M167.088,575.26a1.826,1.826,0,0,0-2.741-1c.144-.078.185-.039-.01.008a1.549,1.549,0,0,0-.251.2,1.045,1.045,0,0,1,.242-.2c-.024.005-.044.011-.075.017a1.484,1.484,0,0,0-.651,2.469,3.263,3.263,0,0,0,1.277.718A1.812,1.812,0,0,0,167.088,575.26Z" transform="translate(-163.169 -573.952)" fill="#fff"/>
          </g>
        </g>
        <g id="Grupo_1227937" data-name="Grupo 1227937" transform="translate(163.668 473.876)">
          <path id="Trazado_1178743" data-name="Trazado 1178743" d="M240.837,657.6a6.285,6.285,0,0,0-4.921-3.008,7.731,7.731,0,0,0-5.872,2.529c-.772.733.206,1.845,1.087,1.408,2.677-1.326,6.884-2.913,8.115,1.236.673,2.268-1.15,5.764-2.888,7.069-4.98,3.738-11.156-3.833-6.6-8.011.472-.433-.173-1.295-.692-.9-2.949,2.257-2.832,6.257-.716,9.074,2.251,3,6.6,3.07,9.513,1.1A9.185,9.185,0,0,0,240.837,657.6Z" transform="translate(-221.549 -654.58)" fill="#fff"/>
          <path id="Trazado_1178744" data-name="Trazado 1178744" d="M234.883,695.43a6.285,6.285,0,0,0-4.921-3.008,7.73,7.73,0,0,0-5.872,2.529c-.772.733.206,1.845,1.087,1.408,2.677-1.326,6.884-2.913,8.115,1.236.673,2.268-1.15,5.764-2.888,7.069-4.98,3.738-11.156-3.833-6.6-8.011.472-.433-.173-1.295-.693-.9-2.949,2.257-2.832,6.258-.716,9.074,2.251,3,6.6,3.07,9.512,1.1A9.183,9.183,0,0,0,234.883,695.43Z" transform="translate(-220.842 -659.07)" fill="#fff"/>
          <path id="Trazado_1178745" data-name="Trazado 1178745" d="M269.069,686.98a6.285,6.285,0,0,0-4.921-3.008,7.73,7.73,0,0,0-5.872,2.529c-.772.733.206,1.845,1.087,1.407,2.677-1.326,6.884-2.913,8.115,1.236.673,2.268-1.15,5.764-2.888,7.069-4.98,3.738-11.156-3.833-6.6-8.011.472-.433-.173-1.295-.693-.9-2.949,2.257-2.832,6.258-.716,9.074,2.251,3,6.6,3.07,9.512,1.1A9.182,9.182,0,0,0,269.069,686.98Z" transform="translate(-224.899 -658.067)" fill="#fff"/>
          <path id="Trazado_1178746" data-name="Trazado 1178746" d="M235.482,674.882c-.536,1.972-.791,4.033-1.143,6.045a19.587,19.587,0,0,0-.6,5.463c.062.546.9.967,1.183.32a16.727,16.727,0,0,0,1-4.68c.308-2.308.744-4.647.833-6.975A.653.653,0,0,0,235.482,674.882Z" transform="translate(-222.367 -656.934)" fill="#fff"/>
          <path id="Trazado_1178747" data-name="Trazado 1178747" d="M248.851,680.854a7.431,7.431,0,0,0-2.757-3.683c-1.468-1.216-2.982-2.876-4.739-3.65a.36.36,0,0,0-.488.488c1.65,2.9,5.176,4.447,6.868,7.315A.613.613,0,0,0,248.851,680.854Z" transform="translate(-223.212 -656.823)" fill="#fff"/>
          <path id="Trazado_1178748" data-name="Trazado 1178748" d="M248.487,690.252a55.573,55.573,0,0,0-9.943,2.876c-.64.236-.6,1.363.173,1.278a31.927,31.927,0,0,0,10.364-2.747C249.924,691.246,249.285,690.12,248.487,690.252Z" transform="translate(-222.89 -658.812)" fill="#fff"/>
        </g>
        <g id="Grupo_1227938" data-name="Grupo 1227938" transform="translate(136.984 36.814)">
          <path id="Trazado_1178749" data-name="Trazado 1178749" d="M204.719,179.75a19.232,19.232,0,0,0-2.534-.782c-.052-4.885.018-9.79-.123-14.67a6.842,6.842,0,0,1,6.58,4.674,1.154,1.154,0,0,0,2.224-.613,8.54,8.54,0,0,0-8.93-7.191c-.028-.55-.052-1.1-.088-1.649-.06-.908-1.515-1.232-1.681-.227-.114.691-.208,1.386-.3,2.083-4.833.924-9.372,4.812-9.3,10.491.07,5.427,3.546,8.682,8.3,10.15a143.1,143.1,0,0,0,0,15.264c-1.743-1.465-2.923-4.177-3.852-5.753-.966-1.638-3.212-.488-2.911,1.227.7,3.986,3.435,8.256,7.438,9.234a26.392,26.392,0,0,0,.772,2.865c.372,1.113,2.261,1.355,2.5,0,.166-.945.278-1.905.352-2.876,4.753-1.012,9.306-4.969,9.532-10.113A12.112,12.112,0,0,0,204.719,179.75Zm-10.487-9.165a7.653,7.653,0,0,1,5.252-5.867c-.408,4.454-.492,8.964-.555,13.429C195.76,177.218,193.264,175.661,194.231,170.585Zm14.54,22.084c-.578,2.637-2.991,4.521-5.509,5.279-.09-4.993-.854-10.135-1-14.948l0-.133C206.712,184.2,209.909,187.481,208.772,192.669Z" transform="translate(-190.566 -158.674)" fill="#fff"/>
        </g>
        <g id="Grupo_1227940" data-name="Grupo 1227940" transform="translate(16.825 216.235)">
          <path id="Trazado_1178750" data-name="Trazado 1178750" d="M97.292,395.482a4.567,4.567,0,0,1-2.025-3.008,9.915,9.915,0,0,1-.031-2.107,7.834,7.834,0,0,0-.055-2.062,1.052,1.052,0,0,0-.53-.715,6.888,6.888,0,0,0-3.455-.316c-.254.018-.479.033-.665.039a.913.913,0,0,1-.5-.127.89.89,0,0,1-.09-.061l-.007,0a.948.948,0,0,1-.91-.041.9.9,0,0,1-.441-.865l.529-6.195a.869.869,0,0,1,.44-.672.907.907,0,0,1,.838-.045c.516.244,2.3.96,3.545-.045a3.405,3.405,0,0,0,1.443-2.189c.038-.9.042-1.5-.3-1.7a2.277,2.277,0,0,0-1.455-.045l-.153.063a11.15,11.15,0,0,1-2.514.812.885.885,0,0,1-.59-.122.856.856,0,0,1-.436-.732c.028-1.949.118-3.878.268-5.735a.851.851,0,0,1,.324-.6.931.931,0,0,1,.709-.2,16.462,16.462,0,0,0,5.445,0c.688-.129.849-.828,1.032-1.965a5.6,5.6,0,0,1,.38-1.5l.072-.149c.854-1.774,1.419-2.946,3.905-2.953a5.327,5.327,0,0,1,2.623.74,2.451,2.451,0,0,1,1.43,2.175,9.636,9.636,0,0,1-.347,1.734c-.364,1.38-.454,2.026.215,2.425a2.714,2.714,0,0,0,.788.286,18.877,18.877,0,0,0,4.919.445.979.979,0,0,1,.541.135.873.873,0,0,1,.429.679,23.4,23.4,0,0,1-.362,6.741.925.925,0,0,1-.45.629.937.937,0,0,1-.784.053c-1.591-.59-2.76-.673-3.576-.254a1.958,1.958,0,0,0-1.046,1.749,2.607,2.607,0,0,0,1.076,2.243c.854.509,1.7-.074,2.266-.652a.953.953,0,0,1,1.158-.162.872.872,0,0,1,.419.672,16.322,16.322,0,0,1-.979,7.681.909.909,0,0,1-1.181.49c-.825-.313-4.906-1.334-5.7-1.036a8.493,8.493,0,0,1-.571,3.071c-.693,1.751-1.8,3.764-4.213,3.793A2.686,2.686,0,0,1,97.292,395.482Zm-1.527-9.522a2.214,2.214,0,0,1,1.078,1.477,8.767,8.767,0,0,1,.068,2.393,5.412,5.412,0,0,0,.3,2.857,2.923,2.923,0,0,0,.987,1.093,1.41,1.41,0,0,0,1.183.152,2.3,2.3,0,0,0,1.313-1.272,8.421,8.421,0,0,0,.555-1.251,9.2,9.2,0,0,0,.427-3.079.917.917,0,0,1,.8-.958,16.021,16.021,0,0,1,6.574.694,13.321,13.321,0,0,0,.531-4.548,5.334,5.334,0,0,1-4.02-.492,2.922,2.922,0,0,1-1.508-3.117,4.377,4.377,0,0,1,1.975-3.086,6.206,6.206,0,0,1,4.666-.526,13.152,13.152,0,0,0,.264-4.4,17.792,17.792,0,0,1-3.789-.341c-.122-.026-.271-.055-.439-.085a7.254,7.254,0,0,1-2.32-.708,1.615,1.615,0,0,1-.908-1.628,10.606,10.606,0,0,1,.356-1.636c.1-.355.2-.711.266-1.076a2.467,2.467,0,0,0-1.1-1.965,1.473,1.473,0,0,0-1.479,0c-1.62.8-1.919,1.554-2.046,3.576-.161,2.536-1.646,2.626-3.7,2.747l-.334.02c-.154.01-.494,0-.916-.009a18.992,18.992,0,0,0-2.635.052c-.013.117-.029.249-.046.392-.073.608-.3,2.458.112,2.7a.545.545,0,0,0,.4-.056c.553-.227,2.453-.911,3.713-.16A1.988,1.988,0,0,1,97.011,375a5.121,5.121,0,0,1-6.2,6.361l-.354,4.139c.209-.008.452-.026.719-.044C92.593,385.361,94.531,385.225,95.764,385.96Z" transform="translate(-58.305 -362.251)" fill="#fff"/>
          <g id="Grupo_1227939" data-name="Grupo 1227939" transform="translate(0 3.099)">
            <path id="Trazado_1178751" data-name="Trazado 1178751" d="M81.417,375.11l-.287-.074a6.571,6.571,0,0,0-1.052-.195,7.183,7.183,0,0,0-2.766.365.788.788,0,0,1-.444.015.842.842,0,0,1-.566-.57,19.137,19.137,0,0,1-.86-6.788l-.033-.011a11.39,11.39,0,0,0-4.027.643,6.186,6.186,0,0,1,.361,4.521,2.64,2.64,0,0,1-2.267,1.972,3.941,3.941,0,0,1-1.389-.108c-2.321-.628-3.172-3.32-3.22-5.643a10.364,10.364,0,0,0-3.881.871,21.081,21.081,0,0,1,.547,3.9c0,.129.013.287.024.464.078,1.259.22,3.6-1.309,3.849a8.148,8.148,0,0,1-1.5.063c-.33-.007-.66-.014-.992.01a2.334,2.334,0,0,0-1.4,1.423,1.7,1.7,0,0,0,.266,1.68,2.939,2.939,0,0,0,1.542,1.258,4.373,4.373,0,0,0,2.016-.12,2.8,2.8,0,0,1,1.337-.026c1.112.3,1.446,1.512,1.869,3.043l.092.329c.042.152.112.5.2.928a22.123,22.123,0,0,0,.629,2.633c.1-.018.222-.036.35-.056.587-.089,2.146-.328,2.315-.795.041-.113-.08-.321-.134-.405a5.586,5.586,0,0,1-1-3.552,2.058,2.058,0,0,1,.942-1.4,4.19,4.19,0,0,1,3.373-.579,5.254,5.254,0,0,1,3.524,5.177l3.671-.712c-.054-.208-.123-.449-.2-.712-.546-1.907-1.459-5.1.457-6.21a6.972,6.972,0,0,1,2.062-.685,4.464,4.464,0,0,0,2.411-1.038,2.4,2.4,0,0,0,.744-2.116A1.911,1.911,0,0,0,81.417,375.11Z" transform="translate(-54.468 -366.01)" fill="none"/>
            <path id="Trazado_1178752" data-name="Trazado 1178752" d="M84.287,376a3.925,3.925,0,0,0-3.1-3.034,9.8,9.8,0,0,0-1.125-.227,6.579,6.579,0,0,0-2.792.217c-.433-.724-.457-5.1-.369-6.006a.954.954,0,0,0-.6-1.045c-.015,0-.07-.015-.085-.017a12.773,12.773,0,0,0-6.882.995.883.883,0,0,0-.52.777,1.042,1.042,0,0,0,.428.941,1.919,1.919,0,0,1,1.029,2.249,2.329,2.329,0,0,1-2.548,1.531,1.62,1.62,0,0,1-.869-.609c-.544-.712-.732-1.911-.575-3.663a.948.948,0,0,0-.623-1.043.745.745,0,0,0-.242-.025,18.448,18.448,0,0,0-5.931,1.374.987.987,0,0,0-.49,1.185,22.474,22.474,0,0,1,.708,5.064,1.971,1.971,0,0,1-.286,1.316c-.341.406-1.071.4-1.844.394a7.526,7.526,0,0,0-1.58.1,1.828,1.828,0,0,0-1.184.992,6.038,6.038,0,0,0-.445,3.839c.452,2.022,1.276,2.605,2.637,2.973.242.065.507.127.792.194l.146.034a4.322,4.322,0,0,0,1.389-.005,3.931,3.931,0,0,1,1.338,0,.824.824,0,0,1,.595.532,19.346,19.346,0,0,1,1.211,5.478.926.926,0,0,0,.625.825.629.629,0,0,0,.292.011c1.657-.332,3.351-.739,5.036-1.209a.779.779,0,0,0,.483-.465,1.081,1.081,0,0,0,.03-.788,11.873,11.873,0,0,0-1.252-2.3l-.1-.157a2.448,2.448,0,0,1-.256-1.561c.156-.356.784-.506,1.385-.655a2.861,2.861,0,0,1,.9.091,2.946,2.946,0,0,1,1.318.8c1.149,1,.924,2.974.827,3.556a.97.97,0,0,0,.615,1.088.64.64,0,0,0,.292.011l5.494-1.066a.906.906,0,0,0,.686-.922,1.056,1.056,0,0,0-.207-.679,1.092,1.092,0,0,0,.031-.643c-.046-.185-.11-.409-.182-.657-.393-1.37-1.051-3.662.008-4.277a6.318,6.318,0,0,1,1.779-.588,7.831,7.831,0,0,0,1.822-.574A4.267,4.267,0,0,0,84.287,376Zm-2.442,2.337a4.467,4.467,0,0,1-2.411,1.038,7.012,7.012,0,0,0-2.062.685c-1.917,1.113-1,4.3-.457,6.21.076.263.145.5.2.712l-3.671.712a5.253,5.253,0,0,0-3.524-5.177,4.194,4.194,0,0,0-3.373.579,2.055,2.055,0,0,0-.942,1.4,5.588,5.588,0,0,0,1,3.552c.054.085.175.293.134.405-.17.467-1.728.705-2.315.795-.128.019-.246.038-.35.056a22.121,22.121,0,0,1-.629-2.633c-.085-.43-.155-.776-.2-.928l-.092-.329c-.423-1.533-.757-2.743-1.869-3.043a2.8,2.8,0,0,0-1.337.026,4.373,4.373,0,0,1-2.016.12,2.936,2.936,0,0,1-1.542-1.258,1.7,1.7,0,0,1-.266-1.68,2.339,2.339,0,0,1,1.4-1.422c.331-.024.662-.017.992-.01a8,8,0,0,0,1.5-.063c1.529-.249,1.386-2.59,1.309-3.849-.011-.176-.02-.334-.024-.464a21.081,21.081,0,0,0-.547-3.9A10.369,10.369,0,0,1,64.629,369c.048,2.323.9,5.016,3.22,5.643a3.938,3.938,0,0,0,1.389.108,2.639,2.639,0,0,0,2.267-1.972,6.191,6.191,0,0,0-.361-4.521,11.375,11.375,0,0,1,4.027-.643l.033.011a19.137,19.137,0,0,0,.86,6.788.842.842,0,0,0,.566.57.78.78,0,0,0,.444-.015,7.182,7.182,0,0,1,2.766-.365,6.454,6.454,0,0,1,1.052.195l.287.074a1.914,1.914,0,0,1,1.411,1.35A2.4,2.4,0,0,1,81.845,378.334Z" transform="translate(-54.229 -365.768)" fill="#fff"/>
          </g>
        </g>
        <g id="Grupo_1227941" data-name="Grupo 1227941" transform="translate(59.728 114.975)">
          <path id="Trazado_1178753" data-name="Trazado 1178753" d="M140.635,258.175c-1.25-6.705-8.084-12.54-14.962-10.348a.369.369,0,0,0-.151-.009c-6.77.938-14.612,7.84-13.722,15.231a12.224,12.224,0,0,0,2.62,6.333.572.572,0,0,0-.476.17c-1.932,1.878-1.2,4.8.713,6.379,2.1,1.732,6.176,1.677,7.995-.455a.851.851,0,0,0-.789-1.43c-1.715.463-2.906,1.4-4.8,1.051a3.163,3.163,0,0,1-2.145-4.767.622.622,0,0,0,.066-.308,14.909,14.909,0,0,0,12.849,4.108C135.161,273.168,142.061,265.828,140.635,258.175Zm-13.327,13.863a11.373,11.373,0,0,1-13.389-8.613c-1.372-5.91,4.78-12.661,10.343-14.553a.732.732,0,0,0,.716.727c6.224-.241,11.65,1.655,13.4,8.218C140.282,264.96,133.671,270.8,127.309,272.037Z" transform="translate(-103.956 -247.358)" fill="#fff"/>
          <path id="Trazado_1178754" data-name="Trazado 1178754" d="M117.236,281.889c.09-.752-.91-.835-1.269-.359-1.125,1.492-6.823,14.889-9.494,12.612-4.43-3.778,3.513-11.9,5.569-15.438.35-.6-.513-1.355-.986-.789a101.534,101.534,0,0,0-7.419,10.476c-1.64,2.564-.228,4.983,1.461,7.061C109.412,300.759,116.878,284.881,117.236,281.889Z" transform="translate(-102.909 -250.96)" fill="#fff"/>
          <path id="Trazado_1178755" data-name="Trazado 1178755" d="M125.946,252.463c-1.959-.611-3.969.932-5.349,2.2-1.669,1.528-3.9,3.965-3.9,6.32a.479.479,0,0,0,.884.249,21.808,21.808,0,0,1,3.953-4.652c1.4-1.319,3.065-1.645,4.586-2.645A.806.806,0,0,0,125.946,252.463Z" transform="translate(-104.545 -247.947)" fill="#fff"/>
          <path id="Trazado_1178756" data-name="Trazado 1178756" d="M133.806,253.923a5.354,5.354,0,0,0-3.87-1.3c-.561.026-.93.874-.326,1.155s1.262.445,1.878.711a5.224,5.224,0,0,0,1.85.508A.642.642,0,0,0,133.806,253.923Z" transform="translate(-106.04 -247.982)" fill="#fff"/>
        </g>
        <path id="Trazado_1178760" data-name="Trazado 1178760" d="M326.388,656.077a108.575,108.575,0,0,1-35.679,15.839c-2.663.622-1.456,4.34,1.1,3.984a70.589,70.589,0,0,0,37.043-16.633C330.591,657.755,328.3,654.8,326.388,656.077Z" transform="translate(-65.287 -180.845)" fill="#416a89"/>
        <path id="Trazado_1178761" data-name="Trazado 1178761" d="M225.04,606.268c-7.805,5.239-15.273,8.282-24.725,8.882-1.353.086-1.831,2.255-.338,2.5,9.618,1.589,20.46-1.4,27.4-8.357C228.895,607.774,226.894,605.023,225.04,606.268Z" transform="translate(-54.59 -174.934)" fill="#4d7a9d"/>
        <path id="Trazado_1178762" data-name="Trazado 1178762" d="M175.442,511.082c-4.817.636-9.635,1.5-14.463,2.007-4.88.509-9.792-.112-14.645.31a1.108,1.108,0,0,0-.293,2.165c9.073,3.78,21.484,2.6,30.3-1.146C177.947,513.74,177.173,510.854,175.442,511.082Z" transform="translate(-48.207 -163.675)" fill="#5789b0"/>
        <path id="Trazado_1178763" data-name="Trazado 1178763" d="M173.283,386.942c-6.479,2-12.484,4.321-19.316,4.913-7.46.644-14.166-.886-21.411-2.252a1.072,1.072,0,0,0-.822,1.95c11.764,7.075,31.726,6.8,43.114-.9C176.685,389.412,175.584,386.233,173.283,386.942Z" transform="translate(-46.539 -148.934)" fill="#639bc8"/>
        <path id="Trazado_1178764" data-name="Trazado 1178764" d="M208.627,294.907c-6.642-1.244-13.378-1.524-19.985-2.982-6.645-1.465-12.771-4.13-19.053-6.637-2-.8-2.813,2.125-1.353,3.209,10.65,7.906,27.2,13.291,40.391,10.858C210.841,298.947,210.834,295.321,208.627,294.907Z" transform="translate(-50.844 -136.868)" fill="#58c3ec"/>
        <path id="Trazado_1178765" data-name="Trazado 1178765" d="M284.322,211.427a66.88,66.88,0,0,1-19.925-5.693c-6.349-2.984-11.892-7.506-18.257-10.372a1.072,1.072,0,0,0-1.293,1.676c5.069,5.481,12.082,9.727,18.635,13.2,6.588,3.494,13.36,5.642,20.84,4.836A1.826,1.826,0,0,0,284.322,211.427Z" transform="translate(-59.986 -126.2)" fill="#9fd6f0"/>
        <path id="Trazado_1178766" data-name="Trazado 1178766" d="M473.288,656.077a108.575,108.575,0,0,0,35.679,15.839c2.663.622,1.456,4.34-1.1,3.984a70.586,70.586,0,0,1-37.043-16.633C469.086,657.755,471.376,654.8,473.288,656.077Z" transform="translate(-86.765 -180.845)" fill="#8e8fbc"/>
        <path id="Trazado_1178767" data-name="Trazado 1178767" d="M576.172,606.268c7.805,5.239,15.273,8.282,24.725,8.882,1.354.086,1.831,2.255.338,2.5-9.618,1.589-20.46-1.4-27.4-8.357C572.317,607.774,574.318,605.023,576.172,606.268Z" transform="translate(-98.998 -174.934)" fill="#83c49e"/>
        <path id="Trazado_1178768" data-name="Trazado 1178768" d="M625.353,511.082c4.817.636,9.635,1.5,14.463,2.007,4.88.509,9.792-.112,14.644.31a1.108,1.108,0,0,1,.293,2.165c-9.073,3.78-21.484,2.6-30.3-1.146C622.847,513.74,623.622,510.854,625.353,511.082Z" transform="translate(-104.963 -163.675)" fill="#afce69"/>
        <path id="Trazado_1178769" data-name="Trazado 1178769" d="M625.814,386.942c6.479,2,12.484,4.321,19.316,4.913,7.46.644,14.166-.886,21.411-2.252a1.072,1.072,0,0,1,.822,1.95c-11.764,7.075-31.726,6.8-43.115-.9C622.412,389.412,623.513,386.233,625.814,386.942Z" transform="translate(-104.934 -148.934)" fill="#f4c157"/>
        <path id="Trazado_1178770" data-name="Trazado 1178770" d="M590.709,294.907c6.642-1.244,13.378-1.524,19.985-2.982,6.644-1.465,12.771-4.13,19.053-6.637,2-.8,2.813,2.125,1.353,3.209-10.65,7.906-27.2,13.291-40.391,10.858C588.495,298.947,588.5,295.321,590.709,294.907Z" transform="translate(-100.867 -136.868)" fill="#ec884d"/>
        <path id="Trazado_1178771" data-name="Trazado 1178771" d="M515.181,211.427a66.879,66.879,0,0,0,19.925-5.693c6.349-2.984,11.892-7.506,18.257-10.372a1.072,1.072,0,0,1,1.293,1.676c-5.069,5.481-12.082,9.727-18.635,13.2-6.588,3.494-13.36,5.642-20.84,4.836A1.826,1.826,0,0,1,515.181,211.427Z" transform="translate(-91.892 -126.2)" fill="#e75444"/>
        <g id="Grupo_1227949" data-name="Grupo 1227949" transform="translate(126.933 77.445)">
          <g id="Grupo_1227945" data-name="Grupo 1227945" transform="translate(198.45)">
            <path id="Trazado_1178772" data-name="Trazado 1178772" d="M596.565,423.206c-5.166-6.057-1.867-19.47-3.717-27.076-1.751-7.2-6.2-13.384-11.551-18.332,4.3-8.668,2.68-20.865-5.212-26.773a1.1,1.1,0,0,0-.187-.09,25.5,25.5,0,0,0,2.21-19.618c-1.267-4.488-4.791-8.568-7.39-12.333-4.879-7.068-5.54-14.658-6.783-22.86-1.7-11.216-12.09-16.961-22.019-16.275a1.912,1.912,0,0,0,.168-1.133c-.8-5.72-3.986-12.244-6.343-17.513-2.108-4.713-4.575-9.689-8.984-12.687a25.868,25.868,0,0,0-13.574-4.537,3.086,3.086,0,0,0-.041-.4c-1.92-9.678-8.867-17.564-17.28-22.416-5.788-3.338-13.856-3.319-21.466-2.317-15.222-19.225-68.877-22.023-62.173,12.528-7.921,7.609-6.557,22.3.813,30.552a1.35,1.35,0,0,0-.353,1.23c1.608,8.774,1.991,15.069-1.95,23.235-1.792,3.714-3.152,7.411-1.97,11.467a2.1,2.1,0,0,0,1.249,1.341c-3.809,8.1-1.342,17.221,3.507,24.812a1.877,1.877,0,0,0,.406.433c-7.3,9.39-6.1,24.157-6.695,35.717-.591,11.4,1.306,22.256,8.066,30.316,1.89,17.624-12.081,31.616-10.893,49.078a11.258,11.258,0,0,0,6.632,9.725c-4.687,10.6-2.378,22.2,3.376,31.26-9.075,14.1-14.273,44.35,3.614,51.954-2.848,3.207-4.166,7.932-4.468,12.121-.593,8.268,6.1,17.675,13.787,19.448a2,2,0,0,0-.026.543c2.03,14.477,11.373,27.972,27.22,29.151,8.944.665,14.859-2.655,17.842-8.234,8.694,3.5,20.018,7.647,28.9,2.9a10.449,10.449,0,0,0,4.628-5.675c8.766,3.57,15.8-1.487,22.019-8.922,8.52-10.18,24.492-12.519,28.837-26.721a2.026,2.026,0,0,0,.916-.272c6.853-4.08,15.817-9.934,16.6-18.527a9.034,9.034,0,0,0-.065-2.06c8.776-5.807,12.574-15.116,12.536-25.452-.041-11.227-1.214-19.213,3.557-30.07,2.639-6,4.563-11.469,4.142-18.1a15.837,15.837,0,0,0-.368-2.477C601.943,443.991,603.173,430.952,596.565,423.206Z" transform="translate(-404.331 -204.775)" fill="#e75444"/>
            <path id="Trazado_1178773" data-name="Trazado 1178773" d="M532.31,558.2c-16.567-4.686-34.318-1.393-50.833,3.473-23,6.775-45,16.518-66.646,26.831.588,7.658,6.747,15.617,13.759,17.233a2,2,0,0,0-.026.543c2.03,14.477,11.373,27.972,27.22,29.151,8.944.665,14.859-2.655,17.842-8.234,8.694,3.5,20.018,7.647,28.9,2.9a10.449,10.449,0,0,0,4.628-5.675c8.766,3.57,15.8-1.487,22.019-8.922,8.52-10.18,24.492-12.519,28.837-26.721a2.027,2.027,0,0,0,.916-.272c1.088-.648,2.231-1.345,3.383-2.086C558.657,572.952,546.107,562.1,532.31,558.2Z" transform="translate(-405.577 -246.443)" fill="#8e8fbc"/>
            <path id="Trazado_1178774" data-name="Trazado 1178774" d="M559.014,493.453c-2.664,2.108-5.485,4.217-8.8,4.962-8.258,1.853-15.629-5.093-23.647-7.8-12.123-4.1-25.8,1.711-38.089-1.851-4.443-1.288-8.453-3.739-12.768-5.4-13.635-5.26-29.363-2.168-42.206,4.809-8.172,4.44-15.4,10.3-22.241,16.646a39.523,39.523,0,0,0,3.386,6.657c-9.075,14.1-14.273,44.35,3.614,51.954-2.848,3.207-4.166,7.932-4.468,12.121-.471,6.569,3.659,13.843,9.232,17.451a23.336,23.336,0,0,0,10.358-.857c6.181-2.012,11.14-6.58,16.746-9.868A44.4,44.4,0,0,1,479,576.722c3.531.537,7.073,1.507,10.617,1.073,4.118-.5,7.75-2.834,11.25-5.061,9.124-5.8,18.753-11.412,29.45-13s22.78,1.728,28.829,10.691c1.031,1.528,1.9,3.208,2.9,4.761,5.878-3.874,11.836-9.022,12.466-15.958a9.034,9.034,0,0,0-.065-2.06c8.776-5.807,12.574-15.116,12.536-25.452-.041-11.227-1.214-19.213,3.557-30.07,2.639-6,4.563-11.469,4.142-18.1a15.838,15.838,0,0,0-.368-2.477c4.663-3.651,6.974-9.717,6.724-15.666a48.058,48.058,0,0,0-8.259,3.308C580.352,475.123,569.976,484.78,559.014,493.453Z" transform="translate(-404.569 -235.702)" fill="#83c49e"/>
            <path id="Trazado_1178775" data-name="Trazado 1178775" d="M524.3,391.975c-12.141,1.976-23.029,8.383-33.727,14.455a657.969,657.969,0,0,1-68.854,34.355c-5.246,2.212-10.615,4.4-15.784,6.9a37.511,37.511,0,0,0-1.528,12.77,11.258,11.258,0,0,0,6.632,9.725c-4.687,10.6-2.378,22.2,3.376,31.26a48.269,48.269,0,0,0-4.367,8.857c7.077.474,14.132,1.149,20.167,4.454a21.105,21.105,0,0,0,5.125,2.469c5.555,1.3,10.333-3.8,13.881-8.269,9.133-11.5,19.993-22.862,34.248-26.39s32.139,4.373,34.174,18.916c.423,3.026.466,6.694,3.089,8.263a8.266,8.266,0,0,0,4.654.7l25.936-1.166c3.046-.137,6.2-.3,8.917-1.682,4.57-2.321,6.849-7.472,8.585-12.295s3.506-10.036,7.644-13.06,11.427-2.1,12.739,2.852c.609,2.3-.215,4.741.025,7.109a7.49,7.49,0,0,0,.278,1.353c.245-.634.509-1.274.795-1.927,2.639-6,4.563-11.469,4.142-18.1a15.837,15.837,0,0,0-.368-2.477c7.869-6.159,9.1-19.2,2.491-26.944-5.166-6.057-1.867-19.47-3.717-27.076-1.751-7.2-6.2-13.384-11.551-18.332a23.785,23.785,0,0,0,1.1-17.788c-10.778,3.678-21.591,8.182-32.748,9.518C541.238,391.433,532.659,390.614,524.3,391.975Z" transform="translate(-404.331 -225.675)" fill="#afce69"/>
            <path id="Trazado_1178776" data-name="Trazado 1178776" d="M576.086,363a1.1,1.1,0,0,0-.187-.09,25.5,25.5,0,0,0,2.21-19.618c-1.267-4.488-4.791-8.568-7.39-12.333-4.879-7.068-5.54-14.658-6.783-22.86a20,20,0,0,0-.419-2.045,61.6,61.6,0,0,0-10.265-.241c-27.589,1.62-52.389,16.54-75.915,31.042l-56.1,34.578c-2.694,1.661-5.471,3.354-8.587,3.91-1.818.324-3.684.257-5.516.483-.02,10.034,2.135,19.442,8.161,26.628,1.89,17.624-12.081,31.616-10.893,49.078a11.142,11.142,0,0,0,5.959,9.367,36.955,36.955,0,0,0,11.781-.766c8.981-2,17.747-6,26.928-5.419,12.9.821,26.476,10.446,37.586,3.834,9.052-5.387,11.636-19.683,21.96-21.774,5.4-1.093,11.815,1.618,16.082-1.865,3.237-2.643,3.354-7.508,2.778-11.648-.736-5.292-2.151-10.592-1.529-15.9s3.993-10.8,9.251-11.746c7.973-1.437,13.988,7.682,21.939,9.231,5.767,1.124,11.6-2,15.8-6.1,3.451-3.368,6.169-7.4,9.256-11.1C585.291,379.206,583.352,368.441,576.086,363Z" transform="translate(-404.331 -216.751)" fill="#f4c157"/>
            <path id="Trazado_1178777" data-name="Trazado 1178777" d="M558.045,323.711a82.737,82.737,0,0,1,12.423.773c-4.3-6.794-4.971-14.066-6.157-21.9-1.7-11.216-12.09-16.96-22.019-16.275a1.912,1.912,0,0,0,.168-1.133c-.8-5.72-3.986-12.244-6.343-17.513a43.8,43.8,0,0,0-4.65-8.441c-.658.576-1.318,1.153-1.965,1.74-2.631,2.388-5.242,4.9-8.45,6.428-7.983,3.8-17.328.658-26.155.166-14.68-.819-28.731,5.953-40.993,14.064s-23.612,17.782-36.937,24a66.6,66.6,0,0,1-7.69,3.024c-2.065,7.3.353,15.16,4.616,21.833a1.875,1.875,0,0,0,.406.433c-7.3,9.39-6.1,24.157-6.695,35.717a65.022,65.022,0,0,0,.244,10.425c14.467,3.066,29.9,5.237,42.836-1.55,7.179-3.768,12.757-9.934,19.237-14.809s14.826-8.562,22.582-6.2c3.663,1.117,6.874,3.5,10.607,4.354,7.268,1.661,14.595-2.885,19.54-8.463s8.5-12.349,13.909-17.48A33.985,33.985,0,0,1,558.045,323.711Z" transform="translate(-404.707 -211.236)" fill="#ec884d"/>
            <g id="Grupo_1227942" data-name="Grupo 1227942" transform="translate(9.201 0.002)">
              <path id="Trazado_1178778" data-name="Trazado 1178778" d="M537.153,630.428a31.741,31.741,0,0,0,3.019-2.589A34.857,34.857,0,0,0,537.153,630.428Z" transform="translate(-429.292 -254.978)" fill="#fff"/>
              <path id="Trazado_1178779" data-name="Trazado 1178779" d="M597.8,423.206c-5.166-6.057-1.867-19.47-3.717-27.076-1.751-7.2-6.2-13.384-11.551-18.332,4.3-8.668,2.68-20.865-5.212-26.773a1.1,1.1,0,0,0-.187-.09,25.5,25.5,0,0,0,2.21-19.618c-1.267-4.488-4.791-8.568-7.39-12.333-4.879-7.068-5.54-14.658-6.783-22.86-1.7-11.216-12.09-16.961-22.019-16.275a1.912,1.912,0,0,0,.168-1.133c-.8-5.72-3.986-12.244-6.343-17.513-2.108-4.713-4.575-9.689-8.984-12.687a25.868,25.868,0,0,0-13.574-4.537,3.1,3.1,0,0,0-.041-.4c-1.92-9.678-8.867-17.564-17.279-22.416-5.788-3.338-13.856-3.319-21.466-2.317-12.645-15.971-51.811-20.6-60.864-1.9,15.034-8.005,42.285-2.5,52.438,10.329,7.611-1,15.678-1.021,21.466,2.317,8.412,4.852,15.359,12.738,17.28,22.416a3.081,3.081,0,0,1,.041.4,25.867,25.867,0,0,1,13.574,4.537c4.409,3,6.876,7.973,8.984,12.687,2.357,5.269,5.544,11.793,6.343,17.513a1.915,1.915,0,0,1-.168,1.133c9.929-.686,20.32,5.059,22.019,16.275,1.243,8.2,1.9,15.792,6.783,22.86,2.6,3.765,6.124,7.845,7.39,12.333a25.5,25.5,0,0,1-2.21,19.618,1.042,1.042,0,0,1,.188.09c7.893,5.909,9.516,18.105,5.212,26.773,5.355,4.949,9.8,11.132,11.551,18.332,1.85,7.606-1.449,21.02,3.717,27.077,6.607,7.746,5.378,20.785-2.491,26.944a15.859,15.859,0,0,1,.368,2.477c.42,6.628-1.5,12.094-4.143,18.1-4.772,10.857-3.6,18.843-3.557,30.07.039,10.335-3.76,19.645-12.536,25.452a9.077,9.077,0,0,1,.064,2.06,14.477,14.477,0,0,1-2.135,6.221c5.2-3.706,10-8.464,10.561-14.648a9.03,9.03,0,0,0-.065-2.06c8.776-5.807,12.574-15.116,12.536-25.452-.041-11.227-1.214-19.213,3.557-30.07,2.639-6,4.563-11.469,4.142-18.1a15.844,15.844,0,0,0-.368-2.477C603.182,443.991,604.411,430.952,597.8,423.206Z" transform="translate(-414.77 -204.778)" fill="#fff"/>
              <path id="Trazado_1178780" data-name="Trazado 1178780" d="M568.335,601.984a2.026,2.026,0,0,1-.916.272,21.355,21.355,0,0,1-2.241,4.971,28.813,28.813,0,0,0,8.588-8.69C571.932,599.81,570.067,600.954,568.335,601.984Z" transform="translate(-432.618 -251.501)" fill="#fff"/>
            </g>
            <g id="Grupo_1227944" data-name="Grupo 1227944">
              <g id="Grupo_1227943" data-name="Grupo 1227943">
                <path id="Trazado_1178781" data-name="Trazado 1178781" d="M432.689,242.181c-4.208,3.668-4.778,9.9-3.153,14.911a.752.752,0,0,0,1.449-.4,11.949,11.949,0,0,1,4.992-11.729c3.122-2.227,7.039-1.69,10.62-2.173,1.681-.227,1.438-2.41.415-3.173C442.571,236.316,436.425,238.926,432.689,242.181Z" transform="translate(-407.222 -208.728)" fill="#823b28"/>
                <path id="Trazado_1178782" data-name="Trazado 1178782" d="M455.643,228.092a17.593,17.593,0,0,0-17.2-1.467c-1.309.57-.324,2.425.918,2.179a15.214,15.214,0,0,1,14.168,4.052c3.044,2.991,2.882,7.038,4.628,10.579,1,2.018,3.768,1.229,4.4-.576C464.412,237.62,459.856,230.937,455.643,228.092Z" transform="translate(-408.305 -207.181)" fill="#823b28"/>
                <path id="Trazado_1178783" data-name="Trazado 1178783" d="M481.592,250.071c8.122-.834,14.37,3.749,18.046,10.694,3.375,6.376.894,12.857,2.115,19.366.3,1.583,2.416,1.561,3.173.414,2.939-4.452,2.6-10.754.806-16.369,11.722,4.037,15.108,13.428,14.7,25.762-.232,7.048,0,13.582,4.726,19.129,1.617,1.9,4.338-.518,3.3-2.544-5.324-10.348.085-22.319-5.154-32.358-3.874-7.422-10.284-12.315-18.663-12.923a29.156,29.156,0,0,0-3.18-5.685c-4.521-6.177-12.821-8.85-20.1-7.216C480.4,248.555,480.6,250.172,481.592,250.071Z" transform="translate(-413.397 -209.889)" fill="#823b28"/>
                <path id="Trazado_1178784" data-name="Trazado 1178784" d="M468.929,280.02c8.649-.129,20.325-.535,20.845,11,.353,7.839-2.486,15.549-1.857,23.443a2.343,2.343,0,0,0,4.58.62A44.889,44.889,0,0,0,494,307.624a14.867,14.867,0,0,0,13.9,2.334c1.545-.5,1.363-3.089-.4-2.952-4.965.384-8.993-.972-13.1-3,.169-1.827.315-3.657.492-5.478.53-5.433.935-10.253-1.647-15.2-4.49-8.6-16.873-8.31-24.692-6.111A1.431,1.431,0,0,0,468.929,280.02Z" transform="translate(-411.831 -213.217)" fill="#823b28"/>
                <path id="Trazado_1178785" data-name="Trazado 1178785" d="M431.359,352.148c-7.623,7.955-20.347,30.609-7.268,39.283,1.755,1.164,3.892-1.106,2.836-2.835-7.268-11.9-.1-24.253,6.427-34.909A1.275,1.275,0,0,0,431.359,352.148Z" transform="translate(-406.005 -222.218)" fill="#823b28"/>
                <path id="Trazado_1178786" data-name="Trazado 1178786" d="M455.905,348.627a23.574,23.574,0,0,0-3.047-7.464c.508-3.572.814-7.078,2.3-10.57,2.128-4.983,5.983-8.823,10.031-12.291,1.063-.91-.068-2.986-1.412-2.425-7.207,3.009-14.063,12.2-14.487,20.871-4.349-4.23-10.259-6.6-16.5-5.292-1.5.314-1.1,2.571.352,2.6,22.207.385,19.875,26.337,13.613,40.239-3.168,7.032-5.788,14.011-3.737,21.662a2.342,2.342,0,0,0,4.58-.62C447.564,378.495,459.633,365.891,455.905,348.627Z" transform="translate(-407.596 -217.947)" fill="#823b28"/>
                <path id="Trazado_1178787" data-name="Trazado 1178787" d="M532.788,520.825c6.766-12.888-3.579-26.86-15.368-31.891-14.727-6.287-31.011,1.42-40.295,13.133a1.245,1.245,0,0,0,1.759,1.759c9.794-7.753,20.467-13.005,33.263-10.641,13.866,2.561,17.119,14.586,16.489,26.517A2.242,2.242,0,0,0,532.788,520.825Z" transform="translate(-412.93 -238.227)" fill="#823b28"/>
                <path id="Trazado_1178788" data-name="Trazado 1178788" d="M524.026,594.97c-11.7-8.312-26.456,3.462-27.471,15.76-.117,1.422,2.091,1.66,2.443.331a19.02,19.02,0,0,1,9.031-11.87c4.572-2.742,9.714-1.676,14.64-1A1.771,1.771,0,0,0,524.026,594.97Z" transform="translate(-415.273 -250.745)" fill="#823b28"/>
                <path id="Trazado_1178789" data-name="Trazado 1178789" d="M547.376,543.415c-6.8-2.763-13.216-1.282-19.55,2.024a22.331,22.331,0,0,0-7.4,7.176c-7.124,10.41-14.613,9.734-22.028,3.223,5.346-2.362,9.577-8.328,9.739-14.025.386-13.6-14.98-29.461-27.487-17.481-1.463,1.4.5,4.065,2.2,2.849,14.28-10.219,28.964,16.959,11.843,23.692-4.912,1.931-11.05-1.04-16.332.113-3.576.781-4.632,3.874-6.88,6.183a2.3,2.3,0,0,0,2.218,3.811c2.891-.646,3.538-3.172,6.231-4.3,4.1-1.718,10.039.608,14.93.1,3.992,5.462,11.051,11.516,18.163,9.014,4.5-1.584,7-3.75,9.936-7.55,6.717-8.694,12.995-11.425,23.864-10.709C549.378,547.706,549.4,544.235,547.376,543.415Z" transform="translate(-412.219 -242.191)" fill="#823b28"/>
                <path id="Trazado_1178790" data-name="Trazado 1178790" d="M568.776,533.948c-1.268.687-.366,2.492.939,2.225,12.177-2.5,29.105-21.584,20.571-34.255a1.854,1.854,0,0,0-3.428.929c-.365,6.861.653,12.088-3.446,18.293C579.993,526.317,574.132,531.042,568.776,533.948Z" transform="translate(-423.771 -239.931)" fill="#823b28"/>
                <path id="Trazado_1178791" data-name="Trazado 1178791" d="M583.585,440.308c-7.489-2.047-14.317-4.134-20.86-8.53-1.6-1.076-3.3,1.287-2.009,2.6a35.13,35.13,0,0,0,15.435,9.469c7.581,2.471,7.339,13.291,1.047,17.562a46.044,46.044,0,0,0-7.834,6.485c-4.156,4.372-4.827,11.415-5.955,17-2.041,10.1-8.122,15.944-15.321,22.569-.647.595.022,1.834.882,1.516,7.622-2.826,12.76-9.087,16.536-16.107,2.184-4.06,3.07-8.863,4.308-13.261,2.7-9.6,9.961-11.072,16.032-17.415,5.066-5.292,7.2-10.464,4.247-17.353C589.2,442.769,585.585,440.854,583.585,440.308Z" transform="translate(-421.358 -231.679)" fill="#823b28"/>
                <path id="Trazado_1178792" data-name="Trazado 1178792" d="M555.587,449.982c.8.52,1.452-.579.942-1.221-5.788-7.282-11.536-13.679-15-22.482-2.97-7.537-4.008-16.44,6.248-19.879,4.523-1.517,9.29,5.144,11.773,7.9,7.18,7.957,18.831,10.341,28.273,4.78a2.008,2.008,0,0,0-1.007-3.717c-5.585-.076-10.67,1.58-16.332.364s-10.207-8.461-14.56-11.924c-5.894-4.692-12.435-1.942-17.559,2.541C524.961,418.056,545.935,443.695,555.587,449.982Z" transform="translate(-419.719 -228.102)" fill="#823b28"/>
                <path id="Trazado_1178793" data-name="Trazado 1178793" d="M528.816,368.677c-7.738,1.113-14.118-.513-19.559-6.821a50.022,50.022,0,0,0-8.955-8.2,23.011,23.011,0,0,0-20.721-2.742,1.141,1.141,0,0,0,.606,2.2c16.383-2.3,21.9,9.489,31.191,19.63,4.778,5.213,13.933,2.361,18.955-.469C532.431,371.095,530.887,368.379,528.816,368.677Z" transform="translate(-413.163 -221.963)" fill="#823b28"/>
                <path id="Trazado_1178794" data-name="Trazado 1178794" d="M525.926,329.468a.933.933,0,0,0,0,1.866c3.776.389,4.928,6.279,5.685,9.1.854,3.183.726,6.514,1.626,9.675.433,1.519,2.922,1.7,3.248,0,.873-4.55-.761-9.511-2.675-13.628C532.248,333.122,530.168,329.2,525.926,329.468Z" transform="translate(-418.652 -219.57)" fill="#823b28"/>
                <path id="Trazado_1178795" data-name="Trazado 1178795" d="M557.984,335.243c.7,7.478-5.954,12.794-5.191,20.179.274,2.655,4.035,3.48,4.835.654,2.778-9.813,6.465-15.931,4.264-25.931,8.352,5.263,11.664,12.366,12.466,22.283.189,2.334,3.572,3.033,4.224.572,2.878-10.861-6.1-23.664-16.932-25.689a1.26,1.26,0,0,0-.489.011c-1.972-6.978-4.734-14.018-11.186-17.842a.937.937,0,0,0-1.131,1.465C555.272,316.888,557.2,326.839,557.984,335.243Z" transform="translate(-421.445 -217.184)" fill="#823b28"/>
                <path id="Trazado_1178796" data-name="Trazado 1178796" d="M478.5,378.721c-11.693,9.871-9.4,24-2.038,35.67,4.312,6.834,6.218,12.43,13.544,16.408a72.221,72.221,0,0,0,27.3,7.762c2.56.191,2.574-3.3.558-4.121-11.587-4.7-27.213-4.8-34.133-16.756l-.392-.675c5.463,2.121,11.486-.938,15.7-4.434a17.446,17.446,0,0,0,3.452-3.961,18.891,18.891,0,0,1,9.695,1.823c1.329.606,2.908-1.042,1.664-2.157a12.548,12.548,0,0,0-9.635-2.889,27.722,27.722,0,0,0,1.921-13.838c-.247-2.074-3.508-2.971-3.97-.538-.981,5.174-1.885,10.455-4.524,15.076-3.364,5.893-8.423,7.29-14.584,8.469a1.061,1.061,0,0,0-.766.652c-6.832-11.771-12.13-21.671-2-34.7A1.27,1.27,0,0,0,478.5,378.721Z" transform="translate(-412.162 -225.373)" fill="#823b28"/>
                <path id="Trazado_1178797" data-name="Trazado 1178797" d="M479.923,474.32a2,2,0,0,0-.531-3.919c-7.856-.673-13.654-2.262-19.252-7.714,2.778-10.683-3.913-26.559-7.234-34.322-.167-.39-.757-.1-.663.279a130.276,130.276,0,0,1,3.17,19.651c.74,8.278-1.974,13.537-5.593,20.6a2.063,2.063,0,0,0,2.8,2.8,12.646,12.646,0,0,0,6.187-5.573C463.362,472.572,472.392,476.784,479.923,474.32Z" transform="translate(-409.697 -231.284)" fill="#823b28"/>
                <path id="Trazado_1178798" data-name="Trazado 1178798" d="M545.177,463.72a21.944,21.944,0,0,0-9.092-15.311c-1.39-.99-3.114,1.257-1.821,2.361a18.938,18.938,0,0,1,6.7,13.519c.359,4.89-2.386,8.368-3.428,12.863A1.829,1.829,0,0,0,540.2,479.2C545.116,476.21,545.928,468.958,545.177,463.72Z" transform="translate(-419.694 -233.656)" fill="#823b28"/>
                <path id="Trazado_1178799" data-name="Trazado 1178799" d="M578.386,372.339c.754,4.863,1.9,9.69,2.849,14.524,1.067,5.441-5.228,9.023-8.791,12.373-1.23,1.157.041,3.7,1.74,2.989,5.12-2.135,10.168-5.611,12.123-11.028.768-2.128-.9-5.607-1.444-7.519a104.094,104.094,0,0,0-4.2-12.3C580.06,369.977,578.189,371.071,578.386,372.339Z" transform="translate(-424.221 -224.467)" fill="#823b28"/>
                <path id="Trazado_1178800" data-name="Trazado 1178800" d="M596.565,423.206c-5.166-6.057-1.867-19.47-3.717-27.076-1.751-7.2-6.2-13.384-11.551-18.332,4.3-8.668,2.68-20.865-5.212-26.773a1.1,1.1,0,0,0-.187-.09,25.5,25.5,0,0,0,2.21-19.618c-1.267-4.488-4.791-8.568-7.39-12.333-4.879-7.068-5.54-14.658-6.783-22.86-1.7-11.216-12.09-16.961-22.019-16.275a1.912,1.912,0,0,0,.168-1.133c-.8-5.72-3.986-12.244-6.343-17.513-2.108-4.713-4.575-9.689-8.984-12.687a25.868,25.868,0,0,0-13.574-4.537,3.086,3.086,0,0,0-.041-.4c-1.92-9.678-8.867-17.564-17.28-22.416-5.788-3.338-13.856-3.319-21.466-2.317-15.222-19.225-68.877-22.023-62.173,12.528-7.921,7.609-6.557,22.3.813,30.552a1.35,1.35,0,0,0-.353,1.23c1.608,8.774,1.991,15.069-1.95,23.235-1.792,3.714-3.152,7.411-1.97,11.467a2.1,2.1,0,0,0,1.249,1.341c-3.809,8.1-1.342,17.221,3.507,24.812a1.877,1.877,0,0,0,.406.433c-7.3,9.39-6.1,24.157-6.695,35.717-.591,11.4,1.306,22.256,8.066,30.316,1.89,17.624-12.081,31.616-10.893,49.078a11.258,11.258,0,0,0,6.632,9.725c-4.687,10.6-2.378,22.2,3.376,31.26-9.075,14.1-14.273,44.35,3.614,51.954-2.848,3.207-4.166,7.932-4.468,12.121-.593,8.268,6.1,17.675,13.787,19.448a2,2,0,0,0-.026.543c2.03,14.477,11.373,27.972,27.22,29.151,8.944.665,14.859-2.655,17.842-8.234,8.694,3.5,20.018,7.647,28.9,2.9a10.449,10.449,0,0,0,4.628-5.675c8.766,3.57,15.8-1.487,22.019-8.922,8.52-10.18,24.492-12.519,28.837-26.721a2.026,2.026,0,0,0,.916-.272c6.853-4.08,15.817-9.934,16.6-18.527a9.034,9.034,0,0,0-.065-2.06c8.776-5.807,12.574-15.116,12.536-25.452-.041-11.227-1.214-19.213,3.557-30.07,2.639-6,4.563-11.469,4.142-18.1a15.837,15.837,0,0,0-.368-2.477C601.943,443.991,603.173,430.952,596.565,423.206Zm-5.083,21.554c-8.1-9.648-29.535-3.447-24.358,12.273a1.926,1.926,0,0,0,3.766-.509q-.867-9.69,11.287-11.284c11.845,1.911,5.258,17.588,3.112,22.555-2.166,5.012-4.5,10.037-4.887,15.581a66.017,66.017,0,0,0,.852,14.668c1.578,10.5-.9,17.923-7.917,25.435-2.811-5.408-11.174-7.711-16.536-7.926-1.331-.053-1.339,1.7-.289,2.137,3.416,1.422,6.876,2.415,9.759,4.842,5.019,4.226,1.414,9.392-2.521,12.349-2.005,1.505-4.262,2.818-6.074,4.489-.41-6.555-3.919-12.623-11.659-13.336-5.673-.523-9.64,1.155-13.716,5-4.945,4.662-3.229,17.778-9.156,20.466-1.89.858-.911,3.876,1.033,3.814,3.931-.126,7.57-1.816,8.308-6.372.68-4.2.533-8.621,2.427-12.552q10.5-12.291,17.95,3.933a19.751,19.751,0,0,1-3.68,9.9c-4.98,8.118-14.443,10.282-21.268,16.136-8.276,7.1-9.958,14.658-21.991,13.01-.725-2.444-1.979-4.632-2.3-7.2-.449-3.6,1.072-6.74,2.427-9.944.67-1.582-.835-3.814-2.623-2.624-5.529,3.679-6.6,10.558-4.891,16.648.606,2.165,2.811,4.268.746,6.839-2.276,2.834-6.7,2.845-9.931,2.728-5.36-.195-10.617-1.968-15.968-2.51,1.5-4.112,1.687-9.145.574-14.587-.479-2.346-3.833-1.631-3.97.537a64.327,64.327,0,0,1-1.456,11.058c-1.96,8.205-11.374,8.3-17.881,6.925-11.672-2.47-16.991-12.39-19.61-22.923a11.978,11.978,0,0,0,7.494-4.059c1.66-1.784-.464-4.72-2.638-3.419-11.12,6.661-18.474-5.34-16.864-15.419,2.038-12.754,21.38-8.352,29.777-6.7a1.089,1.089,0,0,0,.578-2.1c-7.741-2.693-16.793-5.188-25.029-3.72a10.745,10.745,0,0,0-3.569,1.31,1.983,1.983,0,0,0-.319-.656c-6.48-8.329-9.088-13.955-9.169-24.762-.056-7.551,2.4-14.462,5.178-21.283,7.381,9.607,18.713,15.408,28.8,12.152,1.191,2.483,3.908,4.621,5.827,6.1a17.086,17.086,0,0,0,12.65,3.561c1.973-.25,2.81-3.267.509-3.765A34.021,34.021,0,0,1,454.477,498c-1.868-1.08-3.21-2.929-4.705-4.464,3.682-2.355,7.067-6.145,9.849-11.705.974-1.945-1.531-4.168-3.133-2.417-3.429,3.746-6.515,7.367-10.786,10.218-7.605,5.076-16.1-.069-22.041-5.025a29.057,29.057,0,0,1-5.27-5.757,1.127,1.127,0,0,0-.943-1.418c-4.812-7.9-5.4-17.606-2.868-26.83a28.113,28.113,0,0,0,13.6-.084,1.952,1.952,0,0,0-.516-3.817c-6.932-.049-17.2-.136-18.03-10.285-.532-6.512,3.21-14.266,5.36-20.273,2.69-7.509,4.288-14.705,3.489-22.375a33.951,33.951,0,0,0,7.828,5.114c2.219,1.06,4.786-1.732,2.763-3.581-10.382-9.491-16.843-16.24-17.1-31.158-.244-14.237-3.293-34.036,10.444-43a1.452,1.452,0,0,0-1.465-2.507,21.45,21.45,0,0,0-4.283,2.938c-3.124-10.04-7.1-20.006,4.564-26.572,8.622-4.855,17.675-8.78,25.77-14.556a1.089,1.089,0,0,0-1.1-1.879c-6.987,3.23-13.738,6.944-20.73,10.179-3.318,1.535-8.005,2.724-11.23,5.22,1.259-4.474,2.878-8.79,3.954-13.344,1.218-5.164-.146-10.867-1.831-15.912.028.021.053.046.081.067,6.5,4.681,13.25,4.123,20.852,2.8,9.469-1.645,15.592-14.38,23.482-19.115a1.244,1.244,0,0,0-1.255-2.148c-9.009,4.759-15.437,16.512-26.1,17.517-19.263,1.812-28.023-19.352-14.148-32.4,1.708-1.607-.455-3.933-2.355-3.052a16.457,16.457,0,0,0-2.222,1.266c.449-30,38.258-22.6,55.6-10.109-2.9.513-5.636,1.106-8.052,1.636-1.065.234-.771,1.792.248,1.832,8.1.316,16.165.461,24.258,1.029,10.655.747,18.613,11.067,21.5,20.49a17.293,17.293,0,0,0-6.311,2.968.885.885,0,0,0,.679,1.609c8.5-1.967,16.352-1.66,23.161,4.46,7.3,6.561,7.922,18.807,13.625,26.421a2.447,2.447,0,0,0,.184.212,19.868,19.868,0,0,0-11.944,6.955c-.738.916.218,2.508,1.35,1.75,7.456-4.987,14.88-6.427,23-1.939,9.125,5.046,7.394,16.676,9.792,25.211,1.584,5.638,5.36,10.46,8.6,15.209,6.882,10.09,2.063,17.171-1.155,26.961a1.877,1.877,0,0,0,3.118,1.815,26.23,26.23,0,0,0,2.373-2.885c3.091,5.179,5.063,9.788,4.11,16.01-.984,6.421-5.857,9.962-10.29,13.99-1.685,1.532.086,4.208,2.143,3.681a16.315,16.315,0,0,0,9.2-6.269,39.623,39.623,0,0,1,8.641,16.734c1.714,6.662-1.057,12.277-.634,18.69.25,3.8.169,5.593,2.722,8.656C596.2,431.823,595.405,438.052,591.482,444.76Z" transform="translate(-404.331 -204.775)" fill="#823b28"/>
              </g>
            </g>
          </g>
          <g id="Grupo_1227948" data-name="Grupo 1227948">
            <path id="Trazado_1178801" data-name="Trazado 1178801" d="M183.437,423.206c5.166-6.057,1.867-19.47,3.717-27.076,1.751-7.2,6.2-13.384,11.551-18.332-4.3-8.668-2.68-20.865,5.212-26.773a1.1,1.1,0,0,1,.188-.09,25.5,25.5,0,0,1-2.21-19.618c1.266-4.488,4.791-8.568,7.39-12.333,4.879-7.068,5.54-14.658,6.783-22.86,1.7-11.216,12.089-16.961,22.019-16.275a1.905,1.905,0,0,1-.168-1.133c.8-5.72,3.987-12.244,6.343-17.513,2.108-4.713,4.575-9.689,8.984-12.687a25.868,25.868,0,0,1,13.574-4.537,3.1,3.1,0,0,1,.041-.4c1.92-9.678,8.867-17.564,17.28-22.416,5.788-3.338,13.856-3.319,21.466-2.317,15.222-19.225,68.877-22.023,62.173,12.528,7.92,7.609,6.557,22.3-.813,30.552a1.35,1.35,0,0,1,.353,1.23c-1.608,8.774-1.992,15.069,1.95,23.235,1.792,3.714,3.152,7.411,1.97,11.467a2.1,2.1,0,0,1-1.249,1.341c3.809,8.1,1.342,17.221-3.507,24.812a1.876,1.876,0,0,1-.406.433c7.3,9.39,6.1,24.157,6.695,35.717.59,11.4-1.306,22.256-8.066,30.316-1.89,17.624,12.081,31.616,10.893,49.078a11.258,11.258,0,0,1-6.632,9.725c4.687,10.6,2.378,22.2-3.376,31.26,9.075,14.1,14.273,44.35-3.614,51.954,2.848,3.207,4.167,7.932,4.468,12.121.593,8.268-6.1,17.675-13.787,19.448a1.97,1.97,0,0,1,.026.543c-2.03,14.477-11.373,27.972-27.22,29.151-8.944.665-14.859-2.655-17.842-8.234-8.694,3.5-20.018,7.647-28.9,2.9a10.446,10.446,0,0,1-4.628-5.675c-8.766,3.57-15.8-1.487-22.019-8.922-8.52-10.18-24.492-12.519-28.837-26.721a2.026,2.026,0,0,1-.916-.272c-6.854-4.08-15.817-9.934-16.6-18.527a9.029,9.029,0,0,1,.065-2.06c-8.776-5.807-12.575-15.116-12.536-25.452.041-11.227,1.214-19.213-3.557-30.07-2.639-6-4.563-11.469-4.142-18.1a15.85,15.85,0,0,1,.368-2.477C178.058,443.991,176.828,430.952,183.437,423.206Z" transform="translate(-179.162 -204.775)" fill="#9fd6f0"/>
            <path id="Trazado_1178802" data-name="Trazado 1178802" d="M254.292,558.2c16.567-4.686,34.318-1.393,50.833,3.473,23,6.775,45,16.518,66.646,26.831-.588,7.658-6.747,15.617-13.759,17.233a1.971,1.971,0,0,1,.026.543c-2.03,14.477-11.373,27.972-27.22,29.151-8.944.665-14.858-2.655-17.842-8.234-8.694,3.5-20.018,7.647-28.9,2.9a10.446,10.446,0,0,1-4.628-5.675c-8.766,3.57-15.8-1.487-22.019-8.922-8.52-10.18-24.492-12.519-28.837-26.721a2.027,2.027,0,0,1-.916-.272c-1.088-.648-2.231-1.345-3.383-2.086C227.947,572.952,240.5,562.1,254.292,558.2Z" transform="translate(-184.518 -246.443)" fill="#416a89"/>
            <path id="Trazado_1178803" data-name="Trazado 1178803" d="M221.229,493.453c2.664,2.108,5.485,4.217,8.8,4.962,8.258,1.853,15.629-5.093,23.647-7.8,12.123-4.1,25.8,1.711,38.089-1.851,4.443-1.288,8.453-3.739,12.768-5.4,13.635-5.26,29.363-2.168,42.2,4.809,8.173,4.44,15.4,10.3,22.241,16.646a39.52,39.52,0,0,1-3.386,6.657c9.075,14.1,14.273,44.35-3.614,51.954,2.848,3.207,4.167,7.932,4.467,12.121.472,6.569-3.659,13.843-9.232,17.451a23.335,23.335,0,0,1-10.358-.857c-6.181-2.012-11.14-6.58-16.746-9.868a44.4,44.4,0,0,0-28.867-5.546c-3.531.537-7.073,1.507-10.617,1.073-4.118-.5-7.75-2.834-11.25-5.061-9.124-5.8-18.753-11.412-29.45-13s-22.78,1.728-28.829,10.691c-1.032,1.528-1.9,3.208-2.9,4.761-5.879-3.874-11.836-9.022-12.466-15.958a9.028,9.028,0,0,1,.065-2.06c-8.776-5.807-12.575-15.116-12.536-25.452.041-11.227,1.214-19.213-3.557-30.07-2.639-6-4.563-11.469-4.142-18.1a15.853,15.853,0,0,1,.368-2.477c-4.663-3.651-6.974-9.717-6.724-15.666a48.057,48.057,0,0,1,8.259,3.308C199.891,475.123,210.266,484.78,221.229,493.453Z" transform="translate(-179.165 -235.702)" fill="#4d7a9d"/>
            <path id="Trazado_1178804" data-name="Trazado 1178804" d="M255.705,391.975c12.141,1.976,23.029,8.383,33.727,14.455a657.965,657.965,0,0,0,68.854,34.355c5.246,2.212,10.615,4.4,15.784,6.9a37.511,37.511,0,0,1,1.528,12.77,11.259,11.259,0,0,1-6.632,9.725c4.687,10.6,2.378,22.2-3.376,31.26a48.214,48.214,0,0,1,4.366,8.857c-7.076.474-14.132,1.149-20.167,4.454a21.106,21.106,0,0,1-5.125,2.469c-5.555,1.3-10.333-3.8-13.881-8.269-9.133-11.5-19.993-22.862-34.248-26.39s-32.139,4.373-34.174,18.916c-.423,3.026-.466,6.694-3.088,8.263a8.266,8.266,0,0,1-4.654.7l-25.936-1.166c-3.046-.137-6.2-.3-8.917-1.682-4.57-2.321-6.849-7.472-8.585-12.295s-3.506-10.036-7.644-13.06-11.427-2.1-12.739,2.852c-.609,2.3.215,4.741-.025,7.109a7.486,7.486,0,0,1-.278,1.353c-.245-.634-.509-1.274-.795-1.927-2.639-6-4.563-11.469-4.142-18.1a15.85,15.85,0,0,1,.368-2.477c-7.869-6.159-9.1-19.2-2.491-26.944,5.166-6.057,1.867-19.47,3.717-27.076,1.751-7.2,6.2-13.384,11.551-18.332a23.785,23.785,0,0,1-1.1-17.788c10.778,3.678,21.591,8.182,32.748,9.518C238.763,391.433,247.342,390.614,255.705,391.975Z" transform="translate(-179.162 -225.675)" fill="#5789b0"/>
            <path id="Trazado_1178805" data-name="Trazado 1178805" d="M206.235,363a1.1,1.1,0,0,1,.188-.09,25.5,25.5,0,0,1-2.21-19.618c1.266-4.488,4.791-8.568,7.39-12.333,4.879-7.068,5.54-14.658,6.783-22.86a20.023,20.023,0,0,1,.42-2.045,61.6,61.6,0,0,1,10.265-.241c27.589,1.62,52.389,16.54,75.915,31.042l56.1,34.578c2.694,1.661,5.471,3.354,8.588,3.91,1.818.324,3.684.257,5.516.483.02,10.034-2.135,19.442-8.161,26.628-1.89,17.624,12.081,31.616,10.893,49.078a11.142,11.142,0,0,1-5.959,9.367,36.955,36.955,0,0,1-11.781-.766c-8.981-2-17.747-6-26.928-5.419-12.9.821-26.476,10.446-37.586,3.834-9.052-5.387-11.636-19.683-21.96-21.774-5.4-1.093-11.815,1.618-16.082-1.865-3.237-2.643-3.353-7.508-2.778-11.648.736-5.292,2.151-10.592,1.529-15.9s-3.993-10.8-9.251-11.746c-7.973-1.437-13.988,7.682-21.939,9.231-5.767,1.124-11.6-2-15.8-6.1-3.45-3.368-6.169-7.4-9.256-11.1C197.03,379.206,198.968,368.441,206.235,363Z" transform="translate(-181.481 -216.751)" fill="#639bc8"/>
            <path id="Trazado_1178806" data-name="Trazado 1178806" d="M226.472,323.711a82.737,82.737,0,0,0-12.423.773c4.3-6.794,4.97-14.066,6.157-21.9,1.7-11.216,12.089-16.96,22.019-16.275a1.906,1.906,0,0,1-.168-1.133c.8-5.72,3.987-12.244,6.343-17.513a43.8,43.8,0,0,1,4.65-8.441c.658.576,1.318,1.153,1.965,1.74,2.632,2.388,5.242,4.9,8.45,6.428,7.984,3.8,17.328.658,26.155.166,14.68-.819,28.731,5.953,40.993,14.064s23.613,17.782,36.937,24a66.6,66.6,0,0,0,7.69,3.024c2.064,7.3-.353,15.16-4.616,21.833a1.876,1.876,0,0,1-.406.433c7.3,9.39,6.1,24.157,6.695,35.717a64.915,64.915,0,0,1-.245,10.425c-14.467,3.066-29.9,5.237-42.836-1.55-7.179-3.768-12.757-9.934-19.236-14.809s-14.826-8.562-22.582-6.2c-3.663,1.117-6.874,3.5-10.607,4.354-7.268,1.661-14.6-2.885-19.54-8.463s-8.5-12.349-13.909-17.48A33.983,33.983,0,0,0,226.472,323.711Z" transform="translate(-183.302 -211.236)" fill="#58c3ec"/>
            <g id="Grupo_1227946" data-name="Grupo 1227946" transform="translate(0.001 0.002)">
              <path id="Trazado_1178807" data-name="Trazado 1178807" d="M268.9,630.428a31.745,31.745,0,0,1-3.019-2.589A34.867,34.867,0,0,1,268.9,630.428Z" transform="translate(-189.453 -254.978)" fill="#fff"/>
              <path id="Trazado_1178808" data-name="Trazado 1178808" d="M183.437,423.206c5.166-6.057,1.867-19.47,3.717-27.076,1.751-7.2,6.2-13.384,11.551-18.332-4.3-8.668-2.68-20.865,5.212-26.773a1.1,1.1,0,0,1,.188-.09,25.5,25.5,0,0,1-2.21-19.618c1.266-4.488,4.791-8.568,7.39-12.333,4.879-7.068,5.54-14.658,6.783-22.86,1.7-11.216,12.089-16.961,22.019-16.275a1.905,1.905,0,0,1-.168-1.133c.8-5.72,3.987-12.244,6.343-17.513,2.108-4.713,4.575-9.689,8.984-12.687a25.867,25.867,0,0,1,13.574-4.537,3.1,3.1,0,0,1,.041-.4c1.92-9.678,8.867-17.564,17.28-22.416,5.788-3.338,13.856-3.319,21.466-2.317,12.645-15.971,51.81-20.6,60.864-1.9-15.034-8.005-42.285-2.5-52.438,10.329-7.611-1-15.678-1.021-21.466,2.317-8.412,4.852-15.359,12.738-17.28,22.416a3.076,3.076,0,0,0-.041.4,25.868,25.868,0,0,0-13.574,4.537c-4.409,3-6.876,7.973-8.984,12.687-2.357,5.269-5.544,11.793-6.343,17.513a1.922,1.922,0,0,0,.168,1.133c-9.929-.686-20.32,5.059-22.019,16.275-1.243,8.2-1.9,15.792-6.783,22.86-2.6,3.765-6.124,7.845-7.39,12.333a25.494,25.494,0,0,0,2.21,19.618,1.043,1.043,0,0,0-.188.09c-7.893,5.909-9.516,18.105-5.212,26.773-5.355,4.949-9.8,11.132-11.551,18.332-1.85,7.606,1.45,21.02-3.717,27.077-6.607,7.746-5.378,20.785,2.491,26.944a15.848,15.848,0,0,0-.368,2.477c-.42,6.628,1.5,12.094,4.143,18.1,4.772,10.857,3.6,18.843,3.557,30.07-.039,10.335,3.76,19.645,12.536,25.452a9.13,9.13,0,0,0-.065,2.06,14.478,14.478,0,0,0,2.135,6.221c-5.2-3.706-10-8.464-10.561-14.648a9.029,9.029,0,0,1,.065-2.06c-8.776-5.807-12.575-15.116-12.536-25.452.041-11.227,1.214-19.213-3.557-30.07-2.639-6-4.563-11.469-4.142-18.1a15.85,15.85,0,0,1,.368-2.477C178.058,443.991,176.828,430.952,183.437,423.206Z" transform="translate(-179.164 -204.778)" fill="#fff"/>
              <path id="Trazado_1178809" data-name="Trazado 1178809" d="M236.967,601.984a2.026,2.026,0,0,0,.916.272,21.356,21.356,0,0,0,2.241,4.971,28.813,28.813,0,0,1-8.588-8.69C233.371,599.81,235.236,600.954,236.967,601.984Z" transform="translate(-185.378 -251.501)" fill="#fff"/>
            </g>
            <g id="Grupo_1227947" data-name="Grupo 1227947" transform="translate(0.001 0.003)">
              <path id="Trazado_1178810" data-name="Trazado 1178810" d="M371.194,242.181c4.208,3.668,4.778,9.9,3.153,14.911a.752.752,0,0,1-1.449-.4,11.949,11.949,0,0,0-4.992-11.729c-3.121-2.227-7.038-1.69-10.62-2.173-1.681-.227-1.438-2.41-.414-3.173C361.313,236.316,367.458,238.926,371.194,242.181Z" transform="translate(-200.155 -208.731)" fill="#294a63"/>
              <path id="Trazado_1178811" data-name="Trazado 1178811" d="M347.427,228.092a17.593,17.593,0,0,1,17.2-1.467c1.309.57.324,2.425-.918,2.179a15.214,15.214,0,0,0-14.168,4.052c-3.044,2.991-2.882,7.038-4.628,10.579-1,2.018-3.768,1.229-4.4-.576C338.66,237.62,343.215,230.937,347.427,228.092Z" transform="translate(-198.259 -207.183)" fill="#294a63"/>
              <path id="Trazado_1178812" data-name="Trazado 1178812" d="M318.409,250.071c-8.122-.834-14.37,3.749-18.046,10.694-3.375,6.376-.894,12.857-2.115,19.366-.3,1.583-2.416,1.561-3.173.414-2.939-4.452-2.6-10.754-.806-16.369-11.722,4.037-15.108,13.428-14.7,25.762.232,7.048,0,13.582-4.726,19.129-1.617,1.9-4.338-.518-3.3-2.544,5.324-10.348-.085-22.319,5.154-32.358,3.874-7.422,10.284-12.315,18.663-12.923a29.2,29.2,0,0,1,3.18-5.685c4.521-6.177,12.821-8.85,20.1-7.216C319.6,248.555,319.405,250.172,318.409,250.071Z" transform="translate(-190.098 -209.891)" fill="#294a63"/>
              <path id="Trazado_1178813" data-name="Trazado 1178813" d="M331.955,280.02c-8.649-.129-20.325-.535-20.845,11-.353,7.839,2.486,15.549,1.857,23.443a2.343,2.343,0,0,1-4.58.62,44.983,44.983,0,0,1-1.506-7.463,14.867,14.867,0,0,1-13.9,2.334c-1.545-.5-1.363-3.089.4-2.952,4.965.384,8.993-.972,13.1-3-.169-1.827-.315-3.657-.492-5.478-.53-5.433-.935-10.253,1.647-15.2,4.49-8.6,16.872-8.31,24.692-6.111A1.431,1.431,0,0,1,331.955,280.02Z" transform="translate(-192.545 -213.219)" fill="#294a63"/>
              <path id="Trazado_1178814" data-name="Trazado 1178814" d="M373.068,352.148c7.623,7.955,20.347,30.609,7.268,39.283-1.755,1.164-3.892-1.106-2.836-2.835,7.268-11.9.1-24.253-6.427-34.909A1.275,1.275,0,0,1,373.068,352.148Z" transform="translate(-201.914 -222.221)" fill="#294a63"/>
              <path id="Trazado_1178815" data-name="Trazado 1178815" d="M346.008,348.627a23.552,23.552,0,0,1,3.047-7.464c-.508-3.572-.813-7.078-2.3-10.57-2.128-4.983-5.983-8.823-10.031-12.291-1.063-.91.068-2.986,1.412-2.425,7.207,3.009,14.063,12.2,14.487,20.871,4.349-4.23,10.259-6.6,16.5-5.292,1.5.314,1.1,2.571-.352,2.6-22.207.385-19.875,26.337-13.613,40.239,3.168,7.032,5.788,14.011,3.737,21.662a2.342,2.342,0,0,1-4.58-.62C354.349,378.495,342.28,365.891,346.008,348.627Z" transform="translate(-197.809 -217.95)" fill="#294a63"/>
              <path id="Trazado_1178816" data-name="Trazado 1178816" d="M265.843,520.825c-6.766-12.888,3.579-26.86,15.367-31.891,14.727-6.287,31.011,1.42,40.295,13.133a1.245,1.245,0,0,1-1.759,1.759c-9.794-7.753-20.467-13.005-33.263-10.641-13.866,2.561-17.118,14.586-16.489,26.517A2.241,2.241,0,0,1,265.843,520.825Z" transform="translate(-189.194 -238.229)" fill="#294a63"/>
              <path id="Trazado_1178817" data-name="Trazado 1178817" d="M278.62,594.97c11.7-8.312,26.456,3.462,27.471,15.76.117,1.422-2.091,1.66-2.443.331a19.02,19.02,0,0,0-9.031-11.87c-4.572-2.742-9.714-1.676-14.64-1A1.771,1.771,0,0,1,278.62,594.97Z" transform="translate(-190.865 -250.748)" fill="#294a63"/>
              <path id="Trazado_1178818" data-name="Trazado 1178818" d="M248.579,543.415c6.8-2.763,13.216-1.282,19.551,2.024a22.331,22.331,0,0,1,7.4,7.176c7.123,10.41,14.613,9.734,22.028,3.223-5.346-2.362-9.578-8.328-9.739-14.025-.386-13.6,14.979-29.461,27.487-17.481,1.463,1.4-.5,4.065-2.2,2.849-14.28-10.219-28.964,16.959-11.843,23.692,4.912,1.931,11.05-1.04,16.332.113,3.576.781,4.632,3.874,6.88,6.183a2.3,2.3,0,0,1-2.218,3.811c-2.891-.646-3.538-3.172-6.231-4.3-4.1-1.718-10.039.608-14.93.1-3.992,5.462-11.051,11.516-18.164,9.014-4.5-1.584-7-3.75-9.936-7.55-6.718-8.694-12.994-11.425-23.864-10.709C246.577,547.706,246.558,544.235,248.579,543.415Z" transform="translate(-187.229 -242.194)" fill="#294a63"/>
              <path id="Trazado_1178819" data-name="Trazado 1178819" d="M234.392,533.948c1.268.687.365,2.492-.939,2.225-12.177-2.5-29.105-21.584-20.571-34.255a1.854,1.854,0,0,1,3.428.929c.365,6.861-.653,12.088,3.446,18.293C223.176,526.317,229.037,531.042,234.392,533.948Z" transform="translate(-182.89 -239.933)" fill="#294a63"/>
              <path id="Trazado_1178820" data-name="Trazado 1178820" d="M217,440.308c7.489-2.047,14.316-4.134,20.86-8.53,1.6-1.076,3.3,1.287,2.009,2.6a35.135,35.135,0,0,1-15.435,9.469c-7.581,2.471-7.339,13.291-1.047,17.562a46.046,46.046,0,0,1,7.834,6.485c4.156,4.372,4.826,11.415,5.955,17,2.041,10.1,8.122,15.944,15.321,22.569.646.595-.022,1.834-.882,1.516-7.622-2.826-12.76-9.087-16.536-16.107-2.184-4.06-3.07-8.863-4.307-13.261-2.7-9.6-9.961-11.072-16.032-17.415-5.066-5.292-7.2-10.464-4.247-17.353C211.387,442.769,215,440.854,217,440.308Z" transform="translate(-182.722 -231.682)" fill="#294a63"/>
              <path id="Trazado_1178821" data-name="Trazado 1178821" d="M243.5,449.982c-.8.52-1.452-.579-.942-1.221,5.788-7.282,11.536-13.679,15-22.482,2.97-7.537,4.008-16.44-6.248-19.879-4.524-1.517-9.29,5.144-11.773,7.9-7.18,7.957-18.831,10.341-28.273,4.78a2.008,2.008,0,0,1,1.007-3.717c5.585-.076,10.67,1.58,16.332.364s10.207-8.461,14.56-11.924c5.894-4.692,12.435-1.942,17.559,2.541C274.124,418.056,253.15,443.695,243.5,449.982Z" transform="translate(-182.859 -228.104)" fill="#294a63"/>
              <path id="Trazado_1178822" data-name="Trazado 1178822" d="M270.566,368.677c7.738,1.113,14.118-.513,19.559-6.821a50.022,50.022,0,0,1,8.955-8.2,23.01,23.01,0,0,1,20.721-2.742,1.141,1.141,0,0,1-.606,2.2c-16.384-2.3-21.9,9.489-31.191,19.63-4.778,5.213-13.933,2.361-18.955-.469C266.95,371.095,268.494,368.379,270.566,368.677Z" transform="translate(-189.711 -221.965)" fill="#294a63"/>
              <path id="Trazado_1178823" data-name="Trazado 1178823" d="M278.958,329.468a.933.933,0,0,1,0,1.866c-3.777.389-4.928,6.279-5.686,9.1-.854,3.183-.726,6.514-1.626,9.675-.433,1.519-2.922,1.7-3.248,0-.873-4.55.761-9.511,2.675-13.628C272.635,333.122,274.716,329.2,278.958,329.468Z" transform="translate(-189.724 -219.572)" fill="#294a63"/>
              <path id="Trazado_1178824" data-name="Trazado 1178824" d="M244.36,335.243c-.7,7.478,5.955,12.794,5.191,20.179-.274,2.655-4.034,3.48-4.835.654-2.779-9.813-6.465-15.931-4.264-25.931-8.352,5.263-11.664,12.366-12.466,22.283-.189,2.334-3.572,3.033-4.224.572-2.878-10.861,6.1-23.664,16.932-25.689a1.26,1.26,0,0,1,.489.011c1.972-6.978,4.734-14.018,11.186-17.842a.937.937,0,0,1,1.131,1.465C247.072,316.888,245.142,326.839,244.36,335.243Z" transform="translate(-184.391 -217.187)" fill="#294a63"/>
              <path id="Trazado_1178825" data-name="Trazado 1178825" d="M321.369,378.721c11.693,9.871,9.4,24,2.038,35.67-4.311,6.834-6.218,12.43-13.544,16.408a72.221,72.221,0,0,1-27.3,7.762c-2.56.191-2.574-3.3-.558-4.121,11.587-4.7,27.213-4.8,34.133-16.756l.392-.675c-5.463,2.121-11.486-.938-15.7-4.434a17.445,17.445,0,0,1-3.452-3.961,18.893,18.893,0,0,0-9.695,1.823c-1.329.606-2.907-1.042-1.664-2.157a12.548,12.548,0,0,1,9.635-2.889,27.732,27.732,0,0,1-1.922-13.838c.247-2.074,3.509-2.971,3.97-.538.981,5.174,1.885,10.455,4.524,15.076,3.364,5.893,8.423,7.29,14.584,8.469a1.061,1.061,0,0,1,.766.652c6.832-11.771,12.13-21.671,2-34.7A1.271,1.271,0,0,1,321.369,378.721Z" transform="translate(-191.196 -225.376)" fill="#294a63"/>
              <path id="Trazado_1178826" data-name="Trazado 1178826" d="M322.255,474.32a2,2,0,0,1,.531-3.919c7.856-.673,13.654-2.262,19.252-7.714-2.778-10.683,3.913-26.559,7.235-34.322.167-.39.757-.1.663.279a130.284,130.284,0,0,0-3.17,19.651c-.74,8.278,1.974,13.537,5.593,20.6a2.063,2.063,0,0,1-2.8,2.8,12.642,12.642,0,0,1-6.187-5.573C338.816,472.572,329.786,476.784,322.255,474.32Z" transform="translate(-195.975 -231.287)" fill="#294a63"/>
              <path id="Trazado_1178827" data-name="Trazado 1178827" d="M259.717,463.72a21.942,21.942,0,0,1,9.093-15.311c1.39-.99,3.114,1.257,1.821,2.361a18.938,18.938,0,0,0-6.7,13.519c-.359,4.89,2.386,8.368,3.428,12.863a1.829,1.829,0,0,1-2.664,2.047C259.78,476.21,258.967,468.958,259.717,463.72Z" transform="translate(-188.694 -233.658)" fill="#294a63"/>
              <path id="Trazado_1178828" data-name="Trazado 1178828" d="M226.114,372.339c-.754,4.863-1.9,9.69-2.849,14.524-1.066,5.441,5.228,9.023,8.791,12.373,1.23,1.157-.041,3.7-1.74,2.989-5.12-2.135-10.168-5.611-12.123-11.028-.768-2.128.9-5.607,1.445-7.519a104.085,104.085,0,0,1,4.2-12.3C224.439,369.977,226.31,371.071,226.114,372.339Z" transform="translate(-183.771 -224.469)" fill="#294a63"/>
              <path id="Trazado_1178829" data-name="Trazado 1178829" d="M185.927,450.151a15.851,15.851,0,0,0-.368,2.477c-.42,6.628,1.5,12.094,4.142,18.1,4.772,10.857,3.6,18.843,3.557,30.07-.039,10.335,3.759,19.645,12.536,25.452a9.13,9.13,0,0,0-.065,2.06c.78,8.594,9.743,14.448,16.6,18.528a2.026,2.026,0,0,0,.916.272c4.344,14.2,20.317,16.541,28.837,26.721,6.222,7.435,13.254,12.492,22.019,8.922a10.446,10.446,0,0,0,4.628,5.675c8.879,4.748,20.2.6,28.9-2.9,2.983,5.58,8.9,8.9,17.842,8.234,15.847-1.179,25.19-14.675,27.22-29.151a2.006,2.006,0,0,0-.026-.543c7.691-1.772,14.38-11.18,13.787-19.448-.3-4.189-1.618-8.914-4.467-12.121,17.888-7.6,12.689-37.852,3.614-51.954,5.754-9.062,8.063-20.662,3.376-31.26a11.262,11.262,0,0,0,6.632-9.725c1.187-17.462-12.783-31.454-10.893-49.078,6.76-8.06,8.656-18.916,8.066-30.316-.6-11.561.6-26.327-6.695-35.717a1.893,1.893,0,0,0,.406-.433c4.849-7.592,7.317-16.713,3.507-24.812a2.109,2.109,0,0,0,1.249-1.341c1.183-4.056-.177-7.753-1.97-11.467-3.94-8.166-3.558-14.461-1.95-23.235a1.35,1.35,0,0,0-.353-1.23c7.37-8.256,8.732-22.944.813-30.552,6.7-34.551-46.952-31.753-62.173-12.528-7.611-1-15.678-1.021-21.466,2.317-8.412,4.852-15.359,12.738-17.28,22.416a3.077,3.077,0,0,0-.041.4,25.868,25.868,0,0,0-13.574,4.537c-4.409,3-6.877,7.973-8.984,12.687-2.356,5.269-5.544,11.793-6.343,17.513a1.922,1.922,0,0,0,.168,1.133c-9.929-.686-20.32,5.059-22.019,16.275-1.243,8.2-1.9,15.792-6.783,22.86-2.6,3.765-6.123,7.845-7.39,12.333a25.5,25.5,0,0,0,2.21,19.618,1.1,1.1,0,0,0-.188.09c-7.893,5.909-9.516,18.105-5.212,26.773-5.355,4.949-9.8,11.132-11.551,18.332-1.85,7.606,1.45,21.02-3.717,27.077C176.828,430.953,178.058,443.991,185.927,450.151Zm3.77-25.4c2.553-3.063,2.472-4.857,2.723-8.656.423-6.413-2.348-12.028-.634-18.69a39.617,39.617,0,0,1,8.641-16.734,16.323,16.323,0,0,0,9.2,6.269c2.056.527,3.828-2.15,2.143-3.681-4.434-4.029-9.305-7.569-10.29-13.99-.954-6.221,1.019-10.831,4.11-16.01a26.327,26.327,0,0,0,2.373,2.885,1.877,1.877,0,0,0,3.118-1.815c-3.219-9.79-8.038-16.871-1.155-26.961,3.238-4.749,7.015-9.571,8.6-15.209,2.4-8.535.665-20.165,9.792-25.211,8.116-4.488,15.541-3.048,23,1.939,1.133.758,2.088-.835,1.35-1.75a19.868,19.868,0,0,0-11.944-6.955,2.069,2.069,0,0,0,.184-.212c5.7-7.613,6.328-19.86,13.626-26.421,6.807-6.12,14.656-6.428,23.161-4.46a.885.885,0,0,0,.679-1.609,17.258,17.258,0,0,0-6.311-2.968c2.885-9.423,10.843-19.743,21.5-20.49,8.093-.568,16.155-.712,24.258-1.029,1.019-.04,1.312-1.6.248-1.832-2.416-.529-5.157-1.123-8.052-1.636,17.342-12.488,55.15-19.888,55.6,10.109a16.6,16.6,0,0,0-2.222-1.266c-1.9-.882-4.063,1.445-2.355,3.052,13.875,13.051,5.114,34.216-14.148,32.4-10.666-1-17.094-12.758-26.1-17.517a1.244,1.244,0,0,0-1.255,2.148c7.891,4.735,14.013,17.472,23.482,19.115,7.6,1.32,14.352,1.879,20.852-2.8.028-.02.053-.046.081-.067-1.685,5.045-3.049,10.748-1.831,15.912,1.074,4.555,2.694,8.871,3.954,13.344-3.225-2.5-7.912-3.686-11.23-5.22-6.992-3.235-13.743-6.948-20.73-10.179a1.089,1.089,0,0,0-1.1,1.879c8.093,5.775,17.146,9.7,25.77,14.556,11.662,6.566,7.689,16.531,4.564,26.571a21.414,21.414,0,0,0-4.283-2.937,1.452,1.452,0,0,0-1.465,2.507c13.737,8.967,10.688,28.766,10.444,43-.256,14.918-6.717,21.667-17.1,31.158-2.023,1.849.544,4.641,2.763,3.581a33.912,33.912,0,0,0,7.828-5.114c-.8,7.67.8,14.866,3.489,22.375,2.15,6.005,5.893,13.76,5.36,20.273-.829,10.15-11.1,10.235-18.03,10.285a1.952,1.952,0,0,0-.516,3.817,28.124,28.124,0,0,0,13.6.084c2.532,9.223,1.943,18.928-2.868,26.83a1.127,1.127,0,0,0-.943,1.418,29.056,29.056,0,0,1-5.27,5.757c-5.938,4.955-14.436,10.1-22.041,5.025-4.27-2.851-7.357-6.473-10.786-10.218-1.6-1.751-4.107.471-3.133,2.417,2.783,5.56,6.168,9.35,9.849,11.705-1.5,1.534-2.838,3.384-4.705,4.464a34.022,34.022,0,0,1-9.789,3.552c-2.3.5-1.464,3.515.509,3.765a17.085,17.085,0,0,0,12.65-3.561c1.92-1.477,4.637-3.614,5.827-6.1,10.085,3.256,21.416-2.544,28.8-12.152,2.775,6.822,5.233,13.732,5.178,21.283-.08,10.807-2.689,16.433-9.169,24.762a1.973,1.973,0,0,0-.319.656,10.746,10.746,0,0,0-3.569-1.31c-8.237-1.468-17.289,1.028-25.029,3.72a1.089,1.089,0,0,0,.578,2.1c8.4-1.655,27.74-6.057,29.777,6.7,1.61,10.08-5.744,22.08-16.864,15.419-2.173-1.3-4.3,1.636-2.638,3.419a11.98,11.98,0,0,0,7.494,4.059c-2.618,10.532-7.937,20.452-19.61,22.923-6.509,1.377-15.921,1.281-17.881-6.925a64.229,64.229,0,0,1-1.456-11.058c-.137-2.168-3.49-2.883-3.97-.537-1.113,5.442-.928,10.475.574,14.587-5.351.542-10.608,2.315-15.968,2.51-3.233.117-7.654.107-9.931-2.728-2.066-2.571.139-4.673.746-6.839,1.707-6.09.637-12.969-4.891-16.648-1.788-1.19-3.293,1.042-2.623,2.624,1.356,3.2,2.876,6.347,2.427,9.944-.321,2.573-1.575,4.762-2.3,7.2-12.033,1.647-13.715-5.911-21.991-13.01-6.825-5.855-16.287-8.018-21.268-16.136a19.755,19.755,0,0,1-3.68-9.9q7.447-16.225,17.95-3.933c1.894,3.931,1.748,8.357,2.427,12.552.738,4.557,4.377,6.246,8.307,6.372,1.944.063,2.923-2.957,1.033-3.814-5.927-2.688-4.212-15.8-9.156-20.466-4.077-3.844-8.043-5.521-13.716-5-7.74.714-11.249,6.781-11.659,13.336-1.813-1.67-4.07-2.983-6.075-4.489-3.934-2.956-7.54-8.123-2.521-12.349,2.882-2.427,6.343-3.42,9.758-4.842,1.05-.437,1.042-2.19-.289-2.137-5.362.215-13.724,2.518-16.536,7.926-7.015-7.512-9.5-14.934-7.918-25.435a66.069,66.069,0,0,0,.852-14.668c-.383-5.545-2.722-10.569-4.887-15.581-2.146-4.967-8.733-20.645,3.111-22.555q12.153,1.593,11.287,11.284a1.926,1.926,0,0,0,3.766.509c5.177-15.72-16.26-21.922-24.358-12.274C184.6,438.053,183.8,431.823,189.7,424.754Z" transform="translate(-179.164 -204.778)" fill="#294a63"/>
            </g>
          </g>
        </g>
        <rect id="Rectngulo_422823" data-name="Rectngulo 422823" width="95.171" height="20.991" transform="translate(451.098 96.066)" fill="none"/>
        <rect id="Rectngulo_422824" data-name="Rectngulo 422824" width="95.171" height="20.991" transform="translate(97.681 96.066)" fill="none"/>
        <rect id="Rectngulo_422825" data-name="Rectngulo 422825" width="95.171" height="20.991" transform="translate(521.681 172.718)" fill="none"/>
        <rect id="Rectngulo_422826" data-name="Rectngulo 422826" width="95.171" height="20.991" transform="translate(29.012 172.718)" fill="none"/>
        <rect id="Rectngulo_422827" data-name="Rectngulo 422827" width="95.171" height="20.991" transform="translate(553.481 266.018)" fill="none"/>
        <rect id="Rectngulo_422828" data-name="Rectngulo 422828" width="95.171" height="20.991" transform="translate(0 266.018)" fill="none"/>
        <rect id="Rectngulo_422829" data-name="Rectngulo 422829" width="95.171" height="20.991" transform="translate(539.504 372.386)" fill="none"/>
        <rect id="Rectngulo_422830" data-name="Rectngulo 422830" width="95.171" height="20.991" transform="translate(9.819 372.386)" fill="none"/>
        <rect id="Rectngulo_422831" data-name="Rectngulo 422831" width="95.171" height="20.991" transform="translate(491.963 462.614)" fill="none"/>
        <rect id="Rectngulo_422832" data-name="Rectngulo 422832" width="95.171" height="20.991" transform="translate(58.344 462.614)" fill="none"/>
        <rect id="Rectngulo_422833" data-name="Rectngulo 422833" width="95.171" height="20.991" transform="translate(416.576 533.357)" fill="none"/>
        <rect id="Rectngulo_422834" data-name="Rectngulo 422834" width="95.171" height="20.991" transform="translate(135.135 533.357)" fill="none"/>
      </g>
    </g>
    <g id="Grupo_1227956" data-name="Grupo 1227956" transform="translate(0 -8)">
      <g transform="matrix(1, 0, 0, 1, 475.67, 1148.88)" filter="url(#Elipse_12783)">
        <circle id="Elipse_12783-3" data-name="Elipse 12783" cx="30" cy="30" r="30" transform="translate(209.88 211.12)" fill="#fff"/>
      </g>
      <path id="Trazado_1182677" data-name="Trazado 1182677" d="M12.06,10.525V32H7.445V15.74a5.526,5.526,0,0,1-.9.637,9.3,9.3,0,0,1-1.106.542,9.875,9.875,0,0,1-1.216.41,8.88,8.88,0,0,1-1.245.242v-3.9a19.248,19.248,0,0,0,3.4-1.348,19.34,19.34,0,0,0,2.886-1.8Z" transform="translate(706.554 1371)" fill="#212429"/>
    </g>
    <g id="Grupo_1227957" data-name="Grupo 1227957" transform="translate(180 -8)">
      <g transform="matrix(1, 0, 0, 1, 295.67, 1148.88)" filter="url(#Elipse_12783-2)">
        <circle id="Elipse_12783-4" data-name="Elipse 12783" cx="30" cy="30" r="30" transform="translate(389.88 211.12)" fill="#fff"/>
      </g>
      <path id="Trazado_1182678" data-name="Trazado 1182678" d="M6.156,28.162h8.906V32H1.088V30.418a7.364,7.364,0,0,1,.542-2.893,9.6,9.6,0,0,1,1.362-2.3,11.817,11.817,0,0,1,1.794-1.8q.974-.784,1.853-1.414.923-.659,1.619-1.26A9.224,9.224,0,0,0,9.43,19.556a4.539,4.539,0,0,0,.71-1.2,3.572,3.572,0,0,0,.234-1.3,2.605,2.605,0,0,0-.762-2.036,3.386,3.386,0,0,0-2.329-.688A7.823,7.823,0,0,0,2.1,16.487V12.415A11.131,11.131,0,0,1,8.28,10.643a9.129,9.129,0,0,1,2.864.417,6.059,6.059,0,0,1,2.146,1.194,5.092,5.092,0,0,1,1.34,1.882,6.352,6.352,0,0,1,.461,2.468,6.96,6.96,0,0,1-.447,2.578,7.922,7.922,0,0,1-1.187,2.051,10.763,10.763,0,0,1-1.707,1.692q-.967.769-2.007,1.487-.7.5-1.355.989a12.845,12.845,0,0,0-1.15.967,5.248,5.248,0,0,0-.791.93A1.606,1.606,0,0,0,6.156,28.162Z" transform="translate(706.554 1371)" fill="#212429"/>
    </g>
  </g>
</svg>
