<svg xmlns="http://www.w3.org/2000/svg" xmlns:xlink="http://www.w3.org/1999/xlink" width="113" height="113" viewBox="0 0 113 113">
  <defs>
    <filter id="Trazado_982547" x="0" y="0" width="113" height="113" filterUnits="userSpaceOnUse">
      <feOffset dy="3" input="SourceAlpha"/>
      <feGaussianBlur stdDeviation="3" result="blur"/>
      <feFlood flood-opacity="0.161"/>
      <feComposite operator="in" in2="blur"/>
      <feComposite in="SourceGraphic"/>
    </filter>
  </defs>
  <g id="Grupo_1228247" data-name="Grupo 1228247" transform="translate(-272 -1934.544)">
    <g id="Grupo_1227859" data-name="Grupo 1227859" transform="translate(0 -6.331)">
      <g id="Grupo_1203498" data-name="Grupo 1203498" transform="translate(0 -197.72)">
        <g id="Grupo_1202589" data-name="Grupo 1202589" transform="translate(281 2144.596)">
          <g id="Grupo_1172010" data-name="Grupo 1172010" transform="translate(0)">
            <g id="Grupo_1171046" data-name="Grupo 1171046">
              <g id="Grupo_1148525" data-name="Grupo 1148525">
                <g transform="matrix(1, 0, 0, 1, -9, -6)" filter="url(#Trazado_982547)">
                  <g id="Trazado_982547-2" data-name="Trazado 982547" transform="translate(9 6)" fill="#ffe6ef">
                    <path d="M 47.5 93.5 C 41.28937149047852 93.5 35.26533508300781 92.28397369384766 29.59518623352051 89.88570404052734 C 24.11771965026855 87.56893157958984 19.19813346862793 84.25196075439453 14.97309303283691 80.02691650390625 C 10.74804019927979 75.80186462402344 7.431066513061523 70.88229370117188 5.114293098449707 65.40481567382812 C 2.716026782989502 59.73468017578125 1.5 53.71062850952148 1.5 47.5 C 1.5 41.28937149047852 2.716026782989502 35.26533508300781 5.114293098449707 29.59518623352051 C 7.431066513061523 24.11771965026855 10.74804019927979 19.19813346862793 14.97309303283691 14.97309303283691 C 19.19813346862793 10.74804019927979 24.11771965026855 7.431066513061523 29.59518623352051 5.114293098449707 C 35.26533508300781 2.716026782989502 41.28937149047852 1.5 47.5 1.5 C 53.71062850952148 1.5 59.73468017578125 2.716026782989502 65.40481567382812 5.114293098449707 C 70.88229370117188 7.431066513061523 75.80186462402344 10.74804019927979 80.02691650390625 14.97309303283691 C 84.25196075439453 19.19813346862793 87.56893157958984 24.11771965026855 89.88570404052734 29.59518623352051 C 92.28397369384766 35.26533508300781 93.5 41.28937149047852 93.5 47.5 C 93.5 53.71062850952148 92.28397369384766 59.73468017578125 89.88570404052734 65.40481567382812 C 87.56893157958984 70.88229370117188 84.25196075439453 75.80186462402344 80.02691650390625 80.02691650390625 C 75.80186462402344 84.25196075439453 70.88229370117188 87.56893157958984 65.40481567382812 89.88570404052734 C 59.73468017578125 92.28397369384766 53.71062850952148 93.5 47.5 93.5 Z" stroke="none"/>
                    <path d="M 47.5 3 C 41.49121475219727 3 35.66376876831055 4.176155090332031 30.17950439453125 6.495796203613281 C 24.88084411621094 8.736953735351562 20.12152099609375 11.94598388671875 16.03375244140625 16.03375244140625 C 11.94598388671875 20.12152099609375 8.736953735351562 24.88084411621094 6.495796203613281 30.17950439453125 C 4.176155090332031 35.66376876831055 3 41.49121475219727 3 47.5 C 3 53.50878524780273 4.176155090332031 59.33623123168945 6.495796203613281 64.82049560546875 C 8.736953735351562 70.11915588378906 11.94598388671875 74.87847900390625 16.03375244140625 78.96624755859375 C 20.12152099609375 83.05401611328125 24.88084411621094 86.26304626464844 30.17950439453125 88.50419616699219 C 35.66376876831055 90.82384490966797 41.49121475219727 92 47.5 92 C 53.50878524780273 92 59.33623123168945 90.82384490966797 64.82049560546875 88.50419616699219 C 70.11915588378906 86.26304626464844 74.87847900390625 83.05401611328125 78.96624755859375 78.96624755859375 C 83.05401611328125 74.87847900390625 86.26304626464844 70.11915588378906 88.50419616699219 64.82049560546875 C 90.82384490966797 59.33623123168945 92 53.50878524780273 92 47.5 C 92 41.49121475219727 90.82384490966797 35.66376876831055 88.50419616699219 30.17950439453125 C 86.26304626464844 24.88084411621094 83.05401611328125 20.12152099609375 78.96624755859375 16.03375244140625 C 74.87847900390625 11.94598388671875 70.11915588378906 8.736953735351562 64.82049560546875 6.495796203613281 C 59.33623123168945 4.176155090332031 53.50878524780273 3 47.5 3 M 47.5 0 C 73.7335205078125 0 95 21.2664794921875 95 47.5 C 95 73.7335205078125 73.7335205078125 95 47.5 95 C 21.2664794921875 95 0 73.7335205078125 0 47.5 C 0 21.2664794921875 21.2664794921875 0 47.5 0 Z" stroke="none" fill="#8b5e6f"/>
                  </g>
                </g>
              </g>
            </g>
          </g>
        </g>
      </g>
    </g>
    <g id="cerebro_1_" data-name="cerebro (1)" transform="translate(294.619 1957.167)">
      <path id="Trazado_1179100" data-name="Trazado 1179100" d="M14,25.46a.863.863,0,0,0,.417-.918A9.769,9.769,0,0,1,24,12.917h.022a.878.878,0,0,0,.813-.535A7.771,7.771,0,0,1,31.861,7.69a8.011,8.011,0,0,1,8.01,7.92V58.567a8.011,8.011,0,0,1-8.01,7.92,7.77,7.77,0,0,1-7.025-4.693.879.879,0,0,0-.813-.534H24a9.769,9.769,0,0,1-9.585-11.624A.865.865,0,0,0,14,48.717,13.393,13.393,0,0,1,14,25.46Zm0,0" transform="translate(-6.303 -6.25)" fill="#60b8ff"/>
      <path id="Trazado_1179101" data-name="Trazado 1179101" d="M28.776,61.8a.879.879,0,0,0-.813-.534H27.94a9.769,9.769,0,0,1-9.585-11.624.865.865,0,0,0-.417-.918,13.393,13.393,0,0,1,0-23.258.864.864,0,0,0,.417-.918A9.769,9.769,0,0,1,27.94,12.921h.022a.879.879,0,0,0,.813-.534,7.787,7.787,0,0,1,5.147-4.436,7.594,7.594,0,0,0-2.062-.257,7.769,7.769,0,0,0-7.025,4.693.879.879,0,0,1-.813.534H24a9.769,9.769,0,0,0-9.585,11.624.863.863,0,0,1-.417.918,13.393,13.393,0,0,0,0,23.258.864.864,0,0,1,.417.918A9.769,9.769,0,0,0,24,61.263h.022a.879.879,0,0,1,.813.534,7.77,7.77,0,0,0,7.025,4.693,7.613,7.613,0,0,0,2.061-.257A7.787,7.787,0,0,1,28.776,61.8Zm0,0" transform="translate(-6.303 -6.253)" fill="#22a7ff"/>
      <path id="Trazado_1179102" data-name="Trazado 1179102" d="M281.6,25.46a.863.863,0,0,1-.417-.918,9.769,9.769,0,0,0-9.585-11.624h-.022a.878.878,0,0,1-.813-.535,7.77,7.77,0,0,0-7.025-4.693,7.9,7.9,0,0,0-7.879,7.92V58.567a7.9,7.9,0,0,0,7.879,7.92,7.77,7.77,0,0,0,7.025-4.693.879.879,0,0,1,.813-.534h.022a9.769,9.769,0,0,0,9.585-11.624.865.865,0,0,1,.417-.918,13.393,13.393,0,0,0,0-23.258Zm0,0" transform="translate(-222.418 -6.25)" fill="#ff646f"/>
      <path id="Trazado_1179103" data-name="Trazado 1179103" d="M259.794,58.566V15.61a7.968,7.968,0,0,1,5.822-7.661,7.758,7.758,0,0,0-1.882-.259,7.9,7.9,0,0,0-7.879,7.92V58.566a7.9,7.9,0,0,0,7.879,7.92,7.755,7.755,0,0,0,1.882-.259,7.968,7.968,0,0,1-5.822-7.661Zm0,0" transform="translate(-222.418 -6.249)" fill="#ff4755"/>
      <path id="Trazado_1179104" data-name="Trazado 1179104" d="M179.789,96.31a11.393,11.393,0,0,0-5.751,21.058,1.759,1.759,0,0,1,.834,1.491v1.655a1.752,1.752,0,0,0,1.752,1.752h6.881a1.752,1.752,0,0,0,1.752-1.752V118.86a1.763,1.763,0,0,1,.837-1.493,11.393,11.393,0,0,0-6.306-21.056Zm0,0" transform="translate(-146.628 -83.286)" fill="#ffe55a"/>
      <path id="Trazado_1179105" data-name="Trazado 1179105" d="M178.669,120.514v-1.655a1.759,1.759,0,0,0-.834-1.491,11.391,11.391,0,0,1,4.135-20.9,11.393,11.393,0,0,0-7.931,20.9,1.759,1.759,0,0,1,.834,1.491v1.656a1.752,1.752,0,0,0,1.752,1.752h3.8a1.752,1.752,0,0,1-1.752-1.752Zm0,0" transform="translate(-146.628 -83.285)" fill="#ffd500"/>
      <path id="Trazado_1179106" data-name="Trazado 1179106" d="M233.781,350.348v1.923a1.812,1.812,0,0,0,1.806,1.806h2.157a1.811,1.811,0,0,0,1.806-1.806v-1.923Zm0,0" transform="translate(-203.228 -304.126)" fill="#4f66d1"/>
      <path id="Trazado_1179107" data-name="Trazado 1179107" d="M237.577,352.271v-1.923h-3.8v1.923a1.812,1.812,0,0,0,1.806,1.806h2.157a1.79,1.79,0,0,0,.819-.2A1.811,1.811,0,0,1,237.577,352.271Zm0,0" transform="translate(-203.228 -304.126)" fill="#314dca"/>
      <path id="Trazado_1179108" data-name="Trazado 1179108" d="M227.255,322.645h-5.87a1.811,1.811,0,0,0-1.806,1.806v.27a1.811,1.811,0,0,0,1.806,1.806h5.87a1.811,1.811,0,0,0,1.806-1.806v-.27A1.811,1.811,0,0,0,227.255,322.645Zm0,0" transform="translate(-190.882 -280.044)" fill="#d9edff"/>
      <path id="Trazado_1179109" data-name="Trazado 1179109" d="M227.255,329.107h-5.87a1.806,1.806,0,0,1-1.459-.747,1.793,1.793,0,0,0-.348,1.059v.27a1.811,1.811,0,0,0,1.806,1.806h5.87a1.811,1.811,0,0,0,1.806-1.806v-.27a1.793,1.793,0,0,0-.348-1.059A1.8,1.8,0,0,1,227.255,329.107Zm0,0" transform="translate(-190.882 -285.011)" fill="#b4dbff"/>
      <path id="Trazado_1179110" data-name="Trazado 1179110" d="M227.255,293.941h-5.87a1.811,1.811,0,0,0-1.806,1.806v.27a1.811,1.811,0,0,0,1.806,1.806h5.87a1.811,1.811,0,0,0,1.806-1.806v-.27A1.811,1.811,0,0,0,227.255,293.941Zm0,0" transform="translate(-190.882 -255.091)" fill="#d9edff"/>
      <path id="Trazado_1179111" data-name="Trazado 1179111" d="M227.255,300.4h-5.87a1.805,1.805,0,0,1-1.459-.747,1.792,1.792,0,0,0-.348,1.059v.27a1.811,1.811,0,0,0,1.806,1.806h5.87a1.811,1.811,0,0,0,1.806-1.806v-.27a1.792,1.792,0,0,0-.348-1.059A1.8,1.8,0,0,1,227.255,300.4Zm0,0" transform="translate(-190.882 -260.059)" fill="#b4dbff"/>
      <path id="Trazado_1179112" data-name="Trazado 1179112" d="M59.757,18.439A10.755,10.755,0,0,0,49.235,5.725,8.771,8.771,0,0,0,44.04.962a.981.981,0,1,0-.631,1.857,7.44,7.44,0,0,1,4.8,7.151.981.981,0,0,0,1.961,0,9.983,9.983,0,0,0-.277-2.253,8.785,8.785,0,0,1,8.024,9.767,10.476,10.476,0,0,0-2.453-.766,4.689,4.689,0,0,0-2.246-3.152.981.981,0,0,0-.982,1.7,2.709,2.709,0,0,1,0,4.692.98.98,0,1,0,.983,1.7,4.687,4.687,0,0,0,2.2-2.949c3.342.714,9.549,4.795,9.549,12.175a12.453,12.453,0,0,1-6.176,10.73,12.711,12.711,0,0,1-3.373,1.437,4.687,4.687,0,0,0-2.2-2.95.98.98,0,1,0-.983,1.7,2.712,2.712,0,0,1,0,4.692.981.981,0,1,0,.982,1.7,4.686,4.686,0,0,0,2.246-3.152,10.52,10.52,0,0,0,2.453-.766,8.786,8.786,0,0,1-8.025,9.774,10.01,10.01,0,0,0,.279-2.262.981.981,0,0,0-1.961,0c0,3.916-2.785,7.462-6.886,7.519a6.919,6.919,0,0,1-6.885-6.939V50.969h.1a2.79,2.79,0,0,0,2.787-2.787v-.84a2.8,2.8,0,0,0,1.857-2.627v-.139a2.816,2.816,0,0,0-.666-1.806,2.823,2.823,0,0,0,.666-1.806v-.139a2.817,2.817,0,0,0-.456-1.526,2.736,2.736,0,0,0,.907-2.032V35.612a.784.784,0,0,1,.377-.662,12.458,12.458,0,0,0,5.517-7.75.981.981,0,1,0-1.912-.434,10.484,10.484,0,0,1-4.644,6.52h0a2.758,2.758,0,0,0-1.092,1.285c0,.008-.007.014-.009.022-.245.606-.2.9-.2,2.673a.772.772,0,0,1-.771.771h-2.46V33.281a3.982,3.982,0,0,0,3.112-3.88V27.985a.981.981,0,0,0-.3-1.913H29.618A.98.98,0,0,0,29.365,28v1.4a3.982,3.982,0,0,0,3.111,3.88v4.757h-2.46a.772.772,0,0,1-.771-.771,19.046,19.046,0,0,0-.022-2.007,2.73,2.73,0,0,0-1.273-1.972A10.408,10.408,0,1,1,43.7,22.582a.981.981,0,1,0,1.93-.35,12.375,12.375,0,0,0-11.2-10.112V9.4A6.963,6.963,0,0,1,39.42,2.716.981.981,0,1,0,38.877.832a8.865,8.865,0,0,0-5.425,4.513,8.7,8.7,0,0,0-15.774.381A10.755,10.755,0,0,0,7.155,18.439a14.387,14.387,0,0,0,0,24.875A10.756,10.756,0,0,0,17.678,56.028a8.7,8.7,0,0,0,15.778.372,8.7,8.7,0,0,0,15.778-.372A10.755,10.755,0,0,0,59.758,43.314a14.387,14.387,0,0,0,0-24.875ZM31.326,29.4V28.034h4.261V29.4a2.018,2.018,0,0,1-2.015,2.015h-.231A2.018,2.018,0,0,1,31.326,29.4ZM35.36,48.183a.827.827,0,0,1-.825.825H32.378a.827.827,0,0,1-.825-.825V47.5H35.36ZM36.391,40a.827.827,0,0,1,.826.825v.139a.827.827,0,0,1-.826.826h-5.87a.826.826,0,0,1-.825-.826v-.139A.826.826,0,0,1,30.521,40Zm0,3.751a.827.827,0,0,1,.826.825v.139a.829.829,0,0,1-.876.825H30.572a.829.829,0,0,1-.876-.825v-.139a.827.827,0,0,1,.825-.825Zm-10.8,15.544c-4.106-.057-6.886-3.611-6.886-7.518a.981.981,0,0,0-1.961,0,10.017,10.017,0,0,0,.279,2.262A8.786,8.786,0,0,1,9,44.263a10.5,10.5,0,0,0,2.453.766A4.687,4.687,0,0,0,13.7,48.181a.981.981,0,0,0,.982-1.7,2.712,2.712,0,0,1,0-4.692.981.981,0,0,0-.983-1.7,4.69,4.69,0,0,0-2.2,2.95c-3.275-.7-9.549-4.674-9.549-12.167,0-7.56,6.4-11.5,9.549-12.175a4.69,4.69,0,0,0,2.2,2.95.981.981,0,1,0,.983-1.7,2.712,2.712,0,0,1,0-4.692.981.981,0,0,0-.982-1.7,4.687,4.687,0,0,0-2.246,3.152A10.48,10.48,0,0,0,9,17.484a8.786,8.786,0,0,1,8.025-9.767,9.983,9.983,0,0,0-.277,2.253.98.98,0,1,0,1.961,0,9.351,9.351,0,0,1,.74-3.39l0-.008.006-.012a6.8,6.8,0,0,1,6.23-4.1A6.925,6.925,0,0,1,32.475,9.4v2.718A12.373,12.373,0,0,0,26.91,34.952a.777.777,0,0,1,.373.66v1.656A2.736,2.736,0,0,0,28.19,39.3a2.81,2.81,0,0,0-.456,1.526v.139A2.823,2.823,0,0,0,28.4,42.77a2.836,2.836,0,0,0-.666,1.806v.139a2.8,2.8,0,0,0,1.857,2.627v.84a2.79,2.79,0,0,0,2.787,2.787h.1v1.386a6.919,6.919,0,0,1-6.884,6.939Zm0,0" transform="translate(0 0)"/>
    </g>
  </g>
</svg>
