<svg xmlns="http://www.w3.org/2000/svg" xmlns:xlink="http://www.w3.org/1999/xlink" width="113" height="113" viewBox="0 0 113 113">
  <defs>
    <filter id="Trazado_982547" x="0" y="0" width="113" height="113" filterUnits="userSpaceOnUse">
      <feOffset dy="3" input="SourceAlpha"/>
      <feGaussianBlur stdDeviation="3" result="blur"/>
      <feFlood flood-opacity="0.161"/>
      <feComposite operator="in" in2="blur"/>
      <feComposite in="SourceGraphic"/>
    </filter>
  </defs>
  <g id="Grupo_1228250" data-name="Grupo 1228250" transform="translate(-586.06 -1934.544)">
    <g id="Grupo_1227860" data-name="Grupo 1227860" transform="translate(0 -1625.728)">
      <g id="Grupo_1203993" data-name="Grupo 1203993" transform="translate(0 1619.397)">
        <g id="Grupo_1203497" data-name="Grupo 1203497" transform="translate(595.061 1946.875)">
          <g id="Grupo_1172010" data-name="Grupo 1172010" transform="translate(0)">
            <g id="Grupo_1171046" data-name="Grupo 1171046">
              <g id="Grupo_1148525" data-name="Grupo 1148525">
                <g transform="matrix(1, 0, 0, 1, -9, -6)" filter="url(#Trazado_982547)">
                  <g id="Trazado_982547-2" data-name="Trazado 982547" transform="translate(9 6)" fill="#ffe6ef">
                    <path d="M 47.5 93.5 C 41.28937149047852 93.5 35.26533508300781 92.28397369384766 29.59518623352051 89.88570404052734 C 24.11771965026855 87.56893157958984 19.19813346862793 84.25196075439453 14.97309303283691 80.02691650390625 C 10.74804019927979 75.80186462402344 7.431066513061523 70.88229370117188 5.114293098449707 65.40481567382812 C 2.716026782989502 59.73468017578125 1.5 53.71062850952148 1.5 47.5 C 1.5 41.28937149047852 2.716026782989502 35.26533508300781 5.114293098449707 29.59518623352051 C 7.431066513061523 24.11771965026855 10.74804019927979 19.19813346862793 14.97309303283691 14.97309303283691 C 19.19813346862793 10.74804019927979 24.11771965026855 7.431066513061523 29.59518623352051 5.114293098449707 C 35.26533508300781 2.716026782989502 41.28937149047852 1.5 47.5 1.5 C 53.71062850952148 1.5 59.73468017578125 2.716026782989502 65.40481567382812 5.114293098449707 C 70.88229370117188 7.431066513061523 75.80186462402344 10.74804019927979 80.02691650390625 14.97309303283691 C 84.25196075439453 19.19813346862793 87.56893157958984 24.11771965026855 89.88570404052734 29.59518623352051 C 92.28397369384766 35.26533508300781 93.5 41.28937149047852 93.5 47.5 C 93.5 53.71062850952148 92.28397369384766 59.73468017578125 89.88570404052734 65.40481567382812 C 87.56893157958984 70.88229370117188 84.25196075439453 75.80186462402344 80.02691650390625 80.02691650390625 C 75.80186462402344 84.25196075439453 70.88229370117188 87.56893157958984 65.40481567382812 89.88570404052734 C 59.73468017578125 92.28397369384766 53.71062850952148 93.5 47.5 93.5 Z" stroke="none"/>
                    <path d="M 47.5 3 C 41.49121475219727 3 35.66376876831055 4.176155090332031 30.17950439453125 6.495796203613281 C 24.88084411621094 8.736953735351562 20.12152099609375 11.94598388671875 16.03375244140625 16.03375244140625 C 11.94598388671875 20.12152099609375 8.736953735351562 24.88084411621094 6.495796203613281 30.17950439453125 C 4.176155090332031 35.66376876831055 3 41.49121475219727 3 47.5 C 3 53.50878524780273 4.176155090332031 59.33623123168945 6.495796203613281 64.82049560546875 C 8.736953735351562 70.11915588378906 11.94598388671875 74.87847900390625 16.03375244140625 78.96624755859375 C 20.12152099609375 83.05401611328125 24.88084411621094 86.26304626464844 30.17950439453125 88.50419616699219 C 35.66376876831055 90.82384490966797 41.49121475219727 92 47.5 92 C 53.50878524780273 92 59.33623123168945 90.82384490966797 64.82049560546875 88.50419616699219 C 70.11915588378906 86.26304626464844 74.87847900390625 83.05401611328125 78.96624755859375 78.96624755859375 C 83.05401611328125 74.87847900390625 86.26304626464844 70.11915588378906 88.50419616699219 64.82049560546875 C 90.82384490966797 59.33623123168945 92 53.50878524780273 92 47.5 C 92 41.49121475219727 90.82384490966797 35.66376876831055 88.50419616699219 30.17950439453125 C 86.26304626464844 24.88084411621094 83.05401611328125 20.12152099609375 78.96624755859375 16.03375244140625 C 74.87847900390625 11.94598388671875 70.11915588378906 8.736953735351562 64.82049560546875 6.495796203613281 C 59.33623123168945 4.176155090332031 53.50878524780273 3 47.5 3 M 47.5 0 C 73.7335205078125 0 95 21.2664794921875 95 47.5 C 95 73.7335205078125 73.7335205078125 95 47.5 95 C 21.2664794921875 95 0 73.7335205078125 0 47.5 C 0 21.2664794921875 21.2664794921875 0 47.5 0 Z" stroke="none" fill="#8b5e6f"/>
                  </g>
                </g>
              </g>
            </g>
          </g>
        </g>
      </g>
    </g>
    <g id="escucha-activa" transform="translate(610.524 1956.007)">
      <g id="Grupo_1228248" data-name="Grupo 1228248" transform="translate(13.331 0.939)">
        <path id="Trazado_1179113" data-name="Trazado 1179113" d="M106.523,49.636a12.262,12.262,0,0,1,3.514-8.593l1.224-1.246A16.533,16.533,0,0,0,116,28.212a24.48,24.48,0,0,1,7.17-17.31,11.612,11.612,0,0,1,8.212-3.4,15.777,15.777,0,0,1,11.156,4.621l1.678,1.8a19.768,19.768,0,0,1,5.6,14.3h.125a20.656,20.656,0,0,1-4.927,13l-21.23,25.612a6.841,6.841,0,0,1-5.273,2.483,6.089,6.089,0,0,1-5.483-2.734q-.081-.125-.158-.254L109.544,60.7a21.756,21.756,0,0,1-3.021-11.059Z" transform="translate(-106.523 -7.5)" fill="#ffd9c4"/>
        <path id="Trazado_1179114" data-name="Trazado 1179114" d="M189.7,44.985l-1.678-1.678c-.054-.054-.109-.107-.164-.16A20.4,20.4,0,0,1,189,70.41L167.517,96.4a6.841,6.841,0,0,1-9,1.376,6.841,6.841,0,0,0,11.006.627L191,72.412a20.4,20.4,0,0,0-1.3-27.427Z" transform="translate(-152.007 -38.686)" fill="#ffc2ab"/>
      </g>
      <g id="Grupo_1228249" data-name="Grupo 1228249" transform="translate(0 0)">
        <path id="Trazado_1179115" data-name="Trazado 1179115" d="M187.127,14.173a.939.939,0,0,0,1.2-.563c.113-.312.24-.638.376-.969A23.421,23.421,0,0,1,193.809,5a10.666,10.666,0,0,1,7.548-3.127,14.839,14.839,0,0,1,10.492,4.347L213.527,7.9a19.478,19.478,0,0,1,5.105,8.98.939.939,0,0,0,1.82-.461,21.357,21.357,0,0,0-5.6-9.846L213.177,4.9A16.716,16.716,0,0,0,201.357,0a12.543,12.543,0,0,0-8.875,3.676,25.292,25.292,0,0,0-5.511,8.247c-.148.357-.284.709-.407,1.048A.939.939,0,0,0,187.127,14.173Z" transform="translate(-163.167 0)"/>
        <path id="Trazado_1179116" data-name="Trazado 1179116" d="M325.74,160.251a.939.939,0,0,0-.906.97c.007.212.011.428.011.64a19.473,19.473,0,0,1-4.461,12.4l-12.937,15.652a.939.939,0,0,0,1.447,1.2l12.938-15.652a21.351,21.351,0,0,0,4.891-13.6c0-.234,0-.47-.012-.7A.937.937,0,0,0,325.74,160.251Z" transform="translate(-268.783 -140.196)"/>
        <path id="Trazado_1179117" data-name="Trazado 1179117" d="M100.9,159.028a11.258,11.258,0,0,1,3.246-7.935l1.224-1.246a17.372,17.372,0,0,0,5.007-12.242,23.625,23.625,0,0,1,.337-3.968.939.939,0,0,0-1.85-.316,25.5,25.5,0,0,0-.364,4.284,15.505,15.505,0,0,1-4.469,10.927l-1.224,1.246a13.124,13.124,0,0,0-3.784,9.25,22.568,22.568,0,0,0,1.713,8.646.939.939,0,1,0,1.735-.716,20.7,20.7,0,0,1-1.571-7.93Z" transform="translate(-86.628 -115.953)"/>
        <path id="Trazado_1179118" data-name="Trazado 1179118" d="M149.525,421.765a.938.938,0,0,0-1.321.125l-5.753,6.96a5.9,5.9,0,0,1-9.632-.761l-2.672-4.525a.939.939,0,1,0-1.616.954l2.671,4.525a7.779,7.779,0,0,0,12.7,1l5.753-6.959A.938.938,0,0,0,149.525,421.765Z" transform="translate(-112.331 -368.795)"/>
        <path id="Trazado_1179119" data-name="Trazado 1179119" d="M158.439,192.539l-1.147.821a3.908,3.908,0,1,0,4.672,6.264l1.165-.905a4.309,4.309,0,0,1,4.513-.494,4.514,4.514,0,0,0,5.338-1.126l1.861-2.156a19.047,19.047,0,0,0,4.506-14.406,4.4,4.4,0,0,0-4.383-3.942,2.546,2.546,0,0,1-2.471-1.985.939.939,0,0,0-1.833.4,4.435,4.435,0,0,0,4.3,3.458,2.525,2.525,0,0,1,2.516,2.263,17.163,17.163,0,0,1-4.06,12.981l-1.861,2.156a2.633,2.633,0,0,1-3.113.657,6.177,6.177,0,0,0-6.469.707l-1.165.905a2.031,2.031,0,0,1-2.986-.554,2.041,2.041,0,0,1,.557-2.7l1.147-.821a5.27,5.27,0,0,0,2.116-5.134,3.362,3.362,0,0,1,1.467-3.368,1.617,1.617,0,0,1,1.961.14l.751.707a.939.939,0,1,0,1.287-1.367c-.022-.021-.755-.711-.777-.731a3.5,3.5,0,0,0-4.257-.316,5.239,5.239,0,0,0-2.282,5.247A3.382,3.382,0,0,1,158.439,192.539Z" transform="translate(-136.183 -152.114)"/>
        <path id="Trazado_1179120" data-name="Trazado 1179120" d="M247.652,72.639a.939.939,0,1,0,1.516,1.107l2.781-3.809a8.745,8.745,0,0,0,1.693-5.19,21.229,21.229,0,0,0-2.745-10.43l-.719-1.272a12.821,12.821,0,0,0-6.407-5.58,9.766,9.766,0,0,0-8.778.666,10.165,10.165,0,0,0-4.914,7.431l-.275,1.8a9.91,9.91,0,0,0,1.143,6.311,3.71,3.71,0,0,1,.424,2.577,5.717,5.717,0,0,0,1.506,4.832l.324.342a.939.939,0,1,0,1.364-1.29l-.324-.342a3.853,3.853,0,0,1-1.015-3.256,5.559,5.559,0,0,0-.641-3.782,8.025,8.025,0,0,1-.926-5.11l.275-1.8a8.321,8.321,0,0,1,4-6.093,7.9,7.9,0,0,1,7.138-.544,10.938,10.938,0,0,1,5.467,4.759l.719,1.272a19.351,19.351,0,0,1,2.5,9.506,6.879,6.879,0,0,1-1.332,4.083Z" transform="translate(-200.948 -40.879)"/>
        <path id="Trazado_1179121" data-name="Trazado 1179121" d="M.939,179.173a.938.938,0,0,0-.939.939v2.722a.939.939,0,0,0,1.877,0v-2.722A.938.938,0,0,0,.939,179.173Z" transform="translate(0 -156.751)"/>
        <path id="Trazado_1179122" data-name="Trazado 1179122" d="M133.406,183.772a.938.938,0,0,0,.939-.939v-2.722a.939.939,0,0,0-1.877,0v2.722A.938.938,0,0,0,133.406,183.772Z" transform="translate(-115.89 -156.751)"/>
        <path id="Trazado_1179123" data-name="Trazado 1179123" d="M34.056,159.15a.938.938,0,0,0-.939.939v7.733a.939.939,0,0,0,1.877,0v-7.733A.939.939,0,0,0,34.056,159.15Z" transform="translate(-28.973 -139.233)"/>
        <path id="Trazado_1179124" data-name="Trazado 1179124" d="M67.172,139.127a.938.938,0,0,0-.939.939V152.81a.939.939,0,0,0,1.877,0V140.066A.938.938,0,0,0,67.172,139.127Z" transform="translate(-57.944 -121.716)"/>
        <path id="Trazado_1179125" data-name="Trazado 1179125" d="M100.29,168.76a.938.938,0,0,0,.939-.939v-7.733a.939.939,0,0,0-1.877,0v7.733A.938.938,0,0,0,100.29,168.76Z" transform="translate(-86.918 -139.233)"/>
        <path id="Trazado_1179126" data-name="Trazado 1179126" d="M365.472,382.077a.938.938,0,0,0-.939.939v2.722a.939.939,0,0,0,1.877,0v-2.722A.939.939,0,0,0,365.472,382.077Z" transform="translate(-318.914 -334.263)"/>
        <path id="Trazado_1179127" data-name="Trazado 1179127" d="M497.939,382.077a.938.938,0,0,0-.939.939v2.722a.939.939,0,0,0,1.877,0v-2.722A.939.939,0,0,0,497.939,382.077Z" transform="translate(-434.804 -334.263)"/>
        <path id="Trazado_1179128" data-name="Trazado 1179128" d="M398.588,362.054a.938.938,0,0,0-.939.939v7.733a.939.939,0,1,0,1.877,0v-7.733A.938.938,0,0,0,398.588,362.054Z" transform="translate(-347.886 -316.745)"/>
        <path id="Trazado_1179129" data-name="Trazado 1179129" d="M431.706,342.031a.938.938,0,0,0-.939.939v12.745a.939.939,0,0,0,1.877,0V342.97A.939.939,0,0,0,431.706,342.031Z" transform="translate(-376.859 -299.228)"/>
        <path id="Trazado_1179130" data-name="Trazado 1179130" d="M464.822,362.054a.938.938,0,0,0-.939.939v7.733a.939.939,0,1,0,1.877,0v-7.733A.938.938,0,0,0,464.822,362.054Z" transform="translate(-405.831 -316.745)"/>
      </g>
    </g>
  </g>
</svg>
