<svg xmlns="http://www.w3.org/2000/svg" xmlns:xlink="http://www.w3.org/1999/xlink" width="113" height="113" viewBox="0 0 113 113">
  <defs>
    <filter id="Trazado_982547" x="0" y="0" width="113" height="113" filterUnits="userSpaceOnUse">
      <feOffset dy="3" input="SourceAlpha"/>
      <feGaussianBlur stdDeviation="3" result="blur"/>
      <feFlood flood-opacity="0.161"/>
      <feComposite operator="in" in2="blur"/>
      <feComposite in="SourceGraphic"/>
    </filter>
  </defs>
  <g id="Grupo_1228251" data-name="Grupo 1228251" transform="translate(-901.56 -1934.544)">
    <g id="Grupo_1227861" data-name="Grupo 1227861" transform="translate(0 -1625.728)">
      <g id="Grupo_1203994" data-name="Grupo 1203994" transform="translate(0 1619.397)">
        <g id="Grupo_1203499" data-name="Grupo 1203499" transform="translate(0 -197.72)">
          <g id="Grupo_1202591" data-name="Grupo 1202591" transform="translate(910.561 2144.596)">
            <g id="Grupo_1172010" data-name="Grupo 1172010" transform="translate(0)">
              <g id="Grupo_1171046" data-name="Grupo 1171046">
                <g id="Grupo_1148525" data-name="Grupo 1148525">
                  <g transform="matrix(1, 0, 0, 1, -9, -6)" filter="url(#Trazado_982547)">
                    <g id="Trazado_982547-2" data-name="Trazado 982547" transform="translate(9 6)" fill="#ffe6ef">
                      <path d="M 47.5 93.5 C 41.28937149047852 93.5 35.26533508300781 92.28397369384766 29.59518623352051 89.88570404052734 C 24.11771965026855 87.56893157958984 19.19813346862793 84.25196075439453 14.97309303283691 80.02691650390625 C 10.74804019927979 75.80186462402344 7.431066513061523 70.88229370117188 5.114293098449707 65.40481567382812 C 2.716026782989502 59.73468017578125 1.5 53.71062850952148 1.5 47.5 C 1.5 41.28937149047852 2.716026782989502 35.26533508300781 5.114293098449707 29.59518623352051 C 7.431066513061523 24.11771965026855 10.74804019927979 19.19813346862793 14.97309303283691 14.97309303283691 C 19.19813346862793 10.74804019927979 24.11771965026855 7.431066513061523 29.59518623352051 5.114293098449707 C 35.26533508300781 2.716026782989502 41.28937149047852 1.5 47.5 1.5 C 53.71062850952148 1.5 59.73468017578125 2.716026782989502 65.40481567382812 5.114293098449707 C 70.88229370117188 7.431066513061523 75.80186462402344 10.74804019927979 80.02691650390625 14.97309303283691 C 84.25196075439453 19.19813346862793 87.56893157958984 24.11771965026855 89.88570404052734 29.59518623352051 C 92.28397369384766 35.26533508300781 93.5 41.28937149047852 93.5 47.5 C 93.5 53.71062850952148 92.28397369384766 59.73468017578125 89.88570404052734 65.40481567382812 C 87.56893157958984 70.88229370117188 84.25196075439453 75.80186462402344 80.02691650390625 80.02691650390625 C 75.80186462402344 84.25196075439453 70.88229370117188 87.56893157958984 65.40481567382812 89.88570404052734 C 59.73468017578125 92.28397369384766 53.71062850952148 93.5 47.5 93.5 Z" stroke="none"/>
                      <path d="M 47.5 3 C 41.49121475219727 3 35.66376876831055 4.176155090332031 30.17950439453125 6.495796203613281 C 24.88084411621094 8.736953735351562 20.12152099609375 11.94598388671875 16.03375244140625 16.03375244140625 C 11.94598388671875 20.12152099609375 8.736953735351562 24.88084411621094 6.495796203613281 30.17950439453125 C 4.176155090332031 35.66376876831055 3 41.49121475219727 3 47.5 C 3 53.50878524780273 4.176155090332031 59.33623123168945 6.495796203613281 64.82049560546875 C 8.736953735351562 70.11915588378906 11.94598388671875 74.87847900390625 16.03375244140625 78.96624755859375 C 20.12152099609375 83.05401611328125 24.88084411621094 86.26304626464844 30.17950439453125 88.50419616699219 C 35.66376876831055 90.82384490966797 41.49121475219727 92 47.5 92 C 53.50878524780273 92 59.33623123168945 90.82384490966797 64.82049560546875 88.50419616699219 C 70.11915588378906 86.26304626464844 74.87847900390625 83.05401611328125 78.96624755859375 78.96624755859375 C 83.05401611328125 74.87847900390625 86.26304626464844 70.11915588378906 88.50419616699219 64.82049560546875 C 90.82384490966797 59.33623123168945 92 53.50878524780273 92 47.5 C 92 41.49121475219727 90.82384490966797 35.66376876831055 88.50419616699219 30.17950439453125 C 86.26304626464844 24.88084411621094 83.05401611328125 20.12152099609375 78.96624755859375 16.03375244140625 C 74.87847900390625 11.94598388671875 70.11915588378906 8.736953735351562 64.82049560546875 6.495796203613281 C 59.33623123168945 4.176155090332031 53.50878524780273 3 47.5 3 M 47.5 0 C 73.7335205078125 0 95 21.2664794921875 95 47.5 C 95 73.7335205078125 73.7335205078125 95 47.5 95 C 21.2664794921875 95 0 73.7335205078125 0 47.5 C 0 21.2664794921875 21.2664794921875 0 47.5 0 Z" stroke="none" fill="#8b5e6f"/>
                    </g>
                  </g>
                </g>
              </g>
            </g>
          </g>
        </g>
      </g>
    </g>
    <g id="senses_9818096" transform="translate(916.827 1942.213)">
      <circle id="Elipse_12794" data-name="Elipse 12794" cx="27.302" cy="27.302" r="27.302" transform="translate(12.702 19.93)" fill="#02c7dd"/>
      <path id="Trazado_1179131" data-name="Trazado 1179131" d="M164.15,74.882a27.309,27.309,0,0,1-24.243,48.571A27.306,27.306,0,1,0,164.15,74.882Z" transform="translate(-114.699 -53.273)" fill="#07b2cd"/>
      <path id="Trazado_1179132" data-name="Trazado 1179132" d="M160.263,21.067a4.472,4.472,0,0,0,1.049,1.915c1.818,2.331,5.859,5.768,11.025,5.768,5.253,0,9.343-3.554,11.115-5.886a4.2,4.2,0,0,0,.959-1.8,4.2,4.2,0,0,0-.959-1.8c-1.772-2.332-5.862-5.886-11.115-5.886-4.931,0-8.837,3.132-10.763,5.444A5.222,5.222,0,0,0,160.263,21.067Z" transform="translate(-132.333)" fill="#dcf5f8"/>
      <circle id="Elipse_12795" data-name="Elipse 12795" cx="3.293" cy="3.293" r="3.293" transform="translate(36.711 17.775)" fill="#017297"/>
      <path id="Trazado_1179133" data-name="Trazado 1179133" d="M386.77,145.833a5.648,5.648,0,0,0-2.327-2.981,5.011,5.011,0,0,1-2.318-3.59l-.625-5a3.73,3.73,0,0,0-3.7-3.267h0a3.73,3.73,0,0,0-3.7,3.267l-.625,5a5.011,5.011,0,0,1-2.318,3.59,5.648,5.648,0,0,0-2.327,2.981h0a2.067,2.067,0,0,0,1.96,2.72h2a3.438,3.438,0,0,1,2.75,1.375h0a2.827,2.827,0,0,0,4.523,0h0a3.438,3.438,0,0,1,2.75-1.375h2a2.066,2.066,0,0,0,1.96-2.72Z" transform="translate(-312.91 -101.879)" fill="#ffe5c2"/>
      <path id="Trazado_1179134" data-name="Trazado 1179134" d="M311.418,370.64h0a6.341,6.341,0,0,1-6.218-5.1l-2.067-10.333a3.617,3.617,0,0,1,.989-3.267h0a3.617,3.617,0,0,1,4.564-.452h0a4.924,4.924,0,0,0,5.463,0h0a3.617,3.617,0,0,1,4.564.452h0a3.617,3.617,0,0,1,.989,3.267l-2.067,10.333A6.341,6.341,0,0,1,311.418,370.64Z" transform="translate(-256.035 -292.363)" fill="#e94444"/>
      <path id="Trazado_1179135" data-name="Trazado 1179135" d="M7.5,134.983a5.443,5.443,0,0,0,10.877.334c0-.057.006-.114.008-.171a9.513,9.513,0,0,1,2.446-6A7.621,7.621,0,1,0,7.5,124.1Z" transform="translate(0 -89.305)" fill="#ffdfcf"/>
      <path id="Trazado_1179136" data-name="Trazado 1179136" d="M203.608,235.461v-7.039a.353.353,0,0,0-.353-.353h-7.549a.353.353,0,0,0-.353.353v7.039a.353.353,0,0,1-.353.353h-3.049a.353.353,0,0,0-.278.571l7.53,9.609a.353.353,0,0,0,.556,0l7.53-9.609a.353.353,0,0,0-.278-.571h-3.049A.353.353,0,0,1,203.608,235.461Z" transform="translate(-159.476 -185.974)" fill="#ffc344"/>
      <path id="Trazado_1179137" data-name="Trazado 1179137" d="M85.576,342.675H79.662a2.356,2.356,0,0,0-2.356,2.356v4.249a2.356,2.356,0,0,0-3.322.009l-.951.951a1.178,1.178,0,0,0,0,1.666l6.066,6.066h0l.031.031a2.084,2.084,0,0,1,.614,1.477v2.729a.707.707,0,0,0,.707.707h5.9a.707.707,0,0,0,.707-.707v-2.716a2.131,2.131,0,0,1,.636-1.512,6.079,6.079,0,0,0,1.8-4.329V346.6A3.926,3.926,0,0,0,85.576,342.675Z" transform="translate(-56.47 -285.253)" fill="#eb9c8d"/>
      <path id="Trazado_1179138" data-name="Trazado 1179138" d="M227.582,170.112h-7.549a.353.353,0,0,1-.353-.353v-3.684a.353.353,0,0,1,.353-.353h7.549a.353.353,0,0,1,.353.353v3.684A.353.353,0,0,1,227.582,170.112Z" transform="translate(-183.804 -131.965)" fill="#ffc344"/>
      <path id="Trazado_1179139" data-name="Trazado 1179139" d="M163.5,16.891a16.051,16.051,0,0,0-1.931,1.938,5.224,5.224,0,0,0-1.311,2.239,4.472,4.472,0,0,0,1.049,1.915c1.818,2.331,5.859,5.768,11.025,5.768,5.253,0,9.343-3.554,11.115-5.886a4.2,4.2,0,0,0,.959-1.8,5.223,5.223,0,0,0-1.311-2.239c-1.926-2.312-5.832-5.444-10.763-5.444a12.366,12.366,0,0,0-4.886,1.035" transform="translate(-132.333)" fill="none" stroke="#000" stroke-linecap="round" stroke-linejoin="round" stroke-miterlimit="10" stroke-width="1.5"/>
      <circle id="Elipse_12796" data-name="Elipse 12796" cx="3.293" cy="3.293" r="3.293" transform="translate(36.711 17.775)" fill="none" stroke="#000" stroke-linecap="round" stroke-linejoin="round" stroke-miterlimit="10" stroke-width="1.5"/>
      <path id="Trazado_1179140" data-name="Trazado 1179140" d="M373.469,139.262a5.011,5.011,0,0,1-2.318,3.59,5.647,5.647,0,0,0-2.327,2.981h0a2.066,2.066,0,0,0,1.96,2.72h2a3.438,3.438,0,0,1,2.75,1.375h0a2.827,2.827,0,0,0,4.523,0h0a3.438,3.438,0,0,1,2.75-1.375h2a2.066,2.066,0,0,0,1.96-2.72h0a5.648,5.648,0,0,0-2.327-2.981,5.011,5.011,0,0,1-2.318-3.59l-.625-5a3.73,3.73,0,0,0-3.7-3.267h0a3.73,3.73,0,0,0-3.7,3.267l-.03.24" transform="translate(-312.908 -101.879)" fill="none" stroke="#000" stroke-linecap="round" stroke-linejoin="round" stroke-miterlimit="10" stroke-width="1.5"/>
      <path id="Trazado_1179141" data-name="Trazado 1179141" d="M311.418,370.64h0a6.341,6.341,0,0,1-6.218-5.1l-2.067-10.333a3.617,3.617,0,0,1,.989-3.267h0a3.617,3.617,0,0,1,4.564-.452h0a4.924,4.924,0,0,0,5.463,0h0a3.617,3.617,0,0,1,4.564.452h0a3.617,3.617,0,0,1,.989,3.267l-2.067,10.333A6.341,6.341,0,0,1,311.418,370.64Z" transform="translate(-256.035 -292.363)" fill="none" stroke="#000" stroke-linecap="round" stroke-linejoin="round" stroke-miterlimit="10" stroke-width="1.5"/>
      <line id="Línea_625" data-name="Línea 625" y2="11.391" transform="translate(55.383 59.955)" fill="none" stroke="#000" stroke-linecap="round" stroke-linejoin="round" stroke-miterlimit="10" stroke-width="1.5"/>
      <path id="Trazado_1179142" data-name="Trazado 1179142" d="M7.5,134.983a5.443,5.443,0,0,0,10.877.334c0-.057.006-.114.008-.171a9.513,9.513,0,0,1,2.446-6A7.621,7.621,0,1,0,7.5,124.1Z" transform="translate(0 -89.305)" fill="none" stroke="#000" stroke-linecap="round" stroke-linejoin="round" stroke-miterlimit="10" stroke-width="1.5"/>
      <path id="Trazado_1179143" data-name="Trazado 1179143" d="M203.608,235.461v-7.039a.353.353,0,0,0-.353-.353h-7.549a.353.353,0,0,0-.353.353v7.039a.353.353,0,0,1-.353.353h-3.049a.353.353,0,0,0-.278.571l7.53,9.609a.353.353,0,0,0,.556,0l7.53-9.609a.353.353,0,0,0-.278-.571h-3.049A.353.353,0,0,1,203.608,235.461Z" transform="translate(-159.476 -185.974)" fill="none" stroke="#000" stroke-linecap="round" stroke-linejoin="round" stroke-miterlimit="10" stroke-width="1.5"/>
      <path id="Trazado_1179144" data-name="Trazado 1179144" d="M45.979,154.67A3.23,3.23,0,0,0,43.7,149.3l-.139,0a3.234,3.234,0,0,0-3.23,3.231v3.058a1.744,1.744,0,0,0,.511,1.234l.024.024a1.745,1.745,0,0,1,0,2.469l-.024.024a1.744,1.744,0,0,0-.511,1.234v2.843a1.052,1.052,0,0,0,1.053,1.052" transform="translate(-28.438 -117.741)" fill="none" stroke="#000" stroke-linecap="round" stroke-linejoin="round" stroke-miterlimit="10" stroke-width="1.5"/>
      <path id="Trazado_1179145" data-name="Trazado 1179145" d="M89.5,348.516V346.6a3.926,3.926,0,0,0-3.926-3.926H79.663a2.356,2.356,0,0,0-2.356,2.356v4.249a2.356,2.356,0,0,0-3.322.009l-.951.951a1.178,1.178,0,0,0,0,1.666l6.066,6.066h0l.031.031a2.084,2.084,0,0,1,.614,1.477v2.729a.707.707,0,0,0,.707.707h5.9a.707.707,0,0,0,.707-.707v-2.716a2.131,2.131,0,0,1,.636-1.512,6.079,6.079,0,0,0,1.8-4.329v-.32" transform="translate(-56.471 -285.252)" fill="none" stroke="#000" stroke-linecap="round" stroke-linejoin="round" stroke-miterlimit="10" stroke-width="1.5"/>
      <path id="Trazado_1179146" data-name="Trazado 1179146" d="M107.221,392.059l2.749,2.749a1.743,1.743,0,0,0,1.609.459,2.443,2.443,0,0,1,2.852,1.666" transform="translate(-86.385 -328.032)" fill="none" stroke="#000" stroke-linecap="round" stroke-linejoin="round" stroke-miterlimit="10" stroke-width="1.5"/>
      <line id="Línea_626" data-name="Línea 626" y2="4.39" transform="translate(24.637 57.905)" fill="none" stroke="#000" stroke-linecap="round" stroke-linejoin="round" stroke-miterlimit="10" stroke-width="1.5"/>
      <path id="Trazado_1179147" data-name="Trazado 1179147" d="M227.582,170.112h-7.549a.353.353,0,0,1-.353-.353v-3.684a.353.353,0,0,1,.353-.353h7.549a.353.353,0,0,1,.353.353v3.684A.353.353,0,0,1,227.582,170.112Z" transform="translate(-183.804 -131.965)" fill="none" stroke="#000" stroke-linecap="round" stroke-linejoin="round" stroke-miterlimit="10" stroke-width="1.5"/>
      <path id="Trazado_1179148" data-name="Trazado 1179148" d="M183.137,458.989a27.433,27.433,0,0,0,18.134-.037" transform="translate(-152.148 -385.979)" fill="none" stroke="#000" stroke-linecap="round" stroke-linejoin="round" stroke-miterlimit="10" stroke-width="1.5"/>
      <path id="Trazado_1179149" data-name="Trazado 1179149" d="M48.457,295.56a27.163,27.163,0,0,0,5.164,12.465" transform="translate(-35.48 -244.439)" fill="none" stroke="#000" stroke-linecap="round" stroke-linejoin="round" stroke-miterlimit="10" stroke-width="1.5"/>
      <path id="Trazado_1179150" data-name="Trazado 1179150" d="M108.529,81.024A27.381,27.381,0,0,0,99.8,87.415" transform="translate(-79.953 -58.594)" fill="none" stroke="#000" stroke-linecap="round" stroke-linejoin="round" stroke-miterlimit="10" stroke-width="1.5"/>
      <path id="Trazado_1179151" data-name="Trazado 1179151" d="M346.356,89.364A27.406,27.406,0,0,0,336,81.025" transform="translate(-284.57 -58.595)" fill="none" stroke="#000" stroke-linecap="round" stroke-linejoin="round" stroke-miterlimit="10" stroke-width="1.5"/>
      <path id="Trazado_1179152" data-name="Trazado 1179152" d="M426.721,284.375a27.16,27.16,0,0,0,3.733-13.169" transform="translate(-363.156 -223.342)" fill="none" stroke="#000" stroke-linecap="round" stroke-linejoin="round" stroke-miterlimit="10" stroke-width="1.5"/>
    </g>
  </g>
</svg>
