<svg xmlns="http://www.w3.org/2000/svg" xmlns:xlink="http://www.w3.org/1999/xlink" width="113" height="113" viewBox="0 0 113 113">
  <defs>
    <filter id="Trazado_982547" x="0" y="0" width="113" height="113" filterUnits="userSpaceOnUse">
      <feOffset dy="3" input="SourceAlpha"/>
      <feGaussianBlur stdDeviation="3" result="blur"/>
      <feFlood flood-opacity="0.161"/>
      <feComposite operator="in" in2="blur"/>
      <feComposite in="SourceGraphic"/>
    </filter>
  </defs>
  <g id="Grupo_1228256" data-name="Grupo 1228256" transform="translate(-1216.56 -1934.272)">
    <g id="Grupo_1227862" data-name="Grupo 1227862" transform="translate(0 -1625.728)">
      <g id="Grupo_1203995" data-name="Grupo 1203995" transform="translate(0 1619.125)">
        <g id="Grupo_1203500" data-name="Grupo 1203500" transform="translate(0 -197.72)">
          <g id="Grupo_1202592" data-name="Grupo 1202592" transform="translate(1225.561 2144.596)">
            <g id="Grupo_1172010" data-name="Grupo 1172010" transform="translate(0)">
              <g id="Grupo_1171046" data-name="Grupo 1171046">
                <g id="Grupo_1148525" data-name="Grupo 1148525">
                  <g transform="matrix(1, 0, 0, 1, -9, -6)" filter="url(#Trazado_982547)">
                    <g id="Trazado_982547-2" data-name="Trazado 982547" transform="translate(9 6)" fill="#ffe6ef">
                      <path d="M 47.5 93.5 C 41.28937149047852 93.5 35.26533508300781 92.28397369384766 29.59518623352051 89.88570404052734 C 24.11771965026855 87.56893157958984 19.19813346862793 84.25196075439453 14.97309303283691 80.02691650390625 C 10.74804019927979 75.80186462402344 7.431066513061523 70.88229370117188 5.114293098449707 65.40481567382812 C 2.716026782989502 59.73468017578125 1.5 53.71062850952148 1.5 47.5 C 1.5 41.28937149047852 2.716026782989502 35.26533508300781 5.114293098449707 29.59518623352051 C 7.431066513061523 24.11771965026855 10.74804019927979 19.19813346862793 14.97309303283691 14.97309303283691 C 19.19813346862793 10.74804019927979 24.11771965026855 7.431066513061523 29.59518623352051 5.114293098449707 C 35.26533508300781 2.716026782989502 41.28937149047852 1.5 47.5 1.5 C 53.71062850952148 1.5 59.73468017578125 2.716026782989502 65.40481567382812 5.114293098449707 C 70.88229370117188 7.431066513061523 75.80186462402344 10.74804019927979 80.02691650390625 14.97309303283691 C 84.25196075439453 19.19813346862793 87.56893157958984 24.11771965026855 89.88570404052734 29.59518623352051 C 92.28397369384766 35.26533508300781 93.5 41.28937149047852 93.5 47.5 C 93.5 53.71062850952148 92.28397369384766 59.73468017578125 89.88570404052734 65.40481567382812 C 87.56893157958984 70.88229370117188 84.25196075439453 75.80186462402344 80.02691650390625 80.02691650390625 C 75.80186462402344 84.25196075439453 70.88229370117188 87.56893157958984 65.40481567382812 89.88570404052734 C 59.73468017578125 92.28397369384766 53.71062850952148 93.5 47.5 93.5 Z" stroke="none"/>
                      <path d="M 47.5 3 C 41.49121475219727 3 35.66376876831055 4.176155090332031 30.17950439453125 6.495796203613281 C 24.88084411621094 8.736953735351562 20.12152099609375 11.94598388671875 16.03375244140625 16.03375244140625 C 11.94598388671875 20.12152099609375 8.736953735351562 24.88084411621094 6.495796203613281 30.17950439453125 C 4.176155090332031 35.66376876831055 3 41.49121475219727 3 47.5 C 3 53.50878524780273 4.176155090332031 59.33623123168945 6.495796203613281 64.82049560546875 C 8.736953735351562 70.11915588378906 11.94598388671875 74.87847900390625 16.03375244140625 78.96624755859375 C 20.12152099609375 83.05401611328125 24.88084411621094 86.26304626464844 30.17950439453125 88.50419616699219 C 35.66376876831055 90.82384490966797 41.49121475219727 92 47.5 92 C 53.50878524780273 92 59.33623123168945 90.82384490966797 64.82049560546875 88.50419616699219 C 70.11915588378906 86.26304626464844 74.87847900390625 83.05401611328125 78.96624755859375 78.96624755859375 C 83.05401611328125 74.87847900390625 86.26304626464844 70.11915588378906 88.50419616699219 64.82049560546875 C 90.82384490966797 59.33623123168945 92 53.50878524780273 92 47.5 C 92 41.49121475219727 90.82384490966797 35.66376876831055 88.50419616699219 30.17950439453125 C 86.26304626464844 24.88084411621094 83.05401611328125 20.12152099609375 78.96624755859375 16.03375244140625 C 74.87847900390625 11.94598388671875 70.11915588378906 8.736953735351562 64.82049560546875 6.495796203613281 C 59.33623123168945 4.176155090332031 53.50878524780273 3 47.5 3 M 47.5 0 C 73.7335205078125 0 95 21.2664794921875 95 47.5 C 95 73.7335205078125 73.7335205078125 95 47.5 95 C 21.2664794921875 95 0 73.7335205078125 0 47.5 C 0 21.2664794921875 21.2664794921875 0 47.5 0 Z" stroke="none" fill="#8b5e6f"/>
                    </g>
                  </g>
                </g>
              </g>
            </g>
          </g>
        </g>
      </g>
    </g>
    <g id="vision" transform="translate(1238.337 1953.071)">
      <g id="Grupo_1228254" data-name="Grupo 1228254" transform="translate(1.039 11.871)">
        <g id="Grupo_1228253" data-name="Grupo 1228253">
          <g id="Grupo_1228252" data-name="Grupo 1228252">
            <path id="Trazado_1179153" data-name="Trazado 1179153" d="M74.549,111.8a2.821,2.821,0,0,0-.081-2.752c-2.94-4.919-14.246-21.466-33.284-21.466-14.072,0-26.936,9.123-33.365,21.441a2.821,2.821,0,0,0,.081,2.752c2.94,4.919,14.246,21.466,33.284,21.466C55.256,133.238,68.12,124.115,74.549,111.8Z" transform="translate(-7.5 -87.579)" fill="#f9f7f8"/>
            <ellipse id="Elipse_12797" data-name="Elipse 12797" cx="17.023" cy="17.052" rx="17.023" ry="17.052" transform="translate(16.662 5.777)" fill="#b3dafe"/>
            <path id="Trazado_1179154" data-name="Trazado 1179154" d="M234.389,130.2a17.071,17.071,0,0,0-3.389.338,17.062,17.062,0,0,1,0,33.428,17.05,17.05,0,1,0,3.389-33.766Z" transform="translate(-200.704 -124.424)" fill="#8ac9fe"/>
          </g>
          <path id="Trazado_1179155" data-name="Trazado 1179155" d="M194.4,181.615a8.921,8.921,0,0,0-.1-1.365l2.1-2.2a.638.638,0,0,0,.09-.759l-1.689-2.927a.637.637,0,0,0-.7-.3l-2.921.707a8.889,8.889,0,0,0-2.447-1.438l-.859-2.92a.637.637,0,0,0-.612-.458h-3.378a.638.638,0,0,0-.612.458l-.847,2.879a8.887,8.887,0,0,0-2.465,1.406l-2.963-.717a.637.637,0,0,0-.7.3L174.6,177.2a.638.638,0,0,0,.09.759l2.069,2.173a8.948,8.948,0,0,0-.019,2.843l-2.1,2.2a.638.638,0,0,0-.09.759l1.689,2.927a.637.637,0,0,0,.7.3l2.921-.707a8.888,8.888,0,0,0,2.447,1.438l.859,2.92a.638.638,0,0,0,.612.458h3.378a.638.638,0,0,0,.612-.458l.847-2.879a8.886,8.886,0,0,0,2.465-1.406l2.963.717a.637.637,0,0,0,.7-.3l1.689-2.927a.638.638,0,0,0-.09-.759l-2.069-2.173A8.919,8.919,0,0,0,194.4,181.615Zm-4.463,0a4.421,4.421,0,1,1-4.421-4.422A4.421,4.421,0,0,1,189.937,181.615Z" transform="translate(-151.832 -158.785)" fill="#6c7fd8"/>
        </g>
      </g>
      <g id="Grupo_1228255" data-name="Grupo 1228255" transform="translate(0.025)">
        <path id="Trazado_1179156" data-name="Trazado 1179156" d="M158.628,437.77a1.016,1.016,0,0,0-1.39.367l-2.711,4.657a1.017,1.017,0,1,0,1.757,1.023l2.711-4.657A1.017,1.017,0,0,0,158.628,437.77Z" transform="translate(-133.464 -378.31)"/>
        <path id="Trazado_1179157" data-name="Trazado 1179157" d="M249.517,457.33a1.017,1.017,0,0,0-1.017,1.017v5.377a1.017,1.017,0,0,0,2.033,0v-5.377a1.017,1.017,0,0,0-1.017-1.017Z" transform="translate(-214.819 -395.338)"/>
        <path id="Trazado_1179158" data-name="Trazado 1179158" d="M324.507,438.137a1.017,1.017,0,0,0-1.757,1.023l2.711,4.657a1.017,1.017,0,0,0,1.757-1.023Z" transform="translate(-278.885 -378.31)"/>
        <path id="Trazado_1179159" data-name="Trazado 1179159" d="M323.117,31.562a1.027,1.027,0,0,0,1.39-.367l2.711-4.657a1.017,1.017,0,0,0-1.757-1.023l-2.711,4.657A1.017,1.017,0,0,0,323.117,31.562Z" transform="translate(-278.885 -21.62)"/>
        <path id="Trazado_1179160" data-name="Trazado 1179160" d="M249.517,7.411a1.016,1.016,0,0,0,1.017-1.017V1.017a1.017,1.017,0,1,0-2.033,0V6.394A1.017,1.017,0,0,0,249.517,7.411Z" transform="translate(-214.819)"/>
        <path id="Trazado_1179161" data-name="Trazado 1179161" d="M157.237,31.195a1.017,1.017,0,0,0,1.757-1.023l-2.711-4.657a1.017,1.017,0,0,0-1.757,1.023Z" transform="translate(-133.464 -21.62)"/>
        <path id="Trazado_1179162" data-name="Trazado 1179162" d="M68.88,102.04C65.8,96.888,54.236,80.079,34.723,80.079A35.4,35.4,0,0,0,19,83.832a1.017,1.017,0,1,0,.9,1.825,33.384,33.384,0,0,1,14.824-3.544c18.443,0,29.471,16.051,32.412,20.971a1.816,1.816,0,0,1,.052,1.76,40.357,40.357,0,0,1-13.476,14.962,34.477,34.477,0,0,1-18.988,5.933c-18.443,0-29.471-16.051-32.412-20.971a1.815,1.815,0,0,1-.052-1.76A40.784,40.784,0,0,1,16.485,87.563,1.017,1.017,0,1,0,15.4,85.842,42.848,42.848,0,0,0,.457,102.067a3.861,3.861,0,0,0,.109,3.744c3.079,5.152,14.644,21.961,34.157,21.961a36.5,36.5,0,0,0,20.109-6.27,42.393,42.393,0,0,0,14.157-15.718A3.861,3.861,0,0,0,68.88,102.04Z" transform="translate(-0.025 -69.224)"/>
        <path id="Trazado_1179163" data-name="Trazado 1179163" d="M140.958,158.839a18.069,18.069,0,1,0-18.039-18.069A18.075,18.075,0,0,0,140.958,158.839Zm0-34.1a16.036,16.036,0,1,1-16.006,16.036A16.039,16.039,0,0,1,140.958,124.734Z" transform="translate(-106.261 -106.069)"/>
        <path id="Trazado_1179164" data-name="Trazado 1179164" d="M170.709,183.671l2.442-.591A9.888,9.888,0,0,0,175,184.165l.723,2.456a1.664,1.664,0,0,0,1.587,1.188h3.378a1.664,1.664,0,0,0,1.587-1.187l.709-2.408a9.869,9.869,0,0,0,1.86-1.062l2.492.6a1.662,1.662,0,0,0,1.822-.781l1.689-2.927a1.665,1.665,0,0,0-.235-1.968l-1.73-1.817a9.917,9.917,0,0,0,.013-2.147l1.765-1.854a1.664,1.664,0,0,0,.234-1.968l-1.689-2.926a1.665,1.665,0,0,0-1.822-.781l-2.442.591a9.888,9.888,0,0,0-1.848-1.085l-.723-2.457a1.664,1.664,0,0,0-1.587-1.187H177.4a1.664,1.664,0,0,0-1.587,1.187l-.709,2.408a9.868,9.868,0,0,0-1.86,1.062l-2.492-.6a1.662,1.662,0,0,0-1.822.781l-1.689,2.926a1.664,1.664,0,0,0,.234,1.968l1.73,1.817a9.92,9.92,0,0,0-.013,2.148L167.433,178a1.664,1.664,0,0,0-.234,1.968l1.689,2.926a1.664,1.664,0,0,0,1.822.781Zm.294-6.477a1.016,1.016,0,0,0,.268-.856,7.9,7.9,0,0,1,.017-2.519,1.016,1.016,0,0,0-.266-.869l-1.873-1.968,1.406-2.435,2.687.65a1.018,1.018,0,0,0,.877-.2,7.846,7.846,0,0,1,2.183-1.246,1.017,1.017,0,0,0,.619-.665l.767-2.607H180.5l.779,2.648a1.017,1.017,0,0,0,.607.661,7.857,7.857,0,0,1,2.167,1.274,1.018,1.018,0,0,0,.887.205l2.645-.64,1.406,2.436-1.9,2a1.016,1.016,0,0,0-.268.856,7.9,7.9,0,0,1-.017,2.519,1.016,1.016,0,0,0,.266.87l1.873,1.968-1.406,2.436-2.687-.65a1.018,1.018,0,0,0-.877.2,7.846,7.846,0,0,1-2.183,1.246,1.017,1.017,0,0,0-.619.665l-.767,2.607h-2.811l-.779-2.648a1.017,1.017,0,0,0-.607-.661,7.857,7.857,0,0,1-2.167-1.274,1.018,1.018,0,0,0-.887-.205l-2.645.64-1.406-2.436Z" transform="translate(-144.348 -140.427)"/>
        <path id="Trazado_1179165" data-name="Trazado 1179165" d="M221.326,226.756a1.017,1.017,0,1,0,0-2.033,3.407,3.407,0,1,1,2.782-1.445,1.017,1.017,0,0,0,1.661,1.172,5.436,5.436,0,1,0-4.444,2.306Z" transform="translate(-186.628 -186.616)"/>
      </g>
    </g>
  </g>
</svg>
