<svg xmlns="http://www.w3.org/2000/svg" xmlns:xlink="http://www.w3.org/1999/xlink" width="108" height="108" viewBox="0 0 108 108">
  <defs>
    <filter id="Trazado_904820" x="0" y="0" width="108" height="108" filterUnits="userSpaceOnUse">
      <feOffset dy="3" input="SourceAlpha"/>
      <feGaussianBlur stdDeviation="3" result="blur"/>
      <feFlood flood-opacity="0.161"/>
      <feComposite operator="in" in2="blur"/>
      <feComposite in="SourceGraphic"/>
    </filter>
  </defs>
  <g id="Grupo_1228257" data-name="Grupo 1228257" transform="translate(-620 -3017.965)">
    <g id="Grupo_1220047" data-name="Grupo 1220047" transform="translate(0 881.445)">
      <g id="Grupo_1174814" data-name="Grupo 1174814" transform="translate(628.999 2142.519)">
        <g id="Grupo_1173585" data-name="Grupo 1173585" transform="translate(0 0)">
          <g id="Grupo_1173428" data-name="Grupo 1173428">
            <g id="Grupo_1171958" data-name="Grupo 1171958">
              <g id="Grupo_1167341" data-name="Grupo 1167341">
                <g id="Grupo_1166792" data-name="Grupo 1166792">
                  <g transform="matrix(1, 0, 0, 1, -9, -6)" filter="url(#Trazado_904820)">
                    <g id="Trazado_904820-2" data-name="Trazado 904820" transform="translate(9 6)" fill="#f6f6fd">
                      <path d="M 44.99999618530273 88.50003814697266 C 39.12687301635742 88.50003814697266 33.43022155761719 87.35011291503906 28.06829643249512 85.08219909667969 C 22.88852119445801 82.89134979248047 18.23629570007324 79.75462341308594 14.24084663391113 75.75917053222656 C 10.24540901184082 71.76372528076172 7.108683586120605 67.11149597167969 4.917821407318115 61.93172454833984 C 2.649921178817749 56.56979751586914 1.499996185302734 50.87314605712891 1.499996185302734 45.00002288818359 C 1.499996185302734 39.12689971923828 2.649921178817749 33.43024826049805 4.917821407318115 28.06830978393555 C 7.108683586120605 22.88853454589844 10.24540901184082 18.2363224029541 14.24084663391113 14.24087333679199 C 18.23629570007324 10.24542331695557 22.88852119445801 7.108697891235352 28.06829643249512 4.917835235595703 C 33.43022155761719 2.649935483932495 39.12687301635742 1.500010371208191 44.99999618530273 1.500010371208191 C 50.87311935424805 1.500010371208191 56.56977081298828 2.649935483932495 61.93169784545898 4.917835235595703 C 67.11147308349609 7.108697891235352 71.76369476318359 10.24542331695557 75.75914764404297 14.24087333679199 C 79.75458526611328 18.2363224029541 82.89131164550781 22.88853454589844 85.08216857910156 28.06830978393555 C 87.35007476806641 33.43024826049805 88.5 39.12689971923828 88.5 45.00002288818359 C 88.5 50.87314605712891 87.35007476806641 56.56979751586914 85.08216857910156 61.93172454833984 C 82.89131164550781 67.11149597167969 79.75458526611328 71.76372528076172 75.75914764404297 75.75917053222656 C 71.76369476318359 79.75462341308594 67.11147308349609 82.89134979248047 61.93169784545898 85.08219909667969 C 56.56977081298828 87.35011291503906 50.87311935424805 88.50003814697266 44.99999618530273 88.50003814697266 Z" stroke="none"/>
                      <path d="M 44.99999618530273 3.000007629394531 C 39.32870864868164 3.000007629394531 33.82865142822266 4.110069274902344 28.65262603759766 6.299354553222656 C 23.65165710449219 8.414581298828125 19.15968322753906 11.44335174560547 15.301513671875 15.30152130126953 C 11.44333648681641 19.15969085693359 8.414566040039062 23.65166473388672 6.299339294433594 28.65263748168945 C 4.110054016113281 33.82867813110352 2.999992370605469 39.3287353515625 2.999992370605469 45.00002288818359 C 2.999992370605469 50.67131042480469 4.110054016113281 56.17136764526367 6.299339294433594 61.34739685058594 C 8.414566040039062 66.34838104248047 11.44333648681641 70.84033966064453 15.301513671875 74.69850921630859 C 19.15968322753906 78.55669403076172 23.65165710449219 81.58546447753906 28.65262603759766 83.70069122314453 C 33.82865142822266 85.88997650146484 39.32870864868164 87.00003814697266 44.99999618530273 87.00003814697266 C 50.67128372192383 87.00003814697266 56.17134094238281 85.88997650146484 61.34736633300781 83.70069122314453 C 66.34834289550781 81.58546447753906 70.84030914306641 78.55669403076172 74.69847869873047 74.69850921630859 C 78.55665588378906 70.84033966064453 81.58542633056641 66.34838104248047 83.70065307617188 61.34739685058594 C 85.88993835449219 56.17136764526367 87 50.67131042480469 87 45.00002288818359 C 87 39.3287353515625 85.88993835449219 33.82867813110352 83.70065307617188 28.65263748168945 C 81.58542633056641 23.65166473388672 78.55665588378906 19.15969085693359 74.69847869873047 15.30152130126953 C 70.84030914306641 11.44335174560547 66.34834289550781 8.414581298828125 61.34736633300781 6.299354553222656 C 56.17134094238281 4.110069274902344 50.67128372192383 3.000007629394531 44.99999618530273 3.000007629394531 M 44.99999618530273 7.62939453125e-06 C 69.85281372070312 7.62939453125e-06 90 20.14719390869141 90 45.00002288818359 C 90 69.85283660888672 69.85281372070312 90.00003814697266 44.99999618530273 90.00003814697266 C 20.14717864990234 90.00003814697266 -7.62939453125e-06 69.85283660888672 -7.62939453125e-06 45.00002288818359 C -7.62939453125e-06 20.14719390869141 20.14717864990234 7.62939453125e-06 44.99999618530273 7.62939453125e-06 Z" stroke="none" fill="#605f84"/>
                    </g>
                  </g>
                </g>
              </g>
            </g>
          </g>
        </g>
      </g>
    </g>
    <g id="nervio" transform="translate(640.858 3035.823)">
      <path id="Trazado_1179166" data-name="Trazado 1179166" d="M136.091,119.181a8.322,8.322,0,0,0,4.633,1.406,8.34,8.34,0,0,0-5.9,14.239,8.342,8.342,0,0,0-14.239,5.9,8.34,8.34,0,0,0-14.239-5.9,8.342,8.342,0,0,0-5.9-14.239,8.34,8.34,0,0,0,5.9-14.239,8.342,8.342,0,0,0,14.239-5.9,8.34,8.34,0,0,0,14.239,5.9,8.339,8.339,0,0,0,1.265,12.833Z" transform="translate(-87.446 -87.446)" fill="#92e9f7"/>
      <circle id="Elipse_12798" data-name="Elipse 12798" cx="8.738" cy="8.738" r="8.738" transform="translate(24.403 24.403)" fill="#ffffdb"/>
      <path id="Trazado_1179167" data-name="Trazado 1179167" d="M256,218.5v9.709a4.855,4.855,0,1,0,0-9.709Z" transform="translate(-222.859 -190.213)" fill="#ff6363"/>
      <path id="Trazado_1179168" data-name="Trazado 1179168" d="M224.326,223.355c0-2.681-.435-4.855-.971-4.855a4.855,4.855,0,1,0,0,9.709C223.891,228.209,224.326,226.036,224.326,223.355Z" transform="translate(-190.213 -190.213)" fill="#ff8178"/>
      <path id="Trazado_1179169" data-name="Trazado 1179169" d="M216.826,222.651A5.826,5.826,0,1,0,211,216.826,5.832,5.832,0,0,0,216.826,222.651Zm0-9.709a3.884,3.884,0,1,1-3.884,3.884A3.888,3.888,0,0,1,216.826,212.942Z" transform="translate(-183.684 -183.684)"/>
      <path id="Trazado_1179170" data-name="Trazado 1179170" d="M65.312,36.054a5.273,5.273,0,0,1-2.934-.888l-2.672-1.781c-.129-.086-.26-.166-.393-.244.133-.077.265-.158.393-.244l2.672-1.781a5.273,5.273,0,0,1,2.934-.888.971.971,0,1,0,0-1.942A7.208,7.208,0,0,0,61.3,29.5l-2.672,1.781a5.273,5.273,0,0,1-2.934.888H53.279a7.37,7.37,0,0,1-5.212-12.582l1.709-1.709a5.271,5.271,0,0,1,2.7-1.446l3.148-.63a7.209,7.209,0,0,0,3.7-1.977.971.971,0,0,0-1.373-1.373,5.271,5.271,0,0,1-2.7,1.446l-3.148.63c-.152.03-.3.066-.45.106.04-.149.076-.3.106-.45l.63-3.148a5.271,5.271,0,0,1,1.446-2.7.971.971,0,0,0-1.373-1.373,7.209,7.209,0,0,0-1.977,3.7L49.85,13.8a5.271,5.271,0,0,1-1.446,2.7l-1.709,1.709A7.37,7.37,0,0,1,34.113,13V10.587A5.273,5.273,0,0,1,35,7.653l1.781-2.672A7.208,7.208,0,0,0,38,.971a.971.971,0,0,0-1.942,0A5.273,5.273,0,0,1,35.166,3.9L33.385,6.576c-.086.129-.166.26-.244.393-.077-.133-.158-.265-.244-.393L31.117,3.9A5.272,5.272,0,0,1,30.229.971a.971.971,0,0,0-1.942,0A7.208,7.208,0,0,0,29.5,4.982l1.781,2.672a5.273,5.273,0,0,1,.888,2.934V13a7.37,7.37,0,0,1-12.582,5.211L17.88,16.507a5.271,5.271,0,0,1-1.446-2.7l-.63-3.148a7.209,7.209,0,0,0-1.977-3.7.971.971,0,0,0-1.373,1.373,5.271,5.271,0,0,1,1.446,2.7l.63,3.148c.03.152.066.3.106.45-.149-.04-.3-.076-.45-.106l-3.148-.63a5.271,5.271,0,0,1-2.7-1.446.971.971,0,0,0-1.373,1.373,7.209,7.209,0,0,0,3.7,1.977l3.148.63a5.271,5.271,0,0,1,2.7,1.446l1.709,1.709A7.37,7.37,0,0,1,13,32.17H10.587a5.273,5.273,0,0,1-2.934-.888L4.982,29.5A7.209,7.209,0,0,0,.971,28.287a.971.971,0,1,0,0,1.942,5.273,5.273,0,0,1,2.934.888L6.576,32.9c.129.086.26.166.393.244-.133.077-.265.158-.393.244L3.9,35.166a5.273,5.273,0,0,1-2.934.888A.971.971,0,1,0,.971,38a7.208,7.208,0,0,0,4.011-1.214L7.653,35a5.273,5.273,0,0,1,2.934-.888H13a7.37,7.37,0,0,1,5.211,12.582L16.507,48.4a5.271,5.271,0,0,1-2.7,1.446l-3.148.63a7.209,7.209,0,0,0-3.7,1.977A.971.971,0,0,0,8.334,53.83a5.271,5.271,0,0,1,2.7-1.446l3.148-.63c.152-.03.3-.066.45-.106-.04.149-.076.3-.106.45l-.63,3.148a5.271,5.271,0,0,1-1.446,2.7.971.971,0,0,0,1.373,1.373,7.209,7.209,0,0,0,1.977-3.7l.63-3.148a5.271,5.271,0,0,1,1.446-2.7l1.709-1.709a7.37,7.37,0,0,1,12.582,5.211V55.7a5.273,5.273,0,0,1-.888,2.934L29.5,61.3a7.208,7.208,0,0,0-1.214,4.011.971.971,0,1,0,1.942,0,5.273,5.273,0,0,1,.888-2.934L32.9,59.706c.086-.129.166-.26.244-.393.077.133.158.265.244.393l1.781,2.672a5.273,5.273,0,0,1,.888,2.934.971.971,0,1,0,1.942,0A7.208,7.208,0,0,0,36.782,61.3L35,58.629a5.273,5.273,0,0,1-.888-2.934V53.279a7.37,7.37,0,0,1,12.582-5.211L48.4,49.776a5.271,5.271,0,0,1,1.446,2.7l.63,3.148a7.209,7.209,0,0,0,1.977,3.7.971.971,0,0,0,1.373-1.373,5.271,5.271,0,0,1-1.446-2.7l-.63-3.148c-.03-.152-.066-.3-.106-.45.149.04.3.076.45.106l3.148.63a5.271,5.271,0,0,1,2.7,1.446.971.971,0,0,0,1.373-1.373,7.209,7.209,0,0,0-3.7-1.977l-3.148-.63a5.271,5.271,0,0,1-2.7-1.446l-1.709-1.709a7.37,7.37,0,0,1,5.211-12.582H55.7A5.273,5.273,0,0,1,58.63,35L61.3,36.782A7.208,7.208,0,0,0,65.312,38a.971.971,0,1,0,0-1.942ZM44.676,37.919a9.288,9.288,0,0,0-.228,6.529,9.327,9.327,0,0,0-11.306,4.683,9.327,9.327,0,0,0-11.306-4.683,9.327,9.327,0,0,0-4.683-11.306,9.327,9.327,0,0,0,4.683-11.307,9.325,9.325,0,0,0,11.307-4.682,9.307,9.307,0,0,0,11.307,4.682,9.327,9.327,0,0,0,4.683,11.307,9.289,9.289,0,0,0-4.455,4.778Z"/>
      <path id="Trazado_1179171" data-name="Trazado 1179171" d="M190.709,181a9.681,9.681,0,0,0-5.168,1.491.971.971,0,0,0,1.035,1.643,7.77,7.77,0,1,1-2.442,2.442.971.971,0,1,0-1.643-1.035A9.709,9.709,0,1,0,190.709,181Z" transform="translate(-157.568 -157.568)"/>
    </g>
  </g>
</svg>
