<svg xmlns="http://www.w3.org/2000/svg" width="190" height="138.61" viewBox="0 0 190 138.61">
  <g id="Grupo_1228716" data-name="Grupo 1228716" transform="translate(-180.054 -471.39)">
    <rect id="Rectángulo_422852" data-name="Rectángulo 422852" width="190" height="128" rx="12" transform="translate(180.054 482)" fill="#b1aef1"/>
    <g id="fisiologia" transform="translate(200 471.389)">
      <g id="Grupo_1228697" data-name="Grupo 1228697" transform="translate(26.235 2.012)">
        <path id="Trazado_1179784" data-name="Trazado 1179784" d="M135.853,75.488V72.065a2.935,2.935,0,0,1,2.935-2.935h9.607a10.839,10.839,0,0,0,10.839-10.839v-5.13a2.52,2.52,0,0,1,2.52-2.52h1.514a2.52,2.52,0,0,0,1.832-4.25l-5.065-5.363a2.935,2.935,0,0,1-.8-2.015V36.066A28.492,28.492,0,1,0,113.02,58.482a2.956,2.956,0,0,1,1.127,2.306v14.7a2.935,2.935,0,0,1-1.976,2.774L88.292,86.52a21.319,21.319,0,0,0-14.351,20.148v30.8a3.3,3.3,0,0,0,3.3,3.3H172.76a3.3,3.3,0,0,0,3.3-3.3v-30.8A21.319,21.319,0,0,0,161.708,86.52l-23.879-8.258A2.935,2.935,0,0,1,135.853,75.488Z" transform="translate(-73.941 -7.5)" fill="#ffbd86"/>
      </g>
      <g id="Grupo_1228698" data-name="Grupo 1228698" transform="translate(26.236 2.011)">
        <path id="Trazado_1179785" data-name="Trazado 1179785" d="M89.288,139.749v-30.8A21.319,21.319,0,0,1,103.639,88.8l23.879-8.258a2.935,2.935,0,0,0,1.976-2.774v-14.7a2.957,2.957,0,0,0-1.127-2.306A28.617,28.617,0,0,1,142.581,10a28.615,28.615,0,0,0-29.56,48.476,2.956,2.956,0,0,1,1.127,2.306v14.7a2.935,2.935,0,0,1-1.975,2.774L88.293,86.52a21.319,21.319,0,0,0-14.351,20.148v30.8a3.3,3.3,0,0,0,3.3,3.3h12.21a3.286,3.286,0,0,1-.163-1.021Z" transform="translate(-73.942 -7.499)" fill="#f6a96c"/>
      </g>
      <g id="Grupo_1228702" data-name="Grupo 1228702" transform="translate(40.436 66.02)">
        <path id="Trazado_1179786" data-name="Trazado 1179786" d="M146.832,348.382a3.469,3.469,0,0,1-4.078-5.613l11.157-8.106v-3.69a5.588,5.588,0,0,0-8.992-4.431c-14.409,11.079-17.5,25.046-18.006,32.835a5.586,5.586,0,0,0,5.576,5.948h15.835a5.586,5.586,0,0,0,5.586-5.586v-16.5Z" transform="translate(-126.901 -304.146)" fill="#fe653b"/>
        <g id="Grupo_1228699" data-name="Grupo 1228699" transform="translate(0.001 21.229)">
          <path id="Trazado_1179787" data-name="Trazado 1179787" d="M133.645,359.378c.505-7.789,3.6-21.756,18.006-32.835l.04-.029a5.551,5.551,0,0,0-6.77.029c-14.409,11.079-17.5,25.046-18.006,32.835a5.586,5.586,0,0,0,5.576,5.948h6.73a5.586,5.586,0,0,1-5.576-5.948Z" transform="translate(-126.903 -325.377)" fill="#ef4424"/>
        </g>
        <path id="Trazado_1179788" data-name="Trazado 1179788" d="M328.078,359.377c-.505-7.789-3.6-21.756-18.006-32.835a5.588,5.588,0,0,0-8.992,4.431v3.69l11.073,8.045a3.538,3.538,0,0,1,.961,4.748,3.468,3.468,0,0,1-4.954.926l-7.079-5.143v16.5a5.586,5.586,0,0,0,5.586,5.586H322.5A5.586,5.586,0,0,0,328.078,359.377Z" transform="translate(-254.374 -304.146)" fill="#fe653b"/>
        <g id="Grupo_1228700" data-name="Grupo 1228700" transform="translate(46.706 21.229)">
          <path id="Trazado_1179789" data-name="Trazado 1179789" d="M307.836,339.573v-8.6a5.493,5.493,0,0,1,2.209-4.451,5.587,5.587,0,0,0-8.964,4.451v3.69Z" transform="translate(-301.081 -325.377)" fill="#ef4424"/>
          <path id="Trazado_1179790" data-name="Trazado 1179790" d="M307.836,408.493V396.9l-6.755-4.908v16.5a5.586,5.586,0,0,0,5.586,5.586h6.755A5.586,5.586,0,0,1,307.836,408.493Z" transform="translate(-301.081 -374.13)" fill="#ef4424"/>
        </g>
        <g id="Grupo_1228701" data-name="Grupo 1228701" transform="translate(14.422)">
          <path id="Trazado_1179791" data-name="Trazado 1179791" d="M252.975,252.663H256.8a3.332,3.332,0,0,1,1.556.385v-6.84a3.334,3.334,0,0,1-1.556.385h-3.826a3.332,3.332,0,0,1-1.556-.385v6.84A3.332,3.332,0,0,1,252.975,252.663Z" transform="translate(-232.452 -246.207)" fill="#fff3de"/>
          <path id="Trazado_1179792" data-name="Trazado 1179792" d="M256.8,300.306a3.332,3.332,0,0,1,1.556.384v-6.84a3.337,3.337,0,0,1-1.556.385h-3.826a3.332,3.332,0,0,1-1.556-.385v6.84a3.334,3.334,0,0,1,1.556-.384Z" transform="translate(-232.451 -281.075)" fill="#fff3de"/>
          <path id="Trazado_1179793" data-name="Trazado 1179793" d="M224.043,354.5l-17.452-12.68v-.332a3.333,3.333,0,0,1-1.556.385h-3.826a3.331,3.331,0,0,1-1.556-.385v.332l-17.537,12.741a3.469,3.469,0,0,0,4.078,5.613l16.139-11.726a1.341,1.341,0,0,1,1.576,0l16.139,11.726A3.468,3.468,0,0,0,225,359.25a3.538,3.538,0,0,0-.961-4.748Z" transform="translate(-180.686 -315.941)" fill="#fff3de"/>
        </g>
      </g>
      <g id="Grupo_1228704" data-name="Grupo 1228704" transform="translate(72.029 59.701)">
        <g id="Grupo_1228703" data-name="Grupo 1228703">
          <path id="Trazado_1179794" data-name="Trazado 1179794" d="M251.9,229.345h-3.826a3.352,3.352,0,1,1,0-6.7H251.9a3.352,3.352,0,0,1,0,6.7Z" transform="translate(-244.72 -222.641)" fill="#ffe5c2"/>
        </g>
      </g>
      <g id="Grupo_1228706" data-name="Grupo 1228706" transform="translate(72.029 72.476)">
        <g id="Grupo_1228705" data-name="Grupo 1228705">
          <path id="Trazado_1179795" data-name="Trazado 1179795" d="M251.9,276.987h-3.826a3.352,3.352,0,1,1,0-6.7H251.9a3.352,3.352,0,0,1,0,6.7Z" transform="translate(-244.72 -270.283)" fill="#ffe5c2"/>
        </g>
      </g>
      <g id="Grupo_1228708" data-name="Grupo 1228708" transform="translate(72.029 85.251)">
        <g id="Grupo_1228707" data-name="Grupo 1228707">
          <path id="Trazado_1179796" data-name="Trazado 1179796" d="M251.9,324.629h-3.826a3.352,3.352,0,1,1,0-6.7H251.9a3.352,3.352,0,0,1,0,6.7Z" transform="translate(-244.72 -317.925)" fill="#ffe5c2"/>
        </g>
      </g>
      <g id="Grupo_1228709" data-name="Grupo 1228709" transform="translate(69.691 11.58)">
        <path id="Trazado_1179797" data-name="Trazado 1179797" d="M249.047,43.184c-6.828,0-12.435,4.015-13.042,9.14a.832.832,0,0,0,.829.924H261.26a.832.832,0,0,0,.829-.924C261.482,47.2,255.875,43.184,249.047,43.184Z" transform="translate(-236 -43.184)" fill="#fe653b"/>
      </g>
      <g id="Grupo_1228710" data-name="Grupo 1228710" transform="translate(69.691 11.58)">
        <path id="Trazado_1179798" data-name="Trazado 1179798" d="M245.037,52.323c.466-3.933,3.878-7.21,8.526-8.523a16.628,16.628,0,0,0-4.516-.617c-6.828,0-12.435,4.015-13.042,9.14a.832.832,0,0,0,.829.924h9.032A.832.832,0,0,1,245.037,52.323Z" transform="translate(-235.998 -43.183)" fill="#ef4424"/>
      </g>
      <g id="Grupo_1228714" data-name="Grupo 1228714" transform="translate(10.902 33.243)">
        <g id="Grupo_1228711" data-name="Grupo 1228711" transform="translate(0)">
          <path id="Trazado_1179799" data-name="Trazado 1179799" d="M51.767,126.481a8.574,8.574,0,0,0-12.126,0L35.52,130.6,31.4,126.481a8.574,8.574,0,0,0-12.126,12.126l15.675,15.675a.81.81,0,0,0,1.146,0l15.675-15.675A8.574,8.574,0,0,0,51.767,126.481Z" transform="translate(-16.761 -123.97)" fill="#fe653b"/>
        </g>
        <g id="Grupo_1228713" data-name="Grupo 1228713" transform="translate(0 0.001)">
          <g id="Grupo_1228712" data-name="Grupo 1228712">
            <path id="Trazado_1179800" data-name="Trazado 1179800" d="M28.207,138.61A8.573,8.573,0,0,1,29.8,125.229,8.574,8.574,0,0,0,19.271,138.61l15.675,15.675a.81.81,0,0,0,1.146,0l3.9-3.9Z" transform="translate(-16.76 -123.974)" fill="#ef4424"/>
          </g>
        </g>
      </g>
      <g id="Grupo_1228715" data-name="Grupo 1228715" transform="translate(8.756 0.001)">
        <path id="Trazado_1179801" data-name="Trazado 1179801" d="M213.174,119.051a2.011,2.011,0,0,0-2.793.537l-8.926,13.176a23.27,23.27,0,0,0-5.816-2.983l-23.879-8.258a.924.924,0,0,1-.622-.873v-3.424a.925.925,0,0,1,.924-.924h9.607a12.864,12.864,0,0,0,12.85-12.85v-5.13a.509.509,0,0,1,.508-.509h1.514a4.531,4.531,0,0,0,3.294-7.642L194.77,84.81a.921.921,0,0,1-.252-.634V81.229a31.073,31.073,0,0,0-1.892-10.7,2.011,2.011,0,0,0-3.778,1.381,27.063,27.063,0,0,1,1.648,9.317v2.947a4.927,4.927,0,0,0,1.35,3.4l5.065,5.363a.509.509,0,0,1-.37.858h-1.514a4.536,4.536,0,0,0-4.531,4.531v1.926h-7.87a2.011,2.011,0,1,0,0,4.022h7.83a8.838,8.838,0,0,1-8.788,8.01h-9.607a4.951,4.951,0,0,0-4.946,4.946v3.424a4.949,4.949,0,0,0,3.329,4.674l23.879,8.258A19.275,19.275,0,0,1,199.2,136.1l-5.4,7.976h-8.337a51.588,51.588,0,0,0-7.119-6.6,7.6,7.6,0,0,0-12.22,5.775l-1.451-1.055a5.337,5.337,0,0,0-.914-6.932v-4.788a5.338,5.338,0,0,0,0-7.987V117.7a5.355,5.355,0,0,0-3.567-9.356h-3.826a5.355,5.355,0,0,0-3.567,9.356v4.788a5.338,5.338,0,0,0,0,7.987v4.788a5.337,5.337,0,0,0-.914,6.932l-1.451,1.055a7.6,7.6,0,0,0-12.22-5.775c-15.168,11.662-18.281,26.5-18.787,34.3A7.6,7.6,0,0,0,127,179.862h4.9a2.011,2.011,0,0,0,0-4.022H127a3.574,3.574,0,0,1-3.569-3.807c.462-7.125,3.314-20.675,17.225-31.371a3.577,3.577,0,0,1,5.755,2.837v2.665l-10.329,7.5a5.48,5.48,0,0,0,2.363,9.846,5.571,5.571,0,0,0,.869.069,5.439,5.439,0,0,0,3.209-1.048l3.886-2.824v12.554a3.579,3.579,0,0,1-3.575,3.575h-1.554a2.011,2.011,0,0,0,0,4.022h1.554a7.606,7.606,0,0,0,7.6-7.6V156.788l7.837-5.694,7.837,5.694v15.476a7.606,7.606,0,0,0,7.6,7.6h15.835a7.6,7.6,0,0,0,7.583-8.089,46.136,46.136,0,0,0-8.458-23.678h6.194a2.011,2.011,0,0,0,1.665-.883l5.711-8.43a19.3,19.3,0,0,1,5.084,13.05v9.834a2.011,2.011,0,0,0,4.022,0V151.83a23.328,23.328,0,0,0-6.8-16.455l9.166-13.531a2.011,2.011,0,0,0-.537-2.793Zm-56.813-6.688h3.826a1.341,1.341,0,1,1,0,2.681h-3.826a1.341,1.341,0,1,1,0-2.681Zm3.371,6.7v2.049h-2.916v-2.049Zm-3.371,6.071h3.826a1.341,1.341,0,1,1,0,2.681h-3.826a1.341,1.341,0,1,1,0-2.681Zm3.371,6.7v2.049h-2.916v-2.049Zm-3.371,6.071h3.826a1.341,1.341,0,1,1,0,2.681h-3.826a1.341,1.341,0,1,1,0-2.681Zm3.883,9.64a3.343,3.343,0,0,0-3.94,0l-16.139,11.726a1.458,1.458,0,1,1-1.714-2.359l17.041-12.381a5.34,5.34,0,0,0,.87.077h3.826a5.375,5.375,0,0,0,.87-.077l16.956,12.32a1.532,1.532,0,0,1,.454,2.028,1.46,1.46,0,0,1-1.23.671,1.444,1.444,0,0,1-.854-.279Zm32.868,24.478a3.574,3.574,0,0,1-3.569,3.807H173.708a3.579,3.579,0,0,1-3.575-3.575V159.71l3.886,2.824a5.479,5.479,0,0,0,7.825-1.461,5.534,5.534,0,0,0-1.467-7.467l-10.244-7.443V143.5a3.51,3.51,0,0,1,2-3.209,3.6,3.6,0,0,1,1.6-.38,3.53,3.53,0,0,1,2.162.751c13.911,10.7,16.763,24.246,17.225,31.371Z" transform="translate(-89.736 -50.651)"/>
        <path id="Trazado_1179802" data-name="Trazado 1179802" d="M128.353,118.388a2.011,2.011,0,0,0-2.011,2.011v11.583a1.29,1.29,0,0,1-1.288,1.288H29.535a1.29,1.29,0,0,1-1.289-1.288v-30.8a19.318,19.318,0,0,1,13-18.247l23.88-8.258A4.949,4.949,0,0,0,68.452,70V55.3a4.948,4.948,0,0,0-1.883-3.878A26.6,26.6,0,0,1,97.121,7.977a25.639,25.639,0,0,1,6.454,5.691,2.011,2.011,0,1,0,3.126-2.532,29.657,29.657,0,0,0-7.465-6.58A30.627,30.627,0,0,0,64.059,54.564a.947.947,0,0,1,.372.735V70a.924.924,0,0,1-.622.873l-2.306.8L51.547,53.55a2.011,2.011,0,0,0-1.763-1.043H44.126l3.2-3.205a10.585,10.585,0,0,0,0-14.97h0a10.6,10.6,0,0,0-14.97,0l-2.7,2.7-2.7-2.7A10.588,10.588,0,0,0,9.589,45.6a2.01,2.01,0,0,0,1.178,3.639h1.167l.057.06L27.666,64.976a2.821,2.821,0,0,0,3.99,0L40.1,56.529h8.491L57.646,73,39.929,79.131A23.342,23.342,0,0,0,24.224,101.18v30.8a5.317,5.317,0,0,0,5.311,5.311h95.519a5.317,5.317,0,0,0,5.311-5.311V120.4a2.012,2.012,0,0,0-2.011-2.011Zm-98.692-57.1L17.62,49.242h3.3l.743,2.3a2.011,2.011,0,0,0,1.861,1.393h.053a2.011,2.011,0,0,0,1.879-1.294l1.02-2.671,1.938,5.286A2.011,2.011,0,0,0,30.3,55.578h.04a2.01,2.01,0,0,0,1.874-1.394l1.637-5.075h1.9a2.011,2.011,0,1,0,0-4.022H32.388a2.011,2.011,0,0,0-1.914,1.394l-.294.911L28.4,42.543a2.011,2.011,0,0,0-1.875-1.319h-.013a2.012,2.012,0,0,0-1.879,1.294L23.48,45.543a2.009,2.009,0,0,0-1.1-.324H13.862a6.565,6.565,0,0,1,10.255-8.044L28.239,41.3a2.011,2.011,0,0,0,2.844,0l4.122-4.122a6.563,6.563,0,1,1,9.281,9.282Z" transform="translate(-8.756 -0.001)"/>
        <path id="Trazado_1179803" data-name="Trazado 1179803" d="M232.344,109.09h1.314a2.011,2.011,0,0,0,0-4.022h-1.314a8.321,8.321,0,0,0,0,16.642h1.314a2.011,2.011,0,1,0,0-4.022h-1.314a4.3,4.3,0,0,1,0-8.6Z" transform="translate(-166.3 -76.894)"/>
        <path id="Trazado_1179804" data-name="Trazado 1179804" d="M343.117,98.5a2.011,2.011,0,0,0-2.011,2.011v2.935a2.011,2.011,0,1,0,4.022,0v-2.935A2.011,2.011,0,0,0,343.117,98.5Z" transform="translate(-251.987 -72.088)"/>
        <path id="Trazado_1179805" data-name="Trazado 1179805" d="M448.549,82.2V68.762a2.011,2.011,0,0,0-4.022,0V70.8h-12V68.762a2.011,2.011,0,1,0-4.022,0V82.2a10.452,10.452,0,0,0,4.161,8.322l2.507,1.88-2.507,1.88a10.452,10.452,0,0,0-4.161,8.322v13.329a2.011,2.011,0,0,0,4.022,0v-2.18h12v2.18a2.011,2.011,0,0,0,4.022,0V102.609a10.453,10.453,0,0,0-4.161-8.322l-2.507-1.88,2.507-1.88A10.453,10.453,0,0,0,448.549,82.2Zm-16.018-7.382h12v4.227h-12Zm12,34.913h-12v-4.227h12ZM441.975,97.5a6.416,6.416,0,0,1,2.451,3.982H432.632a6.416,6.416,0,0,1,2.451-3.982l3.445-2.584Zm0-10.2-3.445,2.584-3.445-2.584a6.415,6.415,0,0,1-2.49-4.237h11.871A6.416,6.416,0,0,1,441.975,87.309Z" transform="translate(-315.953 -48.852)"/>
        <path id="Trazado_1179806" data-name="Trazado 1179806" d="M257.9,48.813a2.836,2.836,0,0,0,.7-2.215c-.737-6.222-7.2-10.914-15.039-10.914s-14.3,4.692-15.039,10.914a2.843,2.843,0,0,0,2.826,3.172h24.426A2.851,2.851,0,0,0,257.9,48.813Zm-25.073-3.065c1.25-3.477,5.652-6.041,10.731-6.041s9.481,2.564,10.731,6.041Z" transform="translate(-169.575 -26.116)"/>
        <path id="Trazado_1179807" data-name="Trazado 1179807" d="M122.8,232.759a2.011,2.011,0,0,0,0-4.022h-5.183a2.011,2.011,0,0,0,0,4.022Z" transform="translate(-86.956 -167.402)"/>
        <path id="Trazado_1179808" data-name="Trazado 1179808" d="M22,232.759h5.182a2.011,2.011,0,0,0,0-4.022H22a2.011,2.011,0,0,0,0,4.022Z" transform="translate(-16.978 -167.402)"/>
        <path id="Trazado_1179809" data-name="Trazado 1179809" d="M22,256.984H52.824a2.011,2.011,0,0,0,0-4.022H22a2.011,2.011,0,0,0,0,4.022Z" transform="translate(-16.978 -185.131)"/>
        <path id="Trazado_1179810" data-name="Trazado 1179810" d="M44.47,279.2a2.011,2.011,0,0,0-2.011-2.011H22a2.011,2.011,0,0,0,0,4.022H42.459A2.011,2.011,0,0,0,44.47,279.2Z" transform="translate(-16.978 -202.859)"/>
      </g>
    </g>
  </g>
</svg>
