<svg xmlns="http://www.w3.org/2000/svg" xmlns:xlink="http://www.w3.org/1999/xlink" width="190" height="239" viewBox="0 0 190 239">
  <defs>
    <clipPath id="clip-path">
      <rect id="Rectángulo_422858" data-name="Rectángulo 422858" width="190" height="239" transform="translate(1230.054 2405)" fill="#fff" stroke="#707070" stroke-width="1"/>
    </clipPath>
  </defs>
  <g id="Enmascarar_grupo_1211499" data-name="Enmascarar grupo 1211499" transform="translate(-1230.054 -2405)" clip-path="url(#clip-path)">
    <g id="Grupo_1228696" data-name="Grupo 1228696" transform="translate(-2706.432 2080.14)">
      <g id="Grupo_1228434" data-name="Grupo 1228434" transform="translate(3936.432 345.89)">
        <g id="Grupo_1228425" data-name="Grupo 1228425" transform="translate(0 173.337)">
          <ellipse id="Elipse_12820" data-name="Elipse 12820" cx="87.336" cy="18.666" rx="87.336" ry="18.666" transform="translate(6.5)" fill="#4f0d45" opacity="0.35"/>
          <ellipse id="Elipse_12821" data-name="Elipse 12821" cx="65.284" cy="9.357" rx="65.284" ry="9.357" transform="translate(28.552 9.31)" fill="#4f0d45" opacity="0.73"/>
        </g>
        <g id="Grupo_1228426" data-name="Grupo 1228426" transform="translate(24.917 12.738)">
          <path id="Trazado_1179541" data-name="Trazado 1179541" d="M268.743,204.81s4.03-3.232,2.714-4.432-6.6,2.23-6.6,2.23-16.983-9.348-18.268-10.958-8.063-17.173-11.492-21.46-19.933-7.377-19.933-7.377-.024-.18-.06-.5c-.1-.886-.3-2.83-.351-4.862a9.307,9.307,0,0,0,4.574-7.157l.032-.336a3.139,3.139,0,0,0,1.125-5.994l.009-.038A21.941,21.941,0,0,1,222.049,141c1.806-2.863.286-7.09-3.888-10.692s-17.153-4.46-16.81,2.745c-3.929-.5-6.144,3.665-2.012,10.829h0v0a3.141,3.141,0,0,0,1.106,6.081c.1,0,.2-.006.3-.015l.033.342a9.3,9.3,0,0,0,3.66,6.55c0,.4-.013.8-.028,1.2-.1,2.531-.395,4.772-.395,4.772s-16.5,3.089-19.93,7.377-10.207,19.853-11.492,21.46-18.27,10.958-18.27,10.958-5.289-3.431-6.6-2.23,2.716,4.432,2.716,4.432-9.206,5.66-8.662,7.147c.534,1.468,8.109-3.1,8.313-3.227-.171.142-5.9,4.877-5.455,6.285s7.218-3.975,7.563-4.247c-.281.306-5.383,5.857-4.1,7.134,1.316,1.316,7.69-6.773,7.69-6.773s20.669-8.691,23.585-11.009,9.435-15.435,9.435-15.435,1.716,19.468,1.371,25.128-6.773,79.3-6.86,80.6-18.438,11.6-18.612,14.167,32.334,1.03,32.421-.515-.173-9.606,0-12.264,12.469-67.154,12.469-67.154,12.3,64.495,12.469,67.154-.087,10.722,0,12.264,32.589,3.089,32.418.515-18.525-12.863-18.612-14.167-6.518-74.94-6.86-80.6,1.371-25.128,1.371-25.128,6.518,13.121,9.435,15.435S263.4,211.131,263.4,211.131s6.374,8.09,7.69,6.773c1.28-1.277-3.824-6.829-4.1-7.134.344.272,7.12,5.642,7.565,4.247s-5.286-6.143-5.457-6.285c.2.123,7.779,4.694,8.316,3.227C277.946,210.47,268.743,204.81,268.743,204.81Z" transform="translate(-141.751 -127.599)" fill="#4f0d45"/>
        </g>
        <g id="Grupo_1228433" data-name="Grupo 1228433" transform="translate(20.073)">
          <g id="Grupo_1228432" data-name="Grupo 1228432">
            <path id="Trazado_1179542" data-name="Trazado 1179542" d="M279.254,215.523c-.575,1.573-8.69-3.326-8.91-3.457.183.152,6.329,5.225,5.847,6.734s-7.736-4.259-8.105-4.55c.3.328,5.77,6.275,4.4,7.644-1.41,1.41-8.239-7.257-8.239-7.257s-22.145-9.312-25.27-11.794S228.867,186.3,228.867,186.3s-1.838,20.858-1.47,26.922,7.26,84.961,7.35,86.358,19.758,12.423,19.941,15.18-34.643,1.1-34.733-.552.183-10.291,0-13.14S206.6,229.123,206.6,229.123s-13.176,69.1-13.359,71.949.09,11.488,0,13.14-34.919,3.31-34.736.552,19.848-13.782,19.941-15.18,6.984-80.292,7.35-86.358-1.47-26.922-1.47-26.922-6.984,14.058-10.108,16.538-25.27,11.794-25.27,11.794-6.829,8.667-8.239,7.257c-1.369-1.369,4.1-7.317,4.4-7.644-.369.291-7.626,6.045-8.1,4.55s5.661-6.582,5.844-6.734c-.219.132-8.334,5.03-8.907,3.457-.583-1.593,9.281-7.657,9.281-7.657s-4.32-3.462-2.911-4.749,7.074,2.39,7.074,2.39,18.2-10.015,19.575-11.74,8.637-18.4,12.313-22.993,21.353-7.9,21.353-7.9.312-2.4.423-5.112c.041-1.078.051-2.2,0-3.248h11.1a54.216,54.216,0,0,0,.358,7.827c.039.341.064.534.064.534s17.68,3.31,21.356,7.9,10.933,21.271,12.313,22.993,19.572,11.74,19.572,11.74,5.667-3.677,7.074-2.39-2.908,4.749-2.908,4.749S279.834,213.93,279.254,215.523Z" transform="translate(-133.913 -125.14)" fill="#f7caba"/>
            <path id="Trazado_1179543" data-name="Trazado 1179543" d="M254,162.337c-4.553.477-7.582-1.732-11.457-4.578.041-1.078.051-2.2,0-3.248h11.1A54.209,54.209,0,0,0,254,162.337Z" transform="translate(-175.408 -125.141)" fill="#ef7d77"/>
            <path id="Trazado_1179544" data-name="Trazado 1179544" d="M232.743,125.207c-5.044-8.147-2.655-12.926,1.694-12.374-.368-7.719,13.538-6.8,18.01-2.94s6.1,8.388,4.166,11.455a19.744,19.744,0,0,0-2.484,5.411" transform="translate(-170.582 -106.987)" fill="#280432"/>
            <path id="Trazado_1179545" data-name="Trazado 1179545" d="M236.955,138.239a3.368,3.368,0,1,1-3.368-3.368A3.367,3.367,0,0,1,236.955,138.239Z" transform="translate(-170.701 -117.638)" fill="#ef7d77"/>
            <path id="Trazado_1179546" data-name="Trazado 1179546" d="M269.443,138.239a3.368,3.368,0,1,1-3.368-3.368A3.367,3.367,0,0,1,269.443,138.239Z" transform="translate(-183.112 -117.638)" fill="#ef7d77"/>
            <path id="Trazado_1179547" data-name="Trazado 1179547" d="M245.513,141.566h0a9.981,9.981,0,0,1-9.936-9.033l-1.08-11.316A11.016,11.016,0,0,1,245.513,110.2h0a11.016,11.016,0,0,1,11.016,11.016l-1.08,11.316A9.982,9.982,0,0,1,245.513,141.566Z" transform="translate(-172.335 -108.215)" fill="#f7caba"/>
            <g id="Grupo_1228431" data-name="Grupo 1228431" transform="translate(17.436 13.508)">
              <g id="Grupo_1228429" data-name="Grupo 1228429">
                <g id="Grupo_1228428" data-name="Grupo 1228428">
                  <g id="Grupo_1228427" data-name="Grupo 1228427">
                    <path id="Trazado_1179548" data-name="Trazado 1179548" d="M211.885,128.844a14.829,14.829,0,0,0-.325,12.815c.828,1.808,2.021.861,2.761,2.706,1.74,4.34.779,9.236-.247,14.4a15.224,15.224,0,0,0-19.813,7.742c-1.51,3.34-1.891,7.337-4.46,9.951-1.9,1.93-4.68,2.746-6.7,4.55-2.6,2.327-3.568,5.924-5.313,8.947a19.118,19.118,0,0,1-15.664,9.373" transform="translate(-162.126 -128.844)" fill="none" stroke="#4073f5" stroke-linecap="round" stroke-linejoin="round" stroke-miterlimit="10" stroke-width="1.669"/>
                    <path id="Trazado_1179549" data-name="Trazado 1179549" d="M242.724,177.708c-.07,3.123,2.788,5.549,3.482,8.6a5.99,5.99,0,0,1-.97,4.863,5.15,5.15,0,0,1-4.447,2.062,4.526,4.526,0,0,1-3.848-2.931" transform="translate(-190.705 -147.51)" fill="none" stroke="#4073f5" stroke-linecap="round" stroke-linejoin="round" stroke-miterlimit="10" stroke-width="1.669"/>
                    <path id="Trazado_1179550" data-name="Trazado 1179550" d="M247.437,190.3a3.521,3.521,0,0,1-6.816,1.769" transform="translate(-192.111 -152.321)" fill="none" stroke="#4073f5" stroke-linecap="round" stroke-linejoin="round" stroke-miterlimit="10" stroke-width="1.669"/>
                    <path id="Trazado_1179551" data-name="Trazado 1179551" d="M237.719,131.276c-1.723,2.329-1.659,5.524-1.076,8.362s1.614,3.048,1.573,5.945c-.074,5.385-3.837,10.536-2.626,15.785a18,18,0,0,0,2.484,5.2,15.737,15.737,0,0,1,2.359,5.249,5.576,5.576,0,0,1-1.586,5.287c-2.009,1.658-4.966,1.08-7.512.533s-5.652-.792-7.311,1.216c-1.408,1.705-.965,4.456.6,6.016a7.6,7.6,0,0,0,6.151,1.833,22.5,22.5,0,0,0,6.312-1.96" transform="translate(-185.446 -129.773)" fill="none" stroke="#ec4c51" stroke-linecap="round" stroke-linejoin="round" stroke-miterlimit="10" stroke-width="1.669"/>
                    <path id="Trazado_1179552" data-name="Trazado 1179552" d="M236.076,204.71a5.337,5.337,0,0,1-3.2-1.034,31.685,31.685,0,0,0-2.855-1.877,4.027,4.027,0,0,0-3.3-.32" transform="translate(-186.803 -156.503)" fill="none" stroke="#ec4c51" stroke-linecap="round" stroke-linejoin="round" stroke-miterlimit="10" stroke-width="1.669"/>
                    <path id="Trazado_1179553" data-name="Trazado 1179553" d="M213.383,179.824c-2-1.92-5.327-1.513-7.788-.229s-4.515,3.281-7.053,4.406c-2.622,1.163-5.8,1.436-7.74,3.549-1.441,1.567-1.852,3.811-1.995,5.935a22.027,22.027,0,0,1-.84,6.3c-1.345,3.59-4.96,5.775-8.486,7.28s-7.338,2.688-10.1,5.345a26.394,26.394,0,0,1-2.28,2.208,3.643,3.643,0,0,1-2.964.81" transform="translate(-162.894 -147.815)" fill="none" stroke="#ec4c51" stroke-linecap="round" stroke-linejoin="round" stroke-miterlimit="10" stroke-width="1.669"/>
                    <path id="Trazado_1179554" data-name="Trazado 1179554" d="M179.768,227.26a5.611,5.611,0,0,0-2.418,2.481,5.47,5.47,0,0,1-2.437,2.458" transform="translate(-167.011 -166.438)" fill="none" stroke="#ec4c51" stroke-linecap="round" stroke-linejoin="round" stroke-miterlimit="10" stroke-width="1.669"/>
                    <path id="Trazado_1179555" data-name="Trazado 1179555" d="M222.88,184.357a5.106,5.106,0,0,0-2.1,2.75c-.158.5-.237,1.033-.428,1.526a1.948,1.948,0,0,1-1.014,1.16" transform="translate(-183.979 -150.05)" fill="none" stroke="#ec4c51" stroke-linecap="round" stroke-linejoin="round" stroke-miterlimit="10" stroke-width="1.669"/>
                    <path id="Trazado_1179556" data-name="Trazado 1179556" d="M231.672,219.482a3.05,3.05,0,0,0,2.339-1.026,3.542,3.542,0,0,1,2.29-1.179" transform="translate(-188.692 -162.624)" fill="none" stroke="#ec4c51" stroke-linecap="round" stroke-linejoin="round" stroke-miterlimit="10" stroke-width="1.669"/>
                    <path id="Trazado_1179557" data-name="Trazado 1179557" d="M237.48,220.768a4.142,4.142,0,0,0,3.935.662" transform="translate(-190.911 -163.958)" fill="none" stroke="#ec4c51" stroke-linecap="round" stroke-linejoin="round" stroke-miterlimit="10" stroke-width="1.669"/>
                    <path id="Trazado_1179558" data-name="Trazado 1179558" d="M237.2,210.523c-3.264,4.041-3.03,9.826-2.168,14.948s2.175,10.468.551,15.4c-2.686,8.16-12.491,12.444-14.92,20.683-1.581,5.362.366,11.037,1.774,16.447s2.1,11.734-1.416,16.082c-1.867,2.31-4.746,3.785-6.111,6.424-1.559,3.014-.71,6.689.507,9.856s2.8,6.36,2.619,9.748-3.023,6.937-6.369,6.37" transform="translate(-181.05 -160.045)" fill="none" stroke="#4073f5" stroke-linecap="round" stroke-linejoin="round" stroke-miterlimit="10" stroke-width="1.669"/>
                    <path id="Trazado_1179559" data-name="Trazado 1179559" d="M239.265,215.773c-4.212,9.415-8.488,19.081-9.169,29.373-.4,6.113.421,12.576-2.227,18.1-2.493,5.2-7.81,8.909-9.24,14.495-1.713,6.689,2.722,13.307,3.6,20.155,1.15,8.951-3.808,17.427-8.574,25.089" transform="translate(-181.81 -162.05)" fill="none" stroke="#ec4c51" stroke-linecap="round" stroke-linejoin="round" stroke-miterlimit="10" stroke-width="1.669"/>
                    <path id="Trazado_1179560" data-name="Trazado 1179560" d="M234.042,295.258a6.431,6.431,0,0,0-1.866,4.886c.062,1.033.376,2.035.522,3.06a4.274,4.274,0,0,1-.475,3" transform="translate(-188.88 -192.413)" fill="none" stroke="#ec4c51" stroke-linecap="round" stroke-linejoin="round" stroke-miterlimit="10" stroke-width="1.669"/>
                    <path id="Trazado_1179561" data-name="Trazado 1179561" d="M220.868,323.111a19.351,19.351,0,0,0-.784,9.254" transform="translate(-184.174 -203.053)" fill="none" stroke="#ec4c51" stroke-linecap="round" stroke-linejoin="round" stroke-miterlimit="10" stroke-width="1.669"/>
                    <path id="Trazado_1179562" data-name="Trazado 1179562" d="M237.406,279.55c.258,1.217-.651,2.352-1.541,3.222s-1.9,1.845-1.906,3.089" transform="translate(-189.566 -186.413)" fill="none" stroke="#ec4c51" stroke-linecap="round" stroke-linejoin="round" stroke-miterlimit="10" stroke-width="1.669"/>
                    <path id="Trazado_1179563" data-name="Trazado 1179563" d="M225.734,349.51c.516,1.3-.18,2.756-.973,3.91s-1.743,2.334-1.784,3.733" transform="translate(-185.37 -213.137)" fill="none" stroke="#ec4c51" stroke-linecap="round" stroke-linejoin="round" stroke-miterlimit="10" stroke-width="1.669"/>
                    <path id="Trazado_1179564" data-name="Trazado 1179564" d="M226.16,361.531c-1.242,1.358-1.176,3.427-.983,5.257s.389,3.853-.689,5.345" transform="translate(-185.948 -217.729)" fill="none" stroke="#ec4c51" stroke-linecap="round" stroke-linejoin="round" stroke-miterlimit="10" stroke-width="1.669"/>
                    <path id="Trazado_1179565" data-name="Trazado 1179565" d="M242.532,238.2c-.579,2.981-4.555,4.418-4.993,7.422" transform="translate(-190.933 -170.617)" fill="none" stroke="#ec4c51" stroke-linecap="round" stroke-linejoin="round" stroke-miterlimit="10" stroke-width="1.669"/>
                    <path id="Trazado_1179566" data-name="Trazado 1179566" d="M243.362,253.668a5.031,5.031,0,0,0-3.454.764c-1.044.6-1.959,1.405-2.97,2.064a12.813,12.813,0,0,1-7.083,2.063" transform="translate(-187.998 -176.498)" fill="none" stroke="#ec4c51" stroke-linecap="round" stroke-linejoin="round" stroke-miterlimit="10" stroke-width="1.669"/>
                    <path id="Trazado_1179567" data-name="Trazado 1179567" d="M236.848,257.25a2.18,2.18,0,0,1-2.512.382c-.84-.347-1.536-.972-2.342-1.394a2.521,2.521,0,0,0-2.588-.077" transform="translate(-187.827 -177.354)" fill="none" stroke="#ec4c51" stroke-linecap="round" stroke-linejoin="round" stroke-miterlimit="10" stroke-width="1.669"/>
                    <path id="Trazado_1179568" data-name="Trazado 1179568" d="M247.042,262.314a20.4,20.4,0,0,0-2.869,10.959" transform="translate(-193.465 -179.829)" fill="none" stroke="#4073f5" stroke-linecap="round" stroke-linejoin="round" stroke-miterlimit="10" stroke-width="1.669"/>
                    <path id="Trazado_1179569" data-name="Trazado 1179569" d="M227.367,284.612a11.983,11.983,0,0,0-5.754,7.564" transform="translate(-184.85 -188.346)" fill="none" stroke="#4073f5" stroke-linecap="round" stroke-linejoin="round" stroke-miterlimit="10" stroke-width="1.669"/>
                    <path id="Trazado_1179570" data-name="Trazado 1179570" d="M227.686,326.112a34.594,34.594,0,0,0,.746-7.9l4.486,7.681" transform="translate(-187.169 -201.18)" fill="none" stroke="#4073f5" stroke-linecap="round" stroke-linejoin="round" stroke-miterlimit="10" stroke-width="1.669"/>
                    <path id="Trazado_1179571" data-name="Trazado 1179571" d="M220.009,351.294a4,4,0,0,0-2.353,3.279c-.159,1.954,1.145,3.869.741,5.788" transform="translate(-183.333 -213.818)" fill="none" stroke="#4073f5" stroke-linecap="round" stroke-linejoin="round" stroke-miterlimit="10" stroke-width="1.669"/>
                    <path id="Trazado_1179572" data-name="Trazado 1179572" d="M240.136,218.97a8.394,8.394,0,0,1-4.047,2.258,36.134,36.134,0,0,0-4.494,1.353,9.972,9.972,0,0,0-5.271,5.625,2.683,2.683,0,0,0,.21,2.8c.745.746,1.983.523,3,.248l6.282-1.7" transform="translate(-186.541 -163.271)" fill="none" stroke="#4073f5" stroke-linecap="round" stroke-linejoin="round" stroke-miterlimit="10" stroke-width="1.669"/>
                    <path id="Trazado_1179573" data-name="Trazado 1179573" d="M215.245,368.6a7.273,7.273,0,0,0-1.8,5.064" transform="translate(-181.728 -220.428)" fill="none" stroke="#4073f5" stroke-linecap="round" stroke-linejoin="round" stroke-miterlimit="10" stroke-width="1.669"/>
                    <path id="Trazado_1179574" data-name="Trazado 1179574" d="M221.427,382.375c.448,1.758,1.41,3.349,1.9,5.1s.383,3.867-.983,5.062" transform="translate(-184.779 -225.691)" fill="none" stroke="#4073f5" stroke-linecap="round" stroke-linejoin="round" stroke-miterlimit="10" stroke-width="1.669"/>
                    <path id="Trazado_1179575" data-name="Trazado 1179575" d="M240.516,208.632a42.687,42.687,0,0,0-8.708,1.783,18.129,18.129,0,0,0-7.5,4.629c-.844.91-1.6,2.14-1.239,3.326a3.167,3.167,0,0,0,2.924,1.866,16.171,16.171,0,0,0,4.684-.71,7.728,7.728,0,0,1,4.679.057" transform="translate(-185.369 -159.322)" fill="none" stroke="#4073f5" stroke-linecap="round" stroke-linejoin="round" stroke-miterlimit="10" stroke-width="1.669"/>
                    <path id="Trazado_1179576" data-name="Trazado 1179576" d="M241,213.344a32.813,32.813,0,0,0-8.806,2.819,18.212,18.212,0,0,0-6.974,5.964c-.6.9-1.1,2.117-.506,3.026.671,1.023,2.183.9,3.382.653l7.752-1.588" transform="translate(-185.932 -161.122)" fill="none" stroke="#ec4c51" stroke-linecap="round" stroke-linejoin="round" stroke-miterlimit="10" stroke-width="1.669"/>
                  </g>
                </g>
              </g>
              <g id="Grupo_1228430" data-name="Grupo 1228430" transform="translate(53.941)">
                <path id="Trazado_1179577" data-name="Trazado 1179577" d="M259.761,128.844a14.827,14.827,0,0,1,.325,12.815c-.828,1.808-2.021.861-2.761,2.706-1.74,4.34-.779,9.236.247,14.4a15.224,15.224,0,0,1,19.813,7.742c1.51,3.34,1.891,7.337,4.46,9.951,1.9,1.93,4.68,2.746,6.7,4.55,2.6,2.327,3.568,5.924,5.313,8.947a19.118,19.118,0,0,0,15.664,9.373" transform="translate(-252.066 -128.844)" fill="none" stroke="#4073f5" stroke-linecap="round" stroke-linejoin="round" stroke-miterlimit="10" stroke-width="1.669"/>
                <path id="Trazado_1179578" data-name="Trazado 1179578" d="M255.957,177.708c.07,3.123-2.788,5.549-3.482,8.6a5.99,5.99,0,0,0,.97,4.863,5.15,5.15,0,0,0,4.447,2.062,4.526,4.526,0,0,0,3.848-2.931" transform="translate(-250.521 -147.51)" fill="none" stroke="#4073f5" stroke-linecap="round" stroke-linejoin="round" stroke-miterlimit="10" stroke-width="1.669"/>
                <path id="Trazado_1179579" data-name="Trazado 1179579" d="M252.8,190.3a3.521,3.521,0,0,0,6.817,1.769" transform="translate(-250.667 -152.321)" fill="none" stroke="#4073f5" stroke-linecap="round" stroke-linejoin="round" stroke-miterlimit="10" stroke-width="1.669"/>
                <path id="Trazado_1179580" data-name="Trazado 1179580" d="M256.046,131.276c1.723,2.329,1.659,5.524,1.076,8.362s-1.614,3.048-1.573,5.945c.074,5.385,3.837,10.536,2.626,15.785a18,18,0,0,1-2.484,5.2,15.737,15.737,0,0,0-2.359,5.249,5.576,5.576,0,0,0,1.586,5.287c2.009,1.658,4.966,1.08,7.512.533s5.652-.792,7.311,1.216c1.408,1.705.965,4.456-.6,6.016a7.6,7.6,0,0,1-6.151,1.833,22.5,22.5,0,0,1-6.312-1.96" transform="translate(-250.864 -129.773)" fill="none" stroke="#ec4c51" stroke-linecap="round" stroke-linejoin="round" stroke-miterlimit="10" stroke-width="1.669"/>
                <path id="Trazado_1179581" data-name="Trazado 1179581" d="M262.647,204.71a5.337,5.337,0,0,0,3.2-1.034A31.681,31.681,0,0,1,268.7,201.8a4.027,4.027,0,0,1,3.3-.32" transform="translate(-254.465 -156.503)" fill="none" stroke="#ec4c51" stroke-linecap="round" stroke-linejoin="round" stroke-miterlimit="10" stroke-width="1.669"/>
                <path id="Trazado_1179582" data-name="Trazado 1179582" d="M260.68,179.824c2-1.92,5.327-1.513,7.788-.229s4.515,3.281,7.053,4.406c2.622,1.163,5.8,1.436,7.74,3.549,1.441,1.567,1.851,3.811,1.995,5.935a22.026,22.026,0,0,0,.84,6.3c1.345,3.59,4.96,5.775,8.486,7.28s7.338,2.688,10.1,5.345a26.391,26.391,0,0,0,2.28,2.208,3.643,3.643,0,0,0,2.964.81" transform="translate(-253.714 -147.815)" fill="none" stroke="#ec4c51" stroke-linecap="round" stroke-linejoin="round" stroke-miterlimit="10" stroke-width="1.669"/>
                <path id="Trazado_1179583" data-name="Trazado 1179583" d="M321.733,227.26a5.614,5.614,0,0,1,2.418,2.481,5.471,5.471,0,0,0,2.437,2.458" transform="translate(-277.036 -166.438)" fill="none" stroke="#ec4c51" stroke-linecap="round" stroke-linejoin="round" stroke-miterlimit="10" stroke-width="1.669"/>
                <path id="Trazado_1179584" data-name="Trazado 1179584" d="M279.429,184.357a5.106,5.106,0,0,1,2.1,2.75c.158.5.237,1.033.428,1.526a1.95,1.95,0,0,0,1.014,1.16" transform="translate(-260.876 -150.05)" fill="none" stroke="#ec4c51" stroke-linecap="round" stroke-linejoin="round" stroke-miterlimit="10" stroke-width="1.669"/>
                <path id="Trazado_1179585" data-name="Trazado 1179585" d="M269.969,219.482a3.049,3.049,0,0,1-2.339-1.026,3.542,3.542,0,0,0-2.29-1.179" transform="translate(-255.494 -162.624)" fill="none" stroke="#ec4c51" stroke-linecap="round" stroke-linejoin="round" stroke-miterlimit="10" stroke-width="1.669"/>
                <path id="Trazado_1179586" data-name="Trazado 1179586" d="M264.59,220.768a4.142,4.142,0,0,1-3.935.662" transform="translate(-253.704 -163.958)" fill="none" stroke="#ec4c51" stroke-linecap="round" stroke-linejoin="round" stroke-miterlimit="10" stroke-width="1.669"/>
                <path id="Trazado_1179587" data-name="Trazado 1179587" d="M251.52,210.523c3.264,4.041,3.03,9.826,2.168,14.948s-2.175,10.468-.551,15.4c2.686,8.16,12.491,12.444,14.919,20.683,1.581,5.362-.366,11.037-1.774,16.447s-2.1,11.734,1.416,16.082c1.867,2.31,4.746,3.785,6.111,6.424,1.559,3.014.71,6.689-.507,9.856s-2.8,6.36-2.619,9.748,3.023,6.937,6.369,6.37" transform="translate(-250.215 -160.045)" fill="none" stroke="#4073f5" stroke-linecap="round" stroke-linejoin="round" stroke-miterlimit="10" stroke-width="1.669"/>
                <path id="Trazado_1179588" data-name="Trazado 1179588" d="M249.408,215.773c4.212,9.415,8.488,19.081,9.169,29.373.4,6.113-.421,12.576,2.227,18.1,2.493,5.2,7.81,8.909,9.24,14.495,1.713,6.689-2.722,13.307-3.6,20.155-1.15,8.951,3.808,17.427,8.575,25.089" transform="translate(-249.408 -162.05)" fill="none" stroke="#ec4c51" stroke-linecap="round" stroke-linejoin="round" stroke-miterlimit="10" stroke-width="1.669"/>
                <path id="Trazado_1179589" data-name="Trazado 1179589" d="M269.3,295.258a6.431,6.431,0,0,1,1.866,4.886c-.062,1.033-.376,2.035-.522,3.06a4.277,4.277,0,0,0,.475,3" transform="translate(-257.007 -192.413)" fill="none" stroke="#ec4c51" stroke-linecap="round" stroke-linejoin="round" stroke-miterlimit="10" stroke-width="1.669"/>
                <path id="Trazado_1179590" data-name="Trazado 1179590" d="M283,323.111a19.352,19.352,0,0,1,.784,9.254" transform="translate(-262.24 -203.053)" fill="none" stroke="#ec4c51" stroke-linecap="round" stroke-linejoin="round" stroke-miterlimit="10" stroke-width="1.669"/>
                <path id="Trazado_1179591" data-name="Trazado 1179591" d="M264.937,279.55c-.258,1.217.651,2.352,1.541,3.222s1.9,1.845,1.905,3.089" transform="translate(-255.323 -186.413)" fill="none" stroke="#ec4c51" stroke-linecap="round" stroke-linejoin="round" stroke-miterlimit="10" stroke-width="1.669"/>
                <path id="Trazado_1179592" data-name="Trazado 1179592" d="M276.954,349.51c-.517,1.3.18,2.756.973,3.91s1.743,2.334,1.784,3.733" transform="translate(-259.862 -213.137)" fill="none" stroke="#ec4c51" stroke-linecap="round" stroke-linejoin="round" stroke-miterlimit="10" stroke-width="1.669"/>
                <path id="Trazado_1179593" data-name="Trazado 1179593" d="M277.307,361.531c1.242,1.358,1.176,3.427.983,5.257s-.389,3.853.689,5.345" transform="translate(-260.065 -217.729)" fill="none" stroke="#ec4c51" stroke-linecap="round" stroke-linejoin="round" stroke-miterlimit="10" stroke-width="1.669"/>
                <path id="Trazado_1179594" data-name="Trazado 1179594" d="M258.883,238.2c.579,2.981,4.555,4.418,4.993,7.422" transform="translate(-253.027 -170.617)" fill="none" stroke="#ec4c51" stroke-linecap="round" stroke-linejoin="round" stroke-miterlimit="10" stroke-width="1.669"/>
                <path id="Trazado_1179595" data-name="Trazado 1179595" d="M252.792,253.668a5.031,5.031,0,0,1,3.454.764c1.044.6,1.959,1.405,2.97,2.064a12.813,12.813,0,0,0,7.083,2.063" transform="translate(-250.701 -176.498)" fill="none" stroke="#ec4c51" stroke-linecap="round" stroke-linejoin="round" stroke-miterlimit="10" stroke-width="1.669"/>
                <path id="Trazado_1179596" data-name="Trazado 1179596" d="M263.053,257.25a2.18,2.18,0,0,0,2.512.382c.84-.347,1.536-.972,2.342-1.394a2.521,2.521,0,0,1,2.588-.077" transform="translate(-254.62 -177.354)" fill="none" stroke="#ec4c51" stroke-linecap="round" stroke-linejoin="round" stroke-miterlimit="10" stroke-width="1.669"/>
                <path id="Trazado_1179597" data-name="Trazado 1179597" d="M255.682,262.314a20.4,20.4,0,0,1,2.869,10.959" transform="translate(-251.805 -179.829)" fill="none" stroke="#4073f5" stroke-linecap="round" stroke-linejoin="round" stroke-miterlimit="10" stroke-width="1.669"/>
                <path id="Trazado_1179598" data-name="Trazado 1179598" d="M273.578,284.612a11.983,11.983,0,0,1,5.754,7.564" transform="translate(-258.641 -188.346)" fill="none" stroke="#4073f5" stroke-linecap="round" stroke-linejoin="round" stroke-miterlimit="10" stroke-width="1.669"/>
                <path id="Trazado_1179599" data-name="Trazado 1179599" d="M273.582,326.112a34.6,34.6,0,0,1-.746-7.9l-4.486,7.681" transform="translate(-256.644 -201.18)" fill="none" stroke="#4073f5" stroke-linecap="round" stroke-linejoin="round" stroke-miterlimit="10" stroke-width="1.669"/>
                <path id="Trazado_1179600" data-name="Trazado 1179600" d="M283.03,351.294a4,4,0,0,1,2.353,3.279c.159,1.954-1.145,3.869-.741,5.788" transform="translate(-262.251 -213.818)" fill="none" stroke="#4073f5" stroke-linecap="round" stroke-linejoin="round" stroke-miterlimit="10" stroke-width="1.669"/>
                <path id="Trazado_1179601" data-name="Trazado 1179601" d="M255.653,218.97a8.394,8.394,0,0,0,4.047,2.258,36.134,36.134,0,0,1,4.494,1.353,9.972,9.972,0,0,1,5.271,5.625,2.685,2.685,0,0,1-.21,2.8c-.745.746-1.983.523-3,.248l-6.282-1.7" transform="translate(-251.794 -163.271)" fill="none" stroke="#4073f5" stroke-linecap="round" stroke-linejoin="round" stroke-miterlimit="10" stroke-width="1.669"/>
                <path id="Trazado_1179602" data-name="Trazado 1179602" d="M288.141,368.6a7.273,7.273,0,0,1,1.8,5.064" transform="translate(-264.204 -220.428)" fill="none" stroke="#4073f5" stroke-linecap="round" stroke-linejoin="round" stroke-miterlimit="10" stroke-width="1.669"/>
                <path id="Trazado_1179603" data-name="Trazado 1179603" d="M281.736,382.375c-.448,1.758-1.41,3.349-1.9,5.1s-.383,3.867.983,5.062" transform="translate(-260.93 -225.691)" fill="none" stroke="#4073f5" stroke-linecap="round" stroke-linejoin="round" stroke-miterlimit="10" stroke-width="1.669"/>
                <path id="Trazado_1179604" data-name="Trazado 1179604" d="M253.143,208.632a42.687,42.687,0,0,1,8.708,1.783,18.129,18.129,0,0,1,7.5,4.629c.844.91,1.6,2.14,1.239,3.326a3.167,3.167,0,0,1-2.924,1.866,16.171,16.171,0,0,1-4.684-.71,7.726,7.726,0,0,0-4.678.057" transform="translate(-250.835 -159.322)" fill="none" stroke="#4073f5" stroke-linecap="round" stroke-linejoin="round" stroke-miterlimit="10" stroke-width="1.669"/>
                <path id="Trazado_1179605" data-name="Trazado 1179605" d="M253.269,213.344a32.813,32.813,0,0,1,8.806,2.819,18.213,18.213,0,0,1,6.974,5.964c.6.9,1.1,2.117.506,3.026-.671,1.023-2.183.9-3.382.653l-7.752-1.588" transform="translate(-250.883 -161.122)" fill="none" stroke="#ec4c51" stroke-linecap="round" stroke-linejoin="round" stroke-miterlimit="10" stroke-width="1.669"/>
              </g>
            </g>
            <path id="Trazado_1179606" data-name="Trazado 1179606" d="M233.151,125.171c.869,2.855,1.292,4.264,1.292,4.264l.832-11.41s2.78,1.516,8.723,2.435a20.825,20.825,0,0,0,9.87-.6L254.759,130l1.056-4.786V113.506l-9.176-4.411-5.33-.184-4.9,2.144-.674,2.45-1.041,1.164-2.512,3.981" transform="translate(-171.451 -107.722)" fill="#280432"/>
          </g>
          <path id="Trazado_1179607" data-name="Trazado 1179607" d="M246.209,204.04c.239-2.068,1-3.477,3.454-3.783s3.615.643,3.861,2.879a4.222,4.222,0,0,1-1.038,3.444" transform="translate(-176.809 -142.594)" fill="#f9d6a5"/>
          <path id="Trazado_1179608" data-name="Trazado 1179608" d="M249.173,203.292c-3.027.673-4.421,2.175-3.533,5.483s4.445,5.884,6.527,5.282,2.478-3.72,1.865-6.079S255.095,201.975,249.173,203.292Z" transform="translate(-176.491 -143.668)" fill="#9e3e57"/>
        </g>
      </g>
      <g id="Grupo_1228454" data-name="Grupo 1228454" transform="translate(3961.308 331.173)">
        <path id="Trazado_1179619" data-name="Trazado 1179619" d="M187.851,163.785a1.894,1.894,0,1,1-1.894-1.894A1.894,1.894,0,0,1,187.851,163.785Z" transform="translate(-157.873 -113.243)" fill="#7f1c5e"/>
        <circle id="Elipse_12824" data-name="Elipse 12824" cx="1.894" cy="1.894" r="1.894" transform="translate(105.591 27.275)" fill="#7f1c5e"/>
        <path id="Trazado_1179620" data-name="Trazado 1179620" d="M164.86,358.923a1.894,1.894,0,1,1-1.894-1.894A1.894,1.894,0,0,1,164.86,358.923Z" transform="translate(-149.091 -187.784)" fill="#7f1c5e"/>
        <path id="Trazado_1179621" data-name="Trazado 1179621" d="M161.085,166.849a1.894,1.894,0,1,1-1.894-1.894A1.894,1.894,0,0,1,161.085,166.849Z" transform="translate(-147.649 -114.413)" fill="#7f1c5e"/>
        <path id="Trazado_1179622" data-name="Trazado 1179622" d="M170.276,280.342a1.894,1.894,0,1,1-1.894-1.894A1.894,1.894,0,0,1,170.276,280.342Z" transform="translate(-151.16 -157.767)" fill="#7f1c5e"/>
        <path id="Trazado_1179623" data-name="Trazado 1179623" d="M326.349,184.651a1.894,1.894,0,1,1-1.894-1.894A1.894,1.894,0,0,1,326.349,184.651Z" transform="translate(-210.778 -121.213)" fill="#7f1c5e"/>
        <path id="Trazado_1179624" data-name="Trazado 1179624" d="M353.326,145.77a1.894,1.894,0,1,1-1.894-1.894A1.894,1.894,0,0,1,353.326,145.77Z" transform="translate(-221.083 -106.361)" fill="#7f1c5e"/>
        <path id="Trazado_1179625" data-name="Trazado 1179625" d="M309.732,332.791a1.894,1.894,0,1,1-1.894-1.894A1.894,1.894,0,0,1,309.732,332.791Z" transform="translate(-204.431 -177.802)" fill="#7f1c5e"/>
        <path id="Trazado_1179626" data-name="Trazado 1179626" d="M353.326,301.26a1.894,1.894,0,1,1-1.894-1.894A1.894,1.894,0,0,1,353.326,301.26Z" transform="translate(-221.083 -165.757)" fill="#7f1c5e"/>
        <path id="Trazado_1179627" data-name="Trazado 1179627" d="M217.083,115.1a1.894,1.894,0,1,1-1.894-1.894A1.894,1.894,0,0,1,217.083,115.1Z" transform="translate(-169.04 -94.646)" fill="#7f1c5e"/>
        <path id="Trazado_1179628" data-name="Trazado 1179628" d="M208.919,157.551a1.894,1.894,0,1,1-1.894-1.894A1.894,1.894,0,0,1,208.919,157.551Z" transform="translate(-165.921 -110.861)" fill="#7f1c5e"/>
        <circle id="Elipse_12825" data-name="Elipse 12825" cx="6.513" cy="6.513" r="6.513" transform="translate(21.572 147.303)" fill="#7f1c5e"/>
        <path id="Trazado_1179630" data-name="Trazado 1179630" d="M317.162,299.244a4.077,4.077,0,1,1-4.077-4.077A4.077,4.077,0,0,1,317.162,299.244Z" transform="translate(-205.601 -164.153)" fill="#7f1c5e"/>
        <path id="Trazado_1179631" data-name="Trazado 1179631" d="M198.345,268a4.077,4.077,0,1,1-4.077-4.077A4.077,4.077,0,0,1,198.345,268Z" transform="translate(-160.214 -152.219)" fill="#7f1c5e"/>
        <path id="Trazado_1179632" data-name="Trazado 1179632" d="M302.079,151.31A4.077,4.077,0,1,1,298,147.233,4.077,4.077,0,0,1,302.079,151.31Z" transform="translate(-199.839 -107.643)" fill="#7f1c5e"/>
        <path id="Trazado_1179633" data-name="Trazado 1179633" d="M188.685,111.532a4.077,4.077,0,1,1-4.077-4.077A4.077,4.077,0,0,1,188.685,111.532Z" transform="translate(-156.524 -92.448)" fill="#7f1c5e"/>
        <g id="Grupo_1228450" data-name="Grupo 1228450" transform="translate(9.768 65.331)">
          <path id="Trazado_1179634" data-name="Trazado 1179634" d="M160.179,94.254h0a1.473,1.473,0,0,1-1.779-1.083l-1.99-8.177a1.473,1.473,0,0,1,1.083-1.779h0a1.473,1.473,0,0,1,1.779,1.083l1.99,8.177A1.473,1.473,0,0,1,160.179,94.254Z" transform="translate(-153.275 -83.173)" fill="#7f1c5e"/>
          <path id="Trazado_1179635" data-name="Trazado 1179635" d="M151.4,91.989h0a1.473,1.473,0,0,1,1.083-1.779l8.177-1.99a1.473,1.473,0,0,1,1.779,1.083h0a1.473,1.473,0,0,1-1.083,1.779l-8.177,1.99A1.473,1.473,0,0,1,151.4,91.989Z" transform="translate(-151.363 -85.085)" fill="#7f1c5e"/>
        </g>
        <g id="Grupo_1228451" data-name="Grupo 1228451" transform="translate(126.63 69.015)">
          <path id="Trazado_1179636" data-name="Trazado 1179636" d="M338.2,100.8h0a.993.993,0,0,1-.679-1.23l1.576-5.452a.993.993,0,0,1,1.23-.679h0a.992.992,0,0,1,.678,1.23l-1.576,5.452A.992.992,0,0,1,338.2,100.8Z" transform="translate(-335.544 -93.405)" fill="#7f1c5e"/>
          <path id="Trazado_1179637" data-name="Trazado 1179637" d="M334.386,97.259h0a.992.992,0,0,1,1.23-.678l5.452,1.576a.992.992,0,0,1,.678,1.23h0a.993.993,0,0,1-1.23.679l-5.452-1.576A1,1,0,0,1,334.386,97.259Z" transform="translate(-334.347 -94.603)" fill="#7f1c5e"/>
        </g>
        <g id="Grupo_1228452" data-name="Grupo 1228452" transform="translate(0 180.499)">
          <path id="Trazado_1179638" data-name="Trazado 1179638" d="M147.695,382.536h0a.993.993,0,0,1-1.263-.615l-1.852-5.364a.993.993,0,0,1,.615-1.263h0a.993.993,0,0,1,1.263.615l1.852,5.364A.993.993,0,0,1,147.695,382.536Z" transform="translate(-142.77 -375.239)" fill="#7f1c5e"/>
          <path id="Trazado_1179639" data-name="Trazado 1179639" d="M141.739,381.25h0a.993.993,0,0,1,.615-1.263l5.364-1.852a.993.993,0,0,1,1.263.615h0a.993.993,0,0,1-.615,1.263L143,381.866A.994.994,0,0,1,141.739,381.25Z" transform="translate(-141.684 -376.325)" fill="#7f1c5e"/>
        </g>
        <g id="Grupo_1228453" data-name="Grupo 1228453" transform="translate(126.621 178.634)">
          <path id="Trazado_1179640" data-name="Trazado 1179640" d="M350.5,379.644h0a.993.993,0,0,1-.693-1.222l1.51-5.471a.993.993,0,0,1,1.222-.693h0a.994.994,0,0,1,.693,1.222l-1.51,5.471A.994.994,0,0,1,350.5,379.644Z" transform="translate(-347.794 -372.222)" fill="#7f1c5e"/>
          <path id="Trazado_1179641" data-name="Trazado 1179641" d="M346.606,376.156h0a.994.994,0,0,1,1.222-.693l5.471,1.51a.993.993,0,0,1,.693,1.222h0a.993.993,0,0,1-1.222.693l-5.471-1.51A.993.993,0,0,1,346.606,376.156Z" transform="translate(-346.57 -373.446)" fill="#7f1c5e"/>
        </g>
      </g>
    </g>
  </g>
</svg>
