<svg xmlns="http://www.w3.org/2000/svg" xmlns:xlink="http://www.w3.org/1999/xlink" width="108" height="108" viewBox="0 0 108 108">
  <defs>
    <filter id="Trazado_904820" x="0" y="0" width="108" height="108" filterUnits="userSpaceOnUse">
      <feOffset dy="3" input="SourceAlpha"/>
      <feGaussianBlur stdDeviation="3" result="blur"/>
      <feFlood flood-opacity="0.161"/>
      <feComposite operator="in" in2="blur"/>
      <feComposite in="SourceGraphic"/>
    </filter>
  </defs>
  <g id="Grupo_1228747" data-name="Grupo 1228747" transform="translate(-200 -4295.988)">
    <g id="Grupo_1227895" data-name="Grupo 1227895" transform="translate(209 4301.988)">
      <g id="Grupo_1174814" data-name="Grupo 1174814" transform="translate(0 0)">
        <g id="Grupo_1173585" data-name="Grupo 1173585">
          <g id="Grupo_1173428" data-name="Grupo 1173428">
            <g id="Grupo_1171958" data-name="Grupo 1171958">
              <g id="Grupo_1167341" data-name="Grupo 1167341">
                <g id="Grupo_1166792" data-name="Grupo 1166792">
                  <g transform="matrix(1, 0, 0, 1, -9, -6)" filter="url(#Trazado_904820)">
                    <g id="Trazado_904820-2" data-name="Trazado 904820" transform="translate(9 6)" fill="#f6f6fd">
                      <path d="M 44.99999618530273 88.50003051757812 C 39.12687301635742 88.50003051757812 33.43022155761719 87.35010528564453 28.06829643249512 85.08219146728516 C 22.88852119445801 82.89134216308594 18.23629570007324 79.75461578369141 14.24084663391113 75.75917053222656 C 10.24540901184082 71.76371765136719 7.108683586120605 67.11149597167969 4.917821407318115 61.93172073364258 C 2.649921178817749 56.56979370117188 1.499996185302734 50.87314224243164 1.499996185302734 45.00001907348633 C 1.499996185302734 39.12689590454102 2.649921178817749 33.43024444580078 4.917821407318115 28.06831932067871 C 7.108683586120605 22.8885440826416 10.24540901184082 18.23631858825684 14.24084663391113 14.24086952209473 C 18.23629570007324 10.2454195022583 22.88852119445801 7.108694076538086 28.06829643249512 4.917844295501709 C 33.43022155761719 2.649931669235229 39.12687301635742 1.500006556510925 44.99999618530273 1.500006556510925 C 50.87311935424805 1.500006556510925 56.56977081298828 2.649931669235229 61.93169784545898 4.917844295501709 C 67.11147308349609 7.108694076538086 71.76369476318359 10.2454195022583 75.75914764404297 14.24086952209473 C 79.75458526611328 18.23631858825684 82.89131164550781 22.8885440826416 85.08216857910156 28.06831932067871 C 87.35007476806641 33.43024444580078 88.5 39.12689590454102 88.5 45.00001907348633 C 88.5 50.87314224243164 87.35007476806641 56.56979370117188 85.08216857910156 61.93172073364258 C 82.89131164550781 67.11149597167969 79.75458526611328 71.76371765136719 75.75914764404297 75.75917053222656 C 71.76369476318359 79.75461578369141 67.11147308349609 82.89134216308594 61.93169784545898 85.08219146728516 C 56.56977081298828 87.35010528564453 50.87311935424805 88.50003051757812 44.99999618530273 88.50003051757812 Z" stroke="none"/>
                      <path d="M 44.99999618530273 3.000007629394531 C 39.32870864868164 3.000007629394531 33.82865142822266 4.110061645507812 28.65262603759766 6.299346923828125 C 23.65165710449219 8.414573669433594 19.15968322753906 11.44334411621094 15.301513671875 15.30153656005859 C 11.44333648681641 19.15970611572266 8.414566040039062 23.65166473388672 6.299339294433594 28.65264892578125 C 4.110054016113281 33.82867431640625 2.999992370605469 39.32873153686523 2.999992370605469 45.00001907348633 C 2.999992370605469 50.67130661010742 4.110054016113281 56.17136383056641 6.299339294433594 61.34738922119141 C 8.414566040039062 66.34837341308594 11.44333648681641 70.84033203125 15.301513671875 74.69850158691406 C 19.15968322753906 78.55668640136719 23.65165710449219 81.58546447753906 28.65262603759766 83.70069122314453 C 33.82865142822266 85.88997650146484 39.32870864868164 87.00003051757812 44.99999618530273 87.00003051757812 C 50.67128372192383 87.00003051757812 56.17134094238281 85.88997650146484 61.34736633300781 83.70069122314453 C 66.34834289550781 81.58546447753906 70.84030914306641 78.55668640136719 74.69847869873047 74.69850158691406 C 78.55665588378906 70.84033203125 81.58542633056641 66.34837341308594 83.70065307617188 61.34738922119141 C 85.88993835449219 56.17136383056641 87 50.67130661010742 87 45.00001907348633 C 87 39.32873153686523 85.88993835449219 33.82867431640625 83.70065307617188 28.65264892578125 C 81.58542633056641 23.65166473388672 78.55665588378906 19.15970611572266 74.69847869873047 15.30153656005859 C 70.84030914306641 11.44334411621094 66.34834289550781 8.414573669433594 61.34736633300781 6.299346923828125 C 56.17134094238281 4.110061645507812 50.67128372192383 3.000007629394531 44.99999618530273 3.000007629394531 M 44.99999618530273 7.62939453125e-06 C 69.85281372070312 7.62939453125e-06 90 20.14720153808594 90 45.00001907348633 C 90 69.85282897949219 69.85281372070312 90.00003051757812 44.99999618530273 90.00003051757812 C 20.14717864990234 90.00003051757812 -7.62939453125e-06 69.85282897949219 -7.62939453125e-06 45.00001907348633 C -7.62939453125e-06 20.14720153808594 20.14717864990234 7.62939453125e-06 44.99999618530273 7.62939453125e-06 Z" stroke="none" fill="#605f84"/>
                    </g>
                  </g>
                </g>
              </g>
            </g>
          </g>
        </g>
      </g>
    </g>
    <g id="pnl" transform="translate(224.177 4310.818)">
      <g id="Grupo_1228745" data-name="Grupo 1228745" transform="translate(0.874 8.058)">
        <path id="Trazado_1179864" data-name="Trazado 1179864" d="M135.458,51.354c-1.68-1.941-.911-6-.911-6,1.045-6.988-3.786-13.324-4.611-14.047h0c-.011-.014-6.6-8.193-17.317-8.193A22.4,22.4,0,0,0,97.536,62.072h0a4.852,4.852,0,0,1,1.475,4.118L96.754,78.356h25.531V73.637a2.1,2.1,0,0,1,2.724-2.008l1.27.394a12.488,12.488,0,0,0,5.676.564c4.022-1.352,1.75-4.771,1.75-4.771-.51-.8.365-1.458.365-1.458,2.26-1.094.365-2.872.365-2.872a1.834,1.834,0,0,0,1.7-2.012l-.374-1.37a1.4,1.4,0,0,1,.725-1.624l1.155-.579c2.77-1.312-2.183-6.549-2.183-6.549Z" transform="translate(-80.584 -22.132)" fill="#eaf6ff"/>
        <g id="Grupo_1228741" data-name="Grupo 1228741" transform="translate(30.247 0.982)">
          <path id="Trazado_1179865" data-name="Trazado 1179865" d="M291.773,51.354c-1.68-1.941-.911-6-.911-6,1.045-6.988-3.786-13.324-4.611-14.047h0c-.011-.014-6.6-8.193-17.317-8.193q-.9,0-1.788.071c9.7.794,15.6,8.109,15.61,8.122h0c.825.722,5.656,7.058,4.611,14.047,0,0-.769,4.059.911,6,0,0,4.953,5.237,2.183,6.549l-1.155.579a1.4,1.4,0,0,0-.725,1.624l.374,1.37a1.834,1.834,0,0,1-1.7,2.012s1.9,1.779-.365,2.872c0,0-.875.656-.365,1.458,0,0,2.255,3.394-1.707,4.756a12.887,12.887,0,0,0,3.453.015c4.022-1.352,1.75-4.771,1.75-4.771-.51-.8.365-1.458.365-1.458,2.26-1.094.365-2.872.365-2.872a1.834,1.834,0,0,0,1.7-2.012l-.374-1.37a1.4,1.4,0,0,1,.725-1.624l1.155-.579C296.725,56.59,291.773,51.354,291.773,51.354Z" transform="translate(-267.145 -23.114)" fill="#d7ecfe"/>
          <path id="Trazado_1179866" data-name="Trazado 1179866" d="M339.461,439.249l-1.27-.394a2.1,2.1,0,0,0-2.724,2.008v4.718h3.495v-4.718a2.084,2.084,0,0,1,.682-1.549C339.583,439.293,339.522,439.272,339.461,439.249Z" transform="translate(-327.508 -390.34)" fill="#d7ecfe"/>
        </g>
        <g id="Grupo_1228742" data-name="Grupo 1228742" transform="translate(0 0)">
          <path id="Trazado_1179867" data-name="Trazado 1179867" d="M21.777,14.684H8.666A1.165,1.165,0,0,0,7.5,15.849v8.526A1.165,1.165,0,0,0,8.666,25.54H19.71a3.232,3.232,0,0,0,3.232-3.232V15.849A1.165,1.165,0,0,0,21.777,14.684Z" transform="translate(-7.501 -14.684)" fill="#cef49d"/>
        </g>
        <path id="Trazado_1179868" data-name="Trazado 1179868" d="M109.672,14.684h-3.495a1.165,1.165,0,0,1,1.165,1.165v6.332a3.359,3.359,0,0,1-3.359,3.359l3.235,3.619V25.54h2.454a1.165,1.165,0,0,0,1.165-1.165V15.849a1.165,1.165,0,0,0-1.165-1.165Z" transform="translate(-92.743 -14.684)" fill="#94d77b"/>
        <g id="Grupo_1228743" data-name="Grupo 1228743" transform="translate(3.619 28.95)">
          <path id="Trazado_1179869" data-name="Trazado 1179869" d="M52.672,274.049H39.729a1.165,1.165,0,0,1-1.165-1.165v-8.526a1.165,1.165,0,0,1,1.165-1.165h11.13a2.977,2.977,0,0,1,2.977,2.977v6.714A1.165,1.165,0,0,1,52.672,274.049Z" transform="translate(-38.564 -263.193)" fill="#ffbd63"/>
        </g>
        <path id="Trazado_1179870" data-name="Trazado 1179870" d="M140.735,235.748h-2.454v-3.619l-3.235,3.619a3.359,3.359,0,0,1,3.359,3.359v6.332a1.165,1.165,0,0,1-1.165,1.165h3.495a1.165,1.165,0,0,0,1.165-1.165v-8.526A1.165,1.165,0,0,0,140.735,235.748Z" transform="translate(-120.188 -206.798)" fill="#ff9343"/>
        <path id="Trazado_1179871" data-name="Trazado 1179871" d="M195.217,74.271a2.259,2.259,0,0,0-1.682-.854h-.011q-.145,0-.292,0a9.334,9.334,0,0,0-1.35.1L190,70.729l-.016-.006a12.3,12.3,0,0,0-2.911,1.208l.641,3.3a9.3,9.3,0,0,0-1.909,1.909l-3.3-.641a12.29,12.29,0,0,0-1.211,2.921l2.79,1.884a9.367,9.367,0,0,0,0,2.7l-2.79,1.884a12.292,12.292,0,0,0,1.211,2.921l3.3-.641a9.3,9.3,0,0,0,1.909,1.909l-.641,3.3A12.29,12.29,0,0,0,190,94.6l1.884-2.79a9.317,9.317,0,0,0,1.35.1q.373,0,.739-.029h.006a1.505,1.505,0,0,0,1.007-.51c1.162-1.317,3.428-5.319,3.428-8.469a16.669,16.669,0,0,0-3.195-8.626Zm2.639,8.388a4.623,4.623,0,1,1-4.623-4.623A4.623,4.623,0,0,1,197.856,82.659Z" transform="translate(-161.048 -64.195)" fill="#4f6d8f"/>
        <g id="Grupo_1228744" data-name="Grupo 1228744" transform="translate(32.476 6.525)">
          <path id="Trazado_1179872" data-name="Trazado 1179872" d="M295.238,82.638a9.335,9.335,0,0,0-.1-1.35l2.79-1.884a12.3,12.3,0,0,0-1.211-2.921l-3.3.641a9.3,9.3,0,0,0-1.909-1.909l.641-3.3a12.29,12.29,0,0,0-2.921-1.211l-1.884,2.79a9.308,9.308,0,0,0-1.058-.093,12.405,12.405,0,0,1,4.322,8.947q.009.146.009.295c0,.024,0,.048,0,.072q0,.059,0,.117a12.4,12.4,0,0,1-3.885,9.028q.309-.024.612-.069l1.884,2.79a12.29,12.29,0,0,0,2.921-1.211l-.641-3.3a9.3,9.3,0,0,0,1.909-1.909l3.3.641a12.291,12.291,0,0,0,1.211-2.921l-2.79-1.884a9.331,9.331,0,0,0,.1-1.35Z" transform="translate(-286.283 -70.699)" fill="#334f6d"/>
        </g>
      </g>
      <g id="Grupo_1228746" data-name="Grupo 1228746" transform="translate(0 7.184)">
        <path id="Trazado_1179873" data-name="Trazado 1179873" d="M18.442,51.956l-.548,2.95a.874.874,0,1,0,1.718.319l.548-2.95a5.569,5.569,0,0,0-.663-3.538h1.923A2.041,2.041,0,0,0,23.46,46.7V38.172a2.041,2.041,0,0,0-2.039-2.039h-1.58V33.388a.843.843,0,0,0-1.525-.582l-2.975,3.327H11.9A21.617,21.617,0,0,1,13.609,21.9L14.7,23.115a.879.879,0,0,0,1.525-.582V19.787H17.8a2.041,2.041,0,0,0,2.039-2.039V14.333a21.286,21.286,0,0,1,13.067-4.42,22.53,22.53,0,0,1,14.53,5.762.874.874,0,1,0,1.15-1.316,24.276,24.276,0,0,0-15.68-6.193,23,23,0,0,0-13.067,4.011V9.223A2.041,2.041,0,0,0,17.8,7.184H2.039A2.041,2.041,0,0,0,0,9.223v8.526a2.041,2.041,0,0,0,2.039,2.039h9.684l.639.715a23.356,23.356,0,0,0-2.251,15.631H5.657a2.041,2.041,0,0,0-2.039,2.039V46.7a2.041,2.041,0,0,0,2.039,2.039H17.34a4.013,4.013,0,0,1,1.1,3.219ZM2.039,18.04a.292.292,0,0,1-.291-.291V9.223a.292.292,0,0,1,.291-.291H17.8a.292.292,0,0,1,.291.291v8.526a.292.292,0,0,1-.291.291H15.349a.874.874,0,0,0-.874.874v1.33l-1.71-1.913a.874.874,0,0,0-.651-.291ZM5.366,46.7V38.172a.292.292,0,0,1,.291-.291H15.732a.873.873,0,0,0,.651-.291l1.71-1.913v1.33a.874.874,0,0,0,.874.874h2.454a.292.292,0,0,1,.291.291V46.7a.292.292,0,0,1-.291.291H5.657a.291.291,0,0,1-.291-.291Z" transform="translate(0 -7.184)"/>
        <path id="Trazado_1179874" data-name="Trazado 1179874" d="M179.015,110.32c-1.133-1.33-.892-4.241-.7-5.252,0-.011,0-.022.006-.033,1.094-7.311-3.757-13.512-4.313-14.195a.874.874,0,0,0-1.354,1.1c1.837,2.254,4.732,7.488,3.942,12.818-.065.357-.777,4.531,1.113,6.715l.026.029c1.235,1.306,2.969,3.729,2.771,4.785.018.368-1.249.779-1.5.961a2.28,2.28,0,0,0-1.176,2.635l.346,1.268a.9.9,0,0,1-.88,1.012.881.881,0,0,0-.553,1.506c.615.629.672,1.125-.287,1.539a1.963,1.963,0,0,0-.578,2.626c.8,1.189.769,2.89-1.218,3.449a13.823,13.823,0,0,1-6.481-.939,2.991,2.991,0,0,0-3.856,2.842v3.844H140.711l.824-4.439a.874.874,0,0,0-1.718-.319l-1.016,5.472a.879.879,0,0,0,.859,1.033h25.532a.874.874,0,0,0,.874-.874v-4.718a1.234,1.234,0,0,1,1.591-1.173A15.376,15.376,0,0,0,175,133a3.858,3.858,0,0,0,2.324-6.148c1.462-1.191,2.013-1.765,1.4-3.349,1.662-1.237,1.192-2.79.788-4.079a.529.529,0,0,1,.273-.611c.965-.465,2.306-1,2.436-2.2.429-2.289-2.56-5.608-3.2-6.292Z" transform="translate(-122.616 -80.81)"/>
        <path id="Trazado_1179875" data-name="Trazado 1179875" d="M199.388,72.548a13.17,13.17,0,0,0-1.3-3.128.874.874,0,0,0-.924-.422l-2.782.539a10.163,10.163,0,0,0-1.306-1.306l.539-2.782a.874.874,0,0,0-.422-.924,13.176,13.176,0,0,0-3.128-1.3.874.874,0,0,0-.952.354l-1.586,2.349a10.285,10.285,0,0,0-1.848,0L184.1,63.583a.873.873,0,0,0-.952-.354,13.171,13.171,0,0,0-3.128,1.3.874.874,0,0,0-.422.924l.539,2.782a10.157,10.157,0,0,0-1.306,1.306L176.044,69a.873.873,0,0,0-.924.422,13.178,13.178,0,0,0-1.3,3.128.874.874,0,0,0,.355.952l2.349,1.586a10.241,10.241,0,0,0,0,1.848l-2.349,1.586a.874.874,0,0,0-.355.952,13.176,13.176,0,0,0,1.3,3.128.874.874,0,0,0,.924.422l2.782-.539a10.171,10.171,0,0,0,1.306,1.306l-.539,2.782a.874.874,0,0,0,.422.924,11.4,11.4,0,0,0,3.356,1.327.874.874,0,0,0,.724-.385l1.586-2.349a10.265,10.265,0,0,0,1.848,0l1.586,2.349a.874.874,0,0,0,.952.354,13.171,13.171,0,0,0,3.128-1.3.874.874,0,0,0,.422-.924l-.539-2.782a10.164,10.164,0,0,0,1.306-1.306l2.782.539a.874.874,0,0,0,.924-.422,13.17,13.17,0,0,0,1.3-3.128.874.874,0,0,0-.354-.952l-2.349-1.586a10.244,10.244,0,0,0,0-1.848l2.349-1.586A.874.874,0,0,0,199.388,72.548Zm-4.122,1.388a.874.874,0,0,0-.376.851,8.507,8.507,0,0,1,0,2.448.874.874,0,0,0,.376.851l2.258,1.524a11.434,11.434,0,0,1-.654,1.576l-2.674-.519a.875.875,0,0,0-.867.336,8.417,8.417,0,0,1-1.73,1.73.874.874,0,0,0-.336.867l.518,2.674a11.419,11.419,0,0,1-1.576.654l-1.524-2.258a.874.874,0,0,0-.724-.385,9.19,9.19,0,0,1-2.575.009.874.874,0,0,0-.851.376l-1.524,2.258a11.42,11.42,0,0,1-1.576-.654l.518-2.674a.874.874,0,0,0-.336-.867,8.419,8.419,0,0,1-1.73-1.73.874.874,0,0,0-.867-.336l-2.674.518a11.431,11.431,0,0,1-.654-1.576l2.258-1.524a.874.874,0,0,0,.376-.851,8.49,8.49,0,0,1,0-2.448.874.874,0,0,0-.376-.851l-2.258-1.524a11.41,11.41,0,0,1,.654-1.576l2.674.518a.874.874,0,0,0,.867-.336,8.421,8.421,0,0,1,1.73-1.73.874.874,0,0,0,.336-.867l-.518-2.674a11.429,11.429,0,0,1,1.576-.654l1.524,2.258a.874.874,0,0,0,.851.376,8.531,8.531,0,0,1,2.448,0,.874.874,0,0,0,.851-.376l1.524-2.258a11.446,11.446,0,0,1,1.576.654l-.518,2.674a.874.874,0,0,0,.336.867,8.411,8.411,0,0,1,1.73,1.73.874.874,0,0,0,.867.336l2.674-.519a11.465,11.465,0,0,1,.654,1.576Z" transform="translate(-153.547 -56.673)"/>
        <path id="Trazado_1179876" data-name="Trazado 1179876" d="M242.086,127.742a3.734,3.734,0,0,1,3.484,2.359.874.874,0,1,0,1.623-.649,5.5,5.5,0,1,0-.2,4.529.874.874,0,1,0-1.557-.793,3.75,3.75,0,1,1-3.345-5.447Z" transform="translate(-209.028 -112.154)"/>
        <path id="Trazado_1179877" data-name="Trazado 1179877" d="M31.938,40h2.077a.874.874,0,0,0,0-1.747H31.938a.874.874,0,1,0,0,1.747Z" transform="translate(-27.445 -34.629)"/>
        <path id="Trazado_1179878" data-name="Trazado 1179878" d="M84.834,39.122a.874.874,0,0,0-.874-.874H78.533a.874.874,0,0,0,0,1.747h5.428A.874.874,0,0,0,84.834,39.122Z" transform="translate(-68.612 -34.629)"/>
        <path id="Trazado_1179879" data-name="Trazado 1179879" d="M36.461,69.311H31.938a.874.874,0,1,0,0,1.747h4.523a.874.874,0,1,0,0-1.747Z" transform="translate(-27.445 -62.074)"/>
        <path id="Trazado_1179880" data-name="Trazado 1179880" d="M105.417,70.185a.874.874,0,0,0-.874-.874H101.83a.874.874,0,1,0,0,1.747h2.714A.874.874,0,0,0,105.417,70.185Z" transform="translate(-89.195 -62.074)"/>
        <path id="Trazado_1179881" data-name="Trazado 1179881" d="M65.849,317.818H63a.874.874,0,1,0,0,1.747h2.848a.874.874,0,1,0,0-1.747Z" transform="translate(-54.89 -281.631)"/>
        <path id="Trazado_1179882" data-name="Trazado 1179882" d="M120.87,319.565a.874.874,0,1,0,0-1.747h-4.657a.874.874,0,1,0,0,1.747Z" transform="translate(-101.903 -281.631)"/>
        <path id="Trazado_1179883" data-name="Trazado 1179883" d="M69.035,287.629a.874.874,0,0,0-.874-.874H63a.874.874,0,1,0,0,1.747h5.16A.874.874,0,0,0,69.035,287.629Z" transform="translate(-54.89 -254.187)"/>
        <path id="Trazado_1179884" data-name="Trazado 1179884" d="M138.363,288.5h2.077a.874.874,0,0,0,0-1.747h-2.077a.874.874,0,1,0,0,1.747Z" transform="translate(-121.472 -254.187)"/>
      </g>
    </g>
  </g>
</svg>
