<svg xmlns="http://www.w3.org/2000/svg" xmlns:xlink="http://www.w3.org/1999/xlink" width="103" height="103" viewBox="0 0 103 103">
  <defs>
    <filter id="Trazado_982547" x="0" y="0" width="103" height="103" filterUnits="userSpaceOnUse">
      <feOffset dy="3" input="SourceAlpha"/>
      <feGaussianBlur stdDeviation="3" result="blur"/>
      <feFlood flood-opacity="0.161"/>
      <feComposite operator="in" in2="blur"/>
      <feComposite in="SourceGraphic"/>
    </filter>
  </defs>
  <g id="Grupo_1228750" data-name="Grupo 1228750" transform="translate(-171 -6250)">
    <g id="Grupo_1227908" data-name="Grupo 1227908" transform="translate(-26.01 1778)">
      <g id="Grupo_1203964" data-name="Grupo 1203964" transform="translate(206.01 4478)">
        <g id="Grupo_1203625" data-name="Grupo 1203625" transform="translate(0)">
          <g id="Grupo_1178314" data-name="Grupo 1178314" transform="translate(0 0)">
            <g id="Grupo_1173988" data-name="Grupo 1173988">
              <g id="Grupo_1172010" data-name="Grupo 1172010">
                <g id="Grupo_1171046" data-name="Grupo 1171046">
                  <g id="Grupo_1148525" data-name="Grupo 1148525">
                    <g transform="matrix(1, 0, 0, 1, -9, -6)" filter="url(#Trazado_982547)">
                      <g id="Trazado_982547-2" data-name="Trazado 982547" transform="translate(9 6)" fill="#f6f6fd">
                        <path d="M 42.5 83.5 C 36.96437835693359 83.5 31.59512901306152 82.41617584228516 26.54141235351562 80.27863311767578 C 21.65934181213379 78.21369171142578 17.27447128295898 75.25723266601562 13.50862312316895 71.49137878417969 C 9.742764472961426 67.72553253173828 6.786305904388428 63.34066009521484 4.721364498138428 58.45858764648438 C 2.583823442459106 53.40486907958984 1.5 48.03562164306641 1.5 42.5 C 1.5 36.96437835693359 2.583823442459106 31.59512901306152 4.721364498138428 26.54141235351562 C 6.786305904388428 21.65934181213379 9.742764472961426 17.27448272705078 13.50862312316895 13.50862312316895 C 17.27447128295898 9.742776870727539 21.65934181213379 6.786305904388428 26.54141235351562 4.721364498138428 C 31.59512901306152 2.583823442459106 36.96437835693359 1.5 42.5 1.5 C 48.03562164306641 1.5 53.40486907958984 2.583823442459106 58.45858764648438 4.721364498138428 C 63.34066009521484 6.786305904388428 67.72553253173828 9.742776870727539 71.49137878417969 13.50862312316895 C 75.25723266601562 17.27448272705078 78.21369171142578 21.65934181213379 80.27863311767578 26.54141235351562 C 82.41617584228516 31.59512901306152 83.5 36.96437835693359 83.5 42.5 C 83.5 48.03562164306641 82.41617584228516 53.40486907958984 80.27863311767578 58.45858764648438 C 78.21369171142578 63.34066009521484 75.25723266601562 67.72553253173828 71.49137878417969 71.49137878417969 C 67.72553253173828 75.25723266601562 63.34066009521484 78.21369171142578 58.45858764648438 80.27863311767578 C 53.40486907958984 82.41617584228516 48.03562164306641 83.5 42.5 83.5 Z" stroke="none"/>
                        <path d="M 42.5 3 C 37.16621398925781 3 31.99356079101562 4.043960571289062 27.125732421875 6.102882385253906 C 22.42246627807617 8.092185974121094 18.19785308837891 10.94070434570312 14.56928253173828 14.56928253173828 C 10.94070434570312 18.19785308837891 8.092185974121094 22.42246627807617 6.102882385253906 27.125732421875 C 4.043960571289062 31.99356079101562 3 37.16621398925781 3 42.5 C 3 47.83378601074219 4.043960571289062 53.00643920898438 6.102882385253906 57.87425231933594 C 8.092185974121094 62.57753372192383 10.94070434570312 66.80213165283203 14.56928253173828 70.43071746826172 C 18.19786834716797 74.05929565429688 22.42246627807617 76.90781402587891 27.125732421875 78.89711761474609 C 31.99356079101562 80.95603942871094 37.16621398925781 82 42.5 82 C 47.83378601074219 82 53.00642395019531 80.95603942871094 57.87425231933594 78.89711761474609 C 62.57753372192383 76.90781402587891 66.80213165283203 74.05929565429688 70.43071746826172 70.43071746826172 C 74.05929565429688 66.80213165283203 76.90781402587891 62.57753372192383 78.89711761474609 57.87425231933594 C 80.95603942871094 53.00642395019531 82 47.83378601074219 82 42.5 C 82 37.16621398925781 80.95603942871094 31.99356079101562 78.89711761474609 27.125732421875 C 76.90781402587891 22.42246627807617 74.05929565429688 18.19786834716797 70.43071746826172 14.56928253173828 C 66.80213165283203 10.94070434570312 62.57753372192383 8.092185974121094 57.87425231933594 6.102882385253906 C 53.00643920898438 4.043960571289062 47.83378601074219 3 42.5 3 M 42.5 0 C 65.97209167480469 0 85 19.02789306640625 85 42.5 C 85 65.97209167480469 65.97209167480469 85 42.5 85 C 19.02789306640625 85 0 65.97209167480469 0 42.5 C 0 19.02789306640625 19.02789306640625 0 42.5 0 Z" stroke="none" fill="#b1aef1"/>
                      </g>
                    </g>
                  </g>
                </g>
              </g>
            </g>
          </g>
        </g>
      </g>
    </g>
    <g id="aspirations_11031190" transform="translate(121.139 6250.935)">
      <g id="Grupo_1228749" data-name="Grupo 1228749" transform="translate(82.856 18.939)">
        <path id="Trazado_1179885" data-name="Trazado 1179885" d="M114.375,206.63c.121.027.215.067.336.094a6.589,6.589,0,0,1,7.489-2.8,7.071,7.071,0,0,1,4.63,3.986,6.76,6.76,0,0,1,6.147-1.235,6.875,6.875,0,0,1,5.14,6.308c.148.027.3.067.443.107a6.726,6.726,0,0,1,4.952,7.958,6.068,6.068,0,0,1-3.275,3.932,5.578,5.578,0,0,1-.161.926,6.446,6.446,0,0,1-8.133,4.335,7.305,7.305,0,0,1-2.4-1.181,9.355,9.355,0,0,1-9.113,3.315c-1.664,4.737,2.067,6.16.55,7.1-3.879,2.429-6.442-3.53-6.912-6.751a6.86,6.86,0,0,1-5.033.5,6.726,6.726,0,0,1-4.952-7.958,5.83,5.83,0,0,1,.671-1.6,6.5,6.5,0,0,1-2.63-6.858,6.106,6.106,0,0,1,3.972-4.228,6.264,6.264,0,0,1,.188-1.637,6.4,6.4,0,0,1,8.093-4.308Z" transform="translate(-101.924 -179.682)" fill="#f06597" fill-rule="evenodd"/>
        <path id="Trazado_1179886" data-name="Trazado 1179886" d="M115.48,206.63c.121.027.215.067.336.094a6.589,6.589,0,0,1,7.489-2.8,7.071,7.071,0,0,1,4.63,3.986,6.76,6.76,0,0,1,6.147-1.235,6.875,6.875,0,0,1,5.14,6.308c.148.027.3.067.443.107a6.924,6.924,0,0,1,5.06,5.5c-4.268,3.905-11.609,6.5-19.943,6.5-9.529,0-17.755-3.369-21.58-8.254v-.013a6.106,6.106,0,0,1,3.973-4.227,6.264,6.264,0,0,1,.188-1.637,6.439,6.439,0,0,1,8.119-4.321Z" transform="translate(-103.029 -179.682)" fill="#f499c1" fill-rule="evenodd"/>
        <path id="Trazado_1179887" data-name="Trazado 1179887" d="M327.437,251.2a1.637,1.637,0,1,1-1.637,1.637A1.635,1.635,0,0,1,327.437,251.2Z" transform="translate(-295.754 -220.843)" fill="#f9c9de" fill-rule="evenodd"/>
        <path id="Trazado_1179888" data-name="Trazado 1179888" d="M329.759,279.2a.866.866,0,1,1-.859.859A.868.868,0,0,1,329.759,279.2Z" transform="translate(-298.438 -245.085)" fill="#f9c9de" fill-rule="evenodd"/>
        <path id="Trazado_1179889" data-name="Trazado 1179889" d="M168.737,237.9a1.637,1.637,0,1,1-1.637,1.637A1.653,1.653,0,0,1,168.737,237.9Z" transform="translate(-158.353 -209.328)" fill="#f9c9de" fill-rule="evenodd"/>
        <path id="Trazado_1179890" data-name="Trazado 1179890" d="M171.072,265.9a.856.856,0,0,1,.859.859.868.868,0,0,1-.859.872.879.879,0,0,1-.872-.872A.868.868,0,0,1,171.072,265.9Z" transform="translate(-161.037 -233.57)" fill="#f9c9de" fill-rule="evenodd"/>
        <path id="Trazado_1179891" data-name="Trazado 1179891" d="M212.759,227a.872.872,0,1,1-.859.872A.871.871,0,0,1,212.759,227Z" transform="translate(-197.141 -199.89)" fill="#f9c9de" fill-rule="evenodd"/>
        <path id="Trazado_1179892" data-name="Trazado 1179892" d="M179.958,45.9H177.7l-2.5,6.321L172.67,45.9H154.23a2.635,2.635,0,0,1-2.63-2.63V27.63A2.635,2.635,0,0,1,154.23,25h25.727a2.635,2.635,0,0,1,2.63,2.63V43.265a2.643,2.643,0,0,1-2.63,2.63Z" transform="translate(-144.933 -25)" fill="#ba9570" fill-rule="evenodd"/>
        <path id="Trazado_1179893" data-name="Trazado 1179893" d="M178.6,25h24.748a2.635,2.635,0,0,1,2.63,2.63V42.313H180.009A1.409,1.409,0,0,1,178.6,40.9Z" transform="translate(-168.31 -25)" fill="#fdcc9a" fill-rule="evenodd"/>
        <path id="Trazado_1179894" data-name="Trazado 1179894" d="M284.586,48.7h2.161a.894.894,0,0,1,.886.886v2.8a.885.885,0,0,1-.886.886h-2.161a.885.885,0,0,1-.886-.886v-2.8A.894.894,0,0,1,284.586,48.7Z" transform="translate(-259.305 -45.519)" fill="#ffebd8" fill-rule="evenodd"/>
        <path id="Trazado_1179895" data-name="Trazado 1179895" d="M323.62,48.7h3.6a1.043,1.043,0,0,1,1.033,1.033v2.51a1.034,1.034,0,0,1-1.033,1.033h-3.6a1.023,1.023,0,0,1-1.02-1.033v-2.51A1.031,1.031,0,0,1,323.62,48.7Z" transform="translate(-292.984 -45.519)" fill="#ffebd8" fill-rule="evenodd"/>
      </g>
      <path id="Trazado_1179896" data-name="Trazado 1179896" d="M114.471,32.776a.939.939,0,0,1,0,1.879h-3.382a.939.939,0,0,1,0-1.879Zm-8.871,0a.939.939,0,0,1,0,1.879H95.575a.939.939,0,1,1,0-1.879Zm-1.288-8.9a.939.939,0,0,1,0,1.879H99.588a.939.939,0,0,1,0-1.879Zm10.159,4.442a.939.939,0,0,1,0,1.879H103.346a.939.939,0,1,1,0-1.879Zm-15.742,0a.939.939,0,0,1,0,1.879H95.575a.939.939,0,1,1,0-1.879ZM79.9,31.394a.939.939,0,1,1,1.879,0v7.945a.939.939,0,1,1-1.879,0Zm1.879,13.89a.939.939,0,1,1-1.879,0V43.472a.939.939,0,1,1,1.879,0Zm36.1-4.509h-1.624l-1.718,4.375a7.859,7.859,0,0,1,5.382,6.361,7.634,7.634,0,0,1,5.409,9.045,7.017,7.017,0,0,1-3.315,4.308c-.845,4.885-6.321,7.234-10.83,5.019-.188-.094-.376-.188-.55-.3A10.336,10.336,0,0,1,102,72.7a5.109,5.109,0,0,0,.658,4.026c.671,1.208,1.087,1.973-.282,2.832-2.63,1.637-4.912.255-6.415-2.134a14.772,14.772,0,0,1-1.691-4.107,8.091,8.091,0,0,1-9.287-3.4,7.085,7.085,0,0,1-.5-6.724,7.115,7.115,0,0,1,1.6-11.971,7.3,7.3,0,0,1,9.166-6.321,7.812,7.812,0,0,1,11.287-.939,8.446,8.446,0,0,1,1.57,1.825,7.669,7.669,0,0,1,3.476-1.047l-1.6-3.972H92.153a3.577,3.577,0,0,1-3.57-3.57V21.57A3.577,3.577,0,0,1,92.153,18H117.88a3.577,3.577,0,0,1,3.57,3.57V37.2a3.577,3.577,0,0,1-3.57,3.57Zm-4.134,6.093a.941.941,0,0,1-1.423-.242,5.8,5.8,0,0,0-3.583.98,7.6,7.6,0,0,1-1.6,5.207.937.937,0,1,1-1.476-1.154,5.782,5.782,0,0,0,1.02-2.053,5.679,5.679,0,0,0,.148-2.188,5.882,5.882,0,0,0-1.543-2.053c-2.724-2.349-7.086-1.919-8.844,1.087a.938.938,0,0,1-1.1.416,5.914,5.914,0,0,0-4.7.362,5.074,5.074,0,0,0-2.7,3.905c-.013.161-.027.322-.04.47a5.209,5.209,0,0,0,1.57,1.664,4.11,4.11,0,0,0,2.174.671.931.931,0,0,1,.913.953.951.951,0,0,1-.953.926,6.232,6.232,0,0,1-5.006-2.791,5.223,5.223,0,0,0-1.1,8.562,7.2,7.2,0,0,1,6.241-2.416.94.94,0,1,1-.228,1.865,5.192,5.192,0,0,0-5.637,3.731c-1.06,4.053,3.046,7.864,7.274,6.9A5.212,5.212,0,0,1,94.8,63.737a4.906,4.906,0,0,1,5.167.51.938.938,0,0,1-1.141,1.49,3.114,3.114,0,0,0-4.966,2.51,3.29,3.29,0,0,0,1.6,2.966.92.92,0,0,1,.429.671c.268,1.772,1.315,4.925,3.046,6.106a2.054,2.054,0,0,0,2.456-.013c.134-.081-.228-.081-.362-.349a6.793,6.793,0,0,1-.564-6.267.938.938,0,0,1,1.047-.617,8.9,8.9,0,0,0,4.617-.376,8,8,0,0,0,3.57-2.563,1.672,1.672,0,0,0-.939-2.456.936.936,0,1,1,.47-1.812,3.512,3.512,0,0,1,2.4,4.469c3.127,1.812,7.328.617,8.388-2.832a5.3,5.3,0,0,1-4.147-3.248.945.945,0,0,1,.51-1.221.923.923,0,0,1,1.221.51,3.479,3.479,0,0,0,1.409,1.651,3.2,3.2,0,0,0,1.892.483,5.119,5.119,0,0,0,1.624-1.3c2.6-3.127.6-7.972-3.664-8.871a.959.959,0,0,1-.752-.9,5.931,5.931,0,0,0-4.362-5.409Zm1.879-7.972h2.255a1.7,1.7,0,0,0,1.691-1.691V21.57a1.7,1.7,0,0,0-1.691-1.691H92.153a1.7,1.7,0,0,0-1.691,1.691V37.2A1.7,1.7,0,0,0,92.153,38.9h18.44a.925.925,0,0,1,.872.591l1.664,4.134,1.61-4.08A.927.927,0,0,1,115.626,38.9Zm-4.509,13.89a.938.938,0,0,1,1.49,1.141,2.711,2.711,0,0,0,.537,3.825.942.942,0,0,1-1.1,1.53A4.581,4.581,0,0,1,111.116,52.786Zm-3.328,7.435a.933.933,0,0,1-.389,1.262.948.948,0,0,1-1.288-.429,6.359,6.359,0,0,0-8.6-2.55.937.937,0,1,1-.859-1.664,8.212,8.212,0,0,1,11.126,3.342Z"/>
    </g>
  </g>
</svg>
