<svg xmlns="http://www.w3.org/2000/svg" xmlns:xlink="http://www.w3.org/1999/xlink" width="295" height="396" viewBox="0 0 295 396">
  <defs>
    <clipPath id="clip-path">
      <rect id="Rect치ngulo_422860" data-name="Rect치ngulo 422860" width="295" height="396" transform="translate(180.054 7885)" fill="#fff" stroke="#707070" stroke-width="1"/>
    </clipPath>
  </defs>
  <g id="Enmascarar_grupo_1211501" data-name="Enmascarar grupo 1211501" transform="translate(-180.054 -7885)" clip-path="url(#clip-path)">
    <g id="Grupo_1228839" data-name="Grupo 1228839" transform="translate(-1147.946 -549.027)">
      <g id="Grupo_1228763" data-name="Grupo 1228763" transform="translate(1392.601 8472.211)">
        <path id="Trazado_1179898" data-name="Trazado 1179898" d="M1474.985,717.256a19.118,19.118,0,0,1-6.951-7.252c-2.844-4.671-2.339-7.478-3.823-11.966-2.912-8.809-10.075-13.78-12.164-15.229a32.817,32.817,0,0,0-22.242-5.439c-7.27.845-19.6,4.782-20.5,11.966-.455,3.6,2.081,7.07,4.865,10.878a32.7,32.7,0,0,0,8.341,7.977c12.212,7.718,22.819-1.445,29.193,4.714,5.852,5.655,3.321,19.576,1.738,28.283-1.871,10.29-5.665,17.936-2.085,21.756,2.308,2.463-2.574-1.062-1.324,2.058.829,2.07-5.709-.894-7.3.65-2.02,1.965,3.253,13.893,3.729,14.876,2.1,4.342-2.541,3.44,3.568,3.461,5.253.018,8.692,1.293,15.462-1.744,4.827-2.166,3.261-4.753,7.757-7.335s5.629-2.274,6.6-3.989c1.494-2.631-.491-4.568,1.043-7.977,1.1-2.455,2.4-2.043,3.823-4.351,2.285-3.706,2.021-9.756-.695-13.417-2.572-3.465-6.129-3.153-6.256-5.077-.173-2.62,6.44-2.98,9.036-8.34,1.7-3.51,1.422-8.637-1.043-11.241C1483.125,717.736,1480.153,720.122,1474.985,717.256Z" transform="translate(-1339.996 -677.155)" fill="#36476b"/>
        <path id="Trazado_1179899" data-name="Trazado 1179899" d="M1337.645,723.57c-4.9-.809-35.8,15.779-27.388,37.956,1.039,2.741,3.122,3.065,4.518,6.889.582,1.6,1.555,4.26.695,6.889-1.408,4.306-6.156,3.706-7.993,8.34a10.336,10.336,0,0,0,0,6.89c1.75,4.51,6.257,4.355,6.6,7.615.257,2.418-2.145,3.243-2.433,7.615a8.424,8.424,0,0,0,.348,3.626c.746,1.988,2.688,3.716,8.688,5.439,8.138,2.337,17.757,4.307,20.494,2.252,4.216-3.167-2.939-12.64-3.812-20.02-4.055-34.26-1.683-39.451,1.043-43.875,3.787-6.147,8.323-6.821,8.688-12.328C1347.493,734.891,1343.673,724.566,1337.645,723.57Z" transform="translate(-1262.933 -712.072)" fill="#36476b"/>
        <path id="Trazado_1179900" data-name="Trazado 1179900" d="M1236.192,1040.323c1.474,4.288,3.178,7.54,4.552,14.1.424,2.028.771,4.678,1.464,9.979,1.331,10.181,1.048,10.461,1.884,14.622,1.074,5.348,1.68,5.586,2.73,11.035a95.039,95.039,0,0,1,1.4,11.3c.435,5.9,5.2,18.191,4.252,28.464-.68,7.375-4.612,16.457-8.357,24.1l111.189-.461c-.5-1.4.746-2.186.313-3.3-3.339-8.58-13.474-16.651-14-29.948-.234-5.937,3.715-11.246,5.395-20.673a128.478,128.478,0,0,1,5.8-22.807c2.285-6.29,2.873-6.167,4.564-11.647a97.664,97.664,0,0,0,3.588-18.3c.775-7.327,3.885-24.539,5.031-33.41.492-3.809-4.123-18.956-7.822-19.753-9.75-2.1-22.52-5.458-28.639-7.195-2.958-.84-7.346-2.085-10.078-5.908-1.571-2.2-1.948-4.344-2.433-7.3-1.1-6.7.388-9.672,0-12.511-1.592-11.654-34.681-20.449-38.924-13.554-1.056,1.716.558,2.967,2.085,9.731,1.231,5.454,4.016,17.787-1.738,23.98-2.115,2.277-2.971,3.062-8.177,4.755a58.839,58.839,0,0,1-9.963,1.891c-7.186.569-17.295,5.691-22.163,6.354-1.52.207-6.83,8.755-5.194,26.154C1233.89,1030,1234.36,1035,1236.192,1040.323Z" transform="translate(-1207.056 -878.566)" fill="#f6a698"/>
        <path id="Trazado_1179901" data-name="Trazado 1179901" d="M1272.475,1437.792c1.074,5.348,1.68,5.586,2.73,11.035a95.109,95.109,0,0,1,1.4,11.3c.435,5.9,4.492,18.191,3.545,28.464-.679,7.375-4.4,16.456-7.952,24.1h8.061c4.937-9.952,8.249-20.143,7.845-29.174a169.723,169.723,0,0,0-1.9-17.139,154.784,154.784,0,0,0-9.2-33.1c-2.329-5.772-3.7-8.108-5.26-10.2q-.678-.909-1.386-1.736c.075.574.155,1.183.24,1.833C1271.924,1433.352,1271.64,1433.631,1272.475,1437.792Z" transform="translate(-1235.442 -1237.336)" fill="#ea8d81"/>
        <path id="Trazado_1179902" data-name="Trazado 1179902" d="M1588.781,1108.129a38.843,38.843,0,0,1,1.06,8.746c.066,2.8-.186,3.137-.088,6.449a28.867,28.867,0,0,0,.707,6.979c.547,2.082,2.216,6.973,3.71,6.891,2.317-.127,4.484-12.219,3.887-22.263a54.5,54.5,0,0,0-3.305-15.6c-.683-.136-1.244-3.3-1.779-3.454a19.679,19.679,0,0,1-9.211-6.388c.547,1.608.8,7.765,1.75,10.156C1587.432,1104.507,1588.062,1105.264,1588.781,1108.129Z" transform="translate(-1471.361 -987.54)" fill="#ea8d81"/>
        <path id="Trazado_1179903" data-name="Trazado 1179903" d="M1371.875,1106.653a38.851,38.851,0,0,0-1.06,8.746c-.066,2.8.186,3.137.088,6.449a28.864,28.864,0,0,1-.707,6.979c-.547,2.082-2.216,6.973-3.711,6.891-2.316-.127-4.483-12.219-3.887-22.263a54.509,54.509,0,0,1,3.3-15.6c.683-.136,2.433-4.87,2.969-5.022a14.366,14.366,0,0,0,8.021-5.305c-.546,1.608-.8,8.249-1.75,10.641C1373.222,1103.031,1372.594,1103.788,1371.875,1106.653Z" transform="translate(-1304.805 -986.064)" fill="#ea8d81"/>
        <path id="Trazado_1179904" data-name="Trazado 1179904" d="M1662.961,1488.279l10.569-.572c.881-.911.615-1.587.182-2.7-3.339-8.58-10.47-16.651-10.993-29.948-.234-5.937.712-11.246,2.391-20.673a128.48,128.48,0,0,1,5.8-22.807c2.285-6.29,2.873-6.167,4.564-11.647a87.612,87.612,0,0,0,2.462-10.372,36.232,36.232,0,0,0-10.1,10.149c-1.427,2.182-2.652,4.6-4.621,10.5a154.794,154.794,0,0,0-7.142,33.608,169.708,169.708,0,0,0-.84,17.224C1655.383,1469.8,1659.077,1479.425,1662.961,1488.279Z" transform="translate(-1525.155 -1213.417)" fill="#ea8d81"/>
        <path id="Trazado_1179905" data-name="Trazado 1179905" d="M1235.738,1167.033c1.117,3.25,3.755,20.831,4.448,26.132s12.069,53.09,11.122,63.363c-.679,7.375-4.4,16.456-7.952,24.1l113.006-.572c-.5-1.4-.768-2.075-1.2-3.188-3.339-8.58-10.47-16.651-10.993-29.948-.234-5.937,12.79-55.232,12.807-55.289l.01-.032.059-.193v0l.059-.2.021-.07.061-.206.023-.078.052-.178.033-.116.052-.183.053-.186c.014-.051.073-.261.088-.317l.043-.155.08-.292.036-.135c.018-.069.037-.138.055-.209l.032-.12c.034-.129.068-.261.1-.4l.032-.123c.021-.083.075-.295.08-.315.042-.169,1.249-5.676,1.271-5.794h0s.942-5.51,1.294-8.839c.775-7.327,3.885-24.539,5.031-33.41.492-3.809-6.668-22.249-10.367-23.045a127.878,127.878,0,0,0-16.04-2.326c-2.086-.253-4.694-.6-6.794-.906-.46,9.414-.48,17.443-.537,24.466-.027,3.344-.03,8.823-3.626,13.516-3.392,4.427-8.164,5.785-14.834,7.582a57.6,57.6,0,0,1-30,.33c-5.038-1.409-9.549-2.738-12.857-6.923-1.462-1.85-2.854-4.466-3.956-11.868-1.32-8.864-.8-15.03-.659-20.769.05-2.037.062-4.409-.012-7.088a43.783,43.783,0,0,1-5.612,1.11h0l-.158.023-.235.034q-1.816.144-3.539.3l0,.042c-6.725.743-16.672,4.239-20.784,4.8-1.52.207-4.665,9.969-3.029,27.367C1233.436,1156.715,1233.906,1161.707,1235.738,1167.033Z" transform="translate(-1206.602 -1005.277)" fill="#1280db"/>
        <path id="Trazado_1179906" data-name="Trazado 1179906" d="M1275.966,1790.091l-.441-.233-.109.233Z" transform="translate(-1239.254 -1514.739)" fill="#fff"/>
        <path id="Trazado_1179907" data-name="Trazado 1179907" d="M1454.387,980.714c-1.592-11.654-34.681-20.449-38.924-13.554-1.056,1.716.558,2.967,2.085,9.731a65.47,65.47,0,0,1,1.707,10.711c4.085,7.458,9.645,12.319,15.227,12.992,6.244.753,14.2-4.122,19.9-12.316C1454.016,984.959,1454.679,982.84,1454.387,980.714Z" transform="translate(-1344.419 -893.625)" fill="#c36252"/>
        <path id="Trazado_1179908" data-name="Trazado 1179908" d="M1443.548,793.057a26.182,26.182,0,0,0-4.17-8.341c-4.375-5.767-10.2-7.923-13.206-9.036a34.531,34.531,0,0,0-16.682-1.738c-3.334.409-6.63.852-10.079,3.128a19.985,19.985,0,0,0-6.256,6.951c-2.007,3.435-5.243,10.552-4.865,23.632.3,10.35.589,20.415,7.646,29.888,2.1,2.824,9.487,12.734,20.5,12.859a21.54,21.54,0,0,0,10.426-2.78c7.6-4.013,10.865-10.987,13.206-15.987a50.762,50.762,0,0,0,4.17-14.6c.981-6.293.7-11,.348-17.029A28.925,28.925,0,0,0,1443.548,793.057Z" transform="translate(-1324.196 -749.757)" fill="#e5867f"/>
        <path id="Trazado_1179909" data-name="Trazado 1179909" d="M1448.351,793.057a28.115,28.115,0,0,0-3.6-8.341,23.856,23.856,0,0,0-11.4-9.036,25.939,25.939,0,0,0-14.394-1.738c-2.877.409-5.721-.738-8.7,1.538-1.209.925-8.317,4.874-10.38,12.726-.977,3.721.458,6.367.783,19.447.258,10.35.508,20.415,6.6,29.888,1.815,2.824,8.186,12.734,17.693,12.859a16.732,16.732,0,0,0,9-2.78c6.558-4.013,9.376-10.987,11.4-15.987a57.14,57.14,0,0,0,3.6-14.6c.846-6.293.607-11,.3-17.029A33.308,33.308,0,0,0,1448.351,793.057Z" transform="translate(-1332.696 -749.757)" fill="#f6a698"/>
        <g id="Grupo_1228751" data-name="Grupo 1228751" transform="translate(86.77 72.655)">
          <path id="Trazado_1179910" data-name="Trazado 1179910" d="M1488.634,971.469l-.059.021a.759.759,0,0,0-.49.818,2.015,2.015,0,0,1-.13,1.054c-.465,1.078-1.906,1.306-2.5,1.354a3.6,3.6,0,0,1-3.5-1.757,2.925,2.925,0,0,1-.287-1.211.752.752,0,0,0-.638-.726l-.062-.009a.751.751,0,0,0-.865.755,4.49,4.49,0,0,0,.446,1.878,5.123,5.123,0,0,0,4.627,2.645c.139,0,.275-.005.408-.016a4.264,4.264,0,0,0,3.814-2.293,3.572,3.572,0,0,0,.242-1.9A.753.753,0,0,0,1488.634,971.469Z" transform="translate(-1480.095 -971.004)" fill="#dd7472"/>
        </g>
        <g id="Grupo_1228752" data-name="Grupo 1228752" transform="translate(71.79 53.744)">
          <path id="Trazado_1179911" data-name="Trazado 1179911" d="M1434.8,899.479a16.91,16.91,0,0,0-13.811-4.87,1.641,1.641,0,0,0-1.44,1.974l.018.083a1.651,1.651,0,0,0,1.793,1.291,13.8,13.8,0,0,1,6.734.988,13.643,13.643,0,0,1,4.347,2.941,1.632,1.632,0,0,0,2.18.107l.068-.055A1.65,1.65,0,0,0,1434.8,899.479Z" transform="translate(-1419.512 -894.518)" fill="#36476b"/>
        </g>
        <path id="Trazado_1179912" data-name="Trazado 1179912" d="M1557.009,956.485c-2.011.138-3.572,1.27-3.485,2.527s1.787,2.165,3.8,2.026,3.572-1.27,3.485-2.528S1559.021,956.347,1557.009,956.485Z" transform="translate(-1448.596 -887.41)" fill="#ea847d"/>
        <path id="Trazado_1179913" data-name="Trazado 1179913" d="M1419.569,954.4c-2.205-.43-4.211.338-4.48,1.717s1.3,2.845,3.506,3.275,4.211-.338,4.48-1.717S1421.774,954.833,1419.569,954.4Z" transform="translate(-1344.369 -885.763)" fill="#ea847d"/>
        <path id="Trazado_1179914" data-name="Trazado 1179914" d="M1476.511,756.52c-9.292-8.138-22.369-8.8-31.452-4.865-2.4,1.04-8.9,3.853-9.383,8.688-.509,5.088,5.876,10.041,10.947,11.816,6.355,2.225,14.71.881,15.813.695,2.223-.375,4.268-.939,7.125-.348a16.018,16.018,0,0,1,6.951,3.649c6.67,6.252,4.064,17.553,5.561,17.724,1.425.163,6.024-9.837,3.823-20.852A29.805,29.805,0,0,0,1476.511,756.52Z" transform="translate(-1359.867 -731.477)" fill="#36476b"/>
        <path id="Trazado_1179915" data-name="Trazado 1179915" d="M1745.2,1255.9c4.109-10.668,1.9-18.9-2.409-35.569-2.614-10.1-6.786-14.309-10.912-31.28-4.081-16.788-6.969-12.04-11.524-16.43-4.976-4.8-16.093,15.527-13.634,30.774a52.163,52.163,0,0,0,1.887,6.541,194.418,194.418,0,0,0,8.293,21.589c4.708,10.922-8.7,25.221-7.62,29.931C1711.682,1271.986,1737.807,1275.093,1745.2,1255.9Z" transform="translate(-1563.652 -1049.58)" fill="#f6a698"/>
        <path id="Trazado_1179916" data-name="Trazado 1179916" d="M1758.333,1368.916c.247,10.047,8.691,18.152,12.015,16.962,5.562-1.992,2.827-32.187-3.18-33.217C1763.8,1352.085,1758.125,1360.43,1758.333,1368.916Z" transform="translate(-1602.764 -1185.619)" fill="#ea8d81"/>
        <path id="Trazado_1179917" data-name="Trazado 1179917" d="M1730.085,1194c-2.617-8.694-4.982-15.914-9.682-33.5-5.963-22.309-11.586-33.025-32.091-35.117-9.412-.96-5.681,33.291-1.97,53.523a69.185,69.185,0,0,0,2.729,8.7c2.81,8.072,4.681,12.827,7.339,18.853a92.978,92.978,0,0,0,23.633-7.129A91.774,91.774,0,0,0,1730.085,1194Z" transform="translate(-1545.598 -1014.545)" fill="#1280db"/>
        <path id="Trazado_1179918" data-name="Trazado 1179918" d="M1348.96,1140.984c.99,6.743,1.492,10.162,3.975,13.781,3.834,5.588,9.632,7.629,14.311,9.276,7.684,2.7,14.082,2.423,20.937,2.12,5.206-.229,10.91-.529,17.756-3.18,4.025-1.559,7.892-3.056,11.4-6.891,4.323-4.73,5.476-10.153,6.1-13.251,1.006-5.03.539-8.59.265-12.456a111.2,111.2,0,0,1,.047-16.04c-1.333-.175-2.69-.362-3.884-.538-.46,9.414-.48,17.443-.537,24.466-.027,3.344-.03,8.823-3.626,13.516-3.392,4.427-8.165,5.785-14.835,7.582a57.594,57.594,0,0,1-30,.33c-5.038-1.409-9.549-2.738-12.857-6.923-1.462-1.85-2.854-4.466-3.956-11.868-1.32-8.864-.8-15.03-.66-20.769.05-2.037.062-4.409-.012-7.088a40.193,40.193,0,0,1-4.348.922c-.244,2.844-.483,6.432-.6,10.579C1348.248,1131.121,1348.147,1135.441,1348.96,1140.984Z" transform="translate(-1294.12 -1005.276)" fill="#fff"/>
        <path id="Trazado_1179919" data-name="Trazado 1179919" d="M1289.728,1224.059c-.027-.184-.053-.364-.079-.546l-26.794,49.019c.222,1.543.4,2.852.526,3.782.4,3.054,4.331,20.156,7.42,36.091a37.243,37.243,0,0,0,4.1-4.148c5.241-6.214,7.04-13.768,10.425-28.624,2.4-10.55,4.258-21.8,5.124-28.447.207-1.59.841-6.625,2.3-13.252.195-.886.386-1.719.569-2.491C1291.991,1233.6,1290.74,1230.841,1289.728,1224.059Z" transform="translate(-1229.799 -1088.424)" fill="#02548c" opacity="0.14"/>
        <path id="Trazado_1179920" data-name="Trazado 1179920" d="M1268.517,1421.925c-.679,7.375-4.4,16.456-7.952,24.1h9.553a185.3,185.3,0,0,0,4.807-18.891c2.028-12.472,1.615-18.822,1.413-21.2-.6-7.12-1.83-8.367-4.947-22.97-1.883-8.821-3.106-14.553-4.241-22.616-.648-4.61-1.964-10.258-4.594-21.556-.862-3.7-1.408-5.88-2.474-6.008-1.525-.183-3.388,3.918-5.182,9.343,1.035,6.147,2.092,13.359,2.494,16.436C1258.088,1363.872,1269.464,1411.651,1268.517,1421.925Z" transform="translate(-1223.811 -1170.673)" fill="#1372d8"/>
        <path id="Trazado_1179921" data-name="Trazado 1179921" d="M1621.07,1147.17c-.178,6.2-.2,11.753-.242,16.783-.027,3.344-.03,8.823-3.626,13.516a14.989,14.989,0,0,1-1.2,1.385q.178.772.363,1.611c1.456,6.627,2.09,11.661,2.3,13.252.866,6.647,2.72,17.9,5.124,28.447,3.384,14.855,5.183,22.41,10.425,28.624a36.987,36.987,0,0,0,2.664,2.839c3.781-16.095,9.114-36.279,9.125-36.316l.01-.032.059-.193v0l.059-.2.021-.07.061-.206c.007-.026.015-.052.023-.078l.052-.178c.011-.038.022-.077.034-.116l.052-.183.053-.187.089-.317c.014-.051.028-.1.042-.155q.039-.142.08-.292l.036-.135.056-.209.032-.12c.034-.129.069-.261.1-.4.01-.041.021-.081.032-.123.021-.083.075-.294.08-.315.043-.168,1.249-5.676,1.271-5.794h0s.119-.7.289-1.745Z" transform="translate(-1495.627 -1030.957)" fill="#02548c" opacity="0.14"/>
        <path id="Trazado_1179922" data-name="Trazado 1179922" d="M1661.182,1440.939l14.289.089c-.5-1.4-.768-2.236-1.2-3.35-3.339-8.58-10.47-16.65-10.993-29.948-.234-5.937,12.79-55.232,12.807-55.289l.01-.032.059-.193v0c.019-.062.039-.128.059-.2l.021-.07.061-.206.023-.078.052-.178.033-.116.052-.183.053-.186c.015-.051.073-.261.089-.317l.042-.155.08-.292.036-.135.056-.209.032-.12q.051-.193.1-.4l.032-.123c.021-.083.075-.295.08-.315.043-.168,1.249-5.676,1.271-5.794h0s.48-2.806.882-5.624c-1.821-6.131-3.785-11-5.441-10.83-1.068.109-1.652,2.278-2.579,5.963-2.829,11.25-4.243,16.875-4.973,21.472-1.276,8.042-2.6,13.751-4.638,22.538-3.374,14.545-4.622,15.771-5.351,22.879-.243,2.377-.768,8.718,1.04,21.224A138.521,138.521,0,0,0,1661.182,1440.939Z" transform="translate(-1525.713 -1166.087)" fill="#1372d8"/>
        <path id="Trazado_1179923" data-name="Trazado 1179923" d="M1445.9,1411.565h-40.947a4.225,4.225,0,0,1-4.225-4.225v-13.555a4.225,4.225,0,0,1,4.225-4.225H1445.9a4.226,4.226,0,0,1,4.226,4.225v13.555A4.225,4.225,0,0,1,1445.9,1411.565Z" transform="translate(-1333.579 -1213.415)" fill="#a4a3fa"/>
        <path id="Trazado_1179924" data-name="Trazado 1179924" d="M1448.581,1389.7a9.573,9.573,0,0,1-2.356,4.307c-2.721,2.773-5.282,1.512-11.308,4.241-6.137,2.779-5.94,5.2-11.308,7.067-4.791,1.667-6.865.405-11.308,1.06a21.552,21.552,0,0,0-8.7,3.42,4.221,4.221,0,0,0,3.513,1.878h40.947a4.226,4.226,0,0,0,4.226-4.226v-13.555A4.223,4.223,0,0,0,1448.581,1389.7Z" transform="translate(-1335.745 -1213.521)" fill="#8e8eef"/>
        <g id="Grupo_1228755" data-name="Grupo 1228755" transform="translate(114.883 46.093)">
          <path id="Trazado_1179925" data-name="Trazado 1179925" d="M1597.586,929.262c-1.6.033-3.206-4.2-3.665-6.963-.264-1.591-.169-2.823.916-8.8.667-3.672,1-5.508,1.649-8.612,1.524-7.3,1.939-8.3,2.016-10.994.082-2.877-.32-4.222-.733-7.33-1.071-8.053-4.928-22.127.479-22.967,1.065-.166,3.953,16.27,5.018,27.731C1605,910,1600.971,929.193,1597.586,929.262Z" transform="translate(-1593.797 -863.593)" fill="#ea8d81"/>
          <path id="Trazado_1179926" data-name="Trazado 1179926" d="M1613.662,965.618a24.941,24.941,0,0,1-4.463-13.455c-.072-4.842-3.069-10.568-4.212-13.816-.406-1.153-.884-2.152-1.955-5.131a50.971,50.971,0,0,1-1.71-5.131c-.6-2.881.26-4.28,1.71-10.262,1.1-4.53,1.646-8.017,1.955-10.017a79.261,79.261,0,0,0,.978-9.529,45.328,45.328,0,0,0-.244-7.574c-.335-2.675-.636-2.816-1.71-7.574-1.966-8.709-.739-7.271-1.955-12.705a9.131,9.131,0,0,1,0-3.909c.147-.662.623-2.8,1.71-2.932.773-.1,1.623.846,1.955,1.71.386,1.006-.046,1.6,0,2.932a8.591,8.591,0,0,0,.977,3.176c1.1,2.515,1.776,3.211,3.176,5.864.178.337,1.036,1.973,1.955,4.154.688,1.633,1.12,2.9,1.954,5.375,1.314,3.889,1.182,3.93,1.955,5.864a29.024,29.024,0,0,1,1.466,3.665,19.17,19.17,0,0,1,.488,4.886,44.492,44.492,0,0,1-.244,5.131c-.59,5.289-.716,10.463-.733,11.972a60.4,60.4,0,0,0,1.222,11.972,95.268,95.268,0,0,0,3.176,12.705,90.577,90.577,0,0,0,3.909,10.262c3.626,7.973,5.615,9.084,4.887,10.751C1628,968.375,1617.717,972.833,1613.662,965.618Z" transform="translate(-1599.316 -863.575)" fill="#f6a698"/>
          <g id="Grupo_1228753" data-name="Grupo 1228753" transform="translate(5.7 12.951)">
            <path id="Trazado_1179927" data-name="Trazado 1179927" d="M1625.29,939.252a.243.243,0,0,1-.281-.2c-.314-1.8-.709-3.569-1.175-5.276-.6-2.2-1.489-4.929-1.869-6.093l-.085-.259a24.038,24.038,0,0,1-1.23-5.007c-.034-.319-.076-.664-.159-1.351l0-.031a11.9,11.9,0,0,0-.553-3.112c-.249-.6-.59-1.424-1.1-1.479s-1.068.645-1.3,1.16a2.934,2.934,0,0,0-.147,1.631l0,.034c.109.958.156,1.934.2,2.877.033.689.068,1.4.126,2.1.073.882.126,1.789.156,2.7a.245.245,0,0,1-.238.253h0a.244.244,0,0,1-.25-.236c-.03-.9-.082-1.8-.155-2.676-.059-.705-.093-1.422-.127-2.115-.045-.936-.092-1.9-.2-2.845l0-.034a3.382,3.382,0,0,1,.186-1.885c.241-.541.928-1.54,1.8-1.446.8.086,1.207,1.064,1.5,1.778a12.1,12.1,0,0,1,.587,3.24l0,.031c.083.689.125,1.035.159,1.357a23.647,23.647,0,0,0,1.209,4.907l.083.255c.382,1.171,1.272,3.9,1.877,6.12.469,1.721.868,3.509,1.185,5.319a.245.245,0,0,1-.2.284Z" transform="translate(-1616.849 -915.954)" fill="#ea8d81"/>
          </g>
          <g id="Grupo_1228754" data-name="Grupo 1228754" transform="translate(6.049 5.947)">
            <path id="Trazado_1179928" data-name="Trazado 1179928" d="M1629.45,917.443a.244.244,0,0,1-.316-.14c-.383-1-.765-2.021-1.136-3.033-.82-2.238-1.3-3.653-1.721-4.9-.343-1.012-.639-1.886-1.048-3-.514-1.4-1.375-3.4-3.09-7.4l-.392-.91a55.2,55.2,0,0,1-2.8-7.426c-.254-.894-.484-1.8-.684-2.707a.245.245,0,0,1,.188-.292h0a.243.243,0,0,1,.289.185c.2.895.426,1.8.678,2.68a54.83,54.83,0,0,0,2.774,7.367l.392.911c1.718,4,2.581,6.012,3.1,7.424.411,1.119.708,2,1.052,3.011.422,1.245.9,2.656,1.718,4.889.37,1.01.751,2.027,1.133,3.027a.243.243,0,0,1-.141.315Z" transform="translate(-1618.262 -887.629)" fill="#ea8d81"/>
          </g>
          <path id="Trazado_1179929" data-name="Trazado 1179929" d="M1627.34,920.243a.789.789,0,0,1-.733-.244c-.214-.211-.24-.476-.244-1.466a9.838,9.838,0,0,1,.061-1.71c.083-.4.27-1.3.672-1.344.253-.029.5.291.611.489a1.374,1.374,0,0,1,.122.855C1627.565,918.72,1627.921,920.034,1627.34,920.243Z" transform="translate(-1618.309 -902.644)" fill="#fff2ee"/>
        </g>
        <g id="Grupo_1228756" data-name="Grupo 1228756" transform="translate(73.681 61.585)">
          <path id="Trazado_1179930" data-name="Trazado 1179930" d="M1433.945,929.951a12.1,12.1,0,0,1-6.267-1.751,1.061,1.061,0,0,1-.308-1.543h0a1.059,1.059,0,0,1,1.4-.271,9.981,9.981,0,0,0,8.228.969,1.055,1.055,0,0,1,1.288.593h0a1.058,1.058,0,0,1-.648,1.425A12.167,12.167,0,0,1,1433.945,929.951Z" transform="translate(-1427.161 -926.231)" fill="#49302a"/>
        </g>
        <g id="Grupo_1228757" data-name="Grupo 1228757" transform="translate(96.99 53.744)">
          <path id="Trazado_1179931" data-name="Trazado 1179931" d="M1521.924,899.479a16.91,16.91,0,0,1,13.811-4.87,1.641,1.641,0,0,1,1.44,1.974l-.018.083a1.651,1.651,0,0,1-1.793,1.291,13.8,13.8,0,0,0-6.734.988,13.646,13.646,0,0,0-4.348,2.941,1.631,1.631,0,0,1-2.179.107l-.068-.055A1.653,1.653,0,0,1,1521.924,899.479Z" transform="translate(-1521.429 -894.518)" fill="#36476b"/>
        </g>
        <g id="Grupo_1228758" data-name="Grupo 1228758" transform="translate(99.667 61.585)">
          <path id="Trazado_1179932" data-name="Trazado 1179932" d="M1536.687,929.951a12.094,12.094,0,0,0,6.267-1.751,1.061,1.061,0,0,0,.308-1.543h0a1.059,1.059,0,0,0-1.4-.271,9.981,9.981,0,0,1-8.228.969,1.055,1.055,0,0,0-1.288.593h0a1.058,1.058,0,0,0,.648,1.425A12.169,12.169,0,0,0,1536.687,929.951Z" transform="translate(-1532.258 -926.231)" fill="#49302a"/>
        </g>
        <path id="Trazado_1179933" data-name="Trazado 1179933" d="M1618.27,1145.3s9.983,56.14,14.991,73.191c1.648,5.611,2.642,13.049,9.7,24.03,5.4,8.4,34.848,7.351,21.554-25.2-1.19-2.914,0,0-14.647-33.81-8.478-19.571-18.553-40.041-18.553-40.041Z" transform="translate(-1497.336 -1028.171)" fill="#f6a698"/>
        <path id="Trazado_1179934" data-name="Trazado 1179934" d="M1134.431,1255.9c-4.109-10.668-1.9-18.9,2.409-35.569,2.614-10.1,6.787-14.309,10.912-31.28,4.081-16.788,6.969-12.04,11.524-16.43,4.976-4.8,16.093,15.527,13.634,30.774a52.126,52.126,0,0,1-1.887,6.541,194.4,194.4,0,0,1-8.293,21.589c-4.708,10.922,8.7,25.221,7.62,29.931C1167.943,1271.986,1141.819,1275.093,1134.431,1255.9Z" transform="translate(-1131.486 -1049.58)" fill="#f6a698"/>
        <path id="Trazado_1179935" data-name="Trazado 1179935" d="M1200.341,1368.916c-.247,10.047-8.691,18.152-12.015,16.962-5.562-1.992-2.827-32.187,3.18-33.217C1194.869,1352.085,1200.548,1360.43,1200.341,1368.916Z" transform="translate(-1171.422 -1185.619)" fill="#ea8d81"/>
        <path id="Trazado_1179936" data-name="Trazado 1179936" d="M1129.16,1191.184c2.617-8.694,4.983-15.914,9.682-33.5,5.963-22.309,10.95-33.908,36.2-36.049,9.427-.8,1.575,34.223-2.136,54.455a69.213,69.213,0,0,1-2.729,8.7c-2.809,8.072-4.68,12.827-7.339,18.853a92.631,92.631,0,0,1-33.675-12.46Z" transform="translate(-1129.16 -1011.727)" fill="#1280db"/>
        <g id="Grupo_1228761" data-name="Grupo 1228761" transform="translate(38.863 46.093)">
          <path id="Trazado_1179937" data-name="Trazado 1179937" d="M1376.8,929.262c1.6.033,3.206-4.2,3.665-6.963.264-1.591.169-2.823-.916-8.8-.667-3.672-1-5.508-1.649-8.612-1.524-7.3-1.939-8.3-2.016-10.994-.082-2.877.32-4.222.733-7.33,1.071-8.053,4.928-22.127-.479-22.967-1.065-.166-3.954,16.27-5.018,27.731C1369.382,910,1373.41,929.193,1376.8,929.262Z" transform="translate(-1349.841 -863.593)" fill="#ea8d81"/>
          <path id="Trazado_1179938" data-name="Trazado 1179938" d="M1302.735,965.618a24.937,24.937,0,0,0,4.464-13.455c.072-4.842,3.069-10.568,4.212-13.816.406-1.153.884-2.152,1.955-5.131a50.884,50.884,0,0,0,1.71-5.131c.6-2.881-.26-4.28-1.71-10.262-1.1-4.53-1.646-8.017-1.955-10.017a79.275,79.275,0,0,1-.977-9.529,45.315,45.315,0,0,1,.244-7.574c.335-2.675.636-2.816,1.71-7.574,1.966-8.709.739-7.271,1.955-12.705a9.138,9.138,0,0,0,0-3.909c-.147-.662-.623-2.8-1.71-2.932-.773-.1-1.623.846-1.955,1.71-.386,1.006.047,1.6,0,2.932a8.593,8.593,0,0,1-.977,3.176c-1.1,2.515-1.776,3.211-3.176,5.864-.178.337-1.036,1.973-1.955,4.154-.688,1.633-1.12,2.9-1.955,5.375-1.313,3.889-1.182,3.93-1.954,5.864a29.082,29.082,0,0,0-1.466,3.665,19.165,19.165,0,0,0-.489,4.886,44.479,44.479,0,0,0,.245,5.131c.589,5.289.716,10.463.733,11.972a60.388,60.388,0,0,1-1.222,11.972,95.259,95.259,0,0,1-3.176,12.705,90.6,90.6,0,0,1-3.909,10.262c-3.626,7.973-5.615,9.084-4.886,10.751C1288.4,968.375,1298.68,972.833,1302.735,965.618Z" transform="translate(-1286.339 -863.575)" fill="#f6a698"/>
          <g id="Grupo_1228759" data-name="Grupo 1228759" transform="translate(16.397 12.951)">
            <path id="Trazado_1179939" data-name="Trazado 1179939" d="M1352.859,939.252a.243.243,0,0,0,.281-.2c.314-1.8.709-3.569,1.175-5.276.6-2.2,1.489-4.929,1.868-6.093l.085-.259a24.038,24.038,0,0,0,1.231-5.007c.034-.319.076-.664.159-1.351l0-.031a11.913,11.913,0,0,1,.553-3.112c.249-.6.59-1.424,1.1-1.479s1.068.645,1.3,1.16a2.933,2.933,0,0,1,.147,1.631l0,.034c-.109.958-.156,1.934-.2,2.877-.033.689-.067,1.4-.125,2.1-.074.882-.126,1.789-.156,2.7a.245.245,0,0,0,.238.253h0a.244.244,0,0,0,.25-.236c.03-.9.082-1.8.155-2.676.059-.705.093-1.422.127-2.115.045-.936.092-1.9.2-2.845l0-.034a3.381,3.381,0,0,0-.186-1.885c-.241-.541-.928-1.54-1.8-1.446-.8.086-1.207,1.064-1.5,1.778a12.085,12.085,0,0,0-.587,3.24l0,.031c-.083.689-.125,1.035-.16,1.357a23.647,23.647,0,0,1-1.209,4.907l-.083.255c-.382,1.171-1.272,3.9-1.876,6.12-.47,1.721-.868,3.509-1.185,5.319a.245.245,0,0,0,.2.284Z" transform="translate(-1352.655 -915.954)" fill="#ea8d81"/>
          </g>
          <g id="Grupo_1228760" data-name="Grupo 1228760" transform="translate(13.349 5.947)">
            <path id="Trazado_1179940" data-name="Trazado 1179940" d="M1340.484,917.443a.244.244,0,0,0,.316-.14c.383-1,.765-2.021,1.136-3.033.82-2.238,1.3-3.653,1.721-4.9.343-1.012.639-1.886,1.048-3,.514-1.4,1.375-3.4,3.09-7.4l.391-.91a55.2,55.2,0,0,0,2.8-7.426c.254-.894.484-1.8.684-2.707a.245.245,0,0,0-.188-.292h0a.243.243,0,0,0-.289.185c-.2.895-.426,1.8-.677,2.68a54.863,54.863,0,0,1-2.774,7.367l-.392.911c-1.718,4-2.581,6.012-3.1,7.424-.411,1.119-.708,2-1.052,3.011-.422,1.245-.9,2.656-1.717,4.889-.37,1.01-.751,2.027-1.133,3.027a.245.245,0,0,0,.14.315Z" transform="translate(-1340.327 -887.629)" fill="#ea8d81"/>
          </g>
          <path id="Trazado_1179941" data-name="Trazado 1179941" d="M1372.6,920.243a.79.79,0,0,0,.733-.244c.214-.211.24-.476.244-1.466a9.838,9.838,0,0,0-.061-1.71c-.083-.4-.27-1.3-.672-1.344-.253-.029-.5.291-.611.489a1.373,1.373,0,0,0-.122.855C1372.375,918.72,1372.019,920.034,1372.6,920.243Z" transform="translate(-1350.889 -902.644)" fill="#fff2ee"/>
        </g>
        <path id="Trazado_1179942" data-name="Trazado 1179942" d="M1235.021,1145.3s-9.983,56.14-14.991,73.191c-1.648,5.611-2.643,13.049-9.7,24.03-5.4,8.4-34.847,7.351-21.553-25.2,1.19-2.914,0,0,14.647-33.81,8.478-19.571,18.553-40.041,18.553-40.041Z" transform="translate(-1171.465 -1028.171)" fill="#f6a698"/>
        <g id="Grupo_1228762" data-name="Grupo 1228762" transform="translate(83.091 81.781)">
          <path id="Trazado_1179943" data-name="Trazado 1179943" d="M1465.767,1013.3c-.181-.181-.655-.659-.528-1.056.021-.067.137-.372.905-.528,1.6-.326,3.209.575,5.017,1.019a14.375,14.375,0,0,0,5.206.151c1.295-.142,2.593-.26,3.886-.415,1.342-.161,2.263-.289,2.528.151.236.393-.172,1.039-.3,1.245-.253.4-1.4,2.018-5.659,2.49C1470.171,1017.1,1466.35,1013.891,1465.767,1013.3Z" transform="translate(-1465.217 -1010.726)" fill="#fff"/>
          <path id="Trazado_1179944" data-name="Trazado 1179944" d="M1465.76,1008.868a28.813,28.813,0,0,1,3.112-.792,4.949,4.949,0,0,1,2.546,0c.753.279,1.025.715,2.037.906a3.48,3.48,0,0,0,.962.057,4.346,4.346,0,0,0,1.415-.453,7.045,7.045,0,0,1,1.98-.509,4.734,4.734,0,0,1,2.32.339c.694.3.747.562,1.528.849.852.313,1.406.235,1.415.34.016.2-1.97.59-4.357.849a41.775,41.775,0,0,1-4.81.283A16.286,16.286,0,0,1,1465.76,1008.868Z" transform="translate(-1465.626 -1007.912)" fill="#dd7472"/>
          <path id="Trazado_1179945" data-name="Trazado 1179945" d="M1465.408,1015.723c.427-.366,1.808,1.191,4.244,2.037a15.029,15.029,0,0,0,6.112.679,8.093,8.093,0,0,0,3.056-.509,11.56,11.56,0,0,1,3.112-1.471c.8-.182.929-.061.962,0,.1.182-2.49,8.488-11.318,6.508a7.318,7.318,0,0,1-4.018-2.66C1466.3,1018.8,1464.874,1016.18,1465.408,1015.723Z" transform="translate(-1465.274 -1013.75)" fill="#dd7472"/>
        </g>
      </g>
      <g id="Grupo_1228793" data-name="Grupo 1228793" transform="translate(1352.843 8728.802)">
        <path id="Trazado_1179946" data-name="Trazado 1179946" d="M1460.5,1847.883l14.5-2.133-2.709-73.94H1460.5Z" transform="translate(-1342.185 -1760.212)" fill="#e4ecf2"/>
        <path id="Trazado_1179947" data-name="Trazado 1179947" d="M968.612,1779.791c7.274-.527,18.293-3.6,31.9-3.624a87.8,87.8,0,0,1,43.735,11.6l-2.174,73.939c-5.664-4.646-36.709-14.688-66.52-12.553-25.909,1.856-44.932,9.123-51.987,12.553l-2.792-14Z" transform="translate(-920.769 -1763.614)" fill="#f2f6f9"/>
        <path id="Trazado_1179948" data-name="Trazado 1179948" d="M964.9,1833.4a103.747,103.747,0,0,1,35.768,2.417c7.268,1.889,16.991,4.416,27.31,12.084a66.526,66.526,0,0,1,13.349,13.254c.285.19.539.374.753.549l2.174-73.939a87.807,87.807,0,0,0-43.735-11.6c-13.6.027-24.622,3.1-31.9,3.624l-47.843,67.91.448,2.249a80.348,80.348,0,0,1,19.261-10.992A85.051,85.051,0,0,1,964.9,1833.4Z" transform="translate(-920.776 -1763.609)" fill="#e4ecf2"/>
        <path id="Trazado_1179949" data-name="Trazado 1179949" d="M968.613,1724.7a92.172,92.172,0,0,1,31.9-5.8,87.8,87.8,0,0,1,43.735,11.6l-2.174,73.939c-5.664-4.646-33.881-24.772-70.557-21.747a94.75,94.75,0,0,0-50.742,20.3Z" transform="translate(-920.77 -1718.903)" fill="#fff"/>
        <path id="Trazado_1179950" data-name="Trazado 1179950" d="M1254.42,1730.5a87.8,87.8,0,0,0-43.735-11.6,91.465,91.465,0,0,0-20.729,2.429,64.539,64.539,0,0,1,25.229,9.112c22.214,13.947,28.181,37.5,31.418,50.269a102.788,102.788,0,0,1,3.082,21.762c1.1.8,1.958,1.47,2.561,1.964Z" transform="translate(-1130.947 -1718.9)" fill="#f3faff"/>
        <path id="Trazado_1179951" data-name="Trazado 1179951" d="M1580.95,1779.791c-7.274-.527-18.293-3.6-31.9-3.624a87.805,87.805,0,0,0-43.735,11.6l2.174,73.939c5.664-4.646,36.709-14.688,66.52-12.553,25.909,1.856,44.932,9.123,51.987,12.553l2.792-14Z" transform="translate(-1377.18 -1763.614)" fill="#f2f6f9"/>
        <path id="Trazado_1179952" data-name="Trazado 1179952" d="M1584.676,1833.4a103.748,103.748,0,0,0-35.769,2.417c-7.268,1.889-16.991,4.416-27.31,12.084a66.53,66.53,0,0,0-13.349,13.254c-.285.19-.539.374-.753.549l-2.174-73.939a87.805,87.805,0,0,1,43.735-11.6c13.6.027,24.622,3.1,31.9,3.624l47.843,67.91-.448,2.249a80.348,80.348,0,0,0-19.261-10.992A85.082,85.082,0,0,0,1584.676,1833.4Z" transform="translate(-1377.181 -1763.609)" fill="#e4ecf2"/>
        <path id="Trazado_1179953" data-name="Trazado 1179953" d="M1580.95,1724.7a92.171,92.171,0,0,0-31.9-5.8,87.8,87.8,0,0,0-43.735,11.6l2.174,73.939c5.664-4.646,33.881-24.772,70.557-21.747a94.749,94.749,0,0,1,50.742,20.3Z" transform="translate(-1377.18 -1718.903)" fill="#fff"/>
        <path id="Trazado_1179954" data-name="Trazado 1179954" d="M1505.32,1730.5a87.8,87.8,0,0,1,43.735-11.6,91.466,91.466,0,0,1,20.729,2.429,64.539,64.539,0,0,0-25.229,9.112c-22.214,13.947-28.181,37.5-31.418,50.269a102.788,102.788,0,0,0-3.082,21.762c-1.1.8-1.958,1.47-2.561,1.964Z" transform="translate(-1377.18 -1718.9)" fill="#f3faff"/>
        <rect id="Rect치ngulo_422862" data-name="Rect치ngulo 422862" width="9.099" height="12.553" transform="translate(121.298 85.538)" fill="#e4ecf2"/>
        <path id="Trazado_1179955" data-name="Trazado 1179955" d="M1481.364,2120.026h-5.4a1.851,1.851,0,0,1-1.852-1.852v-4.82a4.243,4.243,0,0,1,4.242-4.242h.615a4.243,4.243,0,0,1,4.242,4.242v4.82A1.853,1.853,0,0,1,1481.364,2120.026Z" transform="translate(-1352.816 -2023.573)" fill="#d9deed"/>
        <g id="Grupo_1228764" data-name="Grupo 1228764" transform="translate(1.912 84.784)">
          <path id="Trazado_1179956" data-name="Trazado 1179956" d="M929.653,2120.891h0a1.694,1.694,0,0,1,.838-2.26,144.826,144.826,0,0,1,43.189-12,142.951,142.951,0,0,1,46.726,2.2,135.354,135.354,0,0,1,26.832,9.062,1.7,1.7,0,0,1,.828,2.266h0a1.688,1.688,0,0,1-2.227.814,131.992,131.992,0,0,0-26.172-8.841,139.509,139.509,0,0,0-45.6-2.146,141.445,141.445,0,0,0-42.2,11.724A1.689,1.689,0,0,1,929.653,2120.891Z" transform="translate(-929.493 -2105.668)" fill="#3845b8"/>
        </g>
        <g id="Grupo_1228765" data-name="Grupo 1228765" transform="translate(130.482 85.025)">
          <path id="Trazado_1179957" data-name="Trazado 1179957" d="M1634.581,2121.991h0a1.694,1.694,0,0,0-.838-2.26,144.826,144.826,0,0,0-43.189-12,142.965,142.965,0,0,0-46.726,2.2A135.355,135.355,0,0,0,1517,2119a1.694,1.694,0,0,0-.828,2.266h0a1.688,1.688,0,0,0,2.227.814,131.994,131.994,0,0,1,26.172-8.841,139.509,139.509,0,0,1,45.6-2.146,141.444,141.444,0,0,1,42.2,11.724A1.687,1.687,0,0,0,1634.581,2121.991Z" transform="translate(-1516.004 -2106.768)" fill="#3845b8"/>
        </g>
        <g id="Grupo_1228766" data-name="Grupo 1228766" transform="translate(118.556 97.822)">
          <path id="Trazado_1179958" data-name="Trazado 1179958" d="M1473.846,2168.53h-10.714A1.531,1.531,0,0,1,1461.6,2167v-.322a1.531,1.531,0,0,1,1.531-1.531h10.714a1.531,1.531,0,0,1,1.531,1.531V2167A1.531,1.531,0,0,1,1473.846,2168.53Z" transform="translate(-1461.601 -2165.146)" fill="#173d75"/>
        </g>
        <g id="Grupo_1228779" data-name="Grupo 1228779" transform="translate(34.631 28.266)">
          <g id="Grupo_1228767" data-name="Grupo 1228767" transform="translate(65.434 27.261)">
            <path id="Trazado_1179959" data-name="Trazado 1179959" d="M1382.8,1977.629c-1.544-.861-3.113-1.681-4.69-2.452a1.541,1.541,0,0,1-.719-2.04l.02-.044a1.544,1.544,0,0,1,2.075-.732c1.627.8,3.246,1.641,4.839,2.529a1.544,1.544,0,0,1,.585,2.121l-.024.042A1.541,1.541,0,0,1,1382.8,1977.629Z" transform="translate(-1377.247 -1972.205)" fill="#d9deed"/>
          </g>
          <g id="Grupo_1228768" data-name="Grupo 1228768" transform="translate(48.857 20.973)">
            <path id="Trazado_1179960" data-name="Trazado 1179960" d="M1313.863,1950.429a93.014,93.014,0,0,0-11.1-3.829,1.541,1.541,0,0,1-1.085-1.87l.012-.047a1.544,1.544,0,0,1,1.9-1.106,96.158,96.158,0,0,1,11.476,3.957,1.545,1.545,0,0,1,.822,2.043l-.019.044A1.545,1.545,0,0,1,1313.863,1950.429Z" transform="translate(-1301.626 -1943.522)" fill="#d9deed"/>
          </g>
          <g id="Grupo_1228769" data-name="Grupo 1228769" transform="translate(31.125 17.984)">
            <path id="Trazado_1179961" data-name="Trazado 1179961" d="M1233.8,1934.566a85.621,85.621,0,0,0-11.617-1.547,1.541,1.541,0,0,1-1.443-1.608l0-.048a1.545,1.545,0,0,1,1.64-1.472,88.844,88.844,0,0,1,12.04,1.6,1.545,1.545,0,0,1,1.2,1.848l-.01.047A1.54,1.54,0,0,1,1233.8,1934.566Z" transform="translate(-1220.737 -1929.888)" fill="#d9deed"/>
          </g>
          <g id="Grupo_1228770" data-name="Grupo 1228770" transform="translate(16.083 17.82)">
            <path id="Trazado_1179962" data-name="Trazado 1179962" d="M1152.138,1931.487l-.006-.048a1.543,1.543,0,0,1,1.349-1.739c1.351-.156,2.711-.281,4.06-.372,1.624-.11,3.267-.174,4.9-.192a1.545,1.545,0,0,1,1.56,1.556v.048a1.541,1.541,0,0,1-1.525,1.53c-1.576.017-3.16.079-4.725.185-1.3.088-2.605.208-3.905.358A1.543,1.543,0,0,1,1152.138,1931.487Z" transform="translate(-1152.118 -1929.136)" fill="#d9deed"/>
          </g>
          <g id="Grupo_1228771" data-name="Grupo 1228771" transform="translate(0 19.477)">
            <path id="Trazado_1179963" data-name="Trazado 1179963" d="M1078.847,1941.128l-.015-.046a1.545,1.545,0,0,1,1-1.964,88.619,88.619,0,0,1,9.256-2.39,1.544,1.544,0,0,1,1.822,1.238l.009.047a1.541,1.541,0,0,1-1.214,1.788,85.428,85.428,0,0,0-8.927,2.306A1.539,1.539,0,0,1,1078.847,1941.128Z" transform="translate(-1078.751 -1936.697)" fill="#d9deed"/>
          </g>
          <g id="Grupo_1228772" data-name="Grupo 1228772" transform="translate(56.027 13.297)">
            <path id="Trazado_1179964" data-name="Trazado 1179964" d="M1347.618,1916.387a90.451,90.451,0,0,0-12.2-4.82,1.54,1.54,0,0,1-1.016-1.906l.014-.047a1.544,1.544,0,0,1,1.942-1.038,93.573,93.573,0,0,1,12.619,4.986,1.544,1.544,0,0,1,.708,2.084l-.022.043A1.538,1.538,0,0,1,1347.618,1916.387Z" transform="translate(-1334.338 -1908.506)" fill="#d9deed"/>
          </g>
          <g id="Grupo_1228773" data-name="Grupo 1228773" transform="translate(42.914 10.234)">
            <path id="Trazado_1179965" data-name="Trazado 1179965" d="M1282.274,1898.9c-2.134-.5-4.3-.918-6.456-1.256a1.541,1.541,0,0,1-1.288-1.735l.007-.048a1.545,1.545,0,0,1,1.769-1.313c2.235.35,4.471.785,6.678,1.3a1.544,1.544,0,0,1,1.147,1.88l-.012.047A1.54,1.54,0,0,1,1282.274,1898.9Z" transform="translate(-1274.515 -1894.53)" fill="#d9deed"/>
          </g>
          <g id="Grupo_1228774" data-name="Grupo 1228774" transform="translate(24.692 9.146)">
            <path id="Trazado_1179966" data-name="Trazado 1179966" d="M1191.4,1891.357l0-.048a1.544,1.544,0,0,1,1.467-1.641,92.409,92.409,0,0,1,10.579.113l.025,0a1.542,1.542,0,0,1,1.428,1.671l0,.048a1.545,1.545,0,0,1-1.647,1.407h-.015a89.347,89.347,0,0,0-10.217-.109A1.545,1.545,0,0,1,1191.4,1891.357Z" transform="translate(-1191.391 -1889.568)" fill="#d9deed"/>
          </g>
          <g id="Grupo_1228775" data-name="Grupo 1228775" transform="translate(6.474 9.79)">
            <path id="Trazado_1179967" data-name="Trazado 1179967" d="M1108.35,1896.671l-.013-.047a1.545,1.545,0,0,1,1.109-1.9,93.32,93.32,0,0,1,11.85-2.206,1.545,1.545,0,0,1,1.719,1.376l.005.048a1.541,1.541,0,0,1-1.351,1.688,90.149,90.149,0,0,0-11.453,2.132A1.543,1.543,0,0,1,1108.35,1896.671Z" transform="translate(-1108.283 -1892.504)" fill="#d9deed"/>
          </g>
          <g id="Grupo_1228776" data-name="Grupo 1228776" transform="translate(52.714 2.728)">
            <path id="Trazado_1179968" data-name="Trazado 1179968" d="M1332.19,1867.182a93.014,93.014,0,0,0-11.8-3.806,1.541,1.541,0,0,1-1.127-1.845l.011-.047a1.545,1.545,0,0,1,1.88-1.148,96.15,96.15,0,0,1,12.193,3.932,1.545,1.545,0,0,1,.855,2.03l-.019.044A1.542,1.542,0,0,1,1332.19,1867.182Z" transform="translate(-1319.222 -1860.29)" fill="#d9deed"/>
          </g>
          <g id="Grupo_1228777" data-name="Grupo 1228777" transform="translate(33.717)">
            <path id="Trazado_1179969" data-name="Trazado 1179969" d="M1248.456,1851.142a1.54,1.54,0,0,1-1.783,1.22c-2.917-.524-5.879-.911-8.825-1.151-1.262-.1-2.537-.18-3.808-.231a1.541,1.541,0,0,1-1.479-1.577v-.048a1.545,1.545,0,0,1,1.605-1.507c1.313.053,2.631.133,3.935.239,3.044.249,6.105.648,9.121,1.189a1.544,1.544,0,0,1,1.241,1.818Z" transform="translate(-1232.561 -1847.846)" fill="#d9deed"/>
          </g>
          <g id="Grupo_1228778" data-name="Grupo 1228778" transform="translate(12.772 0.028)">
            <path id="Trazado_1179970" data-name="Trazado 1179970" d="M1137.056,1851.353l-.009-.047a1.545,1.545,0,0,1,1.233-1.826,96.1,96.1,0,0,1,12.978-1.5,1.545,1.545,0,0,1,1.618,1.5v.048a1.54,1.54,0,0,1-1.467,1.587,92.956,92.956,0,0,0-12.562,1.456A1.539,1.539,0,0,1,1137.056,1851.353Z" transform="translate(-1137.015 -1847.974)" fill="#d9deed"/>
          </g>
        </g>
        <g id="Grupo_1228792" data-name="Grupo 1228792" transform="translate(141.906 28.245)">
          <g id="Grupo_1228780" data-name="Grupo 1228780" transform="translate(0 28.861)">
            <path id="Trazado_1179971" data-name="Trazado 1179971" d="M1570.493,1984.993c1.507-.924,3.041-1.808,4.584-2.644a1.541,1.541,0,0,0,.634-2.068l-.022-.043a1.544,1.544,0,0,0-2.1-.645c-1.593.862-3.175,1.774-4.729,2.727a1.545,1.545,0,0,0-.5,2.144l.026.041A1.542,1.542,0,0,0,1570.493,1984.993Z" transform="translate(-1568.119 -1979.407)" fill="#d9deed"/>
          </g>
          <g id="Grupo_1228781" data-name="Grupo 1228781" transform="translate(9.849 21.892)">
            <path id="Trazado_1179972" data-name="Trazado 1179972" d="M1615.261,1954.96a92.969,92.969,0,0,1,10.935-4.286,1.541,1.541,0,0,0,1.007-1.913l-.014-.046a1.545,1.545,0,0,0-1.949-1.026,96.091,96.091,0,0,0-11.3,4.429,1.545,1.545,0,0,0-.736,2.075l.021.043A1.543,1.543,0,0,0,1615.261,1954.96Z" transform="translate(-1613.047 -1947.616)" fill="#d9deed"/>
          </g>
          <g id="Grupo_1228782" data-name="Grupo 1228782" transform="translate(26.815 18.172)">
            <path id="Trazado_1179973" data-name="Trazado 1179973" d="M1692.367,1935.8a85.641,85.641,0,0,1,11.543-2.027,1.541,1.541,0,0,0,1.375-1.666l0-.048a1.545,1.545,0,0,0-1.7-1.4,88.827,88.827,0,0,0-11.963,2.1,1.545,1.545,0,0,0-1.123,1.9l.012.047A1.542,1.542,0,0,0,1692.367,1935.8Z" transform="translate(-1690.443 -1930.645)" fill="#d9deed"/>
          </g>
          <g id="Grupo_1228783" data-name="Grupo 1228783" transform="translate(44.807 17.708)">
            <path id="Trazado_1179974" data-name="Trazado 1179974" d="M1784.409,1930.49l0-.048a1.543,1.543,0,0,0-1.42-1.681c-1.356-.1-2.72-.168-4.071-.2-1.627-.043-3.272-.039-4.907.011a1.545,1.545,0,0,0-1.494,1.62l0,.048a1.541,1.541,0,0,0,1.587,1.465c1.576-.048,3.161-.052,4.729-.011,1.3.034,2.612.1,3.917.2A1.544,1.544,0,0,0,1784.409,1930.49Z" transform="translate(-1772.519 -1928.528)" fill="#d9deed"/>
          </g>
          <g id="Grupo_1228784" data-name="Grupo 1228784" transform="translate(60.642 18.752)">
            <path id="Trazado_1179975" data-name="Trazado 1179975" d="M1856.958,1937.282l.013-.046a1.544,1.544,0,0,0-1.078-1.921,88.6,88.6,0,0,0-9.347-2,1.544,1.544,0,0,0-1.769,1.312l-.007.048a1.541,1.541,0,0,0,1.287,1.736,85.474,85.474,0,0,1,9.015,1.934A1.545,1.545,0,0,0,1856.958,1937.282Z" transform="translate(-1844.756 -1933.29)" fill="#d9deed"/>
          </g>
          <g id="Grupo_1228785" data-name="Grupo 1228785" transform="translate(1.288 14.52)">
            <path id="Trazado_1179976" data-name="Trazado 1179976" d="M1576.285,1922.348a90.433,90.433,0,0,1,11.991-5.322,1.54,1.54,0,0,0,.936-1.946l-.016-.046a1.544,1.544,0,0,0-1.983-.956,93.575,93.575,0,0,0-12.4,5.5,1.544,1.544,0,0,0-.621,2.112l.023.042A1.539,1.539,0,0,0,1576.285,1922.348Z" transform="translate(-1573.995 -1913.987)" fill="#d9deed"/>
          </g>
          <g id="Grupo_1228786" data-name="Grupo 1228786" transform="translate(19.959 10.914)">
            <path id="Trazado_1179977" data-name="Trazado 1179977" d="M1661.133,1902.163c2.111-.585,4.253-1.095,6.4-1.523a1.541,1.541,0,0,0,1.215-1.787l-.009-.047a1.545,1.545,0,0,0-1.821-1.239c-2.219.443-4.435.97-6.618,1.575a1.545,1.545,0,0,0-1.068,1.927l.014.046A1.539,1.539,0,0,0,1661.133,1902.163Z" transform="translate(-1659.166 -1897.536)" fill="#d9deed"/>
          </g>
          <g id="Grupo_1228787" data-name="Grupo 1228787" transform="translate(34.232 9.171)">
            <path id="Trazado_1179978" data-name="Trazado 1179978" d="M1737.773,1891.211v-.048a1.544,1.544,0,0,0-1.534-1.579,92.467,92.467,0,0,0-10.565.551l-.025,0a1.542,1.542,0,0,0-1.357,1.729l.006.048a1.545,1.545,0,0,0,1.7,1.338l.015,0a89.321,89.321,0,0,1,10.2-.532A1.544,1.544,0,0,0,1737.773,1891.211Z" transform="translate(-1724.28 -1889.583)" fill="#d9deed"/>
          </g>
          <g id="Grupo_1228788" data-name="Grupo 1228788" transform="translate(51.217 9.445)">
            <path id="Trazado_1179979" data-name="Trazado 1179979" d="M1816.536,1894.456l.011-.047a1.545,1.545,0,0,0-1.187-1.855,93.34,93.34,0,0,0-11.931-1.714,1.545,1.545,0,0,0-1.661,1.446l0,.048a1.541,1.541,0,0,0,1.419,1.63,90.147,90.147,0,0,1,11.532,1.656A1.543,1.543,0,0,0,1816.536,1894.456Z" transform="translate(-1801.762 -1890.835)" fill="#d9deed"/>
          </g>
          <g id="Grupo_1228789" data-name="Grupo 1228789" transform="translate(4.531 3.822)">
            <path id="Trazado_1179980" data-name="Trazado 1179980" d="M1590.978,1872.546a92.98,92.98,0,0,1,11.633-4.291,1.541,1.541,0,0,0,1.049-1.89l-.013-.046a1.545,1.545,0,0,0-1.926-1.07,96.174,96.174,0,0,0-12.019,4.433,1.545,1.545,0,0,0-.77,2.064l.021.044A1.542,1.542,0,0,0,1590.978,1872.546Z" transform="translate(-1588.787 -1865.186)" fill="#d9deed"/>
          </g>
          <g id="Grupo_1228790" data-name="Grupo 1228790" transform="translate(22.463 0.308)">
            <path id="Trazado_1179981" data-name="Trazado 1179981" d="M1670.645,1853.041a1.54,1.54,0,0,0,1.832,1.145c2.893-.645,5.836-1.153,8.77-1.516,1.256-.155,2.527-.285,3.795-.388a1.541,1.541,0,0,0,1.413-1.636l0-.048a1.545,1.545,0,0,0-1.667-1.439c-1.31.107-2.624.242-3.922.4-3.031.374-6.073.9-9.064,1.566a1.545,1.545,0,0,0-1.165,1.868Z" transform="translate(-1670.59 -1849.152)" fill="#d9deed"/>
          </g>
          <g id="Grupo_1228791" data-name="Grupo 1228791" transform="translate(43.405)">
            <path id="Trazado_1179982" data-name="Trazado 1179982" d="M1782.008,1850.535l.008-.047a1.545,1.545,0,0,0-1.307-1.773,96.057,96.057,0,0,0-13.029-.966,1.545,1.545,0,0,0-1.554,1.561v.048a1.541,1.541,0,0,0,1.531,1.525,92.9,92.9,0,0,1,12.612.935A1.542,1.542,0,0,0,1782.008,1850.535Z" transform="translate(-1766.125 -1847.749)" fill="#d9deed"/>
          </g>
        </g>
      </g>
      <g id="Grupo_1228794" data-name="Grupo 1228794" transform="translate(1300.728 8404.125)">
        <path id="Trazado_1179983" data-name="Trazado 1179983" d="M722.116,964.158c-2.123-3.97-5.731-5.551-10.725-4.7,2.369-3.265,2.684-6.578.934-9.85a9.161,9.161,0,0,0-1.968-2.523,9.041,9.041,0,0,0-2.682-1.657,9.453,9.453,0,0,0-3.065-.67,10.112,10.112,0,0,0-3.766.544,28.7,28.7,0,0,0-4.291,1.915l-10.748,5.748a4.959,4.959,0,0,0-2.647,2.687,5.041,5.041,0,0,0,.734,3.75l13.336,24.935a5.135,5.135,0,0,0,2.674,2.681,4.872,4.872,0,0,0,3.742-.7l10.137-5.422a40.49,40.49,0,0,0,4.466-2.724,15.675,15.675,0,0,0,3.028-2.778,9.846,9.846,0,0,0,2.108-5.406A10.472,10.472,0,0,0,722.116,964.158Zm-11.4,11.655-7.126,3.811-5.082-9.5,6.9-3.69a11.168,11.168,0,0,1,5.82-1.676,4.462,4.462,0,0,1,3.63,2.644C716.566,970.6,715.173,973.428,710.714,975.813ZM706.59,956.49a4.117,4.117,0,0,1-1.1,2.86,13.99,13.99,0,0,1-3.6,2.529l-6.063,3.243-4.489-8.392,5.361-2.867a15.469,15.469,0,0,1,5.852-2.079c1.435-.083,2.6.7,3.475,2.327A4.552,4.552,0,0,1,706.59,956.49Z" transform="translate(-646.164 -783.956)" fill="#6199d6"/>
        <path id="Trazado_1179984" data-name="Trazado 1179984" d="M902.158,1174.665a12.155,12.155,0,0,0-2.869-5.061,14.531,14.531,0,0,0-5.7-3.784,15.4,15.4,0,0,0-5.8-1.048,13.621,13.621,0,0,0-5.567,1.285,14.3,14.3,0,0,0-4.7,3.6,19.3,19.3,0,0,0-3.4,5.837,21.006,21.006,0,0,0-1.146,4.2,17.016,17.016,0,0,0-.165,4.048,15.374,15.374,0,0,0,.783,3.783,12.31,12.31,0,0,0,1.881,3.485,12.54,12.54,0,0,0,2.878,2.649,19.8,19.8,0,0,0,3.977,2.019,14.378,14.378,0,0,0,5.639,1.054,11.725,11.725,0,0,0,4.683-1.086A11.57,11.57,0,0,0,896,1193.31a8.3,8.3,0,0,0,1.827-2.732,2.673,2.673,0,0,0-.056-2.149,2.728,2.728,0,0,0-1.548-1.448,2.312,2.312,0,0,0-2.107.047,6.722,6.722,0,0,0-1.646,1.512,7.981,7.981,0,0,1-3.964,2.62,7.518,7.518,0,0,1-4.656-.377,7.807,7.807,0,0,1-3.57-2.608,7.47,7.47,0,0,1-1.373-4.284,15.344,15.344,0,0,1,1.186-5.888c1.265-3.3,2.962-5.613,5.043-6.867a7.291,7.291,0,0,1,6.665-.528,6.927,6.927,0,0,1,3.339,2.473,9.324,9.324,0,0,1,1.434,4.171,7.938,7.938,0,0,0,.553,2.32,2.606,2.606,0,0,0,1.515,1.211,2.48,2.48,0,0,0,2.061-.114,2.788,2.788,0,0,0,1.419-1.535A7.385,7.385,0,0,0,902.158,1174.665Z" transform="translate(-831.172 -961.564)" fill="#fff"/>
        <path id="Trazado_1179985" data-name="Trazado 1179985" d="M1106.573,339.588c-.244-4.9-1.853-8.542-4.785-10.809a8.888,8.888,0,0,0-3.732-1.767,19.385,19.385,0,0,0-4.809-.28l-7.119.353a2.944,2.944,0,0,0-3.252,3.592l.982,19.774a8.186,8.186,0,0,0,.339,2.133,2.178,2.178,0,0,0,1.083,1.262,4.55,4.55,0,0,0,2.305.348l7.119-.353a21.255,21.255,0,0,0,3.339-.406,10.87,10.87,0,0,0,2.746-.972,9.492,9.492,0,0,0,2.314-1.7,11.371,11.371,0,0,0,2.134-3.011,13.252,13.252,0,0,0,1.133-3.7A21.663,21.663,0,0,0,1106.573,339.588Zm-8.01,8.308a4.311,4.311,0,0,1-1.37.884,6.608,6.608,0,0,1-1.564.442c-.507.074-1.221.134-2.123.179l-4.064.2-.9-18.154,3.531-.175a14.673,14.673,0,0,1,4.272.329,5.325,5.325,0,0,1,3.053,2.351,11.758,11.758,0,0,1,1.489,5.88C1101.071,343.57,1100.29,346.282,1098.563,347.9Z" transform="translate(-992.102 -263.585)" fill="#61b6e5"/>
        <path id="Trazado_1179986" data-name="Trazado 1179986" d="M884.366,764.475a2.31,2.31,0,0,0-1.193-1.513,3.106,3.106,0,0,0-2.256-.053l-13.177,3.747-2.227-7.832,11.721-3.333a2.94,2.94,0,0,0,1.83-1.2,2.23,2.23,0,0,0,.2-1.8,2.152,2.152,0,0,0-1.122-1.41,3.009,3.009,0,0,0-2.168-.037l-11.721,3.333-1.917-6.74,12.736-3.622a3.124,3.124,0,0,0,1.9-1.213,2.23,2.23,0,0,0,.215-1.852,2.206,2.206,0,0,0-1.152-1.442,3.123,3.123,0,0,0-2.25-.034l-15.017,4.27a5.083,5.083,0,0,0-1.912.934,2.438,2.438,0,0,0-.846,1.5,5.018,5.018,0,0,0,.207,2.14l6,21.107a3.173,3.173,0,0,0,4.577,2.55l15.457-4.4a3.105,3.105,0,0,0,1.89-1.232A2.265,2.265,0,0,0,884.366,764.475Z" transform="translate(-807.22 -633.257)" fill="#8e8eef"/>
        <path id="Trazado_1179987" data-name="Trazado 1179987" d="M1805.134,474.942a3.65,3.65,0,0,0-1.523-2.339,3.219,3.219,0,0,0-2.372-.713,4.444,4.444,0,0,0-1.958.8,26.327,26.327,0,0,0-2.128,1.8l-16.471,14.721,7.281-19.564c.607-1.638,1.019-2.855,1.225-3.615a5.246,5.246,0,0,0-.013-2.568,4.5,4.5,0,0,0-1.928-2.562,4.74,4.74,0,0,0-3.031-1.035,5.309,5.309,0,0,0-2.583.823,33.319,33.319,0,0,0-3,2.287l-16.117,13.242,8.6-20.343a15.254,15.254,0,0,0,1.239-3.912,2.988,2.988,0,0,0-1.541-2.81,3.611,3.611,0,0,0-2.725-.682,3.419,3.419,0,0,0-2.337,1.449,14.984,14.984,0,0,0-1.508,3.085l-9.639,24.243c-.286.724-.59,1.521-.9,2.368a9.477,9.477,0,0,0-.583,2.422,4.152,4.152,0,0,0,.343,2.121,4.719,4.719,0,0,0,1.617,1.82,4.321,4.321,0,0,0,2.859.926,5.008,5.008,0,0,0,2.414-.787c.662-.44,1.7-1.227,3.079-2.337l17.832-14.523-8.039,21.525h0c-.62,1.716-1.035,2.967-1.235,3.717a4.834,4.834,0,0,0,.048,2.5,4.361,4.361,0,0,0,1.808,2.395,4.291,4.291,0,0,0,2.921.953,5.128,5.128,0,0,0,2.434-.883c.691-.482,1.721-1.3,3.061-2.444l19.825-16.959a16.276,16.276,0,0,0,2.431-2.424A3.381,3.381,0,0,0,1805.134,474.942Z" transform="translate(-1531.582 -409.748)" fill="#1372d8"/>
        <path id="Trazado_1179988" data-name="Trazado 1179988" d="M806.5,508.791a7.381,7.381,0,0,0-1.393-2.006,29.286,29.286,0,0,0-3.033-2.975,28.487,28.487,0,0,0-3.953-2.857,12.552,12.552,0,0,0-3.868-1.581,11.868,11.868,0,0,0,4.869-4.808,8.337,8.337,0,0,0,.186-6.3,9.526,9.526,0,0,0-1.641-3.077,8.292,8.292,0,0,0-2.608-2.153,8.445,8.445,0,0,0-3.206-.948,9.787,9.787,0,0,0-3,.141,33.248,33.248,0,0,0-3.722.992l-10.319,3.308a3.585,3.585,0,0,0-2.7,5.249l7.725,24.1a4.678,4.678,0,0,0,1.8,2.667,3.158,3.158,0,0,0,2.741.239,3.232,3.232,0,0,0,2.039-1.721,4.494,4.494,0,0,0-.058-3.274l-3.2-9.976,2.135-.685a7.862,7.862,0,0,1,2.908-.445,6.285,6.285,0,0,1,2.684.952,24.51,24.51,0,0,1,3.57,2.753l3.9,3.415c.917.8,1.641,1.414,2.151,1.812a5.174,5.174,0,0,0,1.687.886,3.338,3.338,0,0,0,2.01-.074,3.679,3.679,0,0,0,1.5-.882,3.015,3.015,0,0,0,.794-1.348A2.451,2.451,0,0,0,806.5,508.791Zm-13.646-15.184a4.67,4.67,0,0,1-1.915,2.068,16.694,16.694,0,0,1-3.7,1.618l-5.6,1.794-2.7-8.437,5.767-1.849a13.894,13.894,0,0,1,4.495-.93,4.062,4.062,0,0,1,3.633,2.917A3.992,3.992,0,0,1,792.856,493.607Z" transform="translate(-730.184 -435.855)" fill="#1372d8"/>
        <path id="Trazado_1179989" data-name="Trazado 1179989" d="M2186.623,1212.907a4.379,4.379,0,0,0-2.18-2.259l-21.108-11.883a4.4,4.4,0,0,0-2.98-.677,2.994,2.994,0,0,0-2.064,1.579,3.027,3.027,0,0,0-.295,2.528,4.325,4.325,0,0,0,2.153,2.229l7.154,4.028-13.355,23.723a5.115,5.115,0,0,0-.795,3.638,3.7,3.7,0,0,0,1.887,2.426,3.646,3.646,0,0,0,3.013.348,5.149,5.149,0,0,0,2.694-2.584l13.355-23.723,7.154,4.028a4.43,4.43,0,0,0,3.043.7,2.991,2.991,0,0,0,2.032-1.551A3.057,3.057,0,0,0,2186.623,1212.907Z" transform="translate(-1830.817 -987.534)" fill="#fff"/>
        <path id="Trazado_1179990" data-name="Trazado 1179990" d="M1037.778,552.674a3.053,3.053,0,0,0-1.54-1.909,3.419,3.419,0,0,0-2.637-.293,3.475,3.475,0,0,0-1.469.751,3.96,3.96,0,0,0-.9,1.264,11.12,11.12,0,0,0-.586,1.565q-.236.807-.582,1.988L1026.2,568.75l-9.625-9.094a26.744,26.744,0,0,0-3.271-2.792,3.164,3.164,0,0,0-2.6-.253,3.637,3.637,0,0,0-2.232,1.61,3.1,3.1,0,0,0-.407,2.525,4.7,4.7,0,0,0,.989,1.719,30.013,30.013,0,0,0,2.435,2.469l12.537,11.357,3.081,11.5a5.146,5.146,0,0,0,1.968,3.172,3.96,3.96,0,0,0,5.448-1.473,5.077,5.077,0,0,0,.146-3.725l-3.081-11.5,5.346-16.362a26.259,26.259,0,0,0,.9-3.122A4.688,4.688,0,0,0,1037.778,552.674Z" transform="translate(-913.432 -431.952)" fill="#61b6e5"/>
        <path id="Trazado_1179991" data-name="Trazado 1179991" d="M1530.459,330.846a3.075,3.075,0,0,0-4.012-1.56,3.887,3.887,0,0,0-1.735,2.17l-5.219,12.934a8.657,8.657,0,0,1-3.284,4.445c-1.284.742-2.983.711-5.051-.094a6.932,6.932,0,0,1-3.188-2.164,4.423,4.423,0,0,1-.833-2.916,12.379,12.379,0,0,1,.971-3.826l5.175-12.827a3.783,3.783,0,0,0,.236-2.743,3.063,3.063,0,0,0-4.021-1.565,3.86,3.86,0,0,0-1.741,2.157L1502.7,337.4a18.962,18.962,0,0,0-1.4,5.355,8.692,8.692,0,0,0,.646,4.321,9.057,9.057,0,0,0,2.817,3.443,20.2,20.2,0,0,0,5.029,2.712,16.257,16.257,0,0,0,4.76,1.149,9.855,9.855,0,0,0,4.178-.615,8.745,8.745,0,0,0,3.775-2.727,20.012,20.012,0,0,0,2.678-4.889l5.061-12.543A3.723,3.723,0,0,0,1530.459,330.846Z" transform="translate(-1331.892 -289.751)" fill="#8e8eef"/>
        <path id="Trazado_1179992" data-name="Trazado 1179992" d="M1952.509,725.027a14.085,14.085,0,0,0-1.485-4.216,12.885,12.885,0,0,0-3.743-4.506,8.64,8.64,0,0,0-4.9-1.676,11.263,11.263,0,0,0-5.577,1.449,11.605,11.605,0,0,0-3.447,2.673,8.755,8.755,0,0,0-1.825,3.423,9.571,9.571,0,0,0-.173,3.983,13.615,13.615,0,0,0,1.459,4.246,14.1,14.1,0,0,0,2.642,3.572,9.621,9.621,0,0,0,3.371,2.158,8.8,8.8,0,0,0,3.928.463,12.752,12.752,0,0,0,7.8-4.1,8.689,8.689,0,0,0,1.82-3.494A9.645,9.645,0,0,0,1952.509,725.027Zm-4.894,5.057a5.884,5.884,0,0,1-4.494,2.759,5.291,5.291,0,0,1-2.3-.371,6.575,6.575,0,0,1-2.217-1.5,10.784,10.784,0,0,1-1.892-2.623,10.518,10.518,0,0,1-1.086-3.009,6.61,6.61,0,0,1-.006-2.61,5.122,5.122,0,0,1,.977-2.071,5.682,5.682,0,0,1,1.831-1.5,5.788,5.788,0,0,1,3.162-.707,5.5,5.5,0,0,1,3.028,1.247,9.788,9.788,0,0,1,2.5,3.15,9.684,9.684,0,0,1,1.233,4.043A5.584,5.584,0,0,1,1947.615,730.084Z" transform="translate(-1647.106 -621.888)" fill="#fff"/>
        <path id="Trazado_1179993" data-name="Trazado 1179993" d="M1743.911,251.034a10.645,10.645,0,0,0-2.78-3.94,27.278,27.278,0,0,0-6-3.809l-9.218-4.635a5.673,5.673,0,0,0-4.051-.731,5.126,5.126,0,0,0-2.859,2.9l-13.747,27.341a5.362,5.362,0,0,0-.64,3.807,4.117,4.117,0,0,0,5.329,2.665,5.374,5.374,0,0,0,2.717-2.809l5-9.943,6.483,3.26c4.407,2.216,8.25,2.961,11.424,2.214s5.719-2.966,7.542-6.593a13.714,13.714,0,0,0,1.488-5.027A10.311,10.311,0,0,0,1743.911,251.034Zm-8.352,6.108a5.738,5.738,0,0,1-2.441,2.671,5.454,5.454,0,0,1-3.41.424,16.147,16.147,0,0,1-4.483-1.593l-4.741-2.384,5.352-10.644,4.741,2.384c3.167,1.593,5.024,3.177,5.517,4.705A5.943,5.943,0,0,1,1735.559,257.142Z" transform="translate(-1435.13 29.217)" fill="#61b6e5"/>
        <path id="Trazado_1179994" data-name="Trazado 1179994" d="M2167.452,824.055a10.544,10.544,0,0,0-3.282-3.727,9.116,9.116,0,0,0-4.1-1.455,17.706,17.706,0,0,0-4.922.259,57.723,57.723,0,0,0-5.833,1.4c-1.674.458-2.9.774-3.647.941a11.333,11.333,0,0,1-2.332.266,5.106,5.106,0,0,1-2.126-.387,3.072,3.072,0,0,1-1.447-1.351,3.686,3.686,0,0,1,.046-3.509,7.939,7.939,0,0,1,3.464-3.422,7.145,7.145,0,0,1,4.539-1.22,9.667,9.667,0,0,1,3.741,1.668,8.952,8.952,0,0,0,2.368,1.153,2.869,2.869,0,0,0,2.131-.418,3.182,3.182,0,0,0,1.6-2.2,3.726,3.726,0,0,0-.378-2.68,7.028,7.028,0,0,0-2.2-2.315,9.691,9.691,0,0,0-3.631-1.421,12.836,12.836,0,0,0-4.815.074,18.854,18.854,0,0,0-5.672,2.209,20.278,20.278,0,0,0-5.962,4.863,10.828,10.828,0,0,0-2.467,5.693,9.508,9.508,0,0,0,1.251,5.7,9.133,9.133,0,0,0,4.125,4,11.117,11.117,0,0,0,5.531.893,35.736,35.736,0,0,0,7.023-1.409c1.973-.587,3.6-1,4.845-1.236a7.3,7.3,0,0,1,3.4.1,4.084,4.084,0,0,1,2.428,2.038,4.668,4.668,0,0,1,.089,4.378,8.913,8.913,0,0,1-3.973,4.032,8.611,8.611,0,0,1-3.8,1.261,6.213,6.213,0,0,1-2.973-.567,15.2,15.2,0,0,1-2.807-1.838,6.189,6.189,0,0,0-2.4-1.309,3.011,3.011,0,0,0-2.23.343,3.435,3.435,0,0,0-1.358,4.747,9.311,9.311,0,0,0,3.854,3.531,12.388,12.388,0,0,0,5.666,1.481,18.252,18.252,0,0,0,9.086-2.7,19.472,19.472,0,0,0,6.27-5.319,11.833,11.833,0,0,0,2.405-6.294A11.224,11.224,0,0,0,2167.452,824.055Z" transform="translate(-2093.667 -577.628)" fill="#6199d6"/>
        <path id="Trazado_1179995" data-name="Trazado 1179995" d="M2027.434,1068.37a2.567,2.567,0,0,0-1.5-1.055,9.094,9.094,0,0,0-2.21-.232H2016.7a2.987,2.987,0,0,0-2.068.689,2.266,2.266,0,0,0-.768,1.751,1.973,1.973,0,0,0,.927,1.845,5.353,5.353,0,0,0,2.659.533h4.71v4.826a20.393,20.393,0,0,1-3.765,1.575,14.026,14.026,0,0,1-4.01.559,8.52,8.52,0,0,1-6.825-2.868c-1.626-1.907-2.45-4.673-2.45-8.221a15.163,15.163,0,0,1,.632-4.5,9.643,9.643,0,0,1,1.818-3.42,7.877,7.877,0,0,1,2.857-2.125,9.428,9.428,0,0,1,3.8-.733,8.109,8.109,0,0,1,3.394.618,6.2,6.2,0,0,1,2.108,1.521,24.772,24.772,0,0,1,1.935,2.705,3,3,0,0,0,1.061.9,2.889,2.889,0,0,0,1.32.322,3,3,0,0,0,2.133-.847,2.742,2.742,0,0,0,.891-2.052,5.482,5.482,0,0,0-.76-2.521,9.378,9.378,0,0,0-2.25-2.672,12.165,12.165,0,0,0-3.883-2.09,16.816,16.816,0,0,0-5.49-.828,19.435,19.435,0,0,0-6.742,1.1,13.871,13.871,0,0,0-5.054,3.178,13.539,13.539,0,0,0-3.147,5.055,19.356,19.356,0,0,0-1.068,6.553,18.876,18.876,0,0,0,1.1,6.6,14.047,14.047,0,0,0,3.156,5.033,13.641,13.641,0,0,0,4.971,3.167,18.371,18.371,0,0,0,6.45,1.089,21.7,21.7,0,0,0,5.609-.691,24.951,24.951,0,0,0,5.355-2.2,8.084,8.084,0,0,0,1.591-1.1,3.058,3.058,0,0,0,.867-1.3,6.267,6.267,0,0,0,.234-1.892v-5.858A4.266,4.266,0,0,0,2027.434,1068.37Z" transform="translate(-1718.497 -857.441)" fill="#61b6e5"/>
        <path id="Trazado_1179996" data-name="Trazado 1179996" d="M2118.793,484.465a2.668,2.668,0,0,0-1.575-1.279,2.46,2.46,0,0,0-1.5-.106,9.717,9.717,0,0,0-1.606.687l-13.291,6.8,2.96-8.541a3.543,3.543,0,0,0,.09-2.593,2.62,2.62,0,0,0-1.62-1.431,2.514,2.514,0,0,0-2.146.137,3.667,3.667,0,0,0-1.5,2.1l-6.4,18.474c-.273.789-.468,1.407-.579,1.837a3.227,3.227,0,0,0-.095,1.232,2.591,2.591,0,0,0,.615,1.267,2.686,2.686,0,0,0,1.151.788,2.627,2.627,0,0,0,2.149-.124A3.543,3.543,0,0,0,2097,501.6l1.77-5.106,5.379-2.472,2.755,11.125c.1.486.211,1.037.344,1.639a4.172,4.172,0,0,0,.717,1.61,3.248,3.248,0,0,0,1.591,1.068,2.716,2.716,0,0,0,2.036,0,2.1,2.1,0,0,0,1.191-1.257,3.874,3.874,0,0,0,.162-1.695,13.552,13.552,0,0,0-.484-2.239l-3.533-12.484,8.071-3.651a3.349,3.349,0,0,0,1.931-1.835A2.261,2.261,0,0,0,2118.793,484.465Z" transform="translate(-1807.39 -419.041)" fill="#8e8eef"/>
        <path id="Trazado_1179997" data-name="Trazado 1179997" d="M1284.221,262.817a2.335,2.335,0,0,0-1.454-1.315,3.223,3.223,0,0,0-2.33.268l-10.762,4.843-8.609-19.13a3.9,3.9,0,0,0-1.886-2.143,2.882,2.882,0,0,0-2.377.079,2.781,2.781,0,0,0-1.6,1.721,3.967,3.967,0,0,0,.368,2.815l9.144,20.319a3.145,3.145,0,0,0,4.855,1.842l12.9-5.807a3.308,3.308,0,0,0,1.766-1.542A2.278,2.278,0,0,0,1284.221,262.817Z" transform="translate(-1125.593 -204.09)" fill="#6199d6"/>
      </g>
      <g id="Grupo_1228815" data-name="Grupo 1228815" transform="translate(1331.4 8673.891)">
        <rect id="Rect치ngulo_422863" data-name="Rect치ngulo 422863" width="27.799" height="34.538" transform="translate(0 28.971) rotate(-28.79)" fill="#262c6b"/>
        <path id="Trazado_1179998" data-name="Trazado 1179998" d="M796.858,1699.507c-1.456.8-2.291,2.078-1.864,2.854s1.953.756,3.409-.044,2.291-2.078,1.865-2.854S798.315,1698.707,796.858,1699.507Z" transform="translate(-755.643 -1655.61)" fill="#262c6b"/>
        <rect id="Rect치ngulo_422864" data-name="Rect치ngulo 422864" width="27.799" height="34.538" transform="translate(0.362 27.537) rotate(-28.79)" fill="#dcdcf9"/>
        <path id="Trazado_1179999" data-name="Trazado 1179999" d="M531.994,1511.973l16.344,29.741s15.526-13.476,23.624-12.983l-15.707-28.581C549.784,1498.27,538.548,1510.158,531.994,1511.973Z" transform="translate(-531.529 -1486.009)" fill="#fff"/>
        <g id="Grupo_1228804" data-name="Grupo 1228804" transform="translate(6.834 19.163)">
          <g id="Grupo_1228795" data-name="Grupo 1228795">
            <path id="Trazado_1180000" data-name="Trazado 1180000" d="M590.881,1535.364c-.39.072-.778.159-1.16.26a16.82,16.82,0,0,0-4.489,1.97c-2.6,1.528-4.694,2.843-5.587,3.4l-.133.084c-1.34.841-2.718,1.684-4.1,2.51a.48.48,0,0,0-.167.658h0a.481.481,0,0,0,.66.168c1.39-.829,2.775-1.676,4.121-2.521l.133-.084c.89-.559,2.973-1.868,5.563-3.389a15.99,15.99,0,0,1,4.248-1.87c.361-.1.728-.177,1.1-.245a.479.479,0,0,0,.385-.543h0A.484.484,0,0,0,590.881,1535.364Z" transform="translate(-575.174 -1535.356)" fill="#b6c1db"/>
          </g>
          <g id="Grupo_1228796" data-name="Grupo 1228796" transform="translate(1.168 2.75)">
            <path id="Trazado_1180001" data-name="Trazado 1180001" d="M598.8,1554.012c-.39.072-.779.159-1.16.26a16.83,16.83,0,0,0-4.489,1.97c-2.6,1.529-4.694,2.843-5.587,3.4l-.133.084c-1.336.839-2.714,1.682-4.1,2.509a.48.48,0,0,0-.168.658h0a.482.482,0,0,0,.66.168c1.394-.831,2.778-1.678,4.12-2.521l.133-.084c.89-.559,2.973-1.868,5.563-3.389a15.988,15.988,0,0,1,4.248-1.87c.361-.1.728-.177,1.1-.245a.479.479,0,0,0,.385-.543h0A.482.482,0,0,0,598.8,1554.012Z" transform="translate(-583.091 -1554.003)" fill="#b6c1db"/>
          </g>
          <g id="Grupo_1228797" data-name="Grupo 1228797" transform="translate(2.863 5.21)">
            <path id="Trazado_1180002" data-name="Trazado 1180002" d="M610.291,1570.684c-.391.072-.779.159-1.16.259a16.816,16.816,0,0,0-4.489,1.971c-2.6,1.53-4.7,2.844-5.589,3.405l-.131.083c-1.336.839-2.714,1.682-4.1,2.509a.481.481,0,0,0-.168.658h0a.482.482,0,0,0,.66.168c1.394-.831,2.778-1.678,4.12-2.521l.132-.083c.89-.559,2.973-1.868,5.564-3.39a15.984,15.984,0,0,1,4.248-1.87c.36-.1.728-.177,1.1-.245a.479.479,0,0,0,.385-.543h0A.484.484,0,0,0,610.291,1570.684Z" transform="translate(-594.584 -1570.676)" fill="#b6c1db"/>
          </g>
          <g id="Grupo_1228798" data-name="Grupo 1228798" transform="translate(4.188 7.621)">
            <path id="Trazado_1180003" data-name="Trazado 1180003" d="M619.274,1587.032c-.39.072-.779.159-1.16.26a16.836,16.836,0,0,0-4.489,1.97c-2.6,1.528-4.694,2.843-5.587,3.4l-.133.084c-1.334.838-2.712,1.68-4.1,2.51a.481.481,0,0,0-.168.658h0a.482.482,0,0,0,.661.168c1.4-.833,2.78-1.68,4.12-2.521l.133-.084c.89-.559,2.973-1.868,5.563-3.389a15.992,15.992,0,0,1,4.248-1.87c.361-.1.728-.177,1.1-.245a.479.479,0,0,0,.385-.543h0A.482.482,0,0,0,619.274,1587.032Z" transform="translate(-603.567 -1587.023)" fill="#b6c1db"/>
          </g>
          <g id="Grupo_1228799" data-name="Grupo 1228799" transform="translate(5.46 10.061)">
            <path id="Trazado_1180004" data-name="Trazado 1180004" d="M627.9,1603.574c-.389.072-.778.159-1.16.26a16.839,16.839,0,0,0-4.489,1.97c-2.6,1.529-4.694,2.843-5.587,3.4l-.133.084c-1.338.84-2.716,1.683-4.1,2.51a.481.481,0,0,0-.168.658h0a.482.482,0,0,0,.66.168c1.392-.83,2.776-1.677,4.121-2.521l.134-.084c.89-.559,2.973-1.868,5.563-3.389a15.986,15.986,0,0,1,4.248-1.87c.361-.1.729-.177,1.1-.245a.478.478,0,0,0,.385-.543A.484.484,0,0,0,627.9,1603.574Z" transform="translate(-612.193 -1603.566)" fill="#b6c1db"/>
          </g>
          <g id="Grupo_1228800" data-name="Grupo 1228800" transform="translate(6.891 12.665)">
            <path id="Trazado_1180005" data-name="Trazado 1180005" d="M637.6,1621.234c-.39.072-.779.158-1.16.259a16.829,16.829,0,0,0-4.489,1.97c-2.6,1.529-4.694,2.843-5.587,3.4l-.133.084c-1.342.842-2.72,1.685-4.1,2.51a.48.48,0,0,0-.167.658h0a.482.482,0,0,0,.66.168c1.388-.828,2.773-1.675,4.121-2.521l.134-.084c.89-.559,2.973-1.868,5.563-3.389a16,16,0,0,1,4.248-1.87c.361-.1.728-.177,1.1-.245a.479.479,0,0,0,.385-.543h0A.483.483,0,0,0,637.6,1621.234Z" transform="translate(-621.897 -1621.226)" fill="#b6c1db"/>
          </g>
          <g id="Grupo_1228801" data-name="Grupo 1228801" transform="translate(8.376 15.242)">
            <path id="Trazado_1180006" data-name="Trazado 1180006" d="M647.667,1638.7c-.391.072-.779.159-1.16.26a16.82,16.82,0,0,0-4.489,1.97c-2.6,1.528-4.694,2.843-5.587,3.4l-.133.084c-1.338.84-2.716,1.683-4.1,2.51a.48.48,0,0,0-.167.658h0a.481.481,0,0,0,.66.168c1.392-.83,2.776-1.677,4.121-2.521l.133-.084c.89-.559,2.973-1.868,5.563-3.389a15.986,15.986,0,0,1,4.248-1.87c.36-.1.727-.177,1.1-.245a.478.478,0,0,0,.385-.543h0A.483.483,0,0,0,647.667,1638.7Z" transform="translate(-631.961 -1638.693)" fill="#b6c1db"/>
          </g>
          <g id="Grupo_1228802" data-name="Grupo 1228802" transform="translate(9.701 17.652)">
            <path id="Trazado_1180007" data-name="Trazado 1180007" d="M656.651,1655.044c-.39.072-.779.159-1.16.26a16.8,16.8,0,0,0-4.489,1.97c-2.6,1.528-4.694,2.843-5.587,3.4l-.133.084c-1.342.842-2.72,1.685-4.1,2.51a.48.48,0,0,0-.167.658h0a.482.482,0,0,0,.66.168c1.389-.828,2.773-1.675,4.121-2.521l.133-.084c.89-.559,2.973-1.868,5.563-3.389a16,16,0,0,1,4.248-1.87c.361-.1.728-.177,1.1-.245a.478.478,0,0,0,.385-.543A.484.484,0,0,0,656.651,1655.044Z" transform="translate(-640.945 -1655.036)" fill="#b6c1db"/>
          </g>
          <g id="Grupo_1228803" data-name="Grupo 1228803" transform="translate(11.025 20.063)">
            <path id="Trazado_1180008" data-name="Trazado 1180008" d="M665.633,1671.392c-.39.072-.779.159-1.16.259a16.84,16.84,0,0,0-4.489,1.97c-2.6,1.529-4.694,2.843-5.587,3.4l-.133.084c-1.334.838-2.712,1.681-4.1,2.509a.481.481,0,0,0-.168.658h0a.482.482,0,0,0,.661.168c1.4-.833,2.78-1.679,4.12-2.521l.133-.084c.89-.559,2.973-1.868,5.563-3.389a15.989,15.989,0,0,1,4.248-1.87c.361-.1.728-.177,1.1-.245a.481.481,0,0,0-.182-.945Z" transform="translate(-649.926 -1671.383)" fill="#b6c1db"/>
          </g>
        </g>
        <rect id="Rect치ngulo_422865" data-name="Rect치ngulo 422865" width="27.799" height="34.538" transform="translate(26.129 14.613) rotate(-28.79)" fill="#262c6b"/>
        <rect id="Rect치ngulo_422866" data-name="Rect치ngulo 422866" width="27.799" height="34.538" transform="translate(24.725 14.149) rotate(-28.79)" fill="#dcdcf9"/>
        <path id="Trazado_1180009" data-name="Trazado 1180009" d="M696.484,1419.577l15.707,28.581c3.925-7.1,23.624-12.983,23.624-12.983l-16.344-29.741C714.423,1409.992,698.365,1413.1,696.484,1419.577Z" transform="translate(-671.758 -1405.434)" fill="#fff"/>
        <g id="Grupo_1228814" data-name="Grupo 1228814" transform="translate(30.014 6.291)">
          <g id="Grupo_1228805" data-name="Grupo 1228805">
            <path id="Trazado_1180010" data-name="Trazado 1180010" d="M747.7,1448.141c-1.439.726-2.889,1.437-4.318,2.117l-.142.068c-.953.453-3.184,1.515-5.869,2.892a16.826,16.826,0,0,0-4.07,2.734c-.29.268-.572.55-.841.84a.483.483,0,0,0,.035.694h0a.479.479,0,0,0,.665-.034c.255-.275.521-.541.795-.794a15.989,15.989,0,0,1,3.856-2.583c2.672-1.37,4.894-2.428,5.843-2.879l.142-.068c1.435-.683,2.892-1.4,4.337-2.127a.481.481,0,0,0,.212-.648h0A.481.481,0,0,0,747.7,1448.141Z" transform="translate(-732.33 -1448.089)" fill="#b6c1db"/>
          </g>
          <g id="Grupo_1228806" data-name="Grupo 1228806" transform="translate(1.695 2.459)">
            <path id="Trazado_1180011" data-name="Trazado 1180011" d="M759.193,1464.811c-1.443.728-2.893,1.439-4.317,2.117l-.142.068c-.953.453-3.184,1.515-5.869,2.892a16.821,16.821,0,0,0-4.07,2.733c-.29.268-.571.55-.841.84a.483.483,0,0,0,.035.694h0a.479.479,0,0,0,.665-.034c.255-.275.521-.541.795-.794a15.988,15.988,0,0,1,3.856-2.584c2.672-1.37,4.894-2.427,5.843-2.879l.142-.068c1.431-.681,2.888-1.4,4.337-2.127a.482.482,0,0,0,.212-.648h0A.481.481,0,0,0,759.193,1464.811Z" transform="translate(-743.824 -1464.759)" fill="#b6c1db"/>
          </g>
          <g id="Grupo_1228807" data-name="Grupo 1228807" transform="translate(2.863 5.209)">
            <path id="Trazado_1180012" data-name="Trazado 1180012" d="M767.11,1483.459c-1.443.728-2.893,1.439-4.317,2.117l-.14.067c-.953.453-3.184,1.515-5.871,2.893a16.816,16.816,0,0,0-4.07,2.734c-.29.268-.571.549-.841.84a.483.483,0,0,0,.035.694h0a.479.479,0,0,0,.665-.033c.255-.275.521-.541.795-.794a15.988,15.988,0,0,1,3.856-2.583c2.674-1.371,4.9-2.428,5.845-2.88l.14-.067c1.431-.681,2.888-1.4,4.337-2.127a.482.482,0,0,0,.212-.648h0A.479.479,0,0,0,767.11,1483.459Z" transform="translate(-751.74 -1483.407)" fill="#b6c1db"/>
          </g>
          <g id="Grupo_1228808" data-name="Grupo 1228808" transform="translate(4.188 7.62)">
            <path id="Trazado_1180013" data-name="Trazado 1180013" d="M776.092,1499.8c-1.445.729-2.9,1.44-4.317,2.117l-.142.068c-.953.453-3.184,1.515-5.869,2.892a16.832,16.832,0,0,0-4.07,2.733c-.29.268-.571.549-.841.84a.483.483,0,0,0,.035.694h0a.479.479,0,0,0,.665-.033c.255-.275.521-.541.795-.794a15.987,15.987,0,0,1,3.856-2.583c2.672-1.37,4.894-2.428,5.843-2.879l.142-.068c1.429-.68,2.885-1.395,4.337-2.127a.482.482,0,0,0,.212-.648h0A.48.48,0,0,0,776.092,1499.8Z" transform="translate(-760.722 -1499.749)" fill="#b6c1db"/>
          </g>
          <g id="Grupo_1228809" data-name="Grupo 1228809" transform="translate(5.565 10.002)">
            <path id="Trazado_1180014" data-name="Trazado 1180014" d="M785.433,1515.951c-1.441.727-2.891,1.438-4.317,2.117l-.142.068c-.953.453-3.184,1.515-5.869,2.892a16.834,16.834,0,0,0-4.07,2.734c-.29.269-.572.55-.841.84a.481.481,0,0,0,.7.66c.254-.275.52-.541.795-.794a15.986,15.986,0,0,1,3.856-2.584c2.672-1.37,4.894-2.428,5.843-2.879l.142-.068c1.433-.682,2.89-1.4,4.337-2.127a.482.482,0,0,0,.212-.648h0A.48.48,0,0,0,785.433,1515.951Z" transform="translate(-770.063 -1515.899)" fill="#b6c1db"/>
          </g>
          <g id="Grupo_1228810" data-name="Grupo 1228810" transform="translate(6.997 12.606)">
            <path id="Trazado_1180015" data-name="Trazado 1180015" d="M795.14,1533.611c-1.437.725-2.888,1.436-4.318,2.118l-.142.068c-.953.453-3.184,1.515-5.869,2.892a16.819,16.819,0,0,0-4.07,2.733c-.29.268-.572.55-.841.841a.483.483,0,0,0,.035.694h0a.479.479,0,0,0,.665-.033c.255-.275.521-.541.795-.794a16,16,0,0,1,3.856-2.583c2.672-1.371,4.894-2.428,5.843-2.879l.142-.068c1.437-.684,2.894-1.4,4.337-2.127a.482.482,0,0,0,.212-.648h0A.481.481,0,0,0,795.14,1533.611Z" transform="translate(-779.771 -1533.559)" fill="#b6c1db"/>
          </g>
          <g id="Grupo_1228811" data-name="Grupo 1228811" transform="translate(8.376 15.241)">
            <path id="Trazado_1180016" data-name="Trazado 1180016" d="M804.486,1551.471c-1.441.727-2.891,1.438-4.318,2.117l-.142.068c-.953.453-3.184,1.515-5.869,2.892a16.817,16.817,0,0,0-4.07,2.734c-.289.268-.571.549-.841.84a.483.483,0,0,0,.035.694h0a.479.479,0,0,0,.665-.033c.255-.275.521-.542.795-.794a16,16,0,0,1,3.856-2.584c2.672-1.37,4.894-2.428,5.843-2.879l.142-.068c1.433-.682,2.89-1.4,4.337-2.127a.482.482,0,0,0,.212-.648h0A.48.48,0,0,0,804.486,1551.471Z" transform="translate(-789.116 -1551.419)" fill="#b6c1db"/>
          </g>
          <g id="Grupo_1228812" data-name="Grupo 1228812" transform="translate(9.701 17.651)">
            <path id="Trazado_1180017" data-name="Trazado 1180017" d="M813.471,1567.811c-1.437.725-2.888,1.436-4.318,2.118l-.142.067c-.953.453-3.184,1.515-5.869,2.892a16.792,16.792,0,0,0-4.07,2.733c-.29.268-.571.549-.841.84a.481.481,0,0,0,.7.66c.255-.275.521-.541.795-.794a15.99,15.99,0,0,1,3.856-2.583c2.672-1.37,4.894-2.427,5.843-2.879l.142-.068c1.437-.684,2.894-1.4,4.337-2.127a.482.482,0,0,0,.212-.648h0A.481.481,0,0,0,813.471,1567.811Z" transform="translate(-798.102 -1567.759)" fill="#b6c1db"/>
          </g>
          <g id="Grupo_1228813" data-name="Grupo 1228813" transform="translate(11.025 20.062)">
            <path id="Trazado_1180018" data-name="Trazado 1180018" d="M822.452,1584.161c-1.445.729-2.9,1.44-4.317,2.117l-.142.068c-.953.453-3.184,1.515-5.869,2.892a16.842,16.842,0,0,0-4.07,2.733c-.29.268-.571.55-.841.84a.481.481,0,0,0,.7.66c.255-.275.521-.541.795-.794a15.981,15.981,0,0,1,3.856-2.583c2.672-1.37,4.894-2.428,5.843-2.879l.142-.068c1.429-.68,2.885-1.395,4.337-2.127a.482.482,0,0,0,.212-.648h0A.48.48,0,0,0,822.452,1584.161Z" transform="translate(-807.082 -1584.109)" fill="#b6c1db"/>
          </g>
        </g>
        <path id="Trazado_1180019" data-name="Trazado 1180019" d="M799.244,1697.519c-.932.512-1.454,1.352-1.166,1.876s1.277.534,2.209.022,1.454-1.352,1.166-1.876S800.176,1697.007,799.244,1697.519Z" transform="translate(-758.299 -1654.116)" fill="#09133d"/>
      </g>
      <g id="Grupo_1228836" data-name="Grupo 1228836" transform="translate(1541.191 8515.04)">
        <rect id="Rect치ngulo_422867" data-name="Rect치ngulo 422867" width="37.01" height="29.789" transform="matrix(0.451, -0.892, 0.892, 0.451, 0, 34.431)" fill="#262c6b"/>
        <path id="Trazado_1180020" data-name="Trazado 1180020" d="M2132.7,1773.252c-1.589-.8-3.224-.768-3.652.079s.513,2.184,2.1,2.987,3.224.768,3.652-.079S2134.29,1774.054,2132.7,1773.252Z" transform="translate(-2104.267 -1726.363)" fill="#262c6b"/>
        <rect id="Rect치ngulo_422868" data-name="Rect치ngulo 422868" width="37.01" height="29.789" transform="matrix(0.451, -0.892, 0.892, 0.451, 1.487, 33.882)" fill="#dcdcf9"/>
        <path id="Trazado_1180021" data-name="Trazado 1180021" d="M1996.686,1451.88l-16.4,32.455s21.314,5.572,25.78,13.031l15.765-31.189C2019.573,1459.316,2002.26,1456.576,1996.686,1451.88Z" transform="translate(-1977.064 -1451.88)" fill="#fff"/>
        <g id="Grupo_1228825" data-name="Grupo 1228825" transform="translate(10.555 6.659)">
          <g id="Grupo_1228816" data-name="Grupo 1228816" transform="translate(11.065)">
            <path id="Trazado_1180022" data-name="Trazado 1180022" d="M2125.132,1506.754c-.3-.3-.612-.592-.932-.869a18.032,18.032,0,0,0-4.46-2.777c-2.927-1.375-5.355-2.43-6.392-2.88l-.155-.067c-1.555-.676-3.134-1.384-4.7-2.108a.514.514,0,0,0-.683.25h0a.516.516,0,0,0,.251.686c1.575.728,3.162,1.439,4.723,2.118l.155.067c1.033.448,3.451,1.5,6.364,2.867a17.149,17.149,0,0,1,4.225,2.624c.3.261.6.536.88.821a.513.513,0,0,0,.713.011h0A.517.517,0,0,0,2125.132,1506.754Z" transform="translate(-2107.76 -1498.006)" fill="#b6c1db"/>
          </g>
          <g id="Grupo_1228817" data-name="Grupo 1228817" transform="translate(9.341 2.698)">
            <path id="Trazado_1180023" data-name="Trazado 1180023" d="M2113.19,1525.446c-.3-.3-.612-.593-.932-.869a18.022,18.022,0,0,0-4.46-2.777c-2.927-1.375-5.355-2.43-6.392-2.88l-.155-.067c-1.55-.674-3.13-1.382-4.7-2.108a.515.515,0,0,0-.683.25h0a.516.516,0,0,0,.251.686c1.579.729,3.166,1.441,4.723,2.117l.155.067c1.033.448,3.452,1.5,6.364,2.867a17.129,17.129,0,0,1,4.225,2.624c.3.261.6.536.881.821a.513.513,0,0,0,.713.011h0A.518.518,0,0,0,2113.19,1525.446Z" transform="translate(-2095.818 -1516.698)" fill="#b6c1db"/>
          </g>
          <g id="Grupo_1228818" data-name="Grupo 1228818" transform="translate(8.193 5.685)">
            <path id="Trazado_1180024" data-name="Trazado 1180024" d="M2105.233,1546.136c-.3-.3-.612-.593-.932-.869a18.015,18.015,0,0,0-4.46-2.777c-2.928-1.376-5.357-2.43-6.394-2.881l-.153-.066c-1.551-.674-3.13-1.382-4.7-2.108a.515.515,0,0,0-.683.25h0a.516.516,0,0,0,.251.686c1.579.729,3.166,1.441,4.723,2.117l.153.066c1.033.448,3.452,1.5,6.366,2.868a17.129,17.129,0,0,1,4.225,2.624c.3.261.6.536.88.821a.513.513,0,0,0,.713.011h0A.518.518,0,0,0,2105.233,1546.136Z" transform="translate(-2087.861 -1537.387)" fill="#b6c1db"/>
          </g>
          <g id="Grupo_1228819" data-name="Grupo 1228819" transform="translate(6.863 8.317)">
            <path id="Trazado_1180025" data-name="Trazado 1180025" d="M2096.02,1564.366c-.3-.3-.612-.593-.932-.869a18.033,18.033,0,0,0-4.46-2.777c-2.926-1.375-5.355-2.43-6.392-2.88l-.155-.067c-1.548-.672-3.127-1.381-4.7-2.108a.515.515,0,0,0-.683.25h0a.516.516,0,0,0,.251.686c1.582.73,3.168,1.442,4.723,2.117l.155.067c1.033.448,3.452,1.5,6.364,2.867a17.134,17.134,0,0,1,4.225,2.624c.3.261.6.536.88.821a.513.513,0,0,0,.713.011h0A.518.518,0,0,0,2096.02,1564.366Z" transform="translate(-2078.648 -1555.618)" fill="#b6c1db"/>
          </g>
          <g id="Grupo_1228820" data-name="Grupo 1228820" transform="translate(5.475 10.918)">
            <path id="Trazado_1180026" data-name="Trazado 1180026" d="M2086.411,1582.384c-.3-.3-.611-.592-.932-.869a18.033,18.033,0,0,0-4.46-2.777c-2.927-1.375-5.355-2.43-6.392-2.88l-.155-.067c-1.553-.675-3.133-1.383-4.7-2.108a.515.515,0,0,0-.683.25h0a.516.516,0,0,0,.251.686c1.577.728,3.163,1.44,4.723,2.118l.155.067c1.033.448,3.452,1.5,6.364,2.867a17.129,17.129,0,0,1,4.225,2.625c.3.262.6.537.88.821a.516.516,0,0,0,.725-.733Z" transform="translate(-2069.039 -1573.635)" fill="#b6c1db"/>
          </g>
          <g id="Grupo_1228821" data-name="Grupo 1228821" transform="translate(4.038 13.761)">
            <path id="Trazado_1180027" data-name="Trazado 1180027" d="M2076.451,1602.084c-.3-.3-.611-.593-.932-.869a18.021,18.021,0,0,0-4.46-2.777c-2.927-1.375-5.355-2.43-6.392-2.88l-.155-.067c-1.557-.677-3.136-1.385-4.7-2.108a.515.515,0,0,0-.683.25h0a.516.516,0,0,0,.251.686c1.573.726,3.16,1.438,4.724,2.118l.155.067c1.033.448,3.452,1.5,6.364,2.867a17.154,17.154,0,0,1,4.225,2.624c.3.261.6.536.88.821a.513.513,0,0,0,.713.011h0A.517.517,0,0,0,2076.451,1602.084Z" transform="translate(-2059.079 -1593.336)" fill="#b6c1db"/>
          </g>
          <g id="Grupo_1228822" data-name="Grupo 1228822" transform="translate(2.659 16.633)">
            <path id="Trazado_1180028" data-name="Trazado 1180028" d="M2066.9,1621.975c-.3-.3-.612-.593-.932-.869a18.035,18.035,0,0,0-4.46-2.777c-2.927-1.375-5.355-2.43-6.392-2.88l-.155-.067c-1.553-.675-3.133-1.383-4.7-2.108a.515.515,0,0,0-.683.25h0a.516.516,0,0,0,.251.686c1.577.728,3.163,1.44,4.723,2.117l.155.067c1.033.448,3.452,1.5,6.364,2.867a17.134,17.134,0,0,1,4.225,2.624c.3.261.6.536.88.822a.513.513,0,0,0,.713.011h0A.518.518,0,0,0,2066.9,1621.975Z" transform="translate(-2049.53 -1613.227)" fill="#b6c1db"/>
          </g>
          <g id="Grupo_1228823" data-name="Grupo 1228823" transform="translate(1.329 19.263)">
            <path id="Trazado_1180029" data-name="Trazado 1180029" d="M2057.689,1640.194c-.3-.3-.612-.592-.932-.869a17.992,17.992,0,0,0-4.46-2.777c-2.926-1.375-5.355-2.43-6.392-2.88l-.155-.067c-1.557-.677-3.136-1.385-4.7-2.108a.515.515,0,0,0-.683.25h0a.516.516,0,0,0,.251.686c1.573.726,3.16,1.438,4.723,2.118l.155.067c1.033.448,3.452,1.5,6.364,2.867a17.141,17.141,0,0,1,4.225,2.624c.3.261.6.536.88.821a.516.516,0,0,0,.726-.733Z" transform="translate(-2040.317 -1631.446)" fill="#b6c1db"/>
          </g>
          <g id="Grupo_1228824" data-name="Grupo 1228824" transform="translate(0 21.895)">
            <path id="Trazado_1180030" data-name="Trazado 1180030" d="M2048.481,1658.425c-.3-.3-.612-.593-.932-.869a18.044,18.044,0,0,0-4.46-2.777c-2.927-1.375-5.355-2.43-6.392-2.88l-.155-.067c-1.548-.672-3.128-1.381-4.7-2.108a.515.515,0,0,0-.683.25h0a.516.516,0,0,0,.251.686c1.582.73,3.168,1.442,4.723,2.117l.155.067c1.033.448,3.452,1.5,6.364,2.867a17.136,17.136,0,0,1,4.225,2.625c.3.261.6.536.88.821a.516.516,0,0,0,.725-.733Z" transform="translate(-2031.109 -1649.676)" fill="#b6c1db"/>
          </g>
        </g>
        <rect id="Rect치ngulo_422869" data-name="Rect치ngulo 422869" width="37.01" height="29.789" transform="matrix(0.451, -0.892, 0.892, 0.451, 28.514, 48.842)" fill="#262c6b"/>
        <rect id="Rect치ngulo_422870" data-name="Rect치ngulo 422870" width="37.01" height="29.789" transform="matrix(0.451, -0.892, 0.892, 0.451, 28.074, 47.319)" fill="#dcdcf9"/>
        <path id="Trazado_1180031" data-name="Trazado 1180031" d="M2174.629,1549.292l-15.765,31.189c8.654-.827,25.78,13.031,25.78,13.031l16.4-32.455C2193.964,1559.352,2181.49,1547.037,2174.629,1549.292Z" transform="translate(-2129.867 -1534.994)" fill="#fff"/>
        <g id="Grupo_1228835" data-name="Grupo 1228835" transform="translate(35.627 19.596)">
          <g id="Grupo_1228826" data-name="Grupo 1228826" transform="translate(11.066)">
            <path id="Trazado_1180032" data-name="Trazado 1180032" d="M2298.922,1595.87c-1.513-.833-3.02-1.685-4.486-2.536l-.146-.085c-.978-.568-3.267-1.9-6.109-3.439a18.033,18.033,0,0,0-4.881-1.944c-.413-.094-.832-.173-1.252-.235a.518.518,0,0,0-.592.451h0a.513.513,0,0,0,.432.568c.4.059.793.133,1.183.222a17.133,17.133,0,0,1,4.618,1.845c2.829,1.533,5.109,2.858,6.083,3.424l.146.085c1.473.855,2.986,1.711,4.506,2.548a.516.516,0,0,0,.7-.2h0A.513.513,0,0,0,2298.922,1595.87Z" transform="translate(-2281.452 -1587.625)" fill="#b6c1db"/>
          </g>
          <g id="Grupo_1228827" data-name="Grupo 1228827" transform="translate(9.917 2.988)">
            <path id="Trazado_1180033" data-name="Trazado 1180033" d="M2290.963,1616.571c-1.517-.835-3.024-1.687-4.486-2.536l-.146-.085c-.978-.568-3.267-1.9-6.11-3.439a18.027,18.027,0,0,0-4.881-1.944c-.413-.094-.832-.173-1.252-.235a.518.518,0,0,0-.592.451h0a.513.513,0,0,0,.432.568c.4.059.794.133,1.184.222a17.136,17.136,0,0,1,4.618,1.846c2.829,1.533,5.109,2.858,6.083,3.424l.146.085c1.469.853,2.982,1.708,4.506,2.547a.516.516,0,0,0,.7-.2h0A.514.514,0,0,0,2290.963,1616.571Z" transform="translate(-2273.493 -1608.326)" fill="#b6c1db"/>
          </g>
          <g id="Grupo_1228828" data-name="Grupo 1228828" transform="translate(8.192 5.685)">
            <path id="Trazado_1180034" data-name="Trazado 1180034" d="M2279.013,1635.251c-1.517-.835-3.024-1.687-4.486-2.536l-.144-.084c-.978-.568-3.267-1.9-6.111-3.44a18.018,18.018,0,0,0-4.881-1.944c-.412-.094-.831-.172-1.252-.235a.518.518,0,0,0-.593.451h0a.513.513,0,0,0,.432.568c.4.059.794.133,1.183.222a17.13,17.13,0,0,1,4.618,1.846c2.831,1.534,5.111,2.859,6.085,3.425l.144.084c1.469.853,2.982,1.709,4.506,2.547a.516.516,0,0,0,.7-.2h0A.513.513,0,0,0,2279.013,1635.251Z" transform="translate(-2261.543 -1627.006)" fill="#b6c1db"/>
          </g>
          <g id="Grupo_1228829" data-name="Grupo 1228829" transform="translate(6.863 8.315)">
            <path id="Trazado_1180035" data-name="Trazado 1180035" d="M2269.8,1653.471c-1.52-.836-3.026-1.688-4.486-2.536l-.146-.085c-.978-.568-3.267-1.9-6.11-3.439a18.027,18.027,0,0,0-4.881-1.944c-.412-.094-.832-.173-1.252-.235a.518.518,0,0,0-.592.451h0a.513.513,0,0,0,.432.567c.4.059.793.133,1.184.222a17.138,17.138,0,0,1,4.618,1.846c2.829,1.533,5.109,2.858,6.083,3.424l.146.085c1.466.851,2.98,1.707,4.506,2.547a.516.516,0,0,0,.7-.2h0A.514.514,0,0,0,2269.8,1653.471Z" transform="translate(-2252.333 -1645.226)" fill="#b6c1db"/>
          </g>
          <g id="Grupo_1228830" data-name="Grupo 1228830" transform="translate(5.591 10.976)">
            <path id="Trazado_1180036" data-name="Trazado 1180036" d="M2260.993,1671.9c-1.515-.834-3.021-1.686-4.486-2.536l-.146-.085c-.978-.568-3.267-1.9-6.11-3.439a18.04,18.04,0,0,0-4.881-1.944c-.413-.094-.833-.173-1.252-.235a.516.516,0,0,0-.16,1.019c.4.059.793.133,1.184.222a17.123,17.123,0,0,1,4.618,1.845c2.829,1.533,5.109,2.858,6.083,3.424l.146.085c1.471.854,2.985,1.71,4.506,2.548a.517.517,0,0,0,.7-.2h0A.515.515,0,0,0,2260.993,1671.9Z" transform="translate(-2243.523 -1663.656)" fill="#b6c1db"/>
          </g>
          <g id="Grupo_1228831" data-name="Grupo 1228831" transform="translate(4.154 13.818)">
            <path id="Trazado_1180037" data-name="Trazado 1180037" d="M2251.041,1691.591c-1.511-.832-3.018-1.684-4.486-2.536l-.146-.085c-.978-.568-3.267-1.9-6.11-3.439a18.022,18.022,0,0,0-4.881-1.944c-.413-.094-.832-.173-1.252-.235a.518.518,0,0,0-.593.451h0a.513.513,0,0,0,.432.568c.4.059.793.133,1.183.222a17.148,17.148,0,0,1,4.618,1.846c2.829,1.533,5.109,2.858,6.083,3.424l.146.085c1.475.856,2.989,1.712,4.506,2.547a.516.516,0,0,0,.7-.2h0A.516.516,0,0,0,2251.041,1691.591Z" transform="translate(-2233.571 -1683.346)" fill="#b6c1db"/>
          </g>
          <g id="Grupo_1228832" data-name="Grupo 1228832" transform="translate(2.66 16.632)">
            <path id="Trazado_1180038" data-name="Trazado 1180038" d="M2240.692,1711.082c-1.515-.834-3.021-1.686-4.486-2.536l-.146-.085c-.978-.568-3.267-1.9-6.11-3.439a18.027,18.027,0,0,0-4.881-1.944c-.412-.094-.831-.172-1.252-.235a.518.518,0,0,0-.592.451h0a.513.513,0,0,0,.432.568c.4.059.794.133,1.183.222a17.129,17.129,0,0,1,4.619,1.845c2.829,1.533,5.109,2.858,6.083,3.424l.146.085c1.471.854,2.985,1.71,4.506,2.547a.516.516,0,0,0,.7-.2h0A.516.516,0,0,0,2240.692,1711.082Z" transform="translate(-2223.223 -1702.837)" fill="#b6c1db"/>
          </g>
          <g id="Grupo_1228833" data-name="Grupo 1228833" transform="translate(1.329 19.263)">
            <path id="Trazado_1180039" data-name="Trazado 1180039" d="M2231.471,1729.311c-1.511-.832-3.018-1.684-4.486-2.536l-.146-.085c-.978-.568-3.267-1.9-6.11-3.439a18,18,0,0,0-4.881-1.944c-.412-.094-.832-.173-1.252-.235a.516.516,0,0,0-.16,1.019c.4.059.794.133,1.184.222a17.134,17.134,0,0,1,4.618,1.845c2.829,1.533,5.109,2.858,6.083,3.424l.146.085c1.475.856,2.989,1.712,4.506,2.548a.516.516,0,0,0,.7-.2h0A.513.513,0,0,0,2231.471,1729.311Z" transform="translate(-2214.001 -1721.066)" fill="#b6c1db"/>
          </g>
          <g id="Grupo_1228834" data-name="Grupo 1228834" transform="translate(0 21.893)">
            <path id="Trazado_1180040" data-name="Trazado 1180040" d="M2222.263,1747.531c-1.52-.836-3.026-1.688-4.486-2.536l-.146-.085c-.978-.568-3.267-1.9-6.11-3.439a18.033,18.033,0,0,0-4.881-1.945c-.412-.094-.832-.172-1.252-.235a.515.515,0,1,0-.16,1.018c.4.059.794.133,1.184.222a17.129,17.129,0,0,1,4.618,1.846c2.829,1.533,5.109,2.858,6.083,3.424l.146.085c1.466.851,2.98,1.707,4.506,2.547a.516.516,0,0,0,.7-.2h0A.516.516,0,0,0,2222.263,1747.531Z" transform="translate(-2204.793 -1739.286)" fill="#b6c1db"/>
          </g>
        </g>
        <path id="Trazado_1180041" data-name="Trazado 1180041" d="M2142.4,1770.845c-1.017-.514-2.076-.467-2.365.1s.3,1.453,1.318,1.967,2.076.467,2.365-.1S2143.413,1771.359,2142.4,1770.845Z" transform="translate(-2113.69 -1724.495)" fill="#09133d"/>
      </g>
    </g>
  </g>
</svg>
