<svg xmlns="http://www.w3.org/2000/svg" xmlns:xlink="http://www.w3.org/1999/xlink" width="108" height="108" viewBox="0 0 108 108">
  <defs>
    <filter id="Fondo" x="0" y="0" width="108" height="108" filterUnits="userSpaceOnUse">
      <feOffset dy="3" input="SourceAlpha"/>
      <feGaussianBlur stdDeviation="3" result="blur"/>
      <feFlood flood-opacity="0.161"/>
      <feComposite operator="in" in2="blur"/>
      <feComposite in="SourceGraphic"/>
    </filter>
  </defs>
  <g id="Grupo_1228843" data-name="Grupo 1228843" transform="translate(-198.475 -10190)">
    <g id="Grupo_1220769" data-name="Grupo 1220769" transform="translate(207.475 10196)">
      <g id="Grupo_1220768" data-name="Grupo 1220768" transform="translate(0 0)">
        <g id="Grupo_1220472" data-name="Grupo 1220472">
          <g id="Grupo_1210004" data-name="Grupo 1210004">
            <g id="Grupo_1143757" data-name="Grupo 1143757" transform="translate(0)">
              <g transform="matrix(1, 0, 0, 1, -9, -6)" filter="url(#Fondo)">
                <g id="Fondo-2" data-name="Fondo" transform="translate(9 6)" fill="#f6f6fd">
                  <path d="M 44.99994659423828 88.4998779296875 C 39.12683486938477 88.4998779296875 33.43019485473633 87.34995269775391 28.06827163696289 85.08205413818359 C 22.88850975036621 82.89120483398438 18.23629570007324 79.75447845458984 14.24084663391113 75.75904083251953 C 10.24540901184082 71.76358795166016 7.108684062957764 67.11137390136719 4.917834281921387 61.93161392211914 C 2.649934053421021 56.5696907043457 1.500009059906006 50.87305068969727 1.500009059906006 44.99993896484375 C 1.500009059906006 39.12682723999023 2.649934053421021 33.4301872253418 4.917834281921387 28.06826400756836 C 7.108684062957764 22.88850212097168 10.24540901184082 18.23628807067871 14.24084663391113 14.2408390045166 C 18.23629570007324 10.24540138244629 22.88850975036621 7.108676433563232 28.06827163696289 4.917826652526855 C 33.43019485473633 2.649926424026489 39.12683486938477 1.500001430511475 44.99994659423828 1.500001430511475 C 50.8730583190918 1.500001430511475 56.56969833374023 2.649926424026489 61.93162155151367 4.917826652526855 C 67.11138153076172 7.108676433563232 71.76359558105469 10.24540138244629 75.75904846191406 14.2408390045166 C 79.75448608398438 18.23628807067871 82.89121246337891 22.88850212097168 85.08206176757812 28.06826400756836 C 87.34996032714844 33.4301872253418 88.49988555908203 39.12682723999023 88.49988555908203 44.99993896484375 C 88.49988555908203 50.87305068969727 87.34996032714844 56.5696907043457 85.08206176757812 61.93161392211914 C 82.89121246337891 67.11137390136719 79.75448608398438 71.76358795166016 75.75904846191406 75.75904083251953 C 71.76359558105469 79.75447845458984 67.11138153076172 82.89120483398438 61.93162155151367 85.08205413818359 C 56.56969833374023 87.34995269775391 50.8730583190918 88.4998779296875 44.99994659423828 88.4998779296875 Z" stroke="none"/>
                  <path d="M 44.99994659423828 2.999992370605469 C 39.32867431640625 2.999992370605469 33.82863235473633 4.110054016113281 28.65260314941406 6.299324035644531 C 23.65163421630859 8.41455078125 19.15967559814453 11.44332122802734 15.30150604248047 15.30149841308594 C 11.44332885742188 19.15966796875 8.414558410644531 23.65162658691406 6.299331665039062 28.65258026123047 C 4.110061645507812 33.82860946655273 3 39.32866668701172 3 44.99993896484375 C 3 50.67121124267578 4.110061645507812 56.1712532043457 6.299331665039062 61.34728240966797 C 8.414558410644531 66.34825134277344 11.44332885742188 70.8402099609375 15.30150604248047 74.69837951660156 C 19.15967559814453 78.55654907226562 23.65163421630859 81.5853271484375 28.65260314941406 83.70055389404297 C 33.82863235473633 85.88982391357422 39.32867431640625 86.9998779296875 44.99994659423828 86.9998779296875 C 50.67121887207031 86.9998779296875 56.17126083374023 85.88982391357422 61.3472900390625 83.70055389404297 C 66.34825897216797 81.5853271484375 70.84021759033203 78.55654907226562 74.69838714599609 74.69837951660156 C 78.55656433105469 70.8402099609375 81.58533477783203 66.34825134277344 83.7005615234375 61.34728240966797 C 85.88983154296875 56.1712532043457 86.99989318847656 50.67121124267578 86.99989318847656 44.99993896484375 C 86.99989318847656 39.32866668701172 85.88983154296875 33.82860946655273 83.7005615234375 28.65258026123047 C 81.58533477783203 23.65162658691406 78.55656433105469 19.15966796875 74.69838714599609 15.30149841308594 C 70.84021759033203 11.44332122802734 66.34825897216797 8.41455078125 61.3472900390625 6.299324035644531 C 56.17126083374023 4.110054016113281 50.67121887207031 2.999992370605469 44.99994659423828 2.999992370605469 M 44.99994659423828 -7.62939453125e-06 C 69.85272216796875 -7.62939453125e-06 89.99989318847656 20.14715576171875 89.99989318847656 44.99993896484375 C 89.99989318847656 69.85270690917969 69.85272216796875 89.99988555908203 44.99994659423828 89.99988555908203 C 20.14717864990234 89.99988555908203 0 69.85270690917969 0 44.99993896484375 C 0 20.14715576171875 20.14717864990234 -7.62939453125e-06 44.99994659423828 -7.62939453125e-06 Z" stroke="none" fill="#605f84"/>
                </g>
              </g>
            </g>
          </g>
        </g>
      </g>
    </g>
    <g id="idiomas" transform="translate(223.124 10211.648)">
      <g id="Grupo_1228841" data-name="Grupo 1228841" transform="translate(1.149 1.149)">
        <circle id="Elipse_12834" data-name="Elipse 12834" cx="28.203" cy="28.203" r="28.203" fill="#ccf5fc"/>
        <g id="Grupo_1228840" data-name="Grupo 1228840" transform="translate(0.747 1.443)">
          <path id="Trazado_1180042" data-name="Trazado 1180042" d="M286.363,45.817l-7.436-4.072-12.274.966-3.795,2.99L258.8,43.844l-.115-5.1,4.048-1.845-.561-4.927,6-4.351.306-5.019S283.751,30.18,286.363,45.817Z" transform="translate(-230.926 -22.605)" fill="#b8ecbc"/>
          <path id="Trazado_1180043" data-name="Trazado 1180043" d="M270.723,292.918l-1.228-6.129-5.923-7.224-10.481-.251-5.466,4.764-.3,7.372,5.528,2.6,3.738,9.559A26.939,26.939,0,0,0,270.723,292.918Z" transform="translate(-220.863 -249.881)" fill="#b8ecbc"/>
          <path id="Trazado_1180044" data-name="Trazado 1180044" d="M16.533,63.212,18.065,66.2l3.666,4.059v6.433L19.05,83.507s6.2,11.182,15.241,12.637L31.928,87.03l3.009-6.488L26.862,77.3l.23-5.131,6.663-2.527.468-3.712-3.215-4.176,4.355-8.58L29.315,45.9A27.984,27.984,0,0,0,16.533,63.212Z" transform="translate(-16.533 -43.23)" fill="#b8ecbc"/>
        </g>
        <path id="Trazado_1180045" data-name="Trazado 1180045" d="M346.064,14.395h-14.4A2.006,2.006,0,0,0,329.66,16.4v6.551l-1.521,3.363,3.558-1.177h14.368a2.006,2.006,0,0,0,2.006-2.006V16.4A2.006,2.006,0,0,0,346.064,14.395Z" transform="translate(-291.665 -13.893)" fill="#fff3a0"/>
        <path id="Trazado_1180046" data-name="Trazado 1180046" d="M346.066,401.916h-14.4a2.006,2.006,0,0,1-2.006-2.006v-6.551L328.14,390l3.558,1.177h14.368a2.006,2.006,0,0,1,2.006,2.006v6.731A2.006,2.006,0,0,1,346.066,401.916Z" transform="translate(-291.666 -346.43)" fill="#fffbdf"/>
        <path id="Trazado_1180047" data-name="Trazado 1180047" d="M121.149,258.006v6.732a2.006,2.006,0,0,1-2.006,2.006H104.776l-3.558,1.176,1.52-3.362v-6.566A2.006,2.006,0,0,1,104.745,256h14.4A2.006,2.006,0,0,1,121.149,258.006Z" transform="translate(-90.762 -227.797)" fill="#ff9eb1"/>
      </g>
      <g id="Grupo_1228842" data-name="Grupo 1228842" transform="translate(0 0)">
        <path id="Trazado_1180048" data-name="Trazado 1180048" d="M51.751,97.86a1.146,1.146,0,1,0-.191-1.61A1.147,1.147,0,0,0,51.751,97.86Z" transform="translate(-45.43 -84.827)"/>
        <circle id="Elipse_12835" data-name="Elipse 12835" cx="1.149" cy="1.149" r="1.149" transform="translate(16.679 33.504)"/>
        <circle id="Elipse_12836" data-name="Elipse 12836" cx="1.149" cy="1.149" r="1.149" transform="translate(21.274 33.504)"/>
        <circle id="Elipse_12837" data-name="Elipse 12837" cx="1.149" cy="1.149" r="1.149" transform="translate(25.869 33.504)"/>
        <circle id="Elipse_12838" data-name="Elipse 12838" cx="1.149" cy="1.149" r="1.149" transform="translate(42.565 50.434)"/>
        <circle id="Elipse_12839" data-name="Elipse 12839" cx="1.149" cy="1.149" r="1.149" transform="translate(47.16 50.434)"/>
        <circle id="Elipse_12840" data-name="Elipse 12840" cx="1.149" cy="1.149" r="1.149" transform="translate(51.755 50.434)"/>
        <circle id="Elipse_12841" data-name="Elipse 12841" cx="1.149" cy="1.149" r="1.149" transform="translate(42.565 5.784)"/>
        <circle id="Elipse_12842" data-name="Elipse 12842" cx="1.149" cy="1.149" r="1.149" transform="translate(47.16 5.784)"/>
        <circle id="Elipse_12843" data-name="Elipse 12843" cx="1.149" cy="1.149" r="1.149" transform="translate(51.755 5.784)"/>
        <path id="Trazado_1180049" data-name="Trazado 1180049" d="M55.548,44.743h-1.2a29.376,29.376,0,0,0-.262-31.2h1.462A3.158,3.158,0,0,0,58.7,10.388V3.656A3.158,3.158,0,0,0,55.548.5h-14.4A3.147,3.147,0,0,0,38.8,1.556a29.384,29.384,0,0,0-29,5.908,1.149,1.149,0,1,0,1.532,1.713,27.081,27.081,0,0,1,3.193-2.452L19.413,12.6l-4.107,8.231a1.149,1.149,0,0,0,.215,1.324l2.933,2.94-.7,3.111H15.132a3.165,3.165,0,0,0-3.156,3.14v6.319L10.559,40.8a1.159,1.159,0,0,0,1.407,1.564l3.382-1.118h2.967l-2.093,5.293a1.149,1.149,0,0,0-.038.733l1.874,6.68A27.285,27.285,0,0,1,5.671,42.456c.006-.013.013-.024.018-.037l2.6-6.549a1.147,1.147,0,0,0,.08-.472l-.287-6.753a1.149,1.149,0,0,0-.373-.8L5.026,25.394l-1.5-4.145a26.97,26.97,0,0,1,1.758-4.274,1.149,1.149,0,1,0-2.042-1.052,29.365,29.365,0,0,0,35.87,41.114,3.14,3.14,0,0,0,2.034.746h14.4A3.158,3.158,0,0,0,58.7,54.629V47.9a3.159,3.159,0,0,0-3.155-3.155ZM2.582,25.393l.379,1.049a1.148,1.148,0,0,0,.306.458l2.539,2.32.256,6.031-1.744,4.4A27.018,27.018,0,0,1,2.3,29.351a27.474,27.474,0,0,1,.285-3.959Zm35.4,18.232a1.149,1.149,0,0,0-1.407,1.564l1.419,3.137v5.44l-3.137-7.66a1.149,1.149,0,0,0-.576-.6l-4.935-2.312.079-1.945h.106a3.158,3.158,0,0,0,3.155-3.155V34.308l1.726-1.5,9.6.23,5.3,6.743,1.15,4.965h-9.1ZM55.872,23.961,49.956,20.75a1.151,1.151,0,0,0-.616-.137L37.71,21.3a1.148,1.148,0,0,0-.661.259l-3.417,2.8-2.891-1.775-.067-3,3.052-1.105a1.149,1.149,0,0,0,.753-1.18l-.4-4.6,3.919-2.825V9.96L36.576,13.1a1.159,1.159,0,0,0,1.407,1.564l3.382-1.119h9.942a26.756,26.756,0,0,1,4.564,10.418ZM41.149,2.8h14.4a.858.858,0,0,1,.857.857v6.731a.858.858,0,0,1-.857.857H41.181a1.149,1.149,0,0,0-.361.058l-1.071.354.441-.977a1.148,1.148,0,0,0,.1-.473V3.656a.858.858,0,0,1,.857-.857ZM20.525,23.916l-2.8-2.8L21.8,12.951a1.149,1.149,0,0,0-.145-1.248L16.517,5.534A27.106,27.106,0,0,1,37.994,3.71V7.051L32.2,11.226a1.149,1.149,0,0,0-.473,1.032l.382,4.366-3,1.086a1.149,1.149,0,0,0-.757,1.106l.1,4.448a1.149,1.149,0,0,0,.547.953l4.122,2.531a1.149,1.149,0,0,0,1.33-.091l3.761-3.086,10.93-.646L56.286,26.8q.117,1.265.119,2.552A26.849,26.849,0,0,1,52.5,43.36l-1.008-4.35a1.15,1.15,0,0,0-.216-.451l-5.794-7.37a1.149,1.149,0,0,0-.875-.438L34.02,30.5a1.152,1.152,0,0,0-.782.282l-.555.484A3.158,3.158,0,0,0,29.53,28.2H20.11l.723-3.224a1.149,1.149,0,0,0-.308-1.062Zm-5.362,15.03A1.149,1.149,0,0,0,14.8,39l-1.072.354.441-.977a1.148,1.148,0,0,0,.1-.473V31.35a.86.86,0,0,1,.858-.85h14.4a.858.858,0,0,1,.857.857v6.732a.858.858,0,0,1-.857.857Zm5.578,16.066c0-.012,0-.023-.008-.035L18.5,47.021l2.284-5.778h6.34l-.106,2.615a1.149,1.149,0,0,0,.661,1.087L32.9,47.391l3.33,8.131a27.272,27.272,0,0,1-15.49-.51Zm35.664-.383a.858.858,0,0,1-.857.857h-14.4a.858.858,0,0,1-.857-.857V48.078a1.148,1.148,0,0,0-.1-.473l-.441-.977,1.071.354a1.148,1.148,0,0,0,.361.058H55.548a.858.858,0,0,1,.857.857v6.731Z" transform="translate(0 0)"/>
      </g>
    </g>
  </g>
</svg>
