<svg xmlns="http://www.w3.org/2000/svg" xmlns:xlink="http://www.w3.org/1999/xlink" width="108" height="108" viewBox="0 0 108 108">
  <defs>
    <filter id="Fondo" x="0" y="0" width="108" height="108" filterUnits="userSpaceOnUse">
      <feOffset dy="3" input="SourceAlpha"/>
      <feGaussianBlur stdDeviation="3" result="blur"/>
      <feFlood flood-opacity="0.161"/>
      <feComposite operator="in" in2="blur"/>
      <feComposite in="SourceGraphic"/>
    </filter>
  </defs>
  <g id="Grupo_1229997" data-name="Grupo 1229997" transform="translate(-619.16 -12294)">
    <g id="Grupo_1227924" data-name="Grupo 1227924" transform="translate(628.16 12300)">
      <g id="Grupo_1220768" data-name="Grupo 1220768" transform="translate(0 0)">
        <g id="Grupo_1220472" data-name="Grupo 1220472">
          <g id="Grupo_1210004" data-name="Grupo 1210004">
            <g id="Grupo_1143757" data-name="Grupo 1143757">
              <g transform="matrix(1, 0, 0, 1, -9, -6)" filter="url(#Fondo)">
                <g id="Fondo-2" data-name="Fondo" transform="translate(9 6)" fill="#fff9f4">
                  <path d="M 44.99994659423828 88.4998779296875 C 39.12683486938477 88.4998779296875 33.43019485473633 87.34995269775391 28.06827163696289 85.08205413818359 C 22.88850975036621 82.89120483398438 18.23629570007324 79.75447845458984 14.24084663391113 75.75904083251953 C 10.24540901184082 71.76358795166016 7.108684062957764 67.11137390136719 4.917834281921387 61.93161392211914 C 2.649934053421021 56.5696907043457 1.500009059906006 50.87305068969727 1.500009059906006 44.99993896484375 C 1.500009059906006 39.12682723999023 2.649934053421021 33.4301872253418 4.917834281921387 28.06826400756836 C 7.108684062957764 22.88850212097168 10.24540901184082 18.23628807067871 14.24084663391113 14.2408390045166 C 18.23629570007324 10.24540138244629 22.88850975036621 7.108676433563232 28.06827163696289 4.917826652526855 C 33.43019485473633 2.649926424026489 39.12683486938477 1.500001430511475 44.99994659423828 1.500001430511475 C 50.8730583190918 1.500001430511475 56.56969833374023 2.649926424026489 61.93162155151367 4.917826652526855 C 67.11138153076172 7.108676433563232 71.76359558105469 10.24540138244629 75.75904846191406 14.2408390045166 C 79.75448608398438 18.23628807067871 82.89121246337891 22.88850212097168 85.08206176757812 28.06826400756836 C 87.34996032714844 33.4301872253418 88.49988555908203 39.12682723999023 88.49988555908203 44.99993896484375 C 88.49988555908203 50.87305068969727 87.34996032714844 56.5696907043457 85.08206176757812 61.93161392211914 C 82.89121246337891 67.11137390136719 79.75448608398438 71.76358795166016 75.75904846191406 75.75904083251953 C 71.76359558105469 79.75447845458984 67.11138153076172 82.89120483398438 61.93162155151367 85.08205413818359 C 56.56969833374023 87.34995269775391 50.8730583190918 88.4998779296875 44.99994659423828 88.4998779296875 Z" stroke="none"/>
                  <path d="M 44.99994659423828 2.999992370605469 C 39.32867431640625 2.999992370605469 33.82863235473633 4.110054016113281 28.65260314941406 6.299324035644531 C 23.65163421630859 8.41455078125 19.15967559814453 11.44332122802734 15.30150604248047 15.30149841308594 C 11.44332885742188 19.15966796875 8.414558410644531 23.65162658691406 6.299331665039062 28.65258026123047 C 4.110061645507812 33.82860946655273 3 39.32866668701172 3 44.99993896484375 C 3 50.67121124267578 4.110061645507812 56.1712532043457 6.299331665039062 61.34728240966797 C 8.414558410644531 66.34825134277344 11.44332885742188 70.8402099609375 15.30150604248047 74.69837951660156 C 19.15967559814453 78.55654907226562 23.65163421630859 81.5853271484375 28.65260314941406 83.70055389404297 C 33.82863235473633 85.88982391357422 39.32867431640625 86.9998779296875 44.99994659423828 86.9998779296875 C 50.67121887207031 86.9998779296875 56.17126083374023 85.88982391357422 61.3472900390625 83.70055389404297 C 66.34825897216797 81.5853271484375 70.84021759033203 78.55654907226562 74.69838714599609 74.69837951660156 C 78.55656433105469 70.8402099609375 81.58533477783203 66.34825134277344 83.7005615234375 61.34728240966797 C 85.88983154296875 56.1712532043457 86.99989318847656 50.67121124267578 86.99989318847656 44.99993896484375 C 86.99989318847656 39.32866668701172 85.88983154296875 33.82860946655273 83.7005615234375 28.65258026123047 C 81.58533477783203 23.65162658691406 78.55656433105469 19.15966796875 74.69838714599609 15.30149841308594 C 70.84021759033203 11.44332122802734 66.34825897216797 8.41455078125 61.3472900390625 6.299324035644531 C 56.17126083374023 4.110054016113281 50.67121887207031 2.999992370605469 44.99994659423828 2.999992370605469 M 44.99994659423828 -7.62939453125e-06 C 69.85272216796875 -7.62939453125e-06 89.99989318847656 20.14715576171875 89.99989318847656 44.99993896484375 C 89.99989318847656 69.85270690917969 69.85272216796875 89.99988555908203 44.99994659423828 89.99988555908203 C 20.14717864990234 89.99988555908203 0 69.85270690917969 0 44.99993896484375 C 0 20.14715576171875 20.14717864990234 -7.62939453125e-06 44.99994659423828 -7.62939453125e-06 Z" stroke="none" fill="#8b7157"/>
                </g>
              </g>
            </g>
          </g>
        </g>
      </g>
    </g>
    <g id="escritura_1_" data-name="escritura (1)" transform="translate(641.623 12258.748)">
      <g id="Grupo_1229996" data-name="Grupo 1229996" transform="translate(0.985 57.787)">
        <g id="Grupo_1229994" data-name="Grupo 1229994" transform="translate(0 0)">
          <g id="Grupo_1229991" data-name="Grupo 1229991" transform="translate(4.57 5.734)">
            <path id="Trazado_1180551" data-name="Trazado 1180551" d="M59.751,118.514l-8.831,4.932-1.028,9.966-1.217,3.063-.174.426a3.2,3.2,0,0,1-6.158-1.21v-12.8a6.776,6.776,0,0,1,2.4-5.173l10.451-8.844A3.685,3.685,0,0,1,57.573,108h6.32a3.685,3.685,0,0,1,1.923.542l1.005.615,10.717,6.877-1.705,6.642Z" transform="translate(-42.343 -108.003)" fill="#ffdfcf"/>
          </g>
          <g id="XMLID_442_">
            <g id="Grupo_1229993" data-name="Grupo 1229993">
              <path id="Trazado_1180552" data-name="Trazado 1180552" d="M10.7,391.672l-1.616.287c-.113.15-1.564,6.613-1.564,6.613a.383.383,0,0,0,.546.425l5.656-2.836.568-1.478Z" transform="translate(-7.506 -348.722)" fill="#fae2c0"/>
              <path id="Trazado_1180553" data-name="Trazado 1180553" d="M11.152,394.467l1.116-1.476L10.7,391.672l-1.616.287c-.113.15-1.564,6.613-1.564,6.613a.383.383,0,0,0,.546.425l2.258-1.133C10.7,396.219,11.1,394.543,11.152,394.467Z" transform="translate(-7.507 -348.722)" fill="#fdd79b"/>
              <path id="Trazado_1180554" data-name="Trazado 1180554" d="M51.376,119.251l-2.423-1.871-3.069,1.366L19.5,153.652l4.638,4.2a1.294,1.294,0,0,0,.453-.375l26.4-34.929,0,0Z" transform="translate(-17.925 -110.415)" fill="#fee45a"/>
              <path id="Trazado_1180555" data-name="Trazado 1180555" d="M249.484,64.94a3.185,3.185,0,0,0-4.461.619l-2.274,3.008-.192,2.317,2.908,2.413,2.392-.929L250.1,69.4a3.184,3.184,0,0,0-.619-4.459Z" transform="translate(-211.72 -64.295)" fill="#f3eae6"/>
              <path id="Trazado_1180556" data-name="Trazado 1180556" d="M247.1,68.067a3.188,3.188,0,0,1,3.614-1.076,3.184,3.184,0,0,0-5.686-1.433l-2.274,3.008-.192,2.316,1.48,1.228Z" transform="translate(-211.721 -64.294)" fill="#efe2dd"/>
              <g id="Grupo_1229992" data-name="Grupo 1229992" transform="translate(1.573 6.965)">
                <path id="Trazado_1180557" data-name="Trazado 1180557" d="M50.174,118.324l-1.22-.943-3.069,1.366L19.5,153.653l2.355,2.134,4.65-6.151a1.315,1.315,0,0,1,1.923-.2,6.719,6.719,0,0,0,1.479,1.006l19-25.129-4.968,2.868a.5.5,0,0,1-.654-.741Z" transform="translate(-19.498 -117.381)" fill="#fedf30"/>
                <path id="Trazado_1180558" data-name="Trazado 1180558" d="M106.226,152.543a2.2,2.2,0,0,0,.674-.59l7.315-9.677,15.613,8.109h14.333a.766.766,0,0,1,.766.766v15.3a.766.766,0,0,1-.766.766H128.771a9.951,9.951,0,0,1-16.761-.849,1.5,1.5,0,0,0-1.311-.75h-7.507a1.43,1.43,0,0,0-.79.238l-5.47,3.627a4.071,4.071,0,0,1-5.1-6.3l6-5.9Z" transform="translate(-81.282 -139.01)" fill="#ffdfcf"/>
                <path id="Trazado_1180559" data-name="Trazado 1180559" d="M144.864,279.606H132.978a8.394,8.394,0,0,0-5.314,1.937q-.355.291-.737.549a9.952,9.952,0,0,1-13.183-1.854,6.26,6.26,0,0,0-4.793-2.232H105.2a5.773,5.773,0,0,0-3.191.962l-4.378,2.9a4.069,4.069,0,0,1-5.549-1.01l-.255.25a4.071,4.071,0,0,0,5.1,6.3l5.47-3.627a1.429,1.429,0,0,1,.79-.238H110.7a1.505,1.505,0,0,1,1.311.75,9.948,9.948,0,0,0,16.761.849h15.39a.766.766,0,0,0,.766-.766V279.6c-.022,0-.043,0-.065,0Z" transform="translate(-81.283 -256.933)" fill="#ffcebf"/>
              </g>
              <path id="Trazado_1180560" data-name="Trazado 1180560" d="M228.805,100.657l-1.631,2.158-1.439,1.9,0,0-5.1-3.8,3.069-4.059Z" transform="translate(-192.668 -92.584)" fill="#fae2c0"/>
              <path id="Trazado_1180561" data-name="Trazado 1180561" d="M226.237,98.746l-2.54-1.89-3.069,4.059,2.539,1.891Z" transform="translate(-192.668 -92.584)" fill="#fdd79b"/>
            </g>
          </g>
        </g>
        <g id="Grupo_1229995" data-name="Grupo 1229995" transform="translate(56.798 17.356)">
          <path id="Trazado_1180562" data-name="Trazado 1180562" d="M441.422,198.557h7.438a.984.984,0,0,0,0-1.968h-7.438a.984.984,0,1,0,0,1.968Z" transform="translate(-440.438 -196.589)"/>
        </g>
      </g>
      <path id="Trazado_1180563" data-name="Trazado 1180563" d="M66.2,91.978H51.771c.084-.172.165-.346.24-.524a.984.984,0,1,0-1.812-.767,8.969,8.969,0,0,1-16.405.262.984.984,0,0,0-.893-.572H24.037a.985.985,0,0,0-.544.164l-5.83,3.865a3.087,3.087,0,0,1-3.869-4.774L19.7,83.826l8.286-4.685a3.172,3.172,0,0,0,.974-.852l6.815-9.015L50.651,77a.984.984,0,0,0,.454.111h3.468a.984.984,0,0,0,0-1.968H51.346L36.979,67.681l3.173-4.2A4.168,4.168,0,0,0,33.5,58.457l-3.716,4.916-.245-.15a4.669,4.669,0,0,0-2.437-.686h-6.32a4.674,4.674,0,0,0-3.016,1.1l-5.218,4.416a.984.984,0,1,0,1.271,1.5l5.218-4.416a2.7,2.7,0,0,1,1.745-.639h6.32a2.7,2.7,0,0,1,1.41.4l.079.049L22.3,73.273,13.652,78.1a.984.984,0,0,0-.5.758L12.16,88.5A5.031,5.031,0,0,0,10.9,91.815l-.095.232a2.214,2.214,0,0,1-4.263-.838V78.41a5.782,5.782,0,0,1,2.05-4.422l2.028-1.716a.984.984,0,1,0-1.271-1.5L7.318,72.486A7.746,7.746,0,0,0,4.571,78.41v12.8a4.177,4.177,0,0,0,1.656,3.33L1.773,100.43a2.292,2.292,0,0,0-.408.887l-1.333,6.11a1.371,1.371,0,0,0,1.334,1.661c.03,0,.06,0,.09-.005s.055,0,.084,0H36a.984.984,0,1,0,0-1.968H5.615L7.637,106.1a2.286,2.286,0,0,0,.8-.662l2.033-2.689a.984.984,0,1,0-1.57-1.187l-1.737,2.3L3.886,100.9l4.2-5.561a4.178,4.178,0,0,0,3.464-1.024,5.147,5.147,0,0,0,.282.446A5.093,5.093,0,0,0,13.1,96.007l-1.668,2.207A.984.984,0,1,0,13,99.4l1.968-2.6a5.037,5.037,0,0,0,3.783-.752l5.583-3.7h7.958a10.938,10.938,0,0,0,18.252,1.6H66.2a.984.984,0,1,0,0-1.968ZM5.471,104.99l-3.248,1.628.832-3.816ZM27.391,77.1a1.216,1.216,0,0,1-.373.326l-8.4,4.749a.98.98,0,0,0-.205.155L16.5,84.216,29.141,67.491l3.53,2.627Zm6.466-8.554-3.53-2.627,1.883-2.49,3.53,2.627Zm1.216-8.9a2.2,2.2,0,0,1,3.51,2.653l-1.656,2.19L33.4,61.861ZM19.353,77.175l-4.687,6.2.392-3.8Z" transform="translate(0)"/>
    </g>
  </g>
</svg>
