<svg xmlns="http://www.w3.org/2000/svg" xmlns:xlink="http://www.w3.org/1999/xlink" width="103" height="103" viewBox="0 0 103 103">
  <defs>
    <filter id="Trazado_982547" x="0" y="0" width="103" height="103" filterUnits="userSpaceOnUse">
      <feOffset dy="3" input="SourceAlpha"/>
      <feGaussianBlur stdDeviation="3" result="blur"/>
      <feFlood flood-opacity="0.161"/>
      <feComposite operator="in" in2="blur"/>
      <feComposite in="SourceGraphic"/>
    </filter>
  </defs>
  <g id="Grupo_1230001" data-name="Grupo 1230001" transform="translate(-171.054 -13194)">
    <g id="Grupo_1227925" data-name="Grupo 1227925" transform="translate(-25.956 8722)">
      <g id="Grupo_1203964" data-name="Grupo 1203964" transform="translate(206.01 4478)">
        <g id="Grupo_1203625" data-name="Grupo 1203625" transform="translate(0)">
          <g id="Grupo_1178314" data-name="Grupo 1178314" transform="translate(0 0)">
            <g id="Grupo_1173988" data-name="Grupo 1173988">
              <g id="Grupo_1172010" data-name="Grupo 1172010">
                <g id="Grupo_1171046" data-name="Grupo 1171046">
                  <g id="Grupo_1148525" data-name="Grupo 1148525">
                    <g transform="matrix(1, 0, 0, 1, -9, -6)" filter="url(#Trazado_982547)">
                      <g id="Trazado_982547-2" data-name="Trazado 982547" transform="translate(9 6)" fill="#f6f6fd">
                        <path d="M 42.5 83.5 C 36.96437835693359 83.5 31.59512901306152 82.41617584228516 26.54141235351562 80.27863311767578 C 21.65934181213379 78.21369171142578 17.27447128295898 75.25723266601562 13.50862312316895 71.49137878417969 C 9.742764472961426 67.72553253173828 6.786305904388428 63.34066009521484 4.721364498138428 58.45858764648438 C 2.583823442459106 53.40486907958984 1.5 48.03562164306641 1.5 42.5 C 1.5 36.96437835693359 2.583823442459106 31.59512901306152 4.721364498138428 26.54141235351562 C 6.786305904388428 21.65934181213379 9.742764472961426 17.27448272705078 13.50862312316895 13.50862312316895 C 17.27447128295898 9.742776870727539 21.65934181213379 6.786305904388428 26.54141235351562 4.721364498138428 C 31.59512901306152 2.583823442459106 36.96437835693359 1.5 42.5 1.5 C 48.03562164306641 1.5 53.40486907958984 2.583823442459106 58.45858764648438 4.721364498138428 C 63.34066009521484 6.786305904388428 67.72553253173828 9.742776870727539 71.49137878417969 13.50862312316895 C 75.25723266601562 17.27448272705078 78.21369171142578 21.65934181213379 80.27863311767578 26.54141235351562 C 82.41617584228516 31.59512901306152 83.5 36.96437835693359 83.5 42.5 C 83.5 48.03562164306641 82.41617584228516 53.40486907958984 80.27863311767578 58.45858764648438 C 78.21369171142578 63.34066009521484 75.25723266601562 67.72553253173828 71.49137878417969 71.49137878417969 C 67.72553253173828 75.25723266601562 63.34066009521484 78.21369171142578 58.45858764648438 80.27863311767578 C 53.40486907958984 82.41617584228516 48.03562164306641 83.5 42.5 83.5 Z" stroke="none"/>
                        <path d="M 42.5 3 C 37.16621398925781 3 31.99356079101562 4.043960571289062 27.125732421875 6.102882385253906 C 22.42246627807617 8.092185974121094 18.19785308837891 10.94070434570312 14.56928253173828 14.56928253173828 C 10.94070434570312 18.19785308837891 8.092185974121094 22.42246627807617 6.102882385253906 27.125732421875 C 4.043960571289062 31.99356079101562 3 37.16621398925781 3 42.5 C 3 47.83378601074219 4.043960571289062 53.00643920898438 6.102882385253906 57.87425231933594 C 8.092185974121094 62.57753372192383 10.94070434570312 66.80213165283203 14.56928253173828 70.43071746826172 C 18.19786834716797 74.05929565429688 22.42246627807617 76.90781402587891 27.125732421875 78.89711761474609 C 31.99356079101562 80.95603942871094 37.16621398925781 82 42.5 82 C 47.83378601074219 82 53.00642395019531 80.95603942871094 57.87425231933594 78.89711761474609 C 62.57753372192383 76.90781402587891 66.80213165283203 74.05929565429688 70.43071746826172 70.43071746826172 C 74.05929565429688 66.80213165283203 76.90781402587891 62.57753372192383 78.89711761474609 57.87425231933594 C 80.95603942871094 53.00642395019531 82 47.83378601074219 82 42.5 C 82 37.16621398925781 80.95603942871094 31.99356079101562 78.89711761474609 27.125732421875 C 76.90781402587891 22.42246627807617 74.05929565429688 18.19786834716797 70.43071746826172 14.56928253173828 C 66.80213165283203 10.94070434570312 62.57753372192383 8.092185974121094 57.87425231933594 6.102882385253906 C 53.00643920898438 4.043960571289062 47.83378601074219 3 42.5 3 M 42.5 0 C 65.97209167480469 0 85 19.02789306640625 85 42.5 C 85 65.97209167480469 65.97209167480469 85 42.5 85 C 19.02789306640625 85 0 65.97209167480469 0 42.5 C 0 19.02789306640625 19.02789306640625 0 42.5 0 Z" stroke="none" fill="#b1aef1"/>
                      </g>
                    </g>
                  </g>
                </g>
              </g>
            </g>
          </g>
        </g>
      </g>
    </g>
    <g id="gramatica" transform="translate(174.441 13217)">
      <g id="Grupo_1229999" data-name="Grupo 1229999" transform="translate(23.031 0.831)">
        <path id="Trazado_1180564" data-name="Trazado 1180564" d="M75.936,31.276H33.626A3.927,3.927,0,0,1,29.7,27.349V11.427A3.927,3.927,0,0,1,33.626,7.5h42.31a3.927,3.927,0,0,1,3.927,3.927V27.349A3.927,3.927,0,0,1,75.936,31.276Z" transform="translate(-29.699 -7.5)" fill="#7fe9ff"/>
        <path id="Trazado_1180565" data-name="Trazado 1180565" d="M37.957,31.279h-4.33A3.927,3.927,0,0,1,29.7,27.352V11.431A3.927,3.927,0,0,1,33.627,7.5h4.33a3.927,3.927,0,0,0-3.926,3.928V27.352A3.927,3.927,0,0,0,37.957,31.279Z" transform="translate(-29.699 -7.503)" fill="#00deff"/>
        <g id="Grupo_1229998" data-name="Grupo 1229998" transform="translate(5.78 16.481)">
          <path id="Trazado_1180566" data-name="Trazado 1180566" d="M286.509,360.876a4.139,4.139,0,0,1-6.116-.288l-10.422-12.6,3.651-3.651,12.6,10.423A4.139,4.139,0,0,1,286.509,360.876Z" transform="translate(-249.119 -323.485)" fill="#7a6d79"/>
          <path id="Trazado_1180567" data-name="Trazado 1180567" d="M286.506,379.335a4.139,4.139,0,0,1-6.116-.287l-10.423-12.6,1.35-1.35,11.228,11.794C284.22,378.651,286.057,379.784,286.506,379.335Z" transform="translate(-249.117 -341.945)" fill="#685e68"/>
          <circle id="Elipse_12849" data-name="Elipse 12849" cx="14.581" cy="14.581" r="14.581" transform="translate(0 0.001)" fill="#ffd15b"/>
          <path id="Trazado_1180568" data-name="Trazado 1180568" d="M97.68,185.312q-.62.053-1.254.054a14.581,14.581,0,0,1,0-29.162q.634,0,1.254.054a14.581,14.581,0,0,0,0,29.055Z" transform="translate(-81.845 -156.204)" fill="#ffc344"/>
          <circle id="Elipse_12850" data-name="Elipse 12850" cx="10.094" cy="10.094" r="10.094" transform="translate(4.487 4.487)" fill="#c8effe"/>
          <path id="Trazado_1180569" data-name="Trazado 1180569" d="M135,216.551a10.094,10.094,0,1,1,0-19.521,10.1,10.1,0,0,0,0,19.521Z" transform="translate(-117.839 -192.209)" fill="#99e6fc"/>
        </g>
      </g>
      <g id="Grupo_1230000" data-name="Grupo 1230000" transform="translate(22.2 0)">
        <path id="Trazado_1180570" data-name="Trazado 1180570" d="M73.195,11.319a.831.831,0,0,0,.831-.831V4.758A4.763,4.763,0,0,0,69.268,0H26.958A4.763,4.763,0,0,0,22.2,4.758V20.681a4.763,4.763,0,0,0,4.758,4.758H29.4A15.418,15.418,0,0,0,51.316,45.12l4.851,5.865a.831.831,0,1,0,1.281-1.06L52.7,44.181A15.58,15.58,0,0,0,55.678,41.2l9.7,8.026a3.309,3.309,0,1,1-4.658,4.659l-.819-.991a.831.831,0,0,0-1.282,1.059l.82.991a4.971,4.971,0,1,0,7-7l-9.825-8.127a15.47,15.47,0,0,0,.777-14.381H69.268a4.763,4.763,0,0,0,4.758-4.758V14.354a.831.831,0,0,0-1.663,0v6.326a3.1,3.1,0,0,1-3.1,3.1H56.5a15.521,15.521,0,0,0-4.434-4.623,4.6,4.6,0,0,0-1.057-7.427,4.051,4.051,0,0,0-2.819-6.962H44.119a.831.831,0,0,0-.831.831v10.9a15.5,15.5,0,0,0-4.237.618L34.669,5.5l-.008-.021a1.148,1.148,0,0,0-2.126,0l-.007.019L27.27,19.3a.831.831,0,1,0,1.554.592l1.106-2.9h7.3l.253.669a15.421,15.421,0,0,0-7.193,6.115H26.958a3.1,3.1,0,0,1-3.1-3.1V4.758a3.1,3.1,0,0,1,3.1-3.1h42.31a3.1,3.1,0,0,1,3.1,3.1v5.73a.831.831,0,0,0,.831.831Zm-42.633,4.01L33.6,7.363,36.6,15.329Zm19.987,2.915a15.4,15.4,0,0,0-5.6-1.675V12.882c.459,0,3.947-.006,3.947-.006a2.939,2.939,0,0,1,1.651,5.368ZM48.187,6.426a2.391,2.391,0,1,1,0,4.782l-3.236,0V6.426ZM33.669,22.172A13.752,13.752,0,0,1,54.848,39.5c-.012.016-.022.032-.033.048a13.751,13.751,0,1,1-21.146-17.38Z" transform="translate(-22.2 0)"/>
        <path id="Trazado_1180571" data-name="Trazado 1180571" d="M328.383,44.644a6.139,6.139,0,0,1,3.45,1.053.831.831,0,1,0,.931-1.378,7.833,7.833,0,1,0-4.38,14.328,6.341,6.341,0,0,0,5.048-2.274.831.831,0,1,0-1.274-1.068,4.683,4.683,0,0,1-3.774,1.679,6.171,6.171,0,1,1,0-12.341Z" transform="translate(-287.483 -38.217)"/>
        <path id="Trazado_1180572" data-name="Trazado 1180572" d="M118.024,207.843a10.925,10.925,0,0,0,18.607-8.7.831.831,0,0,0-.828-.758h0a.831.831,0,0,0-.824.937A9.23,9.23,0,1,1,134,195.9a.831.831,0,1,0,1.481-.756,10.926,10.926,0,1,0-17.456,12.7Z" transform="translate(-104.558 -168.223)"/>
        <path id="Trazado_1180573" data-name="Trazado 1180573" d="M177.908,241.516l-3.719,7.435-2.619-3.18a.831.831,0,1,0-1.283,1.057L173.719,251a.831.831,0,0,0,.642.3.853.853,0,0,0,.094-.005.831.831,0,0,0,.65-.454l4.291-8.579a.831.831,0,0,0-1.487-.744Z" transform="translate(-153.706 -214.339)"/>
      </g>
    </g>
  </g>
</svg>
