<svg xmlns="http://www.w3.org/2000/svg" xmlns:xlink="http://www.w3.org/1999/xlink" width="295" height="368" viewBox="0 0 295 368">
  <defs>
    <clipPath id="clip-path">
      <rect id="Rectángulo_422875" data-name="Rectángulo 422875" width="295" height="368" transform="translate(1125.054 14157)" fill="#fff" stroke="#707070" stroke-width="1"/>
    </clipPath>
  </defs>
  <g id="Enmascarar_grupo_1211505" data-name="Enmascarar grupo 1211505" transform="translate(-1125.054 -14157)" clip-path="url(#clip-path)">
    <g id="_23251331_6730758" data-name="23251331_6730758" transform="translate(1125.051 14222.983)">
      <g id="OBJECTS" transform="translate(0.003 19.459)">
        <g id="Grupo_1230002" data-name="Grupo 1230002" transform="translate(29.652 6.336)">
          <path id="Trazado_1180574" data-name="Trazado 1180574" d="M407.4,242.947h26.5s-3.382-4.8-8.316-3.307c0,0-5.747-8.352-11.688.61C413.894,240.251,409.882,238.221,407.4,242.947Z" transform="translate(-197.504 -115.052)" fill="#faeee8"/>
          <path id="Trazado_1180575" data-name="Trazado 1180575" d="M191.372,173.6h26.5s-3.382-4.8-8.317-3.307c0,0-5.747-8.352-11.688.61C197.862,170.9,193.85,168.87,191.372,173.6Z" transform="translate(-108.499 -86.48)" fill="#fab696"/>
          <path id="Trazado_1180576" data-name="Trazado 1180576" d="M212.5,37.079H239s-3.382-4.8-8.317-3.307c0,0-5.747-8.352-11.688.61C218.993,34.383,214.981,32.352,212.5,37.079Z" transform="translate(-117.205 -30.235)" fill="#fab696"/>
          <path id="Trazado_1180577" data-name="Trazado 1180577" d="M408.52,222.605h37.1s-4.933-5.04-10.616-2.467c0,0-7.078-10.831-15.334-.751C419.672,219.388,412.059,217.136,408.52,222.605Z" transform="translate(-197.964 -106.397)" fill="#fab696"/>
          <path id="Trazado_1180578" data-name="Trazado 1180578" d="M404.548,81.622h26.5s-3.382-4.8-8.316-3.307c0,0-5.748-8.352-11.688.61C411.038,78.926,407.026,76.9,404.548,81.622Z" transform="translate(-196.328 -48.586)" fill="#fff"/>
          <path id="Trazado_1180579" data-name="Trazado 1180579" d="M50.432,225.791h26.5s-3.382-4.8-8.316-3.307c0,0-5.747-8.352-11.688.61C56.922,223.1,52.91,221.065,50.432,225.791Z" transform="translate(-50.432 -107.984)" fill="#fff"/>
          <path id="Trazado_1180580" data-name="Trazado 1180580" d="M64.272,114.377h26.5s-3.382-4.8-8.317-3.307c0,0-5.747-8.352-11.688.61C70.762,111.681,66.75,109.65,64.272,114.377Z" transform="translate(-56.134 -62.082)" fill="#fff"/>
          <path id="Trazado_1180581" data-name="Trazado 1180581" d="M92.5,91.443h37.1s-3.864-7.482-11.671-4.554c0,0-6.023-8.743-14.28,1.337C103.651,88.226,96.038,85.974,92.5,91.443Z" transform="translate(-67.764 -52.127)" fill="#fab696"/>
        </g>
        <g id="Grupo_1230003" data-name="Grupo 1230003" transform="translate(8.724 160.256)">
          <path id="Trazado_1180582" data-name="Trazado 1180582" d="M56.448,348.937l-21.3,9.473c-23.861-25.625-22.773-36.568-16.382-36.6,4.692-.029,12.807,8.161,13.059,8.42-.082-.235-1.993-5.368-3.922-11.8,1.84.806,4.116,1.593,4.751.9.841-.917-3.822-4.292-6.186-5.915-2.964-11.072-4.839-23.185,1.911-21.2,1.729.512,3.552,2.023,5.4,4.239-.365,2.775-.559,5.845.394,5.733.864-.1,1.67-1.111,2.264-2.1C46.664,315.657,56.825,348.379,56.448,348.937Z" transform="translate(-14.839 -292.003)" fill="#fab696"/>
          <line id="Línea_653" data-name="Línea 653" x2="11.367" y2="33.139" transform="translate(15.751 10.236)" fill="none" stroke="#faded1" stroke-miterlimit="10" stroke-width="1"/>
          <line id="Línea_654" data-name="Línea 654" x2="11.565" y2="14.685" transform="translate(7.205 36.632)" fill="none" stroke="#faded1" stroke-miterlimit="10" stroke-width="1"/>
        </g>
        <g id="Grupo_1230004" data-name="Grupo 1230004" transform="translate(221.458 159.522)">
          <path id="Trazado_1180583" data-name="Trazado 1180583" d="M401.558,365.757l.112-.112H376.633l21.762-31.364c0-1.276,13.118-42.877,23.355-43.518,5.351-.335,5.639,8.156,3.175,18.393-2.44.811-5.956,2.229-5.839,3.646.112,1.276,2.487,1.546,4.41,1.552-2.47,7.944-6.25,16.217-10.378,21.844.37-.294,13.559-10.843,22.074-8.314,4.716,1.394-4.469,12.5-13.794,22.3,5.357.635,12.918,3.887,19.163,15.57Z" transform="translate(-376.633 -290.754)" fill="#fab696"/>
          <path id="Trazado_1180584" data-name="Trazado 1180584" d="M433.17,310.033s-9.8,28.688-18.52,39.4" transform="translate(-392.296 -298.697)" fill="none" stroke="#faded1" stroke-miterlimit="10" stroke-width="1"/>
          <path id="Trazado_1180585" data-name="Trazado 1180585" d="M444.83,365.924s-15.615,11.257-22.151,24.149" transform="translate(-395.604 -321.724)" fill="none" stroke="#faded1" stroke-miterlimit="10" stroke-width="1"/>
        </g>
        <g id="Grupo_1230010" data-name="Grupo 1230010" transform="translate(0 227.486)">
          <g id="Grupo_1230005" data-name="Grupo 1230005" transform="translate(0)">
            <rect id="Rectángulo_422877" data-name="Rectángulo 422877" width="294" height="55.072" fill="#fac7af"/>
          </g>
          <g id="Grupo_1230006" data-name="Grupo 1230006" transform="translate(0 15.201)">
            <path id="Trazado_1180586" data-name="Trazado 1180586" d="M294,459.762v.582c-22.779.653-42.407.947-59.323.947-99.3,0-105.475-10.1-110.209-17.822-2.011-3.281-3.751-6.115-12.466-7.591-30.2-5.11-96.162-2.646-112-1.446v-.606c7.462-.612,24.843-1.323,42.277-1.552,18.01-.235,51.033-.153,69.819,3.028,8.985,1.517,10.79,4.457,12.877,7.862C130.439,452.071,137.877,464.214,294,459.762Z" transform="translate(-0.003 -432.193)" fill="#faded1"/>
          </g>
          <g id="Grupo_1230007" data-name="Grupo 1230007" transform="translate(108.357 34.439)">
            <path id="Trazado_1180587" data-name="Trazado 1180587" d="M191.662,464.91c-3.581,0-7.379.911-7.379,2.6s3.8,2.6,7.379,2.6,7.379-.911,7.379-2.6S195.237,464.91,191.662,464.91Zm0,4.622c-4,0-6.791-1.064-6.791-2.017s2.787-2.017,6.791-2.017,6.791,1.064,6.791,2.017S195.667,469.532,191.662,469.532Z" transform="translate(-184.283 -464.91)" fill="#faded1"/>
          </g>
          <g id="Grupo_1230008" data-name="Grupo 1230008" transform="translate(0 29.459)">
            <path id="Trazado_1180588" data-name="Trazado 1180588" d="M2.755,456.44a18.371,18.371,0,0,0-2.752.2v.594a17.788,17.788,0,0,1,2.752-.206c3.91,0,6.639,1.147,6.639,2.17s-2.728,2.17-6.639,2.17A17.792,17.792,0,0,1,0,461.162v.594a18.371,18.371,0,0,0,2.752.2c3.5,0,7.227-.964,7.227-2.758S6.253,456.44,2.755,456.44Z" transform="translate(-0.003 -456.44)" fill="#faded1"/>
          </g>
          <g id="Grupo_1230009" data-name="Grupo 1230009" transform="translate(285.886 20.48)">
            <path id="Trazado_1180589" data-name="Trazado 1180589" d="M494.317,441.752v-.582c-4.134.171-8.114,1.2-8.114,2.958s3.981,2.787,8.114,2.958V446.5c-4.5-.188-7.526-1.335-7.526-2.376S489.819,441.94,494.317,441.752Z" transform="translate(-486.203 -441.17)" fill="#faded1"/>
          </g>
        </g>
        <path id="Trazado_1180590" data-name="Trazado 1180590" d="M130.755,446.722c0,1.836-19.957,3.325-44.576,3.325S41.6,448.558,41.6,446.722,61.559,443.4,86.179,443.4,130.755,444.885,130.755,446.722Z" transform="translate(-17.142 -194.121)" fill="#fabda0"/>
        <ellipse id="Elipse_12851" data-name="Elipse 12851" cx="65.094" cy="3.325" rx="65.094" ry="3.325" transform="translate(140.716 252.269)" fill="#fabda0"/>
        <g id="Grupo_1230015" data-name="Grupo 1230015" transform="translate(20.885 137.805)">
          <g id="Grupo_1230012" data-name="Grupo 1230012" transform="translate(51.662)">
            <g id="Grupo_1230011" data-name="Grupo 1230011">
              <path id="Trazado_1180591" data-name="Trazado 1180591" d="M276.664,284.271H138.607a15.225,15.225,0,0,1-15.225-15.225h0a15.225,15.225,0,0,1,15.225-15.225H276.664Z" transform="translate(-123.382 -253.821)" fill="#8c8da3"/>
              <path id="Trazado_1180592" data-name="Trazado 1180592" d="M325.754,284.271H280.466a15.225,15.225,0,0,1-15.225-15.225h0a15.225,15.225,0,0,1,15.225-15.225h45.288Z" transform="translate(-181.828 -253.821)" fill="#3a407d"/>
              <path id="Trazado_1180593" data-name="Trazado 1180593" d="M282.937,283.215a11.7,11.7,0,1,1,0-23.395H324.7v23.395h-41.76Z" transform="translate(-184.299 -256.293)" fill="#faeee8"/>
            </g>
            <rect id="Rectángulo_422878" data-name="Rectángulo 422878" width="36.317" height="7.703" transform="translate(28.041 11.611)" fill="#a0a1ba"/>
          </g>
          <g id="Grupo_1230013" data-name="Grupo 1230013" transform="translate(10.615 30.405)">
            <path id="Trazado_1180594" data-name="Trazado 1180594" d="M206.856,335.98H68.8a15.225,15.225,0,0,1-15.225-15.225h0A15.225,15.225,0,0,1,68.8,305.53H206.856Z" transform="translate(-53.574 -305.53)" fill="#2b305d"/>
            <path id="Trazado_1180595" data-name="Trazado 1180595" d="M317.6,335.98H210.657a15.225,15.225,0,0,1-15.225-15.225h0a15.225,15.225,0,0,1,15.225-15.225H317.6Z" transform="translate(-112.019 -305.53)" fill="#3a407d"/>
            <path id="Trazado_1180596" data-name="Trazado 1180596" d="M213.129,334.923a11.7,11.7,0,0,1,0-23.4H316.542v23.395H213.129Z" transform="translate(-114.491 -308.001)" fill="#faeee8"/>
          </g>
          <path id="Trazado_1180597" data-name="Trazado 1180597" d="M82.219,332.961H79.542a2.586,2.586,0,0,1-2.587-2.587v-7.223a2.586,2.586,0,0,1,2.587-2.587h2.678a2.587,2.587,0,0,1,2.587,2.587v7.223A2.587,2.587,0,0,1,82.219,332.961Z" transform="translate(-52.592 -281.32)" fill="#3a407d"/>
          <path id="Trazado_1180598" data-name="Trazado 1180598" d="M102.745,332.961h-2.678a2.587,2.587,0,0,1-2.587-2.587v-7.223a2.587,2.587,0,0,1,2.587-2.587h2.678a2.587,2.587,0,0,1,2.587,2.587v7.223A2.586,2.586,0,0,1,102.745,332.961Z" transform="translate(-61.049 -281.32)" fill="#3a407d"/>
          <g id="Grupo_1230014" data-name="Grupo 1230014" transform="translate(0 41.413)">
            <path id="Trazado_1180599" data-name="Trazado 1180599" d="M213.572,392.782H53.207A17.686,17.686,0,0,1,35.521,375.1h0A17.686,17.686,0,0,1,53.207,357.41H213.573v35.372Z" transform="translate(-35.521 -337.913)" fill="#e16f61"/>
            <path id="Trazado_1180600" data-name="Trazado 1180600" d="M56.221,391.494a13.384,13.384,0,0,1,0-26.768H216.573v26.768Z" transform="translate(-38.536 -340.927)" fill="#faeee8"/>
            <line id="Línea_655" data-name="Línea 655" x1="122.412" transform="translate(54.698 31.406)" fill="none" stroke="#faceb9" stroke-miterlimit="10" stroke-width="1"/>
            <line id="Línea_656" data-name="Línea 656" x1="122.412" transform="translate(108.039)" fill="none" stroke="#faceb9" stroke-miterlimit="10" stroke-width="1"/>
            <line id="Línea_657" data-name="Línea 657" x1="122.412" transform="translate(108.039 7.976)" fill="none" stroke="#faceb9" stroke-miterlimit="10" stroke-width="1"/>
            <line id="Línea_658" data-name="Línea 658" x1="158.757" transform="translate(18.774 38.8)" fill="none" stroke="#faceb9" stroke-miterlimit="10" stroke-width="1"/>
            <line id="Línea_659" data-name="Línea 659" x1="48.504" transform="translate(128.606 42.847)" fill="none" stroke="#faceb9" stroke-miterlimit="10" stroke-width="1"/>
          </g>
        </g>
        <g id="Grupo_1230016" data-name="Grupo 1230016" transform="translate(108.522 0.001)">
          <path id="Trazado_1180601" data-name="Trazado 1180601" d="M350.506,115.236l-7.315,9.343c-9.232,11.8-14.362,27.276-14.362,43.345v128.03c0,16.913-5.676,33.147-15.788,45.108l-7.176,8.489h-121.3l7.177-8.489c10.121-11.962,15.8-28.2,15.8-45.108V167.924c0-16.069,5.13-31.547,14.362-43.345l7.306-9.343Z" transform="translate(-184.564 -115.236)" fill="#fff"/>
          <path id="Trazado_1180602" data-name="Trazado 1180602" d="M260.182,148.909c.7,12.553,22.452,16.289,26.492,2.907,3.847-12.742-11.645,3.441,7.72,11.421,22.944,9.455,34.016-21.5,28.122-21.281-5.355.2-4.2,18.094,21.557,14.219" transform="translate(-215.719 -121.273)" fill="none" stroke="#faded1" stroke-miterlimit="10" stroke-width="1"/>
          <path id="Trazado_1180603" data-name="Trazado 1180603" d="M260.976,203.9c6.533,9.374,20.007.325,19.2-15.017-.709-13.439-8.86,13.221,3.776,18.249,4.184,1.665,8.787.337,12.056-3.482a11.609,11.609,0,0,0,2.888-9.213c-1.122-9.105-10.813,26.457,24.222,14.357" transform="translate(-216.046 -131.03)" fill="none" stroke="#faded1" stroke-miterlimit="10" stroke-width="1"/>
          <path id="Trazado_1180604" data-name="Trazado 1180604" d="M260.6,271.362s15.708-9.137,14.5-17.514-10.651,11.486,2.563,13.284,14.669-13.3,11.786-12.332-2.09,21.289,14.612,15.161,18.8-19.727,16.836-17.672,10.579,22.49,19.6,8.372" transform="translate(-215.89 -146.094)" fill="none" stroke="#faded1" stroke-miterlimit="10" stroke-width="1"/>
          <path id="Trazado_1180605" data-name="Trazado 1180605" d="M260.629,326.908s9.8-11.037,6.982-15.847-7.085,13.162,3.664,11.674,12.65-12.766,10.275-13.761-3.436,24.453,18.917,13.344,8.754-22.887,6.3-18.492,6.558,26.09,18.937,21.417,7.924-21.678,4.315-16.822-1.589,19.331,9.436,17.439" transform="translate(-215.903 -157.637)" fill="none" stroke="#faded1" stroke-miterlimit="10" stroke-width="1"/>
        </g>
        <g id="Grupo_1230017" data-name="Grupo 1230017" transform="translate(38.082 11.205)">
          <path id="Trazado_1180606" data-name="Trazado 1180606" d="M392.9,47.477a3.632,3.632,0,0,0-2.117,2.117.328.328,0,0,1-.6,0,3.632,3.632,0,0,0-2.117-2.117.328.328,0,0,1,0-.6,3.632,3.632,0,0,0,2.117-2.117.328.328,0,0,1,.6,0,3.632,3.632,0,0,0,2.117,2.117A.328.328,0,0,1,392.9,47.477Z" transform="translate(-197.892 -41.011)" fill="#fff"/>
          <path id="Trazado_1180607" data-name="Trazado 1180607" d="M462.5,176.918a3.632,3.632,0,0,0-2.117,2.117.328.328,0,0,1-.6,0,3.632,3.632,0,0,0-2.117-2.117.328.328,0,0,1,0-.6,3.632,3.632,0,0,0,2.117-2.117.328.328,0,0,1,.6,0,3.632,3.632,0,0,0,2.117,2.117A.328.328,0,0,1,462.5,176.918Z" transform="translate(-226.566 -94.341)" fill="#fff"/>
          <path id="Trazado_1180608" data-name="Trazado 1180608" d="M69.944,177.251a3.7,3.7,0,0,0-2.242,2.242.282.282,0,0,1-.519,0,3.7,3.7,0,0,0-2.242-2.242.282.282,0,0,1,0-.519,3.7,3.7,0,0,0,2.242-2.242.282.282,0,0,1,.519,0,3.7,3.7,0,0,0,2.242,2.242A.282.282,0,0,1,69.944,177.251Z" transform="translate(-64.768 -94.465)" fill="#fff"/>
          <path id="Trazado_1180609" data-name="Trazado 1180609" d="M167.61,41.448a3.7,3.7,0,0,0-2.242,2.242.282.282,0,0,1-.519,0,3.7,3.7,0,0,0-2.242-2.242.282.282,0,0,1,0-.519,3.7,3.7,0,0,0,2.242-2.242.282.282,0,0,1,.519,0,3.7,3.7,0,0,0,2.242,2.242A.282.282,0,0,1,167.61,41.448Z" transform="translate(-105.007 -38.514)" fill="#fff"/>
          <path id="Trazado_1180610" data-name="Trazado 1180610" d="M183.275,58.108a.916.916,0,1,1-.916-.916A.915.915,0,0,1,183.275,58.108Z" transform="translate(-112.839 -46.21)" fill="#fff"/>
        </g>
        <g id="Grupo_1230021" data-name="Grupo 1230021" transform="translate(125.837)">
          <g id="Grupo_1230018" data-name="Grupo 1230018" transform="translate(33.76 101.16)">
            <text id="K" transform="matrix(0.955, -0.298, 0.298, 0.955, 6.845, 25.808)" fill="#e16f61" font-size="21" font-family="SegoeUI, Segoe UI"><tspan x="0" y="0">K</tspan></text>
          </g>
          <text id="B" transform="translate(35.061 90.97) rotate(-27.613)" fill="#8c8da3" font-size="13" font-family="SegoeUI, Segoe UI"><tspan x="0" y="0">B</tspan></text>
          <g id="Grupo_1230019" data-name="Grupo 1230019" transform="translate(0.602 55.603)">
            <text id="A" transform="matrix(0.942, 0.336, -0.336, 0.942, 2.03, 19.782)" fill="#e16f61" font-size="19" font-family="SegoeUI, Segoe UI"><tspan x="0" y="0">A</tspan></text>
          </g>
          <text id="B-2" data-name="B" transform="matrix(1, 0.018, -0.018, 1, 70.4, 21.996)" fill="#2b305d" font-size="20" font-family="SegoeUI, Segoe UI"><tspan x="0" y="0">B</tspan></text>
          <text id="R" transform="translate(72.583 56.603) rotate(-27.613)" fill="#e16f61" font-size="12" font-family="SegoeUI, Segoe UI"><tspan x="0" y="0">R</tspan></text>
          <text id="C" transform="translate(40.448 62.858) rotate(-27.613)" fill="#2b305d" font-size="15" font-family="SegoeUI, Segoe UI"><tspan x="0" y="0">C</tspan></text>
          <text id="P" transform="translate(32.52 35.46) rotate(-27.613)" fill="#2b305d" font-size="13" font-family="SegoeUI, Segoe UI"><tspan x="0" y="0">P</tspan></text>
          <g id="Grupo_1230020" data-name="Grupo 1230020" transform="translate(89.389 33.211)">
            <text id="Z" transform="translate(3.708 9.269) rotate(-27.613)" fill="#e16f61" font-size="7" font-family="SegoeUI, Segoe UI"><tspan x="0" y="0">Z</tspan></text>
          </g>
          <text id="D" transform="matrix(0.999, -0.045, 0.045, 0.999, 0.582, 45.239)" fill="#4e57a8" font-size="12" font-family="SegoeUI, Segoe UI"><tspan x="0" y="0">D</tspan></text>
          <text id="O" transform="translate(58.408 37.358) rotate(-27.613)" fill="#5862bd" font-size="12" font-family="SegoeUI, Segoe UI"><tspan x="0" y="0">O</tspan></text>
          <text id="L" transform="translate(70.156 76.873) rotate(-27.613)" fill="#4e57a8" font-size="9" font-family="SegoeUI, Segoe UI"><tspan x="0" y="0">L</tspan></text>
          <text id="Y" transform="translate(55.403 98.235) rotate(-27.613)" fill="#2b305d" font-size="12" font-family="SegoeUI, Segoe UI"><tspan x="0" y="0">Y</tspan></text>
        </g>
        <g id="Grupo_1230024" data-name="Grupo 1230024" transform="translate(212.395 169.299)">
          <g id="Grupo_1230023" data-name="Grupo 1230023">
            <g id="Grupo_1230022" data-name="Grupo 1230022" transform="translate(1.576 33.118)">
              <path id="Trazado_1180611" data-name="Trazado 1180611" d="M408.542,366.356v25.458a22.323,22.323,0,0,1-27.985,22.022A22.32,22.32,0,0,1,363.9,392.248V366.356a2.648,2.648,0,0,1,2.651-2.651h39.34A2.649,2.649,0,0,1,408.542,366.356Z" transform="translate(-363.899 -363.705)" fill="#e16758"/>
              <circle id="Elipse_12852" data-name="Elipse 12852" cx="11.243" cy="11.243" r="11.243" transform="translate(33.982 12.03)" fill="none" stroke="#e16758" stroke-miterlimit="10" stroke-width="6"/>
              <path id="Trazado_1180612" data-name="Trazado 1180612" d="M397.2,363.706v28.543a22.322,22.322,0,0,1-16.644,21.588A22.32,22.32,0,0,1,363.9,392.248V366.356a2.648,2.648,0,0,1,2.651-2.651H397.2Z" transform="translate(-363.899 -363.705)" fill="#e16f61"/>
            </g>
            <line id="Línea_660" data-name="Línea 660" x2="50.762" transform="translate(0 84.835)" fill="none" stroke="#e16758" stroke-linecap="round" stroke-miterlimit="10" stroke-width="6"/>
            <path id="Trazado_1180613" data-name="Trazado 1180613" d="M393.115,334.5a7,7,0,0,1-.205-8.834c3.493-4.725,4.314-13.148,1.643-18.284" transform="translate(-373.657 -307.382)" fill="none" stroke="#2b305d" stroke-miterlimit="10" stroke-width="1"/>
            <path id="Trazado_1180614" data-name="Trazado 1180614" d="M402.809,334.5a7,7,0,0,1-.205-8.834c3.493-4.725,4.314-13.148,1.643-18.284" transform="translate(-377.651 -307.382)" fill="none" stroke="#2b305d" stroke-miterlimit="10" stroke-width="1"/>
          </g>
          <circle id="Elipse_12853" data-name="Elipse 12853" cx="7.543" cy="7.543" r="7.543" transform="translate(14.963 62.567) rotate(-76.714)" fill="none" stroke="#fff" stroke-miterlimit="10" stroke-width="1"/>
        </g>
        <g id="Grupo_1230027" data-name="Grupo 1230027" transform="translate(139.166 210.232)">
          <g id="Grupo_1230025" data-name="Grupo 1230025">
            <path id="Trazado_1180615" data-name="Trazado 1180615" d="M266.023,405.022s-.223,14.435-8.885,11.548-24.426-19.1-19.539-23.538c4.8-4.363,15.617,8.014,15.982,8.426-.135-.265-2.781-5.51-4.869-11.072,1.382.365,3.222.682,3.746.006.582-.753-2.658-2.334-4.892-3.3-1.793-5.639-2.364-10.649,1.582-10.043C257.808,378.374,266.023,405.022,266.023,405.022Z" transform="translate(-236.679 -376.995)" fill="#fab696"/>
            <path id="Trazado_1180616" data-name="Trazado 1180616" d="M246.87,403.319s15.958,16.089,20.837,16.749-11.738-30.86-11.738-30.86" transform="translate(-240.878 -382.027)" fill="none" stroke="#faded1" stroke-miterlimit="10" stroke-width="1"/>
          </g>
          <g id="Grupo_1230026" data-name="Grupo 1230026" transform="translate(49.541 5.701)">
            <path id="Trazado_1180617" data-name="Trazado 1180617" d="M338.99,411.11c-.382.529.664,1.053,1.835,1.458-3.24,3.116-5.78,5.227-5.78,5.227s-13.4,5.357-14.077-3.751c-.376-5.127,2.276-13.971,5.739-20.21.67,1.341,1.441,2.534,1.923,2.176.594-.447.212-2.987-.194-4.963,2.246-3.216,4.657-5.069,6.727-4.1,5.98,2.793-1.629,18-1.629,18s18.728-22.015,20.833-13.506c1.258,5.074-5.868,13.477-11.813,19.428C341.225,410.634,339.467,410.457,338.99,411.11Z" transform="translate(-320.932 -386.691)" fill="#fab696"/>
            <path id="Trazado_1180618" data-name="Trazado 1180618" d="M334.915,398.529s-8.7,20.923-7.431,25.681,23.958-22.718,23.958-22.718" transform="translate(-323.579 -391.568)" fill="none" stroke="#faded1" stroke-miterlimit="10" stroke-width="1"/>
          </g>
        </g>
        <g id="Grupo_1230037" data-name="Grupo 1230037" transform="translate(154.964 75.113)">
          <g id="Grupo_1230035" data-name="Grupo 1230035" transform="translate(23.578)">
            <g id="Grupo_1230028" data-name="Grupo 1230028" transform="translate(4.294)">
              <path id="Trazado_1180619" data-name="Trazado 1180619" d="M367.163,174.928c0,8.765-5.9,24.505-12.722,39.748-.107.227-.208.46-.309.693-2.716,6.043-5.564,11.985-8.23,17.366-.12.239-.233.473-.353.706-4.411,8.878-8.28,16.137-10.158,19.622a7.448,7.448,0,0,1-3.5,3.258l-17.366,7.807-3.447-18.551a7.424,7.424,0,0,1,.473-4.291l4.619-10.813.372-.87L337.5,180.528v-.006l.372-.863L351.725,147.2s14.19,6.452,15.356,25.23c.019.208.032.422.038.636C367.15,173.674,367.163,174.3,367.163,174.928Z" transform="translate(-310.949 -147.201)" fill="#faeee8"/>
            </g>
            <path id="Trazado_1180620" data-name="Trazado 1180620" d="M317.023,269.057s27.378-67.632,45.606-109.888" transform="translate(-309.157 -152.132)" fill="none" stroke="#db9f84" stroke-miterlimit="10" stroke-width="1"/>
            <g id="Grupo_1230029" data-name="Grupo 1230029" transform="translate(30.842 32.459)">
              <path id="Trazado_1180621" data-name="Trazado 1180621" d="M361.561,217.324l-.6.2L356.1,203.273v-.006l.372-.863Z" transform="translate(-356.098 -202.403)" fill="#db9f84"/>
            </g>
            <g id="Grupo_1230030" data-name="Grupo 1230030" transform="translate(9.512 82.402)">
              <path id="Trazado_1180622" data-name="Trazado 1180622" d="M325.62,303.226l-.6.2-5.2-15.217.372-.87Z" transform="translate(-319.823 -287.341)" fill="#db9f84"/>
            </g>
            <g id="Grupo_1230031" data-name="Grupo 1230031" transform="translate(26.248 67.475)">
              <path id="Trazado_1180623" data-name="Trazado 1180623" d="M369.823,261.954c-.107.227-.208.46-.309.693L348.4,266.359l-.113-.624Z" transform="translate(-348.286 -261.954)" fill="#db9f84"/>
            </g>
            <g id="Grupo_1230032" data-name="Grupo 1230032" transform="translate(19.128 85.534)">
              <path id="Trazado_1180624" data-name="Trazado 1180624" d="M356.3,292.667c-.12.239-.233.473-.353.706l-19.66,3.529-.107-.624Z" transform="translate(-336.177 -292.667)" fill="#db9f84"/>
            </g>
            <g id="Grupo_1230033" data-name="Grupo 1230033" transform="translate(0 113.823)">
              <path id="Trazado_1180625" data-name="Trazado 1180625" d="M314.144,342.338l-3.864-1.561L308.573,345a2.19,2.19,0,0,1-2.851,1.21h0l-2.076,13.219,2.054.853,7.959-10.866-.013-.005a2.19,2.19,0,0,1-1.21-2.851Z" transform="translate(-303.646 -340.777)" fill="#db9f84"/>
              <line id="Línea_661" data-name="Línea 661" x1="2.477" y2="6.13" transform="translate(1.033 12.975)" fill="none" stroke="#2b305d" stroke-miterlimit="10" stroke-width="1"/>
            </g>
            <g id="Grupo_1230034" data-name="Grupo 1230034" transform="translate(44.276 25.232)">
              <path id="Trazado_1180626" data-name="Trazado 1180626" d="M395.133,190.748l-16.074,2.823-.113-.617,16.15-2.842C395.114,190.32,395.127,190.534,395.133,190.748Z" transform="translate(-378.945 -190.112)" fill="#db9f84"/>
            </g>
          </g>
          <g id="Grupo_1230036" data-name="Grupo 1230036" transform="translate(0 134.18)">
            <path id="Trazado_1180627" data-name="Trazado 1180627" d="M284.653,383.106a3.628,3.628,0,0,1,6.283,0l10.307,17.852,10.307,17.852a3.628,3.628,0,0,1-3.142,5.441H267.18a3.628,3.628,0,0,1-3.142-5.441l10.307-17.852Z" transform="translate(-263.548 -377.827)" fill="#2b305d"/>
            <rect id="Rectángulo_422879" data-name="Rectángulo 422879" width="17.222" height="16.189" transform="translate(15.719 1.326)" fill="#2b305d"/>
            <path id="Trazado_1180628" data-name="Trazado 1180628" d="M306.335,379.1H288.779a1.848,1.848,0,0,1-1.848-1.848h0a1.848,1.848,0,0,1,1.848-1.848h17.556a1.848,1.848,0,0,1,1.848,1.848h0A1.848,1.848,0,0,1,306.335,379.1Z" transform="translate(-273.182 -375.399)" fill="#3a407d"/>
            <path id="Trazado_1180629" data-name="Trazado 1180629" d="M306.179,389.736h-15.5a1.632,1.632,0,0,1-1.632-1.632h0a1.632,1.632,0,0,1,1.632-1.632h15.5a1.632,1.632,0,0,1,1.632,1.632h0A1.631,1.631,0,0,1,306.179,389.736Z" transform="translate(-274.052 -379.961)" fill="#3a407d"/>
            <path id="Trazado_1180630" data-name="Trazado 1180630" d="M306.485,432.186H284.771c-1.468,0-2.388-3.025-1.651-5.444l5.425-17.851,2.54-8.343h9.093l2.533,8.343,5.425,17.851C308.873,429.162,307.953,432.186,306.485,432.186Z" transform="translate(-271.504 -385.76)" fill="#3a407d"/>
          </g>
        </g>
        <g id="Grupo_1230070" data-name="Grupo 1230070" transform="translate(10.599 -20.782)">
          <g id="Grupo_1230039" data-name="Grupo 1230039" transform="translate(1.656 236.438)">
            <g id="Grupo_1230038" data-name="Grupo 1230038">
              <path id="Trazado_1180631" data-name="Trazado 1180631" d="M59.832,407.1l-3.484,2.644c-1.307.875-1.334,2.534-.517,3.879,4.033,6.639,15.194,22.828,18.357,19.525.932-.974-6.49-17.415-6.49-17.415Z" transform="translate(-55.28 -407.097)" fill="#2b305d"/>
            </g>
          </g>
          <g id="Grupo_1230042" data-name="Grupo 1230042" transform="translate(81.738 237.62)">
            <g id="Grupo_1230040" data-name="Grupo 1230040" transform="translate(1.127)">
              <path id="Trazado_1180632" data-name="Trazado 1180632" d="M148.273,410.782l-.323,12.86a14.774,14.774,0,0,0,11.666-.671l3.8-14.526S148.33,410.615,148.273,410.782Z" transform="translate(-147.95 -408.445)" fill="#e16f61"/>
            </g>
            <g id="Grupo_1230041" data-name="Grupo 1230041" transform="translate(0 28.287)">
              <path id="Trazado_1180633" data-name="Trazado 1180633" d="M147.161,440.724l-.461,4.35a2.6,2.6,0,0,0,2.471,3.034c7.467.271,26.51.875,26.8,0,.361-1.088-17.133-7.2-17.133-7.2l-4.068.292a19.053,19.053,0,0,1-3.248-.044Z" transform="translate(-146.664 -440.724)" fill="#2b305d"/>
            </g>
          </g>
          <g id="Grupo_1230043" data-name="Grupo 1230043" transform="translate(6.27 81.528)">
            <path id="Trazado_1180634" data-name="Trazado 1180634" d="M135.246,251.292s5.225,44.472-3,67.161c-1.4,3.868-6.691,10.22-9.471,14.6-6.655,10.49-37.113,47.982-53.884,60.919,0,0-9.546-3.207-8.22-9.269,1.224-5.6,18.139-54.076,43.218-69.716,0,0-6.133-53.288,10.62-76.791S135.246,251.292,135.246,251.292Z" transform="translate(-60.545 -230.323)" fill="#ed9085"/>
          </g>
          <g id="Grupo_1230044" data-name="Grupo 1230044" transform="translate(72.882 94.755)">
            <path id="Trazado_1180635" data-name="Trazado 1180635" d="M136.558,267.754l22.075,58.815s-22.244,43.6-12.9,90.076c0,0,4.333,3.672,11.815.577,3.756-1.554,19.55-60.824,18.466-93.2s-17.877-78.6-17.877-78.6Z" transform="translate(-136.558 -245.417)" fill="#ed9085"/>
          </g>
          <g id="Grupo_1230052" data-name="Grupo 1230052" transform="translate(25.511 99.069)">
            <g id="Grupo_1230046" data-name="Grupo 1230046">
              <g id="Grupo_1230045" data-name="Grupo 1230045">
                <path id="Trazado_1180636" data-name="Trazado 1180636" d="M170.87,360.222q-2.248.487-4.452.868h-.009a102.537,102.537,0,0,1-10.6,1.262l-.885.053q-3.654.2-7.151.131c-.3,0-.587-.009-.876-.017-2.594-.053-5.126-.219-7.6-.464-.377-.035-.754-.079-1.13-.123-.3-.026-.587-.061-.885-.1a98.184,98.184,0,0,1-12.672-2.375c-.333-.079-.675-.158-1-.254a107.133,107.133,0,0,1-38.33-18.946c-1.823-1.437-2.778-2.331-2.778-2.331,2.48-5.924,7.755-12.111,12.505-16.913.2-.193.394-.386.578-.57a114.307,114.307,0,0,1,8.807-7.931,137.418,137.418,0,0,1-2.664-17.693v-.009c-.026-.315-.053-.631-.07-.938a94.5,94.5,0,0,1,.824-22.618c.044-.289.1-.561.149-.841v-.009a62.063,62.063,0,0,1,3.339-12.041,31.975,31.975,0,0,1,4.294-8.027l1.814.088,25.6,1.253,7.939.386,8.045.394,4.7.228s.815,2.76,2.3,7.729c.806,2.682,1.805,5.994,2.971,9.876.088.289.184.587.272.894,2.375,7.878,5.433,17.929,8.982,29.479.088.3.175.6.272.894.28.9.561,1.823.841,2.743a79.486,79.486,0,0,1,3.461,21.277c.009.315.018.631.018.946A80.487,80.487,0,0,1,170.87,360.222Z" transform="translate(-82.502 -250.34)" fill="#5862bd"/>
              </g>
            </g>
            <g id="Grupo_1230047" data-name="Grupo 1230047" transform="translate(19.156 20.076)">
              <path id="Trazado_1180637" data-name="Trazado 1180637" d="M128.426,296.858c-1.98,2.83-5.354,3.829-9.193,3.829a41.641,41.641,0,0,1-11.015-1.867c-1.314-.368-2.585-.771-3.786-1.165v-.009c-.026-.315-.053-.631-.07-.938,1.218.4,2.515.815,3.856,1.2,7.344,2.129,15.967,3.479,19.489-1.56a5.857,5.857,0,0,0,.263-6.222c-2.5-5.293-10.463-10.665-17.483-13.916a.886.886,0,0,0-.131-.061c-.289-.14-.587-.272-.868-.394a45.383,45.383,0,0,0-4.3-1.665c.044-.289.1-.561.149-.841a45.561,45.561,0,0,1,4.259,1.63c.324.149.666.3,1,.456.517.237,1.034.482,1.56.745,6.844,3.383,14.2,8.562,16.615,13.671A6.7,6.7,0,0,1,128.426,296.858Z" transform="translate(-104.362 -273.25)" fill="#4e57a8"/>
            </g>
            <g id="Grupo_1230048" data-name="Grupo 1230048" transform="translate(12.505 70.105)">
              <path id="Trazado_1180638" data-name="Trazado 1180638" d="M126.374,369.354c-.333-.079-.675-.158-1-.254a57.981,57.981,0,0,0-5.459-13.259,71.879,71.879,0,0,0-11.4-15.046,80.368,80.368,0,0,0-8.167-7.265c-1.262-.99-2.462-1.858-3.575-2.62.2-.193.394-.386.578-.57,1.122.762,2.331,1.647,3.6,2.646a77.222,77.222,0,0,1,19.533,22.083A58.333,58.333,0,0,1,126.374,369.354Z" transform="translate(-96.772 -330.34)" fill="#4e57a8"/>
            </g>
            <g id="Grupo_1230049" data-name="Grupo 1230049" transform="translate(72.419 75.241)">
              <path id="Trazado_1180639" data-name="Trazado 1180639" d="M187.7,337.146a31.261,31.261,0,0,0-8.115,5c-10.139,8.649-12.891,22.276-13.557,30.82l-.885.053c.684-8.851,3.558-23.2,14.468-32.038a31.961,31.961,0,0,1,8.071-4.785C187.69,336.516,187.7,336.831,187.7,337.146Z" transform="translate(-165.142 -336.2)" fill="#4e57a8"/>
            </g>
            <g id="Grupo_1230050" data-name="Grupo 1230050" transform="translate(55.634 19.954)">
              <path id="Trazado_1180640" data-name="Trazado 1180640" d="M181.009,304.377a55.557,55.557,0,0,0-5.652,5.214,52.362,52.362,0,0,0-9.447,13.855c-1.525,3.286-3.689,5.538-6.108,6.546V330l-.009.009a7.694,7.694,0,0,1-2.988.613,7.977,7.977,0,0,1-3-.6c-6.73-2.708-10.7-13.688-5.293-29.453.035-.114.079-.228.123-.333v-.026a53.452,53.452,0,0,1,3-6.949,46.992,46.992,0,0,1,16.028-17.9c.315-.21.622-.4.929-.6.99-.613,1.963-1.165,2.892-1.656.088.289.184.587.272.894a44.108,44.108,0,0,0-3.838,2.287A46.044,46.044,0,0,0,151.845,294.8a52.552,52.552,0,0,0-2.5,6.055c-.07.219-.149.429-.219.649,0,.009-.009.026-.009.035-4.89,14.88-1.236,25.159,5.012,27.674a6.86,6.86,0,0,0,5.363-.044,11.627,11.627,0,0,0,5.617-6.09A53.129,53.129,0,0,1,175.182,308.5a55,55,0,0,1,5.556-5.021C180.825,303.781,180.913,304.079,181.009,304.377Z" transform="translate(-145.988 -273.11)" fill="#4e57a8"/>
            </g>
            <path id="Trazado_1180641" data-name="Trazado 1180641" d="M126.939,328.04c2.161,2.88,2.179,6.515.041,8.118s-5.622.57-7.783-2.309-2.179-6.515-.041-8.118S124.778,325.161,126.939,328.04Z" transform="translate(-86.838 -259.571)" fill="none" stroke="#4e57a8" stroke-miterlimit="10" stroke-width="1"/>
            <g id="Grupo_1230051" data-name="Grupo 1230051" transform="translate(54.756 104.166)">
              <path id="Trazado_1180642" data-name="Trazado 1180642" d="M155.543,375.975c-.14-3.838-2.629-6.853-5.53-6.765a.936.936,0,0,0-.219.026c-2.8.237-4.942,3.374-4.8,7.116a1.305,1.305,0,0,0,.018.184c.245.026.482.061.727.079.053.009.105.009.158.018v-.018a1.71,1.71,0,0,1-.026-.3c-.114-3.111,1.5-5.749,3.681-6.169a3.242,3.242,0,0,1,.5-.061c.035,0,.079-.009.114-.009a3.948,3.948,0,0,1,3.093,1.726,7.424,7.424,0,0,1,1.411,4.2c.009.21.009.412,0,.613a4.678,4.678,0,0,1-.044.6c.289.009.578.017.876.017a4.835,4.835,0,0,0,.044-.622c.009-.1.009-.193.009-.3S155.543,376.089,155.543,375.975Z" transform="translate(-144.986 -369.208)" fill="#4e57a8"/>
            </g>
            <path id="Trazado_1180643" data-name="Trazado 1180643" d="M150.124,266.5c.13,3.6-1.931,6.593-4.6,6.689s-4.942-2.742-5.071-6.34,1.931-6.593,4.6-6.688S149.994,262.9,150.124,266.5Z" transform="translate(-89.669 -251.554)" fill="none" stroke="#4e57a8" stroke-miterlimit="10" stroke-width="1"/>
          </g>
          <g id="Grupo_1230069" data-name="Grupo 1230069">
            <g id="Grupo_1230053" data-name="Grupo 1230053" transform="translate(48.434 43.584)">
              <path id="Trazado_1180644" data-name="Trazado 1180644" d="M167.645,251.013s-26.044,13.11-54.963.894l-4.022-1.586s1.052-9.044,2.41-19.069c.736-5.372,1.56-11.024,2.357-15.712.675-3.882,1.043-7.615,1.595-11.112,1.034-6.607,2.69-12.4,8.08-16.913.447-.149.894-.28,1.35-.4a2.96,2.96,0,0,1,.3-.088.372.372,0,0,0,.1.018c4.04.885,16.475,3.111,28.384.386.131.044.263.1.4.149.955.333,1.937.727,2.936,1.157,1.262.561,2.559,1.2,3.865,1.928,1.472,7.133,2.173,15.87,2.366,17.561l.482,4.276,1.017,8.965,1.4,12.426.149,1.323Z" transform="translate(-108.66 -187.024)" fill="#e16f61"/>
            </g>
            <g id="Grupo_1230054" data-name="Grupo 1230054" transform="translate(0 43.567)">
              <path id="Trazado_1180645" data-name="Trazado 1180645" d="M109.22,220.69s-1.875,4.355-4.986,10.56c-6.362,12.733-14.295,29.789-25.52,36.414-16.685,9.867-24.491-2.6-25.254-6.391-.254-1.262.21-3.6.938-6.152a54.32,54.32,0,0,1,8.754-17.491c4.864-6.511,12.5-16.676,18.438-24.283-.044.324,15.441-19.743,34.676-25.834.447-.149.894-.28,1.35-.4a2.953,2.953,0,0,1,.3-.088c.009-.009.026-.009.044-.018a.182.182,0,0,1,.053.035,1.623,1.623,0,0,1,.324.324C121.892,192.1,109.22,220.69,109.22,220.69Z" transform="translate(-53.39 -187.004)" fill="#e16f61"/>
            </g>
            <g id="Grupo_1230055" data-name="Grupo 1230055" transform="translate(62.571 3.446)">
              <path id="Trazado_1180646" data-name="Trazado 1180646" d="M148.872,146.145s-1.122-8.29-15.853-3.357-8.361,25.759,8.687,28.735l7.167-25.378Z" transform="translate(-124.793 -141.221)" fill="#2b305d"/>
            </g>
            <g id="Grupo_1230056" data-name="Grupo 1230056" transform="translate(72.307 22.094)">
              <path id="Trazado_1180647" data-name="Trazado 1180647" d="M146.225,185.337c-4.741.885-10.323-2.524-10.323-2.524l1.192-20.313,8.684,5,1.209,7.326.815,4.942.5,3.058C148.775,185.293,148.915,184.837,146.225,185.337Z" transform="translate(-135.902 -162.5)" fill="#ed9085"/>
            </g>
            <g id="Grupo_1230057" data-name="Grupo 1230057" transform="translate(69.975 4.033)">
              <path id="Trazado_1180648" data-name="Trazado 1180648" d="M133.245,149.416s-.516,16.9,9.485,21.745,14.912-4.134,10.808-18.537S133.671,139.511,133.245,149.416Z" transform="translate(-133.241 -141.89)" fill="#ed9085"/>
            </g>
            <g id="Grupo_1230058" data-name="Grupo 1230058" transform="translate(68.088 19.47)">
              <path id="Trazado_1180649" data-name="Trazado 1180649" d="M136.143,160.351s-4.7-2.879-5.045,1.99,7.846,4.27,8.852,3.472S136.143,160.351,136.143,160.351Z" transform="translate(-131.087 -159.506)" fill="#ed9085"/>
            </g>
            <g id="Grupo_1230059" data-name="Grupo 1230059" transform="translate(68.088 3.11)">
              <path id="Trazado_1180650" data-name="Trazado 1180650" d="M133.323,156.881l1.682,1.371s4.126-12.4,16.53-10.575l.393-.429a3.86,3.86,0,0,0-.158-5.4c-2.108-2.009-3-.354-8.915-.6C132.235,140.792,128.139,151.351,133.323,156.881Z" transform="translate(-131.087 -140.837)" fill="#2b305d"/>
            </g>
            <g id="Grupo_1230060" data-name="Grupo 1230060" transform="translate(75.951 30.056)">
              <path id="Trazado_1180651" data-name="Trazado 1180651" d="M148.317,180.9c-5.205-.438-8.257-9.31-8.257-9.31,3.559,3.263,6.653,4.263,7.442,4.368Z" transform="translate(-140.06 -171.586)" fill="#2b305d"/>
            </g>
            <g id="Grupo_1230061" data-name="Grupo 1230061" transform="translate(79.194 17.622)">
              <path id="Trazado_1180652" data-name="Trazado 1180652" d="M145.365,158.39c.255.683.132,1.359-.273,1.511s-.942-.28-1.2-.962-.132-1.359.273-1.511S145.11,157.707,145.365,158.39Z" transform="translate(-143.761 -157.397)" fill="#2b305d"/>
            </g>
            <g id="Grupo_1230062" data-name="Grupo 1230062" transform="translate(86.456 15.16)">
              <path id="Trazado_1180653" data-name="Trazado 1180653" d="M153.652,155.581c.255.683.132,1.359-.273,1.511s-.942-.28-1.2-.962-.132-1.359.273-1.511S153.4,154.9,153.652,155.581Z" transform="translate(-152.048 -154.588)" fill="#2b305d"/>
            </g>
            <g id="Grupo_1230063" data-name="Grupo 1230063" transform="translate(83.527 24.42)">
              <path id="Trazado_1180654" data-name="Trazado 1180654" d="M148.706,166.956s3.536,1.856,5.028-1.8Z" transform="translate(-148.706 -165.155)" fill="#fff"/>
            </g>
            <g id="Grupo_1230064" data-name="Grupo 1230064" transform="translate(49.457)">
              <circle id="Elipse_12854" data-name="Elipse 12854" cx="8.104" cy="8.104" r="8.104" transform="translate(0 11.461) rotate(-45)" fill="#2b305d"/>
            </g>
            <g id="Grupo_1230065" data-name="Grupo 1230065" transform="translate(94.688 45.293)">
              <path id="Trazado_1180655" data-name="Trazado 1180655" d="M222.292,225.665c-5.766,10.332-33.4,20.664-43.246,16.1-2.129-.99-4.513-3.777-6.818-7.633-7.37-12.3-13.969-35.438-9.131-45.157,1.262.561,2.559,1.2,3.865,1.928,7.089,3.926,14.687,10.5,21.7,21.312,0,0,17.3-15.616,27.867-12.978S228.058,215.334,222.292,225.665Z" transform="translate(-161.442 -188.974)" fill="#e16f61"/>
            </g>
            <g id="Grupo_1230066" data-name="Grupo 1230066" transform="translate(64.225 41.656)">
              <path id="Trazado_1180656" data-name="Trazado 1180656" d="M155.861,187.3c-6.345,1.831-17.325,3.742-28.463-.21-.237-.079-.482-.167-.719-.254a2.975,2.975,0,0,1,.3-.088c.009-.009.026-.009.044-.018a33.51,33.51,0,0,1,7.738-1.157s8.947-2.489,20.7,1.577C155.59,187.2,155.721,187.251,155.861,187.3Z" transform="translate(-126.68 -184.824)" fill="#ed9085"/>
            </g>
            <g id="Grupo_1230067" data-name="Grupo 1230067" transform="translate(154.137 48.8)">
              <path id="Trazado_1180657" data-name="Trazado 1180657" d="M229.474,202.344s-1.614,4.5,4.5,6.688c0,0,8.879-4.035,11.3-8.187,0,0,0-6.458-.807-7.611s-2.653,1.845-4.267,3.46a15.018,15.018,0,0,1-3.459,2.537s2.306-4.382,1.73-5.074-1.845,2.191-3.344,3.344S229.474,202.344,229.474,202.344Z" transform="translate(-229.281 -192.976)" fill="#ed9085"/>
            </g>
            <g id="Grupo_1230068" data-name="Grupo 1230068" transform="translate(2.033 124.395)">
              <path id="Trazado_1180658" data-name="Trazado 1180658" d="M57.866,279.243s6-.223,7.773,3.331c0,0,.111,7-.889,8.55s-1.555-.889-1.776-3.553a11.238,11.238,0,0,0-2.221,4.885c-.444,2.776,0,6.107-.889,5.552a6.564,6.564,0,0,1-3.886-4.664C55.2,290.013,56.2,282.241,57.866,279.243Z" transform="translate(-55.71 -279.24)" fill="#ed9085"/>
            </g>
            <path id="Trazado_1180659" data-name="Trazado 1180659" d="M165.931,205a37.723,37.723,0,0,0,4.158,13.231c3.591,6.615,2.926,17.446,2.926,17.446" transform="translate(-67.309 -145.662)" fill="none" stroke="#c96357" stroke-miterlimit="10" stroke-width="1"/>
            <path id="Trazado_1180660" data-name="Trazado 1180660" d="M117.749,219.142s-4.385,5.333-6.51,16.226" transform="translate(-60.545 -147.412)" fill="none" stroke="#c96357" stroke-miterlimit="10" stroke-width="1"/>
            <path id="Trazado_1180661" data-name="Trazado 1180661" d="M189.723,222.458c0-.442-.766-4.551,2.71-7.136" transform="translate(-70.243 -146.94)" fill="none" stroke="#c96357" stroke-miterlimit="10" stroke-width="1"/>
            <path id="Trazado_1180662" data-name="Trazado 1180662" d="M135.985,160.3s-3.294-2.691-5.46.032.8,7.611,6.188,6.683S135.985,160.3,135.985,160.3Z" transform="translate(-62.842 -139.988)" fill="#ed9085"/>
            <path id="Trazado_1180663" data-name="Trazado 1180663" d="M125.016,158.133s-6.579,6.34-14.235-1.435" transform="translate(-60.488 -139.689)" fill="none" stroke="#2b305d" stroke-miterlimit="10" stroke-width="1"/>
            <path id="Trazado_1180664" data-name="Trazado 1180664" d="M132.854,162.046c.133,0,2.934,1.512,2.934,1.512l-1.823,1.69" transform="translate(-63.218 -140.35)" fill="none" stroke="#e0786c" stroke-linecap="round" stroke-miterlimit="10" stroke-width="1"/>
            <path id="Trazado_1180665" data-name="Trazado 1180665" d="M141.242,156.636c0-.173,1.211-2.576,3.345-2.392" transform="translate(-64.256 -139.384)" fill="none" stroke="#2b305d" stroke-linecap="round" stroke-miterlimit="10" stroke-width="1"/>
            <path id="Trazado_1180666" data-name="Trazado 1180666" d="M150.645,152.392a2.785,2.785,0,0,1,3.259-.053" transform="translate(-65.419 -139.089)" fill="none" stroke="#2b305d" stroke-linecap="round" stroke-miterlimit="10" stroke-width="1"/>
            <path id="Trazado_1180667" data-name="Trazado 1180667" d="M149.006,157l3.216,4.442a.282.282,0,0,1-.095.414l-1.824.982" transform="translate(-65.216 -139.726)" fill="none" stroke="#e0786c" stroke-linecap="round" stroke-miterlimit="10" stroke-width="1"/>
          </g>
        </g>
      </g>
    </g>
  </g>
</svg>
