<svg xmlns="http://www.w3.org/2000/svg" xmlns:xlink="http://www.w3.org/1999/xlink" width="113" height="113" viewBox="0 0 113 113">
  <defs>
    <filter id="Trazado_982547" x="0" y="0" width="113" height="113" filterUnits="userSpaceOnUse">
      <feOffset dy="3" input="SourceAlpha"/>
      <feGaussianBlur stdDeviation="3" result="blur"/>
      <feFlood flood-opacity="0.161"/>
      <feComposite operator="in" in2="blur"/>
      <feComposite in="SourceGraphic"/>
    </filter>
  </defs>
  <g id="Grupo_1230095" data-name="Grupo 1230095" transform="translate(-324.25 -14683.043)">
    <g id="Grupo_1224255" data-name="Grupo 1224255" transform="translate(0.25 13230)">
      <g id="Grupo_1223775" data-name="Grupo 1223775" transform="translate(0 -4451.031)">
        <g id="Grupo_1206275" data-name="Grupo 1206275" transform="translate(0 -3448.335)">
          <g id="Grupo_1203802" data-name="Grupo 1203802" transform="translate(0.5 6552.41)">
            <g id="Grupo_1202424" data-name="Grupo 1202424" transform="translate(0 1464)">
              <g id="Grupo_1178325" data-name="Grupo 1178325" transform="translate(0 424)">
                <g id="Grupo_1177679" data-name="Grupo 1177679" transform="translate(332.5 918)">
                  <g id="Grupo_1172010" data-name="Grupo 1172010">
                    <g id="Grupo_1171046" data-name="Grupo 1171046">
                      <g id="Grupo_1148525" data-name="Grupo 1148525">
                        <g transform="matrix(1, 0, 0, 1, -9, -6)" filter="url(#Trazado_982547)">
                          <g id="Trazado_982547-2" data-name="Trazado 982547" transform="translate(9 6)" fill="#ffe6ef">
                            <path d="M 47.5 93.5 C 41.28937149047852 93.5 35.26533508300781 92.28397369384766 29.59518623352051 89.88570404052734 C 24.11771965026855 87.56893157958984 19.19813346862793 84.25196075439453 14.97309303283691 80.02691650390625 C 10.74804019927979 75.80186462402344 7.431066513061523 70.88229370117188 5.114293098449707 65.40481567382812 C 2.716026782989502 59.73468017578125 1.5 53.71062850952148 1.5 47.5 C 1.5 41.28937149047852 2.716026782989502 35.26533508300781 5.114293098449707 29.59518623352051 C 7.431066513061523 24.11771965026855 10.74804019927979 19.19813346862793 14.97309303283691 14.97309303283691 C 19.19813346862793 10.74804019927979 24.11771965026855 7.431066513061523 29.59518623352051 5.114293098449707 C 35.26533508300781 2.716026782989502 41.28937149047852 1.5 47.5 1.5 C 53.71062850952148 1.5 59.73468017578125 2.716026782989502 65.40481567382812 5.114293098449707 C 70.88229370117188 7.431066513061523 75.80186462402344 10.74804019927979 80.02691650390625 14.97309303283691 C 84.25196075439453 19.19813346862793 87.56893157958984 24.11771965026855 89.88570404052734 29.59518623352051 C 92.28397369384766 35.26533508300781 93.5 41.28937149047852 93.5 47.5 C 93.5 53.71062850952148 92.28397369384766 59.73468017578125 89.88570404052734 65.40481567382812 C 87.56893157958984 70.88229370117188 84.25196075439453 75.80186462402344 80.02691650390625 80.02691650390625 C 75.80186462402344 84.25196075439453 70.88229370117188 87.56893157958984 65.40481567382812 89.88570404052734 C 59.73468017578125 92.28397369384766 53.71062850952148 93.5 47.5 93.5 Z" stroke="none"/>
                            <path d="M 47.5 3 C 41.49121475219727 3 35.66376876831055 4.176155090332031 30.17950439453125 6.495796203613281 C 24.88084411621094 8.736953735351562 20.12152099609375 11.94598388671875 16.03375244140625 16.03375244140625 C 11.94598388671875 20.12152099609375 8.736953735351562 24.88084411621094 6.495796203613281 30.17950439453125 C 4.176155090332031 35.66376876831055 3 41.49121475219727 3 47.5 C 3 53.50878524780273 4.176155090332031 59.33623123168945 6.495796203613281 64.82049560546875 C 8.736953735351562 70.11915588378906 11.94598388671875 74.87847900390625 16.03375244140625 78.96624755859375 C 20.12152099609375 83.05401611328125 24.88084411621094 86.26304626464844 30.17950439453125 88.50419616699219 C 35.66376876831055 90.82384490966797 41.49121475219727 92 47.5 92 C 53.50878524780273 92 59.33623123168945 90.82384490966797 64.82049560546875 88.50419616699219 C 70.11915588378906 86.26304626464844 74.87847900390625 83.05401611328125 78.96624755859375 78.96624755859375 C 83.05401611328125 74.87847900390625 86.26304626464844 70.11915588378906 88.50419616699219 64.82049560546875 C 90.82384490966797 59.33623123168945 92 53.50878524780273 92 47.5 C 92 41.49121475219727 90.82384490966797 35.66376876831055 88.50419616699219 30.17950439453125 C 86.26304626464844 24.88084411621094 83.05401611328125 20.12152099609375 78.96624755859375 16.03375244140625 C 74.87847900390625 11.94598388671875 70.11915588378906 8.736953735351562 64.82049560546875 6.495796203613281 C 59.33623123168945 4.176155090332031 53.50878524780273 3 47.5 3 M 47.5 0 C 73.7335205078125 0 95 21.2664794921875 95 47.5 C 95 73.7335205078125 73.7335205078125 95 47.5 95 C 21.2664794921875 95 0 73.7335205078125 0 47.5 C 0 21.2664794921875 21.2664794921875 0 47.5 0 Z" stroke="none" fill="#8b5e6f"/>
                          </g>
                        </g>
                      </g>
                    </g>
                  </g>
                </g>
              </g>
            </g>
          </g>
        </g>
      </g>
    </g>
    <g id="escritura_2_" data-name="escritura (2)" transform="translate(348.699 14701)">
      <g id="Grupo_1230093" data-name="Grupo 1230093" transform="translate(0.942 0.94)">
        <g id="Grupo_1230071" data-name="Grupo 1230071" transform="translate(0 20.135)">
          <path id="Trazado_1180668" data-name="Trazado 1180668" d="M10.007,168.345H49.594a2.5,2.5,0,0,1,2.5,2.5v37.076a2.5,2.5,0,0,1-2.5,2.5H10.007a2.5,2.5,0,0,1-2.5-2.5V170.849a2.5,2.5,0,0,1,2.5-2.5Z" transform="translate(-7.503 -168.345)" fill="#e8edf2"/>
        </g>
        <g id="Grupo_1230072" data-name="Grupo 1230072" transform="translate(9.119 20.135)">
          <path id="Trazado_1180669" data-name="Trazado 1180669" d="M115.818,170.849a2.5,2.5,0,0,0-2.5-2.5H83.248l-1.771,3.13a5.782,5.782,0,0,0,3.217,8.333l-2.571,3.813-.188.278.009.006a5.677,5.677,0,0,0-.709,1.952l-.834,5.08a4.384,4.384,0,0,0,4.325,5.094h0A4.378,4.378,0,0,0,87,195.389l4.4-2.678a5.589,5.589,0,0,0,1.544-1.389l.009.006,1.558-2.311a5.427,5.427,0,0,0,3.617,1.378h1.037a5.42,5.42,0,0,0,2.321-.519,5.42,5.42,0,0,0,2.321.519h1.036a5.459,5.459,0,0,0,5.038-3.37q.5.041,1.01.042h4.926V170.849Z" transform="translate(-80.342 -168.345)" fill="#c5d3dd"/>
        </g>
        <g id="Grupo_1230073" data-name="Grupo 1230073" transform="translate(0 20.135)">
          <path id="Trazado_1180670" data-name="Trazado 1180670" d="M10.688,207.925V170.849a2.5,2.5,0,0,1,2.5-2.5H10.007a2.5,2.5,0,0,0-2.5,2.5v37.076a2.5,2.5,0,0,0,2.5,2.5h3.185A2.5,2.5,0,0,1,10.688,207.925Z" transform="translate(-7.503 -168.345)" fill="#c5d3dd"/>
        </g>
        <g id="Grupo_1230074" data-name="Grupo 1230074" transform="translate(12.63 12.986)">
          <path id="Trazado_1180671" data-name="Trazado 1180671" d="M144.148,116.565a5.862,5.862,0,0,1-3.106-.891l-7.092-4.433H119.232a6.527,6.527,0,0,0-5.68,3.312l-4.816,8.508a2.644,2.644,0,0,0,2.3,3.946h1.82v.871a3.13,3.13,0,0,0,3.13,3.13h4.357l2.073,2.832h7.8l1.487-.668.111.049a8.974,8.974,0,0,0,3.616.761h7.736a8.973,8.973,0,0,0,2.575-.377l3.337-1V116.565Z" transform="translate(-108.39 -111.241)" fill="#ffb8a9"/>
        </g>
        <g id="Grupo_1230075" data-name="Grupo 1230075" transform="translate(24.585 32.754)">
          <path id="Trazado_1180672" data-name="Trazado 1180672" d="M209.741,269.141h-5.858v3.982a2.321,2.321,0,0,0,2.321,2.321h1.037a2.321,2.321,0,0,0,2.321-2.321,2.321,2.321,0,0,0,2.321,2.321h1.037a2.321,2.321,0,0,0,2.321-2.321v-1.817l-4.387-1.931A2.763,2.763,0,0,0,209.741,269.141Z" transform="translate(-203.883 -269.141)" fill="#ff947e"/>
        </g>
        <g id="Grupo_1230076" data-name="Grupo 1230076" transform="translate(12.63 12.986)">
          <path id="Trazado_1180673" data-name="Trazado 1180673" d="M111.162,123.06l4.816-8.508a6.527,6.527,0,0,1,5.68-3.312h-2.426a6.527,6.527,0,0,0-5.68,3.312l-4.816,8.508a2.644,2.644,0,0,0,2.3,3.946h2.426A2.644,2.644,0,0,1,111.162,123.06Z" transform="translate(-108.389 -111.24)" fill="#ff947e"/>
        </g>
        <g id="Grupo_1230077" data-name="Grupo 1230077" transform="translate(12.248 34.844)">
          <path id="Trazado_1180674" data-name="Trazado 1180674" d="M108.148,285.836l-1.562,2.316a2.5,2.5,0,0,0-.395.994l-.834,5.08a1.252,1.252,0,0,0,1.886,1.272l4.4-2.677a2.506,2.506,0,0,0,.774-.739l1.562-2.316Z" transform="translate(-105.34 -285.836)" fill="#4a80aa"/>
        </g>
        <g id="Grupo_1230080" data-name="Grupo 1230080" transform="translate(15.056)">
          <g id="Grupo_1230079" data-name="Grupo 1230079">
            <g id="Grupo_1230078" data-name="Grupo 1230078">
              <path id="Trazado_1180675" data-name="Trazado 1180675" d="M133.6,46.28l-5.829-3.931L150.892,8.058a1.252,1.252,0,0,1,1.738-.338l3.753,2.531a1.252,1.252,0,0,1,.338,1.738Z" transform="translate(-127.768 -7.506)" fill="#dd636e"/>
            </g>
          </g>
        </g>
        <g id="Grupo_1230081" data-name="Grupo 1230081" transform="translate(12.248 34.844)">
          <path id="Trazado_1180676" data-name="Trazado 1180676" d="M108.283,290.557a2.505,2.505,0,0,1,.395-.994l1.562-2.316-2.093-1.411-1.562,2.316a2.505,2.505,0,0,0-.395.994l-.834,5.08a1.252,1.252,0,0,0,1.886,1.272l.254-.155Z" transform="translate(-105.339 -285.836)" fill="#407093"/>
        </g>
        <g id="Grupo_1230084" data-name="Grupo 1230084" transform="translate(15.056 0)">
          <g id="Grupo_1230083" data-name="Grupo 1230083">
            <g id="Grupo_1230082" data-name="Grupo 1230082">
              <path id="Trazado_1180677" data-name="Trazado 1180677" d="M154.723,9.131,152.631,7.72a1.252,1.252,0,0,0-1.738.338L127.769,42.35l2.093,1.411L152.985,9.469a1.252,1.252,0,0,1,1.738-.338Z" transform="translate(-127.769 -7.506)" fill="#c63d4f"/>
            </g>
          </g>
        </g>
        <g id="Grupo_1230085" data-name="Grupo 1230085" transform="translate(17.098 22.939)">
          <path id="Trazado_1180678" data-name="Trazado 1180678" d="M162.375,192.956a2.754,2.754,0,0,1-1.85.714H146.812a2.734,2.734,0,0,0-2.734,2.734v1.022a3.13,3.13,0,0,0,3.13,3.13h10.216l7.394-9.815Z" transform="translate(-144.078 -190.741)" fill="#ffb8a9"/>
        </g>
        <g id="Grupo_1230086" data-name="Grupo 1230086" transform="translate(17.098 25.868)">
          <path id="Trazado_1180679" data-name="Trazado 1180679" d="M146.172,217.9v-1.022a2.734,2.734,0,0,1,2.734-2.734h-2.094a2.734,2.734,0,0,0-2.734,2.734V217.9a3.13,3.13,0,0,0,3.13,3.13H149.3A3.13,3.13,0,0,1,146.172,217.9Z" transform="translate(-144.078 -214.141)" fill="#ff947e"/>
        </g>
        <g id="Grupo_1230089" data-name="Grupo 1230089" transform="translate(52.304 14.511)">
          <g id="Grupo_1230088" data-name="Grupo 1230088">
            <g id="Grupo_1230087" data-name="Grupo 1230087">
              <path id="Trazado_1180680" data-name="Trazado 1180680" d="M425.3,124.673v22.753a1.252,1.252,0,0,0,1.252,1.252h7.411a1.252,1.252,0,0,0,1.252-1.252V124.673a1.252,1.252,0,0,0-1.252-1.252h-7.411A1.252,1.252,0,0,0,425.3,124.673Z" transform="translate(-425.303 -123.421)" fill="#90d8f9"/>
            </g>
          </g>
        </g>
        <g id="Grupo_1230092" data-name="Grupo 1230092" transform="translate(52.304 14.511)">
          <g id="Grupo_1230091" data-name="Grupo 1230091">
            <g id="Grupo_1230090" data-name="Grupo 1230090">
              <path id="Trazado_1180681" data-name="Trazado 1180681" d="M427.782,147.426V124.673a1.252,1.252,0,0,1,1.252-1.252h-2.479a1.252,1.252,0,0,0-1.252,1.252v22.753a1.252,1.252,0,0,0,1.252,1.252h2.479A1.252,1.252,0,0,1,427.782,147.426Z" transform="translate(-425.303 -123.421)" fill="#75cef9"/>
            </g>
          </g>
        </g>
      </g>
      <g id="Grupo_1230094" data-name="Grupo 1230094" transform="translate(0.003 0)">
        <path id="Trazado_1180682" data-name="Trazado 1180682" d="M.942,172.445a.939.939,0,0,0,.939-.939v-7.219a1.567,1.567,0,0,1,1.565-1.565H11.1a.939.939,0,0,0,0-1.878H3.446A3.447,3.447,0,0,0,0,164.288v7.219a.939.939,0,0,0,.939.939Z" transform="translate(-0.003 -140.709)"/>
        <path id="Trazado_1180683" data-name="Trazado 1180683" d="M45.537,279.721a.939.939,0,0,0-.939.939v19.7a1.567,1.567,0,0,1-1.565,1.565H3.446a1.567,1.567,0,0,1-1.565-1.565V274.944a.939.939,0,0,0-1.878,0v25.413A3.447,3.447,0,0,0,3.446,303.8H43.033a3.447,3.447,0,0,0,3.443-3.443v-19.7A.939.939,0,0,0,45.537,279.721Z" transform="translate(-0.003 -239.703)"/>
        <path id="Trazado_1180684" data-name="Trazado 1180684" d="M148.751,22.748a.939.939,0,0,0,.939-.939V16.7a2.193,2.193,0,0,0-2.191-2.191h-7.411A2.193,2.193,0,0,0,137.9,16.7v1.608H134.92a4.916,4.916,0,0,1-2.609-.748l-6.208-3.88,3.22-4.775h0l2-2.96a2.191,2.191,0,0,0-.592-3.041L126.975.376a2.191,2.191,0,0,0-3.041.592l-8.106,12.02H110a7.478,7.478,0,0,0-6.5,3.788l-4.815,8.508a3.583,3.583,0,0,0,3.118,5.348h.882a4.041,4.041,0,0,0,.282,1.419l-3.725,5.524a3.467,3.467,0,0,0-.543,1.367l-.834,5.08a2.187,2.187,0,0,0,3.3,2.226l4.4-2.677a3.42,3.42,0,0,0,1.064-1.016l3.544-5.255v.375a3.264,3.264,0,0,0,3.26,3.26h1.037a3.25,3.25,0,0,0,2.321-.974,3.25,3.25,0,0,0,2.321.974h1.037a3.264,3.264,0,0,0,3.26-3.26V37.2a9.856,9.856,0,0,0,2.788.4h7.736a9.9,9.9,0,0,0,2.844-.417l1.116-.334v2.6a2.193,2.193,0,0,0,2.191,2.191H147.5a2.193,2.193,0,0,0,2.191-2.191v-12.7a.939.939,0,0,0-1.878,0v12.7a.313.313,0,0,1-.313.313h-7.411a.313.313,0,0,1-.313-.313V16.7a.313.313,0,0,1,.313-.313H147.5a.313.313,0,0,1,.313.313V21.81a.939.939,0,0,0,.939.939Zm-39.345,3.121L122.969,5.756l4.272,2.881L115.621,25.869ZM125.49,2.017a.313.313,0,0,1,.434-.084l3.753,2.531a.313.313,0,0,1,.085.435L128.291,7.08,124.019,4.2ZM100.337,27.908a1.689,1.689,0,0,1-.011-1.7l4.816-8.508A5.6,5.6,0,0,1,110,14.865h4.557l-7.42,11h-.777a3.679,3.679,0,0,0-3.587,2.884h-.967a1.689,1.689,0,0,1-1.473-.846Zm6.827,10.5-4.272-2.881,1.251-1.855a4.049,4.049,0,0,0,2.617.957h2.952Zm-2.087,3.095a1.553,1.553,0,0,1-.484.462l-4.4,2.677a.313.313,0,0,1-.472-.318l.834-5.08a1.578,1.578,0,0,1,.247-.622l1.037-1.538,4.272,2.881Zm9.4-2.448h-1.037a1.384,1.384,0,0,1-1.382-1.382V34.633h3.8v3.043A1.384,1.384,0,0,1,114.474,39.057Zm5.679,0h-1.037a1.384,1.384,0,0,1-1.382-1.382V34.8l3.8,1.673v1.2a1.384,1.384,0,0,1-1.382,1.382Zm16.089-3.666a8.031,8.031,0,0,1-2.305.338H126.2a7.989,7.989,0,0,1-3.238-.681l-4.5-1.98a3.678,3.678,0,0,0-1.49-.313H106.759a2.193,2.193,0,0,1-2.191-2.191V29.543a1.8,1.8,0,0,1,1.8-1.8h13.713a3.687,3.687,0,0,0,2.481-.957L125,24.575a.939.939,0,0,0-1.262-1.391L121.3,25.4a1.812,1.812,0,0,1-1.22.471h-2.191l7.167-10.629,6.263,3.915a6.794,6.794,0,0,0,3.6,1.034H137.9V34.9Z" transform="translate(-85.593 0)"/>
        <path id="Trazado_1180685" data-name="Trazado 1180685" d="M42.522,358.884h2.389a.939.939,0,0,0,0-1.878H42.522a.939.939,0,0,0,0,1.878Z" transform="translate(-36.378 -312.313)"/>
        <path id="Trazado_1180686" data-name="Trazado 1180686" d="M76.415,396.946H42.522a.939.939,0,1,0,0,1.878H76.415a.939.939,0,1,0,0-1.878Z" transform="translate(-36.378 -347.253)"/>
        <path id="Trazado_1180687" data-name="Trazado 1180687" d="M76.415,436.887H42.522a.939.939,0,1,0,0,1.878H76.415a.939.939,0,1,0,0-1.878Z" transform="translate(-36.378 -382.194)"/>
      </g>
    </g>
  </g>
</svg>
