<svg xmlns="http://www.w3.org/2000/svg" xmlns:xlink="http://www.w3.org/1999/xlink" width="113" height="113" viewBox="0 0 113 113">
  <defs>
    <filter id="Trazado_982547" x="0" y="0" width="113" height="113" filterUnits="userSpaceOnUse">
      <feOffset dy="3" input="SourceAlpha"/>
      <feGaussianBlur stdDeviation="3" result="blur"/>
      <feFlood flood-opacity="0.161"/>
      <feComposite operator="in" in2="blur"/>
      <feComposite in="SourceGraphic"/>
    </filter>
  </defs>
  <g id="Grupo_1230113" data-name="Grupo 1230113" transform="translate(-743.25 -14683.043)">
    <g id="Grupo_1230104" data-name="Grupo 1230104">
      <g id="Grupo_1224257" data-name="Grupo 1224257" transform="translate(0.25 13230)">
        <g id="Grupo_1223773" data-name="Grupo 1223773" transform="translate(0 -4451.031)">
          <g id="Grupo_1206282" data-name="Grupo 1206282" transform="translate(0 -3448.335)">
            <g id="Grupo_1203803" data-name="Grupo 1203803" transform="translate(0 6552.41)">
              <g id="Grupo_1202425" data-name="Grupo 1202425" transform="translate(-0.25 1464)">
                <g id="Grupo_1178324" data-name="Grupo 1178324" transform="translate(0 424)">
                  <g id="Grupo_1177680" data-name="Grupo 1177680" transform="translate(752.25 918)">
                    <g id="Grupo_1172010" data-name="Grupo 1172010">
                      <g id="Grupo_1171046" data-name="Grupo 1171046">
                        <g id="Grupo_1148525" data-name="Grupo 1148525">
                          <g transform="matrix(1, 0, 0, 1, -9, -6)" filter="url(#Trazado_982547)">
                            <g id="Trazado_982547-2" data-name="Trazado 982547" transform="translate(9 6)" fill="#ffe6ef">
                              <path d="M 47.5 93.5 C 41.28937149047852 93.5 35.26533508300781 92.28397369384766 29.59518623352051 89.88570404052734 C 24.11771965026855 87.56893157958984 19.19813346862793 84.25196075439453 14.97309303283691 80.02691650390625 C 10.74804019927979 75.80186462402344 7.431066513061523 70.88229370117188 5.114293098449707 65.40481567382812 C 2.716026782989502 59.73468017578125 1.5 53.71062850952148 1.5 47.5 C 1.5 41.28937149047852 2.716026782989502 35.26533508300781 5.114293098449707 29.59518623352051 C 7.431066513061523 24.11771965026855 10.74804019927979 19.19813346862793 14.97309303283691 14.97309303283691 C 19.19813346862793 10.74804019927979 24.11771965026855 7.431066513061523 29.59518623352051 5.114293098449707 C 35.26533508300781 2.716026782989502 41.28937149047852 1.5 47.5 1.5 C 53.71062850952148 1.5 59.73468017578125 2.716026782989502 65.40481567382812 5.114293098449707 C 70.88229370117188 7.431066513061523 75.80186462402344 10.74804019927979 80.02691650390625 14.97309303283691 C 84.25196075439453 19.19813346862793 87.56893157958984 24.11771965026855 89.88570404052734 29.59518623352051 C 92.28397369384766 35.26533508300781 93.5 41.28937149047852 93.5 47.5 C 93.5 53.71062850952148 92.28397369384766 59.73468017578125 89.88570404052734 65.40481567382812 C 87.56893157958984 70.88229370117188 84.25196075439453 75.80186462402344 80.02691650390625 80.02691650390625 C 75.80186462402344 84.25196075439453 70.88229370117188 87.56893157958984 65.40481567382812 89.88570404052734 C 59.73468017578125 92.28397369384766 53.71062850952148 93.5 47.5 93.5 Z" stroke="none"/>
                              <path d="M 47.5 3 C 41.49121475219727 3 35.66376876831055 4.176155090332031 30.17950439453125 6.495796203613281 C 24.88084411621094 8.736953735351562 20.12152099609375 11.94598388671875 16.03375244140625 16.03375244140625 C 11.94598388671875 20.12152099609375 8.736953735351562 24.88084411621094 6.495796203613281 30.17950439453125 C 4.176155090332031 35.66376876831055 3 41.49121475219727 3 47.5 C 3 53.50878524780273 4.176155090332031 59.33623123168945 6.495796203613281 64.82049560546875 C 8.736953735351562 70.11915588378906 11.94598388671875 74.87847900390625 16.03375244140625 78.96624755859375 C 20.12152099609375 83.05401611328125 24.88084411621094 86.26304626464844 30.17950439453125 88.50419616699219 C 35.66376876831055 90.82384490966797 41.49121475219727 92 47.5 92 C 53.50878524780273 92 59.33623123168945 90.82384490966797 64.82049560546875 88.50419616699219 C 70.11915588378906 86.26304626464844 74.87847900390625 83.05401611328125 78.96624755859375 78.96624755859375 C 83.05401611328125 74.87847900390625 86.26304626464844 70.11915588378906 88.50419616699219 64.82049560546875 C 90.82384490966797 59.33623123168945 92 53.50878524780273 92 47.5 C 92 41.49121475219727 90.82384490966797 35.66376876831055 88.50419616699219 30.17950439453125 C 86.26304626464844 24.88084411621094 83.05401611328125 20.12152099609375 78.96624755859375 16.03375244140625 C 74.87847900390625 11.94598388671875 70.11915588378906 8.736953735351562 64.82049560546875 6.495796203613281 C 59.33623123168945 4.176155090332031 53.50878524780273 3 47.5 3 M 47.5 0 C 73.7335205078125 0 95 21.2664794921875 95 47.5 C 95 73.7335205078125 73.7335205078125 95 47.5 95 C 21.2664794921875 95 0 73.7335205078125 0 47.5 C 0 21.2664794921875 21.2664794921875 0 47.5 0 Z" stroke="none" fill="#8b5e6f"/>
                            </g>
                          </g>
                        </g>
                      </g>
                    </g>
                  </g>
                </g>
              </g>
            </g>
          </g>
        </g>
      </g>
    </g>
    <g id="hablar_1_" data-name="hablar (1)" transform="translate(771.65 14708.219)">
      <g id="Grupo_1230111" data-name="Grupo 1230111" transform="translate(0.859 0.836)">
        <g id="Grupo_1230108" data-name="Grupo 1230108">
          <path id="Trazado_1180727" data-name="Trazado 1180727" d="M39.351,24.914,22.64,24.92l-7.323,0c-.955-3.955-3.282-12.887,4.374-16.264,5.891-2.6,11.933.225,11.933.225S44.9,6.3,39.351,24.914Z" transform="translate(-13.486 -7.559)" fill="#b16e3d"/>
          <path id="Trazado_1180728" data-name="Trazado 1180728" d="M21.751,22.476l.889,2.444-7.323,0c-.955-3.955-3.282-12.887,4.374-16.264,5.891-2.6,11.933.225,11.933.225-11.107,0-11.783,9.607-9.873,13.592Z" transform="translate(-13.486 -7.559)" fill="#985e33"/>
          <path id="Trazado_1180729" data-name="Trazado 1180729" d="M10.794,169.659a3.267,3.267,0,0,1-3.184-3.986,1.612,1.612,0,0,1,3.184.355H31.682a1.612,1.612,0,0,1,3.184-.355,3.267,3.267,0,0,1-3.184,3.986" transform="translate(-7.53 -147.063)" fill="#eaac9d"/>
          <path id="Trazado_1180730" data-name="Trazado 1180730" d="M57.918,105.6v5.324a7.612,7.612,0,0,1-7.612,7.612H44.641a7.613,7.613,0,0,1-7.612-7.612v-5.174c1.6-.219,3.31-.51,5-.892,4.1-.925,8.116-2.389,10.4-4.67,0,0,1.447,4.812,5.489,5.413Z" transform="translate(-33.766 -89.936)" fill="#ffcbbe"/>
          <path id="Trazado_1180731" data-name="Trazado 1180731" d="M49.643,156.077h-5a7.613,7.613,0,0,1-7.612-7.612V143.29c1.6-.219,3.31-.51,5-.892v6.066A7.612,7.612,0,0,0,49.643,156.077Z" transform="translate(-33.766 -127.481)" fill="#eaac9d"/>
          <g id="Grupo_1230107" data-name="Grupo 1230107" transform="translate(5.846 20.485)">
            <ellipse id="Elipse_12855" data-name="Elipse 12855" cx="1.71" cy="1.04" rx="1.71" ry="1.04" transform="translate(12.304)" fill="#e490b7"/>
            <ellipse id="Elipse_12856" data-name="Elipse 12856" cx="1.71" cy="1.04" rx="1.71" ry="1.04" fill="#e490b7"/>
          </g>
        </g>
        <g id="Grupo_1230110" data-name="Grupo 1230110" transform="translate(27.565 27.175)">
          <path id="Trazado_1180732" data-name="Trazado 1180732" d="M259.967,408.172a3.267,3.267,0,0,1-3.184-3.986,1.612,1.612,0,0,1,3.184.355h20.889a1.612,1.612,0,0,1,3.184-.355,3.267,3.267,0,0,1-3.184,3.986" transform="translate(-256.703 -386.365)" fill="#b17a4a"/>
          <path id="Trazado_1180733" data-name="Trazado 1180733" d="M286.2,324.077v12.354a7.613,7.613,0,0,0,7.612,7.612h5.664a7.612,7.612,0,0,0,7.612-7.612V324.077" transform="translate(-282.94 -316.236)" fill="#c38959"/>
          <path id="Trazado_1180734" data-name="Trazado 1180734" d="M298.612,344.042h-4.794a7.613,7.613,0,0,1-7.612-7.612V324.076H291V336.43A7.613,7.613,0,0,0,298.612,344.042Z" transform="translate(-282.941 -316.235)" fill="#b17a4a"/>
          <g id="Grupo_1230109" data-name="Grupo 1230109" transform="translate(5.846 19.696)">
            <ellipse id="Elipse_12857" data-name="Elipse 12857" cx="1.71" cy="1.04" rx="1.71" ry="1.04" transform="translate(12.304)" fill="#e490b7"/>
            <ellipse id="Elipse_12858" data-name="Elipse 12858" cx="1.71" cy="1.04" rx="1.71" ry="1.04" fill="#e490b7"/>
          </g>
          <path id="Trazado_1180735" data-name="Trazado 1180735" d="M304.961,253.2H288.335a2.131,2.131,0,0,0-2.131,2.131v12.114a2.161,2.161,0,0,0,2.161-2.161v-2.642h16.566v2.642a2.161,2.161,0,0,0,2.161,2.161V255.333A2.131,2.131,0,0,0,304.961,253.2Z" transform="translate(-282.94 -253.202)" fill="#544f57"/>
          <path id="Trazado_1180736" data-name="Trazado 1180736" d="M293.239,253.2a2.131,2.131,0,0,0-2.131,2.131v7.311h-2.742v2.641a2.16,2.16,0,0,1-2.161,2.161V255.332a2.131,2.131,0,0,1,2.131-2.131h4.9Z" transform="translate(-282.94 -253.201)" fill="#454045"/>
        </g>
        <path id="Trazado_1180737" data-name="Trazado 1180737" d="M288.3,22.39a2.26,2.26,0,0,0,2.086,2.008l.269.018a1.265,1.265,0,0,1,1.18,1.262v2.516a1.022,1.022,0,0,0,1.642.814,18.747,18.747,0,0,0,3.865-3.77,1.261,1.261,0,0,1,1.045-.539q4.63.023,9.261-.3a2.257,2.257,0,0,0,1.917-1.362,2.224,2.224,0,0,0,.169-.641,57.415,57.415,0,0,0,0-12.53,2.256,2.256,0,0,0-2.085-2,123.052,123.052,0,0,0-13.8-.194q-1.733.072-3.467.194a2.257,2.257,0,0,0-2.086,2A57.393,57.393,0,0,0,288.3,22.39Z" transform="translate(-256.936 -7.56)" fill="#dd636e"/>
        <path id="Trazado_1180738" data-name="Trazado 1180738" d="M30.434,323.607a2.26,2.26,0,0,1-2.086,2.008l-.269.018A1.265,1.265,0,0,0,26.9,326.9v2.516a1.022,1.022,0,0,1-1.642.814,18.746,18.746,0,0,1-3.865-3.77,1.261,1.261,0,0,0-1.045-.539q-4.63.023-9.261-.3a2.257,2.257,0,0,1-1.917-1.362A2.223,2.223,0,0,1,9,323.613a57.413,57.413,0,0,1,0-12.53,2.256,2.256,0,0,1,2.085-2,123.05,123.05,0,0,1,13.8-.194q1.733.072,3.467.194a2.257,2.257,0,0,1,2.086,2A57.407,57.407,0,0,1,30.434,323.607Z" transform="translate(-8.532 -275.455)" fill="#f4dd45"/>
      </g>
      <g id="Grupo_1230112" data-name="Grupo 1230112" transform="translate(0.029 0)">
        <path id="Trazado_1180739" data-name="Trazado 1180739" d="M3.645,24.233a8.441,8.441,0,0,0,2.6,4,.83.83,0,1,0,1.08-1.259A6.778,6.778,0,0,1,4.952,21.82V17.366c4.781-.705,10.719-2.109,14.237-4.882a11.28,11.28,0,0,0,.875,1.546,7.362,7.362,0,0,0,4.117,3.138V21.82A6.79,6.79,0,0,1,17.4,28.6H11.734a6.786,6.786,0,0,1-1.806-.243.83.83,0,0,0-.442,1.6,8.446,8.446,0,0,0,2.247.3H17.4a8.456,8.456,0,0,0,8.089-6.029A4.1,4.1,0,0,0,29,19.263a2.4,2.4,0,0,0-1.252-1.646c1.819-6.535,1.492-11.225-.975-13.947C24.19.817,20.182,1.152,19.105,1.3c-1.232-.517-6.816-2.58-12.377-.126A9.551,9.551,0,0,0,.838,9.593a24.721,24.721,0,0,0,.829,7.9A2.383,2.383,0,0,0,.13,19.263a4.1,4.1,0,0,0,3.515,4.97ZM1.689,20.168a2.453,2.453,0,0,1,.06-.539.737.737,0,0,1,.85-.6.737.737,0,0,1,.695.771V21.82q0,.324.025.645a2.438,2.438,0,0,1-1.629-2.3Zm24.125,2.3c.016-.214.027-.428.027-.646V19.8h0a.782.782,0,0,1,1.545-.172,2.438,2.438,0,0,1-1.572,2.837ZM2.49,9.749A7.9,7.9,0,0,1,7.4,2.695c5.461-2.41,11.19.192,11.247.218a.83.83,0,0,0,.51.063c.04-.008,4.068-.756,6.393,1.809,2.061,2.273,2.244,6.636.537,12.635-.083.018-.165.04-.244.065V16.5a.83.83,0,0,0-.708-.821,5.437,5.437,0,0,1-3.671-2.54,9.448,9.448,0,0,1-1.146-2.29.83.83,0,0,0-1.381-.348C17.2,12.234,13.2,14.567,4.01,15.824a.83.83,0,0,0-.717.822v.514a23.373,23.373,0,0,1-.8-7.41Z" transform="translate(-0.029 0)"/>
        <path id="Trazado_1180740" data-name="Trazado 1180740" d="M76.041,160.225c0-.9-.444-1.64-.99-1.64s-.99.736-.99,1.64.444,1.64.99,1.64S76.041,161.13,76.041,160.225Z" transform="translate(-65.872 -141.041)"/>
        <path id="Trazado_1180741" data-name="Trazado 1180741" d="M172.912,160.225c0-.9-.444-1.64-.99-1.64s-.99.736-.99,1.64.444,1.64.99,1.64S172.912,161.13,172.912,160.225Z" transform="translate(-152.026 -141.041)"/>
        <path id="Trazado_1180742" data-name="Trazado 1180742" d="M107.479,199.134a.719.719,0,0,0-.383.942,2.868,2.868,0,0,0,5.287,0,.719.719,0,0,0-1.325-.559,1.43,1.43,0,0,1-2.636,0A.719.719,0,0,0,107.479,199.134Z" transform="translate(-95.201 -177.054)"/>
        <path id="Trazado_1180743" data-name="Trazado 1180743" d="M117.613,180.664a.83.83,0,0,0,0-1.659h-2.034a.83.83,0,0,0,0,1.659Z" transform="translate(-102.058 -159.202)"/>
        <path id="Trazado_1180744" data-name="Trazado 1180744" d="M278.279,265.074a4.109,4.109,0,0,0-.1-.9,2.381,2.381,0,0,0-2.652-1.888,2.634,2.634,0,0,0-.512.11V248.662a2.964,2.964,0,0,0-2.961-2.961H255.428a2.964,2.964,0,0,0-2.961,2.961v13.729a2.642,2.642,0,0,0-.511-.11,2.381,2.381,0,0,0-2.652,1.889,4.1,4.1,0,0,0,3.517,4.969,8.456,8.456,0,0,0,8.089,6.028h5.664a8.456,8.456,0,0,0,8.089-6.028A4.1,4.1,0,0,0,278.279,265.074Zm-24.153-16.412a1.3,1.3,0,0,1,1.3-1.3h16.626a1.3,1.3,0,0,1,1.3,1.3v10.993a1.33,1.33,0,0,1-.5-1.041v-2.642a.83.83,0,0,0-.83-.83H255.458a.83.83,0,0,0-.83.83v2.642a1.33,1.33,0,0,1-.5,1.041Zm-3.264,16.412a2.459,2.459,0,0,1,.06-.539.782.782,0,0,1,1.545.168v2.023c0,.218.011.433.027.646A2.438,2.438,0,0,1,250.862,265.074Zm15.71,8.434h-5.664a6.79,6.79,0,0,1-6.783-6.783v-2.018h0s0,0,0-.005v-3.214a3,3,0,0,0,2.161-2.873V256.8h14.906v1.812a3,3,0,0,0,2.161,2.873v5.238A6.79,6.79,0,0,1,266.573,273.508Zm8.415-6.136c.016-.214.027-.429.027-.646v-2.018h0a.782.782,0,0,1,1.545-.172,2.437,2.437,0,0,1-1.572,2.837Z" transform="translate(-221.638 -218.52)"/>
        <ellipse id="Elipse_12859" data-name="Elipse 12859" cx="0.99" cy="1.64" rx="0.99" ry="1.64" transform="translate(35.755 43.93)"/>
        <ellipse id="Elipse_12860" data-name="Elipse 12860" cx="0.99" cy="1.64" rx="0.99" ry="1.64" transform="translate(46.472 43.93)"/>
        <path id="Trazado_1180745" data-name="Trazado 1180745" d="M361.171,437.647a.719.719,0,0,0-.942.383,1.43,1.43,0,0,1-2.636,0,.719.719,0,0,0-1.325.559,2.868,2.868,0,0,0,5.287,0A.719.719,0,0,0,361.171,437.647Z" transform="translate(-316.808 -389.182)"/>
        <path id="Trazado_1180746" data-name="Trazado 1180746" d="M364.753,419.176h2.034a.83.83,0,1,0,0-1.659h-2.034a.83.83,0,0,0,0,1.659Z" transform="translate(-323.667 -371.329)"/>
        <path id="Trazado_1180747" data-name="Trazado 1180747" d="M283.669,18.56l.274.019a.436.436,0,0,1,.406.433v2.516A1.85,1.85,0,0,0,287.324,23a19.594,19.594,0,0,0,4.042-3.956.435.435,0,0,1,.359-.183h0c3.1.016,6.24-.086,9.323-.3a3.073,3.073,0,0,0,2.621-1.861,3.042,3.042,0,0,0,.231-.88,58.393,58.393,0,0,0,0-12.71,3.08,3.08,0,0,0-2.851-2.74A124.213,124.213,0,0,0,287.5.16a.83.83,0,1,0,.065,1.658,122.6,122.6,0,0,1,13.371.207,1.422,1.422,0,0,1,1.317,1.265,56.728,56.728,0,0,1,0,12.35,1.392,1.392,0,0,1-.106.4,1.421,1.421,0,0,1-1.213.861c-3.043.214-6.136.314-9.2.3h-.011A2.1,2.1,0,0,0,290,18.1a17.989,17.989,0,0,1-3.685,3.584.193.193,0,0,1-.31-.154V19.012a2.1,2.1,0,0,0-1.949-2.089l-.272-.019a1.429,1.429,0,0,1-1.32-1.27,56.911,56.911,0,0,1,0-12.345,1.424,1.424,0,0,1,1.321-1.265l.5-.034a.83.83,0,1,0-.109-1.656l-.51.035a3.081,3.081,0,0,0-2.854,2.74,58.581,58.581,0,0,0,0,12.706,3.088,3.088,0,0,0,2.851,2.745Z" transform="translate(-249.449 -0.058)"/>
        <path id="Trazado_1180748" data-name="Trazado 1180748" d="M332.612,68.292h11.572a.83.83,0,1,0,0-1.659H332.612a.83.83,0,1,0,0,1.659Z" transform="translate(-295.081 -59.262)"/>
        <path id="Trazado_1180749" data-name="Trazado 1180749" d="M332.612,95.859h7.471a.83.83,0,1,0,0-1.659h-7.471a.83.83,0,0,0,0,1.659Z" transform="translate(-295.081 -83.779)"/>
        <path id="Trazado_1180750" data-name="Trazado 1180750" d="M21.747,301.588c-1.157-.082-2.332-.147-3.491-.2a124.5,124.5,0,0,0-13.888.2,3.083,3.083,0,0,0-2.852,2.74,58.5,58.5,0,0,0,0,12.711,3.086,3.086,0,0,0,2.853,2.74c3.081.217,6.219.319,9.324.3a.425.425,0,0,1,.359.182,19.6,19.6,0,0,0,4.044,3.957,1.852,1.852,0,0,0,2.974-1.474v-2.516a.436.436,0,0,1,.4-.434l.254-.017h.02a3.086,3.086,0,0,0,2.853-2.745h0a58.507,58.507,0,0,0,0-12.705,3.084,3.084,0,0,0-2.853-2.74Zm1.2,15.265a1.428,1.428,0,0,1-1.32,1.271h-.02l-.247.017a2.1,2.1,0,0,0-1.953,2.09v2.516a.183.183,0,0,1-.107.173.18.18,0,0,1-.2-.019,18,18,0,0,1-3.686-3.584,2.09,2.09,0,0,0-1.719-.9h-.012c-3.064.016-6.159-.085-9.2-.3a1.421,1.421,0,0,1-1.213-.864,1.4,1.4,0,0,1-.106-.4,56.839,56.839,0,0,1,0-12.349,1.425,1.425,0,0,1,1.318-1.266,122.773,122.773,0,0,1,13.7-.193c1.144.047,2.3.112,3.444.193a1.426,1.426,0,0,1,1.319,1.266A56.849,56.849,0,0,1,22.95,316.853Z" transform="translate(-1.044 -267.954)"/>
        <path id="Trazado_1180751" data-name="Trazado 1180751" d="M57.573,367.851H46a.83.83,0,0,0,0,1.659H57.573a.83.83,0,0,0,0-1.659Z" transform="translate(-40.177 -327.157)"/>
        <path id="Trazado_1180752" data-name="Trazado 1180752" d="M53.471,395.417H46a.83.83,0,0,0,0,1.659h7.471a.83.83,0,0,0,0-1.659Z" transform="translate(-40.177 -351.673)"/>
      </g>
    </g>
  </g>
</svg>
