<svg xmlns="http://www.w3.org/2000/svg" xmlns:xlink="http://www.w3.org/1999/xlink" width="113" height="113" viewBox="0 0 113 113">
  <defs>
    <filter id="Trazado_982547" x="0" y="0" width="113" height="113" filterUnits="userSpaceOnUse">
      <feOffset dy="3" input="SourceAlpha"/>
      <feGaussianBlur stdDeviation="3" result="blur"/>
      <feFlood flood-opacity="0.161"/>
      <feComposite operator="in" in2="blur"/>
      <feComposite in="SourceGraphic"/>
    </filter>
  </defs>
  <g id="Grupo_1230106" data-name="Grupo 1230106" transform="translate(-1163.25 -14682.633)">
    <g id="Grupo_1224275" data-name="Grupo 1224275" transform="translate(0.25 13230)">
      <g id="Grupo_1224268" data-name="Grupo 1224268">
        <g id="Grupo_1223779" data-name="Grupo 1223779" transform="translate(0 -4451.031)">
          <g id="Grupo_1206283" data-name="Grupo 1206283" transform="translate(0 -3448.335)">
            <g id="Grupo_1203804" data-name="Grupo 1203804" transform="translate(-1 6552)">
              <g id="Grupo_1202426" data-name="Grupo 1202426" transform="translate(0.5 1464)">
                <g id="Grupo_1178323" data-name="Grupo 1178323" transform="translate(0 424)">
                  <g id="Grupo_1177681" data-name="Grupo 1177681" transform="translate(1172.5 918)">
                    <g id="Grupo_1172010" data-name="Grupo 1172010">
                      <g id="Grupo_1171046" data-name="Grupo 1171046">
                        <g id="Grupo_1148525" data-name="Grupo 1148525">
                          <g transform="matrix(1, 0, 0, 1, -9, -6)" filter="url(#Trazado_982547)">
                            <g id="Trazado_982547-2" data-name="Trazado 982547" transform="translate(9 6)" fill="#ffe6ef">
                              <path d="M 47.5 93.5 C 41.28937149047852 93.5 35.26533508300781 92.28397369384766 29.59518623352051 89.88570404052734 C 24.11771965026855 87.56893157958984 19.19813346862793 84.25196075439453 14.97309303283691 80.02691650390625 C 10.74804019927979 75.80186462402344 7.431066513061523 70.88229370117188 5.114293098449707 65.40481567382812 C 2.716026782989502 59.73468017578125 1.5 53.71062850952148 1.5 47.5 C 1.5 41.28937149047852 2.716026782989502 35.26533508300781 5.114293098449707 29.59518623352051 C 7.431066513061523 24.11771965026855 10.74804019927979 19.19813346862793 14.97309303283691 14.97309303283691 C 19.19813346862793 10.74804019927979 24.11771965026855 7.431066513061523 29.59518623352051 5.114293098449707 C 35.26533508300781 2.716026782989502 41.28937149047852 1.5 47.5 1.5 C 53.71062850952148 1.5 59.73468017578125 2.716026782989502 65.40481567382812 5.114293098449707 C 70.88229370117188 7.431066513061523 75.80186462402344 10.74804019927979 80.02691650390625 14.97309303283691 C 84.25196075439453 19.19813346862793 87.56893157958984 24.11771965026855 89.88570404052734 29.59518623352051 C 92.28397369384766 35.26533508300781 93.5 41.28937149047852 93.5 47.5 C 93.5 53.71062850952148 92.28397369384766 59.73468017578125 89.88570404052734 65.40481567382812 C 87.56893157958984 70.88229370117188 84.25196075439453 75.80186462402344 80.02691650390625 80.02691650390625 C 75.80186462402344 84.25196075439453 70.88229370117188 87.56893157958984 65.40481567382812 89.88570404052734 C 59.73468017578125 92.28397369384766 53.71062850952148 93.5 47.5 93.5 Z" stroke="none"/>
                              <path d="M 47.5 3 C 41.49121475219727 3 35.66376876831055 4.176155090332031 30.17950439453125 6.495796203613281 C 24.88084411621094 8.736953735351562 20.12152099609375 11.94598388671875 16.03375244140625 16.03375244140625 C 11.94598388671875 20.12152099609375 8.736953735351562 24.88084411621094 6.495796203613281 30.17950439453125 C 4.176155090332031 35.66376876831055 3 41.49121475219727 3 47.5 C 3 53.50878524780273 4.176155090332031 59.33623123168945 6.495796203613281 64.82049560546875 C 8.736953735351562 70.11915588378906 11.94598388671875 74.87847900390625 16.03375244140625 78.96624755859375 C 20.12152099609375 83.05401611328125 24.88084411621094 86.26304626464844 30.17950439453125 88.50419616699219 C 35.66376876831055 90.82384490966797 41.49121475219727 92 47.5 92 C 53.50878524780273 92 59.33623123168945 90.82384490966797 64.82049560546875 88.50419616699219 C 70.11915588378906 86.26304626464844 74.87847900390625 83.05401611328125 78.96624755859375 78.96624755859375 C 83.05401611328125 74.87847900390625 86.26304626464844 70.11915588378906 88.50419616699219 64.82049560546875 C 90.82384490966797 59.33623123168945 92 53.50878524780273 92 47.5 C 92 41.49121475219727 90.82384490966797 35.66376876831055 88.50419616699219 30.17950439453125 C 86.26304626464844 24.88084411621094 83.05401611328125 20.12152099609375 78.96624755859375 16.03375244140625 C 74.87847900390625 11.94598388671875 70.11915588378906 8.736953735351562 64.82049560546875 6.495796203613281 C 59.33623123168945 4.176155090332031 53.50878524780273 3 47.5 3 M 47.5 0 C 73.7335205078125 0 95 21.2664794921875 95 47.5 C 95 73.7335205078125 73.7335205078125 95 47.5 95 C 21.2664794921875 95 0 73.7335205078125 0 47.5 C 0 21.2664794921875 21.2664794921875 0 47.5 0 Z" stroke="none" fill="#8b5e6f"/>
                            </g>
                          </g>
                        </g>
                      </g>
                    </g>
                  </g>
                </g>
              </g>
            </g>
          </g>
        </g>
      </g>
    </g>
    <g id="Page-1" transform="translate(1190.251 14706.543)">
      <g id="_006---Write-Notes" data-name="006---Write-Notes">
        <path id="Path" d="M46.69,12.83a1,1,0,0,0,0,1.41L27.59,33.33l7.08,7.08L49,26.07V57a2.006,2.006,0,0,1-2,2H7a2.006,2.006,0,0,1-2-2V3A2.006,2.006,0,0,1,7,1H47a2.006,2.006,0,0,1,2,2v8.14a.969.969,0,0,0-.9.27Z" fill="#f5f5f5" fill-rule="evenodd"/>
        <path id="Path-2" data-name="Path" d="M46,57a2.006,2.006,0,0,1-2,2h3a2.006,2.006,0,0,0,2-2V26.07l-3,3Z" fill="#cfd8dc" fill-rule="evenodd"/>
        <path id="Path-3" data-name="Path" d="M49,3v8.14a.969.969,0,0,0-.9.27l-1.41,1.42a1,1,0,0,0,0,1.41l-.69.69V3a2.006,2.006,0,0,0-2-2h3A2.006,2.006,0,0,1,49,3Z" fill="#cfd8dc" fill-rule="evenodd"/>
        <circle id="Oval" cx="2" cy="2" r="2" transform="translate(8 28)" fill="#9e9e9e"/>
        <circle id="Oval-2" data-name="Oval" cx="2" cy="2" r="2" transform="translate(8 18)" fill="#9e9e9e"/>
        <circle id="Oval-3" data-name="Oval" cx="2" cy="2" r="2" transform="translate(8 8)" fill="#9e9e9e"/>
        <circle id="Oval-4" data-name="Oval" cx="2" cy="2" r="2" transform="translate(8 48)" fill="#9e9e9e"/>
        <circle id="Oval-5" data-name="Oval" cx="2" cy="2" r="2" transform="translate(8 38)" fill="#9e9e9e"/>
        <path id="Path-4" data-name="Path" d="M56.59,19.9l-1.42,1.41a1,1,0,0,1-1.41,0l-7.07-7.07a1,1,0,0,1,0-1.41l1.41-1.42a.969.969,0,0,1,.9-.27,1.014,1.014,0,0,1,.51.27l.71.71,5.66,5.66.71.71a1,1,0,0,1,0,1.41Z" fill="#7f8e94" fill-rule="evenodd"/>
        <path id="Path-5" data-name="Path" d="M58.71,14.95l-2.83,2.83-5.66-5.66,2.83-2.83a1,1,0,0,1,1.41,0l4.25,4.25a1,1,0,0,1,0,1.41Z" fill="#e91e63" fill-rule="evenodd"/>
        <path id="Path-6" data-name="Path" d="M58.71,13.54,54.46,9.29a1,1,0,0,0-1.41,0l-.795.8,3.455,3.45a1,1,0,0,1,0,1.41l-1.33,1.33,1.5,1.5,2.83-2.83a1,1,0,0,0,0-1.41Z" fill="#ad1457" fill-rule="evenodd"/>
        <path id="Path-7" data-name="Path" d="M53.76,21.31,49,26.07,34.67,40.41l-7.08-7.08,19.1-19.09Z" fill="#ffdf00" fill-rule="evenodd"/>
        <path id="Path-8" data-name="Path" d="M46.69,14.24l-1.5,1.5,5.57,5.57L46,26.07,33.169,38.909l1.5,1.5L49,26.07l4.76-4.76Z" fill="#fec108" fill-rule="evenodd"/>
        <path id="Path-9" data-name="Path" d="M34.67,40.41l-5.93,2.33-3.48-3.48,2.33-5.93Z" fill="#ffe0b2" fill-rule="evenodd"/>
        <path id="Path-10" data-name="Path" d="M28.74,42.74l-3.59,1.42a1,1,0,0,1-1.31-1.31l1.42-3.59Z" fill="#607d8b" fill-rule="evenodd"/>
        <g id="Grupo_1230105" data-name="Grupo 1230105">
          <path id="Shape" d="M1,49a1,1,0,0,0,0,2H4v6a3,3,0,0,0,3,3H47a3,3,0,0,0,3-3V26.485l3.953-3.953a1.97,1.97,0,0,0,.51.074,1.99,1.99,0,0,0,1.414-.585l1.414-1.415a2,2,0,0,0,0-2.828l2.121-2.121a2,2,0,0,0,0-2.828l-4.24-4.243a2,2,0,0,0-2.829,0l-2.121,2.121A2,2,0,0,0,50,10.526V3a3,3,0,0,0-3-3H7A3,3,0,0,0,4,3V9H1a1,1,0,0,0,0,2H4v8H1a1,1,0,0,0,0,2H4v8H1a1,1,0,0,0,0,2H4v8H1a1,1,0,0,0,0,2H4v8Zm24.63-7.956,1.32,1.32-2.179.856Zm3.35.522-2.55-2.55,1.536-3.9,4.913,4.913Zm5.685-2.574L32.544,36.87,43.857,25.556a1,1,0,0,0-1.414-1.414L31.13,35.456l-2.121-2.121L46.687,15.657l2.121,2.121-3.536,3.536a1,1,0,0,0,1.415,1.414l3.535-3.536,2.122,2.121Zm19.8-18.386-7.071-7.07,1.414-1.415.707.707,5.657,5.657.707.707ZM53.758,10,58,14.243l-2.121,2.121-4.243-4.243ZM6,41H7.184a3,3,0,1,0,0-2H6V31H7.184a3,3,0,1,0,0-2H6V21H7.184a3,3,0,1,0,0-2H6V11H7.184a3,3,0,1,0,0-2H6V3A1,1,0,0,1,7,2h8V3a1,1,0,0,0,2,0V2H47a1,1,0,0,1,1,1v7.3a1.98,1.98,0,0,0-.606.41l-1.415,1.414a1.951,1.951,0,0,0-.511,1.926L26.888,32.63a1.011,1.011,0,0,0-.224.341l-3.748,9.5a2,2,0,0,0,1.851,2.764,1.97,1.97,0,0,0,.747-.148l9.518-3.753a1,1,0,0,0,.34-.223L48,28.485V57a1,1,0,0,1-1,1H17V57a1,1,0,0,0-2,0v1H7a1,1,0,0,1-1-1V51H7.184a3,3,0,1,0,0-2H6Zm3-1a1,1,0,1,1,1,1A1,1,0,0,1,9,40ZM9,30a1,1,0,1,1,1,1A1,1,0,0,1,9,30ZM9,20a1,1,0,1,1,1,1A1,1,0,0,1,9,20ZM9,10a1,1,0,1,1,1,1A1,1,0,0,1,9,10ZM9,50a1,1,0,1,1,1,1A1,1,0,0,1,9,50Z"/>
          <path id="Path-11" data-name="Path" d="M16,9a1,1,0,0,0,1-1V7a1,1,0,0,0-2,0V8A1,1,0,0,0,16,9Z" fill-rule="evenodd"/>
          <path id="Path-12" data-name="Path" d="M16,14a1,1,0,0,0,1-1V12a1,1,0,0,0-2,0v1A1,1,0,0,0,16,14Z" fill-rule="evenodd"/>
          <path id="Path-13" data-name="Path" d="M16,19a1,1,0,0,0,1-1V17a1,1,0,0,0-2,0v1A1,1,0,0,0,16,19Z" fill-rule="evenodd"/>
          <path id="Path-14" data-name="Path" d="M16,24a1,1,0,0,0,1-1V22a1,1,0,0,0-2,0v1A1,1,0,0,0,16,24Z" fill-rule="evenodd"/>
          <path id="Path-15" data-name="Path" d="M16,29a1,1,0,0,0,1-1V27a1,1,0,0,0-2,0v1A1,1,0,0,0,16,29Z" fill-rule="evenodd"/>
          <path id="Path-16" data-name="Path" d="M16,34a1,1,0,0,0,1-1V32a1,1,0,0,0-2,0v1A1,1,0,0,0,16,34Z" fill-rule="evenodd"/>
          <path id="Path-17" data-name="Path" d="M16,39a1,1,0,0,0,1-1V37a1,1,0,0,0-2,0v1A1,1,0,0,0,16,39Z" fill-rule="evenodd"/>
          <path id="Path-18" data-name="Path" d="M16,44a1,1,0,0,0,1-1V42a1,1,0,0,0-2,0v1A1,1,0,0,0,16,44Z" fill-rule="evenodd"/>
          <path id="Path-19" data-name="Path" d="M16,49a1,1,0,0,0,1-1V47a1,1,0,0,0-2,0v1A1,1,0,0,0,16,49Z" fill-rule="evenodd"/>
          <path id="Path-20" data-name="Path" d="M16,54a1,1,0,0,0,1-1V52a1,1,0,0,0-2,0v1A1,1,0,0,0,16,54Z" fill-rule="evenodd"/>
          <path id="Path-21" data-name="Path" d="M22,10H43a1,1,0,0,0,0-2H22a1,1,0,0,0,0,2Z" fill-rule="evenodd"/>
          <path id="Path-22" data-name="Path" d="M22,16h4a1,1,0,0,0,0-2H22a1,1,0,0,0,0,2Z" fill-rule="evenodd"/>
          <path id="Path-23" data-name="Path" d="M39,14H30a1,1,0,0,0,0,2h9a1,1,0,0,0,0-2Z" fill-rule="evenodd"/>
          <path id="Path-24" data-name="Path" d="M22,22H32a1,1,0,0,0,0-2H22a1,1,0,0,0,0,2Z" fill-rule="evenodd"/>
          <path id="Path-25" data-name="Path" d="M22,28h3a1,1,0,0,0,0-2H22a1,1,0,0,0,0,2Z" fill-rule="evenodd"/>
        </g>
      </g>
    </g>
  </g>
</svg>
