<svg xmlns="http://www.w3.org/2000/svg" xmlns:xlink="http://www.w3.org/1999/xlink" width="108" height="108" viewBox="0 0 108 108">
  <defs>
    <filter id="Trazado_982547" x="0" y="0" width="108" height="108" filterUnits="userSpaceOnUse">
      <feOffset dy="3" input="SourceAlpha"/>
      <feGaussianBlur stdDeviation="3" result="blur"/>
      <feFlood flood-opacity="0.161"/>
      <feComposite operator="in" in2="blur"/>
      <feComposite in="SourceGraphic"/>
    </filter>
  </defs>
  <g id="Grupo_1228718" data-name="Grupo 1228718" transform="translate(-197.01 -1494)">
    <g id="Grupo_1227891" data-name="Grupo 1227891" transform="translate(0 -2978)">
      <g id="Grupo_1203964" data-name="Grupo 1203964" transform="translate(7 2516.532)">
        <g id="Grupo_1203625" data-name="Grupo 1203625" transform="translate(-14.49 905.468)">
          <g id="Grupo_1178314" data-name="Grupo 1178314" transform="translate(213.5 1056)">
            <g id="Grupo_1173988" data-name="Grupo 1173988">
              <g id="Grupo_1172010" data-name="Grupo 1172010">
                <g id="Grupo_1171046" data-name="Grupo 1171046">
                  <g id="Grupo_1148525" data-name="Grupo 1148525">
                    <g transform="matrix(1, 0, 0, 1, -9, -6)" filter="url(#Trazado_982547)">
                      <g id="Trazado_982547-2" data-name="Trazado 982547" transform="translate(9 6)" fill="#f4fbfc">
                        <path d="M 45 88.5 C 39.12687683105469 88.5 33.43022537231445 87.35007476806641 28.06830024719238 85.08217620849609 C 22.88852500915527 82.89131164550781 18.23629951477051 79.75458526611328 14.2408504486084 75.75914764404297 C 10.24541282653809 71.76370239257812 7.108687400817871 67.11147308349609 4.917825222015381 61.93170166015625 C 2.649924993515015 56.56977462768555 1.5 50.87312316894531 1.5 45 C 1.5 39.12687683105469 2.649924993515015 33.43022537231445 4.917825222015381 28.06830024719238 C 7.108687400817871 22.88852500915527 10.24541282653809 18.23629951477051 14.2408504486084 14.2408504486084 C 18.23629951477051 10.24541282653809 22.88852500915527 7.108687400817871 28.06830024719238 4.917825222015381 C 33.43022537231445 2.649924993515015 39.12687683105469 1.5 45 1.5 C 50.87312316894531 1.5 56.56977462768555 2.649924993515015 61.93170166015625 4.917825222015381 C 67.11147308349609 7.108687400817871 71.76370239257812 10.24541282653809 75.75914764404297 14.2408504486084 C 79.75458526611328 18.23629951477051 82.89131164550781 22.88852500915527 85.08217620849609 28.06830024719238 C 87.35007476806641 33.43022537231445 88.5 39.12687683105469 88.5 45 C 88.5 50.87312316894531 87.35007476806641 56.56977462768555 85.08217620849609 61.93170166015625 C 82.89131164550781 67.11147308349609 79.75458526611328 71.76370239257812 75.75914764404297 75.75914764404297 C 71.76370239257812 79.75458526611328 67.11147308349609 82.89131164550781 61.93170166015625 85.08217620849609 C 56.56977462768555 87.35007476806641 50.87312316894531 88.5 45 88.5 Z" stroke="none"/>
                        <path d="M 45 3 C 39.32871246337891 3 33.82865524291992 4.110054016113281 28.65262985229492 6.299339294433594 C 23.65165710449219 8.414573669433594 19.15968322753906 11.44334411621094 15.301513671875 15.301513671875 C 11.44334411621094 19.15968322753906 8.414573669433594 23.65165710449219 6.299339294433594 28.65262985229492 C 4.110054016113281 33.82865524291992 3 39.32871246337891 3 45 C 3 50.67128753662109 4.110054016113281 56.17134475708008 6.299339294433594 61.34737396240234 C 8.414573669433594 66.34834289550781 11.44334411621094 70.84031677246094 15.301513671875 74.698486328125 C 19.15968322753906 78.55665588378906 23.65165710449219 81.58542633056641 28.65262985229492 83.70066070556641 C 33.82865524291992 85.88994598388672 39.32871246337891 87 45 87 C 50.67128753662109 87 56.17134475708008 85.88994598388672 61.34737396240234 83.70066070556641 C 66.34834289550781 81.58542633056641 70.84031677246094 78.55665588378906 74.698486328125 74.698486328125 C 78.55665588378906 70.84031677246094 81.58542633056641 66.34834289550781 83.70066070556641 61.34737396240234 C 85.88994598388672 56.17134475708008 87 50.67128753662109 87 45 C 87 39.32871246337891 85.88994598388672 33.82865524291992 83.70066070556641 28.65262985229492 C 81.58542633056641 23.65165710449219 78.55665588378906 19.15968322753906 74.698486328125 15.301513671875 C 70.84031677246094 11.44334411621094 66.34834289550781 8.414573669433594 61.34737396240234 6.299339294433594 C 56.17134475708008 4.110054016113281 50.67128753662109 3 45 3 M 45 0 C 69.85281372070312 0 90 20.14718627929688 90 45 C 90 69.85281372070312 69.85281372070312 90 45 90 C 20.14718627929688 90 0 69.85281372070312 0 45 C 0 20.14718627929688 20.14718627929688 0 45 0 Z" stroke="none" fill="#52797f"/>
                      </g>
                    </g>
                  </g>
                </g>
              </g>
            </g>
          </g>
        </g>
      </g>
    </g>
    <g id="neurona" transform="translate(228.441 1510.784)">
      <path id="Trazado_1179811" data-name="Trazado 1179811" d="M100.746,80.248l7.532,7.532,10.289-2.757,2.757-10.289L113.791,67.2,103.5,69.96Zm0,0" transform="translate(-86.848 -58.22)" fill="#fd9e28"/>
      <path id="Trazado_1179812" data-name="Trazado 1179812" d="M119.252,95.875l4.781,4.782a1.337,1.337,0,0,0,1.291.346l6.532-1.75a1.338,1.338,0,0,0,.945-.945l1.75-6.532a1.336,1.336,0,0,0-.346-1.291L129.424,85.7a1.335,1.335,0,0,0-1.291-.346L121.6,87.107a1.336,1.336,0,0,0-.945.945l-1.75,6.531A1.336,1.336,0,0,0,119.252,95.875Zm0,0" transform="translate(-102.542 -73.908)" fill="#fdb659"/>
      <path id="Trazado_1179813" data-name="Trazado 1179813" d="M155.41,117.554l1.267,1.266a3.045,3.045,0,1,1-4.306,4.306L151.1,121.86a3.045,3.045,0,1,1,4.306-4.306Zm0,0" transform="translate(-129.704 -101.069)" fill="#fc3e81"/>
      <path id="Trazado_1179814" data-name="Trazado 1179814" d="M226.744,189.678l3.125,3.125a2.762,2.762,0,0,1-3.906,3.906l-3.125-3.125a2.762,2.762,0,1,1,3.906-3.906Zm0,0" transform="translate(-191.922 -163.625)" fill="#fede93"/>
      <path id="Trazado_1179815" data-name="Trazado 1179815" d="M271.326,244.922l1.807,4.033a2.762,2.762,0,0,1-5.041,2.259l-1.807-4.032a2.762,2.762,0,0,1,5.041-2.259Zm0,0" transform="translate(-230.053 -210.772)" fill="#fdb659"/>
      <path id="Trazado_1179816" data-name="Trazado 1179816" d="M282.194,314.662l-.8,4.346a2.761,2.761,0,1,1-5.431-1l.8-4.346a2.761,2.761,0,1,1,5.431,1Zm0,0" transform="translate(-238.605 -269.779)" fill="#fd9e28"/>
      <path id="Trazado_1179817" data-name="Trazado 1179817" d="M240.534,380.216l-3.366,2.864a2.762,2.762,0,0,1-3.579-4.207l3.366-2.864a2.762,2.762,0,0,1,3.579,4.207Zm0,0" transform="translate(-201.095 -325.183)" fill="#fd8724"/>
      <g id="Grupo_1228717" data-name="Grupo 1228717" transform="translate(1.502 46.422)">
        <path id="Trazado_1179818" data-name="Trazado 1179818" d="M11.577,400.863a1.789,1.789,0,1,1-1.789-1.789A1.789,1.789,0,0,1,11.577,400.863Zm0,0" transform="translate(-8 -392.159)" fill="#fc3e81"/>
        <path id="Trazado_1179819" data-name="Trazado 1179819" d="M37.679,447.808a1.789,1.789,0,1,1-1.789-1.789A1.789,1.789,0,0,1,37.679,447.808Zm0,0" transform="translate(-30.613 -432.83)" fill="#fc3e81"/>
        <path id="Trazado_1179820" data-name="Trazado 1179820" d="M137.394,349.121a1.789,1.789,0,1,1-1.789-1.789A1.789,1.789,0,0,1,137.394,349.121Zm0,0" transform="translate(-117.001 -347.332)" fill="#fc3e81"/>
        <path id="Trazado_1179821" data-name="Trazado 1179821" d="M130.515,479.523a1.789,1.789,0,1,1-1.789-1.789A1.789,1.789,0,0,1,130.515,479.523Zm0,0" transform="translate(-111.041 -460.306)" fill="#fc3e81"/>
      </g>
      <path id="Trazado_1179822" data-name="Trazado 1179822" d="M168.178,10.808l2.64-.707,1.927,1.928a1,1,0,0,0,1.418-1.417l-1.818-1.818,1.228-2.363,2.075-2.075a1,1,0,0,0,.279-.54l.45-2.643A1,1,0,0,0,174.4.836L174,3.164l-.862.862L172.61,2.62a1,1,0,0,0-1.875.711l.924,2.436-1.228,2.362-2.773.743a1,1,0,1,0,.519,1.936Zm0,0" transform="translate(-144.174 0)"/>
      <path id="Trazado_1179823" data-name="Trazado 1179823" d="M143.908,116.085l1.267,1.266a4.047,4.047,0,0,0,5.723-5.723l-1.266-1.266a4.047,4.047,0,0,0-5.724,5.723Zm1.418-4.306a2.045,2.045,0,0,1,2.889,0l1.266,1.266a2.042,2.042,0,1,1-2.888,2.889l-1.267-1.266A2.044,2.044,0,0,1,145.326,111.779Zm0,0" transform="translate(-123.217 -94.585)"/>
      <path id="Trazado_1179824" data-name="Trazado 1179824" d="M236.468,202.3h-.009a1.007,1.007,0,1,0,.009,0Zm0,0" transform="translate(-203.559 -175.265)"/>
      <path id="Trazado_1179825" data-name="Trazado 1179825" d="M281.314,258.158a1,1,0,0,0-.582-1.292l-.008,0a1,1,0,1,0,.59,1.3Zm0,0" transform="translate(-241.599 -222.475)"/>
      <path id="Trazado_1179826" data-name="Trazado 1179826" d="M43.974,60.558a3.81,3.81,0,0,0-.485-.574,3.78,3.78,0,0,0,.505-3.9L42.187,52.05a3.759,3.759,0,0,0-2.465-2.1,3.769,3.769,0,0,0-1.067-3.176L35.53,43.655a3.744,3.744,0,0,0-2.1-1.059L35.3,35.634l2.258-.644,3.325,2.863a1,1,0,0,0,1.308-1.519L39.2,33.762l1.157-1.389,2.237.652a1,1,0,0,0,.561-1.925l-2.867-.835a1,1,0,0,0-1.05.321L37.227,33l-2.46.7-1.692-1.692a1,1,0,1,0-1.417,1.417l1.7,1.7-2.085,7.783a3.758,3.758,0,0,0-1.79,1.768l-7.753,2.077L15.016,40.04l2.457-9.171,2.312-.62a1,1,0,0,0-.519-1.936l-2.312.619-2.895-2.895.711-1.253a1,1,0,0,0,.131-.494v-2.15a1,1,0,1,0-2,0v1.886l-.578,1.02-2.158-.552a1,1,0,0,0-.5,1.942l2.634.675,3.24,3.24L13.1,39.441l-3.829.551-.86-1.379a1,1,0,0,0-.948-.467l-2.292.224a1,1,0,1,0,.195,1.995L7.04,40.2l.456.73L6.313,42.114a1,1,0,1,0,1.418,1.417l1.51-1.51,4.3-.619,6.737,6.737-1.894,5.6-3.172,1.241a1,1,0,1,0,.73,1.867l2.587-1.012.612,2.1a1,1,0,0,0,.962.722.992.992,0,0,0,.281-.041,1,1,0,0,0,.681-1.243l-.831-2.843,1.97-5.827,6.936-1.859a3.749,3.749,0,0,0,1.064,2.136L33.332,52.1a3.738,3.738,0,0,0,1.693.977,3.742,3.742,0,0,0,.292,2.05l1.807,4.033a3.766,3.766,0,0,0,.822,1.164,3.736,3.736,0,0,0-.775,1.682l-.8,4.346a3.753,3.753,0,0,0,0,1.344,3.762,3.762,0,0,0-1.155.673l-3.366,2.864a3.77,3.77,0,0,0-1.215,3.774,9.674,9.674,0,0,1-8.94-6.192,2.791,2.791,0,1,0-1.967.466,11.681,11.681,0,0,0,9.544,7.644,11.957,11.957,0,0,1-6.306,1.782H20.619l-.8-1.11A12.477,12.477,0,0,0,9.725,72.434H5.892a2.791,2.791,0,1,0,0,2H9.725a10.469,10.469,0,0,1,8.421,4.269H9.381a2.79,2.79,0,1,0,0,2h13.58A13.947,13.947,0,0,0,30.4,78.585a9.655,9.655,0,0,1-8.484,4.791,2.8,2.8,0,1,0-.335,2q.243.01.484.01a11.666,11.666,0,0,0,10.97-7.728,3.784,3.784,0,0,0,.944.2q.155.013.309.013a3.736,3.736,0,0,0,2.433-.9l.65-.553a1,1,0,0,0-1.3-1.527l-.65.553a1.759,1.759,0,0,1-2.28-2.68L36.51,69.9a1.76,1.76,0,0,1,2.63,2.277,1,1,0,0,0,1.7,1.068,3.748,3.748,0,0,0,.521-2.67,3.759,3.759,0,0,0,2.416-2.853l.8-4.346a3.74,3.74,0,0,0-.6-2.817ZM20.106,65.735a.786.786,0,1,1-.786.786A.787.787,0,0,1,20.106,65.735ZM3.291,74.223a.786.786,0,1,1,.786-.786A.787.787,0,0,1,3.291,74.223ZM6.779,80.5a.786.786,0,1,1,.786-.786A.787.787,0,0,1,6.779,80.5Zm12.407,4.239a.786.786,0,1,1,.786-.786A.787.787,0,0,1,19.187,84.736ZM34.75,50.685,31.624,47.56a1.759,1.759,0,0,1,2.488-2.488L37.237,48.2a1.763,1.763,0,0,1,.428,1.791,3.723,3.723,0,0,0-1.815,1.207,1.736,1.736,0,0,1-1.1-.51Zm2.4,3.625a1.76,1.76,0,0,1,3.211-1.439L42.165,56.9a1.765,1.765,0,0,1-.524,2.106l-.085-.018a3.739,3.739,0,0,0-1.9.141,1.736,1.736,0,0,1-.7-.79Zm5.457,8.7-.8,4.346a1.759,1.759,0,0,1-1.328,1.394,3.734,3.734,0,0,0-2.086-1.2,1.749,1.749,0,0,1-.046-.83l.8-4.346a1.759,1.759,0,1,1,3.46.639Zm0,0" transform="translate(0 -18.311)"/>
      <path id="Trazado_1179827" data-name="Trazado 1179827" d="M296.844,325.356a1,1,0,1,0,.005.007Zm0,0" transform="translate(-255.162 -281.504)"/>
      <path id="Trazado_1179828" data-name="Trazado 1179828" d="M271.749,388.766a1,1,0,0,0-.153,2l.077,0a1,1,0,0,0,1-.926v-.008A1,1,0,0,0,271.749,388.766Zm0,0" transform="translate(-234.062 -336.803)"/>
      <path id="Trazado_1179829" data-name="Trazado 1179829" d="M171.134,138.719c.031,0,.062,0,.092,0a1,1,0,0,0,1-.911V137.8a1,1,0,1,0-1.091.915Zm0,0" transform="translate(-147.039 -118.441)"/>
    </g>
  </g>
</svg>
