<svg xmlns="http://www.w3.org/2000/svg" xmlns:xlink="http://www.w3.org/1999/xlink" width="108" height="108" viewBox="0 0 108 108">
  <defs>
    <filter id="Trazado_982547" x="0" y="0" width="108" height="108" filterUnits="userSpaceOnUse">
      <feOffset dy="3" input="SourceAlpha"/>
      <feGaussianBlur stdDeviation="3" result="blur"/>
      <feFlood flood-opacity="0.161"/>
      <feComposite operator="in" in2="blur"/>
      <feComposite in="SourceGraphic"/>
    </filter>
  </defs>
  <g id="Grupo_1228734" data-name="Grupo 1228734" transform="translate(-827.01 -1494)">
    <g id="Grupo_1227892" data-name="Grupo 1227892" transform="translate(630 -2978)">
      <g id="Grupo_1203964" data-name="Grupo 1203964" transform="translate(7 2516.532)">
        <g id="Grupo_1203625" data-name="Grupo 1203625" transform="translate(-14.49 905.468)">
          <g id="Grupo_1178314" data-name="Grupo 1178314" transform="translate(213.5 1056)">
            <g id="Grupo_1173988" data-name="Grupo 1173988">
              <g id="Grupo_1172010" data-name="Grupo 1172010">
                <g id="Grupo_1171046" data-name="Grupo 1171046">
                  <g id="Grupo_1148525" data-name="Grupo 1148525">
                    <g transform="matrix(1, 0, 0, 1, -9, -6)" filter="url(#Trazado_982547)">
                      <g id="Trazado_982547-2" data-name="Trazado 982547" transform="translate(9 6)" fill="#f4fbfc">
                        <path d="M 45 88.5 C 39.12687683105469 88.5 33.43022537231445 87.35007476806641 28.06830024719238 85.08217620849609 C 22.88852500915527 82.89131164550781 18.23629951477051 79.75458526611328 14.2408504486084 75.75914764404297 C 10.24541282653809 71.76370239257812 7.108687400817871 67.11147308349609 4.917825222015381 61.93170166015625 C 2.649924993515015 56.56977462768555 1.5 50.87312316894531 1.5 45 C 1.5 39.12687683105469 2.649924993515015 33.43022537231445 4.917825222015381 28.06830024719238 C 7.108687400817871 22.88852500915527 10.24541282653809 18.23629951477051 14.2408504486084 14.2408504486084 C 18.23629951477051 10.24541282653809 22.88852500915527 7.108687400817871 28.06830024719238 4.917825222015381 C 33.43022537231445 2.649924993515015 39.12687683105469 1.5 45 1.5 C 50.87312316894531 1.5 56.56977462768555 2.649924993515015 61.93170166015625 4.917825222015381 C 67.11147308349609 7.108687400817871 71.76370239257812 10.24541282653809 75.75914764404297 14.2408504486084 C 79.75458526611328 18.23629951477051 82.89131164550781 22.88852500915527 85.08217620849609 28.06830024719238 C 87.35007476806641 33.43022537231445 88.5 39.12687683105469 88.5 45 C 88.5 50.87312316894531 87.35007476806641 56.56977462768555 85.08217620849609 61.93170166015625 C 82.89131164550781 67.11147308349609 79.75458526611328 71.76370239257812 75.75914764404297 75.75914764404297 C 71.76370239257812 79.75458526611328 67.11147308349609 82.89131164550781 61.93170166015625 85.08217620849609 C 56.56977462768555 87.35007476806641 50.87312316894531 88.5 45 88.5 Z" stroke="none"/>
                        <path d="M 45 3 C 39.32871246337891 3 33.82865524291992 4.110054016113281 28.65262985229492 6.299339294433594 C 23.65165710449219 8.414573669433594 19.15968322753906 11.44334411621094 15.301513671875 15.301513671875 C 11.44334411621094 19.15968322753906 8.414573669433594 23.65165710449219 6.299339294433594 28.65262985229492 C 4.110054016113281 33.82865524291992 3 39.32871246337891 3 45 C 3 50.67128753662109 4.110054016113281 56.17134475708008 6.299339294433594 61.34737396240234 C 8.414573669433594 66.34834289550781 11.44334411621094 70.84031677246094 15.301513671875 74.698486328125 C 19.15968322753906 78.55665588378906 23.65165710449219 81.58542633056641 28.65262985229492 83.70066070556641 C 33.82865524291992 85.88994598388672 39.32871246337891 87 45 87 C 50.67128753662109 87 56.17134475708008 85.88994598388672 61.34737396240234 83.70066070556641 C 66.34834289550781 81.58542633056641 70.84031677246094 78.55665588378906 74.698486328125 74.698486328125 C 78.55665588378906 70.84031677246094 81.58542633056641 66.34834289550781 83.70066070556641 61.34737396240234 C 85.88994598388672 56.17134475708008 87 50.67128753662109 87 45 C 87 39.32871246337891 85.88994598388672 33.82865524291992 83.70066070556641 28.65262985229492 C 81.58542633056641 23.65165710449219 78.55665588378906 19.15968322753906 74.698486328125 15.301513671875 C 70.84031677246094 11.44334411621094 66.34834289550781 8.414573669433594 61.34737396240234 6.299339294433594 C 56.17134475708008 4.110054016113281 50.67128753662109 3 45 3 M 45 0 C 69.85281372070312 0 90 20.14718627929688 90 45 C 90 69.85281372070312 69.85281372070312 90 45 90 C 20.14718627929688 90 0 69.85281372070312 0 45 C 0 20.14718627929688 20.14718627929688 0 45 0 Z" stroke="none" fill="#52797f"/>
                      </g>
                    </g>
                  </g>
                </g>
              </g>
            </g>
          </g>
        </g>
      </g>
    </g>
    <g id="neurona_1_" data-name="neurona (1)" transform="translate(849.995 1514.624)">
      <g id="Grupo_1228732" data-name="Grupo 1228732" transform="translate(7.838 7.225)">
        <g id="Grupo_1228731" data-name="Grupo 1228731">
          <g id="Grupo_1228719" data-name="Grupo 1228719">
            <path id="Trazado_1179830" data-name="Trazado 1179830" d="M72.254,60.891,60.671,67.578V80.953L72.254,87.64l11.583-6.687V67.578Z" transform="translate(-60.671 -60.891)" fill="#94b7f7"/>
          </g>
          <g id="Grupo_1228721" data-name="Grupo 1228721" transform="translate(0 5.146)">
            <g id="Grupo_1228720" data-name="Grupo 1228720">
              <path id="Trazado_1179831" data-name="Trazado 1179831" d="M83.837,119.175v-3.083L72.254,122.78l-8.913-5.146V104.259l-2.67,1.541v13.375l11.583,6.687Z" transform="translate(-60.671 -104.259)" fill="#5b92f2"/>
            </g>
          </g>
          <g id="Grupo_1228722" data-name="Grupo 1228722" transform="translate(6.243 8.035)">
            <circle id="Elipse_12830" data-name="Elipse 12830" cx="5.339" cy="5.339" r="5.339" fill="#f88fa4"/>
          </g>
          <g id="Grupo_1228723" data-name="Grupo 1228723" transform="translate(6.243 8.757)">
            <path id="Trazado_1179832" data-name="Trazado 1179832" d="M120.567,142.708a5.338,5.338,0,0,1-4.618-8.018,5.339,5.339,0,1,0,7.3,7.3A5.313,5.313,0,0,1,120.567,142.708Z" transform="translate(-113.289 -134.69)" fill="#f05475"/>
          </g>
          <g id="Grupo_1228724" data-name="Grupo 1228724" transform="translate(23.166 19.691)">
            <path id="Trazado_1179833" data-name="Trazado 1179833" d="M267.487,226.843,255.9,233.53V246.9l11.583,6.687L279.07,246.9V233.53Z" transform="translate(-255.904 -226.843)" fill="#94b7f7"/>
          </g>
          <g id="Grupo_1228726" data-name="Grupo 1228726" transform="translate(23.154 24.848)">
            <g id="Grupo_1228725" data-name="Grupo 1228725">
              <path id="Trazado_1179834" data-name="Trazado 1179834" d="M278.975,285.223V282.14l-11.583,6.688-8.913-5.146V270.307l-2.67,1.541v13.375l11.583,6.687Z" transform="translate(-255.809 -270.307)" fill="#5b92f2"/>
            </g>
          </g>
          <g id="Grupo_1228727" data-name="Grupo 1228727" transform="translate(29.409 27.727)">
            <circle id="Elipse_12831" data-name="Elipse 12831" cx="5.339" cy="5.339" r="5.339" fill="#f88fa4"/>
          </g>
          <g id="Grupo_1228728" data-name="Grupo 1228728" transform="translate(29.409 28.448)">
            <path id="Trazado_1179835" data-name="Trazado 1179835" d="M315.8,308.66a5.338,5.338,0,0,1-4.618-8.018,5.339,5.339,0,1,0,7.3,7.3A5.312,5.312,0,0,1,315.8,308.66Z" transform="translate(-308.523 -300.642)" fill="#f05475"/>
          </g>
          <g id="Grupo_1228729" data-name="Grupo 1228729" transform="translate(2.67 8.022)">
            <path id="Trazado_1179836" data-name="Trazado 1179836" d="M83.17,128.5h1.78v1.78H83.17Z" transform="translate(-83.17 -128.502)" fill="#fff"/>
          </g>
          <g id="Grupo_1228730" data-name="Grupo 1228730" transform="translate(25.822 27.634)">
            <path id="Trazado_1179837" data-name="Trazado 1179837" d="M278.294,293.779h1.78v1.78h-1.78Z" transform="translate(-278.294 -293.779)" fill="#fff"/>
          </g>
        </g>
      </g>
      <g id="Grupo_1228733" data-name="Grupo 1228733" transform="translate(0.725 0)">
        <path id="Trazado_1179838" data-name="Trazado 1179838" d="M105.913,126.627a6.232,6.232,0,1,0,6.232-6.232,6.239,6.239,0,0,0-6.232,6.232Zm10.684,0a4.452,4.452,0,1,1-4.452-4.452A4.457,4.457,0,0,1,116.6,126.627Z" transform="translate(-93.432 -106.109)"/>
        <path id="Trazado_1179839" data-name="Trazado 1179839" d="M307.269,286.555a6.232,6.232,0,1,0,6.232,6.232A6.24,6.24,0,0,0,307.269,286.555Zm0,10.684a4.452,4.452,0,1,1,4.452-4.452A4.457,4.457,0,0,1,307.269,297.239Z" transform="translate(-265.403 -252.554)"/>
        <path id="Trazado_1179840" data-name="Trazado 1179840" d="M60.844,47.137l-3.084.826-2.689-1.553V34.057L57.76,32.5l3.084.826.461-1.72-2.58-.691.691-2.58-1.72-.461-.826,3.084L54.18,32.515l-4.435-2.56a9.794,9.794,0,0,1,9.776-9.449V18.725A11.5,11.5,0,0,0,53.1,20.673a7.176,7.176,0,0,0-6.97-5.51v1.781a5.39,5.39,0,0,1,5.37,5.019,11.541,11.541,0,0,0-3.472,7l-4.551-2.627V23.233l2.258-2.258L44.48,19.716,42.591,21.6,40.7,19.716l-1.259,1.259L41.7,23.233v3.106l-5.2,3-4.583-2.646V14.341l2.689-1.553,3.084.826.461-1.72-2.58-.691.691-2.58-1.72-.461-.826,3.084L31.027,12.8,26.142,9.978l-.89,1.542,4.886,2.821V26.695l-10.7,6.177L8.74,26.695V14.341l10.7-6.177,4.12,2.379L24.449,9l-4.12-2.379V3.517l2.258-2.258L21.327,0,19.439,1.889,17.55,0,16.291,1.259l2.258,2.258V6.622L7.85,12.8,5.16,11.246,4.334,8.162l-1.72.461.691,2.58-2.58.691.461,1.72,3.084-.826,2.689,1.553V26.695L4.27,28.248l-3.084-.826-.461,1.72,2.58.691-.691,2.58,1.72.461L5.16,29.79,7.85,28.237l4.564,2.635A9.741,9.741,0,0,1,2.7,40.094v1.781A11.441,11.441,0,0,0,8.972,40.01a7.069,7.069,0,0,0,6.865,5.426V43.655a5.283,5.283,0,0,1-5.263-4.906,11.491,11.491,0,0,0,3.537-6.9l4.437,2.562v3.105l-2.258,2.258,1.259,1.259,1.889-1.889,1.889,1.889,1.259-1.259-2.258-2.257V34.414l5.2-3,4.583,2.646V46.411l-2.689,1.553-3.084-.826-.461,1.72,2.58.691-.691,2.58,1.72.461.826-3.084L31,47.953,41.7,54.13v3.105l-2.258,2.258L40.7,60.752l1.889-1.889,1.889,1.889,1.259-1.259-2.258-2.258V54.13L47.511,51.8l-.89-1.542-4.029,2.326-10.7-6.177V34.057l10.7-6.177,10.7,6.177V46.411l-4.964,2.866.89,1.542,4.964-2.866,2.689,1.553.826,3.084,1.72-.461-.691-2.58,2.58-.691ZM31,32.515,27.31,30.383l3.717-2.146,3.692,2.132Z" transform="translate(-0.725 0)"/>
      </g>
    </g>
  </g>
</svg>
