<svg xmlns="http://www.w3.org/2000/svg" xmlns:xlink="http://www.w3.org/1999/xlink" width="108" height="108" viewBox="0 0 108 108">
  <defs>
    <filter id="Trazado_982547" x="0" y="0" width="108" height="108" filterUnits="userSpaceOnUse">
      <feOffset dy="3" input="SourceAlpha"/>
      <feGaussianBlur stdDeviation="3" result="blur"/>
      <feFlood flood-opacity="0.161"/>
      <feComposite operator="in" in2="blur"/>
      <feComposite in="SourceGraphic"/>
    </filter>
  </defs>
  <g id="Grupo_1228738" data-name="Grupo 1228738" transform="translate(-197.01 -2250)">
    <g id="Grupo_1227893" data-name="Grupo 1227893" transform="translate(0 -2222)">
      <g id="Grupo_1203964" data-name="Grupo 1203964" transform="translate(7 2516.532)">
        <g id="Grupo_1203625" data-name="Grupo 1203625" transform="translate(-14.49 905.468)">
          <g id="Grupo_1178314" data-name="Grupo 1178314" transform="translate(213.5 1056)">
            <g id="Grupo_1173988" data-name="Grupo 1173988">
              <g id="Grupo_1172010" data-name="Grupo 1172010">
                <g id="Grupo_1171046" data-name="Grupo 1171046">
                  <g id="Grupo_1148525" data-name="Grupo 1148525">
                    <g transform="matrix(1, 0, 0, 1, -9, -6)" filter="url(#Trazado_982547)">
                      <g id="Trazado_982547-2" data-name="Trazado 982547" transform="translate(9 6)" fill="#f4fbfc">
                        <path d="M 45 88.5 C 39.12687683105469 88.5 33.43022537231445 87.35007476806641 28.06830024719238 85.08217620849609 C 22.88852500915527 82.89131164550781 18.23629951477051 79.75458526611328 14.2408504486084 75.75914764404297 C 10.24541282653809 71.76370239257812 7.108687400817871 67.11147308349609 4.917825222015381 61.93170166015625 C 2.649924993515015 56.56977462768555 1.5 50.87312316894531 1.5 45 C 1.5 39.12687683105469 2.649924993515015 33.43022537231445 4.917825222015381 28.06830024719238 C 7.108687400817871 22.88852500915527 10.24541282653809 18.23629951477051 14.2408504486084 14.2408504486084 C 18.23629951477051 10.24541282653809 22.88852500915527 7.108687400817871 28.06830024719238 4.917825222015381 C 33.43022537231445 2.649924993515015 39.12687683105469 1.5 45 1.5 C 50.87312316894531 1.5 56.56977462768555 2.649924993515015 61.93170166015625 4.917825222015381 C 67.11147308349609 7.108687400817871 71.76370239257812 10.24541282653809 75.75914764404297 14.2408504486084 C 79.75458526611328 18.23629951477051 82.89131164550781 22.88852500915527 85.08217620849609 28.06830024719238 C 87.35007476806641 33.43022537231445 88.5 39.12687683105469 88.5 45 C 88.5 50.87312316894531 87.35007476806641 56.56977462768555 85.08217620849609 61.93170166015625 C 82.89131164550781 67.11147308349609 79.75458526611328 71.76370239257812 75.75914764404297 75.75914764404297 C 71.76370239257812 79.75458526611328 67.11147308349609 82.89131164550781 61.93170166015625 85.08217620849609 C 56.56977462768555 87.35007476806641 50.87312316894531 88.5 45 88.5 Z" stroke="none"/>
                        <path d="M 45 3 C 39.32871246337891 3 33.82865524291992 4.110054016113281 28.65262985229492 6.299339294433594 C 23.65165710449219 8.414573669433594 19.15968322753906 11.44334411621094 15.301513671875 15.301513671875 C 11.44334411621094 19.15968322753906 8.414573669433594 23.65165710449219 6.299339294433594 28.65262985229492 C 4.110054016113281 33.82865524291992 3 39.32871246337891 3 45 C 3 50.67128753662109 4.110054016113281 56.17134475708008 6.299339294433594 61.34737396240234 C 8.414573669433594 66.34834289550781 11.44334411621094 70.84031677246094 15.301513671875 74.698486328125 C 19.15968322753906 78.55665588378906 23.65165710449219 81.58542633056641 28.65262985229492 83.70066070556641 C 33.82865524291992 85.88994598388672 39.32871246337891 87 45 87 C 50.67128753662109 87 56.17134475708008 85.88994598388672 61.34737396240234 83.70066070556641 C 66.34834289550781 81.58542633056641 70.84031677246094 78.55665588378906 74.698486328125 74.698486328125 C 78.55665588378906 70.84031677246094 81.58542633056641 66.34834289550781 83.70066070556641 61.34737396240234 C 85.88994598388672 56.17134475708008 87 50.67128753662109 87 45 C 87 39.32871246337891 85.88994598388672 33.82865524291992 83.70066070556641 28.65262985229492 C 81.58542633056641 23.65165710449219 78.55665588378906 19.15968322753906 74.698486328125 15.301513671875 C 70.84031677246094 11.44334411621094 66.34834289550781 8.414573669433594 61.34737396240234 6.299339294433594 C 56.17134475708008 4.110054016113281 50.67128753662109 3 45 3 M 45 0 C 69.85281372070312 0 90 20.14718627929688 90 45 C 90 69.85281372070312 69.85281372070312 90 45 90 C 20.14718627929688 90 0 69.85281372070312 0 45 C 0 20.14718627929688 20.14718627929688 0 45 0 Z" stroke="none" fill="#52797f"/>
                      </g>
                    </g>
                  </g>
                </g>
              </g>
            </g>
          </g>
        </g>
      </g>
    </g>
    <g id="rompecabezas" transform="translate(215.753 2249.018)">
      <g id="Grupo_1228736" data-name="Grupo 1228736" transform="translate(1.033 20.43)">
        <path id="Trazado_1179841" data-name="Trazado 1179841" d="M367,59.347a9.932,9.932,0,0,0-5.672-8.038,1.274,1.274,0,0,1-.695-1.4,8.784,8.784,0,0,0-8.689-10.393,1.28,1.28,0,0,1-1.2-.836,6.287,6.287,0,0,0-2.123-2.81h-1.99l-1.584,3.808v6.737l3.443,1.044-3.443,3.925v7.437L346,60.3h.121a.878.878,0,0,1,.66.3h6.535a.878.878,0,0,1,.66-.3h12.149A.877.877,0,0,0,367,59.347Z" transform="translate(-298.556 -34.637)" fill="#ff636e"/>
        <path id="Trazado_1179842" data-name="Trazado 1179842" d="M91.256,138.926a3.094,3.094,0,0,0-3.118-2.936H87.006a.881.881,0,0,1-.881-.881v-3.932a6.423,6.423,0,0,0-1.74-4.4h-2.7l-6.06,3.523s-3.849,7.448-4.587,7.672-2.483,4.689-2.575,4.936-2.754,3.749-2.754,3.749l1.073,3.808-1.073.678H84.44l1.684-.678v-7.5a.881.881,0,0,1,.881-.881h1.206A3.047,3.047,0,0,0,91.256,138.926Z" transform="translate(-57.694 -113.023)" fill="#ffe02f"/>
        <path id="Trazado_1179843" data-name="Trazado 1179843" d="M22.31,129.114a1.274,1.274,0,0,0,.695-1.4,8.784,8.784,0,0,1,8.689-10.393,1.28,1.28,0,0,0,1.2-.836,6.271,6.271,0,0,1,1.3-2.071,6.183,6.183,0,0,0-4.389-1.973,6.266,6.266,0,0,0-6,4.044,1.28,1.28,0,0,1-1.2.836,8.784,8.784,0,0,0-8.689,10.393,1.274,1.274,0,0,1-.695,1.4A9.926,9.926,0,0,0,7.5,138.1l1.314.678h9.09l-1.314-.678A9.926,9.926,0,0,1,22.31,129.114Z" transform="translate(-7.503 -100.661)" fill="#fbc700"/>
        <path id="Trazado_1179844" data-name="Trazado 1179844" d="M313.3,52.561h-6.621a.881.881,0,0,1-.881-.881V45.059a.881.881,0,0,1,.881-.881h1.206a3.047,3.047,0,0,0,3.045-3.158,3.094,3.094,0,0,0-3.118-2.936h-1.133a.881.881,0,0,1-.881-.881V33.271a6.42,6.42,0,0,1,2.565-5.136,6.234,6.234,0,0,0-3.874-1.234,6.335,6.335,0,0,0-6.129,6.37V37.2a.881.881,0,0,0,.881.881h1.133A3.094,3.094,0,0,1,303.5,41.02a3.047,3.047,0,0,1-3.045,3.158h-1.206a.881.881,0,0,0-.881.881V51.68a.881.881,0,0,0,.881.881h6.621a.881.881,0,0,1,.881.881v1.133a3.094,3.094,0,0,0,2.936,3.118,3.047,3.047,0,0,0,3.158-3.045V53.442a.881.881,0,0,1,.672-.855A.887.887,0,0,0,313.3,52.561Z" transform="translate(-258.308 -26.899)" fill="#ff4654"/>
        <path id="Trazado_1179845" data-name="Trazado 1179845" d="M204.171,298.772H192.022a.881.881,0,0,0-.881.881v1.133a3.094,3.094,0,0,1-2.935,3.118,3.047,3.047,0,0,1-3.158-3.045v-1.206a.881.881,0,0,0-.881-.881h-7.5l-.949.982v6.307h-2.709l-2.3,2.975V311.6l2.341,2.308h2.617v3.03l1,1.122a6.335,6.335,0,0,0,6.129,6.37,6.266,6.266,0,0,0,6-4.044,1.28,1.28,0,0,1,1.2-.836,8.785,8.785,0,0,0,8.689-10.393,1.274,1.274,0,0,1,.695-1.4,9.932,9.932,0,0,0,5.673-8.038A.878.878,0,0,0,204.171,298.772Z" transform="translate(-148.234 -261.329)" fill="#60b9fe"/>
        <path id="Trazado_1179846" data-name="Trazado 1179846" d="M77.741,265.747v-1.133a3.094,3.094,0,0,0-2.935-3.118,3.047,3.047,0,0,0-3.158,3.045v1.206a.881.881,0,0,1-.881.881H66.783l-1.073.678s2.112,7.162,2.663,8.172,4.958,7.988,4.958,8.539,3.489,4.224,3.489,4.224l7.565,2.076a6.423,6.423,0,0,0,1.74-4.4v-3.932a.881.881,0,0,0-.881-.881H84.037a3.047,3.047,0,0,1-3.045-3.158,3.094,3.094,0,0,1,3.118-2.936h1.133a.881.881,0,0,0,.881-.881v-7.5h-7.5A.882.882,0,0,1,77.741,265.747Z" transform="translate(-57.694 -229.185)" fill="#73d578"/>
        <g id="Grupo_1228735" data-name="Grupo 1228735" transform="translate(0 37.443)">
          <path id="Trazado_1179847" data-name="Trazado 1179847" d="M32.9,320.387a1.28,1.28,0,0,0-1.2-.836,8.785,8.785,0,0,1-8.689-10.393,1.274,1.274,0,0,0-.695-1.4,9.926,9.926,0,0,1-5.718-8.99H7.5a9.926,9.926,0,0,0,5.718,8.99,1.274,1.274,0,0,1,.695,1.4A8.785,8.785,0,0,0,22.6,319.551a1.28,1.28,0,0,1,1.2.836,6.266,6.266,0,0,0,6,4.044,6.182,6.182,0,0,0,4.389-1.973A6.272,6.272,0,0,1,32.9,320.387Z" transform="translate(-7.503 -298.771)" fill="#00c63a"/>
        </g>
      </g>
      <g id="Grupo_1228737" data-name="Grupo 1228737" transform="translate(0 19.397)">
        <path id="Trazado_1179848" data-name="Trazado 1179848" d="M321.308,45.042a11,11,0,0,0-6.262-8.876.243.243,0,0,1-.119-.268,9.817,9.817,0,0,0-9.613-11.62h-.1a.249.249,0,0,1-.225-.17,7.315,7.315,0,0,0-6.828-4.712l-.158,0a7.394,7.394,0,0,0-7.139,7.4v3.932a1.916,1.916,0,0,0,1.914,1.914h1.133a2.069,2.069,0,0,1,2.086,1.939,2.012,2.012,0,0,1-2.012,2.088h-1.206a1.916,1.916,0,0,0-1.914,1.914v6.621a1.916,1.916,0,0,0,1.914,1.914h6.469v.981a4.152,4.152,0,0,0,3.932,4.15,4.076,4.076,0,0,0,4.227-4.077V47.125h3.125a1.033,1.033,0,1,0,0-2.066h-3.276a1.916,1.916,0,0,0-1.914,1.914v1.206a2.013,2.013,0,0,1-2.088,2.012,2.069,2.069,0,0,1-1.939-2.086V46.973a1.916,1.916,0,0,0-1.914-1.914h-6.469V38.741h1.054a4.076,4.076,0,0,0,4.077-4.227,4.152,4.152,0,0,0-4.15-3.932h-.981V26.8a5.317,5.317,0,0,1,5.118-5.338,5.253,5.253,0,0,1,5.009,3.378,2.322,2.322,0,0,0,2.156,1.5h.1a7.751,7.751,0,0,1,7.584,9.167,2.3,2.3,0,0,0,1.271,2.525,8.929,8.929,0,0,1,5.064,7.022h-3.884a1.033,1.033,0,1,0,0,2.066H319.4A1.911,1.911,0,0,0,321.308,45.042Z" transform="translate(-250.803 -19.397)"/>
        <path id="Trazado_1179849" data-name="Trazado 1179849" d="M56.97,130.6H44.821a1.916,1.916,0,0,0-1.914,1.914v1.133a2.069,2.069,0,0,1-1.939,2.085,2.013,2.013,0,0,1-2.088-2.012v-1.206a1.916,1.916,0,0,0-1.914-1.914H30.5v-6.317h1.054a4.08,4.08,0,0,0,4.077-4.227,4.152,4.152,0,0,0-4.15-3.932H30.5v-3.781a7.394,7.394,0,0,0-7.139-7.4,7.3,7.3,0,0,0-6.985,4.711.25.25,0,0,1-.225.17h-.1a9.817,9.817,0,0,0-9.613,11.62.243.243,0,0,1-.119.268,10.96,10.96,0,0,0,0,19.851.243.243,0,0,1,.119.268,9.818,9.818,0,0,0,9.614,11.62h.1a.249.249,0,0,1,.225.169A7.265,7.265,0,0,0,29.464,154.7a7.264,7.264,0,0,0,13.092-1.082.25.25,0,0,1,.225-.169h.1a9.728,9.728,0,0,0,4.649-1.181,1.033,1.033,0,1,0-.989-1.814,7.547,7.547,0,0,1-3.655.929H42.78a2.322,2.322,0,0,0-2.156,1.5,5.255,5.255,0,0,1-5.009,3.377,5.316,5.316,0,0,1-5.118-5.338V146.99h0a1.916,1.916,0,0,0-1.914-1.914H27.376a2.012,2.012,0,0,1-2.012-2.088,2.069,2.069,0,0,1,2.086-1.939h1.133a1.917,1.917,0,0,0,1.9-1.719,1.95,1.95,0,0,0,.01-.2v-6.469h6.317v1.054a4.077,4.077,0,0,0,4.227,4.077,4.152,4.152,0,0,0,3.932-4.15v-.981H56.8a8.929,8.929,0,0,1-5.064,7.022,2.3,2.3,0,0,0-1.271,2.525,7.687,7.687,0,0,1-.889,5.253,1.033,1.033,0,0,0,1.792,1.027,9.755,9.755,0,0,0,1.126-6.667.243.243,0,0,1,.119-.268,11,11,0,0,0,6.262-8.875,1.9,1.9,0,0,0-.486-1.454,1.926,1.926,0,0,0-1.421-.629Zm-28.54,8.383h-.981a4.152,4.152,0,0,0-4.15,3.932,4.076,4.076,0,0,0,4.077,4.227h1.054v3.781a5.317,5.317,0,0,1-5.118,5.338,5.248,5.248,0,0,1-5.009-3.378,2.322,2.322,0,0,0-2.156-1.5h-.023a7.752,7.752,0,0,1-7.664-9.167,2.3,2.3,0,0,0-1.271-2.525,8.941,8.941,0,0,1-5.062-7.022H14.106a1.916,1.916,0,0,0,1.914-1.914v-1.133a2.015,2.015,0,1,1,4.027,0v1.133a1.916,1.916,0,0,0,1.914,1.914h6.469v6.317Zm1.914-16.766a1.916,1.916,0,0,0-1.914,1.914V130.6H22.113v-1.054a4.08,4.08,0,1,0-8.159.073v.981H2.127a8.941,8.941,0,0,1,5.062-7.022,2.3,2.3,0,0,0,1.271-2.525,7.751,7.751,0,0,1,7.584-9.167h.1a2.322,2.322,0,0,0,2.156-1.5,5.25,5.25,0,0,1,5.009-3.378,5.317,5.317,0,0,1,5.118,5.338v3.932a1.916,1.916,0,0,0,1.914,1.914h1.133a2.069,2.069,0,0,1,2.085,1.94,2.014,2.014,0,0,1-2.012,2.088H30.345Z" transform="translate(0 -93.157)"/>
      </g>
    </g>
  </g>
</svg>
