<svg xmlns="http://www.w3.org/2000/svg" xmlns:xlink="http://www.w3.org/1999/xlink" width="108" height="108" viewBox="0 0 108 108">
  <defs>
    <filter id="Trazado_982547" x="0" y="0" width="108" height="108" filterUnits="userSpaceOnUse">
      <feOffset dy="3" input="SourceAlpha"/>
      <feGaussianBlur stdDeviation="3" result="blur"/>
      <feFlood flood-opacity="0.161"/>
      <feComposite operator="in" in2="blur"/>
      <feComposite in="SourceGraphic"/>
    </filter>
  </defs>
  <g id="Grupo_1228740" data-name="Grupo 1228740" transform="translate(-827.01 -2250)">
    <g id="Grupo_1227894" data-name="Grupo 1227894" transform="translate(630 -2222)">
      <g id="Grupo_1203964" data-name="Grupo 1203964" transform="translate(7 2516.532)">
        <g id="Grupo_1203625" data-name="Grupo 1203625" transform="translate(-14.49 905.468)">
          <g id="Grupo_1178314" data-name="Grupo 1178314" transform="translate(213.5 1056)">
            <g id="Grupo_1173988" data-name="Grupo 1173988">
              <g id="Grupo_1172010" data-name="Grupo 1172010">
                <g id="Grupo_1171046" data-name="Grupo 1171046">
                  <g id="Grupo_1148525" data-name="Grupo 1148525">
                    <g transform="matrix(1, 0, 0, 1, -9, -6)" filter="url(#Trazado_982547)">
                      <g id="Trazado_982547-2" data-name="Trazado 982547" transform="translate(9 6)" fill="#f4fbfc">
                        <path d="M 45 88.5 C 39.12687683105469 88.5 33.43022537231445 87.35007476806641 28.06830024719238 85.08217620849609 C 22.88852500915527 82.89131164550781 18.23629951477051 79.75458526611328 14.2408504486084 75.75914764404297 C 10.24541282653809 71.76370239257812 7.108687400817871 67.11147308349609 4.917825222015381 61.93170166015625 C 2.649924993515015 56.56977462768555 1.5 50.87312316894531 1.5 45 C 1.5 39.12687683105469 2.649924993515015 33.43022537231445 4.917825222015381 28.06830024719238 C 7.108687400817871 22.88852500915527 10.24541282653809 18.23629951477051 14.2408504486084 14.2408504486084 C 18.23629951477051 10.24541282653809 22.88852500915527 7.108687400817871 28.06830024719238 4.917825222015381 C 33.43022537231445 2.649924993515015 39.12687683105469 1.5 45 1.5 C 50.87312316894531 1.5 56.56977462768555 2.649924993515015 61.93170166015625 4.917825222015381 C 67.11147308349609 7.108687400817871 71.76370239257812 10.24541282653809 75.75914764404297 14.2408504486084 C 79.75458526611328 18.23629951477051 82.89131164550781 22.88852500915527 85.08217620849609 28.06830024719238 C 87.35007476806641 33.43022537231445 88.5 39.12687683105469 88.5 45 C 88.5 50.87312316894531 87.35007476806641 56.56977462768555 85.08217620849609 61.93170166015625 C 82.89131164550781 67.11147308349609 79.75458526611328 71.76370239257812 75.75914764404297 75.75914764404297 C 71.76370239257812 79.75458526611328 67.11147308349609 82.89131164550781 61.93170166015625 85.08217620849609 C 56.56977462768555 87.35007476806641 50.87312316894531 88.5 45 88.5 Z" stroke="none"/>
                        <path d="M 45 3 C 39.32871246337891 3 33.82865524291992 4.110054016113281 28.65262985229492 6.299339294433594 C 23.65165710449219 8.414573669433594 19.15968322753906 11.44334411621094 15.301513671875 15.301513671875 C 11.44334411621094 19.15968322753906 8.414573669433594 23.65165710449219 6.299339294433594 28.65262985229492 C 4.110054016113281 33.82865524291992 3 39.32871246337891 3 45 C 3 50.67128753662109 4.110054016113281 56.17134475708008 6.299339294433594 61.34737396240234 C 8.414573669433594 66.34834289550781 11.44334411621094 70.84031677246094 15.301513671875 74.698486328125 C 19.15968322753906 78.55665588378906 23.65165710449219 81.58542633056641 28.65262985229492 83.70066070556641 C 33.82865524291992 85.88994598388672 39.32871246337891 87 45 87 C 50.67128753662109 87 56.17134475708008 85.88994598388672 61.34737396240234 83.70066070556641 C 66.34834289550781 81.58542633056641 70.84031677246094 78.55665588378906 74.698486328125 74.698486328125 C 78.55665588378906 70.84031677246094 81.58542633056641 66.34834289550781 83.70066070556641 61.34737396240234 C 85.88994598388672 56.17134475708008 87 50.67128753662109 87 45 C 87 39.32871246337891 85.88994598388672 33.82865524291992 83.70066070556641 28.65262985229492 C 81.58542633056641 23.65165710449219 78.55665588378906 19.15968322753906 74.698486328125 15.301513671875 C 70.84031677246094 11.44334411621094 66.34834289550781 8.414573669433594 61.34737396240234 6.299339294433594 C 56.17134475708008 4.110054016113281 50.67128753662109 3 45 3 M 45 0 C 69.85281372070312 0 90 20.14718627929688 90 45 C 90 69.85281372070312 69.85281372070312 90 45 90 C 20.14718627929688 90 0 69.85281372070312 0 45 C 0 20.14718627929688 20.14718627929688 0 45 0 Z" stroke="none" fill="#52797f"/>
                      </g>
                    </g>
                  </g>
                </g>
              </g>
            </g>
          </g>
        </g>
      </g>
    </g>
    <g id="progression-time_12012929" transform="translate(838.499 2219.747)">
      <circle id="Elipse_12832" data-name="Elipse 12832" cx="10.123" cy="10.123" r="10.123" transform="translate(25.019 76.312)" fill="#ff7d97"/>
      <path id="Trazado_1179850" data-name="Trazado 1179850" d="M200,144.451V155.7a5.29,5.29,0,0,0,10.569.351,6.61,6.61,0,0,0,8.151-8.739,9.261,9.261,0,0,0,0-17.63,6.614,6.614,0,0,0-8.151-8.739,5.29,5.29,0,0,0-10.569.351v11.248" transform="translate(-164.857 -52.06)" fill="#ff7d97" stroke="#000" stroke-linecap="round" stroke-linejoin="round" stroke-miterlimit="10" stroke-width="1.5"/>
      <path id="Trazado_1179851" data-name="Trazado 1179851" d="M35.142,132.541V121.293a5.29,5.29,0,0,0-10.569-.351,6.61,6.61,0,0,0-8.151,8.739,9.261,9.261,0,0,0,0,17.63,6.614,6.614,0,0,0,8.151,8.739,5.29,5.29,0,0,0,10.569-.351V144.451" transform="translate(0 -52.06)" fill="#66e0f7" stroke="#000" stroke-linecap="round" stroke-linejoin="round" stroke-miterlimit="10" stroke-width="1.5"/>
      <path id="Trazado_1179852" data-name="Trazado 1179852" d="M19.263,234.526a9.263,9.263,0,0,1,0-18.526" transform="translate(0 -138.827)" fill="none" stroke="#000" stroke-linecap="round" stroke-linejoin="round" stroke-miterlimit="10" stroke-width="1.5"/>
      <path id="Trazado_1179853" data-name="Trazado 1179853" d="M108.97,152.332A6.578,6.578,0,0,0,105,151" transform="translate(-82.429 -82.429)" fill="none" stroke="#000" stroke-linecap="round" stroke-linejoin="round" stroke-miterlimit="10" stroke-width="1.5"/>
      <path id="Trazado_1179854" data-name="Trazado 1179854" d="M120.388,401a5.289,5.289,0,0,0,4.9,7.278" transform="translate(-95.444 -299.346)" fill="none" stroke="#000" stroke-linecap="round" stroke-linejoin="round" stroke-miterlimit="10" stroke-width="1.5"/>
      <path id="Trazado_1179855" data-name="Trazado 1179855" d="M320,295.263A9.263,9.263,0,0,0,329.263,286" transform="translate(-268.978 -199.564)" fill="none" stroke="#000" stroke-linecap="round" stroke-linejoin="round" stroke-miterlimit="10" stroke-width="1.5"/>
      <path id="Trazado_1179856" data-name="Trazado 1179856" d="M265,152.332A6.578,6.578,0,0,1,268.97,151" transform="translate(-221.256 -82.429)" fill="none" stroke="#000" stroke-linecap="round" stroke-linejoin="round" stroke-miterlimit="10" stroke-width="1.5"/>
      <path id="Trazado_1179857" data-name="Trazado 1179857" d="M244.9,401a5.289,5.289,0,0,1-4.9,7.278" transform="translate(-199.564 -299.346)" fill="none" stroke="#000" stroke-linecap="round" stroke-linejoin="round" stroke-miterlimit="10" stroke-width="1.5"/>
      <g id="Grupo_1228739" data-name="Grupo 1228739" transform="translate(35.059 86.244)">
        <rect id="Rectángulo_422857" data-name="Rectángulo 422857" fill="none" stroke="#000" stroke-linecap="round" stroke-linejoin="round" stroke-miterlimit="10" stroke-width="1.5"/>
      </g>
      <path id="Trazado_1179858" data-name="Trazado 1179858" d="M240,201a3.97,3.97,0,0,1,3.97,3.97" transform="translate(-199.564 -125.812)" fill="none" stroke="#000" stroke-linecap="round" stroke-linejoin="round" stroke-miterlimit="10" stroke-width="1.5"/>
      <path id="Trazado_1179859" data-name="Trazado 1179859" d="M288.97,289.97A3.97,3.97,0,0,1,285,286" transform="translate(-238.61 -199.564)" fill="none" stroke="#000" stroke-linecap="round" stroke-linejoin="round" stroke-miterlimit="10" stroke-width="1.5"/>
      <path id="Trazado_1179860" data-name="Trazado 1179860" d="M133.97,201a3.97,3.97,0,0,0-3.97,3.97" transform="translate(-104.121 -125.812)" fill="none" stroke="#000" stroke-linecap="round" stroke-linejoin="round" stroke-miterlimit="10" stroke-width="1.5"/>
      <path id="Trazado_1179861" data-name="Trazado 1179861" d="M85,289.97A3.97,3.97,0,0,0,88.97,286" transform="translate(-65.075 -199.564)" fill="none" stroke="#000" stroke-linecap="round" stroke-linejoin="round" stroke-miterlimit="10" stroke-width="1.5"/>
      <path id="Trazado_1179862" data-name="Trazado 1179862" d="M200,359.97a3.97,3.97,0,0,1,3.97-3.97" transform="translate(-164.857 -260.301)" fill="none" stroke="#000" stroke-linecap="round" stroke-linejoin="round" stroke-miterlimit="10" stroke-width="1.5"/>
      <path id="Trazado_1179863" data-name="Trazado 1179863" d="M173.97,359.97A3.97,3.97,0,0,0,170,356" transform="translate(-138.827 -260.301)" fill="none" stroke="#000" stroke-linecap="round" stroke-linejoin="round" stroke-miterlimit="10" stroke-width="1.5"/>
      <circle id="Elipse_12833" data-name="Elipse 12833" cx="12.53" cy="12.53" r="12.53" transform="translate(49.749 56)" fill="#fff" stroke="#000" stroke-linecap="round" stroke-linejoin="round" stroke-miterlimit="10" stroke-width="1.5"/>
      <line id="Línea_651" data-name="Línea 651" y1="7.777" transform="translate(62.711 61.185)" fill="none" stroke="#000" stroke-linecap="round" stroke-linejoin="round" stroke-miterlimit="10" stroke-width="1.5"/>
      <line id="Línea_652" data-name="Línea 652" x2="3.456" y2="3.456" transform="translate(62.711 68.962)" fill="none" stroke="#000" stroke-linecap="round" stroke-linejoin="round" stroke-miterlimit="10" stroke-width="1.5"/>
    </g>
  </g>
</svg>
