<svg xmlns="http://www.w3.org/2000/svg" xmlns:xlink="http://www.w3.org/1999/xlink" width="400" height="300" viewBox="0 0 400 300">
  <defs>
    <clipPath id="clip-path">
      <rect id="Rectángulo_422957" data-name="Rectángulo 422957" width="400" height="300" transform="translate(179.555 3660)" fill="#fff" stroke="#707070" stroke-width="1"/>
    </clipPath>
  </defs>
  <g id="Enmascarar_grupo_1211511" data-name="Enmascarar grupo 1211511" transform="translate(-179.555 -3660)" clip-path="url(#clip-path)">
    <g id="Grupo_1230769" data-name="Grupo 1230769" transform="translate(-1434.928 3164.267)">
      <g id="Grupo_1230500" data-name="Grupo 1230500" transform="translate(1743.6 562.939)">
        <g id="Grupo_1230499" data-name="Grupo 1230499" transform="translate(0)">
          <path id="Trazado_1182068" data-name="Trazado 1182068" d="M2153.079,786.822l-3.426-8.022c-10.691,4.578-19.575,5.5-28.034,2.7a33.8,33.8,0,0,1-7.2-3.835c-1.884-1.108-4,.08-5.526,1.647l-.706.727a4.465,4.465,0,0,0,.567,6.711,34.532,34.532,0,0,0,10.115,5.212C2126.22,794.219,2139.246,794.23,2153.079,786.822Z" transform="translate(-2106.929 -777.227)" fill="#ffba41"/>
        </g>
      </g>
      <g id="Grupo_1230501" data-name="Grupo 1230501" transform="translate(1629.651 722.371)">
        <ellipse id="Elipse_12893" data-name="Elipse 12893" cx="184.832" cy="30.274" rx="184.832" ry="30.274" transform="translate(0)" fill="#786ab5"/>
      </g>
      <g id="Grupo_1230502" data-name="Grupo 1230502" transform="translate(1655.525 637.639)">
        <path id="Trazado_1182069" data-name="Trazado 1182069" d="M1831.189,1135.135s-70.9-61.807-90.128-40.6,58.425,30.156,78.386,48.847Z" transform="translate(-1738.026 -1090.105)" fill="#553e93"/>
      </g>
      <g id="Grupo_1230506" data-name="Grupo 1230506" transform="translate(1675.709 620.627)">
        <g id="Grupo_1230503" data-name="Grupo 1230503" transform="translate(0 0)">
          <path id="Trazado_1182070" data-name="Trazado 1182070" d="M1884.989,1073.061s-38.6-65.1-58.293-52.62,36.856,37.157,47.409,56.51Z" transform="translate(-1822.565 -1018.852)" fill="#786ab5"/>
        </g>
        <g id="Grupo_1230505" data-name="Grupo 1230505" transform="translate(10.851 9.446)">
          <g id="Grupo_1230504" data-name="Grupo 1230504">
            <path id="Trazado_1182071" data-name="Trazado 1182071" d="M1913.52,1105.413c-7.059-13.51-19.054-25.422-27.874-33.037a171.736,171.736,0,0,0-17.63-13.424l.3-.535a172.4,172.4,0,0,1,17.7,13.474c8.859,7.648,20.911,19.619,28.013,33.214Z" transform="translate(-1868.016 -1058.417)" fill="#fff"/>
          </g>
        </g>
      </g>
      <g id="Grupo_1230520" data-name="Grupo 1230520" transform="translate(1638.358 651.45)">
        <g id="Grupo_1230508" data-name="Grupo 1230508" transform="translate(0 0)">
          <g id="Grupo_1230507" data-name="Grupo 1230507">
            <path id="Trazado_1182072" data-name="Trazado 1182072" d="M1819.251,1243.389c-7.63.157-15.412.359-23.2.589-10.685.317-21.4.682-31.769,1.042-.136-.311-.2-.486-.2-.486-10-10.274-8.264-8.742-30.692-4.708-16.084,2.884-18.008-11.276-24.855-21.524q-.191-.285-.388-.568c-2.644-3.794-6.035-6.981-11.184-8.446a65.813,65.813,0,0,1-15.938-6.912c-.407-.246-.81-.5-1.2-.753-9.694-6.242-16.238-14.846-12.745-23.774v0c.083-.213.171-.422.267-.634a18.849,18.849,0,0,1,2.834-4.445c12.964-15.447,26.153-9.992,41.367-7.652,8.408,1.294,20.376-9.424,32.147-14.537l.012-.006c.169-.073.338-.146.507-.217,9.347-3.932,18.534-4.159,25.671,8.158,0,0,0,0,0,0,.146.25.29.5.434.743,11.72,19.928,19.062,19.928,31.013,20.5a99.662,99.662,0,0,1,10.326.912c1.536.23,3.147.522,4.841.9l.171.037h0a29.019,29.019,0,0,1,8.679,3c.044.025.088.052.129.081a10.579,10.579,0,0,1,1.409,1.05,40.6,40.6,0,0,1,4.291,4.422q.823.992,1.542,2C1845,1209.351,1835.552,1230.051,1819.251,1243.389Z" transform="translate(-1666.12 -1147.956)" fill="#c8c1e1"/>
          </g>
        </g>
        <g id="Grupo_1230519" data-name="Grupo 1230519" transform="translate(0.894 2.335)">
          <g id="Grupo_1230510" data-name="Grupo 1230510" transform="translate(0 26.899)">
            <g id="Grupo_1230509" data-name="Grupo 1230509">
              <path id="Trazado_1182073" data-name="Trazado 1182073" d="M1816.3,1315.507l.8-1.035c-.456-.352-46.8-35.273-147.117-44.072l-.114,1.3C1769.809,1280.471,1815.847,1315.159,1816.3,1315.507Z" transform="translate(-1669.866 -1270.401)" fill="#fff"/>
            </g>
          </g>
          <g id="Grupo_1230512" data-name="Grupo 1230512" transform="translate(85.605 8.03)">
            <g id="Grupo_1230511" data-name="Grupo 1230511">
              <path id="Trazado_1182074" data-name="Trazado 1182074" d="M2029.235,1212.536c14.018-11.076,16.958-20.395,17.076-20.786l-1.25-.379c-.028.092-2.977,9.347-16.636,20.14Z" transform="translate(-2028.424 -1191.371)" fill="#fff"/>
            </g>
          </g>
          <g id="Grupo_1230514" data-name="Grupo 1230514" transform="translate(76.028)">
            <g id="Grupo_1230513" data-name="Grupo 1230513">
              <path id="Trazado_1182075" data-name="Trazado 1182075" d="M1995.5,1200.848c4.144-6.323,4.4-15.8.737-27.411a87.331,87.331,0,0,0-6.8-15.7l-1.128.657c.157.27,15.624,27.2,6.095,41.739Z" transform="translate(-1988.311 -1157.736)" fill="#fff"/>
            </g>
          </g>
          <g id="Grupo_1230516" data-name="Grupo 1230516" transform="translate(12.741 36.119)">
            <g id="Grupo_1230515" data-name="Grupo 1230515">
              <path id="Trazado_1182076" data-name="Trazado 1182076" d="M1767.411,1312.05c1.662-1.219,2.569-2.022,2.61-2.059l-.874-.971c-.19.171-19.321,17.064-45.795,14.562l-.122,1.3C1744.563,1326.9,1761.22,1316.588,1767.411,1312.05Z" transform="translate(-1723.231 -1309.02)" fill="#fff"/>
            </g>
          </g>
          <g id="Grupo_1230518" data-name="Grupo 1230518" transform="translate(41.04 42.728)">
            <g id="Grupo_1230517" data-name="Grupo 1230517">
              <path id="Trazado_1182077" data-name="Trazado 1182077" d="M1842.68,1362.435a30.821,30.821,0,0,0,9.317-17.45,22.819,22.819,0,0,0-.115-8.281l-1.267.319c.032.127,3.026,12.827-8.851,24.48Z" transform="translate(-1841.764 -1336.704)" fill="#fff"/>
            </g>
          </g>
        </g>
      </g>
      <g id="Grupo_1230521" data-name="Grupo 1230521" transform="translate(1841.069 605.817)" opacity="0.6">
        <path id="Trazado_1182078" data-name="Trazado 1182078" d="M2515.18,1047.628s29.984-99.358,57.567-90.213-35.352,62.129-43.132,91.329Z" transform="translate(-2515.18 -956.821)" fill="#553e93"/>
      </g>
      <g id="Grupo_1230525" data-name="Grupo 1230525" transform="translate(1854.599 613.351)">
        <g id="Grupo_1230522" data-name="Grupo 1230522" transform="translate(0)">
          <path id="Trazado_1182079" data-name="Trazado 1182079" d="M2571.85,1056.354s68.579-85.045,97.006-64.886-61.891,46.432-80.865,71.845Z" transform="translate(-2571.85 -988.377)" fill="#c8c1e1"/>
        </g>
        <g id="Grupo_1230524" data-name="Grupo 1230524" transform="translate(8.256 13.02)">
          <g id="Grupo_1230523" data-name="Grupo 1230523">
            <path id="Trazado_1182080" data-name="Trazado 1182080" d="M2607.169,1101.839c12.772-17.784,32.89-32.645,47.517-41.98a268.4,268.4,0,0,1,28.98-16.161l-.389-.787a269.307,269.307,0,0,0-29.089,16.22c-14.693,9.376-34.9,24.31-47.757,42.206Z" transform="translate(-2606.431 -1042.912)" fill="#fff"/>
          </g>
        </g>
      </g>
      <g id="Grupo_1230539" data-name="Grupo 1230539" transform="translate(1803.123 655.53)">
        <g id="Grupo_1230527" data-name="Grupo 1230527">
          <g id="Grupo_1230526" data-name="Grupo 1230526">
            <path id="Trazado_1182081" data-name="Trazado 1182081" d="M2506.645,1236.244c-19.049-.423-22.123,26.951-41.706,17.175-16.561-8.278-17.677-10.188-24.86-6.709a28.619,28.619,0,0,0-6.716,4.576c-2.408,2.181-6.788,5.2-12.315,4.866-33.768-2.048-110.385-45.542-27.786-76.774,2.943-1.113,6.6-1.166,10.684-.846,22.147,1.752,26.641,12.831,49.092-7.691s37.334,19.874,51.972,21.986,28.243.888,36.06,18.24S2525.692,1236.678,2506.645,1236.244Z" transform="translate(-2356.24 -1165.043)" fill="#553e93"/>
          </g>
        </g>
        <g id="Grupo_1230538" data-name="Grupo 1230538" transform="translate(39.174 5.562)" opacity="0.5">
          <g id="Grupo_1230529" data-name="Grupo 1230529" transform="translate(0 36.034)">
            <g id="Grupo_1230528" data-name="Grupo 1230528">
              <path id="Trazado_1182082" data-name="Trazado 1182082" d="M2520.781,1348.319l-.458-1.143c.513-.188,52.523-18.536,147.276,1.307l-.242,1.193C2572.959,1329.907,2521.292,1348.133,2520.781,1348.319Z" transform="translate(-2520.323 -1339.268)" fill="#fff"/>
            </g>
          </g>
          <g id="Grupo_1230531" data-name="Grupo 1230531" transform="translate(56.993 0.229)">
            <g id="Grupo_1230530" data-name="Grupo 1230530">
              <path id="Trazado_1182083" data-name="Trazado 1182083" d="M2769.217,1212.546c-9.954-13.745-10.174-22.866-10.178-23.247l1.253.007c0,.09.246,9.156,9.946,22.55Z" transform="translate(-2759.039 -1189.298)" fill="#fff"/>
            </g>
          </g>
          <g id="Grupo_1230533" data-name="Grupo 1230533" transform="translate(65.631)">
            <g id="Grupo_1230532" data-name="Grupo 1230532">
              <path id="Trazado_1182084" data-name="Trazado 1182084" d="M2795.99,1225.11c-2.129-6.782.168-15.3,6.641-24.646a79.945,79.945,0,0,1,10.453-12.124l.864.9c-.217.2-21.655,19.942-16.76,35.536Z" transform="translate(-2795.219 -1188.34)" fill="#fff"/>
            </g>
          </g>
          <g id="Grupo_1230535" data-name="Grupo 1230535" transform="translate(89.826 37.311)">
            <g id="Grupo_1230534" data-name="Grupo 1230534">
              <path id="Trazado_1182085" data-name="Trazado 1182085" d="M2898.416,1347.8c-1.205-1.545-1.827-2.512-1.855-2.556l1.064-.625c.129.2,13.239,20.549,38.292,25.625l-.234,1.193C2915.5,1367.344,2902.907,1353.556,2898.416,1347.8Z" transform="translate(-2896.561 -1344.617)" fill="#fff"/>
            </g>
          </g>
          <g id="Grupo_1230537" data-name="Grupo 1230537" transform="translate(93.486 45.276)">
            <g id="Grupo_1230536" data-name="Grupo 1230536">
              <path id="Trazado_1182086" data-name="Trazado 1182086" d="M2916.043,1403.462c-4.275-7.466-4.492-13.981-3.922-18.132a20.584,20.584,0,0,1,2.317-7.352l1.082.634c-.063.1-6.212,10.6,1.615,24.272Z" transform="translate(-2911.892 -1377.978)" fill="#fff"/>
            </g>
          </g>
        </g>
      </g>
      <g id="Grupo_1230540" data-name="Grupo 1230540" transform="translate(1910.398 598.802)">
        <path id="Trazado_1182087" data-name="Trazado 1182087" d="M2809.491,930.641c2.373-3.4,4.2-3.664,5.58-2.75s1.8,2.664-.578,6.059c-4.323,6.185-8.914,7.519-8.914,7.519S2805.1,936.915,2809.491,930.641Z" transform="translate(-2805.564 -927.44)" fill="#786ab5"/>
      </g>
      <g id="Grupo_1230541" data-name="Grupo 1230541" transform="translate(1922.607 670.132)">
        <path id="Trazado_1182088" data-name="Trazado 1182088" d="M2868.792,1226.21c4.515-.109,5.906,1.249,5.966,2.964s-1.234,3.139-5.749,3.248c-8.224.2-12.308-2.811-12.308-2.811S2860.45,1226.413,2868.792,1226.21Z" transform="translate(-2856.702 -1226.204)" fill="#553e93"/>
      </g>
      <g id="Grupo_1230542" data-name="Grupo 1230542" transform="translate(1916.981 658.983)">
        <path id="Trazado_1182089" data-name="Trazado 1182089" d="M2838.608,1182.118c2.852-3.028,4.7-3.041,5.936-1.947s1.387,2.882-1.465,5.909c-5.195,5.515-9.941,6.2-9.941,6.2S2833.339,1187.714,2838.608,1182.118Z" transform="translate(-2833.138 -1179.507)" fill="#553e93"/>
      </g>
      <g id="Grupo_1230547" data-name="Grupo 1230547" transform="translate(1720.09 716.432)">
        <g id="Grupo_1230545" data-name="Grupo 1230545" transform="translate(0 8.697)">
          <g id="Grupo_1230543" data-name="Grupo 1230543" transform="translate(0 5.993)">
            <ellipse id="Elipse_12894" data-name="Elipse 12894" cx="98.284" cy="16.903" rx="98.284" ry="16.903" fill="#ffba41"/>
          </g>
          <g id="Grupo_1230544" data-name="Grupo 1230544" transform="translate(0.653)">
            <path id="Trazado_1182090" data-name="Trazado 1182090" d="M2027.241,1456.56s-11.915,9.2-16.048,20.94l195.914,1.958s-1.875-9.329-16.7-22.9Z" transform="translate(-2011.193 -1456.56)" fill="#ffba41"/>
          </g>
        </g>
        <g id="Grupo_1230546" data-name="Grupo 1230546" transform="translate(16.701)">
          <ellipse id="Elipse_12895" data-name="Elipse 12895" cx="81.583" cy="8.697" rx="81.583" ry="8.697" fill="#fecaff"/>
        </g>
      </g>
      <g id="Grupo_1230590" data-name="Grupo 1230590" transform="translate(1750.51 607.135)">
        <g id="Grupo_1230549" data-name="Grupo 1230549" transform="translate(19.974 6.243)">
          <g id="Grupo_1230548" data-name="Grupo 1230548">
            <path id="Trazado_1182091" data-name="Trazado 1182091" d="M2318.413,1019.937c0,.082,0,.162,0,.245a102.494,102.494,0,0,1-.749,11.886l-.03.242q-.514,4.112-1.35,7.9c-.018.082-.034.165-.055.245a78.253,78.253,0,0,1-2.079,7.591c-.025.082-.052.164-.08.245a69,69,0,0,1-8.064,16.62c-.052.082-.107.162-.164.244a64.65,64.65,0,0,1-7.934,9.636c-.08.082-.162.162-.244.242a66.227,66.227,0,0,1-5.135,4.58l-.3.242a71.241,71.241,0,0,1-16.761,9.851c-.014,0-.025.011-.039.016l-.08.034c-18.066,7.537-36.266,6.858-42.212,2.588-6.767-4.852-9.163-14.221-9.716-24.615q-.041-.743-.066-1.5c-.587-16.053,2.874-34.119,1.323-41.66-4.594-22.345-5.138-36.086-5.138-36.086h95.29q1.816,8.351,2.684,15.907l.03.242q.61,5.3.793,10.228c0,.082.007.162.01.245Q2318.428,1017.566,2318.413,1019.937Z" transform="translate(-2219.534 -988.489)" fill="#ff443c"/>
          </g>
        </g>
        <g id="Grupo_1230551" data-name="Grupo 1230551" transform="translate(0 5.49)">
          <g id="Grupo_1230550" data-name="Grupo 1230550">
            <path id="Trazado_1182092" data-name="Trazado 1182092" d="M2156.189,985.336s-12.019,9.448-7.864,32.323c2.84,15.632-14.757,28.317-12.2,33.1s11.833,1.523,13.4,6.788c1.95,6.531,1.87,10.441,3.168,19.788,1.637,11.787,14.482,29.2,59.036,9.987,55.57-23.964,0-71.379,0-71.379Z" transform="translate(-2135.872 -985.336)" fill="#ff443c"/>
          </g>
        </g>
        <g id="Grupo_1230553" data-name="Grupo 1230553" transform="translate(71.79 44.655)">
          <g id="Grupo_1230552" data-name="Grupo 1230552" transform="translate(0 0)">
            <circle id="Elipse_12896" data-name="Elipse 12896" cx="1.903" cy="1.903" r="1.903" transform="translate(0 3.757) rotate(-80.782)" fill="#daebe8"/>
          </g>
        </g>
        <g id="Grupo_1230555" data-name="Grupo 1230555" transform="translate(80.648 30.251)">
          <g id="Grupo_1230554" data-name="Grupo 1230554" transform="translate(0 0)">
            <circle id="Elipse_12897" data-name="Elipse 12897" cx="1.903" cy="1.903" r="1.903" transform="translate(0 1.457) rotate(-22.5)" fill="#daebe8"/>
          </g>
        </g>
        <g id="Grupo_1230557" data-name="Grupo 1230557" transform="translate(50.848 40.142)">
          <g id="Grupo_1230556" data-name="Grupo 1230556" transform="translate(0 0)">
            <circle id="Elipse_12898" data-name="Elipse 12898" cx="1.903" cy="1.903" r="1.903" transform="translate(0 3.757) rotate(-80.782)" fill="#daebe8"/>
          </g>
        </g>
        <g id="Grupo_1230559" data-name="Grupo 1230559" transform="translate(81.215 64.02)">
          <g id="Grupo_1230558" data-name="Grupo 1230558">
            <path id="Trazado_1182093" data-name="Trazado 1182093" d="M2476.04,1232.393a1.9,1.9,0,1,1,1.9,1.9A1.9,1.9,0,0,1,2476.04,1232.393Z" transform="translate(-2476.04 -1230.49)" fill="#daebe8"/>
          </g>
        </g>
        <g id="Grupo_1230561" data-name="Grupo 1230561" transform="translate(80.948 55.902)">
          <g id="Grupo_1230560" data-name="Grupo 1230560" transform="translate(0 0)">
            <circle id="Elipse_12899" data-name="Elipse 12899" cx="1.903" cy="1.903" r="1.903" transform="translate(0 3.757) rotate(-80.782)" fill="#daebe8"/>
          </g>
        </g>
        <g id="Grupo_1230563" data-name="Grupo 1230563" transform="translate(67.035 62.117)">
          <g id="Grupo_1230562" data-name="Grupo 1230562">
            <path id="Trazado_1182094" data-name="Trazado 1182094" d="M2416.65,1224.422a1.9,1.9,0,1,1,1.9,1.9A1.9,1.9,0,0,1,2416.65,1224.422Z" transform="translate(-2416.65 -1222.519)" fill="#daebe8"/>
          </g>
        </g>
        <g id="Grupo_1230565" data-name="Grupo 1230565" transform="translate(48.419 56.35)">
          <g id="Grupo_1230564" data-name="Grupo 1230564" transform="translate(0 0)">
            <circle id="Elipse_12900" data-name="Elipse 12900" cx="1.903" cy="1.903" r="1.903" transform="translate(0 2.691) rotate(-45)" fill="#daebe8"/>
          </g>
        </g>
        <g id="Grupo_1230567" data-name="Grupo 1230567" transform="translate(54.425 73.108)">
          <g id="Grupo_1230566" data-name="Grupo 1230566" transform="translate(0 0)">
            <circle id="Elipse_12901" data-name="Elipse 12901" cx="1.903" cy="1.903" r="1.903" transform="translate(0 2.691) rotate(-45)" fill="#daebe8"/>
          </g>
        </g>
        <g id="Grupo_1230569" data-name="Grupo 1230569" transform="translate(58.648 100.847)">
          <g id="Grupo_1230568" data-name="Grupo 1230568" transform="translate(0 0)">
            <circle id="Elipse_12902" data-name="Elipse 12902" cx="1.903" cy="1.903" r="1.903" transform="translate(0 3.704) rotate(-76.714)" fill="#daebe8"/>
          </g>
        </g>
        <g id="Grupo_1230571" data-name="Grupo 1230571" transform="translate(73.874 37.691)">
          <g id="Grupo_1230570" data-name="Grupo 1230570">
            <path id="Trazado_1182095" data-name="Trazado 1182095" d="M2490.274,1120.21c0,.082,0,.162,0,.245H2454.46l-8.994,8.994-.171-.171,1.343-1.343,5.1-5.1,2.625-2.625Z" transform="translate(-2445.295 -1120.21)" fill="#daebe8"/>
          </g>
        </g>
        <g id="Grupo_1230573" data-name="Grupo 1230573" transform="translate(83.117 32.619)">
          <g id="Grupo_1230572" data-name="Grupo 1230572">
            <path id="Trazado_1182096" data-name="Trazado 1182096" d="M2519.674,1099.21H2484.01v-.245h35.654C2519.667,1099.048,2519.672,1099.127,2519.674,1099.21Z" transform="translate(-2484.01 -1098.966)" fill="#daebe8"/>
          </g>
        </g>
        <g id="Grupo_1230575" data-name="Grupo 1230575" transform="translate(68.85 49.822)">
          <g id="Grupo_1230574" data-name="Grupo 1230574">
            <path id="Trazado_1182097" data-name="Trazado 1182097" d="M2473.5,1171.02h-35.061l-12.809,12.809-1.385,1.382.174.172,1.38-1.38,12.742-12.742h34.929Z" transform="translate(-2424.25 -1171.02)" fill="#daebe8"/>
          </g>
        </g>
        <g id="Grupo_1230577" data-name="Grupo 1230577" transform="translate(83.93 57.966)">
          <g id="Grupo_1230576" data-name="Grupo 1230576">
            <path id="Trazado_1182098" data-name="Trazado 1182098" d="M2520.207,1205.13c-.019.082-.035.164-.055.245h-32.739v-.245Z" transform="translate(-2487.413 -1205.13)" fill="#daebe8"/>
          </g>
        </g>
        <g id="Grupo_1230579" data-name="Grupo 1230579" transform="translate(83.932 65.801)">
          <g id="Grupo_1230578" data-name="Grupo 1230578">
            <path id="Trazado_1182099" data-name="Trazado 1182099" d="M2518.081,1237.95c-.025.082-.052.164-.08.245h-30.58v-.245Z" transform="translate(-2487.421 -1237.95)" fill="#daebe8"/>
          </g>
        </g>
        <g id="Grupo_1230581" data-name="Grupo 1230581" transform="translate(51.03 58.954)">
          <g id="Grupo_1230580" data-name="Grupo 1230580">
            <path id="Trazado_1182100" data-name="Trazado 1182100" d="M2405.026,1232.98h-31.531l-22.371-22.368-1.342-1.342-.172.172,1.342,1.339,22.442,22.445h31.467Z" transform="translate(-2349.61 -1209.27)" fill="#daebe8"/>
          </g>
        </g>
        <g id="Grupo_1230583" data-name="Grupo 1230583" transform="translate(52.932 22.149)">
          <g id="Grupo_1230582" data-name="Grupo 1230582">
            <path id="Trazado_1182101" data-name="Trazado 1182101" d="M2422.6,1055.11h-44.923l-7.986,7.984-10.765,10.768-1.342,1.342.172.172,1.344-1.342,10.813-10.815,7.864-7.864h44.854Z" transform="translate(-2357.58 -1055.11)" fill="#daebe8"/>
          </g>
        </g>
        <g id="Grupo_1230585" data-name="Grupo 1230585" transform="translate(57.035 75.712)">
          <g id="Grupo_1230584" data-name="Grupo 1230584">
            <path id="Trazado_1182102" data-name="Trazado 1182102" d="M2416.074,1296.293c-.08.082-.162.162-.244.242h-24.165l-16.9-16.9.171-.174,1.343,1.343,15.489,15.491h24.309Z" transform="translate(-2374.762 -1279.459)" fill="#daebe8"/>
          </g>
        </g>
        <g id="Grupo_1230587" data-name="Grupo 1230587" transform="translate(60.324 97.369)">
          <g id="Grupo_1230586" data-name="Grupo 1230586">
            <path id="Trazado_1182103" data-name="Trazado 1182103" d="M2421.184,1370.17h-19.033l-11.4,4.7-2.208.91.093.224,2.232-.919,11.333-4.677h18.682Z" transform="translate(-2388.54 -1370.17)" fill="#daebe8"/>
          </g>
        </g>
        <g id="Grupo_1230589" data-name="Grupo 1230589" transform="translate(19.975)">
          <g id="Grupo_1230588" data-name="Grupo 1230588">
            <ellipse id="Elipse_12903" data-name="Elipse 12903" cx="47.645" cy="6.242" rx="47.645" ry="6.242" fill="#553e93"/>
          </g>
        </g>
      </g>
      <g id="Grupo_1230611" data-name="Grupo 1230611" transform="translate(1763.308 544.593)">
        <g id="Grupo_1230591" data-name="Grupo 1230591" transform="translate(0 0)">
          <path id="Trazado_1182104" data-name="Trazado 1182104" d="M2218.227,761.85s-23.084,6-27.495-12.283,4.208-25.065,4.208-25.065,1.2-9.9,10-14.062,13.025-2.983,13.025-2.983,8.276-7.55,18.813-7.051,11.459,2.5,11.459,2.5,14.835-5.787,22.3,2.143a15.162,15.162,0,0,1,15.835,7.122s12.187,4.932,13.55,14.538c0,0,8.8,8.249,5.826,18.4,0,0,5.162,14.85-5.438,19.188,0,0-5.221,7.8-20.488,1.976,0,0-12.688,2.468-18.4-1.951a7.667,7.667,0,0,0-5.49,2.934C2253.342,770.26,2224.062,781.229,2218.227,761.85Z" transform="translate(-2189.476 -700.383)" fill="#ff8548"/>
        </g>
        <g id="Grupo_1230610" data-name="Grupo 1230610" transform="translate(7.177 10.891)">
          <g id="Grupo_1230592" data-name="Grupo 1230592" transform="translate(23.289 34.717)">
            <path id="Trazado_1182105" data-name="Trazado 1182105" d="M2318.03,907.17a.634.634,0,0,1-.621-.51c-.761-3.817-.177-7.061,1.736-9.641,3.592-4.844,10.53-5.577,10.824-5.606a.634.634,0,0,1,.124,1.261c-.073.007-6.684.715-9.934,5.1-1.688,2.279-2.195,5.184-1.507,8.633a.634.634,0,0,1-.5.745A.615.615,0,0,1,2318.03,907.17Z" transform="translate(-2317.085 -891.41)" fill="#ff443c"/>
          </g>
          <g id="Grupo_1230593" data-name="Grupo 1230593" transform="translate(37.719 47.552)">
            <path id="Trazado_1182106" data-name="Trazado 1182106" d="M2384.667,949.125a14.986,14.986,0,0,1-1.856-.118,16.682,16.682,0,0,1-4.935-1.4.634.634,0,0,1,.565-1.134c.081.04,7.668,3.713,13.247-1.149a.634.634,0,0,1,.833.956A11.7,11.7,0,0,1,2384.667,949.125Z" transform="translate(-2377.525 -945.172)" fill="#ff443c"/>
          </g>
          <g id="Grupo_1230594" data-name="Grupo 1230594" transform="translate(42.157 50.239)">
            <path id="Trazado_1182107" data-name="Trazado 1182107" d="M2396.748,963.3a.634.634,0,0,1-.246-1.218c.109-.047,2.457-1.116,1.724-4.9a.634.634,0,1,1,1.244-.241,6.055,6.055,0,0,1-.845,4.946,4.215,4.215,0,0,1-1.637,1.365A.63.63,0,0,1,2396.748,963.3Z" transform="translate(-2396.115 -956.424)" fill="#ff443c"/>
          </g>
          <g id="Grupo_1230595" data-name="Grupo 1230595" transform="translate(44.496 29.902)">
            <path id="Trazado_1182108" data-name="Trazado 1182108" d="M2406.542,884.133a.634.634,0,0,1-.028-1.267,24.076,24.076,0,0,0,7.219-1.668c4.6-1.929,6.871-5.058,6.745-9.3a.634.634,0,1,1,1.267-.037c.141,4.761-2.47,8.4-7.552,10.518a24.935,24.935,0,0,1-7.622,1.752Z" transform="translate(-2405.908 -871.246)" fill="#ff443c"/>
          </g>
          <g id="Grupo_1230596" data-name="Grupo 1230596" transform="translate(57.041 33.592)">
            <path id="Trazado_1182109" data-name="Trazado 1182109" d="M2466.575,891.617a31.335,31.335,0,0,1-7.643-1.066.634.634,0,1,1,.311-1.229c12.8,3.239,15.775-2.223,15.8-2.279a.634.634,0,0,1,1.127.579C2476.068,887.828,2474.015,891.617,2466.575,891.617Z" transform="translate(-2458.454 -886.699)" fill="#ff443c"/>
          </g>
          <g id="Grupo_1230597" data-name="Grupo 1230597" transform="translate(82.063 38.473)">
            <path id="Trazado_1182110" data-name="Trazado 1182110" d="M2574.442,919.787h-.022a.634.634,0,0,1-.612-.654,13.225,13.225,0,0,0-1.14-5.29c-1.585-3.445-4.546-5.273-8.8-5.431a.634.634,0,0,1,.047-1.266c5.965.222,8.688,3.5,9.923,6.211a14.3,14.3,0,0,1,1.236,5.819A.632.632,0,0,1,2574.442,919.787Z" transform="translate(-2563.259 -907.145)" fill="#ff443c"/>
          </g>
          <g id="Grupo_1230598" data-name="Grupo 1230598" transform="translate(2.492 12.13)">
            <path id="Trazado_1182111" data-name="Trazado 1182111" d="M2230.608,802.183a.634.634,0,0,1-.41-1.117c4.412-3.741,10-5.054,16.153-3.8a26.433,26.433,0,0,1,8.014,3.048.634.634,0,0,1-.672,1.075,25.652,25.652,0,0,0-7.635-2.889c-5.827-1.18-10.887.007-15.04,3.529A.63.63,0,0,1,2230.608,802.183Z" transform="translate(-2229.974 -796.807)" fill="#ff443c"/>
          </g>
          <g id="Grupo_1230599" data-name="Grupo 1230599" transform="translate(17.39 3.033)">
            <path id="Trazado_1182112" data-name="Trazado 1182112" d="M2293.767,768.924a.633.633,0,0,1-.572-.359c-2.937-6.1,2.936-9.737,3-9.773a.634.634,0,0,1,.655,1.085c-.209.127-4.939,3.086-2.509,8.138a.634.634,0,0,1-.571.908Z" transform="translate(-2292.374 -758.701)" fill="#ff443c"/>
          </g>
          <g id="Grupo_1230600" data-name="Grupo 1230600" transform="translate(0 26.583)">
            <path id="Trazado_1182113" data-name="Trazado 1182113" d="M2227.03,869.174a6.446,6.446,0,0,1-4.2-1.615,8.734,8.734,0,0,1-2.765-9.831.634.634,0,0,1,1.166.5,7.346,7.346,0,0,0,2.416,8.366,5.072,5.072,0,0,0,5.5.872c2.154-.9,3.641-2.839,3.7-3.557a.634.634,0,1,1,1.263.1c-.111,1.35-2.049,3.615-4.476,4.624A6.771,6.771,0,0,1,2227.03,869.174Z" transform="translate(-2219.537 -857.342)" fill="#ff443c"/>
          </g>
          <g id="Grupo_1230601" data-name="Grupo 1230601" transform="translate(8.795 36.986)">
            <path id="Trazado_1182114" data-name="Trazado 1182114" d="M2263.8,908.516a.642.642,0,0,1-.071,0c-2.52-.28-7.3-2.094-7.353-6.955a.634.634,0,0,1,1.267-.014c.055,4.967,6.165,5.7,6.226,5.71a.634.634,0,0,1-.07,1.264Z" transform="translate(-2256.374 -900.916)" fill="#ff443c"/>
          </g>
          <g id="Grupo_1230602" data-name="Grupo 1230602" transform="translate(20.095 10.701)">
            <path id="Trazado_1182115" data-name="Trazado 1182115" d="M2310.509,804.658a11.173,11.173,0,0,1-2.775-.366,13.759,13.759,0,0,1-3.74-1.574.634.634,0,0,1,.69-1.063h0c.056.036,5.6,3.551,10.034.451a6.456,6.456,0,0,0,2.9-5.5,5.815,5.815,0,0,0-2.084-4.617.634.634,0,1,1,.7-1.06,7.026,7.026,0,0,1,2.656,5.658,7.7,7.7,0,0,1-3.444,6.562A8.476,8.476,0,0,1,2310.509,804.658Z" transform="translate(-2303.707 -790.821)" fill="#ff443c"/>
          </g>
          <g id="Grupo_1230603" data-name="Grupo 1230603" transform="translate(46.001 6.968)">
            <path id="Trazado_1182116" data-name="Trazado 1182116" d="M2415.59,793.424a.632.632,0,0,1-.5-.238,11.932,11.932,0,0,1-2.444-10.818,10.065,10.065,0,0,1,6.9-6.7c3.182-1.007,6.8-.425,10.459,1.685a22.349,22.349,0,0,1,4.574,3.487.634.634,0,0,1-.915.877c-.068-.07-6.845-7.021-13.735-4.84a8.83,8.83,0,0,0-6.069,5.86,10.67,10.67,0,0,0,2.22,9.658.634.634,0,0,1-.494,1.03Z" transform="translate(-2412.212 -775.186)" fill="#ff443c"/>
          </g>
          <g id="Grupo_1230604" data-name="Grupo 1230604" transform="translate(57.518 11.515)">
            <path id="Trazado_1182117" data-name="Trazado 1182117" d="M2467.768,804.537c-5.838,0-7.221-3.627-7.28-3.787a.634.634,0,0,1,1.19-.436c.053.139,1.287,3.2,6.734,2.94a9.364,9.364,0,0,0,7.455-4.078,4.5,4.5,0,0,0,.658-4.072.634.634,0,1,1,1.173-.48,5.734,5.734,0,0,1-.762,5.233,10.674,10.674,0,0,1-8.464,4.663C2468.231,804.532,2468,804.537,2467.768,804.537Z" transform="translate(-2460.451 -794.23)" fill="#ff443c"/>
          </g>
          <g id="Grupo_1230605" data-name="Grupo 1230605" transform="translate(26.732)">
            <path id="Trazado_1182118" data-name="Trazado 1182118" d="M2332.137,755.089c-.02,0-.04,0-.06,0a.634.634,0,0,1-.571-.69c.02-.213.6-5.249,10.027-7.768a17.922,17.922,0,0,1,16.058,3.472.634.634,0,0,1-.851.94h0a16.953,16.953,0,0,0-14.881-3.187c-8.584,2.294-9.089,6.62-9.093,6.663A.634.634,0,0,1,2332.137,755.089Z" transform="translate(-2331.503 -745.999)" fill="#ff443c"/>
          </g>
          <g id="Grupo_1230606" data-name="Grupo 1230606" transform="translate(39.056 24.225)">
            <path id="Trazado_1182119" data-name="Trazado 1182119" d="M2392.192,857.356a8.265,8.265,0,0,1-7.316-4.506,15.092,15.092,0,0,1-1.744-4.644.634.634,0,0,1,1.25-.211h0a14.047,14.047,0,0,0,1.6,4.242c1.583,2.673,3.786,3.965,6.56,3.843a.634.634,0,1,1,.056,1.266C2392.465,857.353,2392.328,857.356,2392.192,857.356Z" transform="translate(-2383.123 -847.468)" fill="#ff443c"/>
          </g>
          <g id="Grupo_1230607" data-name="Grupo 1230607" transform="translate(69.566 3.871)">
            <path id="Trazado_1182120" data-name="Trazado 1182120" d="M2524.414,782.008a.634.634,0,0,1-.155-1.248c2.388-.6,4.3-3.19,4.754-6.441a8.938,8.938,0,0,0-4.176-9.172,12.2,12.2,0,0,0-12.917.369.634.634,0,0,1-.742-1.027,13.7,13.7,0,0,1,14.294-.438,10.184,10.184,0,0,1,4.8,10.444c-.535,3.814-2.772,6.755-5.7,7.494A.618.618,0,0,1,2524.414,782.008Z" transform="translate(-2510.917 -762.213)" fill="#ff443c"/>
          </g>
          <g id="Grupo_1230608" data-name="Grupo 1230608" transform="translate(86.157 19.442)">
            <path id="Trazado_1182121" data-name="Trazado 1182121" d="M2593.394,841.678a.634.634,0,0,1-.621-.512,26.4,26.4,0,0,0-2.542-6.836c-2.371-4.246-5.427-6.105-9.09-5.528a.634.634,0,1,1-.2-1.252c4.187-.66,7.787,1.479,10.408,6.188a27.221,27.221,0,0,1,2.666,7.185.634.634,0,0,1-.5.743A.692.692,0,0,1,2593.394,841.678Z" transform="translate(-2580.408 -827.433)" fill="#ff443c"/>
          </g>
          <g id="Grupo_1230609" data-name="Grupo 1230609" transform="translate(75.167 17.226)">
            <path id="Trazado_1182122" data-name="Trazado 1182122" d="M2541.579,831.265c-2.956,0-5.1-1.01-6.232-2.956-3.049-5.226,2.067-9.948,2.119-9.995a.634.634,0,0,1,.85.94,9.942,9.942,0,0,0-1.933,2.635,5.779,5.779,0,0,0,.059,5.782c2.522,4.322,10.747,1.305,10.83,1.274a.634.634,0,0,1,.445,1.187,20.492,20.492,0,0,1-4.909,1.08C2542.385,831.247,2541.975,831.265,2541.579,831.265Z" transform="translate(-2534.377 -818.15)" fill="#ff443c"/>
          </g>
        </g>
      </g>
      <g id="Grupo_1230614" data-name="Grupo 1230614" transform="translate(1663.337 560.937)">
        <g id="Grupo_1230612" data-name="Grupo 1230612" transform="translate(0)">
          <path id="Trazado_1182123" data-name="Trazado 1182123" d="M1796.566,818.251q-.1,0-.207-.008l-4.441-.336a2.678,2.678,0,0,1-2.467-2.874l.254-3.322a2.4,2.4,0,0,0-1.356-2.34l-.032-.015a2.392,2.392,0,0,0-2.748.5L1783.1,812.4a2.678,2.678,0,0,1-3.786.065l-3.2-3.094a2.678,2.678,0,0,1-.064-3.786l2.871-2.97a2.375,2.375,0,0,0,.491-2.573q-.139-.33-.265-.667a2.4,2.4,0,0,0-2.064-1.531l-3.865-.294a2.681,2.681,0,0,1-2.467-2.872l.336-4.436a2.677,2.677,0,0,1,2.873-2.467l2.873.219a2.4,2.4,0,0,0,2.417-1.535,18.028,18.028,0,0,1,1.084-2.279,2.415,2.415,0,0,0-.121-2.572l-2.116-2.989a2.681,2.681,0,0,1,.638-3.732l3.633-2.573a2.677,2.677,0,0,1,3.733.637l1.5,2.112a2.374,2.374,0,0,0,2.711.884q.3-.1.612-.193a2.383,2.383,0,0,0,1.677-2.1l.18-2.345a2.681,2.681,0,0,1,2.872-2.465l4.438.336a2.677,2.677,0,0,1,2.467,2.873l-.179,2.343a2.383,2.383,0,0,0,1.342,2.334q.293.138.579.285a2.374,2.374,0,0,0,2.811-.466l1.8-1.862a2.678,2.678,0,0,1,3.787-.066l3.2,3.092a2.681,2.681,0,0,1,.066,3.785l-2.542,2.633a2.413,2.413,0,0,0-.508,2.526,17.929,17.929,0,0,1,.728,2.413,2.4,2.4,0,0,0,2.156,1.881l2.875.219a2.681,2.681,0,0,1,2.467,2.873l-.338,4.439a2.677,2.677,0,0,1-2.874,2.466l-3.865-.3a2.4,2.4,0,0,0-2.271,1.2c-.116.208-.238.415-.362.618a2.374,2.374,0,0,0,.1,2.618l2.39,3.371a2.681,2.681,0,0,1-.635,3.733l-3.633,2.576a2.677,2.677,0,0,1-3.734-.637l-2.049-2.895a2.392,2.392,0,0,0-2.642-.907l-.038.012a2.4,2.4,0,0,0-1.694,2.109l-.251,3.32a2.677,2.677,0,0,1-2.666,2.476Zm-8.1-9.139a2.685,2.685,0,0,1,1.519,2.621l-.254,3.322a2.392,2.392,0,0,0,2.2,2.567l4.441.336a2.391,2.391,0,0,0,2.565-2.2l.251-3.32a2.684,2.684,0,0,1,1.9-2.361l.078.126-.041-.137a2.677,2.677,0,0,1,2.958,1.015l2.049,2.895a2.391,2.391,0,0,0,3.335.569l3.633-2.576a2.394,2.394,0,0,0,.568-3.334l-2.39-3.371a2.661,2.661,0,0,1-.107-2.933c.122-.2.242-.4.356-.608a2.681,2.681,0,0,1,2.542-1.347l3.865.3a2.392,2.392,0,0,0,2.567-2.2l.338-4.439a2.4,2.4,0,0,0-2.2-2.566l-2.875-.219a2.681,2.681,0,0,1-2.414-2.1,17.626,17.626,0,0,0-.717-2.375,2.7,2.7,0,0,1,.569-2.827l.1.1-.1-.1,2.542-2.633a2.394,2.394,0,0,0-.059-3.381l-3.2-3.092a2.391,2.391,0,0,0-3.382.058l-1.8,1.862a2.659,2.659,0,0,1-3.148.521q-.282-.145-.57-.28a2.671,2.671,0,0,1-1.505-2.614l.179-2.343a2.392,2.392,0,0,0-2.2-2.566l-4.438-.336a2.394,2.394,0,0,0-2.565,2.2l-.18,2.345a2.671,2.671,0,0,1-1.881,2.354q-.3.09-.6.19a2.659,2.659,0,0,1-3.035-.99l-1.5-2.112a2.391,2.391,0,0,0-3.334-.569l-3.633,2.573a2.394,2.394,0,0,0-.569,3.333l2.116,2.989a2.7,2.7,0,0,1,.137,2.878,17.7,17.7,0,0,0-1.066,2.243,2.678,2.678,0,0,1-2.7,1.716l-2.873-.219a2.392,2.392,0,0,0-2.566,2.2l-.336,4.436a2.394,2.394,0,0,0,2.2,2.565l3.865.294a2.683,2.683,0,0,1,2.31,1.716q.124.331.261.656a2.66,2.66,0,0,1-.549,2.883l-2.871,2.97a2.391,2.391,0,0,0,.058,3.382l3.2,3.094a2.391,2.391,0,0,0,3.381-.058l2.466-2.552a2.679,2.679,0,0,1,3.076-.556l-.03.144Z" transform="translate(-1770.744 -768.838)" fill="#4f1a44"/>
        </g>
        <g id="Grupo_1230613" data-name="Grupo 1230613" transform="translate(14.943 15.313)">
          <path id="Trazado_1182124" data-name="Trazado 1182124" d="M1842.47,852.606q-.3,0-.59-.022a8.7,8.7,0,0,1-6.378-3.868,11.563,11.563,0,0,1-2.141-7.472,8.276,8.276,0,0,1,4.056-6.24,12.569,12.569,0,0,1,7.655-2,9.842,9.842,0,0,1,6.538,3.084,8.815,8.815,0,0,1,2.323,6.72h0a10.383,10.383,0,0,1-4.217,7A12.13,12.13,0,0,1,1842.47,852.606Zm1.776-19.343a12.56,12.56,0,0,0-6.675,1.981,8,8,0,0,0-3.927,6.022,11.275,11.275,0,0,0,2.089,7.284,8.423,8.423,0,0,0,6.167,3.749c5.224.4,11.37-4.579,11.745-9.509a8.533,8.533,0,0,0-2.248-6.5,9.555,9.555,0,0,0-6.349-2.992Q1844.651,833.263,1844.246,833.263Zm9.543,9.538h0Z" transform="translate(-1833.331 -832.975)" fill="#4f1a44"/>
        </g>
      </g>
      <g id="Grupo_1230618" data-name="Grupo 1230618" transform="translate(1880.254 495.733)">
        <g id="Grupo_1230615" data-name="Grupo 1230615">
          <path id="Trazado_1182125" data-name="Trazado 1182125" d="M2763.033,541.689l6.5-2.189a4.749,4.749,0,0,0,2.986-6.014l-2.657-7.9a4.749,4.749,0,0,0-6.016-2.987l-4.6,1.548a4.744,4.744,0,0,1-5.382-1.748q-.347-.489-.712-.965a4.717,4.717,0,0,1-.235-5.343l2.317-3.744a4.749,4.749,0,0,0-1.54-6.539l-7.093-4.386a4.749,4.749,0,0,0-6.535,1.538l-2.322,3.746a4.716,4.716,0,0,1-4.88,2.172q-.587-.113-1.176-.2a4.744,4.744,0,0,1-3.972-4.036l-.667-4.8a4.749,4.749,0,0,0-5.358-4.05l-8.263,1.149a4.749,4.749,0,0,0-4.05,5.356l.942,6.8a4.768,4.768,0,0,1-2.135,4.644,33.32,33.32,0,0,0-3.738,2.834,4.773,4.773,0,0,1-5.661.5l-4.591-2.841a4.749,4.749,0,0,0-6.538,1.541l-4.385,7.091a4.749,4.749,0,0,0,1.54,6.536l6.176,3.821a4.749,4.749,0,0,1,2.239,4.587q-.08.663-.133,1.327a4.727,4.727,0,0,1-3.217,4.09l-7.337,2.465a4.749,4.749,0,0,0-2.989,6.015l2.659,7.909a4.749,4.749,0,0,0,6.015,2.988l6.3-2.12a4.752,4.752,0,0,1,5.3,1.635l.04.053a4.737,4.737,0,0,1,.253,5.366l-3.287,5.309a4.749,4.749,0,0,0,1.54,6.539l7.1,4.389a4.749,4.749,0,0,0,6.537-1.543l3.28-5.308a4.736,4.736,0,0,1,4.915-2.17l.073.014a4.752,4.752,0,0,1,3.829,4.013l.913,6.583a4.749,4.749,0,0,0,5.36,4.051l8.265-1.153a4.749,4.749,0,0,0,4.047-5.359l-1.069-7.668a4.727,4.727,0,0,1,2.224-4.7q.569-.343,1.126-.71a4.745,4.745,0,0,1,5.1-.044l6.176,3.824a4.749,4.749,0,0,0,6.538-1.539l4.39-7.094a4.749,4.749,0,0,0-1.54-6.537l-4.594-2.843a4.774,4.774,0,0,1-2.084-5.284,33.2,33.2,0,0,0,.863-4.605A4.77,4.77,0,0,1,2763.033,541.689Zm-20.494,10.359c-5.1,8.237-19.871,10.875-28.108,5.779s-9.407-17.614-4.308-25.843,17.979-8.613,26.215-3.517S2747.636,543.811,2742.539,552.048Z" transform="translate(-2679.305 -495.733)" fill="#c8c1e1"/>
        </g>
        <g id="Grupo_1230617" data-name="Grupo 1230617" transform="translate(2.066 4.505)">
          <g id="Grupo_1230616" data-name="Grupo 1230616">
            <path id="Trazado_1182126" data-name="Trazado 1182126" d="M2738.514,608.6a4.893,4.893,0,0,1-4.835-4.22l-.913-6.583a4.609,4.609,0,0,0-3.715-3.893l-.073-.014a4.619,4.619,0,0,0-4.767,2.1l-3.28,5.308a4.892,4.892,0,0,1-6.734,1.589l-7.1-4.389a4.892,4.892,0,0,1-1.586-6.736l3.287-5.309a4.617,4.617,0,0,0-.245-5.2l-.041-.053a4.608,4.608,0,0,0-5.139-1.587l-6.3,2.12a4.892,4.892,0,0,1-6.2-3.077l-2.659-7.909a4.892,4.892,0,0,1,3.079-6.2l7.338-2.465a4.574,4.574,0,0,0,3.12-3.966c.036-.444.081-.893.134-1.333a4.616,4.616,0,0,0-2.172-4.449l-6.176-3.821a4.9,4.9,0,0,1-1.587-6.733l4.385-7.091a4.892,4.892,0,0,1,6.734-1.587l4.591,2.84a4.613,4.613,0,0,0,5.493-.482,33.615,33.615,0,0,1,3.754-2.846,4.649,4.649,0,0,0,2.071-4.5l-.943-6.8a4.9,4.9,0,0,1,4.172-5.517l8.263-1.149a4.892,4.892,0,0,1,5.519,4.172l.667,4.8a4.574,4.574,0,0,0,3.853,3.915c.393.061.79.13,1.181.205a4.594,4.594,0,0,0,4.732-2.107l2.321-3.746a4.9,4.9,0,0,1,6.731-1.584l7.093,4.386a4.892,4.892,0,0,1,1.587,6.735l-2.317,3.744a4.593,4.593,0,0,0,.227,5.181c.242.317.483.643.715.97a4.575,4.575,0,0,0,5.22,1.7l4.6-1.548a4.892,4.892,0,0,1,6.2,3.077l2.657,7.9a4.9,4.9,0,0,1-3.076,6.2l-6.5,2.189h0a4.649,4.649,0,0,0-3.108,3.87,33.55,33.55,0,0,1-.866,4.625,4.614,4.614,0,0,0,2.02,5.126l4.594,2.843a4.892,4.892,0,0,1,1.586,6.734l-4.39,7.094a4.892,4.892,0,0,1-6.735,1.585l-6.176-3.824a4.611,4.611,0,0,0-4.949.042c-.371.245-.752.485-1.131.713a4.576,4.576,0,0,0-2.156,4.562l1.069,7.668a4.9,4.9,0,0,1-4.169,5.52l-8.265,1.153A4.888,4.888,0,0,1,2738.514,608.6Zm-10.381-15.075a4.774,4.774,0,0,1,.9.085l.072.014a4.893,4.893,0,0,1,3.944,4.134l.914,6.583a4.606,4.606,0,0,0,5.2,3.929l8.265-1.153a4.612,4.612,0,0,0,3.926-5.2l-1.069-7.668a4.86,4.86,0,0,1,2.292-4.847c.376-.226.753-.464,1.122-.707a4.9,4.9,0,0,1,5.256-.046l6.176,3.824a4.606,4.606,0,0,0,6.342-1.492l4.39-7.094a4.606,4.606,0,0,0-1.493-6.341l-4.594-2.843a4.9,4.9,0,0,1-2.146-5.441,33.288,33.288,0,0,0,.859-4.586,4.935,4.935,0,0,1,3.3-4.108l.045.135-.045-.135,6.5-2.189a4.612,4.612,0,0,0,2.9-5.834l-2.657-7.9a4.606,4.606,0,0,0-5.836-2.9l-4.6,1.548a4.859,4.859,0,0,1-5.544-1.8c-.23-.324-.469-.647-.709-.961a4.878,4.878,0,0,1-.243-5.5l2.317-3.744a4.606,4.606,0,0,0-1.494-6.342l-7.093-4.386a4.612,4.612,0,0,0-6.338,1.491l-2.322,3.746a4.88,4.88,0,0,1-5.028,2.237c-.387-.075-.781-.143-1.17-.2a4.858,4.858,0,0,1-4.091-4.158l-.667-4.8a4.606,4.606,0,0,0-5.2-3.929l-8.262,1.149a4.612,4.612,0,0,0-3.929,5.195l.943,6.8a4.936,4.936,0,0,1-2.2,4.783,33.357,33.357,0,0,0-3.722,2.822,4.9,4.9,0,0,1-5.831.51l-4.591-2.841a4.606,4.606,0,0,0-6.342,1.494l-4.385,7.091a4.612,4.612,0,0,0,1.494,6.34l6.176,3.821a4.9,4.9,0,0,1,2.3,4.726c-.052.436-.1.881-.132,1.322a4.859,4.859,0,0,1-3.314,4.213l-7.337,2.465a4.606,4.606,0,0,0-2.9,5.835l2.659,7.909a4.606,4.606,0,0,0,5.834,2.9l6.3-2.12a4.894,4.894,0,0,1,5.458,1.684l.04.052a4.906,4.906,0,0,1,.262,5.528l-3.287,5.309a4.606,4.606,0,0,0,1.494,6.343l7.1,4.389a4.606,4.606,0,0,0,6.341-1.5l3.28-5.308A4.912,4.912,0,0,1,2728.134,593.522Z" transform="translate(-2687.959 -514.603)" fill="#4f1a44"/>
          </g>
        </g>
      </g>
      <g id="Grupo_1230619" data-name="Grupo 1230619" transform="translate(1957.867 584.377)">
        <path id="Trazado_1182127" data-name="Trazado 1182127" d="M3018.432,898.808l0,2.65a1.835,1.835,0,0,0,1.831,1.838l3.221.007a1.834,1.834,0,0,0,1.838-1.831l0-1.874a1.833,1.833,0,0,1,1.306-1.752q.222-.066.442-.141a1.822,1.822,0,0,1,1.984.576l1.083,1.312a1.835,1.835,0,0,0,2.583.247l2.484-2.052a1.835,1.835,0,0,0,.247-2.582l-1.083-1.314a1.822,1.822,0,0,1-.19-2.055q.114-.2.22-.4a1.833,1.833,0,0,1,1.969-.953l1.84.351a1.835,1.835,0,0,0,2.146-1.458l.6-3.166a1.834,1.834,0,0,0-1.458-2.146l-2.6-.5a1.843,1.843,0,0,1-1.435-1.357,12.88,12.88,0,0,0-.574-1.719,1.844,1.844,0,0,1,.52-2.133l1.609-1.328a1.835,1.835,0,0,0,.247-2.583l-2.051-2.483a1.834,1.834,0,0,0-2.582-.246l-2.164,1.786a1.834,1.834,0,0,1-1.956.25q-.233-.111-.469-.213a1.826,1.826,0,0,1-1.1-1.684l.008-2.99a1.835,1.835,0,0,0-1.831-1.839l-3.224-.007a1.835,1.835,0,0,0-1.839,1.831l-.005,2.569a1.836,1.836,0,0,1-1.255,1.736l-.024.008a1.829,1.829,0,0,1-1.994-.572l-1.535-1.861a1.834,1.834,0,0,0-2.583-.247l-2.485,2.053a1.835,1.835,0,0,0-.246,2.583l1.535,1.858a1.829,1.829,0,0,1,.185,2.067l-.014.025a1.835,1.835,0,0,1-1.943.9l-2.521-.482a1.834,1.834,0,0,0-2.146,1.459l-.6,3.167a1.835,1.835,0,0,0,1.459,2.145l2.938.559a1.826,1.826,0,0,1,1.446,1.4q.055.251.12.5a1.834,1.834,0,0,1-.616,1.872l-2.165,1.786a1.835,1.835,0,0,0-.247,2.583l2.052,2.485a1.834,1.834,0,0,0,2.583.247l1.609-1.329a1.844,1.844,0,0,1,2.192-.107,12.84,12.84,0,0,0,1.578.886A1.839,1.839,0,0,1,3018.432,898.808Zm-1.249-8.782c-2.382-2.886-1.516-8.619,1.369-11s7.611-1.259,9.99,1.627.923,7.646-1.962,10.028A6.582,6.582,0,0,1,3017.183,890.026Z" transform="translate(-3004.388 -867.018)" fill="#553e93"/>
      </g>
      <g id="Grupo_1230620" data-name="Grupo 1230620" transform="translate(1840.174 504.078)">
        <path id="Trazado_1182128" data-name="Trazado 1182128" d="M2524.552,560.4l0,2.476a1.715,1.715,0,0,0,1.711,1.718l3.01.007a1.715,1.715,0,0,0,1.719-1.711l0-1.751a1.712,1.712,0,0,1,1.221-1.638q.207-.062.413-.132a1.7,1.7,0,0,1,1.854.539l1.012,1.226a1.714,1.714,0,0,0,2.414.231l2.322-1.917a1.714,1.714,0,0,0,.231-2.413l-1.012-1.228a1.7,1.7,0,0,1-.177-1.92q.106-.188.206-.378a1.713,1.713,0,0,1,1.84-.891l1.719.328a1.715,1.715,0,0,0,2.006-1.363l.564-2.958a1.715,1.715,0,0,0-1.362-2.006l-2.433-.465a1.721,1.721,0,0,1-1.341-1.268,12.092,12.092,0,0,0-.536-1.607,1.724,1.724,0,0,1,.486-1.994l1.5-1.241a1.715,1.715,0,0,0,.23-2.414l-1.917-2.321a1.715,1.715,0,0,0-2.414-.23l-2.022,1.669a1.715,1.715,0,0,1-1.828.234q-.218-.1-.438-.2a1.706,1.706,0,0,1-1.026-1.574l.007-2.795a1.715,1.715,0,0,0-1.711-1.719l-3.013-.007a1.715,1.715,0,0,0-1.719,1.711l-.005,2.4a1.716,1.716,0,0,1-1.173,1.622l-.023.008a1.71,1.71,0,0,1-1.864-.535l-1.435-1.739a1.714,1.714,0,0,0-2.414-.231l-2.323,1.919a1.714,1.714,0,0,0-.23,2.414l1.435,1.736a1.71,1.71,0,0,1,.173,1.932l-.013.023a1.715,1.715,0,0,1-1.816.844l-2.357-.45a1.714,1.714,0,0,0-2.006,1.364l-.563,2.96a1.715,1.715,0,0,0,1.364,2l2.746.523a1.706,1.706,0,0,1,1.351,1.305q.052.235.113.467a1.713,1.713,0,0,1-.576,1.75l-2.023,1.669a1.714,1.714,0,0,0-.231,2.414l1.917,2.323a1.715,1.715,0,0,0,2.414.231l1.5-1.242a1.723,1.723,0,0,1,2.048-.1,12.051,12.051,0,0,0,1.475.828A1.72,1.72,0,0,1,2524.552,560.4Zm-1.167-8.208c-2.226-2.7-1.417-8.055,1.28-10.281s7.113-1.176,9.336,1.52.863,7.146-1.834,9.372A6.151,6.151,0,0,1,2523.385,552.187Z" transform="translate(-2511.428 -530.685)" fill="#786ab5"/>
      </g>
      <g id="Grupo_1230676" data-name="Grupo 1230676" transform="translate(1881.381 619.203)">
        <g id="Grupo_1230627" data-name="Grupo 1230627" transform="translate(9.086 68.279)">
          <g id="Grupo_1230621" data-name="Grupo 1230621" transform="translate(2.255 5.112)">
            <path id="Trazado_1182129" data-name="Trazado 1182129" d="M2732.142,1320.322h0a.843.843,0,0,0-.583,1.036l1.934,6.913a.843.843,0,0,0,1.036.583h0a.843.843,0,0,0,.583-1.036l-1.934-6.913A.844.844,0,0,0,2732.142,1320.322Z" transform="translate(-2731.527 -1320.291)" fill="#fdad9b"/>
          </g>
          <g id="Grupo_1230622" data-name="Grupo 1230622" transform="translate(4.328 4.532)">
            <path id="Trazado_1182130" data-name="Trazado 1182130" d="M2740.822,1317.892h0a.844.844,0,0,0-.583,1.036l2.163,7.731a.843.843,0,0,0,1.036.583h0a.844.844,0,0,0,.583-1.036l-2.163-7.731A.843.843,0,0,0,2740.822,1317.892Z" transform="translate(-2740.207 -1317.861)" fill="#fdad9b"/>
          </g>
          <g id="Grupo_1230623" data-name="Grupo 1230623" transform="translate(4.044)">
            <path id="Trazado_1182131" data-name="Trazado 1182131" d="M2739.3,1299.335l-.072.1a1.108,1.108,0,0,0,.248,1.543l4.271,3.088a1.108,1.108,0,0,0,1.543-.248l.072-.1a1.109,1.109,0,0,0-.248-1.543l-4.271-3.087A1.108,1.108,0,0,0,2739.3,1299.335Z" transform="translate(-2739.017 -1298.879)" fill="#fdad9b"/>
          </g>
          <g id="Grupo_1230624" data-name="Grupo 1230624" transform="translate(6.402 3.953)">
            <path id="Trazado_1182132" data-name="Trazado 1182132" d="M2749.511,1315.469h0a.843.843,0,0,0-.583,1.036l1.733,6.2a.843.843,0,0,0,1.036.583h0a.843.843,0,0,0,.583-1.036l-1.733-6.2A.842.842,0,0,0,2749.511,1315.469Z" transform="translate(-2748.897 -1315.437)" fill="#fdad9b"/>
          </g>
          <g id="Grupo_1230625" data-name="Grupo 1230625" transform="translate(0 1.361)">
            <path id="Trazado_1182133" data-name="Trazado 1182133" d="M2722.443,1304.817s-1.228,4.646.833,7.369c.713.942,6.768-.933,7.007-2.235s-1.34-5.374-1.34-5.374Z" transform="translate(-2722.081 -1304.578)" fill="#fdad9b"/>
          </g>
          <g id="Grupo_1230626" data-name="Grupo 1230626" transform="translate(0.196 5.683)">
            <path id="Trazado_1182134" data-name="Trazado 1182134" d="M2723.516,1322.712h0a.842.842,0,0,0-.582,1.034l1.73,6.184a.842.842,0,0,0,1.034.582h0a.842.842,0,0,0,.582-1.034l-1.73-6.184A.843.843,0,0,0,2723.516,1322.712Z" transform="translate(-2722.903 -1322.681)" fill="#fdad9b"/>
          </g>
        </g>
        <g id="Grupo_1230629" data-name="Grupo 1230629" transform="translate(8.928 26.581)">
          <g id="Grupo_1230628" data-name="Grupo 1230628">
            <path id="Trazado_1182135" data-name="Trazado 1182135" d="M2729.455,1167.772c0-9.378.732-22.853,4.213-33.787a31.968,31.968,0,0,1,1.833-4.894c.548-1.131-.821-3.383-2.746-4.341-1.806-.9-4.453-.485-4.827.075a28.225,28.225,0,0,0-2.191,5.532c-3.282,9.76-4.659,22.107-4.244,37.828Z" transform="translate(-2721.421 -1124.226)" fill="#fdad9b"/>
          </g>
        </g>
        <g id="Grupo_1230630" data-name="Grupo 1230630" transform="translate(23.285 135.327)">
          <path id="Trazado_1182136" data-name="Trazado 1182136" d="M2788.9,1579.71s-.066,2.656-1.863,3.405-7,1.425-5.059,3.132c1.117.98,6.378.347,7.863.347s2.88.648,3.984-.347c1.214-1.094,0-6.538,0-6.538a5.934,5.934,0,0,1-2.435.638A4.728,4.728,0,0,1,2788.9,1579.71Z" transform="translate(-2781.552 -1579.71)" fill="#66192d"/>
        </g>
        <g id="Grupo_1230631" data-name="Grupo 1230631" transform="translate(15.122 55.177)">
          <path id="Trazado_1182137" data-name="Trazado 1182137" d="M2747.372,1244s-.359,11.986,3.467,34.978c2.761,16.6,6.021,33.325,7.62,41.344a6.256,6.256,0,0,0,5.844,5.081l1.536.062a5.251,5.251,0,0,0,5.375-5.688l-3.88-54.251-.956-17.856Z" transform="translate(-2747.363 -1244)" fill="#ff443c"/>
        </g>
        <g id="Grupo_1230632" data-name="Grupo 1230632" transform="translate(40.305 135.327)">
          <path id="Trazado_1182138" data-name="Trazado 1182138" d="M2860.192,1579.71s-.067,2.656-1.864,3.405-7,1.425-5.058,3.132c1.116.98,6.378.347,7.863.347s2.88.648,3.984-.347c1.215-1.094,0-6.538,0-6.538a5.93,5.93,0,0,1-2.435.638A4.728,4.728,0,0,1,2860.192,1579.71Z" transform="translate(-2852.841 -1579.71)" fill="#66192d"/>
        </g>
        <g id="Grupo_1230633" data-name="Grupo 1230633" transform="translate(32.142 55.177)">
          <path id="Trazado_1182139" data-name="Trazado 1182139" d="M2818.662,1244s-.359,11.986,3.467,34.978c2.761,16.6,6.021,33.325,7.621,41.344a6.256,6.256,0,0,0,5.844,5.081l1.536.062a5.251,5.251,0,0,0,5.375-5.688l-3.88-54.251-.956-17.856Z" transform="translate(-2818.653 -1244)" fill="#ff443c"/>
        </g>
        <g id="Grupo_1230634" data-name="Grupo 1230634" transform="translate(14.018 19.718)">
          <path id="Trazado_1182140" data-name="Trazado 1182140" d="M2779.107,1103.136s-1.912-7.579-16.022-7.656c-20.348-.111-18.464,18.586-20.347,47,0,0,20.043-2.834,39.026,1.24C2781.764,1143.719,2783.526,1114.715,2779.107,1103.136Z" transform="translate(-2742.738 -1095.479)" fill="#552748"/>
        </g>
        <g id="Grupo_1230635" data-name="Grupo 1230635" transform="translate(14.019 19.653)">
          <path id="Trazado_1182141" data-name="Trazado 1182141" d="M2784.321,1101.841l-9.216,5.1s-20.178,1.832-25.535.95-6.826-4.816-6.826-4.816a29.525,29.525,0,0,1,15.4-7.479c.911-.149,1.856-.259,2.836-.323a27.876,27.876,0,0,1,4.9.1C2778.173,1096.756,2784.321,1101.841,2784.321,1101.841Z" transform="translate(-2742.744 -1095.208)" fill="#552748"/>
        </g>
        <g id="Grupo_1230636" data-name="Grupo 1230636" transform="translate(30.82 7.66)">
          <path id="Trazado_1182142" data-name="Trazado 1182142" d="M2818.6,1055.3l-1.065-3.438-.31-1-1.823-5.884-.24,5.853-.144,3.513-.045,1.112c-.031.755-.491.914-1.051,1.569-.227.266-1.679,1.877-.031,2.605,2.052.907,5.89-.466,7.349-2.265C2821.229,1057.359,2818.944,1056.407,2818.6,1055.3Z" transform="translate(-2813.115 -1044.974)" fill="#fdad9b"/>
        </g>
        <g id="Grupo_1230637" data-name="Grupo 1230637" transform="translate(11.473 19.709)">
          <path id="Trazado_1182143" data-name="Trazado 1182143" d="M2752.235,1095.44s-8.152,16.844-7.417,32.128.868,45.987.868,45.987-7.853,2.536-13.6-1.911c0,0-.28-57.056,6.063-68.446Z" transform="translate(-2732.08 -1095.44)" fill="#ffba41"/>
        </g>
        <g id="Grupo_1230654" data-name="Grupo 1230654" transform="translate(25.966)">
          <g id="Grupo_1230638" data-name="Grupo 1230638" transform="translate(2.286 5.451)">
            <path id="Trazado_1182144" data-name="Trazado 1182144" d="M2802.524,1035.72a7.728,7.728,0,0,0,0,3.21c.371,1.786,2.188-2.6,2.188-2.6Z" transform="translate(-2802.358 -1035.72)" fill="#5c305d"/>
          </g>
          <g id="Grupo_1230639" data-name="Grupo 1230639" transform="translate(1.434 2.925)">
            <ellipse id="Elipse_12904" data-name="Elipse 12904" cx="6.305" cy="5.229" rx="6.305" ry="5.229" transform="translate(0 12.503) rotate(-82.519)" fill="#fdad9b"/>
          </g>
          <g id="Grupo_1230640" data-name="Grupo 1230640">
            <path id="Trazado_1182145" data-name="Trazado 1182145" d="M2805.517,1021.621l-2.531-.263a1.842,1.842,0,0,1-1.367-.828c-.519-.812-1.143-1.229-3.5-1.14-2.99.112-4.964-1.67-5.287-3.235a1.786,1.786,0,0,1,2.7-1.918c1.5.761.857-1.106,2.3-1.3,2.7-.37,3.2,1.71,5.414,1.642,2.9-.089,8.086,2.113,5.625,7.212Z" transform="translate(-2792.783 -1012.89)" fill="#66192d"/>
          </g>
          <g id="Grupo_1230642" data-name="Grupo 1230642" transform="translate(7.096 9.387)">
            <g id="Grupo_1230641" data-name="Grupo 1230641">
              <path id="Trazado_1182146" data-name="Trazado 1182146" d="M2822.552,1052.413a.106.106,0,0,1,.048-.2,1.148,1.148,0,0,1,1.222.7.107.107,0,0,1-.048.142.116.116,0,0,1-.142-.048,1.814,1.814,0,0,0-1.015-.579A.107.107,0,0,1,2822.552,1052.413Z" transform="translate(-2822.502 -1052.208)" fill="#080435"/>
            </g>
          </g>
          <g id="Grupo_1230643" data-name="Grupo 1230643" transform="translate(6.94 10.413)">
            <path id="Trazado_1182147" data-name="Trazado 1182147" d="M2822.515,1057.045c-.066.244-.264.4-.441.354a.41.41,0,0,1-.2-.529c.067-.244.264-.4.441-.354A.412.412,0,0,1,2822.515,1057.045Z" transform="translate(-2821.852 -1056.507)" fill="#080435"/>
          </g>
          <g id="Grupo_1230645" data-name="Grupo 1230645" transform="translate(3.158 8.9)">
            <g id="Grupo_1230644" data-name="Grupo 1230644">
              <path id="Trazado_1182148" data-name="Trazado 1182148" d="M2806.073,1050.545a.078.078,0,0,1-.057-.053.127.127,0,0,1,.041-.143.744.744,0,0,1,1.081.123.126.126,0,0,1,0,.148.078.078,0,0,1-.117.016,1.111,1.111,0,0,0-.9-.1A.07.07,0,0,1,2806.073,1050.545Z" transform="translate(-2806.009 -1050.167)" fill="#080435"/>
            </g>
          </g>
          <g id="Grupo_1230646" data-name="Grupo 1230646" transform="translate(3.525 9.949)">
            <path id="Trazado_1182149" data-name="Trazado 1182149" d="M2808.212,1054.976c.031.251-.091.473-.273.5s-.355-.162-.386-.413.091-.473.273-.5S2808.181,1054.725,2808.212,1054.976Z" transform="translate(-2807.548 -1054.561)" fill="#080435"/>
          </g>
          <g id="Grupo_1230647" data-name="Grupo 1230647" transform="translate(9.64 8.165)">
            <path id="Trazado_1182150" data-name="Trazado 1182150" d="M2839.6,1047.824s-1.748,3.772-4.226,4.049c0,0,2-2.875-2.22-4.627C2833.158,1047.244,2837.038,1046.635,2839.6,1047.824Z" transform="translate(-2833.158 -1047.088)" fill="#66192d"/>
          </g>
          <g id="Grupo_1230648" data-name="Grupo 1230648" transform="translate(10.943 9.071)">
            <path id="Trazado_1182151" data-name="Trazado 1182151" d="M2840.268,1052.8a1.023,1.023,0,1,1,.414-1.469A1.082,1.082,0,0,1,2840.268,1052.8Z" transform="translate(-2838.618 -1050.886)" fill="#fdad9b"/>
          </g>
          <g id="Grupo_1230649" data-name="Grupo 1230649" transform="translate(2.45 8.32)">
            <path id="Trazado_1182152" data-name="Trazado 1182152" d="M2810.233,1047.74s.338,3.166-.306,3.764-4.9.856-6.884.089h0a4.135,4.135,0,0,0,3.405,4.165,6.006,6.006,0,0,0,2.031-.007h0a4.136,4.136,0,0,0,3.314-2.107,12.061,12.061,0,0,0-.333-2.806,2.732,2.732,0,0,1,.633-2.154A4.064,4.064,0,0,0,2810.233,1047.74Z" transform="translate(-2803.042 -1047.74)" fill="#66192d"/>
          </g>
          <g id="Grupo_1230650" data-name="Grupo 1230650" transform="translate(3.499 13.315)">
            <path id="Trazado_1182153" data-name="Trazado 1182153" d="M2807.44,1068.66a10.722,10.722,0,0,0,3.411.269,1.645,1.645,0,0,1-2.063,1.321C2807.739,1070.059,2807.44,1068.66,2807.44,1068.66Z" transform="translate(-2807.44 -1068.66)" fill="#fff"/>
          </g>
          <g id="Grupo_1230651" data-name="Grupo 1230651" transform="translate(3.026 0.404)">
            <path id="Trazado_1182154" data-name="Trazado 1182154" d="M2805.5,1015.278h-.044l0-.142a.659.659,0,0,0,.752-.554l.142.013A.8.8,0,0,1,2805.5,1015.278Z" transform="translate(-2805.457 -1014.581)" fill="#66192d"/>
          </g>
          <g id="Grupo_1230652" data-name="Grupo 1230652" transform="translate(1.08 1.835)">
            <path id="Trazado_1182155" data-name="Trazado 1182155" d="M2800.713,1024.4a9.537,9.537,0,0,1-1.641-.683c-1.092-.589-1.7-1.27-1.755-1.97a1.137,1.137,0,0,1,.261-1c.343-.295.935-.157,1.458-.035.077.018.153.036.226.051l-.015.07-.227-.052c-.507-.118-1.081-.252-1.4.019a1.076,1.076,0,0,0-.237.94c.132,1.638,3.313,2.581,3.345,2.59Z" transform="translate(-2797.307 -1020.574)" fill="#fff"/>
          </g>
          <g id="Grupo_1230653" data-name="Grupo 1230653" transform="translate(7.024 0.863)">
            <path id="Trazado_1182156" data-name="Trazado 1182156" d="M2825.929,1017.983a4.994,4.994,0,0,1-3.727-1.434l.055-.046a3.877,3.877,0,0,0,1.131.831,5.836,5.836,0,0,0,3.485.512l.01.071A7.311,7.311,0,0,1,2825.929,1017.983Z" transform="translate(-2822.202 -1016.504)" fill="#fff"/>
          </g>
        </g>
        <g id="Grupo_1230655" data-name="Grupo 1230655" transform="translate(17.426 26.723)">
          <path id="Trazado_1182157" data-name="Trazado 1182157" d="M2757.237,1129.742l-.224-.062a18.789,18.789,0,0,1,2.6-4.861l.186.139A18.555,18.555,0,0,0,2757.237,1129.742Z" transform="translate(-2757.013 -1124.819)" fill="#66192d"/>
        </g>
        <g id="Grupo_1230656" data-name="Grupo 1230656" transform="translate(27.88 74.932)">
          <path id="Trazado_1182158" data-name="Trazado 1182158" d="M2809.184,1346.65c-.016-.1-1.589-9.855-2.667-13.335-1.068-3.446-5.668-6.344-5.715-6.374l.123-.2c.047.029,4.72,2.973,5.814,6.5,1.083,3.5,2.659,13.269,2.675,13.367Z" transform="translate(-2800.802 -1326.744)" fill="#66192d"/>
        </g>
        <g id="Grupo_1230657" data-name="Grupo 1230657" transform="translate(33.366 19.248)">
          <path id="Trazado_1182159" data-name="Trazado 1182159" d="M2827.881,1093.51s-4.435,5.5-4.082,19.156,5.6,59.418,5.6,59.418h21.845s.153-49.764-8.109-66.207C2843.135,1105.877,2833.912,1094.654,2827.881,1093.51Z" transform="translate(-2823.779 -1093.51)" fill="#ffba41"/>
        </g>
        <g id="Grupo_1230658" data-name="Grupo 1230658" transform="translate(32.444 19.248)">
          <path id="Trazado_1182160" data-name="Trazado 1182160" d="M2824.941,1093.51s12.01,1.151,18.129,7.038,21.535,39.533-23.153,41.67c0,0,3.2-8.228,0-16.353,0,0,10.721.711,12.638-2.636s-8.705-22.854-8.705-22.854Z" transform="translate(-2819.917 -1093.51)" fill="#ffba41"/>
        </g>
        <g id="Grupo_1230659" data-name="Grupo 1230659" transform="translate(31.18 51.606)">
          <path id="Trazado_1182161" data-name="Trazado 1182161" d="M2817.923,1238.03c.338,6.118-1.34,7.364-2.037,7.364s-1.262-3.661-1.262-8.176.565-8.176,1.262-8.176S2817.674,1233.52,2817.923,1238.03Z" transform="translate(-2814.624 -1229.041)" fill="#66192d"/>
        </g>
        <g id="Grupo_1230660" data-name="Grupo 1230660" transform="translate(32.36 58.511)">
          <path id="Trazado_1182162" data-name="Trazado 1182162" d="M2819.66,1267.494h-.013a.085.085,0,0,1,0-.169h.013c.518,0,15.228-.1,26.278-9.341a.085.085,0,0,1,.109.13C2834.952,1267.389,2820.185,1267.494,2819.66,1267.494Z" transform="translate(-2819.563 -1257.964)" fill="#66192d"/>
        </g>
        <g id="Grupo_1230661" data-name="Grupo 1230661" transform="translate(32.36 38.181)">
          <path id="Trazado_1182163" data-name="Trazado 1182163" d="M2820.756,1186.35c-.627,0-1.031-.025-1.114-.031a.084.084,0,1,1,.011-.169c.488.033,11.945.724,14.569-6.772.7-2-.4-6.418-.413-6.463a.085.085,0,0,1,.164-.041c.046.183,1.125,4.513.408,6.56C2832.168,1185.756,2823.814,1186.35,2820.756,1186.35Z" transform="translate(-2819.563 -1172.811)" fill="#66192d"/>
        </g>
        <g id="Grupo_1230662" data-name="Grupo 1230662" transform="translate(7.303 19.709)">
          <path id="Trazado_1182164" data-name="Trazado 1182164" d="M2738.937,1095.44s-12.7.789-17.609,7.812-6.717,43.02-6.717,43.02,2.044,3.615,6.717,1.359,9.11-30.224,9.11-30.224l-2.294-12.471,5.751-5.623Z" transform="translate(-2714.611 -1095.44)" fill="#ffba41"/>
        </g>
        <g id="Grupo_1230665" data-name="Grupo 1230665" transform="translate(0 36.658)">
          <g id="Grupo_1230663" data-name="Grupo 1230663" transform="translate(0 0.099)">
            <path id="Trazado_1182165" data-name="Trazado 1182165" d="M2711.076,1200.327l-18.227-1.994a2.71,2.71,0,0,1-2.322-1.99l-6.408-23.8a2.71,2.71,0,0,1,2.28-3.394l18.207-2.282a2.71,2.71,0,0,1,2.979,2.084l6.428,28.076A2.71,2.71,0,0,1,2711.076,1200.327Z" transform="translate(-2684.024 -1166.847)" fill="#66192d"/>
          </g>
          <g id="Grupo_1230664" data-name="Grupo 1230664" transform="translate(5.115)">
            <path id="Trazado_1182166" data-name="Trazado 1182166" d="M2705.45,1167.65s.117,1.808,1.05,1.866,8.165-.408,8.165-.641-.292-2-1.167-2.341S2705.281,1166.762,2705.45,1167.65Z" transform="translate(-2705.448 -1166.433)" fill="#ff443c"/>
          </g>
        </g>
        <g id="Grupo_1230674" data-name="Grupo 1230674" transform="translate(20.465 45.049)">
          <g id="Grupo_1230667" data-name="Grupo 1230667" transform="translate(6.145 6.337)">
            <g id="Grupo_1230666" data-name="Grupo 1230666">
              <path id="Trazado_1182167" data-name="Trazado 1182167" d="M2801.6,1236.828a.886.886,0,0,1-1.091.568,48.237,48.237,0,0,1-4.889-1.744c-.837-.348,2.279-7.95,3-7.516a9.471,9.471,0,0,0,2.391.987.736.736,0,0,1,.461.358C2802.113,1230.69,2802.382,1234.474,2801.6,1236.828Z" transform="translate(-2795.48 -1228.118)" fill="#fdad9b"/>
            </g>
          </g>
          <g id="Grupo_1230673" data-name="Grupo 1230673">
            <g id="Grupo_1230669" data-name="Grupo 1230669">
              <g id="Grupo_1230668" data-name="Grupo 1230668">
                <path id="Trazado_1182168" data-name="Trazado 1182168" d="M2779.027,1207.93s-.5-3.909-2.4-5.213-5.319-1.531-4.311-.472a15.219,15.219,0,0,0,2.669,2.056s-3.65-1.963-3.739-.911,3.1,2.729,3.1,2.729-4.529-1.99-4.292-.968,3.689,2.509,3.689,2.509-4.288-1.683-3.985-.5,3.552,1.368,3.463,2.42-.088,5.263,2.806,5.869Z" transform="translate(-2769.743 -1201.576)" fill="#fdad9b"/>
              </g>
            </g>
            <g id="Grupo_1230670" data-name="Grupo 1230670" transform="translate(5.079 2.561)">
              <path id="Trazado_1182169" data-name="Trazado 1182169" d="M2792.479,1213.732a.163.163,0,0,1-.158-.123c-.156-.607-1.188-.985-1.2-.989a.164.164,0,0,1,.111-.308c.049.018,1.206.441,1.4,1.215a.163.163,0,0,1-.118.2A.115.115,0,0,1,2792.479,1213.732Z" transform="translate(-2791.015 -1212.303)" fill="#ec865c"/>
            </g>
            <g id="Grupo_1230671" data-name="Grupo 1230671" transform="translate(4.439 4.381)">
              <path id="Trazado_1182170" data-name="Trazado 1182170" d="M2790.054,1221.57a.164.164,0,0,1-.148-.093,2.781,2.781,0,0,0-1.459-1.232.164.164,0,0,1,.1-.31,3.077,3.077,0,0,1,1.649,1.4.164.164,0,0,1-.076.219A.186.186,0,0,1,2790.054,1221.57Z" transform="translate(-2788.336 -1219.926)" fill="#ec865c"/>
            </g>
            <g id="Grupo_1230672" data-name="Grupo 1230672" transform="translate(3.837 5.92)">
              <path id="Trazado_1182171" data-name="Trazado 1182171" d="M2787.436,1227.936a.164.164,0,0,1-.161-.137c-.092-.545-1.008-.985-1.353-1.109a.164.164,0,1,1,.11-.308c.058.021,1.423.517,1.565,1.363a.163.163,0,0,1-.134.188A.089.089,0,0,1,2787.436,1227.936Z" transform="translate(-2785.813 -1226.373)" fill="#ec865c"/>
            </g>
          </g>
        </g>
        <g id="Grupo_1230675" data-name="Grupo 1230675" transform="translate(11.776 65.945)">
          <path id="Trazado_1182172" data-name="Trazado 1182172" d="M2733.431,1295.88h0a.084.084,0,0,1-.081-.088l.263-6.611a.085.085,0,0,1,.088-.081.084.084,0,0,1,.081.088l-.263,6.611A.084.084,0,0,1,2733.431,1295.88Z" transform="translate(-2733.347 -1289.1)" fill="#66192d"/>
        </g>
      </g>
      <g id="Grupo_1230682" data-name="Grupo 1230682" transform="translate(1690.118 653.962)">
        <g id="Grupo_1230677" data-name="Grupo 1230677" transform="translate(51.686 0)">
          <path id="Trazado_1182173" data-name="Trazado 1182173" d="M2100.084,1275.424a.7.7,0,0,1-.088-.006.675.675,0,0,1-.582-.757l15.066-115.6a.675.675,0,1,1,1.339.175l-15.066,115.6A.674.674,0,0,1,2100.084,1275.424Z" transform="translate(-2099.408 -1158.474)" fill="#4f1a44"/>
        </g>
        <g id="Grupo_1230678" data-name="Grupo 1230678" transform="translate(0 0.001)">
          <path id="Trazado_1182174" data-name="Trazado 1182174" d="M1883.595,1260.287a.675.675,0,0,1-.661-.817l21.519-100.459a.675.675,0,0,1,1.321.283l-21.519,100.459A.677.677,0,0,1,1883.595,1260.287Z" transform="translate(-1882.919 -1158.477)" fill="#4f1a44"/>
        </g>
        <g id="Grupo_1230679" data-name="Grupo 1230679" transform="translate(20.311 10.47)">
          <rect id="Rectángulo_422964" data-name="Rectángulo 422964" width="45.739" height="1.561" fill="#4f1a44"/>
        </g>
        <g id="Grupo_1230680" data-name="Grupo 1230680" transform="translate(10.985 52.218)">
          <rect id="Rectángulo_422965" data-name="Rectángulo 422965" width="49.622" height="1.561" fill="#4f1a44"/>
        </g>
        <g id="Grupo_1230681" data-name="Grupo 1230681" transform="translate(4.293 81.081)">
          <rect id="Rectángulo_422966" data-name="Rectángulo 422966" width="1.561" height="52.034" transform="translate(0 1.558) rotate(-86.44)" fill="#4f1a44"/>
        </g>
      </g>
      <g id="Grupo_1230724" data-name="Grupo 1230724" transform="translate(1714.99 541.044)">
        <g id="Grupo_1230683" data-name="Grupo 1230683" transform="translate(22.065 117.135)">
          <path id="Trazado_1182175" data-name="Trazado 1182175" d="M2084.6,1176.14s.062,2.471,1.734,3.168,6.517,1.326,4.706,2.915c-1.039.911-5.934.323-7.316.323s-2.68.6-3.707-.323c-1.13-1.018,0-6.082,0-6.082a5.524,5.524,0,0,0,2.265.594A4.392,4.392,0,0,0,2084.6,1176.14Z" transform="translate(-2079.514 -1176.14)" fill="#66192d"/>
        </g>
        <g id="Grupo_1230684" data-name="Grupo 1230684" transform="translate(2.865 117.135)">
          <path id="Trazado_1182176" data-name="Trazado 1182176" d="M2004.178,1176.14s.062,2.471,1.734,3.168,6.516,1.326,4.706,2.915c-1.038.911-5.934.323-7.316.323s-2.68.6-3.707-.323c-1.13-1.018,0-6.082,0-6.082a5.524,5.524,0,0,0,2.265.594A4.419,4.419,0,0,0,2004.178,1176.14Z" transform="translate(-1999.094 -1176.14)" fill="#66192d"/>
        </g>
        <g id="Grupo_1230685" data-name="Grupo 1230685" transform="translate(18.988 49.399)">
          <path id="Trazado_1182177" data-name="Trazado 1182177" d="M2087.216,892.427s.309,10.343-2.992,30.184c-2.383,14.324-5.2,28.757-6.577,35.677a5.4,5.4,0,0,1-5.043,4.384l-1.326.053a4.531,4.531,0,0,1-4.638-4.909L2069.989,911l.826-15.409Z" transform="translate(-2066.628 -892.427)" fill="#ff8548"/>
        </g>
        <g id="Grupo_1230686" data-name="Grupo 1230686" transform="translate(9.377 53.206)">
          <path id="Trazado_1182178" data-name="Trazado 1182178" d="M2026.372,913.665c.152,1.259,7.27,1.106,15.985,0s15.5-2.991,15.346-4.25-7.182-1.412-15.9-.309S2026.219,912.406,2026.372,913.665Z" transform="translate(-2026.37 -908.369)" fill="#66192d"/>
        </g>
        <g id="Grupo_1230687" data-name="Grupo 1230687" transform="translate(0 55.817)">
          <path id="Trazado_1182179" data-name="Trazado 1182179" d="M2016.665,920.277l-18.606,59.769a6,6,0,0,1-5.6,4.26l-1.118.019a4.245,4.245,0,0,1-4.177-5.053l10.178-56.161a1.849,1.849,0,0,1,1.284-1.384C2002.119,920.721,2017.009,917.805,2016.665,920.277Z" transform="translate(-1987.095 -919.308)" fill="#ff8548"/>
        </g>
        <g id="Grupo_1230688" data-name="Grupo 1230688" transform="translate(9.252 17.392)">
          <path id="Trazado_1182180" data-name="Trazado 1182180" d="M2036.278,758.5a21.98,21.98,0,0,1,3.891-.086h.009a10.017,10.017,0,0,1,1.354.143c.305.042.606.094.9.141,5.475.859,12.258,6.556,12.258,6.556a6.766,6.766,0,0,1-2.832,3.262c2.742,6.041,4.659,14.87,5.444,26.711,0,0-14.441-3.166-31.357,4.221,0,0-.783-20.26,2.044-31.49C2027.993,767.955,2028.655,759.321,2036.278,758.5Z" transform="translate(-2025.849 -758.362)" fill="#4f1a44"/>
        </g>
        <g id="Grupo_1230689" data-name="Grupo 1230689" transform="translate(19.683 7.781)">
          <path id="Trazado_1182181" data-name="Trazado 1182181" d="M2069.552,727.852a2.624,2.624,0,0,0,2.138-1.564l1.176-2.73.341-.792,2.006-4.659-.348,4.828-.209,2.9-.06.826a1.318,1.318,0,0,0,1.088,1.39l.012,0c.357.58.85,1.76-.623,2.229-1.731.551-4.53-.812-5.535-2.426Z" transform="translate(-2069.537 -718.107)" fill="#fdad9b"/>
        </g>
        <g id="Grupo_1230690" data-name="Grupo 1230690" transform="translate(20.957 64.637)">
          <path id="Trazado_1182182" data-name="Trazado 1182182" d="M2075.172,975.112l-.3-.1,4-12.164a11.845,11.845,0,0,1,5.353-6.6l.156.272a11.533,11.533,0,0,0-5.211,6.428Z" transform="translate(-2074.875 -956.248)" fill="#020202"/>
        </g>
        <g id="Grupo_1230691" data-name="Grupo 1230691" transform="translate(19.528 6.986)">
          <path id="Trazado_1182183" data-name="Trazado 1182183" d="M2069.26,714.777a5.4,5.4,0,0,1-.269,2.416c-.667,2.376,2.049,3.368,2.744,2.69.086-.084-.028-4.125-.028-4.125l-.868-.516Z" transform="translate(-2068.887 -714.777)" fill="#4f1a44"/>
        </g>
        <g id="Grupo_1230692" data-name="Grupo 1230692" transform="translate(23.006 12.349)">
          <path id="Trazado_1182184" data-name="Trazado 1182184" d="M2083.456,738.043c0,.027,0,.053.005.08a3.062,3.062,0,0,0,1.78,2.284l.01-.009.209-2.9a2.471,2.471,0,0,0-1.658-.169A.677.677,0,0,0,2083.456,738.043Z" transform="translate(-2083.454 -737.24)" fill="#66192d"/>
        </g>
        <g id="Grupo_1230693" data-name="Grupo 1230693" transform="translate(21.04 2.956)">
          <path id="Trazado_1182185" data-name="Trazado 1182185" d="M2084.292,703.5c0-3.091-2.031-5.6-4.536-5.6s-4.536,2.505-4.536,5.6,2.031,5.6,4.536,5.6S2084.292,706.587,2084.292,703.5Z" transform="translate(-2075.22 -697.9)" fill="#fdad9b"/>
        </g>
        <g id="Grupo_1230694" data-name="Grupo 1230694" transform="translate(19.818 2.057)">
          <path id="Trazado_1182186" data-name="Trazado 1182186" d="M2077.657,696.333c-.126.172.588,3.051-4.746,3.738s-2.13-5.784,1.806-5.93c5.682-.211,6.51,3.61,5.964,4.985S2077.657,696.333,2077.657,696.333Z" transform="translate(-2070.101 -694.133)" fill="#4f1a44"/>
        </g>
        <g id="Grupo_1230695" data-name="Grupo 1230695" transform="translate(1.782 0)">
          <path id="Trazado_1182187" data-name="Trazado 1182187" d="M2011.932,686.234s2.4,1.6.553,3.111-6.911,2.168-5.529,4.714,2.58,6.317.092,6.788-4.055.283-5.068,2.263-5.529.754-5.16-1.6-3.5-4.431-1.843-6.6,5.713-4.054,6.727-6.882S2010,685.009,2011.932,686.234Z" transform="translate(-1994.561 -685.517)" fill="#4f1a44"/>
        </g>
        <g id="Grupo_1230696" data-name="Grupo 1230696" transform="translate(20.497 7.079)">
          <path id="Trazado_1182188" data-name="Trazado 1182188" d="M2075.666,715.166s-2.179,2.3-1.424,4.647c0,0-1.264-1.381-1.292-1.9a19.926,19.926,0,0,1,.308-2.378Z" transform="translate(-2072.948 -715.166)" fill="#4f1a44"/>
        </g>
        <g id="Grupo_1230697" data-name="Grupo 1230697" transform="translate(21.172 7.441)">
          <path id="Trazado_1182189" data-name="Trazado 1182189" d="M2076.247,718.64a1.115,1.115,0,0,0,1.6.112,1.247,1.247,0,0,0-.256-1.664,1.115,1.115,0,0,0-1.6-.112A1.248,1.248,0,0,0,2076.247,718.64Z" transform="translate(-2075.773 -716.684)" fill="#fdad9b"/>
        </g>
        <g id="Grupo_1230698" data-name="Grupo 1230698" transform="translate(4.963 0.928)">
          <path id="Trazado_1182190" data-name="Trazado 1182190" d="M2008.066,706.837a.108.108,0,0,1-.039-.209,1.618,1.618,0,0,0,1.042-.829c.183-.51-.164-1.13-.531-1.785a3.311,3.311,0,0,1-.639-1.953c.124-.824,1.124-1,2.091-1.174.741-.132,1.507-.268,1.779-.691a.892.892,0,0,0,.063-.731c-.1-.388-.225-.739-.345-1.078-.548-1.544-.981-2.763,1.418-5.53,3.039-3.506,5.566-3.673,7.843-3.333.284.042,1.1.416,1.1.894s-.766.8-2.325,1a6.125,6.125,0,0,0-3.859,3.417c-.646,1.447.265,2.984,1.069,4.34.555.936,1.033,1.745.866,2.351a.967.967,0,0,1-.508.588,8.052,8.052,0,0,1-1.771.632c-1.493.4-2.9.785-3.088,3.335a.108.108,0,1,1-.216-.016c.195-2.7,1.746-3.122,3.247-3.528a7.891,7.891,0,0,0,1.724-.613.749.749,0,0,0,.4-.456c.143-.518-.314-1.289-.844-2.183-.789-1.332-1.771-2.989-1.08-4.538a6.341,6.341,0,0,1,4.019-3.542c1.932-.243,2.144-.63,2.146-.785,0-.3-.653-.639-.912-.678-2.217-.332-4.677-.167-7.648,3.261-2.316,2.672-1.9,3.839-1.378,5.316.122.344.248.7.351,1.1a1.106,1.106,0,0,1-.091.9c-.323.5-1.136.647-1.923.787-.933.166-1.815.323-1.916.994a3.176,3.176,0,0,0,.614,1.815c.392.7.764,1.36.547,1.964a1.808,1.808,0,0,1-1.167.957A.108.108,0,0,1,2008.066,706.837Z" transform="translate(-2007.882 -689.403)" fill="#fff"/>
        </g>
        <g id="Grupo_1230699" data-name="Grupo 1230699" transform="translate(22.479 4.407)">
          <path id="Trazado_1182191" data-name="Trazado 1182191" d="M2081.356,705.867a.108.108,0,0,1,0-.216,3.76,3.76,0,0,0,2.934-1.625.108.108,0,0,1,.184.114,3.911,3.911,0,0,1-3.114,1.727Z" transform="translate(-2081.248 -703.975)" fill="#fff"/>
        </g>
        <g id="Grupo_1230700" data-name="Grupo 1230700" transform="translate(11.864 55.094)">
          <path id="Trazado_1182192" data-name="Trazado 1182192" d="M2064.342,916.566a52.9,52.9,0,0,0-10.133-.114,103.153,103.153,0,0,0-17.421,2.877l2.99.5,18.725.742,3.769-3.092Z" transform="translate(-2036.787 -916.279)" fill="#ff8548"/>
        </g>
        <g id="Grupo_1230701" data-name="Grupo 1230701" transform="translate(24.981 11.666)">
          <path id="Trazado_1182193" data-name="Trazado 1182193" d="M2094.831,734.888a9.855,9.855,0,0,1-3.1-.508,1.511,1.511,0,0,0,1.55,1.63C2094.256,736.068,2094.831,734.888,2094.831,734.888Z" transform="translate(-2091.729 -734.379)" fill="#e9633e"/>
        </g>
        <g id="Grupo_1230702" data-name="Grupo 1230702" transform="translate(24.983 11.666)">
          <path id="Trazado_1182194" data-name="Trazado 1182194" d="M2094.838,734.888a2.027,2.027,0,0,1-1.25.307,3.629,3.629,0,0,1-1.849-.816A14.81,14.81,0,0,0,2094.838,734.888Z" transform="translate(-2091.739 -734.379)" fill="#fff"/>
        </g>
        <g id="Grupo_1230704" data-name="Grupo 1230704" transform="translate(24.663 8.305)">
          <g id="Grupo_1230703" data-name="Grupo 1230703">
            <path id="Trazado_1182195" data-name="Trazado 1182195" d="M2091.748,720.6a.1.1,0,0,0,.011-.2,1.118,1.118,0,0,0-1.336.3.1.1,0,0,0,0,.146.113.113,0,0,0,.146,0,1.766,1.766,0,0,1,1.109-.248A.108.108,0,0,0,2091.748,720.6Z" transform="translate(-2090.396 -720.303)" fill="#080435"/>
          </g>
        </g>
        <g id="Grupo_1230705" data-name="Grupo 1230705" transform="translate(25.198 9.305)">
          <path id="Trazado_1182196" data-name="Trazado 1182196" d="M2092.639,724.927c-.008.246.13.45.309.456s.33-.189.338-.435-.13-.45-.309-.456S2092.649,724.681,2092.639,724.927Z" transform="translate(-2092.639 -724.492)" fill="#080435"/>
        </g>
        <g id="Grupo_1230707" data-name="Grupo 1230707" transform="translate(28.375 8.606)">
          <g id="Grupo_1230706" data-name="Grupo 1230706">
            <path id="Trazado_1182197" data-name="Trazado 1182197" d="M2107.267,722.1a.1.1,0,0,0,.085-.176,1.117,1.117,0,0,0-1.348-.233.1.1,0,0,0-.052.136.114.114,0,0,0,.136.052,1.767,1.767,0,0,1,1.12.193A.1.1,0,0,0,2107.267,722.1Z" transform="translate(-2105.943 -721.563)" fill="#080435"/>
          </g>
        </g>
        <g id="Grupo_1230708" data-name="Grupo 1230708" transform="translate(28.46 9.587)">
          <path id="Trazado_1182198" data-name="Trazado 1182198" d="M2106.354,725.968a.4.4,0,0,0,.112.539c.163.073.377-.049.478-.274a.4.4,0,0,0-.112-.539C2106.669,725.62,2106.454,725.743,2106.354,725.968Z" transform="translate(-2106.302 -725.673)" fill="#080435"/>
        </g>
        <g id="Grupo_1230709" data-name="Grupo 1230709" transform="translate(33.185 23.799)">
          <rect id="Rectángulo_422967" data-name="Rectángulo 422967" width="0.216" height="4.408" transform="translate(0 0.102) rotate(-28.151)" fill="#66192d"/>
        </g>
        <g id="Grupo_1230710" data-name="Grupo 1230710" transform="translate(5.064 17.639)">
          <path id="Trazado_1182199" data-name="Trazado 1182199" d="M2022.055,759.418s6.2,27.921,3.042,53.839c0,0-10.155,1.946-16.787,0C2008.31,813.257,2007.584,758.135,2022.055,759.418Z" transform="translate(-2008.304 -759.396)" fill="#ffba41"/>
        </g>
        <g id="Grupo_1230711" data-name="Grupo 1230711" transform="translate(5.724 17.69)">
          <path id="Trazado_1182200" data-name="Trazado 1182200" d="M2022.9,759.617s-4.771-.238-7.831,2.977-3.975,24.728-4,31.727c-.017,4.57,9.5-19.8,9.5-19.8Z" transform="translate(-2011.072 -759.613)" fill="#ffba41"/>
        </g>
        <g id="Grupo_1230712" data-name="Grupo 1230712" transform="translate(26.791 17.918)">
          <path id="Trazado_1182201" data-name="Trazado 1182201" d="M2099.31,760.566s12.7,18.829,8.575,52.949c0,0,5.317,1.348,7.288-.83,0,0,1.363-36.235-4.556-45.756C2110.617,766.929,2105.054,761.131,2099.31,760.566Z" transform="translate(-2099.31 -760.566)" fill="#ffba41"/>
        </g>
        <g id="Grupo_1230713" data-name="Grupo 1230713" transform="translate(12.867 36.298)">
          <path id="Trazado_1182202" data-name="Trazado 1182202" d="M2050.359,843.834a.1.1,0,0,1-.04-.008c-.061-.025-6.133-2.564-9.305-6.1a.1.1,0,1,1,.154-.138c3.141,3.5,9.17,6.024,9.23,6.049a.1.1,0,0,1,.057.136A.105.105,0,0,1,2050.359,843.834Z" transform="translate(-2040.988 -837.551)" fill="#66192d"/>
        </g>
        <g id="Grupo_1230720" data-name="Grupo 1230720" transform="translate(45.743 29.255)">
          <g id="Grupo_1230719" data-name="Grupo 1230719">
            <g id="Grupo_1230715" data-name="Grupo 1230715">
              <g id="Grupo_1230714" data-name="Grupo 1230714">
                <path id="Trazado_1182203" data-name="Trazado 1182203" d="M2178.69,814.375s1.284-4.433,3.721-5.6,6.432-.809,5.074.234a7.89,7.89,0,0,1-2.117,1.278s3.235-.993,3.148.24-3.381,2.423-3.381,2.423,4.9-1.309,4.44-.17-4.722,2.236-4.722,2.236,5.266-1.172,4.7.139-4.358.94-4.445,2.174-2.453,5.33-5.912,5.507Z" transform="translate(-2178.69 -808.051)" fill="#fdad9b"/>
              </g>
            </g>
            <g id="Grupo_1230716" data-name="Grupo 1230716" transform="translate(3.537 2.757)">
              <path id="Trazado_1182204" data-name="Trazado 1182204" d="M2193.686,820.776l-.183-.079c.351-.816,1.72-1.087,1.778-1.1l.038.2C2195.307,819.8,2194,820.057,2193.686,820.776Z" transform="translate(-2193.503 -819.599)" fill="#f18c7e"/>
            </g>
            <g id="Grupo_1230717" data-name="Grupo 1230717" transform="translate(3.625 4.976)">
              <path id="Trazado_1182205" data-name="Trazado 1182205" d="M2194.037,830.291l-.164-.113a3.507,3.507,0,0,1,2.1-1.283l.034.2A3.366,3.366,0,0,0,2194.037,830.291Z" transform="translate(-2193.873 -828.894)" fill="#f18c7e"/>
            </g>
            <g id="Grupo_1230718" data-name="Grupo 1230718" transform="translate(4.156 6.868)">
              <path id="Trazado_1182206" data-name="Trazado 1182206" d="M2196.286,838.115l-.189-.063c.3-.9,1.919-1.219,1.988-1.233l.037.2C2198.105,837.018,2196.551,837.324,2196.286,838.115Z" transform="translate(-2196.097 -836.819)" fill="#f18c7e"/>
            </g>
          </g>
        </g>
        <g id="Grupo_1230722" data-name="Grupo 1230722" transform="translate(9.314 21.062)">
          <g id="Grupo_1230721" data-name="Grupo 1230721">
            <path id="Trazado_1182207" data-name="Trazado 1182207" d="M2062.352,799.043s1.8-.671,1.287-6.015a48.161,48.161,0,0,0-1.1-4.778c-10.785.01-16.586-2.425-22.968-7.675a28.485,28.485,0,0,1-4.821-5.056,4.394,4.394,0,0,0-5.233-1.444l-.867.363a4.141,4.141,0,0,0-1.96,5.931c1.438,2.435.929,7.078,4.017,9.691C2036.145,794.664,2047.855,800.322,2062.352,799.043Z" transform="translate(-2026.107 -773.734)" fill="#ffba41"/>
          </g>
        </g>
        <g id="Grupo_1230723" data-name="Grupo 1230723" transform="translate(33.003 33.779)">
          <path id="Trazado_1182208" data-name="Trazado 1182208" d="M2137.321,828.914a41.619,41.619,0,0,1-11.921-1.71.1.1,0,0,1,.063-.2,41.913,41.913,0,0,0,12.6,1.691.1.1,0,0,1,.108.1.1.1,0,0,1-.1.108C2138.059,828.9,2137.789,828.914,2137.321,828.914Z" transform="translate(-2125.328 -827.001)" fill="#66192d"/>
        </g>
      </g>
      <g id="Grupo_1230725" data-name="Grupo 1230725" transform="translate(1750.252 587.108)">
        <path id="Trazado_1182209" data-name="Trazado 1182209" d="M2141.014,879.06c-2.573,0-6.092-.392-6.132-.4a.1.1,0,1,1,.023-.206,58.659,58.659,0,0,0,7.008.376.1.1,0,1,1,.01.207C2141.643,879.053,2141.337,879.06,2141.014,879.06Z" transform="translate(-2134.79 -878.456)" fill="#66192d"/>
      </g>
      <g id="Grupo_1230768" data-name="Grupo 1230768" transform="translate(1760.189 667.265)">
        <g id="Grupo_1230726" data-name="Grupo 1230726" transform="translate(37.155 95.767)">
          <path id="Trazado_1182210" data-name="Trazado 1182210" d="M2336.476,1617.128s.831,4.422,2.72,6.628c1.246,1.454,4.642,4.3,2.33,5.366-1.846.85-5.571-2.534-6.77-3.367s-3.021-2.424-2.676-3.843a22.765,22.765,0,0,0,.323-6.594Z" transform="translate(-2332.037 -1615.318)" fill="#66192d"/>
        </g>
        <g id="Grupo_1230727" data-name="Grupo 1230727" transform="translate(26.36 91.32)">
          <path id="Trazado_1182211" data-name="Trazado 1182211" d="M2292.884,1599.8s-.759,4.435.246,7.16c.662,1.8,2.857,5.647.319,5.841-2.027.155-4.342-4.313-5.177-5.51s-1.99-3.323-1.173-4.534a22.779,22.779,0,0,0,2.6-6.07Z" transform="translate(-2286.82 -1596.689)" fill="#66192d"/>
        </g>
        <g id="Grupo_1230729" data-name="Grupo 1230729" transform="translate(20.083 46.754)">
          <g id="Grupo_1230728" data-name="Grupo 1230728">
            <path id="Trazado_1182212" data-name="Trazado 1182212" d="M2274.247,1460.774c23.767-17.031,22.09-31.2,18.535-36.64-4.129-6.321-10.5-11.215-20.066-13.172a52.651,52.651,0,0,0-6.993-.927,4.865,4.865,0,0,0-5.183,5.145l.5,8.266h-.019c4.053-.221,16.4.6,19.845,7.053.716,1.34-15,21.109-14.278,24.538C2267.4,1458.916,2271.924,1462.438,2274.247,1460.774Z" transform="translate(-2260.531 -1410.024)" fill="#ff8548"/>
          </g>
        </g>
        <g id="Grupo_1230731" data-name="Grupo 1230731" transform="translate(3.129 48.477)">
          <g id="Grupo_1230730" data-name="Grupo 1230730">
            <path id="Trazado_1182213" data-name="Trazado 1182213" d="M2229.695,1468.382a4.845,4.845,0,0,0,4.689-5.288c-.574-6.193-2.081-16.714-5.962-24.571a34.15,34.15,0,0,0-10.093-11.9,54.192,54.192,0,0,0-11.979-6.8c-7.581-3.183-12.943-2.524-12.943-2.524l-3.878,6.154c.054.009-.941,6.108,7.866,11.221,4.859,2.821,14.488,4.322,18.683,11.893,2.994,5.405,4.313,12.661,4.841,17.744a4.673,4.673,0,0,0,4.784,4.184Z" transform="translate(-2189.518 -1417.243)" fill="#ff8548"/>
          </g>
        </g>
        <g id="Grupo_1230732" data-name="Grupo 1230732" transform="translate(28.974 26.235)">
          <path id="Trazado_1182214" data-name="Trazado 1182214" d="M2304.086,1324.08a53.626,53.626,0,0,1,7.452,18.922c1.442,7.528-12.625-.821-12.625-.821l-1.142-15.788Z" transform="translate(-2297.771 -1324.08)" fill="#fdad9b"/>
        </g>
        <g id="Grupo_1230733" data-name="Grupo 1230733" transform="translate(2.019 17.487)">
          <path id="Trazado_1182215" data-name="Trazado 1182215" d="M2192.927,1292.669s3.6-6.656,12.472-4.948,12.76,10.58,14.114,32.154c0,0-4.974,9.533-29.087,8.516-2.672-.113-6.5-.337-5.345-4.7C2187.233,1315.575,2189.041,1299.473,2192.927,1292.669Z" transform="translate(-2184.87 -1287.441)" fill="#4f1a44"/>
        </g>
        <g id="Grupo_1230734" data-name="Grupo 1230734" transform="translate(0.456 17.237)">
          <path id="Trazado_1182216" data-name="Trazado 1182216" d="M2178.32,1294.1l9.113,1.4s15.993,4.152,20.427,4.041a7.183,7.183,0,0,0,6.16-3.415,23.467,23.467,0,0,0-11.369-8.561,21.822,21.822,0,0,0-2.238-.641,16.3,16.3,0,0,0-3.96-.527C2181.5,1286.728,2178.32,1294.1,2178.32,1294.1Z" transform="translate(-2178.32 -1286.395)" fill="#4f1a44"/>
        </g>
        <g id="Grupo_1230735" data-name="Grupo 1230735" transform="translate(0.445 24.379)">
          <path id="Trazado_1182217" data-name="Trazado 1182217" d="M2178.286,1316.873c-.172.721,1.766,1.848,4.329,2.519s4.78.63,4.952-.09-1.766-1.848-4.329-2.519S2178.458,1316.155,2178.286,1316.873Z" transform="translate(-2178.276 -1316.306)" fill="#66192d"/>
        </g>
        <g id="Grupo_1230737" data-name="Grupo 1230737" transform="translate(0 25.244)">
          <g id="Grupo_1230736" data-name="Grupo 1230736">
            <path id="Trazado_1182218" data-name="Trazado 1182218" d="M2179.107,1339.688c4.071,5.931,11.863,9.543,19.906,9.019l-1.075-6.431c-6.281-.928-11.2-4.831-12.209-8.226a27.822,27.822,0,0,1-.591-11.639.816.816,0,0,0-.334-.774,11.023,11.023,0,0,0-6.626-1.708.716.716,0,0,0-.687.556C2176.14,1326.364,2175.473,1334.4,2179.107,1339.688Z" transform="translate(-2176.412 -1319.929)" fill="#fdad9b"/>
          </g>
        </g>
        <g id="Grupo_1230738" data-name="Grupo 1230738" transform="translate(5.062 43.404)" opacity="0.3">
          <path id="Trazado_1182219" data-name="Trazado 1182219" d="M2199.35,1399.444a1.252,1.252,0,0,1-.431-.08,2.057,2.057,0,0,1-1.092-1.08,1.626,1.626,0,0,1,.458-2.194,1.119,1.119,0,0,1,.874-.017,2.056,2.056,0,0,1,1.092,1.08,1.627,1.627,0,0,1-.458,2.194A1.064,1.064,0,0,1,2199.35,1399.444Zm-.623-3.154a.745.745,0,0,0-.317.069c-.52.243-.66,1.05-.313,1.8h0a1.755,1.755,0,0,0,.923.926.829.829,0,0,0,.646-.007c.52-.243.66-1.05.314-1.8a1.757,1.757,0,0,0-.924-.926A.927.927,0,0,0,2198.727,1396.291Z" transform="translate(-2197.613 -1395.993)" fill="#f18c7e"/>
        </g>
        <g id="Grupo_1230743" data-name="Grupo 1230743" transform="translate(21.174 46.179)">
          <g id="Grupo_1230739" data-name="Grupo 1230739">
            <path id="Trazado_1182220" data-name="Trazado 1182220" d="M2265.452,1409.029s5.721-2.033,7.588-1.225,3.641,3.252,2.377,3a13.4,13.4,0,0,1-2.789-1.027s3.18,1.8,2.436,2.364-3.494-1.034-3.494-1.034,3.613,2.447,2.739,2.75-3.605-1.575-3.605-1.575,3.271,2.411,2.247,2.738-2.69-2.01-3.434-1.449-2.6,3.086-4.416,1.209Z" transform="translate(-2265.101 -1407.615)" fill="#fdad9b"/>
          </g>
          <g id="Grupo_1230740" data-name="Grupo 1230740" transform="translate(6.072 1.592)">
            <path id="Trazado_1182221" data-name="Trazado 1182221" d="M2291.942,1414.909c-.008-.006-.8-.621-1.365-.441l-.046-.143c.637-.2,1.468.439,1.5.466Z" transform="translate(-2290.532 -1414.285)" fill="#e9845c"/>
          </g>
          <g id="Grupo_1230741" data-name="Grupo 1230741" transform="translate(4.749 2.86)">
            <path id="Trazado_1182222" data-name="Trazado 1182222" d="M2286.665,1420.279a2.534,2.534,0,0,0-1.657-.526l-.017-.149a2.635,2.635,0,0,1,1.768.558Z" transform="translate(-2284.991 -1419.592)" fill="#e9845c"/>
          </g>
          <g id="Grupo_1230742" data-name="Grupo 1230742" transform="translate(3.965 4.024)">
            <path id="Trazado_1182223" data-name="Trazado 1182223" d="M2283.3,1425.168c-.01-.007-.953-.741-1.533-.5l-.058-.139c.661-.275,1.642.487,1.684.519Z" transform="translate(-2281.707 -1424.471)" fill="#e9845c"/>
          </g>
        </g>
        <g id="Grupo_1230750" data-name="Grupo 1230750" transform="translate(22.172 42.248)">
          <g id="Grupo_1230744" data-name="Grupo 1230744" transform="translate(5.823 0.038)">
            <path id="Trazado_1182224" data-name="Trazado 1182224" d="M2294.6,1405.375l18.563-.622a.9.9,0,0,0,.835-.642l3.471-11.65a.9.9,0,0,0-.9-1.15l-17.851.6a1.889,1.889,0,0,0-1.749,1.344l-3.269,10.971A.9.9,0,0,0,2294.6,1405.375Z" transform="translate(-2293.671 -1391.311)" fill="#66192d"/>
          </g>
          <g id="Grupo_1230745" data-name="Grupo 1230745" transform="translate(6.988)">
            <path id="Trazado_1182225" data-name="Trazado 1182225" d="M2299.484,1405.216l18.563-.622a.9.9,0,0,0,.835-.642l3.471-11.649a.9.9,0,0,0-.9-1.15l-17.851.6a1.889,1.889,0,0,0-1.749,1.344l-3.269,10.971A.9.9,0,0,0,2299.484,1405.216Z" transform="translate(-2298.551 -1391.152)" fill="#66192d"/>
          </g>
          <g id="Grupo_1230746" data-name="Grupo 1230746" transform="translate(18.608 6.009)">
            <path id="Trazado_1182226" data-name="Trazado 1182226" d="M2349.3,1416.905c-.015-.437-.525-.6-.966-.584a1.262,1.262,0,0,0-1.118,1.132c.027.661.547.73.987.715A1.457,1.457,0,0,0,2349.3,1416.905Z" transform="translate(-2347.218 -1416.32)" fill="#daebe8"/>
          </g>
          <g id="Grupo_1230747" data-name="Grupo 1230747" transform="translate(0 11.813)">
            <path id="Trazado_1182227" data-name="Trazado 1182227" d="M2270.318,1441.485l25.4-.852.055,1.628-25.93.869a.546.546,0,0,1-.564-.528v-.008A1.072,1.072,0,0,1,2270.318,1441.485Z" transform="translate(-2269.28 -1440.633)" fill="#66192d"/>
          </g>
          <g id="Grupo_1230748" data-name="Grupo 1230748" transform="translate(8.874 0.556)">
            <path id="Trazado_1182228" data-name="Trazado 1182228" d="M2306.566,1399.457l-.118-.027a31.84,31.84,0,0,1,1.368-4.589,2.58,2.58,0,0,1,1.334-1.359l.036.115a2.518,2.518,0,0,0-1.263,1.3A32.369,32.369,0,0,0,2306.566,1399.457Z" transform="translate(-2306.448 -1393.482)" fill="#4f1a44"/>
          </g>
          <g id="Grupo_1230749" data-name="Grupo 1230749" transform="translate(6.442 7.784)">
            <path id="Trazado_1182229" data-name="Trazado 1182229" d="M2296.267,1428.514l0-.12c.608-.02.751-.277.752-.28l1.3-4.359.115.034-1.3,4.369C2297.117,1428.183,2296.955,1428.491,2296.267,1428.514Z" transform="translate(-2296.263 -1423.755)" fill="#4f1a44"/>
          </g>
        </g>
        <g id="Grupo_1230751" data-name="Grupo 1230751" transform="translate(33.474 57.5)">
          <path id="Trazado_1182230" data-name="Trazado 1182230" d="M2329.933,1483.336a68.158,68.158,0,0,0-2.5-11.79c-1.772-5.722-5.087-13.207-10.812-16.378l.073-.132c5.769,3.2,9.1,10.719,10.883,16.468a68.316,68.316,0,0,1,2.506,11.817Z" transform="translate(-2316.62 -1455.036)" fill="#020202"/>
        </g>
        <g id="Grupo_1230752" data-name="Grupo 1230752" transform="translate(31.332 81.479)">
          <path id="Trazado_1182231" data-name="Trazado 1182231" d="M2311.064,1570.756a43.9,43.9,0,0,0-3.417-15.22l.136-.064a44.089,44.089,0,0,1,3.431,15.278Z" transform="translate(-2307.647 -1555.472)" fill="#020202"/>
        </g>
        <g id="Grupo_1230753" data-name="Grupo 1230753" transform="translate(22.296 9.783)">
          <path id="Trazado_1182232" data-name="Trazado 1182232" d="M2273.763,1263.467s-2.093-.989-2.357-2.2-1.083-.9-1.525-1.231,1.044-3.5,1.044-3.5l4.543-1.353-.807,5.672Z" transform="translate(-2269.799 -1255.173)" fill="#66192d"/>
        </g>
        <g id="Grupo_1230754" data-name="Grupo 1230754" transform="translate(16.95 7.836)">
          <path id="Trazado_1182233" data-name="Trazado 1182233" d="M2247.422,1256.488a2.648,2.648,0,0,0,2.25-1.445l1.352-2.679.392-.777,2.307-4.571-.647,4.844-.389,2.907-.111.829a1.33,1.33,0,0,0,1.01,1.467l.012,0c.324.607.748,1.826-.765,2.208-1.778.449-4.515-1.1-5.428-2.785Z" transform="translate(-2247.406 -1247.016)" fill="#fdad9b"/>
        </g>
        <g id="Grupo_1230755" data-name="Grupo 1230755" transform="translate(20.567 12.339)">
          <path id="Trazado_1182234" data-name="Trazado 1182234" d="M2262.559,1266.638c0,.027,0,.054,0,.081a3.091,3.091,0,0,0,1.653,2.41l.011-.008.389-2.907a2.5,2.5,0,0,0-1.66-.272A.687.687,0,0,0,2262.559,1266.638Z" transform="translate(-2262.558 -1265.875)" fill="#f18c7e"/>
        </g>
        <g id="Grupo_1230756" data-name="Grupo 1230756" transform="translate(18.857 2.979)">
          <path id="Trazado_1182235" data-name="Trazado 1182235" d="M2264.55,1232.6c.19-3.114-1.7-5.764-4.227-5.918s-4.725,2.246-4.915,5.361,1.7,5.764,4.227,5.918S2264.359,1235.714,2264.55,1232.6Z" transform="translate(-2255.395 -1226.674)" fill="#fdad9b"/>
        </g>
        <g id="Grupo_1230757" data-name="Grupo 1230757" transform="translate(22.578 11.723)">
          <path id="Trazado_1182236" data-name="Trazado 1182236" d="M2274.081,1264a9.942,9.942,0,0,1-3.092-.7,1.524,1.524,0,0,0,1.461,1.737C2273.429,1265.152,2274.081,1264,2274.081,1264Z" transform="translate(-2270.98 -1263.296)" fill="#fff"/>
        </g>
        <g id="Grupo_1230759" data-name="Grupo 1230759" transform="translate(22.505 8.373)">
          <g id="Grupo_1230758" data-name="Grupo 1230758">
            <path id="Trazado_1182237" data-name="Trazado 1182237" d="M2272.05,1249.6a.1.1,0,0,0,.023-.2,1.128,1.128,0,0,0-1.364.218.105.105,0,0,0-.005.147.115.115,0,0,0,.147.005,1.784,1.784,0,0,1,1.133-.182A.1.1,0,0,0,2272.05,1249.6Z" transform="translate(-2270.677 -1249.266)" fill="#080435"/>
          </g>
        </g>
        <g id="Grupo_1230760" data-name="Grupo 1230760" transform="translate(22.766 9.314)">
          <path id="Trazado_1182238" data-name="Trazado 1182238" d="M2271.771,1253.625c-.023.248.1.462.284.479s.344-.171.367-.418-.1-.462-.284-.478S2271.8,1253.379,2271.771,1253.625Z" transform="translate(-2271.769 -1253.206)" fill="#080435"/>
        </g>
        <g id="Grupo_1230761" data-name="Grupo 1230761" transform="translate(25.71 9.713)">
          <path id="Trazado_1182239" data-name="Trazado 1182239" d="M2284.106,1255.274c-.039.245.074.468.252.5s.354-.148.393-.394-.074-.467-.252-.5S2284.144,1255.028,2284.106,1255.274Z" transform="translate(-2284.098 -1254.877)" fill="#080435"/>
        </g>
        <g id="Grupo_1230762" data-name="Grupo 1230762" transform="translate(18.849 0)">
          <path id="Trazado_1182240" data-name="Trazado 1182240" d="M2257.954,1219.074a8.026,8.026,0,0,1,5.628,7.932q-.009.314-.029.644a3.235,3.235,0,0,0-2.664,2.692c-.084.724,1.941,2.091,2.091,2.035,1.131-.423,4.167-2.928,3.84-8.286s-2.151-9.391-7.025-9.852-4.422,2.835-4.422,2.835A4.59,4.59,0,0,0,2257.954,1219.074Z" transform="translate(-2255.361 -1214.195)" fill="#66192d"/>
        </g>
        <g id="Grupo_1230763" data-name="Grupo 1230763" transform="translate(15.248 2.539)">
          <path id="Trazado_1182241" data-name="Trazado 1182241" d="M2247.157,1227.221s-.086.048-.227.144a5.241,5.241,0,0,0-2.221,3.138c-.417,2.14,1.577,3.61.906,5.244s-2.063-.33-3.3-.12-2.1-.414-2.031-2.861.985-8.11,3.874-7.934Z" transform="translate(-2240.279 -1224.828)" fill="#66192d"/>
        </g>
        <g id="Grupo_1230764" data-name="Grupo 1230764" transform="translate(18.486 7.255)">
          <path id="Trazado_1182242" data-name="Trazado 1182242" d="M2254.258,1246.532a1.126,1.126,0,0,0,1.61.212,1.26,1.26,0,0,0-.156-1.693,1.126,1.126,0,0,0-1.61-.212A1.256,1.256,0,0,0,2254.258,1246.532Z" transform="translate(-2253.84 -1244.585)" fill="#fdad9b"/>
        </g>
        <g id="Grupo_1230765" data-name="Grupo 1230765" transform="translate(21.836 3.879)">
          <path id="Trazado_1182243" data-name="Trazado 1182243" d="M2274.111,1242.163h-.009a.055.055,0,0,1-.046-.063,13.119,13.119,0,0,0-1.788-8.836c-1.99-2.934-4.311-2.707-4.334-2.7a.057.057,0,0,1-.061-.049.055.055,0,0,1,.049-.061c.024,0,2.411-.236,4.438,2.752a13.241,13.241,0,0,1,1.806,8.916A.056.056,0,0,1,2274.111,1242.163Z" transform="translate(-2267.873 -1230.444)" fill="#fff"/>
        </g>
        <g id="Grupo_1230766" data-name="Grupo 1230766" transform="translate(16.881 3.299)">
          <path id="Trazado_1182244" data-name="Trazado 1182244" d="M2247.6,1236.166a.055.055,0,0,1-.051-.034c-.957-2.372-.152-6.332.843-7.469a2.116,2.116,0,0,1,2.488-.41.055.055,0,0,1-.051.1,1.973,1.973,0,0,0-2.354.384c-.977,1.117-1.767,5.017-.823,7.355a.055.055,0,0,1-.031.072A.073.073,0,0,1,2247.6,1236.166Z" transform="translate(-2247.119 -1228.013)" fill="#fff"/>
        </g>
        <g id="Grupo_1230767" data-name="Grupo 1230767" transform="translate(21.393 2.649)">
          <path id="Trazado_1182245" data-name="Trazado 1182245" d="M2273.271,1233.909h0a.055.055,0,0,1-.055-.055c0-.066-.005-6.625-2.535-7.9a4.782,4.782,0,0,0-4.578.041.055.055,0,0,1-.061-.092,4.9,4.9,0,0,1,4.688-.048c1.091.548,1.859,2.063,2.284,4.5a22.676,22.676,0,0,1,.313,3.494A.054.054,0,0,1,2273.271,1233.909Z" transform="translate(-2266.017 -1225.29)" fill="#fff"/>
        </g>
      </g>
    </g>
  </g>
</svg>
