<svg xmlns="http://www.w3.org/2000/svg" xmlns:xlink="http://www.w3.org/1999/xlink" width="400" height="254" viewBox="0 0 400 254">
  <defs>
    <clipPath id="clip-path">
      <rect id="Rectángulo_422958" data-name="Rectángulo 422958" width="400" height="254" transform="translate(996.728 3950.954)" fill="#fff" stroke="#707070" stroke-width="1"/>
    </clipPath>
    <clipPath id="clip-path-2">
      <rect id="Rectángulo_422983" data-name="Rectángulo 422983" width="52.959" height="52.958" fill="none"/>
    </clipPath>
    <clipPath id="clip-path-3">
      <rect id="Rectángulo_423000" data-name="Rectángulo 423000" width="29.856" height="30.15" fill="none"/>
    </clipPath>
    <clipPath id="clip-path-4">
      <rect id="Rectángulo_423001" data-name="Rectángulo 423001" width="26.243" height="26.231" fill="none"/>
    </clipPath>
  </defs>
  <g id="Grupo_1231062" data-name="Grupo 1231062" transform="translate(-1019.555 -3959)">
    <g id="Grupo_1230794" data-name="Grupo 1230794" transform="translate(1051.723 4156.104)">
      <ellipse id="Elipse_12905" data-name="Elipse 12905" cx="160.516" cy="23.757" rx="160.516" ry="23.757" transform="translate(0)" fill="#786ab5"/>
    </g>
    <g id="Enmascarar_grupo_1211512" data-name="Enmascarar grupo 1211512" transform="translate(22.827 8.046)" clip-path="url(#clip-path)">
      <g id="Grupo_1230791" data-name="Grupo 1230791" transform="translate(1049.281 3986.591)">
        <path id="Trazado_1182386" data-name="Trazado 1182386" d="M554.634,592.854a.309.309,0,0,0,.059-.014.3.3,0,0,0,.184-.382c-14.249-40.846-26.846-69.573-35.469-80.888-.192-.251-.33-.433-.384-.526a.3.3,0,0,0-.518.3,7.111,7.111,0,0,0,.425.587c8.586,11.267,21.151,39.935,35.38,80.723a.3.3,0,0,0,.323.2" transform="translate(-477.571 -486.776)" fill="#dff4f8"/>
        <path id="Trazado_1182387" data-name="Trazado 1182387" d="M481.73,474.611c1.018,1.268,5.961,3.461,6.322,3.17s-.713-5.59-1.732-6.858a2.944,2.944,0,1,0-4.591,3.687" transform="translate(-445.643 -451.7)" fill="#dff4f8"/>
        <path id="Trazado_1182388" data-name="Trazado 1182388" d="M550.229,513.812c-.409,1.613.843,7,1.3,7.117s4.127-4.025,4.536-5.637a3.012,3.012,0,0,0-5.84-1.48" transform="translate(-504.628 -487.326)" fill="#dff4f8"/>
        <path id="Trazado_1182389" data-name="Trazado 1182389" d="M496.779,558.674c1.663.035,6.631-2.4,6.641-2.873s-4.851-3.115-6.514-3.15a3.012,3.012,0,0,0-.127,6.023" transform="translate(-456.532 -522.436)" fill="#dff4f8"/>
        <path id="Trazado_1182390" data-name="Trazado 1182390" d="M654.026,691.507c-.974,2.617.141,11.835.888,12.113s7.616-5.97,8.589-8.587a5.056,5.056,0,0,0-9.477-3.526" transform="translate(-593.016 -638.21)" fill="#dff4f8"/>
        <path id="Trazado_1182391" data-name="Trazado 1182391" d="M557.2,756.712c2.769.359,11.5-2.8,11.6-3.593s-7.532-6.076-10.3-6.435a5.056,5.056,0,1,0-1.3,10.028" transform="translate(-506.885 -688.109)" fill="#dff4f8"/>
        <path id="Trazado_1182392" data-name="Trazado 1182392" d="M694.578,763.091c-1.867,2.862-3.02,14.166-2.2,14.7s10.7-5.075,12.566-7.937a6.187,6.187,0,1,0-10.363-6.762" transform="translate(-625.865 -699.759)" fill="#dff4f8"/>
        <path id="Trazado_1182393" data-name="Trazado 1182393" d="M568.436,844.769c3.416.089,13.645-4.859,13.67-5.834s-9.933-6.447-13.349-6.536a6.187,6.187,0,1,0-.321,12.37" transform="translate(-515.099 -761.345)" fill="#dff4f8"/>
        <path id="Trazado_1182394" data-name="Trazado 1182394" d="M729.357,854.205c-1.867,2.862-3.02,14.166-2.2,14.7s10.7-5.075,12.566-7.937a6.187,6.187,0,1,0-10.363-6.762" transform="translate(-655.567 -777.573)" fill="#c1dbfb"/>
        <path id="Trazado_1182395" data-name="Trazado 1182395" d="M603.216,935.883c3.416.089,13.645-4.859,13.67-5.834s-9.933-6.448-13.349-6.536a6.187,6.187,0,1,0-.322,12.37" transform="translate(-544.802 -839.158)" fill="#dff4f8"/>
        <path id="Trazado_1182396" data-name="Trazado 1182396" d="M771.381,977.5c-2.816,1.935-8.188,11.948-7.636,12.752s11.826-.617,14.642-2.552a6.187,6.187,0,0,0-7.006-10.2" transform="translate(-687.011 -884.337)" fill="#c1dbfb"/>
        <path id="Trazado_1182397" data-name="Trazado 1182397" d="M638.913,1026.54c3.378.515,14.145-3.115,14.292-4.079s-9.049-7.638-12.427-8.154a6.187,6.187,0,0,0-1.866,12.233" transform="translate(-575.947 -916.639)" fill="#dff4f8"/>
        <path id="Trazado_1182398" data-name="Trazado 1182398" d="M582.8,570.8c-.415,1.639.857,7.113,1.325,7.232s4.193-4.09,4.609-5.728a3.06,3.06,0,0,0-5.933-1.5" transform="translate(-532.442 -535.962)" fill="#dff4f8"/>
        <path id="Trazado_1182399" data-name="Trazado 1182399" d="M530.022,617.018c1.69.036,6.737-2.436,6.748-2.919s-4.929-3.165-6.619-3.2a3.06,3.06,0,0,0-.129,6.119" transform="translate(-484.882 -572.181)" fill="#dff4f8"/>
        <path id="Trazado_1182400" data-name="Trazado 1182400" d="M618.407,619.957c-.779,2.271.384,10.171,1.033,10.393s6.414-5.3,7.193-7.573a4.348,4.348,0,1,0-8.226-2.82" transform="translate(-562.702 -577.408)" fill="#dff4f8"/>
        <path id="Trazado_1182401" data-name="Trazado 1182401" d="M536.828,684.013c2.4.05,9.572-3.462,9.586-4.147s-7-4.5-9.4-4.547a4.348,4.348,0,0,0-.183,8.694" transform="translate(-489.618 -627.197)" fill="#dff4f8"/>
        <path id="Trazado_1182402" data-name="Trazado 1182402" d="M1722.893,579.48a.416.416,0,0,1-.081-.013.408.408,0,0,1-.286-.5c15.341-56.669,29.616-96.771,40.2-112.922.235-.359.4-.618.469-.748a.407.407,0,1,1,.731.358,9.516,9.516,0,0,1-.518.836c-10.534,16.081-24.772,56.1-40.091,112.689a.407.407,0,0,1-.418.3" transform="translate(-1505.849 -447.64)" fill="#dff4f8"/>
        <path id="Trazado_1182403" data-name="Trazado 1182403" d="M2000.918,413.814c-1.256,1.815-7.734,5.261-8.252,4.9s.426-7.636,1.682-9.45a4,4,0,1,1,6.571,4.548" transform="translate(-1736.443 -398.513)" fill="#dff4f8"/>
        <path id="Trazado_1182404" data-name="Trazado 1182404" d="M1917.56,473.53c.709,2.143-.465,9.558-1.077,9.76s-5.976-5.05-6.685-7.193a4.088,4.088,0,0,1,7.762-2.567" transform="translate(-1665.618 -452.47)" fill="#dff4f8"/>
        <path id="Trazado_1182405" data-name="Trazado 1182405" d="M1966.061,529.1c-2.248.208-9.208-2.605-9.268-3.247s6.266-4.685,8.514-4.893a4.088,4.088,0,1,1,.754,8.141" transform="translate(-1705.93 -495.355)" fill="#dff4f8"/>
        <path id="Trazado_1182406" data-name="Trazado 1182406" d="M1762.374,725.257c1.571,3.448.953,16.034-.031,16.483s-10.885-7.345-12.457-10.794a6.861,6.861,0,0,1,12.488-5.689" transform="translate(-1528.698 -666.413)" fill="#dff4f8"/>
        <path id="Trazado_1182407" data-name="Trazado 1182407" d="M1854.452,804.124c-3.714.754-15.837-2.682-16.052-3.742s9.608-8.952,13.322-9.706a6.861,6.861,0,1,1,2.731,13.448" transform="translate(-1604.817 -725.596)" fill="#dff4f8"/>
        <path id="Trazado_1182408" data-name="Trazado 1182408" d="M1686.012,827.486c2.8,3.693,5.457,18.884,4.4,19.684s-14.973-5.836-17.777-9.529a8.4,8.4,0,1,1,13.375-10.155" transform="translate(-1461.796 -754.317)" fill="#c1dbfb"/>
        <path id="Trazado_1182409" data-name="Trazado 1182409" d="M1818.587,925.027c-4.615.45-18.94-5.259-19.068-6.576s12.822-9.688,17.437-10.137a8.4,8.4,0,1,1,1.631,16.713" transform="translate(-1571.614 -826.145)" fill="#dff4f8"/>
        <path id="Trazado_1182410" data-name="Trazado 1182410" d="M1647.737,954.183c2.8,3.693,5.457,18.884,4.4,19.684s-14.973-5.836-17.778-9.529a8.4,8.4,0,0,1,13.375-10.155" transform="translate(-1429.108 -862.518)" fill="#c1dbfb"/>
        <path id="Trazado_1182411" data-name="Trazado 1182411" d="M1780.311,1051.724c-4.616.45-18.94-5.259-19.069-6.576s12.822-9.688,17.438-10.138a8.4,8.4,0,0,1,1.631,16.714" transform="translate(-1538.926 -934.347)" fill="#dff4f8"/>
        <path id="Trazado_1182412" data-name="Trazado 1182412" d="M1574.829,1127.132c4,2.347,12.238,15.382,11.569,16.523s-16.068.307-20.067-2.04a8.4,8.4,0,1,1,8.5-14.484" transform="translate(-1368.925 -1012.068)" fill="#c1dbfb"/>
        <path id="Trazado_1182413" data-name="Trazado 1182413" d="M1742.858,1177.891c-4.523,1.024-19.449-2.849-19.741-4.14s11.511-11.214,16.034-12.238a8.4,8.4,0,1,1,3.707,16.378" transform="translate(-1506.362 -1042.238)" fill="#dff4f8"/>
        <path id="Trazado_1182414" data-name="Trazado 1182414" d="M1878.24,553.844c.72,2.178-.473,9.711-1.094,9.917s-6.072-5.13-6.792-7.308a4.153,4.153,0,1,1,7.886-2.609" transform="translate(-1631.93 -521.021)" fill="#dff4f8"/>
        <path id="Trazado_1182415" data-name="Trazado 1182415" d="M1925.513,611.315c-2.284.211-9.356-2.647-9.416-3.3s6.366-4.761,8.65-4.972a4.153,4.153,0,0,1,.766,8.271" transform="translate(-1671.175 -565.458)" fill="#dff4f8"/>
        <path id="Trazado_1182416" data-name="Trazado 1182416" d="M1814.814,624.552c1.274,3,.463,13.805-.393,14.169s-9.2-6.557-10.469-9.556a5.9,5.9,0,0,1,10.862-4.613" transform="translate(-1574.999 -580.771)" fill="#dff4f8"/>
        <path id="Trazado_1182417" data-name="Trazado 1182417" d="M1891.074,703.362c-3.245.3-13.291-3.761-13.377-4.687s9.044-6.763,12.289-7.064a5.9,5.9,0,0,1,1.088,11.751" transform="translate(-1638.38 -641.09)" fill="#dff4f8"/>
        <path id="Trazado_1182418" data-name="Trazado 1182418" d="M1559.475,1291.265s8.471-44.9,82.4-17.672c0,0-54.355,60.248-82.4,17.672" transform="translate(-1366.613 -1130.65)" fill="#5fc3c8"/>
        <path id="Trazado_1182419" data-name="Trazado 1182419" d="M1641.874,1324.871l-82.4,17.672s20.471,44.661,82.4-17.672" transform="translate(-1366.613 -1181.928)" fill="#3f8e9e"/>
        <path id="Trazado_1182420" data-name="Trazado 1182420" d="M1261.52,349.557s14.662-10.97,41.148,3.98c0,0,17.48,6.74,17.48,24.485a30.842,30.842,0,0,1,10.594,27.545s8.992,8.25,7.416,25.691c0,0,8.475,9.27,3.708,29.928a29.706,29.706,0,0,1-4.877,24.632s2.182,14.9-10.484,19.9c0,0-7.753,17.974-31.421,16.385,0,0-8.042,6.621-23.933,2.383s-14.3-14.017-14.3-14.017V351.933Z" transform="translate(-1108.131 -345.676)" fill="#ff8548"/>
        <path id="Trazado_1182421" data-name="Trazado 1182421" d="M751.969,349.557s-14.663-10.97-41.148,3.98c0,0-17.48,6.74-17.48,24.485a30.842,30.842,0,0,0-10.594,27.545s-8.992,8.25-7.416,25.691c0,0-8.475,9.27-3.708,29.928a29.707,29.707,0,0,0,4.877,24.632s-2.181,14.9,10.485,19.9c0,0,7.753,17.974,31.421,16.385,0,0,8.042,6.621,23.933,2.383s14.3-14.017,14.3-14.017V351.933Z" transform="translate(-607.128 -345.676)" fill="#ff8548"/>
        <rect id="Rectángulo_422981" data-name="Rectángulo 422981" width="162.049" height="3.576" transform="translate(147.329 168.301) rotate(-89.862)" fill="#eb9a47"/>
        <path id="Trazado_1182422" data-name="Trazado 1182422" d="M1320.027,614.292a26.724,26.724,0,0,1-.143-11.494c1.517-6.564,5.732-9,11-6.349a21.7,21.7,0,0,0,7.245,2.512,63.8,63.8,0,0,1,5.629-16.206,60.075,60.075,0,0,0,5.956-20.246c-3.3-2.052-7.277-1.788-11.327.858-4.99,3.261-8.4,1.617-10.376-.337-2.619-2.585-4.895-8.389-4.179-14.483.473-4.03,2.182-6.658,4.688-7.211,3.228-.712,5.966,1.242,8.615,3.131,3.33,2.376,6.527,4.657,10.657,1.55a36.387,36.387,0,0,0-13.659-17.766.886.886,0,0,1-.341-.96.468.468,0,0,1,.709-.328,37.119,37.119,0,0,1,14.192,18.3,26.842,26.842,0,0,0,4.473-5.744c6.526-10.6,13.543-4.765,15.539-2.724,3.066,3.138,5.517,8.175,6.556,13.469,1.147,5.848.522,11.384-1.76,15.589-4.963,9.148-1.489,15.711,1.873,22.059,2.048,3.869,3.983,7.523,3.819,11.487-.053,1.291-.391,2.087-1,2.365-1.512.686-4.138-2.179-7.773-6.145s-8.142-8.885-12.061-10.474a67.237,67.237,0,0,1-3.056,16.071,68.118,68.118,0,0,0-2.76,13.046,37.945,37.945,0,0,0,12.1-2.934c2.439-1.084,5.232.462,8.077,4.472a50.877,50.877,0,0,1,6.915,16.121c1.648,6.573,1.866,12.325.6,15.782-.816,2.223-2.667,4.669-6.856,3.7a26.944,26.944,0,0,1-12.912-7.023q-.172.8-.339,1.607c-1.217,5.805-2.365,11.288-5.75,13.176-2.093,1.167-4.8.8-8.272-1.118-8.962-4.953-9.109-10.887-9.238-16.123-.119-4.836-.223-9.012-6.782-12.523-5.255-2.813-8.674-8.828-10.059-15.112m17.9-13.93a23.68,23.68,0,0,1-7.332-2.584c-4.684-2.354-8.287-.27-9.637,5.576-1.915,8.281,1.5,20.476,9.45,24.735,7.328,3.923,7.455,9.028,7.576,13.965.129,5.222.251,10.154,8.457,14.689,3.167,1.75,5.587,2.11,7.4,1.1,2.968-1.655,4.059-6.86,5.213-12.371.146-.7.292-1.393.442-2.087a29.274,29.274,0,0,1-4.958-7.437c-2.706-5.768-3.794-12.58-3.263-20.132-4.626.057-9.118-1.145-11.635-5.022-1.68-2.587-2.25-6.074-1.714-10.43m10.334-52.938c-4.525,3.306-8.09.764-11.569-1.718-2.58-1.84-5.017-3.579-7.856-2.953-2.071.457-3.492,2.706-3.9,6.173-.648,5.511,1.364,10.714,3.686,13.006,2.447,2.416,5.619,2.464,9.175.141,4.256-2.781,8.468-3.095,12.03-1.015a38.644,38.644,0,0,0-1.3-12.743c-.084-.3-.171-.6-.262-.891m-9.224,53.017c-.544,4.034-.072,7.212,1.421,9.51,2.2,3.388,6.454,4.456,10.944,4.363a69.29,69.29,0,0,1,2.862-13.758,65.831,65.831,0,0,0,2.963-15.774,4.287,4.287,0,0,0-4.665,1.6,67.876,67.876,0,0,0-4.629,6.7c-2.043,3.25-3.656,5.816-6.15,6.864a6.79,6.79,0,0,1-2.745.5m11.745-37.169a61.957,61.957,0,0,1-6.054,20.336A64.24,64.24,0,0,0,1339.265,599c3.527-.157,5.249-2.9,7.767-6.9a68.861,68.861,0,0,1,4.706-6.805,5.094,5.094,0,0,1,5.543-1.955,44.668,44.668,0,0,0-.115-4.63c-.461-5.86-2.094-10.622-4.72-13.771a12.293,12.293,0,0,0-1.667-1.662m1.626,52.5c-.565,7.368.458,13.981,3.065,19.541a27.717,27.717,0,0,0,4.342,6.641c1.192-5.172,2.785-9.957,6.429-11.98.269-.149.607.027.756.394a.753.753,0,0,1-.217.935c-3.381,1.876-4.861,6.605-6.005,11.679A25.8,25.8,0,0,0,1373.446,650c2.852.658,4.794-.36,5.771-3.026,1.156-3.152.924-8.531-.637-14.758a48.979,48.979,0,0,0-6.639-15.513c-1.732-2.441-4.322-5.118-6.826-4.006a39.366,39.366,0,0,1-12.712,3.081m-2.324-65.723a41.187,41.187,0,0,1,.824,11.727,13.522,13.522,0,0,1,2.245,2.16c3.126,3.748,5.528,10.445,5.268,19.758,4.2,1.65,8.869,6.744,12.657,10.877,2.684,2.929,5.725,6.248,6.638,5.833.281-.128.352-.838.369-1.25.142-3.458-1.677-6.9-3.6-10.535-3.418-6.454-7.291-13.77-1.914-23.679,4.488-8.271,1.333-21.11-4.485-27.064-4.765-4.875-10-3.9-14.01,2.612a27.321,27.321,0,0,1-4.894,6.19q.2.628.382,1.277.291,1.037.524,2.092" transform="translate(-1161.521 -500.438)" fill="#fff"/>
        <path id="Trazado_1182423" data-name="Trazado 1182423" d="M1702.7,1021.822l5.924-1.532-3.858-2.881-3.27-.683-1.589,1.894Z" transform="translate(-1486.546 -918.766)" fill="#ef908f"/>
        <path id="Trazado_1182424" data-name="Trazado 1182424" d="M1883.887,1557.618s-1.467,8.584-1.524,8.689.536,1.024.536,1.024l2.317.415,2.114-.972s1.22-6.92,1.441-8-4.884-1.16-4.884-1.16" transform="translate(-1642.362 -1380.698)" fill="#ef908f"/>
        <path id="Trazado_1182425" data-name="Trazado 1182425" d="M1836.949,1616.766a6.024,6.024,0,0,1-4.953-.611s-8.891,3.332-8.62,5.867c0,0-.379.755,3.474.592s9.84-.334,10-.423.915.318.1-5.424" transform="translate(-1591.981 -1430.689)"/>
        <path id="Trazado_1182426" data-name="Trazado 1182426" d="M2073.682,1557.615s2.266,8.584,2.209,8.689.536,1.024.536,1.024l2.316.415,2.115-.972s-1.153-7.062-.932-8.139-6.244-1.018-6.244-1.018" transform="translate(-1805.756 -1380.695)" fill="#ef908f"/>
        <path id="Trazado_1182427" data-name="Trazado 1182427" d="M2043.377,1616.766a6.024,6.024,0,0,1-4.953-.611s-8.891,3.332-8.62,5.867c0,0-.378.755,3.474.592s9.84-.334,10-.423.914.318.1-5.424" transform="translate(-1768.275 -1430.689)"/>
        <path id="Trazado_1182428" data-name="Trazado 1182428" d="M1882.008,1181.152l-4.645,58.749h7.983s8.44-46.423,9.637-46.627,9.749,46.627,9.749,46.627h9.162l-4.683-60.269Z" transform="translate(-1638.096 -1057.891)" fill="#553e93"/>
        <path id="Trazado_1182429" data-name="Trazado 1182429" d="M1924.744,876.469s-9.881.344-13.883,3.382c-2.489,1.89-3.056,25.734-3.056,25.734l-1.5,17.783s16.017,5.426,29.048,0l1.418-11.892s5.148-29.893,1.143-31.657a36.1,36.1,0,0,0-13.174-3.351" transform="translate(-1662.816 -798.983)" fill="#3751af"/>
        <path id="Trazado_1182430" data-name="Trazado 1182430" d="M1978.78,793.3s-.479-.89-.95-.588c-1.2.769-.181,1.99.542,2.307Z" transform="translate(-1723.424 -727.4)" fill="#e86868"/>
        <path id="Trazado_1182431" data-name="Trazado 1182431" d="M1983.965,737.669l.007,0c0-.088.009-.177.017-.266a6.869,6.869,0,1,1,12.834,3.979c-.779,1.542-1.462,2.86-2.156,3.945a9.814,9.814,0,0,0-1.491,6.045l.086,1.257c-4.408,1.855-6.093.012-6.093.012l.2-3.025a.763.763,0,0,0-.647-.8h-.007c-5.182-.815-2.961-8.8-2.747-11.146" transform="translate(-1728.576 -674.887)" fill="#ef908f"/>
        <path id="Trazado_1182432" data-name="Trazado 1182432" d="M2033.817,801.345a.639.639,0,1,1,.579.695.64.64,0,0,1-.579-.695" transform="translate(-1771.708 -734.329)"/>
        <path id="Trazado_1182433" data-name="Trazado 1182433" d="M1995.759,790.053a.639.639,0,1,1,.579.695.639.639,0,0,1-.579-.695" transform="translate(-1739.206 -724.686)"/>
        <path id="Trazado_1182434" data-name="Trazado 1182434" d="M2035.25,789.939a.375.375,0,0,0,.371-.536,2.009,2.009,0,0,0-2.667-.888.375.375,0,1,0,.273.7,1.265,1.265,0,0,1,1.72.515.375.375,0,0,0,.3.21" transform="translate(-1770.77 -723.709)"/>
        <path id="Trazado_1182435" data-name="Trazado 1182435" d="M1994.977,779.4a.375.375,0,0,0,.371-.536,2.008,2.008,0,0,0-2.667-.888.375.375,0,1,0,.273.7,1.264,1.264,0,0,1,1.719.515.376.376,0,0,0,.3.21" transform="translate(-1736.375 -714.705)"/>
        <path id="Trazado_1182436" data-name="Trazado 1182436" d="M2063.929,774.741l-2.278,4.459-1.221-.362-.2-6.038Z" transform="translate(-1794.266 -710.448)"/>
        <path id="Trazado_1182437" data-name="Trazado 1182437" d="M2058.079,809.774a1.019,1.019,0,0,1,.576-.434,1.722,1.722,0,0,1,1.862.345c.764.917-1.13,2.99-2.7,1.731,0,0-.434-.521.26-1.642" transform="translate(-1792.093 -741.55)" fill="#ef908f"/>
        <path id="Trazado_1182438" data-name="Trazado 1182438" d="M2006.977,800.92a1.279,1.279,0,0,0,1.165.071.111.111,0,0,0-.1-.2,1.043,1.043,0,0,1-1.222-.29c-.091-.1-.136-.177-.133-.231,0-.076.1-.166.242-.29a3.271,3.271,0,0,0,1.109-1.931.111.111,0,0,0-.217-.048,3.032,3.032,0,0,1-1.041,1.814c-.172.154-.307.276-.315.445a.555.555,0,0,0,.191.392,1.477,1.477,0,0,0,.321.267" transform="translate(-1748.351 -731.897)" fill="#e86868"/>
        <path id="Trazado_1182439" data-name="Trazado 1182439" d="M2002.266,823.18a9.523,9.523,0,0,1-4.2-.834s.227,2.035,1.721,2.331,2.481-1.5,2.481-1.5" transform="translate(-1741.176 -752.762)" fill="#fff"/>
        <path id="Trazado_1182440" data-name="Trazado 1182440" d="M1987.244,755.152s-1.046.6-1.666,4.731c0,0,.088-4.659.649-5.121s1.017.39,1.017.39" transform="translate(-1730.514 -694.926)"/>
        <path id="Trazado_1182441" data-name="Trazado 1182441" d="M1991.817,711.764c-1.366-1.53-3.878-1.4-5.5-2.653a9.5,9.5,0,0,0,2.086,2.8l-7.224-2.094a16.086,16.086,0,0,0,2.434,2.03,30.709,30.709,0,0,1-5.641-.035,1.1,1.1,0,0,0,.067.987c.7,1.743,1.572,3.657,3.314,4.363a5.308,5.308,0,0,0,1.71.331c2.305.124,4.852-.44,6.758.862.884.6,1.98,2.7,3.238,2.394,1.12-.269,2.991-4.241-1.243-8.985" transform="translate(-1723.936 -656.057)"/>
        <path id="Trazado_1182442" data-name="Trazado 1182442" d="M1769.284,888.4c-6.17,1.416-12.662,13.976-15.743,15.983-3.166,2.062-16.958,2.967-16.958,2.967l2.988,4.664s14.811,1.636,19.125.192c2.663-.892,7.061-4.474,8.372-6.353,5.807-8.321,2.216-17.453,2.216-17.453" transform="translate(-1517.867 -809.175)" fill="#3751af"/>
        <rect id="Rectángulo_422982" data-name="Rectángulo 422982" width="3.76" height="83.628" transform="translate(202.353 94.915) rotate(-66.737)"/>
        <path id="Trazado_1182443" data-name="Trazado 1182443" d="M1974.89,1125.025l1.721-4.124-29.954-12.879-1.721,4.123Z" transform="translate(-1695.804 -996.735)" fill="#f4b561"/>
        <g id="Grupo_1230784" data-name="Grupo 1230784" transform="translate(153.36 55.714)" opacity="0.3">
          <g id="Grupo_1230783" data-name="Grupo 1230783" transform="translate(0 0)">
            <g id="Grupo_1230782" data-name="Grupo 1230782" clip-path="url(#clip-path-2)">
              <path id="Trazado_1182444" data-name="Trazado 1182444" d="M1325.819,729.493a26.472,26.472,0,1,0,13.863,34.776,26.472,26.472,0,0,0-13.863-34.776" transform="translate(-1288.883 -727.333)" fill="#fff"/>
            </g>
          </g>
        </g>
        <path id="Trazado_1182445" data-name="Trazado 1182445" d="M1318.23,720.067a27.871,27.871,0,1,0,14.595,36.613,27.9,27.9,0,0,0-14.595-36.613m12.661,35.782A25.766,25.766,0,1,1,1317.4,722a25.766,25.766,0,0,1,13.493,33.848" transform="translate(-1127.381 -663.478)"/>
        <path id="Trazado_1182446" data-name="Trazado 1182446" d="M1685.583,1009.149s1.814-3.793,1.314-4.115-2.575,2.293-2.558,2.242,1.726-3.134,1.214-3.791-2.765,2.459-2.765,2.459,1.815-2.774,1.439-3.2-2.4,2.034-2.578,1.9,1.729-2.122,1.286-2.677-3.234,2.143-3.066,2.928a1.026,1.026,0,0,0,.988.787s.425,1.285,1.161,1.379c0,0,1.169,1.434,1.895,1.047,0,0,.422,1.564,1.668,1.045" transform="translate(-1469.426 -906.095)" fill="#ef908f"/>
        <path id="Trazado_1182447" data-name="Trazado 1182447" d="M2020.118,1127.362s-3.651.429-4.941.689-2.734-.446-2.844.309,2.369,1.277,2.369,1.277-2.1,1.667-2.819,2.081-1.345,1.075-.9,1.495c.859.814,2.93-1.14,2.93-1.14s-2.967,1.356-2.207,2.134c.632.647,3.589-1.109,3.589-1.109s-2.784.846-2.821,1.524c-.021.376.015.565,1.16.286l1.214-.3a1.655,1.655,0,0,0-.882.86c-.136.422.146.874,1.656.271a15.876,15.876,0,0,0,6.25-5.257Z" transform="translate(-1752.082 -1013.251)" fill="#ef908f"/>
        <path id="Trazado_1182448" data-name="Trazado 1182448" d="M2075.683,898.341c7.649,3.643,13.586,21.463,11.589,26.678-2.339,6.108-15.969,10.9-15.969,10.9l-3.256-5.806s10.075-6.007,10.107-7.153c.047-1.665-6.594-10.06-6.594-10.06Z" transform="translate(-1800.944 -817.663)" fill="#3751af"/>
        <path id="Trazado_1182449" data-name="Trazado 1182449" d="M2070.774,1092.634a.091.091,0,0,1-.079-.046l-3.256-5.806a.091.091,0,0,1,.03-.12l7.635-4.905a.09.09,0,1,1,.1.152l-7.564,4.859,3.176,5.663,2.985-1.193a.09.09,0,1,1,.067.167l-3.059,1.222a.089.089,0,0,1-.033.007" transform="translate(-1800.414 -974.29)"/>
        <path id="Trazado_1182450" data-name="Trazado 1182450" d="M1917.631,995.439h-.009a.091.091,0,0,1-.081-.1l.635-6.487a.093.093,0,0,1,.1-.081.091.091,0,0,1,.081.1l-.635,6.487a.091.091,0,0,1-.09.082" transform="translate(-1672.408 -894.892)"/>
        <g id="Grupo_1230787" data-name="Grupo 1230787" transform="translate(80.716 65.864)" opacity="0.5">
          <g id="Grupo_1230786" data-name="Grupo 1230786" transform="translate(0 0)">
            <g id="Grupo_1230785" data-name="Grupo 1230785" clip-path="url(#clip-path-3)">
              <path id="Trazado_1182451" data-name="Trazado 1182451" d="M831.927,845.1a11.272,11.272,0,1,0-14.719-6.12,11.271,11.271,0,0,0,14.719,6.12m-7.719-18.035a8.344,8.344,0,1,1-4.53,10.9,8.344,8.344,0,0,1,4.53-10.9" transform="translate(-812.689 -819.53)" fill="#fff"/>
              <rect id="Rectángulo_422984" data-name="Rectángulo 422984" width="3.074" height="4.392" transform="translate(17.427 25.208) rotate(-22.424)" fill="#fff"/>
              <rect id="Rectángulo_422985" data-name="Rectángulo 422985" width="4.391" height="3.074" transform="translate(13.136 30.011) rotate(-87.398)" fill="#fff"/>
              <rect id="Rectángulo_422986" data-name="Rectángulo 422986" width="4.392" height="3.074" transform="translate(7.579 28.182) rotate(-64.071)" fill="#fff"/>
              <rect id="Rectángulo_422987" data-name="Rectángulo 422987" width="4.392" height="3.074" transform="translate(3.483 24.688) rotate(-46.029)" fill="#fff"/>
              <rect id="Rectángulo_422988" data-name="Rectángulo 422988" width="4.392" height="3.074" transform="translate(23.696 9.794) rotate(-22.422)" fill="#fff"/>
              <rect id="Rectángulo_422989" data-name="Rectángulo 422989" width="4.391" height="3.074" transform="translate(0.962 19.175) rotate(-22.425)" fill="#fff"/>
              <rect id="Rectángulo_422990" data-name="Rectángulo 422990" width="3.074" height="4.392" transform="translate(21.451 23.682) rotate(-47.446)" fill="#fff"/>
              <rect id="Rectángulo_422991" data-name="Rectángulo 422991" width="3.074" height="4.392" transform="translate(24.257 20.628) rotate(-70.778)" fill="#fff"/>
              <rect id="Rectángulo_422992" data-name="Rectángulo 422992" width="3.074" height="4.392" transform="matrix(0.021, -1, 1, 0.021, 25.402, 16.789)" fill="#fff"/>
              <rect id="Rectángulo_422993" data-name="Rectángulo 422993" width="3.074" height="4.392" transform="matrix(0.924, -0.381, 0.381, 0.924, 7.845, 2.083)" fill="#fff"/>
              <rect id="Rectángulo_422994" data-name="Rectángulo 422994" width="3.074" height="4.392" transform="matrix(0.676, -0.737, 0.737, 0.676, 3.091, 5.763)" fill="#fff"/>
              <rect id="Rectángulo_422995" data-name="Rectángulo 422995" width="3.074" height="4.392" transform="translate(0.441 10.978) rotate(-70.775)" fill="#fff"/>
              <rect id="Rectángulo_422996" data-name="Rectángulo 422996" width="3.074" height="4.392" transform="translate(0 16.344) rotate(-88.816)" fill="#fff"/>
              <rect id="Rectángulo_422997" data-name="Rectángulo 422997" width="4.392" height="3.074" transform="matrix(0.045, -0.999, 0.999, 0.045, 13.45, 4.386)" fill="#fff"/>
              <rect id="Rectángulo_422998" data-name="Rectángulo 422998" width="4.392" height="3.074" transform="translate(17.592 4.573) rotate(-64.068)" fill="#fff"/>
              <rect id="Rectángulo_422999" data-name="Rectángulo 422999" width="4.392" height="3.074" transform="matrix(0.694, -0.72, 0.72, 0.694, 21.112, 6.487)" fill="#fff"/>
            </g>
          </g>
        </g>
        <path id="Trazado_1182452" data-name="Trazado 1182452" d="M789.9,1093.164l4.3,7.965,6.79-3.669a16.963,16.963,0,0,0,3.019,2.152l-1.566,7.853,8.879,1.77,1.487-7.457a16.891,16.891,0,0,0,3.335-.426l3.481,6.442,7.965-4.3-3.481-6.442a16.879,16.879,0,0,0,2.184-2.556l7.052,2.842,3.384-8.4-7.427-2.993a16.965,16.965,0,0,0-.146-3.705l6.79-3.67-4.3-7.965-6.184,3.342a16.9,16.9,0,0,0-4.267-3.7l1.465-7.348-8.879-1.77-1.321,6.627a16.93,16.93,0,0,0-3.946.432l-3.036-5.618-7.965,4.3,3.036,5.618a16.907,16.907,0,0,0-2.523,3.064l-6.268-2.526-3.384,8.4,6.949,2.8a16.9,16.9,0,0,0,.759,5.6Zm18.2-16.224a8.9,8.9,0,1,1-3.6,12.058,8.9,8.9,0,0,1,3.6-12.058" transform="translate(-708.081 -956.683)" fill="#fff"/>
        <g id="Grupo_1230790" data-name="Grupo 1230790" transform="translate(115.128 78.491)" opacity="0.8">
          <g id="Grupo_1230789" data-name="Grupo 1230789" transform="translate(0 0)">
            <g id="Grupo_1230788" data-name="Grupo 1230788" clip-path="url(#clip-path-4)">
              <path id="Trazado_1182453" data-name="Trazado 1182453" d="M1027.144,899.556l1.9,4.613,3.932-1.623a9.313,9.313,0,0,0,1.531,1.353l-1.308,4.215,4.766,1.479,1.242-4a9.311,9.311,0,0,0,1.853-.043l1.539,3.73,4.613-1.9-1.539-3.731a9.309,9.309,0,0,0,1.344-1.276l3.7,1.962,2.336-4.409-3.9-2.066a9.353,9.353,0,0,0,.132-2.039l3.932-1.623-1.9-4.612-3.581,1.478a9.307,9.307,0,0,0-2.127-2.274l1.224-3.944-4.766-1.479-1.1,3.557a9.323,9.323,0,0,0-2.187.011l-1.343-3.253-4.613,1.9,1.343,3.253a9.335,9.335,0,0,0-1.559,1.535l-3.291-1.744-2.336,4.409,3.649,1.933a9.323,9.323,0,0,0,.1,3.112Zm10.906-7.851a4.9,4.9,0,1,1-2.662,6.4,4.9,4.9,0,0,1,2.662-6.4" transform="translate(-1026.98 -883.362)" fill="#fff"/>
            </g>
          </g>
        </g>
        <path id="Trazado_1182454" data-name="Trazado 1182454" d="M933.334,593.776l3.3,6.1,5.2-2.81a12.986,12.986,0,0,0,2.312,1.648l-1.2,6.013,6.8,1.355,1.138-5.709a12.961,12.961,0,0,0,2.554-.327l2.665,4.932,6.1-3.3-2.666-4.932a12.906,12.906,0,0,0,1.672-1.957l5.4,2.176,2.591-6.43-5.687-2.292a12.973,12.973,0,0,0-.112-2.837l5.2-2.81-3.3-6.1-4.735,2.559a12.94,12.94,0,0,0-3.267-2.835l1.122-5.626-6.8-1.355-1.012,5.074a12.954,12.954,0,0,0-3.021.331l-2.325-4.3-6.1,3.3,2.325,4.3a12.94,12.94,0,0,0-1.932,2.346l-4.8-1.934-2.591,6.43,5.321,2.144a12.943,12.943,0,0,0,.581,4.287Zm13.937-12.423a6.813,6.813,0,1,1-2.755,9.232,6.812,6.812,0,0,1,2.755-9.232" transform="translate(-830.878 -536.606)" fill="#fff"/>
        <path id="Trazado_1182455" data-name="Trazado 1182455" d="M439.555,1358.859H360.609v2.274h40.5a7.39,7.39,0,0,1,0,14.781h-40.5v2.131h78.946a9.593,9.593,0,0,0,0-19.186" transform="translate(-342.758 -1210.954)" fill="#5fc3c8"/>
        <path id="Trazado_1182456" data-name="Trazado 1182456" d="M412.1,1368.452h0a9.594,9.594,0,0,0-9.593-9.593h-41.9v2.274h40.5a7.39,7.39,0,0,1,0,14.781h-40.5v2.131h41.9a9.593,9.593,0,0,0,9.593-9.593" transform="translate(-342.758 -1210.954)" fill="#3f8e9e"/>
        <path id="Trazado_1182457" data-name="Trazado 1182457" d="M401.113,1374.49h-40.5v.051a7.389,7.389,0,0,1,0,14.679v.05h40.5a7.39,7.39,0,1,0,0-14.78" transform="translate(-342.758 -1224.303)" fill="#e6f2fd"/>
        <path id="Trazado_1182458" data-name="Trazado 1182458" d="M408.513,1381.384a7.415,7.415,0,0,0-7.392-7.437H360.609V1374a7.365,7.365,0,0,1,4.767,2.559c8.1-.646,32.27-1.4,34.816,12.264h.929a7.414,7.414,0,0,0,7.392-7.437" transform="translate(-342.758 -1223.84)" fill="#c1dbfb"/>
        <path id="Trazado_1182459" data-name="Trazado 1182459" d="M247.217,1223.43H320.4v2.344H282.855c-3.784,0-6.851,3.412-6.851,7.619s3.067,7.62,6.851,7.62H320.4v2.2H247.217c-4.912,0-8.893-4.428-8.893-9.89s3.982-9.89,8.893-9.89" transform="translate(-238.324 -1095.295)" fill="#3751af"/>
        <path id="Trazado_1182460" data-name="Trazado 1182460" d="M473.582,1233.32h0c0-5.463,3.982-9.89,8.893-9.89h38.844v2.344H483.77c-3.784,0-6.851,3.412-6.851,7.619s3.067,7.62,6.851,7.62h37.549v2.2H482.475c-4.912,0-8.893-4.428-8.893-9.89" transform="translate(-439.239 -1095.295)" fill="#1d328f"/>
        <path id="Trazado_1182461" data-name="Trazado 1182461" d="M503.3,1239.541h37.549v.052c-3.411.437-6.06,3.657-6.06,7.567s2.649,7.131,6.06,7.568v.052H503.3c-3.784,0-6.851-3.412-6.851-7.62s3.067-7.619,6.851-7.619" transform="translate(-458.764 -1109.054)" fill="#acc7f9"/>
        <path id="Trazado_1182462" data-name="Trazado 1182462" d="M261.2,1490.286H363.818v2.742h-52.65c-5.306,0-9.607,3.989-9.607,8.909s4.3,8.909,9.607,8.909h52.65v2.571H261.2c-6.887,0-12.47-5.178-12.47-11.566s5.583-11.566,12.47-11.566" transform="translate(-247.207 -1323.195)" fill="#3751af"/>
        <path id="Trazado_1182463" data-name="Trazado 1182463" d="M578.6,1501.852h0c0-6.388,5.583-11.566,12.47-11.566h54.466v2.742h-52.65c-5.306,0-9.607,3.989-9.607,8.909s4.3,8.909,9.607,8.909h52.65v2.571H591.071c-6.887,0-12.47-5.178-12.47-11.566" transform="translate(-528.927 -1323.195)" fill="#1d328f"/>
        <path id="Trazado_1182464" data-name="Trazado 1182464" d="M620.267,1509.133h52.65v.061a8.856,8.856,0,0,0,0,17.7v.061h-52.65c-5.306,0-9.607-3.989-9.607-8.91s4.3-8.909,9.607-8.909" transform="translate(-556.306 -1339.291)" fill="#fff"/>
        <path id="Trazado_1182465" data-name="Trazado 1182465" d="M610.661,1517.393c0-4.92,4.3-8.909,9.607-8.909h52.65v.06a9.829,9.829,0,0,0-6.194,3.066c-10.531-.774-41.939-1.676-45.248,14.693h-1.208c-5.306,0-9.607-3.989-9.607-8.909" transform="translate(-556.307 -1338.737)" fill="#acc7f9"/>
        <path id="Trazado_1182466" data-name="Trazado 1182466" d="M567.533,1411.32s-.77,5.391,1.155,8.087,5.9,6.547,4.878,7.573-12.451-4.749-12.194-6.033,2.054-6.547,1.669-9.627Z" transform="translate(-514.21 -1255.757)" fill="#fb9391"/>
        <path id="Trazado_1182467" data-name="Trazado 1182467" d="M562.064,1459.4c-.314,1.188-.6,2.151-.692,2.608-.257,1.284,11.167,7.06,12.194,6.033.761-.762-1.23-3.076-3.1-5.321-1.05.66-3.711,1.362-8.406-3.32" transform="translate(-514.21 -1296.82)"/>
        <path id="Trazado_1182468" data-name="Trazado 1182468" d="M708.637,1393.143s-.77,5.391,1.155,8.087,5.9,6.546,4.878,7.573-12.451-4.749-12.194-6.033,2.054-6.546,1.669-9.627Z" transform="translate(-634.715 -1240.233)" fill="#fb9391"/>
        <path id="Trazado_1182469" data-name="Trazado 1182469" d="M703.169,1441.225c-.314,1.188-.6,2.151-.692,2.608-.257,1.283,11.167,7.06,12.194,6.033.761-.761-1.23-3.076-3.1-5.321-1.049.66-3.711,1.362-8.406-3.32" transform="translate(-634.716 -1281.296)"/>
        <path id="Trazado_1182470" data-name="Trazado 1182470" d="M569.45,1059.15l-2.188-5.019-10.055,8.5,7.32,1.468Z" transform="translate(-510.656 -950.711)"/>
        <path id="Trazado_1182471" data-name="Trazado 1182471" d="M356.935,747.27c.311,0,6.592-1.822,5.91-9.627s-7.551-8.585-11.062-8.117-9.6,5.582-7.18,11.571,5.463,8.252,5.463,8.252Z" transform="translate(-328.615 -673.4)"/>
        <path id="Trazado_1182472" data-name="Trazado 1182472" d="M460.9,822.085s.8-.819,1.214-.346c1.066,1.2-.527,2.24-1.411,2.361Z" transform="translate(-428.243 -752.118)" fill="#ea6868"/>
        <path id="Trazado_1182473" data-name="Trazado 1182473" d="M372.027,736.739a7.761,7.761,0,0,0-8.468,9.507,33.52,33.52,0,0,0,1.81,6.919,7.725,7.725,0,0,1,.312,5.648l-.636,1.87c4.022,3.053,6.311,1.566,6.311,1.566l.9-4.807c4.908.329,5.932-8.65,6.423-11.269h-.008c.022-.1.044-.195.063-.294a7.763,7.763,0,0,0-6.711-9.14" transform="translate(-345.096 -679.604)" fill="#fb9391"/>
        <path id="Trazado_1182474" data-name="Trazado 1182474" d="M361.767,741.471a33.057,33.057,0,0,0-3.133,2.59A8.382,8.382,0,0,0,356,747.4a10.006,10.006,0,0,1-1.994-4.255,7.3,7.3,0,0,1-.323-2.168,8.108,8.108,0,0,1,.918-2.956,8.474,8.474,0,0,1,2.21-3.311,6.446,6.446,0,0,1,2.414-1.077,10.919,10.919,0,0,1,6.128.115,7.865,7.865,0,0,1,4.607,3.921c1.152,2.406.8,5.229.424,7.87a7.851,7.851,0,0,0-1.142-3.187,6.651,6.651,0,0,0-1.25-1.822,32.621,32.621,0,0,1-2.856-2.363,9.19,9.19,0,0,1-3.371,3.3" transform="translate(-336.841 -676.676)"/>
        <path id="Trazado_1182475" data-name="Trazado 1182475" d="M447.678,818.775a.677.677,0,1,0-.839.462.677.677,0,0,0,.839-.462" transform="translate(-415.982 -748.972)" fill="#1d328f"/>
        <path id="Trazado_1182476" data-name="Trazado 1182476" d="M401.592,815.519a.678.678,0,1,0-.839.462.678.678,0,0,0,.839-.462" transform="translate(-376.624 -746.192)" fill="#1d328f"/>
        <path id="Trazado_1182477" data-name="Trazado 1182477" d="M416.208,847.53s-.822-.685-1.177-.635a1.01,1.01,0,0,0-.6.44.783.783,0,0,0-.567-.5,7.536,7.536,0,0,0-1.914.543s1.08,1.95,2.374,1.886c1.318-.065,1.883-1.731,1.883-1.731" transform="translate(-386.605 -773.67)" fill="#ea6868"/>
        <path id="Trazado_1182478" data-name="Trazado 1182478" d="M395.213,808.164a.282.282,0,0,1-.085-.523,3.383,3.383,0,0,1,2.244-.263.282.282,0,0,1,.211.338.289.289,0,0,1-.338.211,2.818,2.818,0,0,0-1.842.206.282.282,0,0,1-.189.031" transform="translate(-372.115 -739.906)"/>
        <path id="Trazado_1182479" data-name="Trazado 1182479" d="M443.112,811.375a.282.282,0,0,1,.064-.526,3.344,3.344,0,0,1,2.229.372.282.282,0,0,1-.275.491,2.8,2.8,0,0,0-1.827-.315.28.28,0,0,1-.19-.023" transform="translate(-413.085 -742.897)"/>
        <path id="Trazado_1182480" data-name="Trazado 1182480" d="M423.127,820.9a1.206,1.206,0,0,0,1.27-.85.237.237,0,0,0-.022-.175,3.5,3.5,0,0,1-.232-2.254.237.237,0,0,0-.459-.118,3.98,3.98,0,0,0,.224,2.5c-.081.175-.347.551-1.088.374a.237.237,0,1,0-.111.461,2.1,2.1,0,0,0,.416.059" transform="translate(-395.639 -748.475)" fill="#ea6868"/>
        <path id="Trazado_1182481" data-name="Trazado 1182481" d="M411.951,850.576a40.215,40.215,0,0,0,4.257.155s-.928,1.2-1.908,1.078a6.379,6.379,0,0,1-2.349-1.232" transform="translate(-386.605 -776.87)" fill="#fff"/>
        <path id="Trazado_1182482" data-name="Trazado 1182482" d="M390.882,808.161a2.352,2.352,0,1,1,2.352-2.353,2.355,2.355,0,0,1-2.352,2.353m0-4.488a2.136,2.136,0,1,0,2.135,2.135,2.137,2.137,0,0,0-2.135-2.135" transform="translate(-366.603 -736.629)" fill="#1d328f"/>
        <path id="Trazado_1182483" data-name="Trazado 1182483" d="M437.23,810.183a2.352,2.352,0,1,1,2.352-2.352,2.355,2.355,0,0,1-2.352,2.352m0-4.488a2.136,2.136,0,1,0,2.135,2.135,2.138,2.138,0,0,0-2.135-2.135" transform="translate(-406.184 -738.356)" fill="#1d328f"/>
        <rect id="Rectángulo_423002" data-name="Rectángulo 423002" width="0.216" height="2.808" transform="translate(19.233 68.727) rotate(-83.513)" fill="#1d328f"/>
        <path id="Trazado_1182484" data-name="Trazado 1182484" d="M421.8,819.19a1.838,1.838,0,0,0-2.173-.052l-.106-.189a2.076,2.076,0,0,1,2.426.082Z" transform="translate(-393.068 -749.57)" fill="#1d328f"/>
        <path id="Trazado_1182485" data-name="Trazado 1182485" d="M360.362,813.407a1.152,1.152,0,0,0-.493-.65,1.945,1.945,0,0,0-2.131-.2c-1.113.761.305,3.6,2.4,2.714,0,0,.632-.432.223-1.866" transform="translate(-339.974 -744.19)" fill="#fb9391"/>
        <path id="Trazado_1182486" data-name="Trazado 1182486" d="M385.046,1130.24s8.273.67,10.926,11.21c1.542,6.124.936,26.067.936,26.067l-10.726,1.682s.963-22.286-7.345-29.154c0,0,1.682,4.527-4.405,30.281h-7.96l-2.654-26.379s-18.73.624-24.35-4.058a16.9,16.9,0,0,1-6.183-10.287l26.474-4.024Z" transform="translate(-319.424 -1011.727)" fill="#ff443c"/>
        <path id="Trazado_1182487" data-name="Trazado 1182487" d="M267.851,889.838s.52-4.006,1.353-3.8,8.221,1.552,8.949,1.4,0,3.386,0,3.386,6.035.52,8.117,4.058,1.7,19.679,3.465,20.824S302.5,917.57,302.5,917.57l-14.389,8.094-13.63-.638s-9.859,5.909-17.559,1.308-6.348-28.742.937-33.009,9.99-3.486,9.99-3.486" transform="translate(-249.783 -807.151)" fill="#f4b561"/>
        <path id="Trazado_1182488" data-name="Trazado 1182488" d="M448.645,1096.4l-.739-.718,12.674-9.776,14.943-1.1.263.572-18.919,10.688Z" transform="translate(-417.311 -976.905)" fill="#c1dbfb"/>
        <path id="Trazado_1182489" data-name="Trazado 1182489" d="M459.564,1089.977l-13.215,10.342,17.855-1.18,10.571-10.628Z" transform="translate(-415.982 -980.072)"/>
        <path id="Trazado_1182490" data-name="Trazado 1182490" d="M343.486,1033.818a.109.109,0,0,1-.044-.208l3-1.31-.42-5.226c-.916-.18-9.344-1.821-13.37-2.292a.108.108,0,0,1-.1-.106c-.006-.4-.15-9.907.477-11.317a.108.108,0,1,1,.2.088c-.575,1.294-.474,10.114-.46,11.131,4.286.511,13.282,2.28,13.373,2.3a.108.108,0,0,1,.087.1l.433,5.385a.108.108,0,0,1-.064.108l-3.071,1.342a.116.116,0,0,1-.044.009" transform="translate(-318.784 -915.835)"/>
        <path id="Trazado_1182491" data-name="Trazado 1182491" d="M474.139,1014.25a.106.106,0,0,1-.025,0c-5.224-1.254-5.485-11.729-5.494-12.174a.11.11,0,0,1,.026-.073,7.565,7.565,0,0,0,1.743-4.812c-.2-2.528-3.469-5.412-3.5-5.441a.109.109,0,0,1-.01-.153.111.111,0,0,1,.153-.01c.137.12,3.365,2.972,3.574,5.588a7.6,7.6,0,0,1-1.767,4.938c.022.724.423,10.75,5.327,11.927a.108.108,0,0,1-.025.214" transform="translate(-433.49 -897.271)"/>
        <path id="Trazado_1182492" data-name="Trazado 1182492" d="M363.226,1040.868a8.619,8.619,0,0,1-4.675-1.548.108.108,0,0,1,.117-.182c5.681,3.651,9.085-.455,9.119-.5a.108.108,0,1,1,.168.136,6.443,6.443,0,0,1-4.729,2.091" transform="translate(-340.958 -937.447)"/>
        <path id="Trazado_1182493" data-name="Trazado 1182493" d="M432.193,1112.115l.553.017c1.708.053,6.819.229,7.411.438.713.252-1.434,4.71-1.434,4.71s-6.141.336-8.117-.982,1.586-4.183,1.586-4.183" transform="translate(-402.028 -1000.23)" fill="#f78181"/>
        <path id="Trazado_1182494" data-name="Trazado 1182494" d="M484.153,1142.676s3.425,1.55,3.728,1.211-2.682-2.068-2.682-2.068Z" transform="translate(-448.267 -1025.598)" fill="#f78181"/>
        <path id="Trazado_1182495" data-name="Trazado 1182495" d="M490.543,1133.578s5.072,2.086,5.455,1.385-5.228-2.511-5.228-2.511Z" transform="translate(-453.724 -1017.598)" fill="#f78181"/>
        <path id="Trazado_1182496" data-name="Trazado 1182496" d="M495.164,1125.065s5.234,1.635,5.555.9-5.428-2.045-5.428-2.045Z" transform="translate(-457.671 -1010.315)" fill="#f78181"/>
        <path id="Trazado_1182497" data-name="Trazado 1182497" d="M496.981,1116.034s4.889,1.6,5.2.863-5.068-2-5.068-2Z" transform="translate(-459.222 -1002.603)" fill="#f78181"/>
        <path id="Trazado_1182498" data-name="Trazado 1182498" d="M430.4,1110.29l-3.858-.483.355,4.362,1.984.444Z" transform="translate(-399.064 -998.259)" fill="#f78181"/>
        <path id="Trazado_1182499" data-name="Trazado 1182499" d="M344.535,708.69a4.763,4.763,0,1,0-4.763,4.763,4.763,4.763,0,0,0,4.763-4.763" transform="translate(-320.895 -651.629)"/>
        <path id="Trazado_1182500" data-name="Trazado 1182500" d="M584.652,1058.609l-2.051-4.477-6.912,5.137Z" transform="translate(-526.44 -950.711)" fill="#e6f2fd"/>
      </g>
    </g>
  </g>
</svg>
