<svg xmlns="http://www.w3.org/2000/svg" xmlns:xlink="http://www.w3.org/1999/xlink" width="108" height="108" viewBox="0 0 108 108">
  <defs>
    <filter id="Fondo" x="0" y="0" width="108" height="108" filterUnits="userSpaceOnUse">
      <feOffset dy="3" input="SourceAlpha"/>
      <feGaussianBlur stdDeviation="3" result="blur"/>
      <feFlood flood-opacity="0.161"/>
      <feComposite operator="in" in2="blur"/>
      <feComposite in="SourceGraphic"/>
    </filter>
  </defs>
  <g id="Grupo_1231152" data-name="Grupo 1231152" transform="translate(-618.763 -4962.915)">
    <g id="Grupo_1230189" data-name="Grupo 1230189" transform="translate(627.763 4968.915)">
      <g id="Grupo_1220769" data-name="Grupo 1220769" transform="translate(0 0)">
        <g id="Grupo_1220768" data-name="Grupo 1220768" transform="translate(0 0)">
          <g id="Grupo_1220472" data-name="Grupo 1220472">
            <g id="Grupo_1210004" data-name="Grupo 1210004">
              <g id="Grupo_1143757" data-name="Grupo 1143757">
                <g transform="matrix(1, 0, 0, 1, -9, -6)" filter="url(#Fondo)">
                  <g id="Fondo-2" data-name="Fondo" transform="translate(9 6)" fill="#fff6f9">
                    <path d="M 44.99995040893555 88.49987030029297 C 39.12683868408203 88.49987030029297 33.43019866943359 87.34994506835938 28.06827545166016 85.08204650878906 C 22.88851356506348 82.89119720458984 18.23629951477051 79.75447082519531 14.2408504486084 75.759033203125 C 10.24541282653809 71.76358795166016 7.108687877655029 67.11137390136719 4.917838096618652 61.93161010742188 C 2.649937868118286 56.56968688964844 1.500012874603271 50.873046875 1.500012874603271 44.99993515014648 C 1.500012874603271 39.12682342529297 2.649937868118286 33.43018341064453 4.917838096618652 28.06826019287109 C 7.108687877655029 22.88849830627441 10.24541282653809 18.23628425598145 14.2408504486084 14.24083518981934 C 18.23629951477051 10.24539756774902 22.88851356506348 7.108672618865967 28.06827545166016 4.91782283782959 C 33.43019866943359 2.649922609329224 39.12683868408203 1.499997615814209 44.99995040893555 1.499997615814209 C 50.87306213378906 1.499997615814209 56.5697021484375 2.649922609329224 61.93162536621094 4.91782283782959 C 67.11138916015625 7.108672618865967 71.76360321044922 10.24539756774902 75.75904846191406 14.24083518981934 C 79.75448608398438 18.23628425598145 82.89121246337891 22.88849830627441 85.08206176757812 28.06826019287109 C 87.34996032714844 33.43018341064453 88.49988555908203 39.12682342529297 88.49988555908203 44.99993515014648 C 88.49988555908203 50.873046875 87.34996032714844 56.56968688964844 85.08206176757812 61.93161010742188 C 82.89121246337891 67.11137390136719 79.75448608398438 71.76358795166016 75.75904846191406 75.759033203125 C 71.76360321044922 79.75447082519531 67.11138916015625 82.89119720458984 61.93162536621094 85.08204650878906 C 56.5697021484375 87.34994506835938 50.87306213378906 88.49987030029297 44.99995040893555 88.49987030029297 Z" stroke="none"/>
                    <path d="M 44.99995040893555 2.999992370605469 C 39.32867813110352 2.999992370605469 33.82863616943359 4.11004638671875 28.65260696411133 6.299324035644531 C 23.65163421630859 8.41455078125 19.15967559814453 11.44332122802734 15.30150604248047 15.30149078369141 C 11.44333648681641 19.15966033935547 8.414566040039062 23.65161895751953 6.299339294433594 28.6525764465332 C 4.110061645507812 33.82860565185547 3.000007629394531 39.32866287231445 3.000007629394531 44.99993515014648 C 3.000007629394531 50.67120742797852 4.110061645507812 56.17124938964844 6.299339294433594 61.3472785949707 C 8.414566040039062 66.34825134277344 11.44333648681641 70.84019470214844 15.30150604248047 74.6983642578125 C 19.15967559814453 78.55653381347656 23.65163421630859 81.58530426025391 28.65260696411133 83.70053863525391 C 33.82863616943359 85.88980865478516 39.32867813110352 86.99986267089844 44.99995040893555 86.99986267089844 C 50.67122268676758 86.99986267089844 56.1712646484375 85.88980865478516 61.34729385375977 83.70053863525391 C 66.3482666015625 81.58530426025391 70.8402099609375 78.55653381347656 74.69837951660156 74.6983642578125 C 78.55654907226562 70.84019470214844 81.58531951904297 66.34825134277344 83.70055389404297 61.3472785949707 C 85.88982391357422 56.17124938964844 86.9998779296875 50.67120742797852 86.9998779296875 44.99993515014648 C 86.9998779296875 39.32864761352539 85.88982391357422 33.82860565185547 83.70055389404297 28.6525764465332 C 81.58531951904297 23.65161895751953 78.55654907226562 19.15966033935547 74.69837951660156 15.30149078369141 C 70.8402099609375 11.44332122802734 66.3482666015625 8.41455078125 61.34729385375977 6.299324035644531 C 56.1712646484375 4.11004638671875 50.67122268676758 2.999992370605469 44.99995040893555 2.999992370605469 M 44.99995040893555 -7.62939453125e-06 C 69.85272216796875 -7.62939453125e-06 89.9998779296875 20.14714813232422 89.9998779296875 44.99993515014648 C 89.9998779296875 69.85270690917969 69.85272216796875 89.99986267089844 44.99995040893555 89.99986267089844 C 20.14717864990234 89.99986267089844 7.62939453125e-06 69.85270690917969 7.62939453125e-06 44.99993515014648 C 7.62939453125e-06 20.14714813232422 20.14717864990234 -7.62939453125e-06 44.99995040893555 -7.62939453125e-06 Z" stroke="none" fill="#8b5e6f"/>
                  </g>
                </g>
              </g>
            </g>
          </g>
        </g>
      </g>
    </g>
    <g id="educacion_8_" data-name="educacion (8)" transform="translate(645.485 4982.187)">
      <g id="Grupo_1231151" data-name="Grupo 1231151" transform="translate(0.934 5.652)">
        <path id="Trazado_1182638" data-name="Trazado 1182638" d="M96.1,233.5a10.735,10.735,0,0,0-.064,7.95l.876,1.715h-37.8s-7.037-3.954,0-10.991l37.47-.772Z" transform="translate(-50.953 -207.951)" fill="#f1f2f2"/>
        <path id="Trazado_1182639" data-name="Trazado 1182639" d="M96.911,243.168h-37.8s-7.037-3.954,0-10.991l37.47-.773-.486,2.1a10.293,10.293,0,0,0-.534,1.7h-34.3a2.409,2.409,0,1,0,0,4.817h34.31a9.252,9.252,0,0,0,.457,1.428Z" transform="translate(-50.956 -207.95)" fill="#dee1e1"/>
        <path id="Trazado_1182640" data-name="Trazado 1182640" d="M80.13,234.013l-34.549-.054c-4.139,0-7.694-2.64-7.694-6.779a9.43,9.43,0,0,1,.141-2.923,7.5,7.5,0,0,1,7.031-4.894H80.5a1.69,1.69,0,1,1,0,3.381H53.678l-2.62.615-2.278-.615H45.06a4.113,4.113,0,0,0,0,8.227H80.5a1.692,1.692,0,0,1,1.679,1.889c-.1.84-1.186,1.154-2.052,1.154Z" transform="translate(-34.747 -197.19)" fill="#b7e546"/>
        <path id="Trazado_1182641" data-name="Trazado 1182641" d="M79.825,270.271a1.69,1.69,0,0,1-1.678,1.492l-17.511,1.049L42.7,271.762a7.5,7.5,0,0,1-6.856-10.527v1.541a7.5,7.5,0,0,0,7.495,7.495Z" transform="translate(-32.391 -234.601)" fill="#abd641"/>
        <path id="Trazado_1182642" data-name="Trazado 1182642" d="M146.525,256.02v-4.928h-3.513l-1.247.125.075,4.59a.213.213,0,0,0,.291.2l.881-.215L144,255.4a.212.212,0,0,1,.155,0l2.081.815A.213.213,0,0,0,146.525,256.02Z" transform="translate(-127.594 -225.539)" fill="#ef5227"/>
        <path id="Trazado_1182643" data-name="Trazado 1182643" d="M141.855,251.1v4.7l-1.094.428a.213.213,0,0,1-.291-.2V251.1Z" transform="translate(-126.437 -225.542)" fill="#d83724"/>
        <path id="Trazado_1182644" data-name="Trazado 1182644" d="M133.545,173.134v2.4l-.107,1.066a.746.746,0,0,1-.746.746l-28.4-.107a.745.745,0,0,1-.746-.746l-.213-3.362,14.578-.7Z" transform="translate(-93.259 -155.265)" fill="#fdcd08"/>
        <path id="Trazado_1182645" data-name="Trazado 1182645" d="M437.8,197.8c-.667,1.644-1.338,3.266-2.005,4.911a1.493,1.493,0,0,0,1.37,2.06l1.233.107h3a1.493,1.493,0,0,0,1.37-2.06l-1.391-3.429L440.5,197.8h-2.7Z" transform="translate(-390.194 -177.924)" fill="#fdcd08"/>
        <path id="Trazado_1182646" data-name="Trazado 1182646" d="M437.984,197.636a4.051,4.051,0,0,0,2.5-.606l-.748-1.869-1.236.37h0l-1.611-.215c-.2.5-.5,1.214-.7,1.716h0l-1.391,3.428a1.492,1.492,0,0,0,1.369,2.06h1.7a1.492,1.492,0,0,1-1.369-2.06l1.039-2.56a.431.431,0,0,1,.442-.263Z" transform="translate(-389.304 -175.568)" fill="#faab18"/>
        <path id="Trazado_1182647" data-name="Trazado 1182647" d="M452.217,160.312a2.482,2.482,0,0,0-1.661-2.349c-.251-.087-.615.068-.894.068a2.093,2.093,0,0,0-2.195,2.281,2.168,2.168,0,0,0,2.375,2.194c.28,0,.464.242.714.155A2.482,2.482,0,0,0,452.217,160.312Z" transform="translate(-400.723 -142.309)" fill="#fdcd08"/>
        <path id="Trazado_1182648" data-name="Trazado 1182648" d="M449.134,161.757a2.424,2.424,0,0,1-.8.134,2.483,2.483,0,0,1,0-4.966,2.424,2.424,0,0,1,.8.134,2.492,2.492,0,0,0,0,4.7Z" transform="translate(-399.301 -141.406)" fill="#faab18"/>
        <path id="Trazado_1182649" data-name="Trazado 1182649" d="M62.429,21.08,55.4,23.513l-1.918-.2L39.841,28.9a4.471,4.471,0,0,1-2.926,0L23.274,23.534l-1.918-.021L14.327,21.08a.894.894,0,0,1,0-1.69l22.855-7.912a3.656,3.656,0,0,1,2.392,0l22.855,7.912A.894.894,0,0,1,62.429,21.08Z" transform="translate(-13.197 -11.277)" fill="#868491"/>
        <path id="Trazado_1182650" data-name="Trazado 1182650" d="M119.381,82.687v.721l-15.56,5.386a4.471,4.471,0,0,1-2.926,0L85.336,83.408v-.721A3.135,3.135,0,0,1,87.919,79.6a81.836,81.836,0,0,1,28.879,0,3.137,3.137,0,0,1,2.583,3.088Z" transform="translate(-77.177 -71.172)" fill="#77777f"/>
        <path id="Trazado_1182651" data-name="Trazado 1182651" d="M135.332,98.769v6.354H105.443l-.107-6.141a1.219,1.219,0,0,1,1-1.2c.3-.055.4-.32.7-.371a79.894,79.894,0,0,1,27.287.158,1.22,1.22,0,0,1,1,1.2Z" transform="translate(-95.046 -87.254)" fill="#868491"/>
        <path id="Trazado_1182652" data-name="Trazado 1182652" d="M133.545,175.536v1.172a.746.746,0,0,1-.746.746H104.082a.746.746,0,0,1-.746-.746v-3.575l.959-.7.959.7V175a.533.533,0,0,0,.533.533Z" transform="translate(-93.259 -155.265)" fill="#faab18"/>
        <path id="Trazado_1182653" data-name="Trazado 1182653" d="M105.254,106.6v7.711h-1.918v-6.354a1.219,1.219,0,0,1,1-1.2C104.644,106.708,104.949,106.655,105.254,106.6Z" transform="translate(-93.259 -96.447)" fill="#77777f"/>
        <path id="Trazado_1182654" data-name="Trazado 1182654" d="M78.729,389.725a10.025,10.025,0,0,1,0-7.673l.324-1.44H35.482s-4.9,5.332.319,10.556l43.536.326Z" transform="translate(-30.77 -341.257)" fill="#f1f2f2"/>
        <path id="Trazado_1182655" data-name="Trazado 1182655" d="M79.337,391.5,35.8,391.17c-5.224-5.223-.319-10.555-.319-10.555l43.78.081-.533,1.359a9.984,9.984,0,0,0-.476,1.453H38.265a2.409,2.409,0,1,0,0,4.817h40a10.108,10.108,0,0,0,.464,1.4Z" transform="translate(-30.77 -341.261)" fill="#dee1e1"/>
        <path id="Trazado_1182656" data-name="Trazado 1182656" d="M61.4,374.649l-39.393-.073c-4.139,0-7.781-2.336-7.781-6.475,0-1.314-.321-3.122.272-4.2a7.493,7.493,0,0,1,6.563-3.873H62.144a1.69,1.69,0,1,1,0,3.381H51.966L49.307,364l-2.238-.589h-26a4.113,4.113,0,0,0,0,8.227H62.144a1.692,1.692,0,0,1,1.663,2c-.144.788-1.574,1.012-2.4,1.012Z" transform="translate(-13.571 -322.872)" fill="#ef5227"/>
        <path id="Trazado_1182657" data-name="Trazado 1182657" d="M59,402.72a1.692,1.692,0,0,1-1.663,1.385H16.263A7.5,7.5,0,0,1,9.94,392.585v2.64a7.5,7.5,0,0,0,7.495,7.495Z" transform="translate(-8.768 -351.955)" fill="#d83724"/>
        <path id="Trazado_1182658" data-name="Trazado 1182658" d="M329.167,396.717v-4.968h-3.3l-1.464.089.078,4.666a.213.213,0,0,0,.291.2l1.094-.3.773-.3a.213.213,0,0,1,.155,0l2.081.815A.213.213,0,0,0,329.167,396.717Z" transform="translate(-290.772 -351.209)" fill="#fdcd08"/>
        <path id="Trazado_1182659" data-name="Trazado 1182659" d="M324.738,391.745V396.4l-1.307.511a.213.213,0,0,1-.291-.2v-4.969Z" transform="translate(-289.643 -351.205)" fill="#faab18"/>
      </g>
      <path id="Trazado_1182660" data-name="Trazado 1182660" d="M54.386,29.9l-1.774-4.372a3.247,3.247,0,0,0-1.648-5.239c0-.21,0-5.476,0-5.7A1.658,1.658,0,0,0,49.836,13L27.368,5.222a4.411,4.411,0,0,0-2.875,0L18.9,7.159a.8.8,0,1,0,.523,1.51l5.594-1.936a2.806,2.806,0,0,1,1.829,0L49.313,14.51a.08.08,0,0,1,0,.151l-7.734,2.678V17.1a2,2,0,0,0-1.645-1.966,79.064,79.064,0,0,0-28.006,0A2,2,0,0,0,10.283,17.1v.239L2.549,14.662a.08.08,0,0,1,0-.151l13.285-4.6a.8.8,0,1,0-.523-1.51L2.026,13a1.678,1.678,0,0,0,0,3.172l8.257,2.858V26.94A8.291,8.291,0,0,0,6.5,42.084a8.293,8.293,0,0,0,1.79,16.39H49.372a2.489,2.489,0,0,0,.051-4.978,9.155,9.155,0,0,1-.019-6.631,2.489,2.489,0,0,0-.031-4.978h-.493a2.488,2.488,0,0,0-2.324-3.381h-.022a9.149,9.149,0,0,1-.151-6.208,2.245,2.245,0,0,0,1.65.724H52.3a2.248,2.248,0,0,0,1.866-1,2.274,2.274,0,0,0,.221-2.129Zm-2.6-6.472a1.619,1.619,0,1,1-1.619-1.642A1.632,1.632,0,0,1,51.785,23.424Zm-2.418-7.09v3.951a3.247,3.247,0,0,0-1.648,5.239L47.162,26.9H41.579V19.031Zm-37.157.373a77.486,77.486,0,0,1,27.441,0,.4.4,0,0,1,.329.393v5.447H35.056a.8.8,0,1,0,0,1.6H39.98V26.9h-28.1V24.145H31.327a.8.8,0,0,0,0-1.6H11.882V17.1a.4.4,0,0,1,.329-.393ZM50.264,44.377a.892.892,0,0,1-.891.891H8.294a4.913,4.913,0,1,0,0,9.825H39.851a.8.8,0,0,0,0-1.6H8.294a3.314,3.314,0,1,1,0-6.629H33.5v4.48a.8.8,0,0,0,1.091.744l2.158-.845,2.158.845a.8.8,0,0,0,1.091-.744v-4.48h7.714a10.726,10.726,0,0,0,.016,6.629H43.58a.8.8,0,0,0,0,1.6h5.792a.891.891,0,0,1,0,1.783H8.294a6.7,6.7,0,1,1,0-13.391H49.372a.892.892,0,0,1,.891.891ZM35.1,46.866h3.3v3.309l-1.358-.532a.8.8,0,0,0-.583,0l-1.358.532ZM21.417,40.1H46.555a.891.891,0,1,1,0,1.783H11.111a6.7,6.7,0,0,1,0-13.391h35.4c-.2.53-.562,1.281-.685,1.783H11.111a4.913,4.913,0,1,0,0,9.825h6.577a.8.8,0,0,0,0-1.6H11.111a3.314,3.314,0,1,1,0-6.629h2.922v4.441a.8.8,0,0,0,1.091.744l2.158-.845,2.158.845a.8.8,0,0,0,1.091-.744V31.877H44.836a10.727,10.727,0,0,0,0,6.629H21.417a.8.8,0,0,0,0,1.6Zm-5.786-8.227h3.3v3.27l-1.358-.532a.8.8,0,0,0-.583,0l-1.358.532Zm37.209-.744a.648.648,0,0,1-.541.29H48.032a.648.648,0,0,1-.541-.29.67.67,0,0,1-.066-.635l1.635-4.03a3.2,3.2,0,0,0,2.209,0l1.635,4.03a.67.67,0,0,1-.066.635Z"/>
    </g>
  </g>
</svg>
