<svg xmlns="http://www.w3.org/2000/svg" xmlns:xlink="http://www.w3.org/1999/xlink" width="108" height="108" viewBox="0 0 108 108">
  <defs>
    <filter id="Fondo" x="0" y="0" width="108" height="108" filterUnits="userSpaceOnUse">
      <feOffset dy="3" input="SourceAlpha"/>
      <feGaussianBlur stdDeviation="3" result="blur"/>
      <feFlood flood-opacity="0.161"/>
      <feComposite operator="in" in2="blur"/>
      <feComposite in="SourceGraphic"/>
    </filter>
  </defs>
  <g id="Grupo_1231066" data-name="Grupo 1231066" transform="translate(-723.421 -4540)">
    <g id="Grupo_1230154" data-name="Grupo 1230154" transform="translate(732.421 4546)">
      <g id="Grupo_1220769" data-name="Grupo 1220769" transform="translate(0 0)">
        <g id="Grupo_1220768" data-name="Grupo 1220768" transform="translate(0 0)">
          <g id="Grupo_1220472" data-name="Grupo 1220472">
            <g id="Grupo_1210004" data-name="Grupo 1210004">
              <g id="Grupo_1143757" data-name="Grupo 1143757">
                <g transform="matrix(1, 0, 0, 1, -9, -6)" filter="url(#Fondo)">
                  <g id="Fondo-2" data-name="Fondo" transform="translate(9 6)" fill="#fff9f4">
                    <path d="M 44.99995040893555 88.49987030029297 C 39.12683868408203 88.49987030029297 33.43019866943359 87.34994506835938 28.06827545166016 85.08204650878906 C 22.88851356506348 82.89119720458984 18.23629951477051 79.75447082519531 14.2408504486084 75.759033203125 C 10.24541282653809 71.76358795166016 7.108687877655029 67.11137390136719 4.917838096618652 61.93161010742188 C 2.649937868118286 56.56968688964844 1.500012874603271 50.873046875 1.500012874603271 44.99993515014648 C 1.500012874603271 39.12682342529297 2.649937868118286 33.43018341064453 4.917838096618652 28.06826019287109 C 7.108687877655029 22.88849830627441 10.24541282653809 18.23628425598145 14.2408504486084 14.24083518981934 C 18.23629951477051 10.24539756774902 22.88851356506348 7.108672618865967 28.06827545166016 4.91782283782959 C 33.43019866943359 2.649922609329224 39.12683868408203 1.499997615814209 44.99995040893555 1.499997615814209 C 50.87306213378906 1.499997615814209 56.5697021484375 2.649922609329224 61.93162536621094 4.91782283782959 C 67.11138916015625 7.108672618865967 71.76360321044922 10.24539756774902 75.75904846191406 14.24083518981934 C 79.75448608398438 18.23628425598145 82.89121246337891 22.88849830627441 85.08206176757812 28.06826019287109 C 87.34996032714844 33.43018341064453 88.49988555908203 39.12682342529297 88.49988555908203 44.99993515014648 C 88.49988555908203 50.873046875 87.34996032714844 56.56968688964844 85.08206176757812 61.93161010742188 C 82.89121246337891 67.11137390136719 79.75448608398438 71.76358795166016 75.75904846191406 75.759033203125 C 71.76360321044922 79.75447082519531 67.11138916015625 82.89119720458984 61.93162536621094 85.08204650878906 C 56.5697021484375 87.34994506835938 50.87306213378906 88.49987030029297 44.99995040893555 88.49987030029297 Z" stroke="none"/>
                    <path d="M 44.99995040893555 2.999992370605469 C 39.32867813110352 2.999992370605469 33.82863616943359 4.11004638671875 28.65260696411133 6.299324035644531 C 23.65163421630859 8.41455078125 19.15967559814453 11.44332122802734 15.30150604248047 15.30149078369141 C 11.44333648681641 19.15966033935547 8.414566040039062 23.65161895751953 6.299339294433594 28.6525764465332 C 4.110061645507812 33.82860565185547 3.000007629394531 39.32866287231445 3.000007629394531 44.99993515014648 C 3.000007629394531 50.67120742797852 4.110061645507812 56.17124938964844 6.299339294433594 61.3472785949707 C 8.414566040039062 66.34825134277344 11.44333648681641 70.84019470214844 15.30150604248047 74.6983642578125 C 19.15967559814453 78.55653381347656 23.65163421630859 81.58530426025391 28.65260696411133 83.70053863525391 C 33.82863616943359 85.88980865478516 39.32867813110352 86.99986267089844 44.99995040893555 86.99986267089844 C 50.67122268676758 86.99986267089844 56.1712646484375 85.88980865478516 61.34729385375977 83.70053863525391 C 66.3482666015625 81.58530426025391 70.8402099609375 78.55653381347656 74.69837951660156 74.6983642578125 C 78.55654907226562 70.84019470214844 81.58531951904297 66.34825134277344 83.70055389404297 61.3472785949707 C 85.88982391357422 56.17124938964844 86.9998779296875 50.67120742797852 86.9998779296875 44.99993515014648 C 86.9998779296875 39.32864761352539 85.88982391357422 33.82860565185547 83.70055389404297 28.6525764465332 C 81.58531951904297 23.65161895751953 78.55654907226562 19.15966033935547 74.69837951660156 15.30149078369141 C 70.8402099609375 11.44332122802734 66.3482666015625 8.41455078125 61.34729385375977 6.299324035644531 C 56.1712646484375 4.11004638671875 50.67122268676758 2.999992370605469 44.99995040893555 2.999992370605469 M 44.99995040893555 -7.62939453125e-06 C 69.85272216796875 -7.62939453125e-06 89.9998779296875 20.14714813232422 89.9998779296875 44.99993515014648 C 89.9998779296875 69.85270690917969 69.85272216796875 89.99986267089844 44.99995040893555 89.99986267089844 C 20.14717864990234 89.99986267089844 7.62939453125e-06 69.85270690917969 7.62939453125e-06 44.99993515014648 C 7.62939453125e-06 20.14714813232422 20.14717864990234 -7.62939453125e-06 44.99995040893555 -7.62939453125e-06 Z" stroke="none" fill="#8b7157"/>
                  </g>
                </g>
              </g>
            </g>
          </g>
        </g>
      </g>
    </g>
    <g id="idea-genial" transform="translate(738.91 4561.579)">
      <g id="Grupo_1231064" data-name="Grupo 1231064" transform="translate(11.133 0.862)">
        <path id="Trazado_1182501" data-name="Trazado 1182501" d="M57.84,64.619l-2.362-.011-18,.011L39.85,49.671a8.555,8.555,0,0,1-6.395,2.872H24.948a2.005,2.005,0,0,1-1.993-1.784l-.587-5.3H18.934a1.16,1.16,0,0,1-1.117-1.472,52.419,52.419,0,0,0,2.022-9.771c.126-1.632.336-4.864.451-6.66.044-.685.069-1.369.1-2.055A18.789,18.789,0,0,1,35.68,7.82h0q.641-.121,1.3-.2c.131-.015.262-.029.394-.04.045-.006.091-.009.136-.013l.183-.015c.134-.01.27-.02.406-.026l.168-.009.22-.009.193-.006.182,0,.29,0a18.7,18.7,0,0,1,9.013,2.3c.206.113.409.23.609.349s.4.245.6.371.39.257.58.392q.588.414,1.137.869c.22.182.433.368.644.559l.209.192q.205.195.406.393c.134.132.264.267.393.4h0q.193.2.379.414c.124.14.247.282.367.424q.269.322.523.655.169.222.332.449t.317.456h0q.155.231.3.465a18.811,18.811,0,0,1,.948,1.693c.082.165.161.331.238.5a.019.019,0,0,1,0,.006,4.47,4.47,0,0,0,1.269,8.756c.138,0,.275-.006.409-.018-.014.262-.034.524-.06.786L56.44,39.128a37.464,37.464,0,0,0-.124,7.6Z" transform="translate(-17.774 -7.5)" fill="#ffcfc0"/>
        <path id="Trazado_1182502" data-name="Trazado 1182502" d="M192.125,19.583A18.634,18.634,0,0,0,174.744,7.791c-.379,0-.757.011-1.131.033q.641-.121,1.3-.2a18.973,18.973,0,0,1,7.409.616q.874.253,1.721.591.62.248,1.221.539a18.578,18.578,0,0,1,8.575,8.515c.082.165.161.331.238.5a.019.019,0,0,1,0,.006,4.452,4.452,0,0,0-1.95,1.187Z" transform="translate(-155.703 -7.505)" fill="#ffb29f"/>
        <path id="Trazado_1182503" data-name="Trazado 1182503" d="M335.624,212.656l-2.362-.011-1.5-17.6a37.631,37.631,0,0,1,.124-7.6l1.326-11.213q.072-.738.084-1.478a4.443,4.443,0,0,0,1.9.424c.138,0,.275-.006.409-.018-.014.262-.034.524-.06.786l-1.325,11.213a37.462,37.462,0,0,0-.124,7.6Z" transform="translate(-295.557 -155.537)" fill="#ffb29f"/>
        <path id="Trazado_1182504" data-name="Trazado 1182504" d="M288.117,52.334l-2.344-1.353a.822.822,0,0,1-.4-.84,8.131,8.131,0,0,0,0-2.5.82.82,0,0,1,.4-.839l2.344-1.354a.822.822,0,0,0,.3-1.124l-1.524-2.64a.823.823,0,0,0-1.124-.3l-2.345,1.354a.821.821,0,0,1-.929-.074,8,8,0,0,0-2.162-1.251.821.821,0,0,1-.526-.767V37.941a.824.824,0,0,0-.823-.823h-3.048a.823.823,0,0,0-.823.823v2.706a.821.821,0,0,1-.526.767,8.01,8.01,0,0,0-2.163,1.251.821.821,0,0,1-.929.074l-2.345-1.354a.823.823,0,0,0-1.124.3l-1.524,2.64a.823.823,0,0,0,.3,1.124l2.345,1.354a.821.821,0,0,1,.4.839,8.134,8.134,0,0,0,0,2.5.823.823,0,0,1-.4.84L266.8,52.333a.823.823,0,0,0-.3,1.124l1.524,2.64a.823.823,0,0,0,1.124.3l2.345-1.354a.823.823,0,0,1,.929.074,8.009,8.009,0,0,0,2.163,1.251.821.821,0,0,1,.526.767v2.706a.823.823,0,0,0,.823.823h3.048a.824.824,0,0,0,.823-.823V57.136a.821.821,0,0,1,.526-.767,8,8,0,0,0,2.162-1.251.823.823,0,0,1,.929-.074L285.77,56.4a.823.823,0,0,0,1.124-.3l1.524-2.64A.822.822,0,0,0,288.117,52.334Zm-10.656,1.028a4.47,4.47,0,1,1,4.469-4.47A4.47,4.47,0,0,1,277.461,53.361Z" transform="translate(-237.819 -33.714)" fill="#ffab56"/>
        <g id="Grupo_1231063" data-name="Grupo 1231063" transform="translate(37.295 7.558)">
          <path id="Trazado_1182505" data-name="Trazado 1182505" d="M355.285,84.328l-2.343-1.353a.822.822,0,0,1-.4-.84,8.132,8.132,0,0,0,0-2.5.82.82,0,0,1,.4-.839l2.343-1.354a.822.822,0,0,0,.3-1.124l-1.524-2.641a.823.823,0,0,0-1.124-.3l-2.345,1.354a.822.822,0,0,1-.442.109,16.852,16.852,0,0,1,.733,5.027c0,5.183-3.668,7.68-8.6,9.352v2.617a.823.823,0,0,0,.823.823h3.048a.824.824,0,0,0,.823-.823V89.131a.821.821,0,0,1,.526-.767,8.036,8.036,0,0,0,2.162-1.252.825.825,0,0,1,.93-.074l2.345,1.355a.822.822,0,0,0,1.124-.3l1.524-2.64A.822.822,0,0,0,355.285,84.328Z" transform="translate(-342.282 -73.267)" fill="#ff982a"/>
        </g>
        <path id="Trazado_1182506" data-name="Trazado 1182506" d="M105.005,64.317h-1.444a.747.747,0,0,1-.712-.517,6.9,6.9,0,0,0-.43-1.037.747.747,0,0,1,.137-.87l1.021-1.022a.749.749,0,0,0,0-1.059l-1.247-1.247a.747.747,0,0,0-1.059,0l-1.022,1.021a.747.747,0,0,1-.87.137,6.831,6.831,0,0,0-1.037-.43.747.747,0,0,1-.517-.711V57.138a.749.749,0,0,0-.749-.748H95.313a.748.748,0,0,0-.748.748v1.444a.748.748,0,0,1-.517.711,6.848,6.848,0,0,0-1.038.43.748.748,0,0,1-.87-.137l-1.021-1.021a.747.747,0,0,0-1.059,0l-1.247,1.247a.747.747,0,0,0,0,1.059l1.021,1.022a.747.747,0,0,1,.136.87,7.027,7.027,0,0,0-.43,1.037.745.745,0,0,1-.712.517H87.385a.749.749,0,0,0-.749.749V66.83a.75.75,0,0,0,.749.749h1.442a.746.746,0,0,1,.712.517,7.093,7.093,0,0,0,.43,1.038.747.747,0,0,1-.136.87l-1.021,1.021a.747.747,0,0,0,0,1.059l1.247,1.247a.747.747,0,0,0,1.059,0l1.021-1.021a.749.749,0,0,1,.87-.137,6.974,6.974,0,0,0,1.038.431.746.746,0,0,1,.517.71v1.444a.749.749,0,0,0,.748.749h1.764a.75.75,0,0,0,.749-.749V73.314a.744.744,0,0,1,.517-.71,6.956,6.956,0,0,0,1.037-.431.749.749,0,0,1,.87.137l1.022,1.021a.747.747,0,0,0,1.059,0l1.247-1.247a.749.749,0,0,0,0-1.059L102.557,70a.748.748,0,0,1-.137-.87,6.97,6.97,0,0,0,.43-1.038.748.748,0,0,1,.712-.517h1.444a.748.748,0,0,0,.748-.749V65.067A.748.748,0,0,0,105.005,64.317ZM96.2,69.744a3.8,3.8,0,1,1,3.8-3.8A3.795,3.795,0,0,1,96.2,69.744Z" transform="translate(-78.722 -50.771)" fill="#00b8ff"/>
        <path id="Trazado_1182507" data-name="Trazado 1182507" d="M166.811,80.125v1.763a.748.748,0,0,1-.748.749H164.62a.748.748,0,0,0-.711.517,6.97,6.97,0,0,1-.43,1.038.747.747,0,0,0,.137.87l1.021,1.021a.749.749,0,0,1,0,1.058l-1.247,1.248a.747.747,0,0,1-1.058,0l-1.022-1.022a.751.751,0,0,0-.871-.137,6.958,6.958,0,0,1-1.037.431.744.744,0,0,0-.517.71v1.445a.749.749,0,0,1-.749.749H156.37a.749.749,0,0,1-.748-.749v-1.4c3.893-.967,7.155-3.615,7.1-8.638a9.49,9.49,0,0,0-1.781-4.934.752.752,0,0,0,.368-.2l1.022-1.021a.747.747,0,0,1,1.058,0l1.247,1.247a.749.749,0,0,1,0,1.058l-1.021,1.023a.747.747,0,0,0-.137.87,6.9,6.9,0,0,1,.43,1.037.747.747,0,0,0,.711.517h1.443a.748.748,0,0,1,.748.749Z" transform="translate(-139.779 -65.829)" fill="#00a8ff"/>
      </g>
      <g id="Grupo_1231065" data-name="Grupo 1231065" transform="translate(10.27 0)">
        <path id="Trazado_1182508" data-name="Trazado 1182508" d="M35.513,40.427A.862.862,0,0,0,34.3,40.5L32.58,42.444a7.7,7.7,0,0,1-5.766,2.6H18.307a1.142,1.142,0,0,1-1.136-1.017l-.588-5.3a.862.862,0,0,0-.857-.767H12.293a.3.3,0,0,1-.286-.378,53.5,53.5,0,0,0,2.05-9.937c.126-1.627.337-4.879.452-6.673a26.249,26.249,0,0,1,1.139-7.417,17.939,17.939,0,0,1,24.128-10.3.862.862,0,1,0,.7-1.576A19.66,19.66,0,0,0,18.89,5.489,19.692,19.692,0,0,0,14.2,12.5a26.936,26.936,0,0,0-1.416,8.37c-.114,1.789-.325,5.031-.45,6.648a52.039,52.039,0,0,1-1.992,9.605,2.021,2.021,0,0,0,1.946,2.567h2.663l.5,4.529a2.864,2.864,0,0,0,2.849,2.55h8.507a9.423,9.423,0,0,0,5.172-1.547L29.953,57.844a.862.862,0,0,0,.715.987.873.873,0,0,0,.987-.715l2.362-14.679c0-.007,0-.014,0-.021l1.567-1.774a.862.862,0,0,0-.075-1.217Z" transform="translate(-10.27 0)"/>
        <path id="Trazado_1182509" data-name="Trazado 1182509" d="M321.64,93.169a5.331,5.331,0,1,0,5.331,5.331A5.338,5.338,0,0,0,321.64,93.169Zm0,8.939a3.608,3.608,0,1,1,3.608-3.608A3.612,3.612,0,0,1,321.64,102.108Z" transform="translate(-281.136 -82.461)"/>
        <path id="Trazado_1182510" data-name="Trazado 1182510" d="M274.036,50.528a8.856,8.856,0,0,0,2.348-1.358l2.321,1.34a1.687,1.687,0,0,0,2.3-.617l1.524-2.64a1.685,1.685,0,0,0-.617-2.3l-2.32-1.34a8.971,8.971,0,0,0,0-2.713l2.32-1.339a1.685,1.685,0,0,0,.617-2.3l-1.524-2.64a1.687,1.687,0,0,0-2.3-.617l-2.321,1.34a8.845,8.845,0,0,0-2.348-1.358V31.306a1.687,1.687,0,0,0-1.685-1.685H269.3a1.687,1.687,0,0,0-1.685,1.685v1.96a19.311,19.311,0,0,0-3.515-3.3.862.862,0,1,0-1.014,1.394,17.6,17.6,0,0,1,3.349,3.189,8.873,8.873,0,0,0-1.168.8L262.949,34a1.687,1.687,0,0,0-2.3.617l-1.524,2.64a1.687,1.687,0,0,0,.617,2.3l2.32,1.34a8.973,8.973,0,0,0,0,2.713l-2.32,1.34a1.687,1.687,0,0,0-.617,2.3l1.524,2.64a1.685,1.685,0,0,0,2.3.617l2.321-1.34a8.846,8.846,0,0,0,2.348,1.358v2.678a1.687,1.687,0,0,0,1.685,1.685h.132L269,58.605a38.475,38.475,0,0,0-.127,7.771l1.525,17.894a.862.862,0,0,0,.858.789q.037,0,.074,0a.862.862,0,0,0,.786-.932L270.586,66.23a36.75,36.75,0,0,1,.121-7.422l.463-3.917h1.181a1.687,1.687,0,0,0,1.685-1.685V50.528Zm-.645-1.6a1.694,1.694,0,0,0-1.079,1.571v2.667h-2.97V50.5a1.693,1.693,0,0,0-1.079-1.571,7.128,7.128,0,0,1-1.929-1.116,1.694,1.694,0,0,0-1.9-.15L262.121,49l-1.485-2.572,2.31-1.334a1.7,1.7,0,0,0,.821-1.72,7.238,7.238,0,0,1,0-2.232,1.7,1.7,0,0,0-.821-1.72l-2.31-1.334,1.485-2.572,2.311,1.334a1.694,1.694,0,0,0,1.9-.15,7.124,7.124,0,0,1,1.929-1.115,1.694,1.694,0,0,0,1.079-1.571V31.345h2.97v2.667a1.693,1.693,0,0,0,1.079,1.571,7.129,7.129,0,0,1,1.929,1.115,1.694,1.694,0,0,0,1.9.15l2.311-1.334,1.485,2.572-2.31,1.334a1.694,1.694,0,0,0-.821,1.72,7.24,7.24,0,0,1,0,2.231,1.694,1.694,0,0,0,.821,1.72l2.31,1.334L279.534,49l-2.311-1.334a1.694,1.694,0,0,0-1.9.15A7.128,7.128,0,0,1,273.391,48.929Z" transform="translate(-230.324 -26.217)"/>
        <path id="Trazado_1182511" data-name="Trazado 1182511" d="M133.945,99.033a4.661,4.661,0,0,0-4.478,5.943.862.862,0,0,0,1.657-.475,2.929,2.929,0,1,1,2.222,2.062.862.862,0,1,0-.35,1.688,4.658,4.658,0,1,0,.948-9.218Z" transform="translate(-115.609 -87.651)"/>
        <path id="Trazado_1182512" data-name="Trazado 1182512" d="M99.98,58.425a1.613,1.613,0,0,0-1.611-1.611h-1.36a7.836,7.836,0,0,0-.42-1.012l.962-.962a1.613,1.613,0,0,0,0-2.279L96.3,51.315a1.611,1.611,0,0,0-2.279,0l-.962.962a7.845,7.845,0,0,0-1.012-.42V50.5a1.613,1.613,0,0,0-1.611-1.611H88.677A1.613,1.613,0,0,0,87.066,50.5v1.36a7.829,7.829,0,0,0-1.012.42l-.962-.962a1.611,1.611,0,0,0-2.279,0l-1.246,1.246a1.613,1.613,0,0,0,0,2.279l.962.962a7.813,7.813,0,0,0-.42,1.012h-1.36a1.613,1.613,0,0,0-1.611,1.611v1.763A1.613,1.613,0,0,0,80.749,61.8h1.36a7.827,7.827,0,0,0,.42,1.012l-.962.962a1.613,1.613,0,0,0,0,2.279L82.813,67.3a1.613,1.613,0,0,0,2.279,0l.962-.962a7.82,7.82,0,0,0,1.012.42v1.36a1.613,1.613,0,0,0,1.611,1.611H90.44a1.613,1.613,0,0,0,1.611-1.611v-1.36a7.815,7.815,0,0,0,1.012-.42l.962.962a1.613,1.613,0,0,0,2.279,0l1.247-1.246a1.613,1.613,0,0,0,0-2.279l-.962-.962a7.791,7.791,0,0,0,.42-1.012h1.36a1.613,1.613,0,0,0,1.611-1.611V58.425Zm-1.724,1.65h-1.33a1.6,1.6,0,0,0-1.532,1.115,6.1,6.1,0,0,1-.377.908,1.606,1.606,0,0,0,.294,1.873l.941.941L95.165,66l-.941-.941a1.606,1.606,0,0,0-1.874-.294,6.085,6.085,0,0,1-.908.376,1.6,1.6,0,0,0-1.115,1.532V68H88.79v-1.33a1.605,1.605,0,0,0-1.115-1.532,6.088,6.088,0,0,1-.908-.376,1.606,1.606,0,0,0-1.873.294L83.953,66l-1.087-1.087.941-.941A1.606,1.606,0,0,0,84.1,62.1a6.084,6.084,0,0,1-.376-.908,1.6,1.6,0,0,0-1.532-1.115h-1.33V58.538h1.33a1.6,1.6,0,0,0,1.532-1.115,6.1,6.1,0,0,1,.377-.908,1.606,1.606,0,0,0-.294-1.873l-.941-.941,1.087-1.087.941.941a1.606,1.606,0,0,0,1.874.294,6.1,6.1,0,0,1,.908-.376A1.6,1.6,0,0,0,88.79,51.94V50.61h1.537v1.33a1.605,1.605,0,0,0,1.115,1.532,6.108,6.108,0,0,1,.908.377,1.605,1.605,0,0,0,1.873-.294l.941-.941L96.252,53.7l-.941.941a1.606,1.606,0,0,0-.294,1.874,6.085,6.085,0,0,1,.376.908,1.605,1.605,0,0,0,1.532,1.115h1.33Z" transform="translate(-71.223 -43.268)"/>
        <path id="Trazado_1182513" data-name="Trazado 1182513" d="M360.7,2.135a14.412,14.412,0,0,1,1.618.148.862.862,0,0,0,.254-1.705,16.157,16.157,0,0,0-1.812-.166.862.862,0,1,0-.06,1.723Z" transform="translate(-319.691 -0.364)"/>
        <path id="Trazado_1182514" data-name="Trazado 1182514" d="M404.249,11.209a14.285,14.285,0,0,1,1.474.684.862.862,0,0,0,.814-1.52,16,16,0,0,0-1.652-.767.862.862,0,1,0-.635,1.6Z" transform="translate(-358.488 -8.449)"/>
        <path id="Trazado_1182515" data-name="Trazado 1182515" d="M442.211,34.407a14.437,14.437,0,0,1,1.16,1.138.862.862,0,0,0,1.275-1.161,16.148,16.148,0,0,0-1.3-1.274.862.862,0,0,0-1.135,1.3Z" transform="translate(-392.309 -29.115)"/>
        <path id="Trazado_1182516" data-name="Trazado 1182516" d="M485.075,110.851a14.342,14.342,0,0,1,.18,1.615.862.862,0,0,0,.86.815h.048a.862.862,0,0,0,.813-.908,16.1,16.1,0,0,0-.2-1.809.862.862,0,0,0-1.7.288Z" transform="translate(-430.497 -97.221)"/>
        <path id="Trazado_1182517" data-name="Trazado 1182517" d="M470.958,70.391a.862.862,0,0,0,1.589-.668,16.027,16.027,0,0,0-.8-1.635.862.862,0,1,0-1.5.844A14.29,14.29,0,0,1,470.958,70.391Z" transform="translate(-417.284 -59.874)"/>
        <path id="Trazado_1182518" data-name="Trazado 1182518" d="M431.435,231.691a14.424,14.424,0,0,1-1.284,1,.862.862,0,1,0,.977,1.42,16.146,16.146,0,0,0,1.438-1.115.862.862,0,0,0-1.132-1.3Z" transform="translate(-381.565 -204.876)"/>
        <path id="Trazado_1182519" data-name="Trazado 1182519" d="M483.01,154.629a.862.862,0,0,0-1,.7,14.239,14.239,0,0,1-.368,1.583.862.862,0,1,0,1.654.486,15.958,15.958,0,0,0,.412-1.776A.862.862,0,0,0,483.01,154.629Z" transform="translate(-427.441 -136.847)"/>
        <path id="Trazado_1182520" data-name="Trazado 1182520" d="M316.355,4.877a.863.863,0,0,0,.26-.04,14.227,14.227,0,0,1,1.574-.4.862.862,0,0,0-.327-1.692,15.928,15.928,0,0,0-1.766.448.862.862,0,0,0,.259,1.684Z" transform="translate(-280.415 -2.415)"/>
        <path id="Trazado_1182521" data-name="Trazado 1182521" d="M464.059,196.909a.862.862,0,0,0-1.174.326,14.4,14.4,0,0,1-.879,1.367.862.862,0,1,0,1.395,1.013,16.063,16.063,0,0,0,.985-1.532A.862.862,0,0,0,464.059,196.909Z" transform="translate(-409.943 -174.18)"/>
        <path id="Trazado_1182522" data-name="Trazado 1182522" d="M391.3,254.765a14.209,14.209,0,0,1-1.543.506.862.862,0,1,0,.443,1.666,15.964,15.964,0,0,0,1.73-.568.862.862,0,1,0-.631-1.6Z" transform="translate(-345.579 -225.433)"/>
      </g>
    </g>
  </g>
</svg>
