<svg xmlns="http://www.w3.org/2000/svg" xmlns:xlink="http://www.w3.org/1999/xlink" width="108" height="108" viewBox="0 0 108 108">
  <defs>
    <filter id="Fondo" x="0" y="0" width="108" height="108" filterUnits="userSpaceOnUse">
      <feOffset dy="3" input="SourceAlpha"/>
      <feGaussianBlur stdDeviation="3" result="blur"/>
      <feFlood flood-opacity="0.161"/>
      <feComposite operator="in" in2="blur"/>
      <feComposite in="SourceGraphic"/>
    </filter>
  </defs>
  <g id="Grupo_1231071" data-name="Grupo 1231071" transform="translate(-198.079 -468)">
    <g id="Grupo_1230167" data-name="Grupo 1230167" transform="translate(-0.396 -9722)">
      <g id="Grupo_1220769" data-name="Grupo 1220769" transform="translate(207.475 10196)">
        <g id="Grupo_1220768" data-name="Grupo 1220768" transform="translate(0 0)">
          <g id="Grupo_1220472" data-name="Grupo 1220472">
            <g id="Grupo_1210004" data-name="Grupo 1210004">
              <g id="Grupo_1143757" data-name="Grupo 1143757" transform="translate(0)">
                <g transform="matrix(1, 0, 0, 1, -9, -6)" filter="url(#Fondo)">
                  <g id="Fondo-2" data-name="Fondo" transform="translate(9 6)" fill="#fff6f9">
                    <path d="M 44.99994659423828 88.4998779296875 C 39.12683486938477 88.4998779296875 33.43019485473633 87.34995269775391 28.06827163696289 85.08205413818359 C 22.88850975036621 82.89120483398438 18.23629570007324 79.75447845458984 14.24084663391113 75.75904083251953 C 10.24540901184082 71.76358795166016 7.108684062957764 67.11137390136719 4.917834281921387 61.93161392211914 C 2.649934053421021 56.5696907043457 1.500009059906006 50.87305068969727 1.500009059906006 44.99993896484375 C 1.500009059906006 39.12682723999023 2.649934053421021 33.4301872253418 4.917834281921387 28.06826400756836 C 7.108684062957764 22.88850212097168 10.24540901184082 18.23628807067871 14.24084663391113 14.2408390045166 C 18.23629570007324 10.24540138244629 22.88850975036621 7.108676433563232 28.06827163696289 4.917826652526855 C 33.43019485473633 2.649926424026489 39.12683486938477 1.500001430511475 44.99994659423828 1.500001430511475 C 50.8730583190918 1.500001430511475 56.56969833374023 2.649926424026489 61.93162155151367 4.917826652526855 C 67.11138153076172 7.108676433563232 71.76359558105469 10.24540138244629 75.75904846191406 14.2408390045166 C 79.75448608398438 18.23628807067871 82.89121246337891 22.88850212097168 85.08206176757812 28.06826400756836 C 87.34996032714844 33.4301872253418 88.49988555908203 39.12682723999023 88.49988555908203 44.99993896484375 C 88.49988555908203 50.87305068969727 87.34996032714844 56.5696907043457 85.08206176757812 61.93161392211914 C 82.89121246337891 67.11137390136719 79.75448608398438 71.76358795166016 75.75904846191406 75.75904083251953 C 71.76359558105469 79.75447845458984 67.11138153076172 82.89120483398438 61.93162155151367 85.08205413818359 C 56.56969833374023 87.34995269775391 50.8730583190918 88.4998779296875 44.99994659423828 88.4998779296875 Z" stroke="none"/>
                    <path d="M 44.99994659423828 2.999992370605469 C 39.32867431640625 2.999992370605469 33.82863235473633 4.110054016113281 28.65260314941406 6.299324035644531 C 23.65163421630859 8.41455078125 19.15967559814453 11.44332122802734 15.30150604248047 15.30149841308594 C 11.44332885742188 19.15966796875 8.414558410644531 23.65162658691406 6.299331665039062 28.65258026123047 C 4.110061645507812 33.82860946655273 3 39.32866668701172 3 44.99993896484375 C 3 50.67121124267578 4.110061645507812 56.1712532043457 6.299331665039062 61.34728240966797 C 8.414558410644531 66.34825134277344 11.44332885742188 70.8402099609375 15.30150604248047 74.69837951660156 C 19.15967559814453 78.55654907226562 23.65163421630859 81.5853271484375 28.65260314941406 83.70055389404297 C 33.82863235473633 85.88982391357422 39.32867431640625 86.9998779296875 44.99994659423828 86.9998779296875 C 50.67121887207031 86.9998779296875 56.17126083374023 85.88982391357422 61.3472900390625 83.70055389404297 C 66.34825897216797 81.5853271484375 70.84021759033203 78.55654907226562 74.69838714599609 74.69837951660156 C 78.55656433105469 70.8402099609375 81.58533477783203 66.34825134277344 83.7005615234375 61.34728240966797 C 85.88983154296875 56.1712532043457 86.99989318847656 50.67121124267578 86.99989318847656 44.99993896484375 C 86.99989318847656 39.32866668701172 85.88983154296875 33.82860946655273 83.7005615234375 28.65258026123047 C 81.58533477783203 23.65162658691406 78.55656433105469 19.15966796875 74.69838714599609 15.30149841308594 C 70.84021759033203 11.44332122802734 66.34825897216797 8.41455078125 61.3472900390625 6.299324035644531 C 56.17126083374023 4.110054016113281 50.67121887207031 2.999992370605469 44.99994659423828 2.999992370605469 M 44.99994659423828 -7.62939453125e-06 C 69.85272216796875 -7.62939453125e-06 89.99989318847656 20.14715576171875 89.99989318847656 44.99993896484375 C 89.99989318847656 69.85270690917969 69.85272216796875 89.99988555908203 44.99994659423828 89.99988555908203 C 20.14717864990234 89.99988555908203 0 69.85270690917969 0 44.99993896484375 C 0 20.14715576171875 20.14717864990234 -7.62939453125e-06 44.99994659423828 -7.62939453125e-06 Z" stroke="none" fill="#8b5e6f"/>
                  </g>
                </g>
              </g>
            </g>
          </g>
        </g>
      </g>
    </g>
    <g id="cognitivo_3_" data-name="cognitivo (3)" transform="translate(188.036 474.501)">
      <g id="Grupo_1231070" data-name="Grupo 1231070" transform="translate(39.382 20.95)">
        <g id="Grupo_1231067" data-name="Grupo 1231067" transform="translate(25.773 0)">
          <path id="Trazado_1182523" data-name="Trazado 1182523" d="M263.558,96h3.187l1.5,3.9a20.1,20.1,0,0,1,5.885,2.44l3.824-1.7,4.507,4.507-1.7,3.823a20.093,20.093,0,0,1,2.44,5.886l3.9,1.5v6.374l-3.9,1.5a20.1,20.1,0,0,1-2.44,5.885l1.7,3.824-4.507,4.507-3.823-1.7a20.093,20.093,0,0,1-5.886,2.44l-1.5,3.9h-3.187V130.664a11.116,11.116,0,1,0,0-22.232Z" transform="translate(-263.558 -96)" fill="#ffe177" fill-rule="evenodd"/>
          <path id="Trazado_1182524" data-name="Trazado 1182524" d="M280.764,130.122l1.7,3.824-.61.61-1.588-3.576Q280.525,130.557,280.764,130.122Zm0-21.149a20.094,20.094,0,0,1,2.44,5.886l3.9,1.5v1.983l-3.9-1.5a26.75,26.75,0,0,0-2.94-6.744ZM263.557,96h3.187l1.5,3.9a20.1,20.1,0,0,1,5.885,2.44l3.824-1.7,4.507,4.507-.61,1.373-3.9-3.9-3.824,1.7a20.1,20.1,0,0,0-5.885-2.44l-1.5-3.9h-3.187V96Z" transform="translate(-263.557 -96)" fill="#ffd064" fill-rule="evenodd"/>
        </g>
        <g id="Grupo_1231068" data-name="Grupo 1231068" transform="translate(0)">
          <path id="Trazado_1182525" data-name="Trazado 1182525" d="M103.893,99.68a5.3,5.3,0,0,0-4.837,4.073,5.3,5.3,0,0,0-6.534,4.995,5.305,5.305,0,0,0-4.081,5.145,5.646,5.646,0,0,0,5.637,5.655H108.93a5.285,5.285,0,0,0,5.285-5.285V101.284a5.285,5.285,0,0,0-10.321-1.6Z" transform="translate(-88.441 -95.999)" fill="#fe646f" fill-rule="evenodd"/>
          <path id="Trazado_1182526" data-name="Trazado 1182526" d="M147.622,103.6a5.2,5.2,0,0,0-.552.049c.171.024.343.057.515.1C147.6,103.7,147.609,103.653,147.622,103.6Zm9.836,15.943h1.472a5.285,5.285,0,0,0,5.285-5.285V101.284a5.287,5.287,0,0,0-6.024-5.233,5.3,5.3,0,0,1,4.552,5.233v12.979a5.284,5.284,0,0,1-5.284,5.285Z" transform="translate(-138.441 -95.999)" fill="#fd4755" fill-rule="evenodd"/>
        </g>
        <g id="Grupo_1231069" data-name="Grupo 1231069" transform="translate(0 23.548)">
          <path id="Trazado_1182527" data-name="Trazado 1182527" d="M103.893,275.866a5.3,5.3,0,0,1-4.837-4.073,5.3,5.3,0,0,1-6.534-4.995,5.305,5.305,0,0,1-4.081-5.145A5.646,5.646,0,0,1,94.078,256H108.93a5.285,5.285,0,0,1,5.285,5.285v12.979a5.285,5.285,0,0,1-10.321,1.6Z" transform="translate(-88.441 -255.998)" fill="#fe646f" fill-rule="evenodd"/>
          <path id="Trazado_1182528" data-name="Trazado 1182528" d="M147.622,271.943a5.205,5.205,0,0,1-.552-.049c.171-.024.343-.057.515-.1C147.6,271.845,147.609,271.894,147.622,271.943ZM157.458,256h1.472a5.285,5.285,0,0,1,5.285,5.285v12.979a5.287,5.287,0,0,1-6.024,5.233,5.3,5.3,0,0,0,4.552-5.233V261.285A5.284,5.284,0,0,0,157.458,256Z" transform="translate(-138.441 -256)" fill="#fd4755" fill-rule="evenodd"/>
        </g>
      </g>
      <path id="Trazado_1182529" data-name="Trazado 1182529" d="M59.823,52.535a1.177,1.177,0,0,0-1.665-.045,4.079,4.079,0,0,1-3.891.987,4.129,4.129,0,0,1-2.979-3.236,1.178,1.178,0,0,0-2.318.421,6.482,6.482,0,0,0,6.379,5.315A6.422,6.422,0,0,0,59.777,54.2,1.177,1.177,0,0,0,59.823,52.535ZM59.87,66.87a4.107,4.107,0,0,1-3.085-6.819A1.177,1.177,0,1,0,55.018,58.5a6.492,6.492,0,0,0-1.6,4.314,4.138,4.138,0,0,1-2.271-2.785,1.178,1.178,0,0,0-1.426-.874,3.947,3.947,0,0,1-3.6-6.859,1.178,1.178,0,0,0-1.512-1.806,6.484,6.484,0,0,0-2.068,3.171,4.148,4.148,0,0,1-1.979-3.5,4.474,4.474,0,0,1,4.46-4.477h9.863a6.5,6.5,0,0,0-.718,1.076,1.177,1.177,0,1,0,2.078,1.106,4.108,4.108,0,0,1,7.737,1.925V62.768a4.113,4.113,0,0,1-4.107,4.1ZM45.019,43.322h9.863a6.5,6.5,0,0,1-.718-1.076,1.177,1.177,0,1,1,2.078-1.106,4.108,4.108,0,0,0,7.737-1.927V26.228a4.108,4.108,0,1,0-7.193,2.718A1.177,1.177,0,1,1,55.018,30.5a6.488,6.488,0,0,1-1.6-4.314,4.141,4.141,0,0,0-2.271,2.786,1.178,1.178,0,0,1-1.426.874,4.026,4.026,0,0,0-.969-.118,3.918,3.918,0,0,0-2.631,6.978A1.178,1.178,0,0,1,44.6,38.514a6.491,6.491,0,0,1-2.068-3.171,4.144,4.144,0,0,0-1.979,3.5A4.474,4.474,0,0,0,45.019,43.322ZM66.332,22.128V32.263a12.292,12.292,0,0,1,0,24.471V66.87h1.2l1.212-3.147A1.173,1.173,0,0,1,69.571,63a18.906,18.906,0,0,0,5.541-2.3,1.174,1.174,0,0,1,1.1-.073L79.291,62l3.363-3.364-1.37-3.085a1.18,1.18,0,0,1,.073-1.1,18.909,18.909,0,0,0,2.3-5.541,1.181,1.181,0,0,1,.723-.826l3.148-1.211V42.121L84.378,40.91a1.176,1.176,0,0,1-.721-.827,18.891,18.891,0,0,0-2.3-5.541,1.176,1.176,0,0,1-.073-1.1l1.369-3.085L79.291,27l-3.085,1.37a1.176,1.176,0,0,1-1.095-.073A18.939,18.939,0,0,0,69.571,26a1.177,1.177,0,0,1-.826-.721l-1.212-3.149ZM63.582,44.5a6.456,6.456,0,0,1,2.75,5.284v4.581a9.936,9.936,0,0,0,0-19.732v4.582a6.457,6.457,0,0,1-2.75,5.285ZM59.87,69.225a6.436,6.436,0,0,1-5.88-3.777,6.522,6.522,0,0,1-4.8-3.841,6.485,6.485,0,0,1-6.828-5.417A6.531,6.531,0,0,1,38.2,50.154,6.835,6.835,0,0,1,41.2,44.5,6.836,6.836,0,0,1,38.2,38.843a6.532,6.532,0,0,1,4.161-6.036,6.488,6.488,0,0,1,6.828-5.417,6.527,6.527,0,0,1,4.8-3.842,6.462,6.462,0,0,1,9.987-2.3v-.3a1.178,1.178,0,0,1,1.178-1.178h3.186a1.176,1.176,0,0,1,1.1.754l1.283,3.334a21.2,21.2,0,0,1,5.085,2.109l3.266-1.451a1.178,1.178,0,0,1,1.311.243l4.506,4.507a1.179,1.179,0,0,1,.244,1.311l-1.451,3.266a21.2,21.2,0,0,1,2.107,5.085l3.334,1.284a1.176,1.176,0,0,1,.754,1.1v6.374a1.179,1.179,0,0,1-.754,1.1l-3.334,1.284a21.274,21.274,0,0,1-2.107,5.083l1.451,3.267a1.178,1.178,0,0,1-.244,1.31l-4.506,4.507a1.18,1.18,0,0,1-1.311.244l-3.266-1.451a21.237,21.237,0,0,1-5.085,2.109L69.441,68.47a1.18,1.18,0,0,1-1.1.755H65.155a1.178,1.178,0,0,1-1.178-1.178v-.3A6.431,6.431,0,0,1,59.87,69.225ZM48.73,71.2a1.178,1.178,0,0,1-.589,2.2,1.159,1.159,0,0,1-.586-.158A33.119,33.119,0,0,1,30.915,44.5,33.129,33.129,0,0,1,64.043,11.371c1.081,0,2.166.056,3.243.161l-1.559-1.51a1.177,1.177,0,1,1,1.637-1.691l4.234,4.1a1.178,1.178,0,0,1-.194,1.844L66.41,17.4a1.165,1.165,0,0,1-.624.18,1.178,1.178,0,0,1-.627-2.176l2.369-1.482A30.777,30.777,0,0,0,48.73,71.2ZM92.577,27.66A33.131,33.131,0,0,1,64.043,77.626c-1.082,0-2.167-.055-3.244-.161l1.559,1.51a1.177,1.177,0,1,1-1.638,1.691l-4.234-4.1a1.176,1.176,0,0,1,.195-1.843L61.674,71.6a1.177,1.177,0,0,1,1.25,2l-2.365,1.483A30.777,30.777,0,0,0,79.355,17.8a1.177,1.177,0,0,1,1.173-2.041,33.322,33.322,0,0,1,12.049,11.9Zm-38.31,7.86a4.128,4.128,0,0,0-2.979,3.236,1.178,1.178,0,0,1-1.158.966,1.081,1.081,0,0,1-.21-.019,1.177,1.177,0,0,1-.95-1.368,6.5,6.5,0,0,1,4.688-5.09,6.423,6.423,0,0,1,6.12,1.553,1.177,1.177,0,1,1-1.619,1.708A4.085,4.085,0,0,0,54.267,35.52Z" fill-rule="evenodd"/>
    </g>
  </g>
</svg>
