<svg xmlns="http://www.w3.org/2000/svg" xmlns:xlink="http://www.w3.org/1999/xlink" width="113" height="113" viewBox="0 0 113 113">
  <defs>
    <filter id="Trazado_982547" x="0" y="0" width="113" height="113" filterUnits="userSpaceOnUse">
      <feOffset dy="3" input="SourceAlpha"/>
      <feGaussianBlur stdDeviation="3" result="blur"/>
      <feFlood flood-opacity="0.161"/>
      <feComposite operator="in" in2="blur"/>
      <feComposite in="SourceGraphic"/>
    </filter>
  </defs>
  <g id="Grupo_1230376" data-name="Grupo 1230376" transform="translate(-743.25 -714.227)">
    <g id="Grupo_1230118" data-name="Grupo 1230118" transform="translate(0 -13968.816)">
      <g id="Grupo_1230104" data-name="Grupo 1230104">
        <g id="Grupo_1224257" data-name="Grupo 1224257" transform="translate(0.25 13230)">
          <g id="Grupo_1223773" data-name="Grupo 1223773" transform="translate(0 -4451.031)">
            <g id="Grupo_1206282" data-name="Grupo 1206282" transform="translate(0 -3448.335)">
              <g id="Grupo_1203803" data-name="Grupo 1203803" transform="translate(0 6552.41)">
                <g id="Grupo_1202425" data-name="Grupo 1202425" transform="translate(-0.25 1464)">
                  <g id="Grupo_1178324" data-name="Grupo 1178324" transform="translate(0 424)">
                    <g id="Grupo_1177680" data-name="Grupo 1177680" transform="translate(752.25 918)">
                      <g id="Grupo_1172010" data-name="Grupo 1172010">
                        <g id="Grupo_1171046" data-name="Grupo 1171046">
                          <g id="Grupo_1148525" data-name="Grupo 1148525">
                            <g transform="matrix(1, 0, 0, 1, -9, -6)" filter="url(#Trazado_982547)">
                              <g id="Trazado_982547-2" data-name="Trazado 982547" transform="translate(9 6)" fill="#ffe6ef">
                                <path d="M 47.5 93.5 C 41.28937149047852 93.5 35.26533508300781 92.28397369384766 29.59518623352051 89.88570404052734 C 24.11771965026855 87.56893157958984 19.19813346862793 84.25196075439453 14.97309303283691 80.02691650390625 C 10.74804019927979 75.80186462402344 7.431066513061523 70.88229370117188 5.114293098449707 65.40481567382812 C 2.716026782989502 59.73468017578125 1.5 53.71062850952148 1.5 47.5 C 1.5 41.28937149047852 2.716026782989502 35.26533508300781 5.114293098449707 29.59518623352051 C 7.431066513061523 24.11771965026855 10.74804019927979 19.19813346862793 14.97309303283691 14.97309303283691 C 19.19813346862793 10.74804019927979 24.11771965026855 7.431066513061523 29.59518623352051 5.114293098449707 C 35.26533508300781 2.716026782989502 41.28937149047852 1.5 47.5 1.5 C 53.71062850952148 1.5 59.73468017578125 2.716026782989502 65.40481567382812 5.114293098449707 C 70.88229370117188 7.431066513061523 75.80186462402344 10.74804019927979 80.02691650390625 14.97309303283691 C 84.25196075439453 19.19813346862793 87.56893157958984 24.11771965026855 89.88570404052734 29.59518623352051 C 92.28397369384766 35.26533508300781 93.5 41.28937149047852 93.5 47.5 C 93.5 53.71062850952148 92.28397369384766 59.73468017578125 89.88570404052734 65.40481567382812 C 87.56893157958984 70.88229370117188 84.25196075439453 75.80186462402344 80.02691650390625 80.02691650390625 C 75.80186462402344 84.25196075439453 70.88229370117188 87.56893157958984 65.40481567382812 89.88570404052734 C 59.73468017578125 92.28397369384766 53.71062850952148 93.5 47.5 93.5 Z" stroke="none"/>
                                <path d="M 47.5 3 C 41.49121475219727 3 35.66376876831055 4.176155090332031 30.17950439453125 6.495796203613281 C 24.88084411621094 8.736953735351562 20.12152099609375 11.94598388671875 16.03375244140625 16.03375244140625 C 11.94598388671875 20.12152099609375 8.736953735351562 24.88084411621094 6.495796203613281 30.17950439453125 C 4.176155090332031 35.66376876831055 3 41.49121475219727 3 47.5 C 3 53.50878524780273 4.176155090332031 59.33623123168945 6.495796203613281 64.82049560546875 C 8.736953735351562 70.11915588378906 11.94598388671875 74.87847900390625 16.03375244140625 78.96624755859375 C 20.12152099609375 83.05401611328125 24.88084411621094 86.26304626464844 30.17950439453125 88.50419616699219 C 35.66376876831055 90.82384490966797 41.49121475219727 92 47.5 92 C 53.50878524780273 92 59.33623123168945 90.82384490966797 64.82049560546875 88.50419616699219 C 70.11915588378906 86.26304626464844 74.87847900390625 83.05401611328125 78.96624755859375 78.96624755859375 C 83.05401611328125 74.87847900390625 86.26304626464844 70.11915588378906 88.50419616699219 64.82049560546875 C 90.82384490966797 59.33623123168945 92 53.50878524780273 92 47.5 C 92 41.49121475219727 90.82384490966797 35.66376876831055 88.50419616699219 30.17950439453125 C 86.26304626464844 24.88084411621094 83.05401611328125 20.12152099609375 78.96624755859375 16.03375244140625 C 74.87847900390625 11.94598388671875 70.11915588378906 8.736953735351562 64.82049560546875 6.495796203613281 C 59.33623123168945 4.176155090332031 53.50878524780273 3 47.5 3 M 47.5 0 C 73.7335205078125 0 95 21.2664794921875 95 47.5 C 95 73.7335205078125 73.7335205078125 95 47.5 95 C 21.2664794921875 95 0 73.7335205078125 0 47.5 C 0 21.2664794921875 21.2664794921875 0 47.5 0 Z" stroke="none" fill="#8b5e6f"/>
                              </g>
                            </g>
                          </g>
                        </g>
                      </g>
                    </g>
                  </g>
                </g>
              </g>
            </g>
          </g>
        </g>
      </g>
    </g>
    <g id="liderazgo-intelectual_2_" data-name="liderazgo-intelectual (2)" transform="translate(735.708 733.633)">
      <g id="Grupo_1230374" data-name="Grupo 1230374" transform="translate(35.838 0.999)">
        <path id="Trazado_1181649" data-name="Trazado 1181649" d="M179.079,127.921l-4.227-5.931a5,5,0,0,1-.927-2.9A19.917,19.917,0,0,0,166,103.168a4.443,4.443,0,0,1-1.5.856l-.082.027-.008.086a3.139,3.139,0,0,1-1.148,2.148l-.011.009-.009.011a10.518,10.518,0,0,1-18.659-4.838,19.889,19.889,0,0,0-4.467,3.244,7.1,7.1,0,0,1,.221,1.762c0,.109,0,.218-.009.326l0,.062.046.042a10.517,10.517,0,0,1-5.431,18.139,19.854,19.854,0,0,0,2.324,4.928,10.521,10.521,0,1,1,6.52,18.779,10.725,10.725,0,0,1-1.212-.069v5.33a1.332,1.332,0,0,0,1.332,1.332h18.734a1.332,1.332,0,0,0,1.332-1.332v-8.368a2,2,0,0,1,2-2h3.971a4,4,0,0,0,4-4v-6.732a1.332,1.332,0,0,1,1.332-1.332h1.933a2.32,2.32,0,0,0,1.889-3.666Z" transform="translate(-122.6 -88.954)" fill="#ffb09e"/>
        <path id="Trazado_1181650" data-name="Trazado 1181650" d="M228.505,134.191l-4.231-5.937a5,5,0,0,1-.928-2.9,19.951,19.951,0,0,0-8.887-16.615,33.211,33.211,0,0,1-22.507,47.632v3.942a1.333,1.333,0,0,0,1.333,1.333h18.753a1.333,1.333,0,0,0,1.333-1.333v-8.377a2,2,0,0,1,2-2h3.975a4,4,0,0,0,4-4v-6.739a1.333,1.333,0,0,1,1.333-1.333h1.935a2.322,2.322,0,0,0,1.891-3.67Z" transform="translate(-172.027 -95.253)" fill="#f89580"/>
        <path id="Trazado_1181651" data-name="Trazado 1181651" d="M60.061,138.339a6.927,6.927,0,0,1-2.194,4.879,4.951,4.951,0,0,0-1.581,3.573v3.446a1.867,1.867,0,0,1-1.864,1.864H51.713a1.867,1.867,0,0,1-1.864-1.864v-3.446a4.756,4.756,0,0,0-1.511-3.508,7.011,7.011,0,0,1-2.266-5.07,10.654,10.654,0,1,0,13.99.126Z" transform="translate(-42.339 -120.805)" fill="#05e39c"/>
        <path id="Trazado_1181652" data-name="Trazado 1181652" d="M147.722,296a10.632,10.632,0,0,0-8.238,3.9h8.9a3.2,3.2,0,0,1,3.2,3.2v7.12a3.2,3.2,0,0,1-3.2,3.2h-5.15a.53.53,0,0,0-.377.156l-1.576,1.576A10.654,10.654,0,1,0,147.722,296Z" transform="translate(-126.547 -257.578)" fill="#ffe177"/>
        <g id="Grupo_1230369" data-name="Grupo 1230369" transform="translate(3.596 10.188)">
          <path id="Trazado_1181653" data-name="Trazado 1181653" d="M76.7,84a7.2,7.2,0,0,0-7.361,7.067,7.112,7.112,0,0,0,2.312,5.318A4.618,4.618,0,0,1,73.119,99.8v.179h6.7V99.8a4.788,4.788,0,0,1,1.54-3.476A7.132,7.132,0,0,0,76.7,84Z" transform="translate(-69.339 -84)" fill="#ffe177"/>
          <path id="Trazado_1181654" data-name="Trazado 1181654" d="M76.7,84a7.2,7.2,0,0,0-7.361,7.067,7.112,7.112,0,0,0,2.312,5.318A4.618,4.618,0,0,1,73.119,99.8v.179h6.7V99.8a4.788,4.788,0,0,1,1.54-3.476A7.132,7.132,0,0,0,76.7,84Z" transform="translate(-69.339 -84)" fill="#ffe177"/>
          <path id="Trazado_1181655" data-name="Trazado 1181655" d="M90.492,89.46a7.462,7.462,0,0,1-8.6,10.989,7.2,7.2,0,0,0,.64.672A4.618,4.618,0,0,1,84,104.531v.179h6.7v-.179a4.788,4.788,0,0,1,1.54-3.476A7.131,7.131,0,0,0,90.492,89.46Z" transform="translate(-80.222 -88.733)" fill="#ffd15b"/>
          <path id="Trazado_1181656" data-name="Trazado 1181656" d="M102.431,209.23H99.722a2,2,0,0,1-2-2v-3.267h6.7v3.267A2,2,0,0,1,102.431,209.23Z" transform="translate(-93.944 -187.988)" fill="#cbc4cc"/>
          <path id="Trazado_1181657" data-name="Trazado 1181657" d="M101.647,204.569a2,2,0,0,1-2,2H97.724v.666a2,2,0,0,0,2,2h2.709a2,2,0,0,0,2-2v-3.267h-2.782v.6Z" transform="translate(-93.944 -187.988)" fill="#b5adb6"/>
        </g>
        <g id="Grupo_1230372" data-name="Grupo 1230372" transform="translate(21.708)">
          <path id="Trazado_1181658" data-name="Trazado 1181658" d="M222.284,25.346a3.167,3.167,0,0,1-3.163-3.163V14.126a3.166,3.166,0,0,1,5.247-2.383v-.17a10.654,10.654,0,1,0,0,13.163v-.17a3.153,3.153,0,0,1-2.084.78Z" transform="translate(-205.339 -7.5)" fill="#ffe177"/>
          <g id="Grupo_1230371" data-name="Grupo 1230371" transform="translate(3.944 3.329)">
            <path id="Trazado_1181659" data-name="Trazado 1181659" d="M241.363,32.5a3.3,3.3,0,0,0-3.28,2.982,4.578,4.578,0,0,0,0,8.685,3.3,3.3,0,0,0,6.576-.314V35.8A3.3,3.3,0,0,0,241.363,32.5Z" transform="translate(-234.954 -32.5)" fill="#fd8087"/>
            <g id="Grupo_1230370" data-name="Grupo 1230370" transform="translate(3.701 0.023)">
              <path id="Trazado_1181660" data-name="Trazado 1181660" d="M265.831,32.67v9.914a3.3,3.3,0,0,1-3.089,3.289,3.293,3.293,0,0,0,6-1.872V35.944A3.3,3.3,0,0,0,265.831,32.67Z" transform="translate(-262.742 -32.67)" fill="#fe646f"/>
            </g>
            <path id="Trazado_1181661" data-name="Trazado 1181661" d="M311.125,32.5a3.3,3.3,0,0,1,3.28,2.982,4.578,4.578,0,0,1,0,8.685,3.3,3.3,0,0,1-6.576-.314V35.8A3.3,3.3,0,0,1,311.125,32.5Z" transform="translate(-298.124 -32.5)" fill="#fd8087"/>
            <path id="Trazado_1181662" data-name="Trazado 1181662" d="M311.125,32.5a3.3,3.3,0,0,1,3.28,2.982,4.578,4.578,0,0,1,0,8.685,3.3,3.3,0,0,1-6.576-.314V35.8A3.3,3.3,0,0,1,311.125,32.5Z" transform="translate(-298.124 -32.5)" fill="#fd8087"/>
            <path id="Trazado_1181663" data-name="Trazado 1181663" d="M318.895,57.864a5.467,5.467,0,0,1-3.1,6.1,1.087,1.087,0,0,0-.606.745,3.937,3.937,0,0,1-3.179,2.963,3.3,3.3,0,0,0,6.02-1.519,4.577,4.577,0,0,0,.868-8.289Z" transform="translate(-301.745 -54.486)" fill="#fe646f"/>
          </g>
        </g>
        <g id="Grupo_1230373" data-name="Grupo 1230373" transform="translate(7.204 42.187)">
          <path id="Trazado_1181664" data-name="Trazado 1181664" d="M111.071,324.27H99.763a3.329,3.329,0,0,0-3.329,3.329v7.12a3.329,3.329,0,0,0,3.329,3.329H101.3a.4.4,0,0,1,.4.4v2.688a.4.4,0,0,0,.682.282l3.254-3.254a.4.4,0,0,1,.282-.117h5.15a3.329,3.329,0,0,0,3.329-3.329V327.6a3.329,3.329,0,0,0-3.329-3.329Z" transform="translate(-96.434 -324.27)" fill="#26a6fe"/>
          <path id="Trazado_1181665" data-name="Trazado 1181665" d="M111.071,324.27v8.452a2,2,0,0,1-2,2H96.434a3.329,3.329,0,0,0,3.329,3.329H101.3a.4.4,0,0,1,.4.4v2.688a.4.4,0,0,0,.682.282l3.254-3.254a.4.4,0,0,1,.282-.117h5.15a3.329,3.329,0,0,0,3.329-3.329V327.6a3.329,3.329,0,0,0-3.329-3.329Z" transform="translate(-96.434 -324.27)" fill="#0593fc"/>
        </g>
      </g>
      <g id="Grupo_1230375" data-name="Grupo 1230375" transform="translate(34.839 0)">
        <path id="Trazado_1181666" data-name="Trazado 1181666" d="M93.13,39.186,88.9,33.255a3.975,3.975,0,0,1-.742-2.321,20.792,20.792,0,0,0-7.367-15.947,5.58,5.58,0,0,0-2.134-8.4,4.266,4.266,0,0,0-1.511-2.347l.026-.021A11.648,11.648,0,0,0,61.483,2.133a1,1,0,0,0,1.153,1.631,9.646,9.646,0,0,1,10.711-.279A4.305,4.305,0,0,0,71.2,4.875,4.293,4.293,0,0,0,63.73,6.59a5.577,5.577,0,0,0,0,10.127A4.293,4.293,0,0,0,71.2,18.431a4.306,4.306,0,0,0,2.155,1.39A9.655,9.655,0,0,1,59.774,6.94a1.029,1.029,0,0,0-.321-1.381,1,1,0,0,0-1.395.357,11.664,11.664,0,0,0-1.451,6.927,20.886,20.886,0,0,0-2.733,1.908,8.136,8.136,0,0,0-7.048-4.559A8.035,8.035,0,0,0,42.5,11.3a1,1,0,0,0,1.012,1.722,6.035,6.035,0,0,1,3.251-.839,6.133,6.133,0,0,1,4.01,10.593,5.884,5.884,0,0,0-1.791,3.383H47.565V20.459h.511a1,1,0,1,0,0-2H45.056a1,1,0,1,0,0,2h.511v5.705H44.154a5.582,5.582,0,0,0-1.733-3.326,6.144,6.144,0,0,1-1.988-4.573,5.949,5.949,0,0,1,.44-2.192,1,1,0,0,0-1.851-.75,7.94,7.94,0,0,0-.581,2.76,11.65,11.65,0,0,0,8.051,20.072c.35,0,.7-.016,1.038-.047a20.859,20.859,0,0,0,1.6,3.391q-.356.327-.686.687H46.371a4.333,4.333,0,0,0-4.328,4.328v.9a1,1,0,0,0,2,0v-.9a2.333,2.333,0,0,1,2.331-2.331H57.679a2.333,2.333,0,0,1,2.331,2.331v7.12a2.333,2.333,0,0,1-2.331,2.331h-5.15a1.389,1.389,0,0,0-.989.41l-2.23,2.23V57.364a1.4,1.4,0,0,0-1.4-1.4H46.371a2.333,2.333,0,0,1-2.331-2.331V52.072a1,1,0,1,0-2,0v1.562a4.333,4.333,0,0,0,4.328,4.328h.94v2.089a1.4,1.4,0,0,0,2.387.989L50.8,59.935a11.524,11.524,0,0,0,4,1.582v4.339a2.333,2.333,0,0,0,2.331,2.331H75.867A2.333,2.333,0,0,0,78.2,65.856V57.489a1,1,0,0,1,1-1h3.971A5,5,0,0,0,88.161,51.5V44.764a.333.333,0,0,1,.333-.333h1.933a3.319,3.319,0,0,0,2.7-5.245ZM70.2,15.682a2.3,2.3,0,0,1-4.444.818l1.359-.774a1,1,0,1,0-.988-1.736l-1.579.9a3.575,3.575,0,0,1,0-6.471l1.074.612v1.022a1,1,0,0,0,2,0V8.981a1.919,1.919,0,0,0-.967-1.664l-.9-.511a2.3,2.3,0,0,1,4.444.818Zm2,0V7.624a2.3,2.3,0,0,1,4.444-.818l-.9.511a1.918,1.918,0,0,0-.967,1.664v1.07a1,1,0,0,0,2,0V9.029l1.074-.612a3.575,3.575,0,0,1,0,6.471l-1.579-.9a1,1,0,1,0-.988,1.736l1.359.774a2.3,2.3,0,0,1-4.444-.818ZM44.213,28.162H48.92v2.269a1,1,0,0,1-1,1H45.212a1,1,0,0,1-1-1Zm2.279,8a9.649,9.649,0,0,1-7.7-15.47,8.142,8.142,0,0,0,2.28,3.624,3.623,3.623,0,0,1,1.144,2.674v3.446a3,3,0,0,0,3,3h2.709a3,3,0,0,0,3-3V26.985a3.765,3.765,0,0,1,1.226-2.749,8.155,8.155,0,0,0,2.154-3.41,9.65,9.65,0,0,1-7.805,15.332Zm6.285,21.805h4.9a4.333,4.333,0,0,0,4.328-4.328v-7.12a4.333,4.333,0,0,0-4.328-4.328H51.453a9.652,9.652,0,1,1,.806,16.294Zm37.651-15.53H88.494a2.333,2.333,0,0,0-2.331,2.331V51.5a3,3,0,0,1-3,3H79.2a3,3,0,0,0-3,3v8.368a.333.333,0,0,1-.333.333H57.133a.333.333,0,0,1-.333-.333V61.724c.071,0,.142,0,.213,0a11.653,11.653,0,1,0-6.291-21.461,18.885,18.885,0,0,1-1.192-2.514A11.651,11.651,0,0,0,54.7,18.229a8.2,8.2,0,0,0-.14-1.43,18.9,18.9,0,0,1,2.463-1.865,11.651,11.651,0,0,0,20.253,4.03,4.265,4.265,0,0,0,1.389-2.247,5.582,5.582,0,0,0,.658-.36,18.814,18.814,0,0,1,6.845,14.577,5.962,5.962,0,0,0,1.113,3.481L91.5,40.345a1.321,1.321,0,0,1-1.076,2.088Z" transform="translate(-34.839 0)"/>
        <path id="Trazado_1181667" data-name="Trazado 1181667" d="M131.708,356h-9.322a1,1,0,1,0,0,2h9.322a1,1,0,1,0,0-2Z" transform="translate(-109.861 -308.589)"/>
        <path id="Trazado_1181668" data-name="Trazado 1181668" d="M122.386,383h1.552a1,1,0,1,0,0-2h-1.552a1,1,0,1,0,0,2Z" transform="translate(-109.861 -330.259)"/>
        <path id="Trazado_1181669" data-name="Trazado 1181669" d="M160.879,381h-4.841a1,1,0,1,0,0,2h4.841a1,1,0,1,0,0-2Z" transform="translate(-139.032 -330.259)"/>
      </g>
    </g>
  </g>
</svg>
