<svg xmlns="http://www.w3.org/2000/svg" xmlns:xlink="http://www.w3.org/1999/xlink" width="113" height="113" viewBox="0 0 113 113">
  <defs>
    <filter id="Trazado_982547" x="0" y="0" width="113" height="113" filterUnits="userSpaceOnUse">
      <feOffset dy="3" input="SourceAlpha"/>
      <feGaussianBlur stdDeviation="3" result="blur"/>
      <feFlood flood-opacity="0.161"/>
      <feComposite operator="in" in2="blur"/>
      <feComposite in="SourceGraphic"/>
    </filter>
  </defs>
  <g id="Grupo_1231083" data-name="Grupo 1231083" transform="translate(-324.25 -1971.141)">
    <g id="Grupo_1230181" data-name="Grupo 1230181" transform="translate(0 -12711.902)">
      <g id="Grupo_1224255" data-name="Grupo 1224255" transform="translate(0.25 13230)">
        <g id="Grupo_1223775" data-name="Grupo 1223775" transform="translate(0 -4451.031)">
          <g id="Grupo_1206275" data-name="Grupo 1206275" transform="translate(0 -3448.335)">
            <g id="Grupo_1203802" data-name="Grupo 1203802" transform="translate(0.5 6552.41)">
              <g id="Grupo_1202424" data-name="Grupo 1202424" transform="translate(0 1464)">
                <g id="Grupo_1178325" data-name="Grupo 1178325" transform="translate(0 424)">
                  <g id="Grupo_1177679" data-name="Grupo 1177679" transform="translate(332.5 918)">
                    <g id="Grupo_1172010" data-name="Grupo 1172010">
                      <g id="Grupo_1171046" data-name="Grupo 1171046">
                        <g id="Grupo_1148525" data-name="Grupo 1148525">
                          <g transform="matrix(1, 0, 0, 1, -9, -6)" filter="url(#Trazado_982547)">
                            <g id="Trazado_982547-2" data-name="Trazado 982547" transform="translate(9 6)" fill="#ffe6ef">
                              <path d="M 47.5 93.5 C 41.28937149047852 93.5 35.26533508300781 92.28397369384766 29.59518623352051 89.88570404052734 C 24.11771965026855 87.56893157958984 19.19813346862793 84.25196075439453 14.97309303283691 80.02691650390625 C 10.74804019927979 75.80186462402344 7.431066513061523 70.88229370117188 5.114293098449707 65.40481567382812 C 2.716026782989502 59.73468017578125 1.5 53.71062850952148 1.5 47.5 C 1.5 41.28937149047852 2.716026782989502 35.26533508300781 5.114293098449707 29.59518623352051 C 7.431066513061523 24.11771965026855 10.74804019927979 19.19813346862793 14.97309303283691 14.97309303283691 C 19.19813346862793 10.74804019927979 24.11771965026855 7.431066513061523 29.59518623352051 5.114293098449707 C 35.26533508300781 2.716026782989502 41.28937149047852 1.5 47.5 1.5 C 53.71062850952148 1.5 59.73468017578125 2.716026782989502 65.40481567382812 5.114293098449707 C 70.88229370117188 7.431066513061523 75.80186462402344 10.74804019927979 80.02691650390625 14.97309303283691 C 84.25196075439453 19.19813346862793 87.56893157958984 24.11771965026855 89.88570404052734 29.59518623352051 C 92.28397369384766 35.26533508300781 93.5 41.28937149047852 93.5 47.5 C 93.5 53.71062850952148 92.28397369384766 59.73468017578125 89.88570404052734 65.40481567382812 C 87.56893157958984 70.88229370117188 84.25196075439453 75.80186462402344 80.02691650390625 80.02691650390625 C 75.80186462402344 84.25196075439453 70.88229370117188 87.56893157958984 65.40481567382812 89.88570404052734 C 59.73468017578125 92.28397369384766 53.71062850952148 93.5 47.5 93.5 Z" stroke="none"/>
                              <path d="M 47.5 3 C 41.49121475219727 3 35.66376876831055 4.176155090332031 30.17950439453125 6.495796203613281 C 24.88084411621094 8.736953735351562 20.12152099609375 11.94598388671875 16.03375244140625 16.03375244140625 C 11.94598388671875 20.12152099609375 8.736953735351562 24.88084411621094 6.495796203613281 30.17950439453125 C 4.176155090332031 35.66376876831055 3 41.49121475219727 3 47.5 C 3 53.50878524780273 4.176155090332031 59.33623123168945 6.495796203613281 64.82049560546875 C 8.736953735351562 70.11915588378906 11.94598388671875 74.87847900390625 16.03375244140625 78.96624755859375 C 20.12152099609375 83.05401611328125 24.88084411621094 86.26304626464844 30.17950439453125 88.50419616699219 C 35.66376876831055 90.82384490966797 41.49121475219727 92 47.5 92 C 53.50878524780273 92 59.33623123168945 90.82384490966797 64.82049560546875 88.50419616699219 C 70.11915588378906 86.26304626464844 74.87847900390625 83.05401611328125 78.96624755859375 78.96624755859375 C 83.05401611328125 74.87847900390625 86.26304626464844 70.11915588378906 88.50419616699219 64.82049560546875 C 90.82384490966797 59.33623123168945 92 53.50878524780273 92 47.5 C 92 41.49121475219727 90.82384490966797 35.66376876831055 88.50419616699219 30.17950439453125 C 86.26304626464844 24.88084411621094 83.05401611328125 20.12152099609375 78.96624755859375 16.03375244140625 C 74.87847900390625 11.94598388671875 70.11915588378906 8.736953735351562 64.82049560546875 6.495796203613281 C 59.33623123168945 4.176155090332031 53.50878524780273 3 47.5 3 M 47.5 0 C 73.7335205078125 0 95 21.2664794921875 95 47.5 C 95 73.7335205078125 73.7335205078125 95 47.5 95 C 21.2664794921875 95 0 73.7335205078125 0 47.5 C 0 21.2664794921875 21.2664794921875 0 47.5 0 Z" stroke="none" fill="#8b5e6f"/>
                            </g>
                          </g>
                        </g>
                      </g>
                    </g>
                  </g>
                </g>
              </g>
            </g>
          </g>
        </g>
      </g>
    </g>
    <g id="tronco-encefalico" transform="translate(269.957 1988.438)">
      <g id="Grupo_1231086" data-name="Grupo 1231086" transform="translate(87.937 1.061)">
        <path id="Trazado_1182552" data-name="Trazado 1182552" d="M200.454,167.052c0,8.406-7.159,11.423-7.159,21.607,0,6.928,4.279,18.954,6.312,24.275a2.856,2.856,0,0,0,3.7,1.645l2.592-1a2.856,2.856,0,0,0,1.621-3.736c-2.074-5.125-6.008-16.336-3.361-22.038,4.6-9.92,14.177-12.066,14.177-20.754H200.454Z" transform="translate(-179.307 -144.489)" fill="#8ac9fe"/>
        <path id="Trazado_1182553" data-name="Trazado 1182553" d="M242.579,167.052H224.7c0,3.878-1.524,6.609-3.165,9.426q1.079.132,2.179.206a10.655,10.655,0,0,1,6.453,2.711,12.34,12.34,0,0,1,.907.912,7.934,7.934,0,0,0,1.487,1.29C237.2,176.4,242.579,173.566,242.579,167.052Z" transform="translate(-203.555 -144.489)" fill="#60b7ff"/>
        <path id="Trazado_1182554" data-name="Trazado 1182554" d="M256,122.8a16.578,16.578,0,0,1,7.433,4.769,4.309,4.309,0,0,0,6.327.064c3.82-4.035,9.1-11.067,9.1-19.118H256Z" transform="translate(-233.144 -94.231)" fill="#80d261"/>
        <path id="Trazado_1182555" data-name="Trazado 1182555" d="M256,108.516V122.8a16.3,16.3,0,0,1,5.906,3.278,32.147,32.147,0,0,0,12.224-4.312q.257-.16.506-.324a24.4,24.4,0,0,0,4.22-12.926Z" transform="translate(-233.144 -94.231)" fill="#68ca44"/>
        <ellipse id="Elipse_12906" data-name="Elipse 12906" cx="22.856" cy="14.285" rx="22.856" ry="14.285" transform="translate(0)" fill="#fe99a0"/>
        <path id="Trazado_1182556" data-name="Trazado 1182556" d="M159.186,21.637c3.121,2.443,4.989,5.539,4.989,8.908,0,7.889-10.233,14.285-22.856,14.285a33.7,33.7,0,0,1-11.664-2c4.188,3.277,10.635,5.377,17.867,5.377,12.623,0,22.856-6.4,22.856-14.285C170.378,28.7,165.887,24.127,159.186,21.637Z" transform="translate(-124.666 -19.638)" fill="#fd8087"/>
        <path id="Trazado_1182557" data-name="Trazado 1182557" d="M166.519,256.454a25.607,25.607,0,0,0,10.433,4.692,1.528,1.528,0,0,1,1,2.243,13.782,13.782,0,0,0-1.581,4.129,18.2,18.2,0,0,0-.17,4.673,1.764,1.764,0,0,1-1.378,1.864,28.621,28.621,0,0,1-9.693.5,6.4,6.4,0,0,1-5.531-6.307,17.159,17.159,0,0,1,4-11.534A2.114,2.114,0,0,1,166.519,256.454Z" transform="translate(-150.375 -220.846)" fill="#fe99a0"/>
        <path id="Trazado_1182558" data-name="Trazado 1182558" d="M250.242,288.108c-.949-.216-1.831-.459-2.653-.719a1.747,1.747,0,0,1,.342,2.152,15.839,15.839,0,0,0-1.816,4.743,20.9,20.9,0,0,0-.2,5.369,2.023,2.023,0,0,1-.96,1.888,30.431,30.431,0,0,0,3.152-.524,1.764,1.764,0,0,0,1.378-1.864,18.2,18.2,0,0,1,.17-4.673,13.784,13.784,0,0,1,1.581-4.129A1.528,1.528,0,0,0,250.242,288.108Z" transform="translate(-223.664 -247.808)" fill="#fd8087"/>
      </g>
      <path id="Trazado_1182559" data-name="Trazado 1182559" d="M127.517,4.345A31.934,31.934,0,0,0,110.793,0,34.516,34.516,0,0,0,98.135,2.306a1.061,1.061,0,0,0,.786,1.97,32.376,32.376,0,0,1,11.872-2.155,29.8,29.8,0,0,1,15.6,4.023c4,2.5,6.2,5.765,6.2,9.2s-2.2,6.7-6.2,9.2a29.8,29.8,0,0,1-15.6,4.023,29.8,29.8,0,0,1-15.6-4.023c-4-2.5-6.2-5.765-6.2-9.2,0-3.284,2.033-6.444,5.726-8.9a1.061,1.061,0,0,0-1.174-1.767c-4.3,2.86-6.673,6.647-6.673,10.665,0,4.195,2.555,8.1,7.193,11a29.9,29.9,0,0,0,12.114,4.064c-.413.789-.866,1.568-1.338,2.376-.458.785-.927,1.59-1.375,2.436a3.158,3.158,0,0,0-3.107,1.006A18.291,18.291,0,0,0,96.1,48.465a7.485,7.485,0,0,0,6.45,7.353l.07.009c.452,1.707.991,3.541,1.605,5.464a1.061,1.061,0,0,0,2.021-.646c-.516-1.616-.978-3.167-1.378-4.629.373.015.741.023,1.1.023a31.251,31.251,0,0,0,5.62-.526,70.052,70.052,0,0,0,3.573,11.3,1.8,1.8,0,0,1-1.021,2.348l-2.591,1a1.8,1.8,0,0,1-2.323-1.035c-.481-1.259-.956-2.547-1.411-3.827a1.061,1.061,0,0,0-2,.712c.461,1.3.942,2.6,1.428,3.872a3.909,3.909,0,0,0,5.068,2.257l2.592-1a3.917,3.917,0,0,0,2.224-5.122,67.338,67.338,0,0,1-3.51-11.16,2.833,2.833,0,0,0,1.2-2.538,17.134,17.134,0,0,1,.155-4.389,12.691,12.691,0,0,1,1.461-3.8,2.558,2.558,0,0,0,.117-2.315,2.6,2.6,0,0,0-.549-.8,34.717,34.717,0,0,1,3.877-4.361,5.345,5.345,0,0,0,1.453.224h.074a5.408,5.408,0,0,0,3.919-1.686l.037-.039c.035-.037.07-.074.1-.111a1.061,1.061,0,1,0-1.569-1.427l-.074.079-.041.043a3.282,3.282,0,0,1-2.42,1.02,3.173,3.173,0,0,1-2.348-1.062,17.728,17.728,0,0,0-3.9-3.248,30.038,30.038,0,0,0,12.4-4.1,19.814,19.814,0,0,0,3.032-2.307,32.705,32.705,0,0,1-3.535,5.866,1.061,1.061,0,1,0,1.7,1.267c3.978-5.339,6-10.664,6-15.827,0-4.195-2.555-8.1-7.193-11ZM101.963,37.62a1.044,1.044,0,0,1,.79-.36,1.059,1.059,0,0,1,.665.235h0a26.57,26.57,0,0,0,10.861,4.9.469.469,0,0,1,.332.272.451.451,0,0,1-.021.412,16.411,16.411,0,0,0-1.056,2.221,28.19,28.19,0,0,1-10.255-3.053,19.907,19.907,0,0,1-3.114-2.032,14.415,14.415,0,0,1,1.8-2.595Zm.114,9.749a20.861,20.861,0,0,1-3.624-2.024,16.728,16.728,0,0,1,.81-3.138,28,28,0,0,0,13.663,5.156c-.012.056-.026.113-.036.169a15.41,15.41,0,0,0-.243,2.176A28.59,28.59,0,0,1,102.077,47.37Zm.755,6.345a5.354,5.354,0,0,1-4.611-5.262c0-.227,0-.463.009-.7a29.063,29.063,0,0,0,14.43,4.085c.013.233.028.455.044.659a.706.706,0,0,1-.55.742A27.688,27.688,0,0,1,102.832,53.715Zm14.6-18.607a5.276,5.276,0,0,0,.5.485,34.027,34.027,0,0,0-3.92,4.557,25.124,25.124,0,0,1-8.7-3.874c.438-.832.907-1.636,1.364-2.42.608-1.042,1.232-2.113,1.773-3.235q1.087.067,2.192.071A15.678,15.678,0,0,1,117.435,35.108Z" transform="translate(0 0)"/>
    </g>
  </g>
</svg>
