<svg xmlns="http://www.w3.org/2000/svg" xmlns:xlink="http://www.w3.org/1999/xlink" width="113" height="113" viewBox="0 0 113 113">
  <defs>
    <filter id="Trazado_982547" x="0" y="0" width="113" height="113" filterUnits="userSpaceOnUse">
      <feOffset dy="3" input="SourceAlpha"/>
      <feGaussianBlur stdDeviation="3" result="blur"/>
      <feFlood flood-opacity="0.161"/>
      <feComposite operator="in" in2="blur"/>
      <feComposite in="SourceGraphic"/>
    </filter>
  </defs>
  <g id="Grupo_1231085" data-name="Grupo 1231085" transform="translate(-743.25 -1971.141)">
    <g id="Grupo_1230183" data-name="Grupo 1230183" transform="translate(0 -12711.902)">
      <g id="Grupo_1230104" data-name="Grupo 1230104">
        <g id="Grupo_1224257" data-name="Grupo 1224257" transform="translate(0.25 13230)">
          <g id="Grupo_1223773" data-name="Grupo 1223773" transform="translate(0 -4451.031)">
            <g id="Grupo_1206282" data-name="Grupo 1206282" transform="translate(0 -3448.335)">
              <g id="Grupo_1203803" data-name="Grupo 1203803" transform="translate(0 6552.41)">
                <g id="Grupo_1202425" data-name="Grupo 1202425" transform="translate(-0.25 1464)">
                  <g id="Grupo_1178324" data-name="Grupo 1178324" transform="translate(0 424)">
                    <g id="Grupo_1177680" data-name="Grupo 1177680" transform="translate(752.25 918)">
                      <g id="Grupo_1172010" data-name="Grupo 1172010">
                        <g id="Grupo_1171046" data-name="Grupo 1171046">
                          <g id="Grupo_1148525" data-name="Grupo 1148525">
                            <g transform="matrix(1, 0, 0, 1, -9, -6)" filter="url(#Trazado_982547)">
                              <g id="Trazado_982547-2" data-name="Trazado 982547" transform="translate(9 6)" fill="#ffe6ef">
                                <path d="M 47.5 93.5 C 41.28937149047852 93.5 35.26533508300781 92.28397369384766 29.59518623352051 89.88570404052734 C 24.11771965026855 87.56893157958984 19.19813346862793 84.25196075439453 14.97309303283691 80.02691650390625 C 10.74804019927979 75.80186462402344 7.431066513061523 70.88229370117188 5.114293098449707 65.40481567382812 C 2.716026782989502 59.73468017578125 1.5 53.71062850952148 1.5 47.5 C 1.5 41.28937149047852 2.716026782989502 35.26533508300781 5.114293098449707 29.59518623352051 C 7.431066513061523 24.11771965026855 10.74804019927979 19.19813346862793 14.97309303283691 14.97309303283691 C 19.19813346862793 10.74804019927979 24.11771965026855 7.431066513061523 29.59518623352051 5.114293098449707 C 35.26533508300781 2.716026782989502 41.28937149047852 1.5 47.5 1.5 C 53.71062850952148 1.5 59.73468017578125 2.716026782989502 65.40481567382812 5.114293098449707 C 70.88229370117188 7.431066513061523 75.80186462402344 10.74804019927979 80.02691650390625 14.97309303283691 C 84.25196075439453 19.19813346862793 87.56893157958984 24.11771965026855 89.88570404052734 29.59518623352051 C 92.28397369384766 35.26533508300781 93.5 41.28937149047852 93.5 47.5 C 93.5 53.71062850952148 92.28397369384766 59.73468017578125 89.88570404052734 65.40481567382812 C 87.56893157958984 70.88229370117188 84.25196075439453 75.80186462402344 80.02691650390625 80.02691650390625 C 75.80186462402344 84.25196075439453 70.88229370117188 87.56893157958984 65.40481567382812 89.88570404052734 C 59.73468017578125 92.28397369384766 53.71062850952148 93.5 47.5 93.5 Z" stroke="none"/>
                                <path d="M 47.5 3 C 41.49121475219727 3 35.66376876831055 4.176155090332031 30.17950439453125 6.495796203613281 C 24.88084411621094 8.736953735351562 20.12152099609375 11.94598388671875 16.03375244140625 16.03375244140625 C 11.94598388671875 20.12152099609375 8.736953735351562 24.88084411621094 6.495796203613281 30.17950439453125 C 4.176155090332031 35.66376876831055 3 41.49121475219727 3 47.5 C 3 53.50878524780273 4.176155090332031 59.33623123168945 6.495796203613281 64.82049560546875 C 8.736953735351562 70.11915588378906 11.94598388671875 74.87847900390625 16.03375244140625 78.96624755859375 C 20.12152099609375 83.05401611328125 24.88084411621094 86.26304626464844 30.17950439453125 88.50419616699219 C 35.66376876831055 90.82384490966797 41.49121475219727 92 47.5 92 C 53.50878524780273 92 59.33623123168945 90.82384490966797 64.82049560546875 88.50419616699219 C 70.11915588378906 86.26304626464844 74.87847900390625 83.05401611328125 78.96624755859375 78.96624755859375 C 83.05401611328125 74.87847900390625 86.26304626464844 70.11915588378906 88.50419616699219 64.82049560546875 C 90.82384490966797 59.33623123168945 92 53.50878524780273 92 47.5 C 92 41.49121475219727 90.82384490966797 35.66376876831055 88.50419616699219 30.17950439453125 C 86.26304626464844 24.88084411621094 83.05401611328125 20.12152099609375 78.96624755859375 16.03375244140625 C 74.87847900390625 11.94598388671875 70.11915588378906 8.736953735351562 64.82049560546875 6.495796203613281 C 59.33623123168945 4.176155090332031 53.50878524780273 3 47.5 3 M 47.5 0 C 73.7335205078125 0 95 21.2664794921875 95 47.5 C 95 73.7335205078125 73.7335205078125 95 47.5 95 C 21.2664794921875 95 0 73.7335205078125 0 47.5 C 0 21.2664794921875 21.2664794921875 0 47.5 0 Z" stroke="none" fill="#8b5e6f"/>
                              </g>
                            </g>
                          </g>
                        </g>
                      </g>
                    </g>
                  </g>
                </g>
              </g>
            </g>
          </g>
        </g>
      </g>
    </g>
    <g id="pituitaria" transform="translate(728.158 1968.175)">
      <g id="Grupo_1231084" data-name="Grupo 1231084" transform="translate(40.236 24.603)">
        <path id="Trazado_1182542" data-name="Trazado 1182542" d="M73.62,81.653a8.058,8.058,0,0,1-6.744,3.553,7.78,7.78,0,0,1-7.96-7.586,7.233,7.233,0,0,1,.405-2.4,8.085,8.085,0,0,1-2.805.506c-5.656,0-10.236-5.917-10.236-13.216,0-10.955,9.566-18.43,20.047-18.43a21.266,21.266,0,0,1,12.789,3.862A13.618,13.618,0,0,0,97.955,67.015h0A8.805,8.805,0,0,1,96.5,84.556,9.285,9.285,0,0,1,88,79.242a17.013,17.013,0,0,1-9.827,2.982,18.257,18.257,0,0,1-4.556-.571Z" transform="translate(-46.279 -42.174)" fill="#f69eae" fill-rule="evenodd"/>
        <path id="Trazado_1182543" data-name="Trazado 1182543" d="M243.988,295.525q-7.033,6.5-4.6,21.983a4.966,4.966,0,0,1-7.157,0q3.475-14.589-6.56-20.714a7.861,7.861,0,0,0,1.934-2.011,17.7,17.7,0,0,0,14.384-2.413,8.782,8.782,0,0,0,2.055,2.829C244.028,295.308,244.008,295.416,243.988,295.525Z" transform="translate(-200.264 -255.302)" fill="#fcc186" fill-rule="evenodd"/>
        <path id="Trazado_1182544" data-name="Trazado 1182544" d="M336.656,296.628c.418,3.516-2.706,7.306-7.455,8.792a11.421,11.421,0,0,1-8.262-.329,16.348,16.348,0,0,1,4.825-9.566c.02-.109.04-.217.057-.326-.028-.028-.061-.057-.088-.085a9.469,9.469,0,0,0,6.527,2.569A9.581,9.581,0,0,0,336.656,296.628Zm-12.89-4.258c.02.048.044.1.064.14C323.811,292.466,323.786,292.418,323.767,292.37Zm.068.149c.024.048.044.092.068.136C323.88,292.611,323.859,292.567,323.835,292.519Zm.072.144a1.354,1.354,0,0,0,.068.136C323.952,292.755,323.928,292.711,323.907,292.663Zm.072.144c.024.044.048.088.072.136C324.027,292.9,324,292.851,323.979,292.808Zm.077.14.072.133Zm.081.144c.024.04.048.085.076.129C324.184,293.176,324.16,293.132,324.136,293.092Zm.081.136c.024.044.052.085.076.129C324.269,293.313,324.241,293.272,324.217,293.228Zm.084.14c.028.04.052.081.081.12C324.353,293.449,324.329,293.409,324.3,293.368Zm.089.133c.024.04.052.081.081.12C324.441,293.582,324.414,293.541,324.39,293.5Zm.088.136c.028.04.057.081.081.116Zm.092.133.085.116Zm.092.132.085.109Zm.1.129a.99.99,0,0,0,.081.1A.99.99,0,0,1,324.762,294.031Zm.1.129a.935.935,0,0,0,.081.1A1.1,1.1,0,0,1,324.863,294.16Zm.1.125.085.1C325.016,294.353,324.987,294.316,324.959,294.285Zm.1.125.085.1C325.119,294.473,325.092,294.44,325.064,294.409Zm.1.12.085.1C325.224,294.593,325.2,294.561,325.169,294.53Zm.108.12c.028.033.061.064.088.1C325.337,294.714,325.3,294.681,325.276,294.65Zm.109.116c.033.033.061.064.092.1C325.445,294.83,325.416,294.8,325.385,294.766Zm.112.12c.033.028.061.061.092.088C325.557,294.946,325.53,294.915,325.5,294.886Zm.116.112c.033.033.061.061.092.088C325.674,295.059,325.646,295.031,325.613,295Z" transform="translate(-282.043 -255.302)" fill="#f6d350" fill-rule="evenodd"/>
        <path id="Trazado_1182545" data-name="Trazado 1182545" d="M238.308,332.976a4.975,4.975,0,0,1-6.078-.851q3.475-14.589-6.56-20.714A7.861,7.861,0,0,0,227.6,309.4a18.022,18.022,0,0,0,3.56.545q9.34,6.708,5.969,22.051A5.068,5.068,0,0,0,238.308,332.976Z" transform="translate(-200.264 -269.921)" fill="#f8a061" fill-rule="evenodd"/>
        <path id="Trazado_1182546" data-name="Trazado 1182546" d="M49.778,72.47a15.056,15.056,0,0,1-3.508-9.96c0-10.955,9.566-18.43,20.047-18.43a21.266,21.266,0,0,1,12.789,3.862,13.522,13.522,0,0,0-1.582,2.943,23.893,23.893,0,0,0-8.338-1.444c-10.477,0-20.047,7.474-20.047,18.43A16.664,16.664,0,0,0,49.778,72.47Z" transform="translate(-46.27 -42.174)" fill="#f4899c" fill-rule="evenodd"/>
        <path id="Trazado_1182547" data-name="Trazado 1182547" d="M274.156,30.62A13.616,13.616,0,1,1,260.54,44.236,13.616,13.616,0,0,1,274.156,30.62Z" transform="translate(-230.196 -30.62)" fill="#fff" fill-rule="evenodd"/>
        <path id="Trazado_1182548" data-name="Trazado 1182548" d="M328.609,138.792c.353,1.47-1.886,3.26-3.356,3.608-3.5.836-4.761-4.479-1.265-5.315C325.454,136.736,328.261,137.327,328.609,138.792Z" transform="translate(-282.879 -121.925)" fill="#ad444a" fill-rule="evenodd"/>
        <path id="Trazado_1182549" data-name="Trazado 1182549" d="M337.725,160.844c-.751-1.309-3.608-1.076-4.917-.321-3.111,1.794-.385,6.527,2.73,4.733C336.843,164.5,338.48,162.148,337.725,160.844Z" transform="translate(-291.052 -141.599)" fill="#ad444a" fill-rule="evenodd"/>
        <path id="Trazado_1182550" data-name="Trazado 1182550" d="M366.833,44.45A13.619,13.619,0,0,1,373.4,55.506a13.313,13.313,0,0,1-.269,2.031c-4.142.365-3.584,4.54-10.284,5.319-2.175.253-3.453-2.978-1.759-4.236a9.923,9.923,0,0,1,4.628-1.79c1.348-.3,2.565-1.081,2.365-2.678-.317-2.492-4.512-1.738-3.849-6.266A4.462,4.462,0,0,1,366.833,44.45Z" transform="translate(-315.832 -42.491)" fill="#ad444a" fill-rule="evenodd"/>
      </g>
      <path id="Trazado_1182551" data-name="Trazado 1182551" d="M96.54,40.871c-2.4.932-2.958,4.175-8.691,5.013a6.651,6.651,0,0,1-2.637,3.227,3.749,3.749,0,0,1-5.564-3.761A3.748,3.748,0,0,1,81.114,38.8a6.633,6.633,0,0,1,4.42.7c2.737-1.75,4.794-1.132,5.728-2.192a1.131,1.131,0,0,0,.241-.919c-.208-1.641-4.6-1.4-3.853-6.531a5.481,5.481,0,0,1,1.663-3.184,12.626,12.626,0,1,0,7.228,14.2ZM85.765,45.7a3.544,3.544,0,0,1-1.706-1.77l-.578.1v0a3.6,3.6,0,0,0-1,.353A1.745,1.745,0,0,0,84.227,47.4,4.722,4.722,0,0,0,85.765,45.7Zm-2.026-3.722a3.163,3.163,0,0,1,.3-1.011c-1.361-.514-3.606-.571-3.77,1.184a2.127,2.127,0,0,0,.289,1.256,4.779,4.779,0,0,1,2.5-1.317l0,0C83.281,42.044,83.509,42,83.738,41.976Zm7.446-14.271a3.448,3.448,0,0,0-1.573,2.433c-.558,3.8,3.44,2.79,3.849,6,.269,2.127-1.26,3.352-3.135,3.766a9,9,0,0,0-4.256,1.621c-.86.622-.14,2.593,1.064,2.457,6.061-.707,5.641-4.508,9.674-5.234a12.6,12.6,0,0,0-5.622-11.045ZM84.2,23.61a14.606,14.606,0,0,1,9.883,25.362,9.861,9.861,0,0,1,6.628,9.185,9.732,9.732,0,0,1-4.829,8.33,8.134,8.134,0,0,1-2.087,5.271,13.68,13.68,0,0,1-13.861,4.015,39.8,39.8,0,0,0,.405,10.883,1,1,0,0,1-.265.838,5.95,5.95,0,0,1-8.582,0,.989.989,0,0,1-.249-.915h0c1.875-7.864,1.032-14.945-5.58-19.3A9.25,9.25,0,0,1,54.519,66.13a8.34,8.34,0,0,1-2.573-7.113c-3.761.626-7.186-1.148-9.5-4.131a16.339,16.339,0,0,1-3.208-9.951c0-11.529,10.048-19.417,21.043-19.417A22.922,22.922,0,0,1,72.864,29,14.582,14.582,0,0,1,84.2,23.61Zm7.932,26.876a14.611,14.611,0,0,1-20.41-19.87c-3.991-2.661-9.8-3.625-14.688-2.862a10.639,10.639,0,0,1,1.116,6.584,8.739,8.739,0,0,1-.952,2.65A6.76,6.76,0,0,1,61.421,41a.988.988,0,1,1-1.834.735,4.9,4.9,0,0,0-3.573-3.043,14.3,14.3,0,0,1-2.269,2.124.988.988,0,0,1-1.2-1.569c4.015-3.067,4.777-6.667,2.485-11.083a19.649,19.649,0,0,0-8.386,4.5,17.122,17.122,0,0,0-2.007,2.184q.421,3.841,1.646,5.352a2.445,2.445,0,0,0,2.906.683.99.99,0,0,1,.61,1.883,4.733,4.733,0,0,1-3.308.024,6.7,6.7,0,0,0-.429,4.873.989.989,0,0,1-1.9.558,8.721,8.721,0,0,1,.711-6.628,9.45,9.45,0,0,1-1.838-4.236c-2.508,4.862-2.5,11.24.542,15.724q1.848-3.775,7.8-4.938a.99.99,0,1,1,.381,1.943q-5.619,1.1-6.732,4.724a7.54,7.54,0,0,0,7.435,2.068,8.6,8.6,0,0,1,3.6-4.652,8.152,8.152,0,0,1,6.2-1.164c3.613.867,4.54,4.026,7.089,3.95a.987.987,0,0,1,.057,1.974c-3.637.1-4.665-3.356-7.588-4a6.59,6.59,0,0,0-7.571,4.881c-.011.048-.028.1-.044.144a6.266,6.266,0,0,0-.337,2.035c0,5.083,5.785,8.177,10.356,5.768A6.933,6.933,0,0,0,66.75,63.53v0a.991.991,0,0,1,1.068-.414,17.184,17.184,0,0,0,3.175.5c-.418-4.319,1.228-7.711,5.214-9.75a.986.986,0,1,1,.9,1.757A7.923,7.923,0,0,0,74.059,58.2a6.557,6.557,0,0,0,4.308-.525.987.987,0,1,1,.891,1.762,8.687,8.687,0,0,1-6.05.61,9.278,9.278,0,0,0-.225,3.589,15.806,15.806,0,0,0,8.4-2.778l0,0a.989.989,0,0,1,1.469.394,8.263,8.263,0,0,0,6.868,4.7c.591-2.533-.61-4.717-2.565-6.636a.987.987,0,1,1,1.384-1.408c2.317,2.272,3.713,4.941,3.212,7.98a7.98,7.98,0,0,0,6.969-7.739,7.493,7.493,0,0,0-.887-3.536c-2.726,1.549-5.917,1.621-9.144.923a.991.991,0,1,1,.416-1.939A11.008,11.008,0,0,0,96.682,53a8.366,8.366,0,0,0-4.554-2.511Zm-32.8-1.412a.986.986,0,1,1,1.1-1.634c2.991,2.027,5.789,2.172,8.558-.133a.987.987,0,0,1,1.26,1.518C66.8,51.7,63.053,51.595,59.331,49.074ZM80.253,73.793c4,1.469,9.33-.136,12.023-3.315a6.688,6.688,0,0,0,1.538-3.043,10.615,10.615,0,0,1-9.594-1.486A15.222,15.222,0,0,0,80.253,73.793Zm-12.973-7.8c6.732,4.772,7.848,12.255,6.013,20.478a3.993,3.993,0,0,0,5.01-.033c-1.184-7.956-.836-16.426,4.444-21.813a9.959,9.959,0,0,1-1.153-1.534,18.8,18.8,0,0,1-13.6,2.1A8.8,8.8,0,0,1,67.28,65.994Z" transform="translate(0 0)"/>
    </g>
  </g>
</svg>
