<svg xmlns="http://www.w3.org/2000/svg" xmlns:xlink="http://www.w3.org/1999/xlink" width="103" height="103" viewBox="0 0 103 103">
  <defs>
    <filter id="Trazado_982547" x="0" y="0" width="103" height="103" filterUnits="userSpaceOnUse">
      <feOffset dy="3" input="SourceAlpha"/>
      <feGaussianBlur stdDeviation="3" result="blur"/>
      <feFlood flood-opacity="0.161"/>
      <feComposite operator="in" in2="blur"/>
      <feComposite in="SourceGraphic"/>
    </filter>
  </defs>
  <g id="Grupo_1230412" data-name="Grupo 1230412" transform="translate(-171 -1858.792)">
    <g id="Grupo_1230141" data-name="Grupo 1230141" transform="translate(0 -1896.173)">
      <g id="Grupo_1227863" data-name="Grupo 1227863" transform="translate(-26.01 -717.035)">
        <g id="Grupo_1203964" data-name="Grupo 1203964" transform="translate(206.01 4478)">
          <g id="Grupo_1203625" data-name="Grupo 1203625" transform="translate(0)">
            <g id="Grupo_1178314" data-name="Grupo 1178314" transform="translate(0 0)">
              <g id="Grupo_1173988" data-name="Grupo 1173988">
                <g id="Grupo_1172010" data-name="Grupo 1172010">
                  <g id="Grupo_1171046" data-name="Grupo 1171046">
                    <g id="Grupo_1148525" data-name="Grupo 1148525">
                      <g transform="matrix(1, 0, 0, 1, -9, -6)" filter="url(#Trazado_982547)">
                        <g id="Trazado_982547-2" data-name="Trazado 982547" transform="translate(9 6)" fill="#f6f6fd">
                          <path d="M 42.5 83.5 C 36.96437835693359 83.5 31.59512901306152 82.41617584228516 26.54141235351562 80.27863311767578 C 21.65934181213379 78.21369171142578 17.27447128295898 75.25723266601562 13.50862312316895 71.49137878417969 C 9.742764472961426 67.72553253173828 6.786305904388428 63.34066009521484 4.721364498138428 58.45858764648438 C 2.583823442459106 53.40486907958984 1.5 48.03562164306641 1.5 42.5 C 1.5 36.96437835693359 2.583823442459106 31.59512901306152 4.721364498138428 26.54141235351562 C 6.786305904388428 21.65934181213379 9.742764472961426 17.27448272705078 13.50862312316895 13.50862312316895 C 17.27447128295898 9.742776870727539 21.65934181213379 6.786305904388428 26.54141235351562 4.721364498138428 C 31.59512901306152 2.583823442459106 36.96437835693359 1.5 42.5 1.5 C 48.03562164306641 1.5 53.40486907958984 2.583823442459106 58.45858764648438 4.721364498138428 C 63.34066009521484 6.786305904388428 67.72553253173828 9.742776870727539 71.49137878417969 13.50862312316895 C 75.25723266601562 17.27448272705078 78.21369171142578 21.65934181213379 80.27863311767578 26.54141235351562 C 82.41617584228516 31.59512901306152 83.5 36.96437835693359 83.5 42.5 C 83.5 48.03562164306641 82.41617584228516 53.40486907958984 80.27863311767578 58.45858764648438 C 78.21369171142578 63.34066009521484 75.25723266601562 67.72553253173828 71.49137878417969 71.49137878417969 C 67.72553253173828 75.25723266601562 63.34066009521484 78.21369171142578 58.45858764648438 80.27863311767578 C 53.40486907958984 82.41617584228516 48.03562164306641 83.5 42.5 83.5 Z" stroke="none"/>
                          <path d="M 42.5 3 C 37.16621398925781 3 31.99356079101562 4.043960571289062 27.125732421875 6.102882385253906 C 22.42246627807617 8.092185974121094 18.19785308837891 10.94070434570312 14.56928253173828 14.56928253173828 C 10.94070434570312 18.19785308837891 8.092185974121094 22.42246627807617 6.102882385253906 27.125732421875 C 4.043960571289062 31.99356079101562 3 37.16621398925781 3 42.5 C 3 47.83378601074219 4.043960571289062 53.00643920898438 6.102882385253906 57.87425231933594 C 8.092185974121094 62.57753372192383 10.94070434570312 66.80213165283203 14.56928253173828 70.43071746826172 C 18.19786834716797 74.05929565429688 22.42246627807617 76.90781402587891 27.125732421875 78.89711761474609 C 31.99356079101562 80.95603942871094 37.16621398925781 82 42.5 82 C 47.83378601074219 82 53.00642395019531 80.95603942871094 57.87425231933594 78.89711761474609 C 62.57753372192383 76.90781402587891 66.80213165283203 74.05929565429688 70.43071746826172 70.43071746826172 C 74.05929565429688 66.80213165283203 76.90781402587891 62.57753372192383 78.89711761474609 57.87425231933594 C 80.95603942871094 53.00642395019531 82 47.83378601074219 82 42.5 C 82 37.16621398925781 80.95603942871094 31.99356079101562 78.89711761474609 27.125732421875 C 76.90781402587891 22.42246627807617 74.05929565429688 18.19786834716797 70.43071746826172 14.56928253173828 C 66.80213165283203 10.94070434570312 62.57753372192383 8.092185974121094 57.87425231933594 6.102882385253906 C 53.00643920898438 4.043960571289062 47.83378601074219 3 42.5 3 M 42.5 0 C 65.97209167480469 0 85 19.02789306640625 85 42.5 C 85 65.97209167480469 65.97209167480469 85 42.5 85 C 19.02789306640625 85 0 65.97209167480469 0 42.5 C 0 19.02789306640625 19.02789306640625 0 42.5 0 Z" stroke="none" fill="#b1aef1"/>
                        </g>
                      </g>
                    </g>
                  </g>
                </g>
              </g>
            </g>
          </g>
        </g>
      </g>
    </g>
    <g id="objetivo_7_" data-name="objetivo (7)" transform="translate(180.493 1881)">
      <g id="Grupo_1230406" data-name="Grupo 1230406" transform="translate(14.637 0.802)">
        <g id="Grupo_1230395" data-name="Grupo 1230395" transform="translate(21.154)">
          <path id="Trazado_1181697" data-name="Trazado 1181697" d="M248.011,54.926H219.167l-.107.107v22.82A13.061,13.061,0,0,1,225.883,95.8H247.6a.518.518,0,0,0,.518-.518V55.033Z" transform="translate(-219.06 -49.852)" fill="#c8effe"/>
          <path id="Trazado_1181698" data-name="Trazado 1181698" d="M222.263,79.7V55.033l.107-.107h-3.2l-.107.107v22.82A13.043,13.043,0,0,1,222.263,79.7Z" transform="translate(-219.06 -49.852)" fill="#99e6fc"/>
          <g id="Grupo_1230381" data-name="Grupo 1230381" transform="translate(0)">
            <path id="Trazado_1181699" data-name="Trazado 1181699" d="M248.118,12.681H219.06V8.57a1.07,1.07,0,0,1,1.07-1.07h26.919a1.07,1.07,0,0,1,1.07,1.07Z" transform="translate(-219.06 -7.5)" fill="#7ca1b1"/>
          </g>
          <g id="Grupo_1230382" data-name="Grupo 1230382" transform="translate(0)">
            <path id="Trazado_1181700" data-name="Trazado 1181700" d="M220.13,7.5a1.07,1.07,0,0,0-1.07,1.07v4.111h6.42V7.5Z" transform="translate(-219.06 -7.5)" fill="#678d98"/>
          </g>
          <g id="Grupo_1230383" data-name="Grupo 1230383" transform="translate(0)">
            <path id="Trazado_1181701" data-name="Trazado 1181701" d="M223.333,7.5h-3.2a1.07,1.07,0,0,0-1.07,1.07v4.111h3.2V8.57A1.07,1.07,0,0,1,223.333,7.5Z" transform="translate(-219.06 -7.5)" fill="#537983"/>
          </g>
          <g id="Grupo_1230386" data-name="Grupo 1230386" transform="translate(4.843 8.701)">
            <g id="Grupo_1230384" data-name="Grupo 1230384">
              <path id="Trazado_1181702" data-name="Trazado 1181702" d="M268.062,92.879h-3.413a.321.321,0,0,1-.321-.321V89.145a.321.321,0,0,1,.321-.321h3.413a.321.321,0,0,1,.321.321v3.413A.321.321,0,0,1,268.062,92.879Z" transform="translate(-264.328 -88.824)" fill="#01d0fb"/>
            </g>
            <g id="Grupo_1230385" data-name="Grupo 1230385">
              <path id="Trazado_1181703" data-name="Trazado 1181703" d="M266.123,92.558V89.145a.321.321,0,0,1,.321-.321h-1.795a.321.321,0,0,0-.321.321v3.413a.321.321,0,0,0,.321.321h1.795A.321.321,0,0,1,266.123,92.558Z" transform="translate(-264.328 -88.824)" fill="#01c0fa"/>
            </g>
          </g>
          <g id="Grupo_1230389" data-name="Grupo 1230389" transform="translate(4.843 15.881)">
            <g id="Grupo_1230387" data-name="Grupo 1230387">
              <path id="Trazado_1181704" data-name="Trazado 1181704" d="M268.062,159.991h-3.413a.321.321,0,0,1-.321-.321v-3.413a.321.321,0,0,1,.321-.321h3.413a.321.321,0,0,1,.321.321v3.413A.321.321,0,0,1,268.062,159.991Z" transform="translate(-264.328 -155.936)" fill="#01d0fb"/>
            </g>
            <g id="Grupo_1230388" data-name="Grupo 1230388">
              <path id="Trazado_1181705" data-name="Trazado 1181705" d="M266.123,159.67v-3.413a.321.321,0,0,1,.321-.321h-1.795a.321.321,0,0,0-.321.321v3.413a.321.321,0,0,0,.321.321h1.795A.321.321,0,0,1,266.123,159.67Z" transform="translate(-264.328 -155.936)" fill="#01c0fa"/>
            </g>
          </g>
          <g id="Grupo_1230392" data-name="Grupo 1230392" transform="translate(4.843 23.061)">
            <g id="Grupo_1230390" data-name="Grupo 1230390">
              <path id="Trazado_1181706" data-name="Trazado 1181706" d="M268.062,227.1h-3.413a.321.321,0,0,1-.321-.321v-3.413a.321.321,0,0,1,.321-.321h3.413a.321.321,0,0,1,.321.321v3.413A.321.321,0,0,1,268.062,227.1Z" transform="translate(-264.328 -223.048)" fill="#01d0fb"/>
            </g>
            <g id="Grupo_1230391" data-name="Grupo 1230391">
              <path id="Trazado_1181707" data-name="Trazado 1181707" d="M266.123,226.782v-3.413a.321.321,0,0,1,.321-.321h-1.795a.321.321,0,0,0-.321.321v3.413a.321.321,0,0,0,.321.321h1.795A.321.321,0,0,1,266.123,226.782Z" transform="translate(-264.328 -223.048)" fill="#01c0fa"/>
            </g>
          </g>
          <g id="Grupo_1230394" data-name="Grupo 1230394" transform="translate(4.843 30.241)">
            <path id="Trazado_1181708" data-name="Trazado 1181708" d="M268.062,290.159h-3.413a.321.321,0,0,0-.321.321v.823a13.076,13.076,0,0,1,1.984,2.91h1.749a.321.321,0,0,0,.321-.321V290.48A.321.321,0,0,0,268.062,290.159Z" transform="translate(-264.328 -290.159)" fill="#01d0fb"/>
            <g id="Grupo_1230393" data-name="Grupo 1230393">
              <path id="Trazado_1181709" data-name="Trazado 1181709" d="M266.123,293.847V290.48a.321.321,0,0,1,.321-.321h-1.795a.321.321,0,0,0-.321.321v.823A13.1,13.1,0,0,1,266.123,293.847Z" transform="translate(-264.328 -290.159)" fill="#01c0fa"/>
            </g>
          </g>
        </g>
        <g id="Grupo_1230402" data-name="Grupo 1230402" transform="translate(3.245 27.067)">
          <path id="Trazado_1181710" data-name="Trazado 1181710" d="M64.715,260.489a13.1,13.1,0,0,0-2.75.291,6.908,6.908,0,0,1-9.485,8.206,13.055,13.055,0,1,0,12.235-8.5Z" transform="translate(-51.662 -260.489)" fill="#fd5426"/>
          <g id="Grupo_1230396" data-name="Grupo 1230396" transform="translate(0 8.498)">
            <path id="Trazado_1181711" data-name="Trazado 1181711" d="M54.371,344.471a13.045,13.045,0,0,1,.609-3.95,6.869,6.869,0,0,1-2.5-.605,13.06,13.06,0,0,0,12.235,17.609,13.18,13.18,0,0,0,1.355-.07A13.055,13.055,0,0,1,54.371,344.471Z" transform="translate(-51.661 -339.915)" fill="#ef4424"/>
          </g>
          <path id="Trazado_1181712" data-name="Trazado 1181712" d="M100.089,300.1a8.772,8.772,0,0,0-2.968.516,6.92,6.92,0,0,1-4.816,4.169,8.813,8.813,0,1,0,7.784-4.684Z" transform="translate(-87.036 -295.863)" fill="#fff"/>
          <path id="Trazado_1181713" data-name="Trazado 1181713" d="M94.026,308.916a8.829,8.829,0,0,1,7.439-8.707,8.8,8.8,0,0,0-4.344.407,6.92,6.92,0,0,1-4.816,4.169,8.813,8.813,0,0,0,9.16,12.838A8.828,8.828,0,0,1,94.026,308.916Z" transform="translate(-87.036 -295.863)" fill="#eef5f6"/>
          <g id="Grupo_1230397" data-name="Grupo 1230397" transform="translate(29.402 9.999)">
            <path id="Trazado_1181714" data-name="Trazado 1181714" d="M335.051,353.952h-6.323a.321.321,0,0,0-.265.14l-1.988,2.914,1.988,2.914a.321.321,0,0,0,.265.14h6.323a.321.321,0,0,0,.261-.507l-1.817-2.546,1.817-2.546A.321.321,0,0,0,335.051,353.952Z" transform="translate(-326.474 -353.952)" fill="#fff"/>
          </g>
          <g id="Grupo_1230398" data-name="Grupo 1230398" transform="translate(29.402 9.999)">
            <path id="Trazado_1181715" data-name="Trazado 1181715" d="M335.051,353.952h-6.323a.321.321,0,0,0-.265.14l-1.988,2.914,1.988,2.914a.321.321,0,0,0,.265.14h6.323a.321.321,0,0,0,.261-.507l-1.817-2.546,1.817-2.546A.321.321,0,0,0,335.051,353.952Z" transform="translate(-326.474 -353.952)" fill="#fff"/>
          </g>
          <g id="Grupo_1230399" data-name="Grupo 1230399" transform="translate(29.402 9.999)">
            <path id="Trazado_1181716" data-name="Trazado 1181716" d="M331.176,359.918,329.188,357l1.988-2.914a.321.321,0,0,1,.265-.14h-2.713a.321.321,0,0,0-.265.14L326.475,357l1.988,2.914a.321.321,0,0,0,.265.14h2.713A.321.321,0,0,1,331.176,359.918Z" transform="translate(-326.475 -353.951)" fill="#eef5f6"/>
          </g>
          <g id="Grupo_1230400" data-name="Grupo 1230400" transform="translate(8.476 8.476)">
            <circle id="Elipse_12888" data-name="Elipse 12888" cx="4.577" cy="4.577" r="4.577" fill="#fd5426"/>
          </g>
          <g id="Grupo_1230401" data-name="Grupo 1230401" transform="translate(8.476 8.476)">
            <path id="Trazado_1181717" data-name="Trazado 1181717" d="M133.573,344.291a4.585,4.585,0,0,1,3.234-4.375,4.577,4.577,0,1,0,0,8.751A4.585,4.585,0,0,1,133.573,344.291Z" transform="translate(-130.886 -339.714)" fill="#ef4424"/>
          </g>
        </g>
        <g id="Grupo_1230405" data-name="Grupo 1230405" transform="translate(0 22.361)">
          <g id="Grupo_1230403" data-name="Grupo 1230403">
            <circle id="Elipse_12889" data-name="Elipse 12889" cx="6.909" cy="6.909" r="6.909" fill="#fed402"/>
          </g>
          <g id="Grupo_1230404" data-name="Grupo 1230404" transform="translate(0)">
            <path id="Trazado_1181718" data-name="Trazado 1181718" d="M24.937,223.411a6.911,6.911,0,0,1,5.108-6.67,6.909,6.909,0,1,0,0,13.341A6.911,6.911,0,0,1,24.937,223.411Z" transform="translate(-21.335 -216.502)" fill="#fac600"/>
          </g>
        </g>
      </g>
      <g id="Grupo_1230410" data-name="Grupo 1230410" transform="translate(20.593 5.242)">
        <g id="Grupo_1230408" data-name="Grupo 1230408" transform="translate(0 0)">
          <g id="Grupo_1230407" data-name="Grupo 1230407">
            <path id="Trazado_1181719" data-name="Trazado 1181719" d="M79.343,49.11,77.11,51.343a.375.375,0,0,0-.11.265V63.764a.375.375,0,0,0,.375.375H88.712a.375.375,0,0,0,.375-.375V49.375A.375.375,0,0,0,88.712,49h-9.1a.375.375,0,0,0-.265.11Z" transform="translate(-77 -49)" fill="#fdf6ec"/>
          </g>
        </g>
        <g id="Grupo_1230409" data-name="Grupo 1230409">
          <path id="Trazado_1181720" data-name="Trazado 1181720" d="M80.638,63.764V51.609a.376.376,0,0,1,.11-.265l2.233-2.233a.375.375,0,0,1,.265-.11H79.609a.376.376,0,0,0-.265.11L77.11,51.343a.375.375,0,0,0-.11.265V63.763a.375.375,0,0,0,.375.375h3.638A.375.375,0,0,1,80.638,63.764Z" transform="translate(-77 -49)" fill="#fef1da"/>
        </g>
      </g>
      <g id="Grupo_1230411" data-name="Grupo 1230411" transform="translate(13.835)">
        <path id="Trazado_1181721" data-name="Trazado 1181721" d="M64.85,24.661a.8.8,0,0,0,.8-.8V1.872A1.874,1.874,0,0,0,63.78,0H36.861a1.874,1.874,0,0,0-1.872,1.872v25.8a13.861,13.861,0,0,0-6.271-.427,7.71,7.71,0,1,0-11,9.517A13.854,13.854,0,0,0,43.1,47.558H64.332a1.322,1.322,0,0,0,1.32-1.32V27.6a.8.8,0,1,0-1.6,0v18.35h-20.2a13.758,13.758,0,0,0,.922-4.228H46.86l1.749,2.563a1.122,1.122,0,0,0,.928.49H55.86A1.123,1.123,0,0,0,56.774,43l-.912-1.278H55.9a.8.8,0,0,0,0-1.6h-.039l.912-1.278a1.123,1.123,0,0,0-.914-1.776H49.537a1.123,1.123,0,0,0-.928.49L46.86,40.12H44.767a13.76,13.76,0,0,0-.918-4.219h.52a1.125,1.125,0,0,0,1.123-1.123V31.365a1.125,1.125,0,0,0-1.123-1.123H40.956a1.119,1.119,0,0,0-.806.343,13.9,13.9,0,0,0-3.555-2.308V6.786H64.048V23.858a.8.8,0,0,0,.8.8ZM49.791,43.174,48.8,41.725h5.088l1.034,1.449Zm0-4.5h5.134L53.891,40.12H48.8Zm-34.351-8.6a6.106,6.106,0,1,1,6.106,6.106A6.113,6.113,0,0,1,15.44,30.072Zm15.5,23.1A12.253,12.253,0,0,1,19.2,37.416a7.68,7.68,0,0,0,2.35.367c.1,0,.2,0,.3-.008A9.612,9.612,0,0,0,36.192,48.97a.8.8,0,1,0-.88-1.342A8.007,8.007,0,0,1,23.705,37.473a7.745,7.745,0,0,0,4.855-4.2A8.01,8.01,0,0,1,38.907,40.12H36.254a5.379,5.379,0,1,0,0,1.6h2.652A7.974,7.974,0,0,1,37.7,45.2a.8.8,0,0,0,1.355.86,9.574,9.574,0,0,0,1.459-4.337h2.641A12.266,12.266,0,0,1,30.935,53.173Zm0-11.448h3.688a3.775,3.775,0,1,1,0-1.6H30.935a.8.8,0,0,0,0,1.6Zm10.5-9.879h2.45V34.3H43.1a13.919,13.919,0,0,0-1.663-2.4v-.049Zm1.722,8.274h-2.64a9.614,9.614,0,0,0-11.392-8.643,7.627,7.627,0,0,0,.024-2.674A12.245,12.245,0,0,1,43.159,40.12ZM41.409,5.181H36.594V1.872a.268.268,0,0,1,.267-.267h4.548V5.181Zm1.6,0V1.6H63.78a.268.268,0,0,1,.267.267V5.181Z" transform="translate(-13.835)"/>
        <path id="Trazado_1181722" data-name="Trazado 1181722" d="M334.348,87.114h-12.5a.8.8,0,1,0,0,1.6h12.5a.8.8,0,1,0,0-1.6Z" transform="translate(-288.176 -77.794)"/>
        <path id="Trazado_1181723" data-name="Trazado 1181723" d="M321.846,115.037h7.4a.8.8,0,1,0,0-1.6h-7.4a.8.8,0,1,0,0,1.6Z" transform="translate(-288.176 -101.296)"/>
        <path id="Trazado_1181724" data-name="Trazado 1181724" d="M334.348,154.226h-12.5a.8.8,0,1,0,0,1.6h12.5a.8.8,0,1,0,0-1.6Z" transform="translate(-288.176 -137.726)"/>
        <path id="Trazado_1181725" data-name="Trazado 1181725" d="M321.846,182.149h7.4a.8.8,0,1,0,0-1.6h-7.4a.8.8,0,1,0,0,1.6Z" transform="translate(-288.176 -161.228)"/>
        <path id="Trazado_1181726" data-name="Trazado 1181726" d="M334.348,221.337h-12.5a.8.8,0,1,0,0,1.6h12.5a.8.8,0,1,0,0-1.6Z" transform="translate(-288.176 -197.657)"/>
        <path id="Trazado_1181727" data-name="Trazado 1181727" d="M321.846,249.261h7.4a.8.8,0,1,0,0-1.6h-7.4a.8.8,0,1,0,0,1.6Z" transform="translate(-288.176 -221.16)"/>
        <path id="Trazado_1181728" data-name="Trazado 1181728" d="M262.487,82.447a1.125,1.125,0,0,0-1.123-1.123h-3.413a1.125,1.125,0,0,0-1.123,1.123V85.86a1.125,1.125,0,0,0,1.123,1.123h3.413a1.125,1.125,0,0,0,1.123-1.123Zm-1.6,2.931h-2.45v-2.45h2.45Z" transform="translate(-230.831 -72.623)"/>
        <path id="Trazado_1181729" data-name="Trazado 1181729" d="M262.487,149.559a1.125,1.125,0,0,0-1.123-1.123h-3.413a1.125,1.125,0,0,0-1.123,1.123v3.413a1.125,1.125,0,0,0,1.123,1.123h3.413a1.125,1.125,0,0,0,1.123-1.123Zm-1.6,2.931h-2.45v-2.45h2.45Z" transform="translate(-230.831 -132.555)"/>
        <path id="Trazado_1181730" data-name="Trazado 1181730" d="M261.364,215.547h-3.413a1.125,1.125,0,0,0-1.123,1.123v3.413a1.125,1.125,0,0,0,1.123,1.123h3.413a1.125,1.125,0,0,0,1.123-1.123V216.67A1.125,1.125,0,0,0,261.364,215.547Zm-.481,4.055h-2.45v-2.45h2.45Z" transform="translate(-230.831 -192.486)"/>
        <path id="Trazado_1181731" data-name="Trazado 1181731" d="M335.151,289.251a.8.8,0,0,0-.8-.8h-12.5a.8.8,0,1,0,0,1.6h12.5A.8.8,0,0,0,335.151,289.251Z" transform="translate(-288.176 -257.588)"/>
        <path id="Trazado_1181732" data-name="Trazado 1181732" d="M321.846,314.768a.8.8,0,1,0,0,1.6h7.4a.8.8,0,1,0,0-1.6Z" transform="translate(-288.176 -281.092)"/>
        <path id="Trazado_1181733" data-name="Trazado 1181733" d="M62.6,244.507v-.58a2.145,2.145,0,0,0-.06-4.289H61.06a.541.541,0,0,1,0-1.082h2.616a.8.8,0,0,0,0-1.6H62.6v-.576a.8.8,0,1,0-1.6,0v.579a2.145,2.145,0,0,0,.06,4.289h1.485a.541.541,0,0,1,0,1.082H59.928a.8.8,0,1,0,0,1.6H61v.576a.8.8,0,0,0,1.6,0Z" transform="translate(-54.091 -210.37)"/>
        <path id="Trazado_1181734" data-name="Trazado 1181734" d="M70.678,58.244H82.014a1.179,1.179,0,0,0,1.178-1.178V51.61a.8.8,0,1,0-1.6,0v5.028H71.1V45.088L73.088,43.1h8.5v4.761a.8.8,0,0,0,1.6,0V42.678A1.179,1.179,0,0,0,82.014,41.5h-9.1a1.171,1.171,0,0,0-.833.345l-2.233,2.233a1.17,1.17,0,0,0-.345.833V57.066A1.179,1.179,0,0,0,70.678,58.244Z" transform="translate(-63.545 -37.06)"/>
        <path id="Trazado_1181735" data-name="Trazado 1181735" d="M108.2,74.185h-5.061a.8.8,0,0,0,0,1.6H108.2a.8.8,0,1,0,0-1.6Z" transform="translate(-92.867 -66.248)"/>
        <path id="Trazado_1181736" data-name="Trazado 1181736" d="M108.2,99.448h-5.061a.8.8,0,0,0,0,1.6H108.2a.8.8,0,1,0,0-1.6Z" transform="translate(-92.867 -88.808)"/>
        <path id="Trazado_1181737" data-name="Trazado 1181737" d="M109,125.74a.8.8,0,0,0-.8-.8h-5.061a.8.8,0,0,0,0,1.6H108.2A.8.8,0,0,0,109,125.74Z" transform="translate(-92.867 -111.571)"/>
        <path id="Trazado_1181738" data-name="Trazado 1181738" d="M103.137,150.315a.8.8,0,1,0,0,1.6h2.269a.8.8,0,1,0,0-1.6Z" transform="translate(-92.867 -134.233)"/>
      </g>
    </g>
  </g>
</svg>
