<svg xmlns="http://www.w3.org/2000/svg" xmlns:xlink="http://www.w3.org/1999/xlink" width="113" height="113" viewBox="0 0 113 113">
  <defs>
    <filter id="Trazado_982547" x="0" y="0" width="113" height="113" filterUnits="userSpaceOnUse">
      <feOffset dy="3" input="SourceAlpha"/>
      <feGaussianBlur stdDeviation="3" result="blur"/>
      <feFlood flood-opacity="0.161"/>
      <feComposite operator="in" in2="blur"/>
      <feComposite in="SourceGraphic"/>
    </filter>
  </defs>
  <g id="Grupo_1231087" data-name="Grupo 1231087" transform="translate(-1163.25 -1970.731)">
    <g id="Grupo_1230182" data-name="Grupo 1230182" transform="translate(0 -12711.902)">
      <g id="Grupo_1224275" data-name="Grupo 1224275" transform="translate(0.25 13230)">
        <g id="Grupo_1224268" data-name="Grupo 1224268">
          <g id="Grupo_1223779" data-name="Grupo 1223779" transform="translate(0 -4451.031)">
            <g id="Grupo_1206283" data-name="Grupo 1206283" transform="translate(0 -3448.335)">
              <g id="Grupo_1203804" data-name="Grupo 1203804" transform="translate(-1 6552)">
                <g id="Grupo_1202426" data-name="Grupo 1202426" transform="translate(0.5 1464)">
                  <g id="Grupo_1178323" data-name="Grupo 1178323" transform="translate(0 424)">
                    <g id="Grupo_1177681" data-name="Grupo 1177681" transform="translate(1172.5 918)">
                      <g id="Grupo_1172010" data-name="Grupo 1172010">
                        <g id="Grupo_1171046" data-name="Grupo 1171046">
                          <g id="Grupo_1148525" data-name="Grupo 1148525">
                            <g transform="matrix(1, 0, 0, 1, -9, -6)" filter="url(#Trazado_982547)">
                              <g id="Trazado_982547-2" data-name="Trazado 982547" transform="translate(9 6)" fill="#ffe6ef">
                                <path d="M 47.5 93.5 C 41.28937149047852 93.5 35.26533508300781 92.28397369384766 29.59518623352051 89.88570404052734 C 24.11771965026855 87.56893157958984 19.19813346862793 84.25196075439453 14.97309303283691 80.02691650390625 C 10.74804019927979 75.80186462402344 7.431066513061523 70.88229370117188 5.114293098449707 65.40481567382812 C 2.716026782989502 59.73468017578125 1.5 53.71062850952148 1.5 47.5 C 1.5 41.28937149047852 2.716026782989502 35.26533508300781 5.114293098449707 29.59518623352051 C 7.431066513061523 24.11771965026855 10.74804019927979 19.19813346862793 14.97309303283691 14.97309303283691 C 19.19813346862793 10.74804019927979 24.11771965026855 7.431066513061523 29.59518623352051 5.114293098449707 C 35.26533508300781 2.716026782989502 41.28937149047852 1.5 47.5 1.5 C 53.71062850952148 1.5 59.73468017578125 2.716026782989502 65.40481567382812 5.114293098449707 C 70.88229370117188 7.431066513061523 75.80186462402344 10.74804019927979 80.02691650390625 14.97309303283691 C 84.25196075439453 19.19813346862793 87.56893157958984 24.11771965026855 89.88570404052734 29.59518623352051 C 92.28397369384766 35.26533508300781 93.5 41.28937149047852 93.5 47.5 C 93.5 53.71062850952148 92.28397369384766 59.73468017578125 89.88570404052734 65.40481567382812 C 87.56893157958984 70.88229370117188 84.25196075439453 75.80186462402344 80.02691650390625 80.02691650390625 C 75.80186462402344 84.25196075439453 70.88229370117188 87.56893157958984 65.40481567382812 89.88570404052734 C 59.73468017578125 92.28397369384766 53.71062850952148 93.5 47.5 93.5 Z" stroke="none"/>
                                <path d="M 47.5 3 C 41.49121475219727 3 35.66376876831055 4.176155090332031 30.17950439453125 6.495796203613281 C 24.88084411621094 8.736953735351562 20.12152099609375 11.94598388671875 16.03375244140625 16.03375244140625 C 11.94598388671875 20.12152099609375 8.736953735351562 24.88084411621094 6.495796203613281 30.17950439453125 C 4.176155090332031 35.66376876831055 3 41.49121475219727 3 47.5 C 3 53.50878524780273 4.176155090332031 59.33623123168945 6.495796203613281 64.82049560546875 C 8.736953735351562 70.11915588378906 11.94598388671875 74.87847900390625 16.03375244140625 78.96624755859375 C 20.12152099609375 83.05401611328125 24.88084411621094 86.26304626464844 30.17950439453125 88.50419616699219 C 35.66376876831055 90.82384490966797 41.49121475219727 92 47.5 92 C 53.50878524780273 92 59.33623123168945 90.82384490966797 64.82049560546875 88.50419616699219 C 70.11915588378906 86.26304626464844 74.87847900390625 83.05401611328125 78.96624755859375 78.96624755859375 C 83.05401611328125 74.87847900390625 86.26304626464844 70.11915588378906 88.50419616699219 64.82049560546875 C 90.82384490966797 59.33623123168945 92 53.50878524780273 92 47.5 C 92 41.49121475219727 90.82384490966797 35.66376876831055 88.50419616699219 30.17950439453125 C 86.26304626464844 24.88084411621094 83.05401611328125 20.12152099609375 78.96624755859375 16.03375244140625 C 74.87847900390625 11.94598388671875 70.11915588378906 8.736953735351562 64.82049560546875 6.495796203613281 C 59.33623123168945 4.176155090332031 53.50878524780273 3 47.5 3 M 47.5 0 C 73.7335205078125 0 95 21.2664794921875 95 47.5 C 95 73.7335205078125 73.7335205078125 95 47.5 95 C 21.2664794921875 95 0 73.7335205078125 0 47.5 C 0 21.2664794921875 21.2664794921875 0 47.5 0 Z" stroke="none" fill="#8b5e6f"/>
                              </g>
                            </g>
                          </g>
                        </g>
                      </g>
                    </g>
                  </g>
                </g>
              </g>
            </g>
          </g>
        </g>
      </g>
    </g>
    <g id="Page-1" transform="translate(1184.262 1994.656)">
      <g id="_037---Brain" data-name="037---Brain" transform="translate(-0.004 0)">
        <path id="Path" d="M45.745,29V50.223a2.433,2.433,0,0,1-2.437,2.437H43.3a2.484,2.484,0,0,1-1.834-.828L34.625,44a2.386,2.386,0,0,0-1.786-.8h-.106A4.732,4.732,0,0,1,28,38.464V30.183Z" transform="translate(3.945 5.307)" fill="#ff2727"/>
        <path id="Path-2" data-name="Path" d="M59.759,35.238c0,5.548-5.56,10.055-12.421,10.055A14.25,14.25,0,0,1,44.38,45a13.959,13.959,0,0,1-3.549-1.207,10.647,10.647,0,0,1-5.371-5.619L45.563,24,59,31.784V31.8A8.163,8.163,0,0,1,59.759,35.238Z" transform="translate(5.311 4.392)" fill="#eb6371"/>
        <path id="Path-3" data-name="Path" d="M66.816,21.253A8.152,8.152,0,0,0,64.6,20.247c.024-.154.035-.3.047-.45.024-.379.047-.757.047-1.136A13.013,13.013,0,0,0,52.36,5.767c-.142-.142-.3-.272-.45-.4A12.959,12.959,0,0,0,43.4,2.183a13.1,13.1,0,0,0-4.732.9h-.012A8.786,8.786,0,0,0,36.2,1.663,9.012,9.012,0,0,0,32.758,1a9.245,9.245,0,0,0-4.152.97,9.45,9.45,0,0,0-2.141,1.443l-.012.012c-.095-.059-.2-.118-.308-.177A8.217,8.217,0,0,0,16.078,4.809,7.79,7.79,0,0,0,14.623,6.95c-.26-.024-.521-.035-.793-.035A8.288,8.288,0,0,0,5.549,15.2c0,.083.012.189.012.272v.024A8.247,8.247,0,0,0,3.195,26.553c0,.012,0,.012.012.024-.012.154-.024.3-.024.45a10.451,10.451,0,0,0,.485,3.17v.012a10.634,10.634,0,0,0,9.216,7.417,8.313,8.313,0,0,0,.946.047,11.484,11.484,0,0,0,1.431-.106c.047.189.095.39.142.58.024.106.059.213.083.308a10.249,10.249,0,0,0,.674,1.668q.177.355.39.71a10.665,10.665,0,0,0,9.1,5.122h.012A10.594,10.594,0,0,0,33.5,42.488a10.809,10.809,0,0,0,1.408-1.916v-.012q.39.213.781.39A.42.42,0,0,0,35.8,41,15.334,15.334,0,0,0,54.821,35.8a13.88,13.88,0,0,0,1.254-2.141c0-.012.012-.012.012-.024a8.281,8.281,0,1,0,10.73-12.386Z" transform="translate(-0.813 0.183)" fill="#eb90c2"/>
        <path id="Shape" d="M66.045,19.616c.013-.237.02-.466.02-.689A14.177,14.177,0,0,0,53.032,4.8c-.035-.033-.076-.06-.111-.092-.1-.089-.194-.189-.3-.276a1.113,1.113,0,0,0-.118-.063A13.99,13.99,0,0,0,39.821,1.709c-.034.007-.069,0-.1.008-.225.064-.445.141-.665.215A10.611,10.611,0,0,0,26.5,2.179h-.011c-.049-.024-.093-.057-.143-.079a.553.553,0,0,0-.1-.025,9.4,9.4,0,0,0-3.956-.892,9.507,9.507,0,0,0-8.188,4.732h-.093c-.019,0-.033.009-.052.011a10.292,10.292,0,0,0-2.651.381,1.184,1.184,0,1,0,.674,2.269,7.115,7.115,0,0,1,2.2-.285,7.029,7.029,0,0,1,2.875.673A1.183,1.183,0,0,0,18.07,6.827a9.239,9.239,0,0,0-1.366-.51,7.036,7.036,0,0,1,9.31-1.7h.011a7.136,7.136,0,0,1,2.1,1.977,1.183,1.183,0,0,0,1.94-1.353A9.439,9.439,0,0,0,28.6,3.608a8.112,8.112,0,0,1,7.794-.458c-.183.109-.37.213-.549.329a1.183,1.183,0,1,0,1.292,1.983,11.9,11.9,0,0,1,17.208,4.988,1.183,1.183,0,1,0,2.148-.987A13.947,13.947,0,0,0,55.5,7.7a11.8,11.8,0,0,1,8.2,11.228c0,.287-.019.571-.039.856-.012.153-.024.305-.043.473a11.674,11.674,0,0,1-.725,2.976A1.184,1.184,0,0,0,65.1,24.1a14.121,14.121,0,0,0,.6-2.022,7.075,7.075,0,1,1-9.99,8.352,1.183,1.183,0,0,0-2.268.674,9.464,9.464,0,0,0,1.43,2.852,14.2,14.2,0,0,1-21.539,4.182,1.183,1.183,0,0,0-1.513,1.819,16.544,16.544,0,0,0,1.611,1.171,9.481,9.481,0,0,1-7.59,3.829c-.3,0-.591-.018-.885-.045-.163-.015-.323-.04-.484-.064-.112-.017-.226-.032-.337-.052-.222-.041-.442-.089-.659-.146l-.086-.022A9.549,9.549,0,0,1,17.1,39.1l-.028-.067c-.091-.224-.173-.453-.246-.685-.014-.044-.027-.089-.04-.132-.067-.224-.128-.451-.179-.683a9.511,9.511,0,0,1-.206-2.671,9.675,9.675,0,0,1,9.808-8.832h6.732a3.549,3.549,0,0,0,3.549-3.549,1.183,1.183,0,0,1,1.183-1.183h3.549a1.183,1.183,0,1,0,0-2.366H37.674a3.549,3.549,0,0,0-3.549,3.549,1.183,1.183,0,0,1-1.183,1.183H26.209A12.046,12.046,0,0,0,14.039,34.706a12.208,12.208,0,0,0,.046,1.967h-.071a9.473,9.473,0,0,1-8.961-6.445,9.464,9.464,0,0,0,1.355.8,1.183,1.183,0,0,0,1.017-2.136,7.1,7.1,0,0,1-3.007-2.706c-.007-.012-.009-.026-.017-.038a7.071,7.071,0,0,1,2.022-9.5l.015-.013a7.04,7.04,0,0,1,3.011-1.183,1.184,1.184,0,1,0-.334-2.344,9.392,9.392,0,0,0-1.96.51,7.041,7.041,0,0,1,1.033-2.3,1.183,1.183,0,1,0-1.94-1.353,9.391,9.391,0,0,0-1.7,5.122A9.431,9.431,0,0,0,2.184,27.047v.162a11.843,11.843,0,0,0,11.83,11.83c.177,0,.355,0,.543-.015.006.02.014.038.02.057q.131.41.291.809l.031.075A11.548,11.548,0,0,0,19.574,45.5l.058.037c.243.15.489.292.741.425.054.028.111.053.166.082a11.584,11.584,0,0,0,1.111.489c.168.065.335.132.506.19.146.047.295.086.442.13q.319.092.644.169c.137.031.273.059.412.085.245.047.492.084.742.118.118.014.237.032.347.043.367.035.735.058,1.107.058a11.79,11.79,0,0,0,6.212-1.795,5.958,5.958,0,0,0,5.72,4.158,1.2,1.2,0,0,1,.9.4l6.853,7.85A3.685,3.685,0,0,0,48.25,59.15a3.624,3.624,0,0,0,3.62-3.62V50.768a16.377,16.377,0,0,0,1.774.1,15.081,15.081,0,0,0,9.626-3.291,1.183,1.183,0,1,0-1.507-1.823A12.716,12.716,0,0,1,53.644,48.5a13.172,13.172,0,0,1-2.729-.273A11.163,11.163,0,0,1,43.7,43.713,16.667,16.667,0,0,0,56.577,35.75a9.378,9.378,0,0,0,8,1.869,6.931,6.931,0,0,1,.136,3.529,1.183,1.183,0,0,0,.9,1.41,1.26,1.26,0,0,0,.256.027,1.183,1.183,0,0,0,1.153-.929,9.346,9.346,0,0,0-.215-4.85,9.451,9.451,0,0,0-.767-17.2ZM49.5,50.308V55.53a1.259,1.259,0,0,1-1.266,1.254,1.3,1.3,0,0,1-.946-.422l-6.842-7.837a3.629,3.629,0,0,0-2.775-1.2,3.549,3.549,0,0,1-3.537-3.431,11.745,11.745,0,0,0,1.389-1.609c.047.022.1.037.146.058.118.052.237.118.355.163a.973.973,0,0,0,.128.025,16.623,16.623,0,0,0,4.84,1.174A12.852,12.852,0,0,0,49.5,50.308Z" transform="translate(-0.996 0)" fill="#373737"/>
      </g>
    </g>
  </g>
</svg>
