<svg xmlns="http://www.w3.org/2000/svg" xmlns:xlink="http://www.w3.org/1999/xlink" width="400" height="346" viewBox="0 0 400 346">
  <defs>
    <clipPath id="clip-path">
      <rect id="Rectángulo_422932" data-name="Rectángulo 422932" width="400" height="346" transform="translate(148.555 2130)" fill="#fff" stroke="#707070" stroke-width="1"/>
    </clipPath>
    <clipPath id="clip-path-2">
      <rect id="Rectángulo_422955" data-name="Rectángulo 422955" width="409" height="409" transform="translate(0 -0.289)" fill="none"/>
    </clipPath>
    <clipPath id="clip-path-3">
      <rect id="Rectángulo_422934" data-name="Rectángulo 422934" width="5.257" height="15.189" fill="none"/>
    </clipPath>
    <clipPath id="clip-path-4">
      <rect id="Rectángulo_422935" data-name="Rectángulo 422935" width="27.416" height="18.089" fill="none"/>
    </clipPath>
    <clipPath id="clip-path-5">
      <rect id="Rectángulo_422936" data-name="Rectángulo 422936" width="19.314" height="15.619" fill="none"/>
    </clipPath>
    <clipPath id="clip-path-6">
      <rect id="Rectángulo_422937" data-name="Rectángulo 422937" width="24.938" height="10.103" fill="none"/>
    </clipPath>
    <clipPath id="clip-path-7">
      <rect id="Rectángulo_422938" data-name="Rectángulo 422938" width="24.747" height="9.562" fill="none"/>
    </clipPath>
    <clipPath id="clip-path-8">
      <rect id="Rectángulo_422939" data-name="Rectángulo 422939" width="22.325" height="7.389" fill="none"/>
    </clipPath>
    <clipPath id="clip-path-9">
      <rect id="Rectángulo_422941" data-name="Rectángulo 422941" width="25.034" height="27.182" fill="none"/>
    </clipPath>
    <clipPath id="clip-path-10">
      <rect id="Rectángulo_422942" data-name="Rectángulo 422942" width="39.057" height="9.332" fill="none"/>
    </clipPath>
    <clipPath id="clip-path-11">
      <rect id="Rectángulo_422943" data-name="Rectángulo 422943" width="14.359" height="10.671" fill="none"/>
    </clipPath>
    <clipPath id="clip-path-12">
      <rect id="Rectángulo_422944" data-name="Rectángulo 422944" width="12.336" height="5.487" fill="none"/>
    </clipPath>
    <clipPath id="clip-path-13">
      <rect id="Rectángulo_422945" data-name="Rectángulo 422945" width="19.415" height="13.16" fill="none"/>
    </clipPath>
    <clipPath id="clip-path-14">
      <rect id="Rectángulo_422946" data-name="Rectángulo 422946" width="3.275" height="6.868" fill="none"/>
    </clipPath>
    <clipPath id="clip-path-15">
      <rect id="Rectángulo_422947" data-name="Rectángulo 422947" width="33.93" height="13.719" fill="none"/>
    </clipPath>
    <clipPath id="clip-path-16">
      <rect id="Rectángulo_422948" data-name="Rectángulo 422948" width="3.729" height="6.745" fill="none"/>
    </clipPath>
    <clipPath id="clip-path-17">
      <rect id="Rectángulo_422949" data-name="Rectángulo 422949" width="54.866" height="54.865" fill="none"/>
    </clipPath>
    <clipPath id="clip-path-18">
      <rect id="Rectángulo_422950" data-name="Rectángulo 422950" width="51.81" height="43.063" fill="none"/>
    </clipPath>
    <clipPath id="clip-path-19">
      <rect id="Rectángulo_422951" data-name="Rectángulo 422951" width="12.672" height="17.247" fill="none"/>
    </clipPath>
    <clipPath id="clip-path-20">
      <rect id="Rectángulo_422952" data-name="Rectángulo 422952" width="5.205" height="18.403" fill="none"/>
    </clipPath>
    <clipPath id="clip-path-21">
      <rect id="Rectángulo_422953" data-name="Rectángulo 422953" width="2.033" height="52.67" fill="none"/>
    </clipPath>
    <clipPath id="clip-path-22">
      <rect id="Rectángulo_422954" data-name="Rectángulo 422954" width="25.735" height="25.226" fill="none"/>
    </clipPath>
  </defs>
  <g id="Enmascarar_grupo_1211510" data-name="Enmascarar grupo 1211510" transform="translate(-148.555 -2130)" clip-path="url(#clip-path)">
    <g id="Grupo_1230474" data-name="Grupo 1230474" transform="translate(148.555 2095.289)">
      <g id="Grupo_1230473" data-name="Grupo 1230473" clip-path="url(#clip-path-2)">
        <path id="Trazado_1181739" data-name="Trazado 1181739" d="M351.7,239.166A139.532,139.532,0,1,1,236.682,78.821,139.532,139.532,0,0,1,351.7,239.166" transform="translate(-13.595 -14.049)" fill="#f4e0bd"/>
        <path id="Trazado_1181740" data-name="Trazado 1181740" d="M297.58,70.17a82.732,82.732,0,0,1,23.7,5.522,105.456,105.456,0,0,1,40.008,27.584,83.527,83.527,0,0,1,13.628,20.16l.02.043a.247.247,0,0,1-.415.259l-3.75-4.616-3.926-4.464-4.07-4.332c-1.413-1.388-2.807-2.8-4.234-4.168A156.991,156.991,0,0,0,319.566,79.3c-1.8-.821-3.591-1.673-5.4-2.469l-5.5-2.255L303.091,72.5l-5.652-1.852a.247.247,0,0,1,.093-.481Z" transform="translate(-54.275 -12.811)" fill="#f4e0bd"/>
        <path id="Trazado_1181741" data-name="Trazado 1181741" d="M87.909,137.66A72.383,72.383,0,0,1,97.492,118.7a96.125,96.125,0,0,1,31.253-28.526,73.119,73.119,0,0,1,19.733-7.852l.054-.012a.246.246,0,0,1,.17.457l-4.551,2.461-4.463,2.614L135.3,90.577,131,93.455a160.73,160.73,0,0,0-30.442,27.8l-3.254,4.018L94.194,129.4l-3,4.21-2.858,4.314a.247.247,0,0,1-.441-.21Z" transform="translate(-16.045 -15.027)" fill="#f4e0bd"/>
        <path id="Trazado_1181742" data-name="Trazado 1181742" d="M108.282,359.073A100.728,100.728,0,0,1,85.43,338.106a120.877,120.877,0,0,1-25.266-56.647,100.691,100.691,0,0,1-.3-31.013l.006-.034a.248.248,0,0,1,.493.027l.366,7.6.75,7.571c.338,2.513.732,5.017,1.1,7.526.451,2.494.986,4.973,1.474,7.461a155.046,155.046,0,0,0,24.625,55.183l4.561,6.085,4.861,5.85,5.121,5.627,5.4,5.363a.248.248,0,0,1-.31.384Z" transform="translate(-10.736 -45.682)" fill="#f4e0bd"/>
        <path id="Trazado_1181743" data-name="Trazado 1181743" d="M407.568,196.763a126.716,126.716,0,0,1,8.891,49.668c-.054,2.13-.1,4.265-.236,6.4-.106,2.133-.367,4.252-.565,6.379-.457,4.249-1.26,8.448-1.963,12.672-.4,2.1-.983,4.166-1.474,6.249-.261,1.038-.5,2.083-.78,3.115l-.94,3.072-.943,3.072c-.32,1.022-.6,2.057-1,3.053l-2.234,6.029c-.365,1.008-.822,1.979-1.265,2.955l-1.328,2.928-1.328,2.926c-.473.961-.985,1.9-1.476,2.854-1.009,1.89-1.946,3.818-3.017,5.673-1.1,1.84-2.182,3.687-3.318,5.5-.543.923-1.159,1.8-1.774,2.675l-1.833,2.635-1.832,2.631-1.965,2.534-1.972,2.525c-.668.833-1.283,1.707-2.024,2.481l-4.28,4.758a142.427,142.427,0,0,1-19.039,16.9,131.425,131.425,0,0,1-21.81,12.713l-.02.009a.248.248,0,0,1-.23-.44A167.4,167.4,0,0,0,358.2,354.422a161.354,161.354,0,0,0,17.758-17.444l3.973-4.8c.683-.783,1.269-1.641,1.894-2.47l1.852-2.5,1.845-2.508,1.712-2.6,1.713-2.6c.574-.864,1.15-1.727,1.652-2.636l3.132-5.381c1.02-1.807,1.906-3.687,2.866-5.525.467-.927.954-1.843,1.4-2.778l1.256-2.847,1.256-2.847c.419-.949.853-1.892,1.2-2.872l2.216-5.816c.394-.96.678-1.959,1-2.946l.942-2.966.943-2.966c.282-1,.522-2.008.786-3.011.5-2.013,1.059-4.014,1.519-6.037.785-4.076,1.674-8.133,2.225-12.251s.968-8.249,1.2-12.4a149.984,149.984,0,0,0-5.447-49.321.249.249,0,0,1,.469-.163Z" transform="translate(-61.655 -35.892)" fill="#f4e0bd"/>
        <path id="Trazado_1181744" data-name="Trazado 1181744" d="M143.328,237.06a24.016,24.016,0,0,1,5.258-17.448c-1.82-7.622,1.487-16.638,7.82-20.914a18.022,18.022,0,0,1-.173-12.481c1.422-4,5.83-6.679,9.467-8.631.253-4.806.546-9.772,2.67-14.035s7.05-7.94,11.618-7.1A19.647,19.647,0,0,1,190.068,143.5c4.966-2.5,11.764-1.753,16.783.638a21.849,21.849,0,0,1,26.823-8.844,15.7,15.7,0,0,1,10.1-5.723,15.941,15.941,0,0,1,11.354,2.975,26.493,26.493,0,0,1,18.949-.346,27.9,27.9,0,0,1,14.937,12.27,21.976,21.976,0,0,1,16.027,1.633c4.834,2.683,8.911,8.219,9.11,13.9a16.432,16.432,0,0,1,15.243,3.785,18.846,18.846,0,0,1,5.643,15.641,14.735,14.735,0,0,1,12.4,9.986c1.8,5.431.809,12.906-3.293,16.77a32.534,32.534,0,0,1-4.634,33.409,29.06,29.06,0,0,1-31.058,8.577,30.1,30.1,0,0,1-25.217,2.881,27.8,27.8,0,0,1-7.94-4.076,4.225,4.225,0,0,1-.385-.265v.079a.013.013,0,0,1-.013.013,30.034,30.034,0,0,1-1.619,7.967,33.351,33.351,0,0,1-17.051,19,31.139,31.139,0,0,1-18.143,2.383,20.175,20.175,0,0,1-19.51,3.574,127.829,127.829,0,0,1-10.915,18.786c-1.124,1.542-2.953,3.24-4.66,2.393-1.5-.741-1.55-2.821-1.388-4.484q.655-6.678,1.307-13.356c-2.393,2.216-5.818,2.685-9.057,2.309a11.507,11.507,0,0,1-8.1-4.932c-4.024,1.332-8.52-.8-10.891-4.314-.066.012-.13.034-.2.044-3.865.651-7.915-.889-10.982-3.412a23.88,23.88,0,0,1-7.143-.651,9.912,9.912,0,0,1-5.8-4.117,10.928,10.928,0,0,1-1.074-7.728,32.9,32.9,0,0,1,2.35-7.7,22.827,22.827,0,0,1-8.7-15.509" transform="translate(-26.145 -23.635)" fill="#bd504d"/>
        <path id="Trazado_1181745" data-name="Trazado 1181745" d="M119.931,248.387a31.542,31.542,0,0,0-2.35,7.423,10.14,10.14,0,0,0,1.089,7.422,9.884,9.884,0,0,0,5.789,3.97,24.661,24.661,0,0,0,7.13.625,13.6,13.6,0,0,0,20.529-2.908c1.447,3.054,5.165,3.917,8.5,4.342a62.9,62.9,0,0,0,31.27-4.076c8.9,6.9,21.856,8.246,32.108,3.612a32.617,32.617,0,0,0,15.762-15.3,28.171,28.171,0,0,0,2.895-10.742,30.954,30.954,0,0,0,33.488,1.394c10.914,3.492,23.449.359,31.018-8.246a30.373,30.373,0,0,0,4.634-32.16c4.09-3.718,5.086-10.915,3.293-16.147a14.614,14.614,0,0,0-12.389-9.6,17.739,17.739,0,0,0-5.643-15.058,16.844,16.844,0,0,0-15.216-3.638c-.2-5.484-4.263-10.8-9.1-13.385a22.718,22.718,0,0,0-16-1.58c-3.2-5.59-8.844-9.653-14.911-11.8a27.438,27.438,0,0,0-18.922.332,16.408,16.408,0,0,0-11.353-2.854,15.755,15.755,0,0,0-10.078,5.5,22.578,22.578,0,0,0-15.072-.464,21.686,21.686,0,0,0-11.724,8.989,23.477,23.477,0,0,0-7.967-2.045,17.4,17.4,0,0,0-8.79,1.435,18.994,18.994,0,0,0-10.066,12.455c-4.554-.81-9.467,2.722-11.592,6.825s-2.416,8.9-2.669,13.518c-3.638,1.886-8.047,4.462-9.467,8.3a16.885,16.885,0,0,0,.172,12.017c-6.32,4.13-9.613,12.8-7.794,20.131a22.612,22.612,0,0,0-5.258,16.8,21.822,21.822,0,0,0,8.684,14.924" transform="translate(-20.289 -23.716)" fill="#d66767"/>
        <path id="Trazado_1181746" data-name="Trazado 1181746" d="M231.152,246.946a1.072,1.072,0,0,0-1.095.011,13.324,13.324,0,0,1-3.446,1.386c-4.615,1.144-9.478.162-14.181-.789l-4.309-.857a1.039,1.039,0,0,0-.3-.217,23.6,23.6,0,0,1-12.658-16.261,1.03,1.03,0,0,0-.687-.794,1.211,1.211,0,0,0-1.158.259,1.107,1.107,0,0,0-.347,1.078A25.817,25.817,0,0,0,202.1,245.5l-27.064-5.368c-.683-.136-1.373-.266-2.066-.4-4.355-.829-8.859-1.686-12.735-3.817-9.14-5.022-10.065-16.672-9.852-26.261a78.388,78.388,0,0,1,2.333-17.31,19.584,19.584,0,0,0,10.293,9.3,1.015,1.015,0,0,0,1.351-.6,1.181,1.181,0,0,0-.66-1.549,17.107,17.107,0,0,1-10-10.658c.886-2.814,2.438-6.766,5.657-9.234,4.065-3.116,9.812-3.121,13.832-2.086,2.259.582,7.639,2.482,8.971,7.573a44.2,44.2,0,0,0-6.484,2.462,1.022,1.022,0,0,0-.495,1.408,1.168,1.168,0,0,0,1.565.58,41.561,41.561,0,0,1,12.342-3.628,27.57,27.57,0,0,0,4.274,13.208,1.125,1.125,0,0,0,1.59.329,1.052,1.052,0,0,0,.339-1.5,25.358,25.358,0,0,1-3.959-12.281,41.89,41.89,0,0,1,13.757,1.168,35.71,35.71,0,0,0,2.011,5.2,1.02,1.02,0,0,0,.849.6,1.226,1.226,0,0,0,1.057-.533,1.121,1.121,0,0,0,.08-1.143,33.407,33.407,0,0,1-2.895-19.557,1.187,1.187,0,0,0-1.015-1.356,1,1,0,0,0-1.186.859,35.592,35.592,0,0,0,.454,13.456,44.04,44.04,0,0,0-9.209-1.077,21.55,21.55,0,0,1-.117-15.751,1.015,1.015,0,0,0-.606-1.351,1.18,1.18,0,0,0-1.544.663,23.531,23.531,0,0,0-.1,16.478,44.737,44.737,0,0,0-8.524,1.186,10.6,10.6,0,0,0-1.329-3.076c-2.225-3.463-6.445-5.854-11.58-6.56-.076-.011-.153-.018-.23-.025a13.092,13.092,0,0,1,.714-8.172c2.483-6.051,8.247-8.854,11.461-9.987,5.708-2.013,11.963-1.989,17.87-1.665a1,1,0,0,0,.949-.459,1.208,1.208,0,0,0,.051-1.186,1.105,1.105,0,0,0-.949-.612c-3.076-.168-5.605-.2-7.936-.1a1.094,1.094,0,0,0-.281-.15l-8.237-3a1.024,1.024,0,0,0-1.354.639,1.166,1.166,0,0,0,.683,1.517l4.078,1.484c-4.5.736-10.295,2.552-14.616,6.94a16.635,16.635,0,0,0-4.774,14.57c-.647-.012-1.34.012-2.1.07a.813.813,0,0,0-.213-.033,30.563,30.563,0,0,1-15.65-4.6,1.064,1.064,0,0,0-1.511.367,1.113,1.113,0,0,0,.349,1.572,32.573,32.573,0,0,0,10.763,4.266,13.678,13.678,0,0,0-3.874,2.684c-.3.3-.575.628-.848.954l-.032.039a1.121,1.121,0,0,0-.307.239,33.5,33.5,0,0,1-11.456,8.254.991.991,0,0,0-.62.805,1.2,1.2,0,0,0,.5,1.066,1.16,1.16,0,0,0,1.165.128,35.2,35.2,0,0,0,7.173-4.233,53.014,53.014,0,0,0-2.061,7.17,81.01,81.01,0,0,0-2.028,18.584c.037,4.882.354,10.583,2.438,15.843a19.407,19.407,0,0,0,10.147,10.807c4.238,1.914,8.914,2.779,13.434,3.615,1.05.195,2.1.388,3.132.593l19.3,3.827c1.925.382,3.848.777,5.773,1.171,4.251.871,8.645,1.772,12.991,2.52.2.036.412.067.618.1l.183.028a18.98,18.98,0,0,1,7.139,10.155,1.075,1.075,0,0,0,.781.77,1.177,1.177,0,0,0,.282.034,1.211,1.211,0,0,0,.863-.36,1.06,1.06,0,0,0,.249-1.055,21.223,21.223,0,0,0-5.341-9.073c4.563.317,8.108-.355,11.1-2.077a1.064,1.064,0,0,0,.557-.933,1.211,1.211,0,0,0-.6-1.032" transform="translate(-26.172 -27.288)" fill="#bd504d"/>
        <path id="Trazado_1181747" data-name="Trazado 1181747" d="M279.385,233.479a1.08,1.08,0,0,0-1.018.5,12.184,12.184,0,0,1-5.284,4.24c-3.852,1.72-8.16,1.995-12.326,2.26-4.892.312-9.946.634-14.437,3.31a35.279,35.279,0,0,0-4-3.57,40.734,40.734,0,0,0-5.088-3.312,21.723,21.723,0,0,1,4.173-4.242c1.177-.938,2.436-1.826,3.652-2.685a45.462,45.462,0,0,0,6.353-5.085,23.2,23.2,0,0,0,6.249-12.274,1.139,1.139,0,0,0-.4-1.09,1.2,1.2,0,0,0-1.159-.221,1,1,0,0,0-.638.8,21.155,21.155,0,0,1-2.633,7.255c-2.217,3.749-5.616,6.335-9.2,8.871-2.737,1.936-6.122,4.331-8.418,7.61a81.081,81.081,0,0,0-17.31-5.764,30.464,30.464,0,0,0-3.593-16.188,1.057,1.057,0,0,0-1.483-.435,1.122,1.122,0,0,0-.485,1.545,28.267,28.267,0,0,1,3.315,14.571q-2.033-.45-4.052-.875a120.743,120.743,0,0,0-19.12-2.757,40.247,40.247,0,0,1-4.373-15.677,1.165,1.165,0,0,0-1.262-1.068,1.033,1.033,0,0,0-.995,1.134,42.9,42.9,0,0,0,4.082,15.526,61.339,61.339,0,0,0-12.144.9,15.835,15.835,0,0,0-2.062-6.431.964.964,0,0,0-.943-.551,1.209,1.209,0,0,0-1.027.6,1.071,1.071,0,0,0,.02,1.091,13.59,13.59,0,0,1,1.827,6.373,1.182,1.182,0,0,0,0,.459,13.641,13.641,0,0,1-.781,4.61,1.016,1.016,0,0,0,.166,1.028,1.194,1.194,0,0,0,1.122.381,1.116,1.116,0,0,0,.869-.742,15.443,15.443,0,0,0,.879-4.542,64.815,64.815,0,0,1,18.235-.579c3.206.309,6.6.812,10.66,1.582a42.42,42.42,0,0,1,8.828,9.268,1.106,1.106,0,0,0,1.036.492,1.2,1.2,0,0,0,.982-.661,1.014,1.014,0,0,0-.107-1.033,44.422,44.422,0,0,0-6.248-7.169q.841.178,1.682.36a126.158,126.158,0,0,1,15.778,4.255c7.517,2.718,17.34,8.039,21.456,17.954a1.17,1.17,0,0,0,.939.716,1.363,1.363,0,0,0,.163.01,1.176,1.176,0,0,0,.932-.433.99.99,0,0,0,.108-1,28.51,28.51,0,0,0-4.457-7.278,20.852,20.852,0,0,1,7.208-2.274c1.872-.275,3.848-.412,5.939-.557,6.992-.485,14.915-1.033,19.282-7.515a1.026,1.026,0,0,0,.093-1.046,1.207,1.207,0,0,0-.993-.649" transform="translate(-31.7 -38.195)" fill="#bd504d"/>
        <path id="Trazado_1181748" data-name="Trazado 1181748" d="M322.761,199.954a8.608,8.608,0,0,0-6.558-6.277,19.012,19.012,0,0,0-1.748-10.662,19.263,19.263,0,0,0-6.767-7.7,38.433,38.433,0,0,0-7.143-3.383c-1.071-.419-2.142-.838-3.193-1.3a25.638,25.638,0,0,1-3.835-2.114c4.78.938,9.8,1.527,14.77.61a1.02,1.02,0,0,0,.84-1.233,1.169,1.169,0,0,0-1.363-.963c-6.216,1.144-12.68-.313-18.4-1.619l-.145-.127c-.4-.351-.8-.7-1.193-1.068l-.889-.838a66,66,0,0,0-7.827-6.649c-11.719-8.028-27.574-10.725-47.128-8.016a35.978,35.978,0,0,0-4.78-7.587,1.018,1.018,0,0,0-1.482-.13,1.172,1.172,0,0,0-.174,1.664,36.686,36.686,0,0,1,5.908,10.462,118.6,118.6,0,0,1,3.661,12.032c2.506,9.405,5.1,19.131,12.561,26.039a1.126,1.126,0,0,0,1.619-.081,1.055,1.055,0,0,0-.047-1.542,30.926,30.926,0,0,1-6.644-9.221l-.011-.025c3.087-3.46,8.18-5.075,14.014-4.436A39.524,39.524,0,0,1,271.4,180.58a28.319,28.319,0,0,1,10.5,9.556,20.475,20.475,0,0,1,3.3,12.868,16.377,16.377,0,0,1-5.889,11.134,1,1,0,0,0-.16,1.458,1.188,1.188,0,0,0,1.681.209,18.835,18.835,0,0,0,6.718-14.244c.006-.3,0-.6,0-.9a94.7,94.7,0,0,0,9.819,13.69,1.019,1.019,0,0,0,.978.362,1.2,1.2,0,0,0,.885-.787A1.117,1.117,0,0,0,299,212.8,92,92,0,0,1,285.538,192.1,32.022,32.022,0,0,0,303.429,194a1.017,1.017,0,0,0,.844-1.225,1.174,1.174,0,0,0-1.361-.972,29.784,29.784,0,0,1-18.87-2.854,1.149,1.149,0,0,0-.307-.1A32.459,32.459,0,0,0,271.58,178.12a18.241,18.241,0,0,0,5.16-5.047,1.047,1.047,0,0,0,.146-.828,1.168,1.168,0,0,0-.534-.743,1.143,1.143,0,0,0-1.529.379,15.883,15.883,0,0,1-5.668,5.083,39,39,0,0,0-12.968-3.487,13.162,13.162,0,0,0,3.217-6,1.123,1.123,0,0,0-.871-1.367,1.047,1.047,0,0,0-1.315.8,10.973,10.973,0,0,1-3.982,6.236,1.357,1.357,0,0,0-.28.289,17.079,17.079,0,0,0-11.143,4.581,103.818,103.818,0,0,1-4.356-13.711,105.546,105.546,0,0,0-4.289-13.559c9.594-1.291,17.932-1.257,25.463.1a1.041,1.041,0,0,0,.622.378,23.908,23.908,0,0,1,17.3,15.239,1.155,1.155,0,0,0,1.491.7,1.037,1.037,0,0,0,.67-1.359,25.846,25.846,0,0,0-7.784-11.252,43.714,43.714,0,0,1,8.981,5.284,66.19,66.19,0,0,1,5.2,4.619c.994.947,1.988,1.895,3.014,2.8a32.194,32.194,0,0,0,8.987,5.708c.823.346,1.657.673,2.492,1a35.4,35.4,0,0,1,7.238,3.489,16.97,16.97,0,0,1,2.182,26.072,1.13,1.13,0,0,0,1.593,1.6,19.293,19.293,0,0,0,5.186-9.26c3.142.452,5.168,3.934,5.106,7.043-.079,4.024-2.833,7.614-4.9,9.965-.647.738-1.318,1.461-1.988,2.183a39.039,39.039,0,0,0-5.364,6.724,40.673,40.673,0,0,0-3.179,7.9c-1.462,4.513-2.973,9.18-6.847,12.072a1.145,1.145,0,0,0-.462,1.075,1.2,1.2,0,0,0,.681.96.966.966,0,0,0,.379.078,1.054,1.054,0,0,0,.63-.221c3.768-2.813,5.613-7.076,6.923-10.874.222-.646.438-1.294.653-1.941,1.2-3.616,2.34-7.031,4.587-10.031a54.65,54.65,0,0,1,3.711-4.291c1.113-1.2,2.252-2.429,3.293-3.745a74.862,74.862,0,0,0-.9,16.775,1.131,1.131,0,0,0,1.242,1.074,1.038,1.038,0,0,0,1.014-1.13,72.765,72.765,0,0,1,2.469-23.655,1.069,1.069,0,0,0,0-.558,10.484,10.484,0,0,0-.1-5.326" transform="translate(-41.168 -25.677)" fill="#bd504d"/>
        <path id="Trazado_1181749" data-name="Trazado 1181749" d="M200.982,277.992a24.28,24.28,0,0,0-11.777-2.551,75.069,75.069,0,0,0-9.91.984c-1.381.2-2.759.4-4.14.564a.469.469,0,0,0-.049.009,3.547,3.547,0,0,0-.737.095v-.009a37.611,37.611,0,0,1-8.8.105c-1.956-.237-3.98-.643-5.938-1.036-5.345-1.071-10.875-2.181-16.243-.214a1.167,1.167,0,0,0-.682,1.52,1.022,1.022,0,0,0,1.354.636c4-1.465,8.28-.994,11.941-.342,1.053.188,2.1.4,3.154.606a68.632,68.632,0,0,0,7.637,1.22,29.136,29.136,0,0,0,2.914.1,27.1,27.1,0,0,1-7.11,2.1c-1.054.158-2.155.247-3.219.333-3.246.263-6.6.535-9.362,2.778a1,1,0,0,0-.387.949,1.2,1.2,0,0,0,.763.9,1.169,1.169,0,0,0,.422.08,1.143,1.143,0,0,0,.727-.266c2.312-1.88,5.44-2.1,8.465-2.3a35.723,35.723,0,0,0,3.947-.415A29.591,29.591,0,0,0,175,279.311c1.189-.138,2.376-.3,3.558-.475l.934-.137c6.956-1.027,14.15-2.089,20.378,1.259a1.089,1.089,0,0,0,1.117-.024,1.211,1.211,0,0,0,.571-1.044,1.045,1.045,0,0,0-.575-.9" transform="translate(-26.041 -50.183)" fill="#bd504d"/>
        <path id="Trazado_1181750" data-name="Trazado 1181750" d="M145.443,256.132a1.2,1.2,0,0,0,.566-1.045,1.039,1.039,0,0,0-.578-.894,12.613,12.613,0,0,0-7.076-1.386,55.243,55.243,0,0,1-2.754-7.918,56.072,56.072,0,0,1,.607-30.854,1.045,1.045,0,0,0-.224-1.047,1.2,1.2,0,0,0-1.139-.342,1.083,1.083,0,0,0-.807.763,57.554,57.554,0,0,0-2.015,9.118,58.63,58.63,0,0,0-.4,11.884.755.755,0,0,0-.057.142,11.484,11.484,0,0,1-3.346,5.276,1.059,1.059,0,0,0-.348.772,1.128,1.128,0,0,0,1.909.861A13.235,13.235,0,0,0,132.1,238.7a58.3,58.3,0,0,0,3.994,14.5,12.914,12.914,0,0,0-7.063,4.675,1,1,0,0,0,.205,1.446,1.275,1.275,0,0,0,.759.254,1.141,1.141,0,0,0,.928-.47,10.916,10.916,0,0,1,13.4-2.941,1.087,1.087,0,0,0,1.117-.029" transform="translate(-23.347 -38.819)" fill="#bd504d"/>
        <g id="Grupo_1230415" data-name="Grupo 1230415" transform="translate(285.32 160.664)" opacity="0.2">
          <g id="Grupo_1230414" data-name="Grupo 1230414">
            <g id="Grupo_1230413" data-name="Grupo 1230413" clip-path="url(#clip-path-3)">
              <path id="Trazado_1181751" data-name="Trazado 1181751" d="M349.421,196.934a1.329,1.329,0,0,1,1.868,0,13.751,13.751,0,0,1,1.84,14.161,1.33,1.33,0,0,1-1.808.474,1.354,1.354,0,0,1-.473-1.807,10.984,10.984,0,0,0-1.426-10.959,1.361,1.361,0,0,1,0-1.869" transform="translate(-349.049 -196.55)" fill="#fff"/>
            </g>
          </g>
        </g>
        <g id="Grupo_1230418" data-name="Grupo 1230418" transform="translate(211.646 156.46)" opacity="0.2">
          <g id="Grupo_1230417" data-name="Grupo 1230417">
            <g id="Grupo_1230416" data-name="Grupo 1230416" clip-path="url(#clip-path-4)">
              <path id="Trazado_1181752" data-name="Trazado 1181752" d="M260.183,191.53A25.275,25.275,0,0,1,286.245,207.9c.6,1.595-1.956,2.284-2.548.7a22.645,22.645,0,0,0-23.514-14.427c-1.69.169-1.679-2.474,0-2.643" transform="translate(-258.919 -191.406)" fill="#fff"/>
            </g>
          </g>
        </g>
        <g id="Grupo_1230421" data-name="Grupo 1230421" transform="translate(192.529 201.071)" opacity="0.2">
          <g id="Grupo_1230420" data-name="Grupo 1230420">
            <g id="Grupo_1230419" data-name="Grupo 1230419" clip-path="url(#clip-path-5)">
              <path id="Trazado_1181753" data-name="Trazado 1181753" d="M237.174,246.029a27.97,27.97,0,0,1,17.5,13.585c.815,1.493-1.466,2.829-2.281,1.334a25.343,25.343,0,0,0-15.919-12.371,1.322,1.322,0,0,1,.7-2.548" transform="translate(-235.532 -245.982)" fill="#fff"/>
            </g>
          </g>
        </g>
        <g id="Grupo_1230424" data-name="Grupo 1230424" transform="translate(205.717 112.123)" opacity="0.2">
          <g id="Grupo_1230423" data-name="Grupo 1230423">
            <g id="Grupo_1230422" data-name="Grupo 1230422" clip-path="url(#clip-path-6)">
              <path id="Trazado_1181754" data-name="Trazado 1181754" d="M252.583,138.179a22.57,22.57,0,0,1,23.69,6.781c1.09,1.292-.771,3.171-1.869,1.869a19.977,19.977,0,0,0-21.119-6.1c-1.623.522-2.317-2.03-.7-2.548" transform="translate(-251.665 -137.166)" fill="#fff"/>
            </g>
          </g>
        </g>
        <g id="Grupo_1230427" data-name="Grupo 1230427" transform="translate(151.029 130.8)" opacity="0.2">
          <g id="Grupo_1230426" data-name="Grupo 1230426">
            <g id="Grupo_1230425" data-name="Grupo 1230425" clip-path="url(#clip-path-7)">
              <path id="Trazado_1181755" data-name="Trazado 1181755" d="M185.136,167.306a24.11,24.11,0,0,1,23.439-6.479,1.323,1.323,0,0,1-.7,2.549,21.424,21.424,0,0,0-20.867,5.8c-1.179,1.23-3.046-.64-1.869-1.869" transform="translate(-184.762 -160.015)" fill="#fff"/>
            </g>
          </g>
        </g>
        <g id="Grupo_1230430" data-name="Grupo 1230430" transform="translate(128.061 213.797)" opacity="0.2">
          <g id="Grupo_1230429" data-name="Grupo 1230429">
            <g id="Grupo_1230428" data-name="Grupo 1230428" clip-path="url(#clip-path-8)">
              <path id="Trazado_1181756" data-name="Trazado 1181756" d="M158.68,261.688a49.4,49.4,0,0,0,19.034,4.606c1.7.065,1.7,2.708,0,2.643a52.713,52.713,0,0,1-20.369-4.967c-1.538-.721-.2-3,1.334-2.282" transform="translate(-156.665 -261.55)" fill="#fff"/>
            </g>
          </g>
        </g>
        <rect id="Rectángulo_422940" data-name="Rectángulo 422940" width="343.206" height="1.065" transform="translate(32.752 378.705)" fill="#222b3d"/>
        <path id="Trazado_1181757" data-name="Trazado 1181757" d="M340.918,296.529l4.647,5.209-5,6.539-3-8.345Z" transform="translate(-61.632 -54.14)" fill="#bf6a5c"/>
        <path id="Trazado_1181758" data-name="Trazado 1181758" d="M335.858,297.6l3.175-2.671L326.8,285.894l-1.1,8.715,4.3.5s2.788,2.577,5.863,2.5" transform="translate(-59.465 -52.198)" fill="#a54a42"/>
        <path id="Trazado_1181759" data-name="Trazado 1181759" d="M332.752,295.79a4.158,4.158,0,0,0-1.8,1.122,6.736,6.736,0,0,0,5.4,2.885l3.633-3.057Z" transform="translate(-60.425 -54.005)" fill="#bf6a5c"/>
        <path id="Trazado_1181760" data-name="Trazado 1181760" d="M313.608,264.849l18.519,30.682a1,1,0,0,1-.334,1.37,1.044,1.044,0,0,1-1.459-.383l-17.4-31.274a.393.393,0,0,1,.679-.395" transform="translate(-57.125 -48.321)" fill="#222b3d"/>
        <path id="Trazado_1181761" data-name="Trazado 1181761" d="M323.525,295.641s-1.641,1.954-.084,2.486,4.94.041,5.317-.428-.16-1.488-1.647-1.644-3.586-.414-3.586-.414" transform="translate(-58.931 -53.977)" fill="#bf6a5c"/>
        <path id="Trazado_1181762" data-name="Trazado 1181762" d="M324.8,296.189c-2.175-.641-2.764-1.48-2.765-1.909s.606-1.135,1-.939,4.266,1.224,4.409,1.653.323.749-.059,1.242-2.586-.046-2.586-.046" transform="translate(-58.796 -53.551)" fill="#bf6a5c"/>
        <path id="Trazado_1181763" data-name="Trazado 1181763" d="M324.554,291.318c-1.413-.737-1.879-.93-2.267-.642a1.148,1.148,0,0,0-.393,1.388c.232.586,4.156,2.187,4.884,2.209s1.51-1.009.586-1.639a16.792,16.792,0,0,0-2.81-1.317" transform="translate(-58.754 -53.048)" fill="#bf6a5c"/>
        <path id="Trazado_1181764" data-name="Trazado 1181764" d="M325.5,288.545c-.99-.6-1.788-1.159-2.165-.98s-1.519.753-.972,1.847,3.7,2.353,4.7,2.556a1.076,1.076,0,0,0,.858-1.878,13.579,13.579,0,0,0-2.425-1.544" transform="translate(-58.829 -52.497)" fill="#bf6a5c"/>
        <path id="Trazado_1181765" data-name="Trazado 1181765" d="M323.768,287.58a.6.6,0,0,0-.435-.016c-.378.179-1.52.754-.972,1.847s3.7,2.353,4.7,2.556a1.076,1.076,0,0,0,.859-1.879" transform="translate(-58.829 -52.497)" fill="none" stroke="#a54a42" stroke-linecap="round" stroke-miterlimit="10" stroke-width="0.13"/>
        <path id="Trazado_1181766" data-name="Trazado 1181766" d="M321.915,292.4c.232.586,4.156,2.187,4.884,2.21a1.059,1.059,0,0,0,.946-.648" transform="translate(-58.774 -53.386)" fill="none" stroke="#a54a42" stroke-linecap="round" stroke-miterlimit="10" stroke-width="0.13"/>
        <path id="Trazado_1181767" data-name="Trazado 1181767" d="M327.52,295.3a.927.927,0,0,1-.136,1.02c-.381.492-2.586-.046-2.586-.046-2.175-.641-2.764-1.48-2.765-1.909a1.07,1.07,0,0,1,.266-.607" transform="translate(-58.796 -53.633)" fill="none" stroke="#a54a42" stroke-linecap="round" stroke-miterlimit="10" stroke-width="0.13"/>
        <path id="Trazado_1181768" data-name="Trazado 1181768" d="M322.928,296.813c-.24.571-.3,1.234.513,1.512,1.556.532,4.94.04,5.317-.428.234-.291.116-.794-.363-1.171" transform="translate(-58.931 -54.176)" fill="none" stroke="#a54a42" stroke-linecap="round" stroke-miterlimit="10" stroke-width="0.13"/>
        <path id="Trazado_1181769" data-name="Trazado 1181769" d="M338.674,294.914s-5.99-8.182-7.313-8.329-4.018-1.081-4.919-.71-2.706,3.33-2.706,3.33.316.962,1.969.747,1.667-.931,1.667-.931l2.2.661a4.263,4.263,0,0,0,1.86,4.282Z" transform="translate(-59.107 -52.179)" fill="#bf6a5c"/>
        <path id="Trazado_1181770" data-name="Trazado 1181770" d="M331.718,294.02s-2.391-.616-2.145-4.318l-2.2-.662s-1.739,2.241-3.637.185c0,0,1.927-3.1,2.706-3.33" transform="translate(-59.107 -52.198)" fill="none" stroke="#a54a42" stroke-linecap="round" stroke-miterlimit="10" stroke-width="0.13"/>
        <path id="Trazado_1181771" data-name="Trazado 1181771" d="M360.228,315.814l7.605,5.813,2.754,2.108c3.02-3.763,5.63-6.832,7.837-10.009,3.512-5.049,6.014-10.354,7.546-19.088a7.267,7.267,0,0,0-13.468-4.862l-8.852,18.772-1.812,3.843Z" transform="translate(-65.77 -52.237)" fill="#5c7fc1"/>
        <path id="Trazado_1181772" data-name="Trazado 1181772" d="M337,302.968a48.014,48.014,0,0,0,12.27,19.546c4.364,4.059,8.965,6.339,12.679,6.078a6.675,6.675,0,0,0,4.517-2.113l-1.448-5.232-.522-1.887-1.65-5.946-20-15.058Z" transform="translate(-61.528 -54.473)" fill="#5c7fc1"/>
        <g id="Grupo_1230433" data-name="Grupo 1230433" transform="translate(287.741 246.958)" opacity="0.5">
          <g id="Grupo_1230432" data-name="Grupo 1230432">
            <g id="Grupo_1230431" data-name="Grupo 1230431" clip-path="url(#clip-path-9)">
              <path id="Trazado_1181773" data-name="Trazado 1181773" d="M352.01,323.2c4.364,4.059,8.965,6.34,12.679,6.078a6.673,6.673,0,0,0,4.517-2.113c3.02-3.763,5.63-6.832,7.837-10.009l-1.01-15.039s-4.116,11.159-8.8,17.93c-3.321,4.8-7.173,6.61-15.226,3.153" transform="translate(-352.01 -302.118)" fill="#345ca1"/>
            </g>
          </g>
        </g>
        <path id="Trazado_1181774" data-name="Trazado 1181774" d="M379.368,446.224c.289,4.109,3.137,7.812,3.332,11.066.214,3.592-4.54,3.628-10.482,3.881l-15.2.647s-.827-3.284,3.4-3.579a46.321,46.321,0,0,1,9.821-5.7,12.658,12.658,0,0,0,2.936-8.107Z" transform="translate(-65.172 -81.142)" fill="#fff"/>
        <path id="Trazado_1181775" data-name="Trazado 1181775" d="M357.016,463.145l27.665.255s.16-6.909-4.037-9.909l-8.175.345-2.559-2.14-3.181,3.892s-10.846,1.556-9.713,7.557" transform="translate(-65.168 -82.47)" fill="#222b3d"/>
        <path id="Trazado_1181776" data-name="Trazado 1181776" d="M393.937,368.4a3.5,3.5,0,0,1-.392.023l-18.5.434,1.558-17.3.356-5.35,22.621.189,5.926-.706,1.332,5.061a14.075,14.075,0,0,1-12.9,17.652" transform="translate(-68.474 -63.114)" fill="#3d2425"/>
        <path id="Trazado_1181777" data-name="Trazado 1181777" d="M375.5,345.683l-2.4,82.493,12.339,1.146,6.093-69.013Z" transform="translate(-68.12 -63.114)" fill="#3d2425"/>
        <path id="Trazado_1181778" data-name="Trazado 1181778" d="M411.538,447.186c.334,3.73,2.465,7.717,2.7,10.671.258,3.261-4.063,3.376-9.459,3.709l-13.8.853s-.808-2.971,3.025-3.312a42.025,42.025,0,0,1,8.827-5.356,20.262,20.262,0,0,0,.957-7.129Z" transform="translate(-71.37 -81.544)" fill="#fff"/>
        <path id="Trazado_1181779" data-name="Trazado 1181779" d="M390.97,463.575l25.15-.25s.726-6.53-3.141-9.184l-8.125.7-2.363-1.9-2.823,3.593s-9.831,1.6-8.7,7.038" transform="translate(-71.366 -82.697)" fill="#222b3d"/>
        <path id="Trazado_1181780" data-name="Trazado 1181780" d="M410.358,352.574s2.913,69.872,2.683,79.051H401.8l-8.215-64.5Z" transform="translate(-71.86 -64.372)" fill="#3d2425"/>
        <line id="Línea_625" data-name="Línea 625" x1="28.848" y2="0.676" transform="translate(308.54 284.94)" fill="none" stroke="#4c3536" stroke-miterlimit="10" stroke-width="0.326"/>
        <path id="Trazado_1181781" data-name="Trazado 1181781" d="M406.224,353.061l-6.364-.713-.795-3.061" transform="translate(-72.86 -63.772)" fill="none" stroke="#4c3536" stroke-miterlimit="10" stroke-width="0.326"/>
        <path id="Trazado_1181782" data-name="Trazado 1181782" d="M383.9,349.287s.168,3.665-.444,3.774-5.354.645-5.354.645" transform="translate(-69.033 -63.772)" fill="none" stroke="#4c3536" stroke-miterlimit="10" stroke-width="0.326"/>
        <path id="Trazado_1181783" data-name="Trazado 1181783" d="M389.45,353.9l.813,11.429,3.244,5.106,1.01,9.5" transform="translate(-71.105 -64.615)" fill="none" stroke="#4c3536" stroke-miterlimit="10" stroke-width="0.326"/>
        <line id="Línea_626" data-name="Línea 626" x2="1.044" y2="12.434" transform="translate(321.358 293.39)" fill="none" stroke="#4c3536" stroke-miterlimit="10" stroke-width="0.326"/>
        <path id="Trazado_1181784" data-name="Trazado 1181784" d="M406.149,345.286l1.16,4.879-18.292,3.281-1.605-6.758-2.6,6.758-9.767-2.68.818-5.155Z" transform="translate(-68.474 -63.042)" fill="#fff"/>
        <path id="Trazado_1181785" data-name="Trazado 1181785" d="M377.9,267.363l1.171,1.993,3.589,6.122,2.13,3.626,9.148-1.692-6.525-26.041Z" transform="translate(-68.996 -45.895)" fill="#bf6a5c"/>
        <path id="Trazado_1181786" data-name="Trazado 1181786" d="M386.968,269.094s-7.8,2.2-10.464,2.648a5.3,5.3,0,0,1-6.123-4.443c-.524-4.007-.811-8.014.756-12.4a11.952,11.952,0,0,1,4.88-6.087,11.781,11.781,0,0,1,3.226-1.434l.011,0,.651-.159.066-.02c.325-.069.652-.119.984-.157a11.782,11.782,0,0,1,2.4-.061,6.76,6.76,0,0,1,6.135,8.109l-.57,2.782Z" transform="translate(-67.547 -45.087)" fill="#bf6a5c"/>
        <path id="Trazado_1181787" data-name="Trazado 1181787" d="M387.945,270.807a7.71,7.71,0,0,1-5.039,7.618l-1.7-2.9a11,11,0,0,0,6.737-4.714" transform="translate(-69.6 -49.443)" fill="#a54a42"/>
        <path id="Trazado_1181788" data-name="Trazado 1181788" d="M371.608,260.629c-.018,1.043.354,1.9.83,1.9s.875-.831.893-1.874-.354-1.9-.83-1.9-.875.83-.893,1.874" transform="translate(-67.847 -47.243)" fill="#222b3d"/>
        <path id="Trazado_1181789" data-name="Trazado 1181789" d="M384.041,254.211a4.014,4.014,0,0,1-2.564-5.126s-2.307,2.667-5.126.73c0,0-3.884,4.757-6.521.1s3.087-7.591,6.295-6.979c0,0,1.061-4.234,5.565-1.511,0,0,4.621-2.484,5.74,2.846,0,0,7.21-.836,5.18,6.791a4.1,4.1,0,0,1,2.5,3.707c-.14,3.145-3.291,5.249-3.291,5.249Z" transform="translate(-67.399 -43.913)" fill="#222b3d"/>
        <path id="Trazado_1181790" data-name="Trazado 1181790" d="M387.357,263.326c6.109-12.19,15.049,2.135,2.187,3.6Z" transform="translate(-70.723 -47.187)" fill="#bf6a5c"/>
        <path id="Trazado_1181791" data-name="Trazado 1181791" d="M377.372,324.849l22.218-1.092.642.063.316-.03,5.367.547s-.176-7.467.279-18.41c.195-4.879,1.121-10.17-.155-15.541-3.375-14.122-14.562-14.74-13.882-14.1l-12.005,8.347c-.493,1.7-2.13,5.026-2.905,8.876-.063.287-.118.589-.165.884a19.358,19.358,0,0,0-.244,3.088,7.209,7.209,0,0,0,.045.911,11.516,11.516,0,0,0,.14,1.356,12.715,12.715,0,0,0,4.266,7.627l-.043.178-.007.039Z" transform="translate(-68.802 -50.414)" fill="#5c7fc1"/>
        <path id="Trazado_1181792" data-name="Trazado 1181792" d="M393.631,276.148s-4.665,8.728-8.566,6l-.9-1.539Z" transform="translate(-70.139 -50.418)" fill="#bf6a5c"/>
        <path id="Trazado_1181793" data-name="Trazado 1181793" d="M374.339,338.477l34.414-.807c.22-6.611-5.6-36.536-7.194-43.317l-15.941,12.4-9.052-3.679Z" transform="translate(-68.346 -53.742)" fill="#5c7fc1"/>
        <path id="Trazado_1181794" data-name="Trazado 1181794" d="M374.326,336.012a4.288,4.288,0,0,1-1.74,2.4c-1.58,1.262-2.583,6.83,1.174,7.369s35.072-.246,36.732-1.032,1.059-4.835-.894-6.169-2.151-4.224-2.151-4.224Z" transform="translate(-67.768 -61.046)" fill="#5c7fc1"/>
        <path id="Trazado_1181795" data-name="Trazado 1181795" d="M404.962,280.6c10.025,4.706,10.985,9.024,13.917,33.443l-12.682-1.2s-11-17.092-11.873-25.464c-.177-1.691.1-11.724,10.639-6.779" transform="translate(-71.989 -50.984)" fill="#5c7fc1"/>
        <path id="Trazado_1181796" data-name="Trazado 1181796" d="M387.277,256.5l-.873,7.187,1.328-.105,2.16-4.469Z" transform="translate(-70.549 -46.831)" fill="#222b3d"/>
        <path id="Trazado_1181797" data-name="Trazado 1181797" d="M376.014,257.21a15.149,15.149,0,0,1-3.4,4.408,2.549,2.549,0,0,0,2.12,4.35l.651-.087" transform="translate(-67.889 -46.961)" fill="#bf6a5c"/>
        <path id="Trazado_1181798" data-name="Trazado 1181798" d="M376.014,257.21a15.149,15.149,0,0,1-3.4,4.408,2.549,2.549,0,0,0,2.12,4.35l.651-.087" transform="translate(-67.889 -46.961)" fill="none" stroke="#a54a42" stroke-linecap="round" stroke-miterlimit="10" stroke-width="0.407"/>
        <path id="Trazado_1181799" data-name="Trazado 1181799" d="M375.851,269.471l-2.516-.056c1.253,5.088,2.516.056,2.516.056" transform="translate(-68.163 -49.189)" fill="#fff"/>
        <path id="Trazado_1181800" data-name="Trazado 1181800" d="M379.2,261.856c-.018,1.043.354,1.9.83,1.9s.875-.831.893-1.874-.354-1.9-.83-1.9-.875.831-.893,1.874" transform="translate(-69.234 -47.467)" fill="#222b3d"/>
        <path id="Trazado_1181801" data-name="Trazado 1181801" d="M381.778,256.424c-2.047-.874-2.621.176-1.155,1.081,1.577.974,3.7.007,1.155-1.081" transform="translate(-69.344 -46.757)" fill="#222b3d"/>
        <path id="Trazado_1181802" data-name="Trazado 1181802" d="M372.836,255.329c-2.195-.374-2.508.781-.871,1.32,1.761.58,3.6-.856.871-1.32" transform="translate(-67.723 -46.604)" fill="#222b3d"/>
        <g id="Grupo_1230436" data-name="Grupo 1230436" transform="translate(304.634 275.58)" opacity="0.5">
          <g id="Grupo_1230435" data-name="Grupo 1230435">
            <g id="Grupo_1230434" data-name="Grupo 1230434" clip-path="url(#clip-path-10)">
              <path id="Trazado_1181803" data-name="Trazado 1181803" d="M410.765,345.253c-1.662.79-32.97,1.574-36.73,1.034a3.075,3.075,0,0,1-1.359-.525s20.16-.184,29.542-3.627a10.594,10.594,0,0,0,6.1-5,4.606,4.606,0,0,0,1.551,1.958c1.957,1.329,2.555,5.378.893,6.161" transform="translate(-372.676 -337.133)" fill="#345ca1"/>
            </g>
          </g>
        </g>
        <path id="Trazado_1181804" data-name="Trazado 1181804" d="M393.271,264.044a.112.112,0,0,0,.081-.115c0-.007-.051-.733.313-1.029a.765.765,0,0,1,.72-.073.111.111,0,1,0,.061-.213.969.969,0,0,0-.922.114.832.832,0,0,0-.145.154c.115-.569.391-1.006.746-1.088a.732.732,0,0,1,.656.2,1.5,1.5,0,0,1,.274.317.111.111,0,0,0,.19-.114c-.02-.033-.478-.784-1.171-.625-.67.154-1.1,1.242-.945,2.375a.11.11,0,0,0,.122.095l.018,0" transform="translate(-71.771 -47.754)" fill="#a54a42"/>
        <path id="Trazado_1181805" data-name="Trazado 1181805" d="M389.511,283.737c-2.755-3.687-14.589-.471-14.589-.471l-1.278,1.533Z" transform="translate(-68.219 -51.481)" fill="#fff"/>
        <path id="Trazado_1181806" data-name="Trazado 1181806" d="M393.753,282.287c-.913-3.693,9.228-8.839,9.228-8.839l2.906.762Z" transform="translate(-71.88 -49.925)" fill="#fff"/>
        <path id="Trazado_1181807" data-name="Trazado 1181807" d="M387.242,284.056l-13.894.694-.618.594,15.056.388Z" transform="translate(-68.052 -51.862)" fill="#d68005"/>
        <path id="Trazado_1181808" data-name="Trazado 1181808" d="M390.483,283.882l3.8-.78.4.846-4.143.783Z" transform="translate(-71.294 -51.688)" fill="#d68005"/>
        <path id="Trazado_1181809" data-name="Trazado 1181809" d="M406.214,273.2,395.126,281.3l.222.857,11.781-8.81Z" transform="translate(-72.141 -49.881)" fill="#d68005"/>
        <path id="Trazado_1181810" data-name="Trazado 1181810" d="M387.3,285.1l-14.569.439,5.917,23.01,14.852-.994Z" transform="translate(-68.052 -52.052)" fill="#ebae3d"/>
        <path id="Trazado_1181811" data-name="Trazado 1181811" d="M400.431,307.16l-3.679.217-3.8-13.766-.459-1.659-.392-1.432-.483-1.748-1.064-3.851,3.961-.772.944,3.678.517,2,.279,1.081.538,2.1Z" transform="translate(-71.306 -51.88)" fill="#d68005"/>
        <path id="Trazado_1181812" data-name="Trazado 1181812" d="M396.213,290.653l-3.875.69-.483-1.748,3.841-.944Z" transform="translate(-71.544 -52.701)" fill="#fff"/>
        <path id="Trazado_1181813" data-name="Trazado 1181813" d="M397.226,294.518l-3.842.6-.458-1.659,3.762-1.041Z" transform="translate(-71.74 -53.39)" fill="#fff"/>
        <path id="Trazado_1181814" data-name="Trazado 1181814" d="M407.072,273.414,395.4,282.192l5.918,23.01,11.955-9.332Z" transform="translate(-72.191 -49.919)" fill="#ebae3d"/>
        <g id="Grupo_1230439" data-name="Grupo 1230439" transform="translate(316.942 245.401)" opacity="0.5">
          <g id="Grupo_1230438" data-name="Grupo 1230438">
            <g id="Grupo_1230437" data-name="Grupo 1230437" clip-path="url(#clip-path-11)">
              <path id="Trazado_1181815" data-name="Trazado 1181815" d="M402.093,300.812c-2.177-1.232-1.654,3.119-4.79,1.173-2.714-1.684-3.41-2.042-4.638-1.6-6.579,2.378-4.676,10.5-4.676,10.5l13.455-.79Z" transform="translate(-387.734 -300.213)" fill="#d68005"/>
            </g>
          </g>
        </g>
        <path id="Trazado_1181816" data-name="Trazado 1181816" d="M380.717,309.822l11.884-1.041.246,1.066-11.884,1.041Z" transform="translate(-69.51 -56.377)" fill="#fff"/>
        <path id="Trazado_1181817" data-name="Trazado 1181817" d="M399.208,287.261l8.257-5.425.772,3.021-8.26,5.393Z" transform="translate(-72.886 -51.457)" fill="#fff"/>
        <path id="Trazado_1181818" data-name="Trazado 1181818" d="M404.562,312.2l.412-4.723-.359-3.328a.885.885,0,0,0-1.766.076L402.8,306.7l-.57,2.08Z" transform="translate(-73.438 -55.387)" fill="#bf6a5c"/>
        <path id="Trazado_1181819" data-name="Trazado 1181819" d="M402.414,313.356l-1.44-3.673L390.461,313.1c1.987,2.2,5.349,2.623,7.509,3.8l.99.522Z" transform="translate(-71.289 -56.541)" fill="#bf6a5c"/>
        <path id="Trazado_1181820" data-name="Trazado 1181820" d="M401.45,308.1l-2.368,2-.1-.155-1.6-2.634,0-.008-1.125-2.605-2.957-2.554a.658.658,0,0,1,.784-1.053l3.713,2.37,2.862,3.632Z" transform="translate(-71.766 -54.954)" fill="#bf6a5c"/>
        <path id="Trazado_1181821" data-name="Trazado 1181821" d="M399.05,309.552l-.511.6-1.511,1.774-.655-.8-1.4-1.731-.078-.095-.274-.338-1.841-2.723-2.042-3.022a.68.68,0,0,1,0-.767l.022-.032a.679.679,0,0,1,1.041-.091l2.724,2.763,2.149,2.178.254.245,1.2,1.159Z" transform="translate(-71.319 -55.161)" fill="#bf6a5c"/>
        <path id="Trazado_1181822" data-name="Trazado 1181822" d="M393.366,313.965l-3.251-1.6L388.675,310a.761.761,0,0,1,1.258-.852l1.261,1.68,1.53.866-1.782-1.925-1.665-3.135a.683.683,0,0,1,.082-.755.678.678,0,0,1,1.036,0l1.924,2.262,4.327,2.777Z" transform="translate(-70.943 -55.802)" fill="#bf6a5c"/>
        <path id="Trazado_1181823" data-name="Trazado 1181823" d="M390.537,305.876l1.925,2.261-1.378,1.632-1.663-3.135a.679.679,0,0,1,1.117-.758" transform="translate(-71.085 -55.803)" fill="#a54a42"/>
        <path id="Trazado_1181824" data-name="Trazado 1181824" d="M390.764,302.415a.678.678,0,0,1,1.041-.09l2.724,2.763-1.751,1.148-2.042-3.022a.68.68,0,0,1,0-.767Z" transform="translate(-71.319 -55.161)" fill="#a54a42"/>
        <path id="Trazado_1181825" data-name="Trazado 1181825" d="M397.8,303.461l-1.54,1.238-2.957-2.554a.658.658,0,0,1,.784-1.053Z" transform="translate(-71.766 -54.954)" fill="#a54a42"/>
        <path id="Trazado_1181826" data-name="Trazado 1181826" d="M391.195,311.544l-1.08,1.534-1.439-2.362a.761.761,0,0,1,1.258-.852Z" transform="translate(-70.943 -56.519)" fill="#a54a42"/>
        <path id="Trazado_1181827" data-name="Trazado 1181827" d="M404.312,314.176l1.2,1.075-2.874,4.522-1.78-1.53Z" transform="translate(-73.188 -57.361)" fill="#bf6a5c"/>
        <path id="Trazado_1181828" data-name="Trazado 1181828" d="M420.047,320.4c1.126,13.385-14.745,15.152-19.357-1.256l4.323-5.089Z" transform="translate(-73.157 -57.339)" fill="#5c7fc1"/>
        <g id="Grupo_1230442" data-name="Grupo 1230442" transform="translate(331.784 256.544)" opacity="0.5">
          <g id="Grupo_1230441" data-name="Grupo 1230441">
            <g id="Grupo_1230440" data-name="Grupo 1230440" clip-path="url(#clip-path-12)">
              <line id="Línea_627" data-name="Línea 627" x2="12.192" y2="5.146" transform="translate(0.072 0.171)" fill="none" stroke="#345ca1" stroke-miterlimit="10" stroke-width="0.452"/>
            </g>
          </g>
        </g>
        <g id="Grupo_1230445" data-name="Grupo 1230445" transform="translate(327.532 260.445)" opacity="0.5">
          <g id="Grupo_1230444" data-name="Grupo 1230444">
            <g id="Grupo_1230443" data-name="Grupo 1230443" clip-path="url(#clip-path-13)">
              <path id="Trazado_1181829" data-name="Trazado 1181829" d="M400.689,319.977c4.61,16.408,20.482,14.64,19.359,1.256l-.13-1.064c-2.163,8.325-13.19,9.556-18.072-1.551Z" transform="translate(-400.689 -318.618)" fill="#345ca1"/>
            </g>
          </g>
        </g>
        <g id="Grupo_1230448" data-name="Grupo 1230448" transform="translate(294.606 255.123)" opacity="0.5">
          <g id="Grupo_1230447" data-name="Grupo 1230447">
            <g id="Grupo_1230446" data-name="Grupo 1230446" clip-path="url(#clip-path-14)">
              <path id="Trazado_1181830" data-name="Trazado 1181830" d="M363.684,313.295l-3.275,5.68s2.022-4.526,1.638-6.868Z" transform="translate(-360.409 -312.107)" fill="#345ca1"/>
            </g>
          </g>
        </g>
        <path id="Trazado_1181831" data-name="Trazado 1181831" d="M109.689,448.234c-.289,4.109-2.931,5.657-3.126,8.911-.215,3.592,4.539,3.628,10.481,3.881l15.2.647s.827-3.284-3.4-3.579a46.294,46.294,0,0,0-9.821-5.7s-1.493-.848-1.521-5.873Z" transform="translate(-19.455 -81.524)" fill="#fff"/>
        <path id="Trazado_1181832" data-name="Trazado 1181832" d="M131.8,462.5l-27.665.255s-.16-6.909,4.037-9.908l8.175.345,2.559-2.139,3.181,3.89s10.846,1.556,9.713,7.557" transform="translate(-19.013 -82.352)" fill="#3d2425"/>
        <path id="Trazado_1181833" data-name="Trazado 1181833" d="M93.87,367.753a3.509,3.509,0,0,0,.392.023l18.5.434-1.558-17.3-.356-5.35-22.621.189-5.926-.706L80.973,350.1a14.075,14.075,0,0,0,12.9,17.652" transform="translate(-14.697 -62.997)" fill="#222b3d"/>
        <path id="Trazado_1181834" data-name="Trazado 1181834" d="M117.459,341.69l.661,86.9-12.529.964-6.225-70.5Z" transform="translate(-18.142 -62.385)" fill="#222b3d"/>
        <path id="Trazado_1181835" data-name="Trazado 1181835" d="M78.263,446.543c-.334,3.73-2.465,7.716-2.7,10.671-.257,3.261,4.063,3.376,9.459,3.709l13.8.853s.808-2.971-3.025-3.313a42.081,42.081,0,0,0-8.827-5.355,20.261,20.261,0,0,1-.957-7.129Z" transform="translate(-13.794 -81.426)" fill="#fff"/>
        <path id="Trazado_1181836" data-name="Trazado 1181836" d="M98.395,462.932l-25.15-.25s-.726-6.53,3.141-9.184l8.125.7,2.363-1.9,2.823,3.593s9.831,1.6,8.7,7.038" transform="translate(-13.363 -82.58)" fill="#3d2425"/>
        <path id="Trazado_1181837" data-name="Trazado 1181837" d="M79.292,340.266s-1.9,79.408-1.668,88.586H88.863l8.215-64.5Z" transform="translate(-14.169 -62.125)" fill="#222b3d"/>
        <line id="Línea_628" data-name="Línea 628" x2="28.848" y2="0.676" transform="translate(67.248 284.415)" fill="none" stroke="#3d4e66" stroke-miterlimit="10" stroke-width="0.452"/>
        <path id="Trazado_1181838" data-name="Trazado 1181838" d="M87.192,352.418l6.364-.713.795-3.061" transform="translate(-15.919 -63.655)" fill="none" stroke="#3d4e66" stroke-miterlimit="10" stroke-width="0.452"/>
        <path id="Trazado_1181839" data-name="Trazado 1181839" d="M109.815,348.644s-.168,3.665.445,3.774,5.352.645,5.352.645" transform="translate(-20.046 -63.655)" fill="none" stroke="#3d4e66" stroke-miterlimit="10" stroke-width="0.452"/>
        <path id="Trazado_1181840" data-name="Trazado 1181840" d="M104.433,353.261l-.813,11.429-3.244,5.106-1.01,9.5" transform="translate(-18.142 -64.498)" fill="none" stroke="#3d4e66" stroke-miterlimit="10" stroke-width="0.452"/>
        <line id="Línea_629" data-name="Línea 629" x1="1.043" y2="12.434" transform="translate(82.235 292.864)" fill="none" stroke="#3d4e66" stroke-miterlimit="10" stroke-width="0.452"/>
        <path id="Trazado_1181841" data-name="Trazado 1181841" d="M79.669,319.878l-2.118,23.446,37.35,2.086-2.03-33.467v0l-.82-10.909,2.539-13.51a.022.022,0,0,1,0-.015l-9.5-5.859c-.415-.141-.835-.278-1.25-.415l-.616-.2c-.205-.069-.415-.137-.615-.2l-.928-.3c-.3-.1-.606-.19-.9-.283-.586-.186-1.148-.356-1.67-.513-1.734,0-6.928-.054-6.928-.054-.884.225-1.8.493-2.72.781a109.062,109.062,0,0,0-12.158,4.868l5.146,14.522-.908,6.518Z" transform="translate(-14.115 -51.063)" fill="#ebae3d"/>
        <g id="Grupo_1230451" data-name="Grupo 1230451" transform="translate(65.387 265.586)" opacity="0.5">
          <g id="Grupo_1230450" data-name="Grupo 1230450">
            <g id="Grupo_1230449" data-name="Grupo 1230449" clip-path="url(#clip-path-15)">
              <path id="Trazado_1181842" data-name="Trazado 1181842" d="M80.621,324.907l-.63,6.859s19.629,6.722,33.93,6.86l-.017-5.406Z" transform="translate(-79.991 -324.907)" fill="#d68005"/>
            </g>
          </g>
        </g>
        <path id="Trazado_1181843" data-name="Trazado 1181843" d="M92.182,280.462l4.246,11.289,6.328-3.329,7.313,2.442-2.26-9.218c-2.1-.708-4.247-1.4-5.975-1.913-1.735,0-6.931-.053-6.931-.053-.882.225-1.8.49-2.72.781" transform="translate(-16.83 -51.063)" fill="#fff"/>
        <path id="Trazado_1181844" data-name="Trazado 1181844" d="M153.5,296.228c4.251-4.359,7.474-7.881,7.474-7.881l3.935,5.678s-2.763,3.281-6.473,7.66c-1.683-1.785-3.351-3.584-4.936-5.457" transform="translate(-28.025 -52.646)" fill="#e9a486"/>
        <path id="Trazado_1181845" data-name="Trazado 1181845" d="M121.529,289.257l11.111,18.4,17.342-17.711a18.765,18.765,0,0,1,6.876,10.316s-19.308,24.751-24.519,25.253c-6.414.591-17.058-19.375-17.058-19.375s6.2-16.874,6.247-16.884" transform="translate(-21.048 -52.812)" fill="#ebae3d"/>
        <g id="Grupo_1230454" data-name="Grupo 1230454" transform="translate(107.864 253.029)" opacity="0.5">
          <g id="Grupo_1230453" data-name="Grupo 1230453">
            <g id="Grupo_1230452" data-name="Grupo 1230452" clip-path="url(#clip-path-16)">
              <path id="Trazado_1181846" data-name="Trazado 1181846" d="M135.685,311.362a15.869,15.869,0,0,0-3.728,4.929s1.249-4.7,2.63-6.747Z" transform="translate(-131.956 -309.545)" fill="#d68005"/>
            </g>
          </g>
        </g>
        <path id="Trazado_1181847" data-name="Trazado 1181847" d="M164.013,294.77s3.7,1.919,5.523,1.617a6.581,6.581,0,0,0,2.841-1.547l-2.143-9.3a11.03,11.03,0,0,0-2.377-.844l-4.408,5.639Z" transform="translate(-29.842 -51.976)" fill="#e9a486"/>
        <path id="Trazado_1181848" data-name="Trazado 1181848" d="M165.2,295.261c1.232.546,3.273,1.327,4.486,1.126a6.581,6.581,0,0,0,2.841-1.547l-2.143-9.3A11.037,11.037,0,0,0,168,284.7c-.124.159-3.67,6.628-3.67,6.628a5.337,5.337,0,0,0,.865,3.938" transform="translate(-29.989 -51.976)" fill="#e9a486"/>
        <path id="Trazado_1181849" data-name="Trazado 1181849" d="M128.1,327.346l1.669,1.285,51.2-65.623-1.669-1.286Z" transform="translate(-23.389 -47.785)" fill="#222b3d"/>
        <path id="Trazado_1181850" data-name="Trazado 1181850" d="M127.895,332.79h0a2.54,2.54,0,0,0,3.554-.452L168.475,284.8a2.541,2.541,0,0,0-4.009-3.122L127.44,329.216a2.541,2.541,0,0,0,.454,3.574" transform="translate(-23.17 -51.249)" fill="#5c7fc1"/>
        <g id="Grupo_1230457" data-name="Grupo 1230457" transform="translate(147.868 163.206)" opacity="0.5" style="mix-blend-mode: screen;isolation: isolate">
          <g id="Grupo_1230456" data-name="Grupo 1230456">
            <g id="Grupo_1230455" data-name="Grupo 1230455" clip-path="url(#clip-path-17)">
              <path id="Trazado_1181851" data-name="Trazado 1181851" d="M186.6,210.353c-.28.364-.553.733-.81,1.108a27.429,27.429,0,0,0,44.27,32.369,28,28,0,0,0,2.644-4.147,27.432,27.432,0,0,0-46.1-29.33" transform="translate(-180.896 -199.659)" fill="#b9d6d3"/>
            </g>
          </g>
        </g>
        <path id="Trazado_1181852" data-name="Trazado 1181852" d="M182.05,206.621a31.91,31.91,0,1,0,44.752-5.812,31.911,31.911,0,0,0-44.752,5.812m42.016-2.263a27.441,27.441,0,0,1,7.64,34.324,27.96,27.96,0,0,1-2.644,4.147,27.429,27.429,0,0,1-44.27-32.369c.258-.374.531-.744.81-1.108a27.425,27.425,0,0,1,38.465-4.994" transform="translate(-32.028 -35.453)" fill="#222b3d"/>
        <g id="Grupo_1230460" data-name="Grupo 1230460" transform="translate(147.868 175.007)" style="mix-blend-mode: multiply;isolation: isolate">
          <g id="Grupo_1230459" data-name="Grupo 1230459">
            <g id="Grupo_1230458" data-name="Grupo 1230458" clip-path="url(#clip-path-18)">
              <path id="Trazado_1181853" data-name="Trazado 1181853" d="M185.792,214.1a27.43,27.43,0,0,0,44.271,32.369,28.131,28.131,0,0,0,2.644-4.146,34.929,34.929,0,0,1-22.549,6.642c-10.657-.825-20.91-8.033-24.043-18.251-1.636-5.355-1.326-11.052-.324-16.614" transform="translate(-180.896 -214.096)" fill="#b9d6d3"/>
            </g>
          </g>
        </g>
        <g id="Grupo_1230463" data-name="Grupo 1230463" transform="translate(186.565 169.589)" opacity="0.5">
          <g id="Grupo_1230462" data-name="Grupo 1230462">
            <g id="Grupo_1230461" data-name="Grupo 1230461" clip-path="url(#clip-path-19)">
              <path id="Trazado_1181854" data-name="Trazado 1181854" d="M229.9,207.633a24.491,24.491,0,0,1,10.988,15.988c.252,1.274-1.75,1.529-2,.26a22.52,22.52,0,0,0-10.218-14.649c-1.1-.685.137-2.278,1.231-1.6" transform="translate(-228.236 -207.468)" fill="#fff"/>
            </g>
          </g>
        </g>
        <path id="Trazado_1181855" data-name="Trazado 1181855" d="M169.265,286.7c-.138.535.4.929.632,1.1l0,0a.428.428,0,0,1,.093.078c-.016.057-.23.069-.481.172a1.275,1.275,0,0,0-.822.9.79.79,0,0,0,.12.555,1.65,1.65,0,0,0,.52.508h-.011c-.11.034-1.164.34-1.094.952.079.651.947,1.265.947,1.287a2.074,2.074,0,0,0-.635.185.528.528,0,0,0-.292.548c.051.484.672,1.03,1.057,1.33.076.059.147.114.243.177l.065.047.007,0c1.116.687,2.862,1.349,3.921.965a1.769,1.769,0,0,0,.732-1.538c1.3-.32,1.8-1.972,1.292-2.55,1.434-.98,1.251-1.926.68-2.508a2.115,2.115,0,0,0-.139-2.722,7.872,7.872,0,0,0-3.082-.521l0,0-.06.01c-.213.022-.965-.04-1.171,0-1.4-.02-2.4.562-2.521,1.023" transform="translate(-30.714 -52.156)" fill="#e9a486"/>
        <path id="Trazado_1181856" data-name="Trazado 1181856" d="M174.425,285.749s-4.638-.465-4.932.956,2.872,1.846,6.45,2.073" transform="translate(-30.942 -52.158)" fill="none" stroke="#d37453" stroke-miterlimit="10" stroke-width="0.171"/>
        <path id="Trazado_1181857" data-name="Trazado 1181857" d="M170.1,288.382a2.042,2.042,0,0,0-1.159.725c-.343.548-.039,1.078.495,1.408a37.958,37.958,0,0,0,4.628,1.1" transform="translate(-30.818 -52.652)" fill="none" stroke="#d37453" stroke-miterlimit="10" stroke-width="0.171"/>
        <path id="Trazado_1181858" data-name="Trazado 1181858" d="M169.332,290.991s-1.114.213-1.1.953.947,1.287.947,1.287l3.851,1.122" transform="translate(-30.715 -53.128)" fill="none" stroke="#d37453" stroke-miterlimit="10" stroke-width="0.171"/>
        <path id="Trazado_1181859" data-name="Trazado 1181859" d="M169.178,293.731s-.728.025-.9.476.438,1.334,1.6,1.958a12.4,12.4,0,0,0,2.574.964" transform="translate(-30.719 -53.629)" fill="none" stroke="#d37453" stroke-miterlimit="10" stroke-width="0.171"/>
        <path id="Trazado_1181860" data-name="Trazado 1181860" d="M162.545,287.132s1.793-3.732,4.617-5.42c1.382-.293,5.721,4.226,5.721,4.226-.659,1.833-3.165,1.743-4.726.078,0,0-1.081,3.611-6.036,4.121Z" transform="translate(-29.6 -51.432)" fill="#e9a486"/>
        <g id="Grupo_1230466" data-name="Grupo 1230466" transform="translate(98.185 248.689)" opacity="0.5">
          <g id="Grupo_1230465" data-name="Grupo 1230465">
            <g id="Grupo_1230464" data-name="Grupo 1230464" clip-path="url(#clip-path-20)">
              <path id="Trazado_1181861" data-name="Trazado 1181861" d="M120.115,304.236l.6,12.279s3.486,4.963,4.6,6.124c0,0-4.52-4.909-5.2-18.4" transform="translate(-120.115 -304.236)" fill="#d68005"/>
            </g>
          </g>
        </g>
        <path id="Trazado_1181862" data-name="Trazado 1181862" d="M95.51,277.273c4.135,2.162,7.853,8.74,7.853,8.74l2.627-7.286-.066-.352-.764-4.063a7.22,7.22,0,0,0-2.28-3.275,37.115,37.115,0,0,0-7.047-4.546Z" transform="translate(-17.438 -48.655)" fill="#e9a486"/>
        <path id="Trazado_1181863" data-name="Trazado 1181863" d="M98.213,272.8s3.031,4.981,8.205,6.593l-.764-4.063a7.22,7.22,0,0,0-2.28-3.275Z" transform="translate(-17.931 -49.67)" fill="#d8886c"/>
        <path id="Trazado_1181864" data-name="Trazado 1181864" d="M95.7,266.759c1.731,2.693,7.189,7.5,11.02,7.255,1.711-.014,5.126-2.679,6.793-5.355a7.431,7.431,0,0,0,.623-3.125c.014-.37.016-.757.013-1.153a49.808,49.808,0,0,0-1.151-9.35c-.637-2.1-4.111-3.45-7.779-3.544-7.292-.191-8.444,3.385-8.446,3.389a15.833,15.833,0,0,0-1.263,3.181c-.955,3.507-.875,7.039.19,8.7" transform="translate(-17.317 -45.915)" fill="#e9a486"/>
        <path id="Trazado_1181865" data-name="Trazado 1181865" d="M113.021,270.863c-.132.035-4.667.076-4.667.076s.306,2.442,2.192,2.457,2.475-2.533,2.475-2.533" transform="translate(-19.783 -49.454)" fill="#fff"/>
        <path id="Trazado_1181866" data-name="Trazado 1181866" d="M105.745,265.335c.007-.81.361-1.462.79-1.456s.769.667.762,1.477-.36,1.462-.789,1.457-.77-.668-.763-1.478" transform="translate(-19.307 -48.178)" fill="#222b3d"/>
        <path id="Trazado_1181867" data-name="Trazado 1181867" d="M115.242,265.335c.007-.81.362-1.462.79-1.456s.769.667.762,1.477-.36,1.462-.789,1.457-.77-.668-.763-1.478" transform="translate(-21.041 -48.178)" fill="#222b3d"/>
        <path id="Trazado_1181868" data-name="Trazado 1181868" d="M110.97,263.432s-.246.808,1.406,2.959a1.236,1.236,0,0,1-1.463,1.9" transform="translate(-20.25 -48.097)" fill="#e9a486"/>
        <path id="Trazado_1181869" data-name="Trazado 1181869" d="M110.97,263.432s-.246.808,1.406,2.959a1.236,1.236,0,0,1-1.463,1.9" transform="translate(-20.25 -48.097)" fill="none" stroke="#d37453" stroke-linecap="round" stroke-miterlimit="10" stroke-width="0.295"/>
        <path id="Trazado_1181870" data-name="Trazado 1181870" d="M115.137,261.824c0-.966,2.645-.574,2.791.068s-2.79.723-2.791-.068" transform="translate(-21.021 -47.697)" fill="#222b3d"/>
        <path id="Trazado_1181871" data-name="Trazado 1181871" d="M103.359,262.124c.041-.472,3.5-1.147,3.512-.114.007.658-3.58.9-3.512.114" transform="translate(-18.871 -47.738)" fill="#222b3d"/>
        <path id="Trazado_1181872" data-name="Trazado 1181872" d="M96.424,264.745l-.06-5.72a4.956,4.956,0,0,0,3.172-4.882s10.358,5.044,16.842.979a5.139,5.139,0,0,0,2.545-3.275c-1.581-1.434-4.159-1.332-5.171-1.225,0,0-3.058-6.166-9.376-6.557s-7.627,3.745-7.627,3.745a7.066,7.066,0,0,0-3.224.994c-1.822,1.968-.266,8.384-.266,8.384a5.93,5.93,0,0,1,2,2.9l-.073,3.859Z" transform="translate(-16.914 -44.556)" fill="#222b3d"/>
        <path id="Trazado_1181873" data-name="Trazado 1181873" d="M114.678,263.226a.175.175,0,0,0-.176-.168h-5.113a.157.157,0,0,0-.132.062.165.165,0,0,0-.053.132c.009.1.018.413.062.826a1.576,1.576,0,0,0-1.362.017c.052-.413.07-.746.079-.843a.165.165,0,0,0-.053-.132.158.158,0,0,0-.132-.062h-6.123a.131.131,0,0,0-.078.035l-.431-.1s-.009-.009-.009,0l-.167-.044-.606-.141-3.242-.755h-.017l-.791-.184-1.2-.281h-.009l-.263-.062-.053-.008.238.325.008.009.027.035v.009l.07.087,1.37.369.237.061,3.883,1.045.07.017h.018l.729.2a5.776,5.776,0,0,0,.141,2.047,1.79,1.79,0,0,0,.395.764,1.24,1.24,0,0,0,.966.422h.062c.184.009.43.026.72.053.439.035.966.087,1.493.087a5.266,5.266,0,0,0,1.318-.15c.746-.2,1.1-1.353,1.274-2.319a1.212,1.212,0,0,1,1.5-.061,5.537,5.537,0,0,0,.562,1.915l.008.009a1.023,1.023,0,0,0,.264.307.594.594,0,0,0,.246.149,3.865,3.865,0,0,0,1.124.15c.264,0,.527-.026.782-.044.167-.017.325-.035.474-.043a5.159,5.159,0,0,1,.642-.053.966.966,0,0,0,.711-.29.207.207,0,0,0,.052-.043c.475-.527.642-1.652.484-3.356m-8.222,3.329a8.645,8.645,0,0,1-2.688.043c-.325-.026-.6-.052-.808-.052a1.443,1.443,0,0,1-.211-.018h-.008a.882.882,0,0,1-.475-.281,1.263,1.263,0,0,1-.211-.316,5.275,5.275,0,0,1-.21-2.5h5.763c-.071.948-.369,2.917-1.151,3.127m7.686-.607v.018a1.38,1.38,0,0,1-.114.228c-.035.044-.07.1-.105.132a.628.628,0,0,1-.491.22c-.176,0-.414.026-.686.052a.22.22,0,0,0-.061.018h-.009a10.854,10.854,0,0,1-1.124.07,3.438,3.438,0,0,1-1.028-.132c-.43-.141-.7-1.151-.843-2.144v-.035c-.044-.325-.079-.659-.1-.948h4.743a5.976,5.976,0,0,1-.185,2.521" transform="translate(-17.309 -47.748)" fill="#fff"/>
        <path id="Trazado_1181874" data-name="Trazado 1181874" d="M94.775,262.982s-.846-3.175-2.751-3.1c-2.868.107-3.251,8.821,2.67,6.221Z" transform="translate(-16.433 -47.448)" fill="#e9a486"/>
        <path id="Trazado_1181875" data-name="Trazado 1181875" d="M93.308,265.284a.111.111,0,0,1-.081-.115c0-.007.051-.733-.313-1.029a.765.765,0,0,0-.72-.073.111.111,0,0,1-.061-.213.969.969,0,0,1,.922.114.852.852,0,0,1,.145.153c-.115-.568-.391-1.005-.746-1.087a.732.732,0,0,0-.656.2,1.506,1.506,0,0,0-.274.317.111.111,0,1,1-.19-.114c.02-.033.478-.784,1.171-.625.67.154,1.1,1.242.945,2.375a.111.111,0,0,1-.122.095l-.018,0" transform="translate(-16.672 -47.98)" fill="#d37453"/>
        <g id="Grupo_1230469" data-name="Grupo 1230469" transform="translate(84.212 237.355)" opacity="0.5">
          <g id="Grupo_1230468" data-name="Grupo 1230468">
            <g id="Grupo_1230467" data-name="Grupo 1230467" clip-path="url(#clip-path-21)">
              <path id="Trazado_1181876" data-name="Trazado 1181876" d="M104.8,290.374s.427,32.914-1.437,52.64" transform="translate(-103.083 -290.371)" fill="none" stroke="#d68005" stroke-miterlimit="10" stroke-width="0.678"/>
            </g>
          </g>
        </g>
        <path id="Trazado_1181877" data-name="Trazado 1181877" d="M166.145,289.779a6.376,6.376,0,0,0,2.746-3.123,4.1,4.1,0,0,0,2.485,1.264c1.978.018,2.241-1.341,2.241-1.341l-1.4-1.377" transform="translate(-30.334 -52.072)" fill="none" stroke="#d37453" stroke-miterlimit="10" stroke-width="0.171"/>
        <path id="Trazado_1181878" data-name="Trazado 1181878" d="M119.676,331.8a59.227,59.227,0,0,0,6.57-.469c1.825-.365,4.31-2.174,5.858-.566s1.338,5.258,1.338,5.258l-5.579,3.807s-5.476-1.564-8.187-3.6Z" transform="translate(-21.85 -60.271)" fill="#e9a486"/>
        <path id="Trazado_1181879" data-name="Trazado 1181879" d="M137.727,335.516c-.271.481-.932.393-1.22.356l0,0a.414.414,0,0,0-.121-.008c-.028.053.117.209.227.458a1.277,1.277,0,0,1-.031,1.217.789.789,0,0,1-.472.316,1.645,1.645,0,0,1-.727,0l.008.007c.055.1.6,1.052.127,1.445a2.65,2.65,0,0,1-1.575.271,2.065,2.065,0,0,1,.329.574.527.527,0,0,1-.17.6,2.63,2.63,0,0,1-1.684.224c-.095-.01-.186-.019-.3-.04l-.079-.011,0-.007c-1.28-.28-3-1.014-3.493-2.026a1.766,1.766,0,0,1,.54-1.614c-.711-1.129.074-2.669.84-2.733-.354-1.7.434-2.255,1.249-2.278a2.115,2.115,0,0,1,1.989-1.864,7.861,7.861,0,0,1,2.581,1.763l0,0s.014.02.036.048c.137.164.722.64.841.814,1.022.956,1.34,2.071,1.105,2.486" transform="translate(-23.459 -60.322)" fill="#e9a486"/>
        <path id="Trazado_1181880" data-name="Trazado 1181880" d="M135.544,331.632s3.663,2.883,2.888,4.111-3.349-.665-6.083-2.983" transform="translate(-24.164 -60.549)" fill="none" stroke="#d37453" stroke-miterlimit="10" stroke-width="0.171"/>
        <path id="Trazado_1181881" data-name="Trazado 1181881" d="M137.007,336.988a2.042,2.042,0,0,1,.331,1.326c-.133.634-.719.8-1.333.67a37.905,37.905,0,0,1-4.094-2.42" transform="translate(-24.084 -61.449)" fill="none" stroke="#d37453" stroke-miterlimit="10" stroke-width="0.171"/>
        <path id="Trazado_1181882" data-name="Trazado 1181882" d="M135.8,339.493s.655.927.135,1.453-1.575.271-1.575.271l-3.552-1.865" transform="translate(-23.883 -61.958)" fill="none" stroke="#d37453" stroke-miterlimit="10" stroke-width="0.171"/>
        <path id="Trazado_1181883" data-name="Trazado 1181883" d="M134.1,341.633s.507.523.318.967-1.241.656-2.508.3a12.416,12.416,0,0,1-2.523-1.092" transform="translate(-23.624 -62.375)" fill="none" stroke="#d37453" stroke-miterlimit="10" stroke-width="0.171"/>
        <path id="Trazado_1181884" data-name="Trazado 1181884" d="M112.065,330.466l.98-8.209-22.3-10.527L88.3,302.462l-1.453-5.509s-4.1-9.344-10.38-10.363c0,0-9.631,4.441,1.874,31.548.648,2.2,15.924,11.076,33.724,12.328" transform="translate(-13.272 -52.325)" fill="#ebae3d"/>
        <g id="Grupo_1230472" data-name="Grupo 1230472" transform="translate(73.309 244.556)" opacity="0.5">
          <g id="Grupo_1230471" data-name="Grupo 1230471">
            <g id="Grupo_1230470" data-name="Grupo 1230470" clip-path="url(#clip-path-22)">
              <path id="Trazado_1181885" data-name="Trazado 1181885" d="M90.011,299.268s3.462,12.871,3.9,14.777l21.453,10.127" transform="translate(-89.743 -299.196)" fill="none" stroke="#d68005" stroke-miterlimit="10" stroke-width="0.678"/>
            </g>
          </g>
        </g>
        <path id="Trazado_1181886" data-name="Trazado 1181886" d="M83.443,164.695c-5.656-1.943-16.011,10.17-16.011,10.17l-.25,2.581Z" transform="translate(-12.266 -30.031)" fill="#fff"/>
        <path id="Trazado_1181887" data-name="Trazado 1181887" d="M87.7,160.439c-3.684-3.3,3.441-16.245,3.441-16.245l3.678-1.308Z" transform="translate(-15.819 -26.088)" fill="#fff"/>
        <path id="Trazado_1181888" data-name="Trazado 1181888" d="M80.988,166.542,66.576,177.455l-.229,1.091,16.452-10.6Z" transform="translate(-12.113 -30.407)" fill="#3e7f6e"/>
        <path id="Trazado_1181889" data-name="Trazado 1181889" d="M84.258,165.735l3.505-3.615,1.054.612-3.876,3.873Z" transform="translate(-15.384 -29.6)" fill="#3e7f6e"/>
        <path id="Trazado_1181890" data-name="Trazado 1181890" d="M94.532,141.448l-5.985,16.8.866.758,6.2-18.082Z" transform="translate(-16.167 -25.73)" fill="#3e7f6e"/>
        <path id="Trazado_1181891" data-name="Trazado 1181891" d="M81.671,167.608,66.347,178.74l23.194,20.379,15.22-11.936Z" transform="translate(-12.114 -30.601)" fill="#56998a"/>
        <path id="Trazado_1181892" data-name="Trazado 1181892" d="M111.975,183.426l-3.792,2.926-14.156-12L92.32,172.9l-1.469-1.251-1.8-1.524-3.962-3.356,3.689-3.727,3.706,3.258,2.021,1.771,1.09.957,2.111,1.856Z" transform="translate(-15.536 -29.769)" fill="#3e7f6e"/>
        <path id="Trazado_1181893" data-name="Trazado 1181893" d="M95.393,168.8l-3.657,3.577-1.8-1.524,3.433-3.825Z" transform="translate(-16.421 -30.497)" fill="#ebae3d"/>
        <path id="Trazado_1181894" data-name="Trazado 1181894" d="M99.324,172.227l-3.683,3.461-1.706-1.447,3.278-3.87Z" transform="translate(-17.15 -31.106)" fill="#ebae3d"/>
        <path id="Trazado_1181895" data-name="Trazado 1181895" d="M95.718,141.067l-6.111,17.968L112.8,179.414l6.009-18.77Z" transform="translate(-16.36 -25.756)" fill="#56998a"/>
        <path id="Trazado_1181896" data-name="Trazado 1181896" d="M92.8,199.416l12-9.814,1.045.964-12,9.814Z" transform="translate(-16.942 -34.617)" fill="#fff"/>
        <path id="Trazado_1181897" data-name="Trazado 1181897" d="M96.859,162.249l4.9-11.868,3.04,2.679L99.873,164.9Z" transform="translate(-17.684 -27.456)" fill="#fff"/>
        <path id="Trazado_1181898" data-name="Trazado 1181898" d="M282.181,355.1s-7.227-12.752-15.382-15.749l1.918,8.328Z" transform="translate(-48.712 -61.958)" fill="#d5d7e3"/>
        <path id="Trazado_1181899" data-name="Trazado 1181899" d="M280.842,355.653s-7.874-12.386-17.3-13.277l-4.081,4.894,17.882,14.175,2.488-1.606Z" transform="translate(-47.372 -62.51)" fill="#f0f1f5"/>
        <path id="Trazado_1181900" data-name="Trazado 1181900" d="M312.935,342.761l2.583,8.225-1.292,2.99-.818-4.807Z" transform="translate(-57.135 -62.58)" fill="#f0f1f5"/>
        <path id="Trazado_1181901" data-name="Trazado 1181901" d="M284.385,359.909l1.008-4.185s9.081-11.209,22.33-12.963l.727,7.179Z" transform="translate(-51.922 -62.58)" fill="#fff"/>
        <path id="Trazado_1181902" data-name="Trazado 1181902" d="M279.519,360.8s-10.1-13.377-21.784-13.143l12.735,34.466s7.773.471,17.848,10.458Z" transform="translate(-47.057 -63.474)" fill="#bd504d"/>
        <path id="Trazado_1181903" data-name="Trazado 1181903" d="M293.183,392.827c-.7.667-8.8-31.781-8.8-31.781s8.5-9.367,25.921-12.06l7,35.013s-16.4,1.466-24.125,8.828" transform="translate(-51.922 -63.717)" fill="#d66767"/>
        <path id="Trazado_1181904" data-name="Trazado 1181904" d="M292.334,364.114c4.483-4.2,9.5-6.852,15.318-7.118l2.053,9.3c-5.642.674-10.275,3.789-14.454,7.262Z" transform="translate(-53.374 -65.18)" fill="#fff"/>
        <path id="Trazado_1181905" data-name="Trazado 1181905" d="M221.964,399.541v-6.416h-3.345a14.659,14.659,0,0,0-1.982-4.786l2.36-2.367-4.532-4.532-2.366,2.367a14.5,14.5,0,0,0-4.786-1.989v-3.345H200.9v3.345a14.49,14.49,0,0,0-4.786,1.989l-2.367-2.367-4.532,4.532,2.361,2.367a14.624,14.624,0,0,0-1.982,4.786h-3.345v6.416h3.345a14.5,14.5,0,0,0,1.989,4.786l-2.367,2.366,4.532,4.538,2.367-2.366a14.652,14.652,0,0,0,4.786,1.982v3.345h6.416v-3.345a14.659,14.659,0,0,0,4.786-1.982l2.366,2.366L219,406.694l-2.366-2.366a14.531,14.531,0,0,0,1.989-4.786Zm-9.637.482a9.016,9.016,0,0,1-4.538,4.532c-.156.072-.313.137-.476.2a8.967,8.967,0,0,1-6.416,0c-.163-.058-.32-.123-.477-.2a9.016,9.016,0,0,1-4.538-4.532c-.071-.156-.137-.32-.2-.482a8.967,8.967,0,0,1,0-6.416c.059-.163.124-.326.2-.483a9.078,9.078,0,0,1,4.532-4.532c.157-.071.32-.137.483-.2a8.968,8.968,0,0,1,6.416,0c.163.059.326.124.482.2a9.078,9.078,0,0,1,4.532,4.532c.072.157.137.32.2.483a8.967,8.967,0,0,1,0,6.416c-.059.163-.123.326-.2.482" transform="translate(-34.004 -69.101)" fill="#5c7fc1"/>
        <path id="Trazado_1181906" data-name="Trazado 1181906" d="M187.638,354.575l-1.737-2.869-1.5.906a7.656,7.656,0,0,0-2.183-1.6l.415-1.7-3.254-.8-.418,1.7a7.574,7.574,0,0,0-2.679.406l-.906-1.5-2.869,1.737.906,1.5a7.6,7.6,0,0,0-1.6,2.185l-1.7-.418-.8,3.253,1.7.419a7.646,7.646,0,0,0,.41,2.677l-1.5.906,1.737,2.869,1.5-.9a7.58,7.58,0,0,0,2.185,1.6l-.418,1.7,3.255.8.418-1.7a7.646,7.646,0,0,0,2.677-.409l.906,1.5,2.869-1.737-.9-1.5a7.65,7.65,0,0,0,1.6-2.182l1.7.418.8-3.257-1.7-.418a7.593,7.593,0,0,0-.406-2.679Zm-4.179,2.825a4.715,4.715,0,0,1-.8,3.255c-.051.075-.1.146-.16.217a4.687,4.687,0,0,1-2.869,1.737c-.088.018-.177.031-.266.042a4.713,4.713,0,0,1-3.257-.8c-.074-.051-.148-.106-.218-.163a4.687,4.687,0,0,1-1.737-2.869c-.018-.089-.033-.179-.043-.269a4.744,4.744,0,0,1,.8-3.253c.051-.074.105-.148.163-.218a4.693,4.693,0,0,1,2.869-1.737c.089-.018.18-.033.269-.043a4.745,4.745,0,0,1,3.253.8c.074.051.148.105.218.163a4.693,4.693,0,0,1,1.737,2.869c.018.089.033.18.043.269" transform="translate(-30.913 -63.63)" fill="#d66767"/>
        <path id="Trazado_1181907" data-name="Trazado 1181907" d="M183.355,89.572a5.413,5.413,0,1,1-5.412-5.412,5.413,5.413,0,0,1,5.412,5.412" transform="translate(-31.5 -15.366)" fill="#5c7fc1"/>
        <path id="Trazado_1181908" data-name="Trazado 1181908" d="M185.062,89.994c-5.463,11.853-13.868,19.629-18.772,17.368s-4.452-13.7,1.011-25.554S181.169,62.18,186.074,64.44,190.525,78.141,185.062,89.994Z" transform="translate(-29.74 -11.694)" fill="none" stroke="#222b3d" stroke-miterlimit="10" stroke-width="0.75"/>
        <path id="Trazado_1181909" data-name="Trazado 1181909" d="M182.707,80.137C191.257,90,194.88,100.859,190.8,104.4s-14.319-1.587-22.869-11.447-12.173-20.722-8.093-24.259S174.156,70.277,182.707,80.137Z" transform="translate(-28.877 -12.337)" fill="none" stroke="#222b3d" stroke-miterlimit="10" stroke-width="0.75"/>
        <path id="Trazado_1181910" data-name="Trazado 1181910" d="M170.467,78.891c12.062-4.984,23.512-4.978,25.574.014S190,91.982,177.935,96.966s-23.512,4.977-25.574-.014S158.405,83.875,170.467,78.891Z" transform="translate(-27.759 -13.722)" fill="none" stroke="#222b3d" stroke-miterlimit="10" stroke-width="0.75"/>
        <path id="Trazado_1181911" data-name="Trazado 1181911" d="M152.863,99.641a1.155,1.155,0,1,1-1.154-1.154,1.154,1.154,0,0,1,1.154,1.154" transform="translate(-27.488 -17.982)" fill="#d66767"/>
        <path id="Trazado_1181912" data-name="Trazado 1181912" d="M199.728,111.566a1.154,1.154,0,1,1-1.154-1.154,1.154,1.154,0,0,1,1.154,1.154" transform="translate(-36.044 -20.159)" fill="#ebae3d"/>
        <path id="Trazado_1181913" data-name="Trazado 1181913" d="M194.437,66.319a1.155,1.155,0,1,1-1.154-1.154,1.154,1.154,0,0,1,1.154,1.154" transform="translate(-35.078 -11.898)" fill="#56998a"/>
        <path id="Trazado_1181914" data-name="Trazado 1181914" d="M378.13,144.9l-33.463-27.645,57.116-.985Zm-14.145-20.885,13.194,10.9,9.327-11.289Z" transform="translate(-62.929 -21.228)" fill="#d66767"/>
        <line id="Línea_630" data-name="Línea 630" x1="48.995" y2="1.059" transform="translate(286.732 96.437)" fill="none" stroke="#fff" stroke-miterlimit="10" stroke-width="0.321"/>
        <line id="Línea_631" data-name="Línea 631" x2="0.048" y2="2.224" transform="translate(334.744 96.458)" fill="none" stroke="#fff" stroke-miterlimit="10" stroke-width="0.321"/>
        <line id="Línea_632" data-name="Línea 632" x2="0.034" y2="1.548" transform="translate(334.027 96.474)" fill="none" stroke="#fff" stroke-miterlimit="10" stroke-width="0.321"/>
        <line id="Línea_633" data-name="Línea 633" x2="0.034" y2="1.548" transform="translate(333.347 96.488)" fill="none" stroke="#fff" stroke-miterlimit="10" stroke-width="0.321"/>
        <line id="Línea_634" data-name="Línea 634" x2="0.034" y2="1.548" transform="translate(332.667 96.503)" fill="none" stroke="#fff" stroke-miterlimit="10" stroke-width="0.321"/>
        <line id="Línea_635" data-name="Línea 635" x2="0.048" y2="2.224" transform="translate(331.988 96.518)" fill="none" stroke="#fff" stroke-miterlimit="10" stroke-width="0.321"/>
        <line id="Línea_636" data-name="Línea 636" x2="0.034" y2="1.548" transform="translate(331.277 96.533)" fill="none" stroke="#fff" stroke-miterlimit="10" stroke-width="0.321"/>
        <line id="Línea_637" data-name="Línea 637" x2="0.034" y2="1.548" transform="translate(330.597 96.548)" fill="none" stroke="#fff" stroke-miterlimit="10" stroke-width="0.321"/>
        <line id="Línea_638" data-name="Línea 638" x2="0.034" y2="1.547" transform="translate(329.918 96.563)" fill="none" stroke="#fff" stroke-miterlimit="10" stroke-width="0.321"/>
        <line id="Línea_639" data-name="Línea 639" x2="0.048" y2="2.224" transform="translate(329.238 96.577)" fill="none" stroke="#fff" stroke-miterlimit="10" stroke-width="0.321"/>
        <line id="Línea_640" data-name="Línea 640" x2="0.034" y2="1.547" transform="translate(328.528 96.593)" fill="none" stroke="#fff" stroke-miterlimit="10" stroke-width="0.321"/>
        <line id="Línea_641" data-name="Línea 641" x2="0.034" y2="1.547" transform="translate(327.848 96.607)" fill="none" stroke="#fff" stroke-miterlimit="10" stroke-width="0.321"/>
        <line id="Línea_642" data-name="Línea 642" x2="0.034" y2="1.548" transform="translate(327.168 96.622)" fill="none" stroke="#fff" stroke-miterlimit="10" stroke-width="0.321"/>
        <line id="Línea_643" data-name="Línea 643" x2="0.048" y2="2.224" transform="translate(326.488 96.637)" fill="none" stroke="#fff" stroke-miterlimit="10" stroke-width="0.321"/>
        <line id="Línea_644" data-name="Línea 644" x2="0.034" y2="1.548" transform="translate(325.778 96.652)" fill="none" stroke="#fff" stroke-miterlimit="10" stroke-width="0.321"/>
        <line id="Línea_645" data-name="Línea 645" x2="0.034" y2="1.548" transform="translate(325.098 96.667)" fill="none" stroke="#fff" stroke-miterlimit="10" stroke-width="0.321"/>
        <line id="Línea_646" data-name="Línea 646" x2="0.034" y2="1.548" transform="translate(324.418 96.681)" fill="none" stroke="#fff" stroke-miterlimit="10" stroke-width="0.321"/>
        <line id="Línea_647" data-name="Línea 647" x2="0.048" y2="2.224" transform="translate(323.739 96.696)" fill="none" stroke="#fff" stroke-miterlimit="10" stroke-width="0.321"/>
        <line id="Línea_648" data-name="Línea 648" x2="0.034" y2="1.548" transform="translate(323.028 96.711)" fill="none" stroke="#fff" stroke-miterlimit="10" stroke-width="0.321"/>
        <line id="Línea_649" data-name="Línea 649" x2="0.034" y2="1.548" transform="translate(322.348 96.726)" fill="none" stroke="#fff" stroke-miterlimit="10" stroke-width="0.321"/>
        <line id="Línea_650" data-name="Línea 650" x2="0.034" y2="1.548" transform="translate(321.669 96.741)" fill="none" stroke="#fff" stroke-miterlimit="10" stroke-width="0.321"/>
        <line id="Línea_651" data-name="Línea 651" x2="0.048" y2="2.224" transform="translate(320.989 96.756)" fill="none" stroke="#fff" stroke-miterlimit="10" stroke-width="0.321"/>
        <line id="Línea_652" data-name="Línea 652" x2="0.034" y2="1.548" transform="translate(320.278 96.771)" fill="none" stroke="#fff" stroke-miterlimit="10" stroke-width="0.321"/>
        <line id="Línea_653" data-name="Línea 653" x2="0.034" y2="1.547" transform="translate(319.599 96.786)" fill="none" stroke="#fff" stroke-miterlimit="10" stroke-width="0.321"/>
        <line id="Línea_654" data-name="Línea 654" x2="0.034" y2="1.548" transform="translate(318.919 96.8)" fill="none" stroke="#fff" stroke-miterlimit="10" stroke-width="0.321"/>
        <line id="Línea_655" data-name="Línea 655" x2="0.048" y2="2.224" transform="translate(318.239 96.815)" fill="none" stroke="#fff" stroke-miterlimit="10" stroke-width="0.321"/>
        <line id="Línea_656" data-name="Línea 656" x2="0.034" y2="1.547" transform="translate(317.529 96.83)" fill="none" stroke="#fff" stroke-miterlimit="10" stroke-width="0.321"/>
        <line id="Línea_657" data-name="Línea 657" x2="0.034" y2="1.547" transform="translate(316.849 96.845)" fill="none" stroke="#fff" stroke-miterlimit="10" stroke-width="0.321"/>
        <line id="Línea_658" data-name="Línea 658" x2="0.034" y2="1.548" transform="translate(316.169 96.86)" fill="none" stroke="#fff" stroke-miterlimit="10" stroke-width="0.321"/>
        <line id="Línea_659" data-name="Línea 659" x2="0.048" y2="2.224" transform="translate(315.49 96.874)" fill="none" stroke="#fff" stroke-miterlimit="10" stroke-width="0.321"/>
        <line id="Línea_660" data-name="Línea 660" x2="0.034" y2="1.548" transform="translate(314.779 96.89)" fill="none" stroke="#fff" stroke-miterlimit="10" stroke-width="0.321"/>
        <line id="Línea_661" data-name="Línea 661" x2="0.034" y2="1.548" transform="translate(314.099 96.904)" fill="none" stroke="#fff" stroke-miterlimit="10" stroke-width="0.321"/>
        <line id="Línea_662" data-name="Línea 662" x2="0.034" y2="1.548" transform="translate(313.42 96.919)" fill="none" stroke="#fff" stroke-miterlimit="10" stroke-width="0.321"/>
        <line id="Línea_663" data-name="Línea 663" x2="0.048" y2="2.224" transform="translate(312.74 96.934)" fill="none" stroke="#fff" stroke-miterlimit="10" stroke-width="0.321"/>
        <line id="Línea_664" data-name="Línea 664" x2="0.034" y2="1.548" transform="translate(312.029 96.949)" fill="none" stroke="#fff" stroke-miterlimit="10" stroke-width="0.321"/>
        <line id="Línea_665" data-name="Línea 665" x2="0.034" y2="1.548" transform="translate(311.35 96.964)" fill="none" stroke="#fff" stroke-miterlimit="10" stroke-width="0.321"/>
        <line id="Línea_666" data-name="Línea 666" x2="0.034" y2="1.547" transform="translate(310.67 96.979)" fill="none" stroke="#fff" stroke-miterlimit="10" stroke-width="0.321"/>
        <line id="Línea_667" data-name="Línea 667" x2="0.048" y2="2.224" transform="translate(309.99 96.993)" fill="none" stroke="#fff" stroke-miterlimit="10" stroke-width="0.321"/>
        <line id="Línea_668" data-name="Línea 668" x2="0.034" y2="1.547" transform="translate(309.28 97.009)" fill="none" stroke="#fff" stroke-miterlimit="10" stroke-width="0.321"/>
        <line id="Línea_669" data-name="Línea 669" x2="0.034" y2="1.547" transform="translate(308.6 97.023)" fill="none" stroke="#fff" stroke-miterlimit="10" stroke-width="0.321"/>
        <line id="Línea_670" data-name="Línea 670" x2="0.034" y2="1.547" transform="translate(307.92 97.038)" fill="none" stroke="#fff" stroke-miterlimit="10" stroke-width="0.321"/>
        <line id="Línea_671" data-name="Línea 671" x2="0.048" y2="2.224" transform="translate(307.241 97.053)" fill="none" stroke="#fff" stroke-miterlimit="10" stroke-width="0.321"/>
        <line id="Línea_672" data-name="Línea 672" x2="0.034" y2="1.548" transform="translate(306.53 97.068)" fill="none" stroke="#fff" stroke-miterlimit="10" stroke-width="0.321"/>
        <line id="Línea_673" data-name="Línea 673" x2="0.034" y2="1.548" transform="translate(305.85 97.083)" fill="none" stroke="#fff" stroke-miterlimit="10" stroke-width="0.321"/>
        <line id="Línea_674" data-name="Línea 674" x2="0.034" y2="1.548" transform="translate(305.171 97.097)" fill="none" stroke="#fff" stroke-miterlimit="10" stroke-width="0.321"/>
        <line id="Línea_675" data-name="Línea 675" x2="0.048" y2="2.224" transform="translate(304.491 97.112)" fill="none" stroke="#fff" stroke-miterlimit="10" stroke-width="0.321"/>
        <line id="Línea_676" data-name="Línea 676" x2="0.034" y2="1.548" transform="translate(303.78 97.127)" fill="none" stroke="#fff" stroke-miterlimit="10" stroke-width="0.321"/>
        <line id="Línea_677" data-name="Línea 677" x2="0.034" y2="1.548" transform="translate(303.101 97.142)" fill="none" stroke="#fff" stroke-miterlimit="10" stroke-width="0.321"/>
        <line id="Línea_678" data-name="Línea 678" x2="0.034" y2="1.548" transform="translate(302.421 97.157)" fill="none" stroke="#fff" stroke-miterlimit="10" stroke-width="0.321"/>
        <line id="Línea_679" data-name="Línea 679" x2="0.048" y2="2.224" transform="translate(301.741 97.171)" fill="none" stroke="#fff" stroke-miterlimit="10" stroke-width="0.321"/>
        <line id="Línea_680" data-name="Línea 680" x2="0.034" y2="1.548" transform="translate(301.031 97.187)" fill="none" stroke="#fff" stroke-miterlimit="10" stroke-width="0.321"/>
        <line id="Línea_681" data-name="Línea 681" x2="0.034" y2="1.547" transform="translate(300.351 97.202)" fill="none" stroke="#fff" stroke-miterlimit="10" stroke-width="0.321"/>
        <line id="Línea_682" data-name="Línea 682" x2="0.034" y2="1.548" transform="translate(299.671 97.216)" fill="none" stroke="#fff" stroke-miterlimit="10" stroke-width="0.321"/>
        <line id="Línea_683" data-name="Línea 683" x2="0.048" y2="2.224" transform="translate(298.992 97.231)" fill="none" stroke="#fff" stroke-miterlimit="10" stroke-width="0.321"/>
        <line id="Línea_684" data-name="Línea 684" x2="0.034" y2="1.547" transform="translate(298.281 97.246)" fill="none" stroke="#fff" stroke-miterlimit="10" stroke-width="0.321"/>
        <line id="Línea_685" data-name="Línea 685" x2="0.034" y2="1.548" transform="translate(297.601 97.261)" fill="none" stroke="#fff" stroke-miterlimit="10" stroke-width="0.321"/>
        <line id="Línea_686" data-name="Línea 686" x2="0.034" y2="1.548" transform="translate(296.922 97.276)" fill="none" stroke="#fff" stroke-miterlimit="10" stroke-width="0.321"/>
        <line id="Línea_687" data-name="Línea 687" x2="0.048" y2="2.224" transform="translate(296.242 97.29)" fill="none" stroke="#fff" stroke-miterlimit="10" stroke-width="0.321"/>
        <line id="Línea_688" data-name="Línea 688" x2="0.034" y2="1.548" transform="translate(295.531 97.306)" fill="none" stroke="#fff" stroke-miterlimit="10" stroke-width="0.321"/>
        <line id="Línea_689" data-name="Línea 689" x2="0.034" y2="1.548" transform="translate(294.852 97.32)" fill="none" stroke="#fff" stroke-miterlimit="10" stroke-width="0.321"/>
        <line id="Línea_690" data-name="Línea 690" x2="0.034" y2="1.548" transform="translate(294.172 97.335)" fill="none" stroke="#fff" stroke-miterlimit="10" stroke-width="0.321"/>
        <line id="Línea_691" data-name="Línea 691" x2="0.048" y2="2.224" transform="translate(293.492 97.35)" fill="none" stroke="#fff" stroke-miterlimit="10" stroke-width="0.321"/>
        <line id="Línea_692" data-name="Línea 692" x2="0.034" y2="1.548" transform="translate(292.782 97.365)" fill="none" stroke="#fff" stroke-miterlimit="10" stroke-width="0.321"/>
        <line id="Línea_693" data-name="Línea 693" x2="0.034" y2="1.547" transform="translate(292.102 97.38)" fill="none" stroke="#fff" stroke-miterlimit="10" stroke-width="0.321"/>
        <line id="Línea_694" data-name="Línea 694" x2="0.034" y2="1.548" transform="translate(291.422 97.394)" fill="none" stroke="#fff" stroke-miterlimit="10" stroke-width="0.321"/>
        <line id="Línea_695" data-name="Línea 695" x2="0.048" y2="2.224" transform="translate(290.743 97.409)" fill="none" stroke="#fff" stroke-miterlimit="10" stroke-width="0.321"/>
        <line id="Línea_696" data-name="Línea 696" x2="0.034" y2="1.548" transform="translate(290.032 97.425)" fill="none" stroke="#fff" stroke-miterlimit="10" stroke-width="0.321"/>
        <line id="Línea_697" data-name="Línea 697" x2="0.034" y2="1.547" transform="translate(289.352 97.439)" fill="none" stroke="#fff" stroke-miterlimit="10" stroke-width="0.321"/>
        <line id="Línea_698" data-name="Línea 698" x2="0.034" y2="1.548" transform="translate(288.673 97.454)" fill="none" stroke="#fff" stroke-miterlimit="10" stroke-width="0.321"/>
        <line id="Línea_699" data-name="Línea 699" x2="0.048" y2="2.224" transform="translate(287.993 97.469)" fill="none" stroke="#fff" stroke-miterlimit="10" stroke-width="0.321"/>
        <path id="Trazado_1181915" data-name="Trazado 1181915" d="M303.99,77.9a6.814,6.814,0,0,0,12.363,1.318l.025-.047a1.915,1.915,0,0,1,.114-.277,6.311,6.311,0,0,1,.3-.582,6.728,6.728,0,0,1,.591-.865l4.206,12.926-32.13,10.453-4.2-12.905a7.02,7.02,0,0,1,1.354.517.909.909,0,0,1,.1.054l0,0a1.121,1.121,0,0,1,.1.057,6.806,6.806,0,1,0-2.8-9.491L284,79.1a2.063,2.063,0,0,1-.115.277,6.317,6.317,0,0,1-.3.582,6.422,6.422,0,0,1-.62.9L279.007,68.7l12.761-4.153a7.276,7.276,0,0,0-1.212-.888,6.12,6.12,0,0,0-.582-.3,2.063,2.063,0,0,0-.277-.115l-.047-.024a6.81,6.81,0,1,1,9.491-2.8,1.024,1.024,0,0,0-.057.1l0,0c-.019.029-.037.064-.054.1a6.81,6.81,0,0,0-.609,1.754l12.714-4.137,3.936,12.1a6.627,6.627,0,0,1-1.31-.5c-.033-.017-.068-.035-.1-.054l0,0c-.034-.017-.069-.035-.1-.057A6.81,6.81,0,0,0,303.99,77.9" transform="translate(-50.94 -9.223)" fill="#56998a"/>
        <path id="Trazado_1181916" data-name="Trazado 1181916" d="M425.549,176a4.231,4.231,0,0,0,.47,7.707l.032.01a1.165,1.165,0,0,1,.181.042,3.817,3.817,0,0,1,.387.124,4.2,4.2,0,0,1,.59.272l-7.481,3.911-3.846-7.359a4.071,4.071,0,0,0-.391.786,3.621,3.621,0,0,0-.124.387,1.272,1.272,0,0,0-.043.181l-.01.032a4.229,4.229,0,1,1-2.693-5.523.725.725,0,0,0,.07.025l0,0a.611.611,0,0,0,.065.023,4.11,4.11,0,0,0,1.081.187l-3.833-7.332,7.47-3.9a4.166,4.166,0,0,1-.177.882.468.468,0,0,1-.023.065l0,0a.59.59,0,0,1-.025.069,4.226,4.226,0,1,0,5.523-2.693l-.031-.01a1.218,1.218,0,0,1-.181-.043,3.823,3.823,0,0,1-.388-.123,3.986,3.986,0,0,1-.613-.288l7.04-3.679,3.861,7.385a4.324,4.324,0,0,0,.419-.834,4.028,4.028,0,0,0,.124-.387,1.334,1.334,0,0,0,.042-.181l.01-.032a4.229,4.229,0,1,1,2.693,5.523c-.025-.01-.047-.017-.069-.025l0,0a.661.661,0,0,0-.065-.023,4.1,4.1,0,0,0-1.136-.189l3.845,7.356-7,3.66a4.235,4.235,0,0,1,.172-.854.6.6,0,0,1,.023-.065l0,0a.638.638,0,0,1,.025-.069A4.229,4.229,0,0,0,425.549,176" transform="translate(-74.332 -29.166)" fill="#5c7fc1"/>
        <path id="Trazado_1181917" data-name="Trazado 1181917" d="M364.37,66.214a7.947,7.947,0,0,0-7.949,7.948,7.947,7.947,0,0,0-7.949-7.948,7.947,7.947,0,0,0,7.949-7.948,7.947,7.947,0,0,0,7.949,7.948" transform="translate(-63.623 -10.638)" fill="#fff"/>
        <path id="Trazado_1181918" data-name="Trazado 1181918" d="M146.1,143.764a7.947,7.947,0,0,0-7.948,7.948,7.947,7.947,0,0,0-7.949-7.948,7.947,7.947,0,0,0,7.949-7.948,7.947,7.947,0,0,0,7.948,7.948" transform="translate(-23.771 -24.797)" fill="#fff"/>
        <path id="Trazado_1181919" data-name="Trazado 1181919" d="M149.522,354.7a7.947,7.947,0,0,0-7.948,7.948,7.947,7.947,0,0,0-7.949-7.948,7.947,7.947,0,0,0,7.949-7.948,7.947,7.947,0,0,0,7.948,7.948" transform="translate(-24.397 -63.31)" fill="#fff"/>
        <path id="Trazado_1181920" data-name="Trazado 1181920" d="M338.5,177.523a4.178,4.178,0,0,0-4.178,4.178,4.177,4.177,0,0,0-4.177-4.178,4.177,4.177,0,0,0,4.177-4.178,4.178,4.178,0,0,0,4.178,4.178" transform="translate(-60.277 -31.649)" fill="#fff"/>
        <path id="Trazado_1181921" data-name="Trazado 1181921" d="M146.594,235.813a4.177,4.177,0,0,0-4.177,4.178,4.178,4.178,0,0,0-4.178-4.178,4.178,4.178,0,0,0,4.178-4.178,4.177,4.177,0,0,0,4.177,4.178" transform="translate(-25.239 -42.291)" fill="#fff"/>
        <line id="Línea_700" data-name="Línea 700" y1="10.02" x2="10.02" transform="translate(86.594 69.819)" fill="none" stroke="#d66767" stroke-miterlimit="10" stroke-width="2"/>
        <path id="Trazado_1181922" data-name="Trazado 1181922" d="M109.324,86.883c0,1.359-.789,2.461-1.762,2.461s-1.763-1.1-1.763-2.461.79-2.461,1.763-2.461S109.324,85.524,109.324,86.883Z" transform="translate(-19.316 -15.414)" fill="none" stroke="#d66767" stroke-miterlimit="10" stroke-width="2"/>
        <path id="Trazado_1181923" data-name="Trazado 1181923" d="M117.543,95.1c0,1.359-.789,2.461-1.762,2.461s-1.763-1.1-1.763-2.461.79-2.461,1.763-2.461S117.543,93.743,117.543,95.1Z" transform="translate(-20.817 -16.914)" fill="none" stroke="#d66767" stroke-miterlimit="10" stroke-width="2"/>
        <line id="Línea_701" data-name="Línea 701" y1="10.02" x2="10.02" transform="translate(123.052 328.29)" fill="none" stroke="#56998a" stroke-miterlimit="10" stroke-width="2"/>
        <path id="Trazado_1181924" data-name="Trazado 1181924" d="M153.925,403.086c0,1.359-.789,2.461-1.762,2.461s-1.763-1.1-1.763-2.461.79-2.461,1.763-2.461S153.925,401.727,153.925,403.086Z" transform="translate(-27.459 -73.145)" fill="none" stroke="#56998a" stroke-miterlimit="10" stroke-width="2"/>
        <path id="Trazado_1181925" data-name="Trazado 1181925" d="M162.144,411.3c0,1.359-.789,2.461-1.762,2.461s-1.763-1.1-1.763-2.461.79-2.461,1.763-2.461S162.144,409.945,162.144,411.3Z" transform="translate(-28.96 -74.646)" fill="none" stroke="#56998a" stroke-miterlimit="10" stroke-width="2"/>
        <line id="Línea_702" data-name="Línea 702" x2="8.927" y2="8.927" transform="translate(197.723 67.508)" fill="none" stroke="#ebae3d" stroke-miterlimit="10" stroke-width="2"/>
        <line id="Línea_703" data-name="Línea 703" x1="8.927" y2="8.927" transform="translate(197.723 67.508)" fill="none" stroke="#ebae3d" stroke-miterlimit="10" stroke-width="2"/>
        <line id="Línea_704" data-name="Línea 704" x2="8.927" y2="8.927" transform="translate(196.688 310.34)" fill="none" stroke="#ebae3d" stroke-miterlimit="10" stroke-width="2"/>
        <line id="Línea_705" data-name="Línea 705" x1="8.927" y2="8.927" transform="translate(196.688 310.34)" fill="none" stroke="#ebae3d" stroke-miterlimit="10" stroke-width="2"/>
        <line id="Línea_706" data-name="Línea 706" y2="12.624" transform="translate(320.688 279.866)" fill="none" stroke="#5c7fc1" stroke-miterlimit="10" stroke-width="2"/>
        <line id="Línea_707" data-name="Línea 707" x1="12.625" transform="translate(314.376 286.178)" fill="none" stroke="#5c7fc1" stroke-miterlimit="10" stroke-width="2"/>
        <path id="Trazado_1181926" data-name="Trazado 1181926" d="M49.2,225.684l3.808,4.154,3.115-7.963H64.9" transform="translate(8.35 -43.002)" fill="none" stroke="#5c7fc1" stroke-miterlimit="10" stroke-width="2"/>
      </g>
    </g>
  </g>
</svg>
